<?xml version="1.0" standalone="no"?>
<!DOCTYPE svg PUBLIC "-//W3C/DTD SVG 1.1//EN" "http://www.w3.org/Graphics/SVG/1.1/DTD/svg11.dtd">
<svg width="539px" height="22px" viewBox="0 0 5391 229" xmlns="http://www.w3.org/2000/svg" xmlns:xlink="http://www.w3.org/1999/xlink" version="1.1">
<defs>
<path id="gl5402" d="M 27 7 C 24 9 22 12 18 19 C 14 27 13 41 17 48 C 20 54 27 57 33 54 C 38 52 40 45 37 40 C 36 38 36 37 31 36 C 24 34 24 26 31 19 C 36 14 36 11 33 7 C 31 5 30 5 27 7 M 61 7 C 60 9 58 10 55 15 C 51 23 50 27 50 34 C 50 46 52 52 60 54 C 70 58 79 48 72 39 C 72 37 70 37 66 36 C 59 34 59 27 66 19 C 70 14 72 12 70 9 C 68 6 65 5 61 7 z" fill="black" /><!-- width=87 height=73 -->
<path id="gl8964" d="M 58 12 C 42 13 28 24 21 37 C 12 58 18 78 38 87 C 44 90 64 96 75 98 C 95 102 106 111 106 123 C 106 146 79 159 51 149 C 43 147 36 141 33 137 C 24 124 22 123 18 123 C 16 123 13 126 12 129 C 11 134 15 141 22 149 C 37 165 67 170 93 162 C 117 154 131 128 123 106 C 118 90 105 81 79 76 C 75 75 69 73 67 73 C 66 72 61 71 59 70 C 51 68 41 61 39 56 C 36 44 40 33 51 28 C 66 20 84 24 98 39 C 103 44 103 45 106 45 C 114 44 115 28 107 21 C 99 14 75 9 58 12 z" fill="black" /><!-- width=138 height=178 -->
<path id="gl0" d="M 38 8 C 36 11 35 14 34 24 C 33 39 31 42 24 42 C 19 43 16 44 15 47 C 14 51 18 54 24 54 C 29 55 31 57 31 61 C 31 63 31 81 31 99 C 30 143 29 139 46 141 C 52 141 58 141 61 141 C 70 142 76 137 72 131 C 71 128 67 127 60 127 C 47 127 48 129 47 90 C 47 58 47 57 49 55 C 51 54 51 54 56 54 C 66 56 70 55 72 51 C 73 48 73 45 70 43 C 69 42 62 42 54 43 C 53 43 52 43 51 43 C 50 43 49 42 49 42 C 47 39 47 37 48 24 C 49 11 48 7 42 6 C 40 6 40 6 38 8 z" fill="black" /><!-- width=84 height=157 -->
<path id="gl515" d="M 64 12 C 43 16 27 31 21 52 C 19 60 19 73 21 79 C 29 108 63 123 91 109 C 108 100 115 91 109 85 C 106 81 102 83 94 90 C 83 99 73 102 60 98 C 49 96 39 85 40 79 C 41 75 42 74 54 73 C 75 73 91 67 101 56 C 110 46 110 33 102 22 C 93 13 79 9 64 12 M 78 25 C 85 27 89 31 89 38 C 89 46 85 51 75 56 C 70 58 48 65 44 65 C 38 65 36 61 39 53 C 43 34 61 21 78 25 z" fill="black" /><!-- width=123 height=126 -->
<path id="gl4104" d="M 76 34 C 70 35 64 37 61 40 C 55 45 51 45 48 40 C 45 36 42 34 38 34 C 31 34 24 39 24 43 C 24 46 24 46 28 49 C 35 54 34 50 34 102 C 35 152 35 154 31 159 C 27 164 28 167 32 169 C 36 171 54 170 56 168 C 59 166 59 163 56 160 C 52 154 52 154 52 142 C 52 135 52 129 53 127 C 54 124 54 123 53 120 C 52 115 51 88 52 76 C 52 64 54 60 60 54 C 74 40 97 43 105 61 C 109 71 111 86 108 97 C 102 117 89 126 70 121 C 63 119 61 119 58 121 C 58 122 57 123 57 123 C 57 124 57 124 58 125 C 60 130 70 133 80 133 C 102 133 121 119 125 100 C 133 67 120 41 94 35 C 90 34 80 33 76 34 z" fill="black" /><!-- width=141 height=184 -->
<path id="gl17671" d="M 49 9 C 48 9 45 9 43 10 C 41 11 38 12 36 12 C 28 15 24 18 19 25 C 12 34 11 38 13 44 C 16 48 18 49 23 49 C 30 50 32 48 33 40 C 34 30 37 25 43 22 C 47 21 60 21 65 22 C 75 26 79 33 81 43 C 81 50 81 52 78 57 C 73 69 66 73 46 76 C 42 76 40 77 39 81 C 37 85 39 87 50 88 C 70 89 79 94 85 107 C 88 115 86 133 81 139 C 75 145 61 151 52 151 C 37 151 30 145 25 130 C 24 125 21 122 16 121 C 13 121 9 123 7 126 C 5 130 7 144 9 147 C 14 151 27 159 33 161 C 46 165 72 164 79 160 C 80 160 82 159 84 158 C 86 157 87 156 88 155 C 90 154 92 151 94 150 C 99 147 100 145 104 138 C 109 130 109 127 109 117 C 108 105 108 103 99 94 C 96 90 91 87 90 85 C 89 84 88 83 87 81 C 86 78 87 76 92 70 C 100 62 103 55 103 45 C 103 33 100 28 90 19 C 86 15 83 13 75 10 C 72 9 55 7 49 9 z" fill="black" /><!-- width=133 height=175 -->
<path id="gl21017" d="M 9 9 C 4 19 9 28 19 28 C 28 28 33 14 24 9 C 19 0 14 0 9 9 M 9 76 C 9 86 9 91 19 86 C 24 86 28 81 28 76 C 28 72 24 67 19 67 C 9 62 9 67 9 76 z" fill="black" /><!-- width=38 height=100 -->
<path id="gl8964" d="M 58 12 C 42 13 28 24 21 37 C 12 58 18 78 38 87 C 44 90 64 96 75 98 C 95 102 106 111 106 123 C 106 146 79 159 51 149 C 43 147 36 141 33 137 C 24 124 22 123 18 123 C 16 123 13 126 12 129 C 11 134 15 141 22 149 C 37 165 67 170 93 162 C 117 154 131 128 123 106 C 118 90 105 81 79 76 C 75 75 69 73 67 73 C 66 72 61 71 59 70 C 51 68 41 61 39 56 C 36 44 40 33 51 28 C 66 20 84 24 98 39 C 103 44 103 45 106 45 C 114 44 115 28 107 21 C 99 14 75 9 58 12 z" fill="black" /><!-- width=138 height=178 -->
<path id="gl3848" d="M 24 9 C 16 13 16 24 22 29 C 26 31 34 31 38 29 C 42 26 43 25 43 19 C 43 18 43 16 43 14 C 42 13 41 12 40 12 C 36 7 29 6 24 9 M 31 46 C 30 46 27 48 25 48 C 24 49 21 51 19 51 C 16 52 13 55 13 58 C 13 61 15 63 21 65 C 25 67 25 66 25 98 C 25 130 25 129 20 132 C 13 136 12 141 18 144 C 19 145 22 145 33 145 C 37 145 42 145 46 145 C 48 144 48 144 49 143 C 54 140 52 137 47 133 C 41 128 42 131 42 90 C 42 51 42 51 39 48 C 36 45 36 45 31 46 z" fill="black" /><!-- width=64 height=169 -->
<path id="gl3" d="M 66 16 C 66 16 63 17 60 18 C 57 19 54 20 51 22 C 44 28 44 28 42 27 C 40 26 39 25 37 22 C 37 20 35 18 34 18 C 29 14 16 21 16 28 C 16 31 16 31 21 36 C 22 37 24 39 26 40 C 26 49 26 59 26 69 C 26 78 26 88 26 97 C 24 99 22 100 21 102 C 16 107 15 108 17 111 C 19 114 19 114 34 114 C 48 114 49 114 50 112 C 54 109 54 106 48 102 C 43 98 43 99 43 71 C 43 46 43 46 45 43 C 51 31 75 25 87 34 C 93 38 93 41 93 74 C 93 99 93 98 89 101 C 84 105 82 109 86 112 C 88 114 88 114 100 114 C 114 114 115 114 117 111 C 120 108 119 105 114 100 C 112 100 111 99 111 98 C 111 97 111 84 110 69 C 110 39 110 39 106 31 C 102 22 89 15 74 16 C 70 16 67 16 66 16 z" fill="black" /><!-- width=131 height=127 -->
<path id="gl774" d="M 44 16 C 31 19 19 28 14 39 C 6 55 7 80 17 93 C 26 106 44 112 59 109 C 67 107 69 107 73 109 C 86 115 88 130 76 136 C 69 140 52 142 40 139 C 31 138 29 137 27 129 C 23 118 12 122 10 134 C 8 147 22 154 50 154 C 78 154 97 146 102 132 C 105 121 102 111 91 105 C 84 100 84 97 90 90 C 96 81 99 75 99 63 C 99 54 97 49 93 42 C 89 34 90 31 96 30 C 106 28 108 22 101 18 C 98 16 96 16 84 17 C 78 18 74 17 67 16 C 57 15 49 15 44 16 M 65 31 C 83 40 86 78 69 91 C 63 96 49 97 42 94 C 21 84 21 44 42 32 C 48 28 58 28 65 31 z" fill="black" /><!-- width=117 height=168 -->
<path id="gl5917" d="M 44 10 C 21 14 8 33 17 52 C 21 60 30 65 45 68 C 51 69 60 72 62 73 C 72 79 68 93 56 97 C 46 100 35 97 27 88 C 21 82 16 80 13 84 C 4 91 17 107 36 111 C 64 118 91 96 85 73 C 82 61 73 55 51 49 C 34 45 29 42 31 34 C 34 22 53 20 64 30 C 72 37 76 39 80 36 C 84 32 82 22 77 18 C 72 13 54 9 44 10 z" fill="black" /><!-- width=99 height=124 -->
<path id="gl256" d="M 25 7 C 19 10 17 12 17 19 C 17 26 21 29 28 30 C 37 30 42 24 40 15 C 39 10 31 6 25 7 M 31 45 C 30 45 28 46 26 47 C 24 48 22 49 20 49 C 11 52 10 59 18 63 C 24 67 24 64 24 96 C 24 106 24 115 24 124 C 23 125 22 126 22 127 C 21 128 19 130 18 132 C 10 136 13 143 23 142 C 28 142 36 142 40 143 C 44 143 45 143 47 141 C 51 138 51 135 45 130 C 40 127 40 130 40 88 C 40 47 40 48 36 46 C 34 45 33 45 31 45 z" fill="black" /><!-- width=61 height=168 -->
<path id="gl262" d="M 129 19 C 122 19 115 22 109 27 C 103 31 100 31 94 26 C 87 21 83 19 73 19 C 63 18 57 20 49 25 C 43 29 42 29 37 24 C 33 18 29 18 23 22 C 16 27 16 30 22 39 C 25 42 25 44 25 71 C 25 99 25 99 21 103 C 15 111 21 114 37 114 C 45 113 46 113 48 111 C 50 109 49 107 46 103 C 42 99 42 99 43 71 C 43 48 43 47 44 45 C 51 30 72 25 82 36 C 87 42 87 48 88 76 C 88 98 87 98 84 103 C 81 107 81 108 82 110 C 83 113 85 114 94 114 C 110 114 114 111 108 103 C 105 97 105 97 105 73 C 105 43 105 40 118 33 C 132 27 144 31 148 43 C 150 46 150 50 150 70 C 150 97 150 97 146 103 C 143 108 143 108 145 111 C 147 113 151 114 163 114 C 173 113 175 110 171 103 C 167 98 167 100 166 72 C 166 63 166 54 166 46 C 166 44 165 42 165 40 C 163 34 161 31 157 27 C 151 21 139 17 129 19 z" fill="black" /><!-- width=186 height=128 -->
<path id="gl5405" d="M 35 35 C 24 38 20 45 27 51 C 34 57 34 56 34 79 C 34 90 34 109 34 126 C 34 156 34 154 30 160 C 27 166 27 169 31 171 C 35 172 53 172 56 171 C 60 169 60 166 57 160 C 53 154 52 153 53 140 C 53 129 54 127 61 131 C 72 138 93 136 105 129 C 120 120 127 107 128 87 C 129 60 118 42 96 36 C 85 32 72 34 62 40 C 54 45 54 45 48 40 C 43 34 40 34 35 35 M 85 49 C 101 51 109 63 109 85 C 109 112 93 127 70 121 C 66 120 64 120 61 120 C 54 121 54 120 52 113 C 52 106 52 75 54 70 C 56 58 67 49 81 48 C 81 48 84 48 85 49 z" fill="black" /><!-- width=141 height=187 -->
<path id="gl7" d="M 29 9 C 25 9 17 13 15 15 C 11 18 12 20 16 25 C 18 27 20 29 20 30 C 21 34 21 141 20 144 C 20 145 18 147 16 150 C 12 154 12 154 13 157 C 15 160 16 160 30 160 C 45 160 45 160 46 157 C 48 154 46 152 42 148 C 37 144 37 149 37 85 C 37 53 38 24 38 21 C 39 13 37 11 34 9 C 32 9 33 9 29 9 z" fill="black" /><!-- width=58 height=175 -->
<path id="gl261" d="M 61 12 C 43 16 28 30 21 49 C 19 57 19 72 21 79 C 30 108 63 120 91 106 C 97 103 102 100 106 96 C 112 91 111 83 105 81 C 102 81 98 83 93 88 C 85 96 73 100 61 97 C 48 94 36 82 40 75 C 41 73 43 72 52 72 C 73 71 89 65 99 55 C 105 49 106 46 106 38 C 106 30 105 27 99 21 C 91 12 77 9 61 12 M 79 25 C 93 29 91 45 78 53 C 72 57 49 63 42 63 C 36 63 35 58 39 47 C 45 31 64 21 79 25 z" fill="black" /><!-- width=121 height=124 -->
<path id="gl20738" d="M 46 10 C 27 12 14 25 15 42 C 16 56 24 63 45 69 C 63 73 67 76 69 83 C 70 88 65 95 60 97 C 47 102 37 99 28 88 C 22 81 14 81 11 87 C 6 100 31 116 52 113 C 70 111 82 102 87 85 C 88 79 88 75 85 69 C 80 58 72 54 46 48 C 39 46 36 45 34 42 C 27 31 40 21 55 25 C 61 26 62 27 67 32 C 72 37 76 39 79 37 C 85 34 85 26 81 19 C 75 13 60 9 46 10 z" fill="black" /><!-- width=101 height=124 -->
<path id="gl0" d="M 38 8 C 36 11 35 14 34 24 C 33 39 31 42 24 42 C 19 43 16 44 15 47 C 14 51 18 54 24 54 C 29 55 31 57 31 61 C 31 63 31 81 31 99 C 30 143 29 139 46 141 C 52 141 58 141 61 141 C 70 142 76 137 72 131 C 71 128 67 127 60 127 C 47 127 48 129 47 90 C 47 58 47 57 49 55 C 51 54 51 54 56 54 C 66 56 70 55 72 51 C 73 48 73 45 70 43 C 69 42 62 42 54 43 C 53 43 52 43 51 43 C 50 43 49 42 49 42 C 47 39 47 37 48 24 C 49 11 48 7 42 6 C 40 6 40 6 38 8 z" fill="black" /><!-- width=84 height=157 -->
<path id="gl515" d="M 64 12 C 43 16 27 31 21 52 C 19 60 19 73 21 79 C 29 108 63 123 91 109 C 108 100 115 91 109 85 C 106 81 102 83 94 90 C 83 99 73 102 60 98 C 49 96 39 85 40 79 C 41 75 42 74 54 73 C 75 73 91 67 101 56 C 110 46 110 33 102 22 C 93 13 79 9 64 12 M 78 25 C 85 27 89 31 89 38 C 89 46 85 51 75 56 C 70 58 48 65 44 65 C 38 65 36 61 39 53 C 43 34 61 21 78 25 z" fill="black" /><!-- width=123 height=126 -->
<path id="gl3613" d="M 73 35 C 67 37 66 37 60 41 C 53 46 51 46 47 39 C 43 33 33 33 27 39 C 22 43 23 46 28 51 C 35 55 34 52 34 103 C 35 152 35 153 31 158 C 28 163 28 164 30 166 C 31 167 31 168 32 168 C 36 168 39 168 43 168 C 47 168 51 168 55 168 C 55 168 56 167 57 166 C 58 164 58 162 54 157 C 52 154 51 152 52 138 C 52 131 52 124 52 123 C 52 121 52 109 52 97 C 51 66 52 64 59 56 C 61 53 64 51 67 49 C 69 49 71 48 73 47 C 75 47 78 47 81 47 C 90 47 94 48 100 54 C 106 61 108 68 109 81 C 109 97 106 108 96 116 C 89 122 81 123 71 121 C 62 118 59 119 58 123 C 57 128 67 132 80 132 C 112 133 133 105 126 69 C 120 45 97 29 73 35 z" fill="black" /><!-- width=141 height=183 -->
<path id="gl5911" d="M 15 14 C 10 15 9 19 10 23 C 12 27 13 27 30 27 C 38 27 48 27 51 27 C 61 28 66 26 66 21 C 66 15 61 13 52 13 C 45 14 22 14 19 13 C 18 13 16 13 15 14 z" fill="black" /><!-- width=76 height=41 -->
<path id="gl3857" d="M 30 18 C 28 18 25 18 23 18 C 22 19 22 20 21 21 C 19 23 19 24 22 31 C 22 33 24 39 25 45 C 30 66 35 82 43 97 C 56 124 63 122 80 87 C 87 75 87 74 90 73 C 92 73 92 73 98 85 C 114 121 121 124 135 100 C 142 87 150 66 157 39 C 157 36 159 33 159 31 C 163 22 160 18 150 18 C 143 18 141 18 139 21 C 138 23 138 24 140 28 C 143 34 143 42 141 51 C 137 65 132 79 128 85 C 126 89 124 91 121 91 C 117 91 104 60 102 43 C 100 37 101 34 103 28 C 105 24 105 23 104 21 C 102 18 100 18 91 18 C 88 18 86 18 83 18 C 82 19 82 19 81 20 C 79 22 79 24 82 29 C 84 34 84 34 83 40 C 82 54 73 81 66 90 C 64 90 64 91 63 92 C 62 92 61 91 60 91 C 58 90 58 90 55 85 C 50 75 43 49 42 39 C 42 33 42 33 44 29 C 46 24 46 24 45 21 C 43 18 40 17 30 18 z" fill="black" /><!-- width=176 height=129 -->
<path id="gl256" d="M 25 7 C 19 10 17 12 17 19 C 17 26 21 29 28 30 C 37 30 42 24 40 15 C 39 10 31 6 25 7 M 31 45 C 30 45 28 46 26 47 C 24 48 22 49 20 49 C 11 52 10 59 18 63 C 24 67 24 64 24 96 C 24 106 24 115 24 124 C 23 125 22 126 22 127 C 21 128 19 130 18 132 C 10 136 13 143 23 142 C 28 142 36 142 40 143 C 44 143 45 143 47 141 C 51 138 51 135 45 130 C 40 127 40 130 40 88 C 40 47 40 48 36 46 C 34 45 33 45 31 45 z" fill="black" /><!-- width=61 height=168 -->
<path id="gl6162" d="M 41 12 C 38 12 33 13 27 15 C 25 16 23 18 19 21 C 13 28 12 30 12 40 C 12 49 13 52 20 58 C 25 63 27 64 41 67 C 57 72 58 72 61 75 C 69 84 66 93 55 99 C 44 104 36 102 26 91 C 19 84 15 83 10 87 C 6 89 6 90 8 94 C 12 106 24 114 42 114 C 57 115 69 110 76 99 C 77 97 78 96 79 95 C 82 90 82 74 79 67 C 75 60 63 53 48 51 C 41 49 31 45 30 42 C 28 40 28 33 30 30 C 34 24 43 23 55 26 C 59 27 60 28 64 32 C 69 37 71 39 75 37 C 78 36 81 30 79 26 C 78 24 73 18 71 16 C 67 15 58 12 53 12 C 51 12 47 11 46 11 C 45 11 42 11 41 12 z" fill="black" /><!-- width=93 height=127 -->
<path id="gl5144" d="M 66 12 C 34 17 13 48 21 80 C 27 106 58 121 85 112 C 102 106 114 95 111 87 C 108 81 102 82 93 90 C 86 97 79 100 70 100 C 58 100 46 94 43 85 C 39 78 42 75 52 75 C 75 75 99 64 106 50 C 108 45 108 34 106 29 C 100 18 82 10 66 12 M 81 27 C 90 32 91 43 84 51 C 79 55 67 60 52 63 C 42 66 38 64 38 58 C 38 45 52 29 66 27 C 70 25 78 26 81 27 z" fill="black" /><!-- width=123 height=128 -->
<path id="gl262" d="M 129 19 C 122 19 115 22 109 27 C 103 31 100 31 94 26 C 87 21 83 19 73 19 C 63 18 57 20 49 25 C 43 29 42 29 37 24 C 33 18 29 18 23 22 C 16 27 16 30 22 39 C 25 42 25 44 25 71 C 25 99 25 99 21 103 C 15 111 21 114 37 114 C 45 113 46 113 48 111 C 50 109 49 107 46 103 C 42 99 42 99 43 71 C 43 48 43 47 44 45 C 51 30 72 25 82 36 C 87 42 87 48 88 76 C 88 98 87 98 84 103 C 81 107 81 108 82 110 C 83 113 85 114 94 114 C 110 114 114 111 108 103 C 105 97 105 97 105 73 C 105 43 105 40 118 33 C 132 27 144 31 148 43 C 150 46 150 50 150 70 C 150 97 150 97 146 103 C 143 108 143 108 145 111 C 147 113 151 114 163 114 C 173 113 175 110 171 103 C 167 98 167 100 166 72 C 166 63 166 54 166 46 C 166 44 165 42 165 40 C 163 34 161 31 157 27 C 151 21 139 17 129 19 z" fill="black" /><!-- width=186 height=128 -->
<path id="gl515" d="M 64 12 C 43 16 27 31 21 52 C 19 60 19 73 21 79 C 29 108 63 123 91 109 C 108 100 115 91 109 85 C 106 81 102 83 94 90 C 83 99 73 102 60 98 C 49 96 39 85 40 79 C 41 75 42 74 54 73 C 75 73 91 67 101 56 C 110 46 110 33 102 22 C 93 13 79 9 64 12 M 78 25 C 85 27 89 31 89 38 C 89 46 85 51 75 56 C 70 58 48 65 44 65 C 38 65 36 61 39 53 C 43 34 61 21 78 25 z" fill="black" /><!-- width=123 height=126 -->
<path id="gl7" d="M 29 9 C 25 9 17 13 15 15 C 11 18 12 20 16 25 C 18 27 20 29 20 30 C 21 34 21 141 20 144 C 20 145 18 147 16 150 C 12 154 12 154 13 157 C 15 160 16 160 30 160 C 45 160 45 160 46 157 C 48 154 46 152 42 148 C 37 144 37 149 37 85 C 37 53 38 24 38 21 C 39 13 37 11 34 9 C 32 9 33 9 29 9 z" fill="black" /><!-- width=58 height=175 -->
<path id="gl2" d="M 53 12 C 33 16 18 33 14 52 C 11 67 14 81 22 92 C 33 107 49 114 68 112 C 93 111 110 94 114 69 C 118 45 102 19 78 12 C 73 11 58 10 53 12 M 70 24 C 90 28 101 49 96 73 C 91 99 59 110 40 91 C 33 83 30 76 30 63 C 30 37 48 19 70 24 z" fill="black" /><!-- width=129 height=124 -->
<path id="gl10519" d="M 82 10 C 73 13 70 18 75 24 C 79 30 79 30 79 46 C 79 66 79 66 68 64 C 39 59 17 73 9 101 C 7 109 7 123 9 131 C 17 159 43 173 70 161 C 77 159 78 159 84 161 C 93 165 103 163 105 159 C 106 156 106 153 103 150 C 99 144 99 148 99 78 C 99 37 98 15 97 13 C 96 8 90 7 82 10 M 65 78 C 73 80 76 82 78 85 C 79 90 79 133 78 138 C 75 146 61 151 51 150 C 39 147 31 138 29 123 C 24 94 43 71 65 78 z" fill="black" /><!-- width=129 height=201 -->
<path id="gl10268" d="M 26 9 C 21 10 18 16 19 22 C 21 36 40 38 45 24 C 48 13 38 4 26 9 M 33 46 C 28 47 16 53 15 55 C 13 60 15 64 20 67 C 25 69 25 69 25 99 C 25 127 25 128 21 130 C 13 135 13 142 19 145 C 21 146 23 146 28 145 C 34 145 36 145 40 145 C 50 147 55 145 54 139 C 54 137 52 134 49 132 C 44 128 44 130 44 89 C 44 55 44 52 43 50 C 42 46 37 45 33 46 z" fill="black" /><!-- width=67 height=169 -->
<path id="gl5144" d="M 66 12 C 34 17 13 48 21 80 C 27 106 58 121 85 112 C 102 106 114 95 111 87 C 108 81 102 82 93 90 C 86 97 79 100 70 100 C 58 100 46 94 43 85 C 39 78 42 75 52 75 C 75 75 99 64 106 50 C 108 45 108 34 106 29 C 100 18 82 10 66 12 M 81 27 C 90 32 91 43 84 51 C 79 55 67 60 52 63 C 42 66 38 64 38 58 C 38 45 52 29 66 27 C 70 25 78 26 81 27 z" fill="black" /><!-- width=123 height=128 -->
<path id="gl4358" d="M 40 11 C 23 15 13 26 14 41 C 15 48 16 51 20 56 C 25 61 30 63 45 67 C 61 70 64 72 66 78 C 69 84 66 91 61 95 C 49 102 36 100 26 88 C 19 81 12 80 10 86 C 4 100 34 116 55 111 C 66 108 76 100 80 92 C 81 90 82 89 82 87 C 82 85 82 82 82 79 C 82 71 82 71 81 67 C 76 58 67 54 46 49 C 34 46 30 43 29 39 C 27 29 34 23 46 23 C 55 23 58 24 65 31 C 70 36 73 37 76 35 C 82 32 80 20 73 16 C 64 12 49 10 40 11 z" fill="black" /><!-- width=96 height=124 -->
<path id="gl5655" d="M 55 14 C 39 17 30 35 30 62 C 30 72 28 75 24 75 C 18 75 15 78 15 82 C 15 87 16 88 22 89 C 24 90 27 90 27 91 C 29 92 30 97 30 100 C 30 101 29 114 29 128 C 29 157 29 156 24 161 C 18 168 18 173 24 175 C 27 176 52 175 54 174 C 59 172 58 166 52 161 C 48 157 48 157 48 123 C 48 94 48 94 49 92 C 51 89 52 88 58 89 C 66 90 70 87 69 81 C 68 76 66 75 58 75 C 48 75 48 75 48 61 C 48 37 50 33 58 34 C 69 37 73 35 73 27 C 73 19 70 16 63 14 C 58 13 58 13 55 14 z" fill="black" /><!-- width=84 height=189 -->
<path id="gl5" d="M 75 28 C 71 30 67 33 63 38 C 57 47 53 47 51 38 C 48 28 44 25 35 30 C 25 34 23 42 30 46 C 39 53 39 52 39 81 C 39 110 39 108 32 114 C 28 118 28 122 32 124 C 35 125 59 125 61 124 C 66 122 66 118 62 115 C 55 108 55 109 55 85 C 55 66 56 64 60 57 C 67 47 74 43 82 48 C 90 52 97 43 93 34 C 90 28 82 25 75 28 z" fill="black" /><!-- width=105 height=138 -->
<path id="gl2" d="M 53 12 C 33 16 18 33 14 52 C 11 67 14 81 22 92 C 33 107 49 114 68 112 C 93 111 110 94 114 69 C 118 45 102 19 78 12 C 73 11 58 10 53 12 M 70 24 C 90 28 101 49 96 73 C 91 99 59 110 40 91 C 33 83 30 76 30 63 C 30 37 48 19 70 24 z" fill="black" /><!-- width=129 height=124 -->
<path id="gl262" d="M 129 19 C 122 19 115 22 109 27 C 103 31 100 31 94 26 C 87 21 83 19 73 19 C 63 18 57 20 49 25 C 43 29 42 29 37 24 C 33 18 29 18 23 22 C 16 27 16 30 22 39 C 25 42 25 44 25 71 C 25 99 25 99 21 103 C 15 111 21 114 37 114 C 45 113 46 113 48 111 C 50 109 49 107 46 103 C 42 99 42 99 43 71 C 43 48 43 47 44 45 C 51 30 72 25 82 36 C 87 42 87 48 88 76 C 88 98 87 98 84 103 C 81 107 81 108 82 110 C 83 113 85 114 94 114 C 110 114 114 111 108 103 C 105 97 105 97 105 73 C 105 43 105 40 118 33 C 132 27 144 31 148 43 C 150 46 150 50 150 70 C 150 97 150 97 146 103 C 143 108 143 108 145 111 C 147 113 151 114 163 114 C 173 113 175 110 171 103 C 167 98 167 100 166 72 C 166 63 166 54 166 46 C 166 44 165 42 165 40 C 163 34 161 31 157 27 C 151 21 139 17 129 19 z" fill="black" /><!-- width=186 height=128 -->
<path id="gl0" d="M 38 8 C 36 11 35 14 34 24 C 33 39 31 42 24 42 C 19 43 16 44 15 47 C 14 51 18 54 24 54 C 29 55 31 57 31 61 C 31 63 31 81 31 99 C 30 143 29 139 46 141 C 52 141 58 141 61 141 C 70 142 76 137 72 131 C 71 128 67 127 60 127 C 47 127 48 129 47 90 C 47 58 47 57 49 55 C 51 54 51 54 56 54 C 66 56 70 55 72 51 C 73 48 73 45 70 43 C 69 42 62 42 54 43 C 53 43 52 43 51 43 C 50 43 49 42 49 42 C 47 39 47 37 48 24 C 49 11 48 7 42 6 C 40 6 40 6 38 8 z" fill="black" /><!-- width=84 height=157 -->
<path id="gl1" d="M 40 9 C 37 11 36 11 33 13 C 31 16 31 19 33 22 C 38 27 37 21 37 85 C 37 116 37 142 37 144 C 37 144 35 147 34 148 C 27 156 30 159 46 159 C 60 160 64 157 60 150 C 55 144 55 144 54 139 C 54 130 54 91 55 88 C 58 81 73 73 84 75 C 96 76 103 82 104 93 C 105 95 105 106 105 118 C 105 142 105 144 101 148 C 96 156 99 160 114 160 C 129 160 132 156 125 148 C 121 144 121 144 121 117 C 121 96 120 90 120 87 C 114 66 91 57 64 67 C 60 69 59 70 57 69 C 54 67 54 67 54 39 C 54 12 54 11 51 9 C 49 8 44 8 40 9 z" fill="black" /><!-- width=143 height=191 -->
<path id="gl5144" d="M 66 12 C 34 17 13 48 21 80 C 27 106 58 121 85 112 C 102 106 114 95 111 87 C 108 81 102 82 93 90 C 86 97 79 100 70 100 C 58 100 46 94 43 85 C 39 78 42 75 52 75 C 75 75 99 64 106 50 C 108 45 108 34 106 29 C 100 18 82 10 66 12 M 81 27 C 90 32 91 43 84 51 C 79 55 67 60 52 63 C 42 66 38 64 38 58 C 38 45 52 29 66 27 C 70 25 78 26 81 27 z" fill="black" /><!-- width=123 height=128 -->
<path id="gl7691" d="M 47 16 C 21 21 6 43 9 72 C 12 100 33 116 61 111 C 67 110 69 110 71 110 C 84 113 88 129 79 136 C 73 141 69 141 54 141 C 34 141 31 140 28 132 C 25 124 19 122 13 127 C 9 132 9 144 13 148 C 18 154 37 157 55 157 C 85 156 104 144 104 126 C 104 118 101 112 93 106 C 85 102 85 99 93 89 C 102 76 102 58 94 42 C 91 36 92 33 99 31 C 105 30 108 25 105 21 C 103 17 100 16 88 17 C 81 17 75 17 67 16 C 55 15 52 15 47 16 M 64 31 C 67 33 72 37 75 40 C 81 51 82 71 76 84 C 70 96 54 102 41 94 C 25 85 23 53 37 37 C 43 30 55 28 64 31 z" fill="black" /><!-- width=118 height=171 -->
<path id="gl5" d="M 75 28 C 71 30 67 33 63 38 C 57 47 53 47 51 38 C 48 28 44 25 35 30 C 25 34 23 42 30 46 C 39 53 39 52 39 81 C 39 110 39 108 32 114 C 28 118 28 122 32 124 C 35 125 59 125 61 124 C 66 122 66 118 62 115 C 55 108 55 109 55 85 C 55 66 56 64 60 57 C 67 47 74 43 82 48 C 90 52 97 43 93 34 C 90 28 82 25 75 28 z" fill="black" /><!-- width=105 height=138 -->
<path id="gl515" d="M 64 12 C 43 16 27 31 21 52 C 19 60 19 73 21 79 C 29 108 63 123 91 109 C 108 100 115 91 109 85 C 106 81 102 83 94 90 C 83 99 73 102 60 98 C 49 96 39 85 40 79 C 41 75 42 74 54 73 C 75 73 91 67 101 56 C 110 46 110 33 102 22 C 93 13 79 9 64 12 M 78 25 C 85 27 89 31 89 38 C 89 46 85 51 75 56 C 70 58 48 65 44 65 C 38 65 36 61 39 53 C 43 34 61 21 78 25 z" fill="black" /><!-- width=123 height=126 -->
<path id="gl260" d="M 39 8 C 21 10 12 17 14 24 C 15 30 22 30 32 25 C 39 21 42 20 48 20 C 60 20 71 27 73 35 C 75 40 72 42 63 42 C 45 39 25 47 15 60 C 6 72 7 89 17 99 C 30 111 54 112 67 101 C 73 96 73 96 79 101 C 84 106 84 106 92 106 C 97 106 98 106 99 105 C 104 101 103 98 97 93 C 95 91 93 90 93 89 C 92 88 92 79 91 62 C 91 54 91 45 91 37 C 91 36 90 34 90 33 C 84 18 69 9 49 8 C 45 8 40 8 39 8 M 75 54 C 76 56 76 61 75 72 C 75 82 72 85 61 91 C 43 99 27 93 27 78 C 27 64 38 55 61 52 C 70 51 72 51 75 54 z" fill="black" /><!-- width=114 height=125 -->
<path id="gl0" d="M 38 8 C 36 11 35 14 34 24 C 33 39 31 42 24 42 C 19 43 16 44 15 47 C 14 51 18 54 24 54 C 29 55 31 57 31 61 C 31 63 31 81 31 99 C 30 143 29 139 46 141 C 52 141 58 141 61 141 C 70 142 76 137 72 131 C 71 128 67 127 60 127 C 47 127 48 129 47 90 C 47 58 47 57 49 55 C 51 54 51 54 56 54 C 66 56 70 55 72 51 C 73 48 73 45 70 43 C 69 42 62 42 54 43 C 53 43 52 43 51 43 C 50 43 49 42 49 42 C 47 39 47 37 48 24 C 49 11 48 7 42 6 C 40 6 40 6 38 8 z" fill="black" /><!-- width=84 height=157 -->
<path id="gl16135" d="M 40 13 C 24 17 15 28 15 43 C 15 58 23 66 45 71 C 60 75 66 77 68 82 C 72 91 64 100 51 101 C 42 102 35 99 28 91 C 24 86 21 84 18 85 C 9 87 9 97 18 105 C 30 116 51 119 66 112 C 79 106 87 96 87 82 C 87 67 77 58 57 54 C 40 49 36 48 34 43 C 30 37 34 29 43 27 C 51 25 60 27 67 35 C 75 42 79 42 82 37 C 84 34 82 24 79 20 C 72 13 51 10 40 13 z" fill="black" /><!-- width=100 height=129 -->
<path id="gl258" d="M 69 11 C 58 12 46 19 40 28 C 27 46 24 72 35 90 C 49 114 83 118 106 100 C 115 93 116 84 109 82 C 105 81 103 82 97 87 C 73 111 41 89 47 54 C 49 40 55 31 65 26 C 75 21 84 23 91 33 C 96 39 100 41 105 39 C 112 36 112 25 104 19 C 95 12 82 9 69 11 z" fill="black" /><!-- width=125 height=123 -->
<path id="gl5900" d="M 42 9 C 25 11 17 15 16 22 C 16 27 19 31 24 31 C 27 31 29 30 39 25 C 48 20 58 21 68 27 C 74 30 77 37 75 40 C 73 42 73 42 63 42 C 44 43 33 47 22 57 C 5 73 8 98 28 108 C 34 111 38 111 48 111 C 57 111 61 110 69 105 C 75 101 78 101 81 104 C 85 108 92 110 100 109 C 108 108 109 100 100 95 C 96 91 96 92 96 64 C 96 37 96 36 91 28 C 84 14 63 5 42 9 M 75 54 C 78 56 78 58 78 67 C 78 81 75 87 66 92 C 46 102 29 95 31 77 C 32 69 36 64 46 60 C 55 55 70 52 75 54 z" fill="black" /><!-- width=119 height=127 -->
<path id="gl5657" d="M 32 8 C 26 9 15 13 13 16 C 12 21 12 22 17 27 C 22 32 21 29 21 91 C 21 109 21 127 21 145 C 21 146 20 147 19 148 C 19 149 17 151 16 152 C 12 155 11 159 13 162 C 15 165 16 165 28 165 C 33 166 39 166 41 166 C 43 166 45 165 45 165 C 51 161 50 157 45 151 C 42 149 40 147 40 145 C 40 144 39 122 40 79 C 40 43 40 14 40 13 C 39 11 36 8 32 8 z" fill="black" /><!-- width=60 height=181 -->
<path id="gl5144" d="M 66 12 C 34 17 13 48 21 80 C 27 106 58 121 85 112 C 102 106 114 95 111 87 C 108 81 102 82 93 90 C 86 97 79 100 70 100 C 58 100 46 94 43 85 C 39 78 42 75 52 75 C 75 75 99 64 106 50 C 108 45 108 34 106 29 C 100 18 82 10 66 12 M 81 27 C 90 32 91 43 84 51 C 79 55 67 60 52 63 C 42 66 38 64 38 58 C 38 45 52 29 66 27 C 70 25 78 26 81 27 z" fill="black" /><!-- width=123 height=128 -->
<path id="gl2312" d="M 19 14 C 7 19 11 37 24 39 C 37 41 44 23 33 15 C 30 12 23 12 19 14 z" fill="black" /><!-- width=51 height=52 -->
</defs>
<use xlink:href="#gl5402" x="0" y="12" />
<use xlink:href="#gl8964" x="84" y="7" />
<use xlink:href="#gl0" x="200" y="29" />
<use xlink:href="#gl515" x="260" y="59" />
<use xlink:href="#gl4104" x="358" y="40" />
<use xlink:href="#gl17671" x="557" y="10" />
<use xlink:href="#gl21017" x="687" y="84" />
<use xlink:href="#gl8964" x="842" y="9" />
<use xlink:href="#gl3848" x="962" y="27" />
<use xlink:href="#gl3" x="1007" y="57" />
<use xlink:href="#gl774" x="1127" y="59" />
<use xlink:href="#gl5917" x="1290" y="62" />
<use xlink:href="#gl256" x="1371" y="28" />
<use xlink:href="#gl262" x="1416" y="56" />
<use xlink:href="#gl5405" x="1580" y="40" />
<use xlink:href="#gl7" x="1707" y="11" />
<use xlink:href="#gl261" x="1744" y="63" />
<use xlink:href="#gl20738" x="1910" y="62" />
<use xlink:href="#gl0" x="1986" y="33" />
<use xlink:href="#gl515" x="2046" y="61" />
<use xlink:href="#gl3613" x="2145" y="42" />
<use xlink:href="#gl5911" x="2271" y="91" />
<use xlink:href="#gl3857" x="2323" y="57" />
<use xlink:href="#gl256" x="2479" y="30" />
<use xlink:href="#gl6162" x="2529" y="62" />
<use xlink:href="#gl5144" x="2599" y="61" />
<use xlink:href="#gl262" x="2767" y="58" />
<use xlink:href="#gl515" x="2931" y="62" />
<use xlink:href="#gl7" x="3041" y="12" />
<use xlink:href="#gl2" x="3084" y="64" />
<use xlink:href="#gl10519" x="3198" y="12" />
<use xlink:href="#gl10268" x="3301" y="29" />
<use xlink:href="#gl5144" x="3344" y="61" />
<use xlink:href="#gl4358" x="3453" y="63" />
<use xlink:href="#gl5655" x="3589" y="0" />
<use xlink:href="#gl5" x="3640" y="48" />
<use xlink:href="#gl2" x="3727" y="63" />
<use xlink:href="#gl262" x="3838" y="57" />
<use xlink:href="#gl0" x="4064" y="34" />
<use xlink:href="#gl1" x="4116" y="14" />
<use xlink:href="#gl5144" x="4237" y="61" />
<use xlink:href="#gl7691" x="4408" y="58" />
<use xlink:href="#gl5" x="4497" y="47" />
<use xlink:href="#gl515" x="4576" y="62" />
<use xlink:href="#gl260" x="4687" y="67" />
<use xlink:href="#gl0" x="4779" y="33" />
<use xlink:href="#gl16135" x="4906" y="62" />
<use xlink:href="#gl258" x="4973" y="64" />
<use xlink:href="#gl5900" x="5081" y="66" />
<use xlink:href="#gl5657" x="5182" y="11" />
<use xlink:href="#gl5144" x="5220" y="62" />
<use xlink:href="#gl2312" x="5340" y="138" />
</svg>