<?xml version="1.0" standalone="no"?>
<!DOCTYPE svg PUBLIC "-//W3C/DTD SVG 1.1//EN" "http://www.w3.org/Graphics/SVG/1.1/DTD/svg11.dtd">
<svg width="358px" height="77px" viewBox="0 0 3580 779" xmlns="http://www.w3.org/2000/svg" xmlns:xlink="http://www.w3.org/1999/xlink" version="1.1">
<defs>
<path id="gl24582" d="M 14 9 C 14 14 14 28 14 38 C 14 48 9 62 4 62 C 0 67 0 72 4 72 C 9 72 14 81 19 91 C 24 100 28 100 43 100 C 52 100 52 100 52 96 C 43 81 43 72 57 72 C 67 72 72 76 76 86 C 86 110 96 105 96 86 C 96 81 91 76 91 72 C 100 76 105 76 110 76 C 129 81 129 76 129 72 C 129 62 129 62 105 62 C 96 67 91 62 96 52 C 100 43 115 24 129 19 C 139 14 129 4 110 4 C 91 4 81 14 76 43 C 72 67 48 76 48 52 C 48 43 57 14 62 14 C 62 14 67 9 67 4 C 67 0 19 0 14 9 z" fill="black" /><!-- width=139 height=110 -->
<path id="gl24583" d="M 9 9 C 9 14 9 24 9 24 C 19 33 19 62 14 62 C 9 62 4 62 9 67 C 9 72 14 76 19 76 C 19 76 24 81 24 91 C 28 100 28 100 33 100 C 43 100 43 100 43 86 C 43 81 38 76 38 72 C 48 72 57 76 67 76 C 76 76 86 76 96 81 C 96 67 96 52 96 43 C 96 28 96 14 96 4 C 81 4 67 4 52 4 C 14 4 9 4 9 9 M 62 24 C 96 48 96 62 57 62 C 38 62 33 62 33 52 C 33 43 28 33 28 33 C 24 14 38 14 62 24 z" fill="black" /><!-- width=100 height=110 -->
<path id="gl24832" d="M 4 52 C 4 105 4 105 14 100 C 38 100 38 67 19 19 C 4 -5 0 0 4 52 z" fill="black" /><!-- width=43 height=110 -->
<path id="gl24579" d="M 55 9 C 48 11 46 20 51 29 C 56 39 57 45 54 49 C 52 50 51 51 50 51 C 48 51 39 41 36 37 C 33 31 31 29 23 29 C 15 28 14 29 13 36 C 11 46 15 51 28 52 C 31 53 36 54 37 54 C 45 55 46 57 46 61 C 46 65 45 67 40 67 C 37 67 28 69 23 70 C 19 70 16 72 14 76 C 9 83 11 88 19 92 C 22 94 24 94 30 91 C 34 88 34 88 38 83 C 46 72 49 70 52 72 C 57 75 57 78 52 87 C 45 102 46 111 57 114 C 62 114 64 114 67 111 C 72 106 72 102 68 92 C 63 81 63 75 66 72 C 70 70 77 75 81 84 C 85 91 88 93 94 94 C 100 94 105 91 107 86 C 108 85 108 84 109 83 C 108 81 107 80 106 78 C 104 72 100 70 88 69 C 76 67 73 66 73 61 C 73 57 76 55 89 54 C 103 51 105 49 108 43 C 109 38 109 36 105 32 C 103 31 102 30 102 28 C 100 28 98 29 96 29 C 90 29 88 30 82 39 C 77 46 75 49 70 49 C 64 51 63 44 67 33 C 71 24 72 21 72 18 C 72 16 69 10 67 9 C 65 9 57 8 55 9 z" fill="black" /><!-- width=120 height=123 -->
<path id="gl24579" d="M 55 9 C 48 11 46 20 51 29 C 56 39 57 45 54 49 C 52 50 51 51 50 51 C 48 51 39 41 36 37 C 33 31 31 29 23 29 C 15 28 14 29 13 36 C 11 46 15 51 28 52 C 31 53 36 54 37 54 C 45 55 46 57 46 61 C 46 65 45 67 40 67 C 37 67 28 69 23 70 C 19 70 16 72 14 76 C 9 83 11 88 19 92 C 22 94 24 94 30 91 C 34 88 34 88 38 83 C 46 72 49 70 52 72 C 57 75 57 78 52 87 C 45 102 46 111 57 114 C 62 114 64 114 67 111 C 72 106 72 102 68 92 C 63 81 63 75 66 72 C 70 70 77 75 81 84 C 85 91 88 93 94 94 C 100 94 105 91 107 86 C 108 85 108 84 109 83 C 108 81 107 80 106 78 C 104 72 100 70 88 69 C 76 67 73 66 73 61 C 73 57 76 55 89 54 C 103 51 105 49 108 43 C 109 38 109 36 105 32 C 103 31 102 30 102 28 C 100 28 98 29 96 29 C 90 29 88 30 82 39 C 77 46 75 49 70 49 C 64 51 63 44 67 33 C 71 24 72 21 72 18 C 72 16 69 10 67 9 C 65 9 57 8 55 9 z" fill="black" /><!-- width=120 height=123 -->
<path id="gl24833" d="M 475 9 C 475 14 470 24 470 43 C 470 62 470 67 465 72 C 456 76 456 62 456 38 C 456 9 441 19 441 52 C 441 76 436 86 432 86 C 422 91 422 129 432 129 C 436 129 441 129 441 129 C 441 134 408 139 360 139 C 288 139 283 134 283 124 C 283 105 268 52 259 38 C 235 4 201 43 192 110 C 187 120 187 124 187 134 C 158 134 129 134 96 139 C 67 139 38 139 9 139 C 9 196 9 254 9 312 C 9 403 9 484 9 489 C 14 499 14 499 134 504 C 177 504 216 504 259 504 C 259 513 264 523 264 532 C 278 600 264 638 230 638 C 211 638 206 633 225 619 C 249 590 235 556 201 552 C 168 547 144 585 163 614 C 182 652 235 662 268 628 C 283 609 288 595 278 547 C 273 523 273 504 273 504 C 273 504 379 499 504 499 C 580 499 657 499 734 499 C 734 518 734 542 734 561 C 739 624 739 638 748 614 C 748 609 753 590 748 571 C 748 547 748 523 748 513 C 748 508 748 504 748 494 C 840 499 931 499 1022 499 C 1113 499 1204 499 1296 499 C 1296 518 1296 542 1296 561 C 1300 648 1305 648 1305 566 C 1305 542 1305 523 1305 504 C 1315 504 1320 499 1324 499 C 1344 494 1512 494 1521 499 C 1526 504 1531 513 1531 566 C 1531 604 1531 628 1536 628 C 1540 628 1540 628 1540 561 C 1540 518 1540 504 1550 499 C 1550 499 1723 499 1958 499 C 2092 499 2227 499 2361 499 C 2361 513 2361 528 2361 542 C 2361 566 2366 585 2366 585 C 2371 585 2376 566 2376 542 C 2376 528 2376 513 2376 499 C 2424 499 2472 499 2520 499 C 2568 499 2616 499 2664 499 C 2664 518 2664 542 2664 561 C 2664 600 2668 628 2668 628 C 2678 628 2678 604 2678 552 C 2678 504 2678 504 2688 499 C 2692 499 2894 499 3129 499 C 3412 499 3561 494 3561 494 C 3561 489 3460 484 3273 484 C 3172 484 3076 484 2980 484 C 2980 475 2980 460 2980 451 C 2980 436 2980 422 2980 412 C 3076 412 3172 412 3268 412 C 3456 412 3561 408 3566 403 C 3571 398 3566 398 3398 398 C 3336 398 3283 398 3283 393 C 3283 393 3283 384 3288 379 C 3292 369 3297 355 3297 345 C 3302 336 3302 331 3302 321 C 3345 321 3393 321 3436 321 C 3604 316 3600 312 3427 307 C 3388 307 3345 307 3302 307 C 3302 297 3302 288 3302 283 C 3302 268 3302 249 3302 244 C 3302 240 3302 235 3307 235 C 3350 235 3393 235 3436 235 C 3518 235 3561 230 3561 230 C 3561 225 3513 220 3432 220 C 3388 220 3345 220 3302 220 C 3302 206 3302 196 3302 182 C 3302 172 3302 158 3297 148 C 3345 148 3388 148 3432 148 C 3518 148 3561 144 3561 139 C 3561 139 3561 134 3556 134 C 3556 134 3499 134 3436 134 C 3292 139 3297 139 3297 91 C 3297 67 3297 52 3297 52 C 3292 52 3292 67 3292 91 C 3292 124 3288 129 3283 134 C 3273 139 2126 139 2112 134 C 2102 129 2102 129 2102 115 C 2102 105 2097 96 2097 96 C 2092 96 2088 96 2088 105 C 2088 139 2097 139 1977 139 C 1857 139 1862 139 1862 86 C 1862 38 1857 43 1852 91 C 1852 105 1852 120 1852 134 C 1627 134 1396 134 1171 134 C 945 134 715 134 489 134 C 489 129 489 124 489 120 C 489 115 489 105 494 105 C 504 96 504 62 494 57 C 489 57 484 48 484 33 C 484 9 484 4 475 9 M 264 96 C 268 129 264 139 235 139 C 211 139 211 134 220 105 C 235 67 254 62 264 96 M 244 148 C 254 153 254 163 235 182 C 216 206 211 201 211 172 C 211 148 211 148 225 148 C 230 148 240 148 244 148 M 422 148 C 441 153 446 172 432 182 C 427 187 422 196 422 206 C 422 216 422 220 417 225 C 403 230 297 230 278 225 C 273 225 268 225 264 220 C 268 211 268 196 273 187 C 283 168 288 148 292 148 C 307 144 403 144 422 148 M 1137 187 C 1137 196 1137 211 1137 225 C 1027 220 921 220 811 220 C 480 220 475 220 494 201 C 504 192 508 163 499 158 C 475 148 532 148 820 148 C 926 148 1032 148 1137 148 C 1137 158 1137 172 1137 187 M 1852 182 C 1852 196 1852 206 1852 220 C 1737 220 1617 220 1502 220 C 1382 220 1267 220 1152 225 C 1152 211 1152 201 1152 187 C 1152 168 1152 153 1152 148 C 1156 148 1310 148 1502 148 C 1622 148 1737 148 1852 148 C 1852 158 1852 172 1852 182 M 2088 158 C 2088 163 2092 182 2088 196 C 2088 201 2088 211 2088 220 C 2049 220 2016 220 1977 220 C 1939 220 1900 220 1862 225 C 1862 211 1862 201 1862 187 C 1862 168 1867 153 1867 148 C 1872 148 1920 148 1977 148 C 2016 148 2049 148 2083 148 C 2088 148 2088 153 2088 158 M 2227 153 C 2227 158 2227 177 2227 192 C 2227 201 2222 211 2222 225 C 2203 220 2184 220 2164 220 C 2140 220 2121 220 2102 220 C 2102 211 2102 201 2102 192 C 2097 144 2097 148 2164 148 C 2217 148 2222 148 2227 153 M 2966 153 C 2971 163 2971 187 2966 206 C 2966 211 2961 216 2961 225 C 2841 220 2721 220 2601 220 C 2481 220 2361 220 2241 220 C 2241 211 2241 201 2241 192 C 2241 172 2241 158 2241 153 C 2246 144 2961 144 2966 153 M 3288 182 C 3288 196 3288 206 3288 220 C 3235 220 3182 220 3134 220 C 3081 220 3028 220 2980 225 C 2980 211 2980 196 2980 182 C 2980 172 2980 158 2980 144 C 3028 148 3081 148 3134 148 C 3182 148 3235 148 3288 148 C 3288 158 3288 172 3288 182 M 196 182 C 201 230 201 230 105 225 C 76 225 52 225 24 225 C 24 211 24 201 24 187 C 24 177 24 163 19 148 C 48 148 76 148 105 148 C 134 148 158 148 187 148 C 192 163 192 172 196 182 M 1137 240 C 1137 240 1137 254 1137 268 C 1137 283 1137 297 1137 302 C 1137 307 1123 312 988 312 C 940 312 892 312 844 312 C 840 307 840 302 840 297 C 825 264 777 264 753 297 C 748 302 744 307 744 307 C 657 307 576 312 489 312 C 350 312 235 312 235 307 C 225 297 225 259 240 249 C 249 240 249 235 345 235 C 374 235 408 235 436 235 C 436 244 441 249 441 254 C 441 278 451 278 456 259 C 460 235 470 230 475 249 C 475 264 484 264 489 249 C 489 244 489 240 494 240 C 528 235 566 235 600 235 C 926 230 1132 235 1137 240 M 1800 235 C 1819 235 1838 235 1852 235 C 1852 249 1852 259 1852 273 C 1852 283 1852 297 1852 307 C 1824 312 1790 312 1756 312 C 1636 312 1636 312 1632 292 C 1622 264 1579 264 1550 292 C 1540 297 1536 302 1531 312 C 1507 307 1488 307 1464 307 C 1401 307 1401 307 1401 292 C 1392 264 1348 264 1320 292 C 1310 297 1305 302 1300 312 C 1276 307 1248 307 1224 307 C 1200 307 1176 307 1152 307 C 1152 297 1152 283 1152 273 C 1152 259 1152 249 1147 240 C 1243 235 1339 235 1435 235 C 1588 235 1723 235 1732 235 C 1742 235 1771 235 1800 235 M 2088 264 C 2088 312 2097 312 1977 307 C 1939 307 1905 307 1867 307 C 1867 297 1867 283 1867 273 C 1862 230 1852 235 1987 235 C 2020 235 2054 235 2088 235 C 2088 244 2088 254 2088 264 M 2222 240 C 2227 240 2227 254 2227 273 C 2227 288 2227 302 2227 307 C 2227 307 2198 312 2164 312 C 2140 312 2121 312 2102 312 C 2102 297 2102 288 2102 273 C 2102 254 2102 240 2102 235 C 2107 230 2217 235 2222 240 M 2385 235 C 2390 235 2385 244 2376 254 C 2371 259 2366 278 2366 288 C 2361 292 2361 302 2361 307 C 2342 307 2323 307 2299 307 C 2280 307 2260 307 2241 307 C 2241 297 2241 288 2241 278 C 2236 230 2232 230 2313 235 C 2352 235 2385 235 2385 235 M 2961 240 C 2966 244 2966 283 2966 297 C 2966 302 2961 307 2961 312 C 2932 307 2899 307 2865 307 C 2769 307 2769 307 2769 297 C 2764 264 2697 268 2673 302 C 2668 307 2443 312 2443 307 C 2443 307 2448 297 2457 292 C 2462 278 2467 273 2462 259 C 2462 244 2462 235 2467 235 C 2476 230 2956 235 2961 240 M 3288 268 C 3288 283 3288 292 3288 307 C 3240 307 3196 307 3148 312 C 3072 312 3004 312 2995 312 C 2990 312 2985 307 2980 307 C 2980 297 2980 288 2980 273 C 2980 254 2980 240 2980 235 C 2980 235 3052 235 3134 235 C 3187 235 3235 235 3288 235 C 3288 249 3288 259 3288 268 M 168 244 C 168 244 163 254 158 264 C 148 273 139 288 129 297 C 124 302 120 307 115 316 C 100 312 86 312 72 312 C 52 312 38 312 24 312 C 24 297 24 288 24 273 C 24 264 24 249 19 235 C 48 235 72 235 96 235 C 148 235 168 240 168 244 M 2448 249 C 2457 268 2395 316 2380 302 C 2371 292 2395 264 2424 249 C 2443 240 2443 240 2448 249 M 216 297 C 220 307 216 312 201 312 C 182 312 182 307 196 292 C 206 278 216 278 216 297 M 825 297 C 825 307 816 312 792 307 C 787 307 782 307 777 307 C 782 302 787 297 792 297 C 816 283 825 283 825 297 M 2750 297 C 2750 307 2745 307 2731 307 C 2712 312 2707 307 2716 302 C 2731 283 2750 283 2750 297 M 686 321 C 705 321 720 321 734 321 C 734 336 734 345 734 360 C 734 369 734 384 734 393 C 724 393 715 398 705 398 C 691 398 604 398 508 398 C 403 398 340 403 340 408 C 340 408 412 408 542 408 C 604 408 672 408 739 408 C 734 422 734 436 734 446 C 734 460 734 470 734 484 C 662 484 590 484 518 484 C 403 484 302 484 302 484 C 302 480 312 475 321 465 C 326 456 336 451 336 446 C 336 436 312 436 307 451 C 297 460 273 480 268 475 C 268 475 264 465 264 460 C 254 432 244 432 249 460 C 249 470 249 475 249 484 C 244 484 240 484 230 484 C 206 489 182 480 163 456 C 148 441 139 436 129 441 C 124 441 120 441 115 441 C 120 451 129 456 134 465 C 144 470 148 480 158 484 C 139 484 124 489 105 489 C 81 489 52 489 43 489 C 38 489 28 489 28 489 C 24 489 24 475 24 451 C 24 417 24 412 28 412 C 33 412 52 412 67 412 C 105 408 100 398 57 398 C 43 398 33 398 24 398 C 24 388 24 374 24 360 C 24 350 24 336 24 321 C 38 326 52 326 67 326 C 96 326 110 326 110 331 C 105 340 158 340 163 331 C 163 326 172 321 177 321 C 187 321 192 326 187 331 C 182 340 201 340 268 340 C 307 336 312 336 312 331 C 307 326 590 316 628 321 C 633 321 662 321 686 321 M 1118 321 C 1123 326 1132 326 1137 326 C 1137 336 1137 350 1137 360 C 1137 369 1137 384 1137 393 C 1128 393 1118 393 1108 398 C 1056 403 753 398 753 393 C 744 374 753 364 772 364 C 792 364 811 355 830 336 C 835 331 835 326 840 321 C 883 321 926 321 969 321 C 1041 321 1108 321 1118 321 M 1785 326 C 1785 326 1780 336 1771 345 C 1766 355 1761 369 1766 379 C 1766 384 1766 393 1766 398 C 1728 398 1694 398 1656 398 C 1598 398 1550 398 1545 398 C 1540 393 1540 384 1540 374 C 1545 360 1545 360 1560 364 C 1574 369 1598 360 1617 336 C 1632 326 1632 326 1689 321 C 1742 321 1785 321 1785 326 M 2083 326 C 2088 326 2092 336 2092 340 C 2092 355 2088 355 2068 355 C 2049 355 2030 364 2011 384 C 2006 388 2001 393 1996 398 C 1977 398 1953 398 1934 398 C 1896 398 1862 398 1857 398 C 1852 398 1848 393 1848 393 C 1848 388 1852 384 1857 379 C 1862 369 1867 355 1867 350 C 1867 336 1867 326 1876 321 C 1886 321 2078 321 2083 326 M 2222 326 C 2227 331 2232 388 2227 393 C 2222 398 2121 403 2107 398 C 2097 393 2097 326 2107 321 C 2126 321 2217 321 2222 326 M 2635 321 C 2644 321 2654 326 2668 326 C 2668 336 2668 350 2668 360 C 2668 393 2664 393 2654 398 C 2635 403 2385 398 2380 393 C 2376 393 2371 379 2371 355 C 2371 345 2371 336 2371 326 C 2395 321 2419 321 2443 321 C 2481 321 2534 321 2563 321 C 2587 321 2620 321 2635 321 M 2961 326 C 2966 331 2966 388 2961 398 C 2956 403 2688 398 2678 393 C 2678 388 2673 379 2678 374 C 2678 360 2678 360 2702 360 C 2721 364 2745 355 2755 340 C 2769 316 2769 316 2865 321 C 2918 321 2961 326 2961 326 M 3216 321 C 3220 321 3220 331 3211 340 C 3201 355 3196 364 3201 379 C 3201 403 3201 403 3091 398 C 2971 398 2980 403 2980 360 C 2980 340 2980 326 2980 321 C 2985 321 3153 321 3216 321 M 801 331 C 792 340 758 350 753 345 C 744 336 763 321 782 321 C 801 321 806 326 801 331 M 1296 360 C 1296 403 1300 403 1224 398 C 1147 398 1152 403 1152 360 C 1152 345 1152 336 1152 321 C 1176 321 1200 321 1224 321 C 1248 321 1272 321 1296 321 C 1296 336 1296 345 1296 360 M 1531 360 C 1531 384 1526 393 1521 398 C 1502 403 1324 403 1315 393 C 1300 379 1305 355 1324 360 C 1344 369 1368 360 1387 340 C 1392 336 1396 331 1401 326 C 1420 326 1444 326 1464 326 C 1488 326 1507 326 1531 321 C 1531 336 1531 345 1531 360 M 2361 331 C 2366 340 2366 384 2361 388 C 2356 393 2342 398 2308 398 C 2232 398 2236 403 2236 360 C 2236 345 2236 336 2236 321 C 2260 321 2280 321 2299 321 C 2347 321 2356 326 2361 331 M 2731 331 C 2726 336 2697 345 2692 345 C 2688 345 2683 340 2683 336 C 2683 326 2688 321 2712 321 C 2726 321 2731 326 2731 331 M 3283 345 C 3278 355 3254 384 3235 388 C 3201 398 3211 364 3244 340 C 3273 326 3283 326 3283 345 M 1137 436 C 1137 451 1137 470 1137 475 C 1137 480 1137 484 1132 484 C 1070 484 1008 484 945 484 C 878 484 816 484 753 484 C 753 480 748 475 748 470 C 744 451 744 417 748 412 C 753 412 840 412 945 412 C 1008 412 1075 412 1137 412 C 1137 422 1137 432 1137 436 M 1296 446 C 1296 460 1296 470 1296 484 C 1272 484 1248 484 1224 484 C 1200 484 1176 484 1152 489 C 1152 475 1152 460 1152 451 C 1152 436 1152 422 1152 408 C 1176 408 1200 408 1224 408 C 1248 408 1272 408 1300 408 C 1296 422 1296 436 1296 446 M 1526 451 C 1526 460 1526 475 1531 484 C 1492 484 1459 484 1420 484 C 1300 484 1310 489 1310 446 C 1305 432 1310 417 1310 412 C 1310 412 1353 412 1420 412 C 1454 412 1492 412 1526 412 C 1526 427 1526 436 1526 451 M 1996 422 C 2006 456 2049 460 2083 427 C 2088 422 2097 417 2102 408 C 2121 408 2140 408 2164 408 C 2232 408 2222 408 2227 446 C 2227 456 2227 465 2227 475 C 2227 480 2222 484 2222 484 C 2112 484 1996 484 1881 484 C 1771 484 1656 484 1540 484 C 1540 484 1540 480 1540 475 C 1540 427 1540 417 1540 412 C 1540 412 1646 412 1771 412 C 1843 412 1920 412 1996 412 C 1996 417 1996 422 1996 422 M 2361 436 C 2366 489 2366 489 2299 484 C 2280 484 2260 484 2241 484 C 2241 475 2241 465 2241 456 C 2236 408 2236 408 2304 412 C 2323 412 2342 412 2361 412 C 2361 422 2361 432 2361 436 M 2664 446 C 2664 460 2664 470 2664 484 C 2616 484 2568 484 2520 484 C 2472 484 2424 484 2376 484 C 2376 470 2376 460 2376 446 C 2376 436 2376 422 2371 408 C 2424 408 2472 408 2520 408 C 2568 408 2616 408 2668 408 C 2664 422 2664 436 2664 446 M 2966 432 C 2966 441 2966 460 2966 470 C 2966 475 2966 480 2961 484 C 2918 484 2870 484 2822 484 C 2774 484 2731 484 2683 484 C 2683 484 2678 480 2678 475 C 2673 460 2673 417 2678 412 C 2683 412 2745 408 2822 408 C 2870 408 2918 408 2961 408 C 2966 417 2966 422 2966 432 z" fill="black" /><!-- width=3580 height=662 -->
<path id="gl24834" d="M 4 9 C 9 19 48 38 57 38 C 72 38 67 33 48 24 C 38 19 28 14 24 9 C 19 0 0 0 4 9 z" fill="black" /><!-- width=72 height=48 -->
</defs>
<use xlink:href="#gl24582" x="91" y="453" />
<use xlink:href="#gl24583" x="216" y="453" />
<use xlink:href="#gl24832" x="307" y="453" />
<use xlink:href="#gl24579" x="757" y="0" />
<use xlink:href="#gl24579" x="2371" y="0" />
<use xlink:href="#gl24833" x="0" y="117" />
<use xlink:href="#gl24834" x="172" y="553" />
</svg>