<?xml version="1.0" standalone="no"?>
<!DOCTYPE svg PUBLIC "-//W3C/DTD SVG 1.1//EN" "http://www.w3.org/Graphics/SVG/1.1/DTD/svg11.dtd">
<svg width="490px" height="22px" viewBox="0 0 4907 229" xmlns="http://www.w3.org/2000/svg" xmlns:xlink="http://www.w3.org/1999/xlink" version="1.1">
<defs>
<path id="gl5402" d="M 27 7 C 24 9 22 12 18 19 C 14 27 13 41 17 48 C 20 54 27 57 33 54 C 38 52 40 45 37 40 C 36 38 36 37 31 36 C 24 34 24 26 31 19 C 36 14 36 11 33 7 C 31 5 30 5 27 7 M 61 7 C 60 9 58 10 55 15 C 51 23 50 27 50 34 C 50 46 52 52 60 54 C 70 58 79 48 72 39 C 72 37 70 37 66 36 C 59 34 59 27 66 19 C 70 14 72 12 70 9 C 68 6 65 5 61 7 z" fill="black" /><!-- width=87 height=73 -->
<path id="gl3589" d="M 60 14 C 33 18 15 38 18 61 C 21 78 34 88 63 94 C 91 101 101 106 105 115 C 110 127 105 141 94 148 C 86 152 80 154 69 154 C 51 154 38 147 28 133 C 24 127 23 126 19 126 C 9 126 13 142 27 153 C 49 171 94 169 112 149 C 129 131 129 105 111 90 C 104 84 96 81 75 76 C 51 70 43 67 40 58 C 31 41 46 24 68 25 C 79 25 88 29 97 39 C 103 44 105 45 108 44 C 113 43 114 31 109 25 C 102 18 77 12 60 14 z" fill="black" /><!-- width=139 height=180 -->
<path id="gl0" d="M 38 8 C 36 11 35 14 34 24 C 33 39 31 42 24 42 C 19 43 16 44 15 47 C 14 51 18 54 24 54 C 29 55 31 57 31 61 C 31 63 31 81 31 99 C 30 143 29 139 46 141 C 52 141 58 141 61 141 C 70 142 76 137 72 131 C 71 128 67 127 60 127 C 47 127 48 129 47 90 C 47 58 47 57 49 55 C 51 54 51 54 56 54 C 66 56 70 55 72 51 C 73 48 73 45 70 43 C 69 42 62 42 54 43 C 53 43 52 43 51 43 C 50 43 49 42 49 42 C 47 39 47 37 48 24 C 49 11 48 7 42 6 C 40 6 40 6 38 8 z" fill="black" /><!-- width=84 height=157 -->
<path id="gl515" d="M 64 12 C 43 16 27 31 21 52 C 19 60 19 73 21 79 C 29 108 63 123 91 109 C 108 100 115 91 109 85 C 106 81 102 83 94 90 C 83 99 73 102 60 98 C 49 96 39 85 40 79 C 41 75 42 74 54 73 C 75 73 91 67 101 56 C 110 46 110 33 102 22 C 93 13 79 9 64 12 M 78 25 C 85 27 89 31 89 38 C 89 46 85 51 75 56 C 70 58 48 65 44 65 C 38 65 36 61 39 53 C 43 34 61 21 78 25 z" fill="black" /><!-- width=123 height=126 -->
<path id="gl18436" d="M 36 34 C 22 39 19 46 28 52 C 35 58 34 58 35 110 C 35 157 36 153 30 160 C 27 165 27 169 31 172 C 35 174 55 174 59 172 C 63 169 63 166 59 160 C 55 155 55 153 55 144 C 55 132 56 131 64 134 C 80 139 93 138 107 130 C 121 121 128 110 130 90 C 132 72 127 56 115 45 C 102 32 80 30 64 39 C 57 43 55 43 51 39 C 45 34 40 33 36 34 M 88 51 C 96 52 101 56 105 63 C 108 71 109 73 109 85 C 109 100 106 108 100 114 C 93 122 83 124 72 120 C 69 120 65 119 63 119 C 55 119 55 118 55 92 C 55 73 55 72 56 69 C 62 54 75 47 88 51 z" fill="black" /><!-- width=144 height=187 -->
<path id="gl9998" d="M 88 12 C 83 13 61 13 46 13 C 42 12 37 12 31 12 C 31 12 30 13 30 13 C 27 16 27 20 26 32 C 25 37 25 47 24 53 C 22 79 22 88 23 90 C 25 95 31 96 37 92 C 53 81 64 79 78 85 C 88 90 95 101 95 115 C 95 126 91 137 87 144 C 80 153 60 159 48 155 C 37 152 34 147 33 137 C 31 130 28 127 23 127 C 15 127 11 133 13 143 C 15 150 16 151 24 157 C 31 163 32 163 40 166 C 57 170 76 168 91 160 C 118 147 126 105 106 84 C 99 76 91 73 81 71 C 67 69 64 69 48 72 C 39 73 38 72 39 51 C 40 33 41 33 57 31 C 84 30 103 25 103 18 C 103 12 96 10 88 12 z" fill="black" /><!-- width=131 height=180 -->
<path id="gl21016" d="M 21 9 C 21 9 20 9 19 9 C 13 10 10 24 14 29 C 16 32 18 33 23 33 C 28 33 28 33 30 30 C 36 26 37 23 35 17 C 34 15 28 9 27 9 C 27 9 25 9 24 9 C 23 9 22 9 21 9 M 21 69 C 17 69 13 72 12 75 C 10 79 12 87 16 90 C 20 94 33 91 35 86 C 39 77 31 67 21 69 z" fill="black" /><!-- width=48 height=103 -->
<path id="gl3593" d="M 103 16 C 74 22 51 42 41 70 C 26 111 46 154 87 165 C 115 174 142 167 163 147 C 168 142 169 135 164 134 C 161 133 158 134 152 140 C 138 153 123 158 105 156 C 81 152 67 137 61 109 C 51 68 78 27 114 27 C 132 27 145 35 154 52 C 159 61 164 63 167 57 C 169 53 169 40 167 35 C 161 22 126 12 103 16 z" fill="black" /><!-- width=181 height=183 -->
<path id="gl7" d="M 29 9 C 25 9 17 13 15 15 C 11 18 12 20 16 25 C 18 27 20 29 20 30 C 21 34 21 141 20 144 C 20 145 18 147 16 150 C 12 154 12 154 13 157 C 15 160 16 160 30 160 C 45 160 45 160 46 157 C 48 154 46 152 42 148 C 37 144 37 149 37 85 C 37 53 38 24 38 21 C 39 13 37 11 34 9 C 32 9 33 9 29 9 z" fill="black" /><!-- width=58 height=175 -->
<path id="gl5900" d="M 42 9 C 25 11 17 15 16 22 C 16 27 19 31 24 31 C 27 31 29 30 39 25 C 48 20 58 21 68 27 C 74 30 77 37 75 40 C 73 42 73 42 63 42 C 44 43 33 47 22 57 C 5 73 8 98 28 108 C 34 111 38 111 48 111 C 57 111 61 110 69 105 C 75 101 78 101 81 104 C 85 108 92 110 100 109 C 108 108 109 100 100 95 C 96 91 96 92 96 64 C 96 37 96 36 91 28 C 84 14 63 5 42 9 M 75 54 C 78 56 78 58 78 67 C 78 81 75 87 66 92 C 46 102 29 95 31 77 C 32 69 36 64 46 60 C 55 55 70 52 75 54 z" fill="black" /><!-- width=119 height=127 -->
<path id="gl4104" d="M 76 34 C 70 35 64 37 61 40 C 55 45 51 45 48 40 C 45 36 42 34 38 34 C 31 34 24 39 24 43 C 24 46 24 46 28 49 C 35 54 34 50 34 102 C 35 152 35 154 31 159 C 27 164 28 167 32 169 C 36 171 54 170 56 168 C 59 166 59 163 56 160 C 52 154 52 154 52 142 C 52 135 52 129 53 127 C 54 124 54 123 53 120 C 52 115 51 88 52 76 C 52 64 54 60 60 54 C 74 40 97 43 105 61 C 109 71 111 86 108 97 C 102 117 89 126 70 121 C 63 119 61 119 58 121 C 58 122 57 123 57 123 C 57 124 57 124 58 125 C 60 130 70 133 80 133 C 102 133 121 119 125 100 C 133 67 120 41 94 35 C 90 34 80 33 76 34 z" fill="black" /><!-- width=141 height=184 -->
<path id="gl10243" d="M 40 9 C 37 10 36 13 35 22 C 34 39 32 43 24 44 C 16 45 13 49 16 55 C 18 57 18 57 24 58 C 32 60 31 57 31 100 C 31 142 31 141 36 143 C 37 144 58 145 67 145 C 73 144 77 141 76 136 C 75 131 73 129 63 129 C 50 129 51 130 50 92 C 50 57 49 57 63 59 C 72 60 76 58 76 52 C 76 45 73 43 63 44 C 50 45 49 43 51 24 C 52 15 52 12 49 9 C 46 7 43 7 40 9 z" fill="black" /><!-- width=88 height=160 -->
<path id="gl1" d="M 40 9 C 37 11 36 11 33 13 C 31 16 31 19 33 22 C 38 27 37 21 37 85 C 37 116 37 142 37 144 C 37 144 35 147 34 148 C 27 156 30 159 46 159 C 60 160 64 157 60 150 C 55 144 55 144 54 139 C 54 130 54 91 55 88 C 58 81 73 73 84 75 C 96 76 103 82 104 93 C 105 95 105 106 105 118 C 105 142 105 144 101 148 C 96 156 99 160 114 160 C 129 160 132 156 125 148 C 121 144 121 144 121 117 C 121 96 120 90 120 87 C 114 66 91 57 64 67 C 60 69 59 70 57 69 C 54 67 54 67 54 39 C 54 12 54 11 51 9 C 49 8 44 8 40 9 z" fill="black" /><!-- width=143 height=191 -->
<path id="gl515" d="M 64 12 C 43 16 27 31 21 52 C 19 60 19 73 21 79 C 29 108 63 123 91 109 C 108 100 115 91 109 85 C 106 81 102 83 94 90 C 83 99 73 102 60 98 C 49 96 39 85 40 79 C 41 75 42 74 54 73 C 75 73 91 67 101 56 C 110 46 110 33 102 22 C 93 13 79 9 64 12 M 78 25 C 85 27 89 31 89 38 C 89 46 85 51 75 56 C 70 58 48 65 44 65 C 38 65 36 61 39 53 C 43 34 61 21 78 25 z" fill="black" /><!-- width=123 height=126 -->
<path id="gl4" d="M 39 13 C 24 18 14 30 15 44 C 16 59 22 64 45 70 C 51 72 58 73 60 75 C 73 81 70 98 54 101 C 44 103 36 100 28 93 C 21 85 17 84 13 87 C 9 91 10 97 15 103 C 27 114 47 117 63 111 C 88 102 92 72 70 60 C 65 58 54 54 52 54 C 49 54 40 51 37 49 C 32 47 30 45 30 40 C 30 31 37 25 48 25 C 55 25 58 27 64 33 C 70 38 72 39 75 39 C 82 37 84 28 78 21 C 72 15 50 10 39 13 z" fill="black" /><!-- width=98 height=127 -->
<path id="gl5669" d="M 40 7 C 20 11 13 15 14 23 C 15 30 23 30 31 25 C 42 18 52 18 62 22 C 72 27 77 37 72 40 C 70 41 69 42 63 41 C 42 40 24 48 15 61 C 10 67 10 69 10 79 C 10 90 12 95 21 102 C 28 107 33 109 44 109 C 55 109 61 106 67 101 C 72 97 75 97 78 101 C 82 105 84 106 91 106 C 96 107 97 106 99 106 C 104 103 103 98 97 94 C 92 90 92 91 91 61 C 91 40 91 34 90 33 C 87 22 78 14 66 10 C 61 8 46 7 40 7 M 73 52 C 75 53 76 55 76 64 C 76 80 73 86 61 91 C 43 100 27 93 27 78 C 27 64 38 55 64 51 C 67 51 72 51 73 52 z" fill="black" /><!-- width=114 height=124 -->
<path id="gl262" d="M 129 19 C 122 19 115 22 109 27 C 103 31 100 31 94 26 C 87 21 83 19 73 19 C 63 18 57 20 49 25 C 43 29 42 29 37 24 C 33 18 29 18 23 22 C 16 27 16 30 22 39 C 25 42 25 44 25 71 C 25 99 25 99 21 103 C 15 111 21 114 37 114 C 45 113 46 113 48 111 C 50 109 49 107 46 103 C 42 99 42 99 43 71 C 43 48 43 47 44 45 C 51 30 72 25 82 36 C 87 42 87 48 88 76 C 88 98 87 98 84 103 C 81 107 81 108 82 110 C 83 113 85 114 94 114 C 110 114 114 111 108 103 C 105 97 105 97 105 73 C 105 43 105 40 118 33 C 132 27 144 31 148 43 C 150 46 150 50 150 70 C 150 97 150 97 146 103 C 143 108 143 108 145 111 C 147 113 151 114 163 114 C 173 113 175 110 171 103 C 167 98 167 100 166 72 C 166 63 166 54 166 46 C 166 44 165 42 165 40 C 163 34 161 31 157 27 C 151 21 139 17 129 19 z" fill="black" /><!-- width=186 height=128 -->
<path id="gl6" d="M 63 12 C 36 18 18 42 19 70 C 20 88 30 102 45 109 C 58 115 76 115 89 109 C 106 102 115 91 108 85 C 104 82 100 84 94 90 C 83 100 72 103 58 99 C 45 94 35 82 42 76 C 42 75 44 75 50 75 C 76 74 98 64 105 50 C 107 45 107 35 105 30 C 101 22 95 17 85 14 C 81 12 67 12 63 12 M 79 26 C 87 29 91 38 87 46 C 84 54 75 58 52 64 C 49 65 45 66 42 67 C 41 66 40 66 40 66 C 36 63 36 60 38 51 C 43 35 57 25 72 25 C 75 25 78 25 79 26 z" fill="black" /><!-- width=121 height=126 -->
<path id="gl5" d="M 75 28 C 71 30 67 33 63 38 C 57 47 53 47 51 38 C 48 28 44 25 35 30 C 25 34 23 42 30 46 C 39 53 39 52 39 81 C 39 110 39 108 32 114 C 28 118 28 122 32 124 C 35 125 59 125 61 124 C 66 122 66 118 62 115 C 55 108 55 109 55 85 C 55 66 56 64 60 57 C 67 47 74 43 82 48 C 90 52 97 43 93 34 C 90 28 82 25 75 28 z" fill="black" /><!-- width=105 height=138 -->
<path id="gl1" d="M 40 9 C 37 11 36 11 33 13 C 31 16 31 19 33 22 C 38 27 37 21 37 85 C 37 116 37 142 37 144 C 37 144 35 147 34 148 C 27 156 30 159 46 159 C 60 160 64 157 60 150 C 55 144 55 144 54 139 C 54 130 54 91 55 88 C 58 81 73 73 84 75 C 96 76 103 82 104 93 C 105 95 105 106 105 118 C 105 142 105 144 101 148 C 96 156 99 160 114 160 C 129 160 132 156 125 148 C 121 144 121 144 121 117 C 121 96 120 90 120 87 C 114 66 91 57 64 67 C 60 69 59 70 57 69 C 54 67 54 67 54 39 C 54 12 54 11 51 9 C 49 8 44 8 40 9 z" fill="black" /><!-- width=143 height=191 -->
<path id="gl5147" d="M 35 31 C 27 31 25 34 27 43 C 28 47 29 53 31 67 C 34 87 42 106 51 115 C 55 120 64 124 67 124 C 68 124 70 127 70 129 C 72 133 64 142 57 148 C 51 151 49 152 41 152 C 33 152 31 153 28 157 C 24 167 39 172 55 165 C 71 158 93 129 102 102 C 102 99 104 96 105 94 C 107 87 109 78 112 64 C 116 43 116 43 121 42 C 125 42 127 40 127 37 C 127 33 126 32 108 31 C 98 31 96 31 94 33 C 91 36 92 39 95 43 C 96 45 97 48 98 49 C 101 63 90 102 81 108 C 71 114 58 100 53 78 C 48 59 48 49 51 42 C 55 33 51 30 35 31 z" fill="black" /><!-- width=138 height=183 -->
<path id="gl5141" d="M 42 7 C 37 8 36 10 36 22 C 35 31 33 39 31 42 C 30 43 29 43 25 43 C 19 44 18 45 18 50 C 18 55 19 55 25 56 C 31 57 33 59 32 67 C 32 68 31 84 31 103 C 31 140 31 139 36 141 C 37 142 60 144 66 144 C 74 143 76 134 69 130 C 69 130 65 129 61 129 C 54 129 51 129 49 126 C 48 123 48 122 48 92 C 48 71 48 60 48 59 C 49 55 51 55 60 57 C 69 58 75 55 73 49 C 72 44 67 43 57 45 C 53 45 49 45 48 42 C 48 41 48 37 48 24 C 49 12 48 9 45 7 C 44 6 44 6 42 7 z" fill="black" /><!-- width=85 height=160 -->
<path id="gl1" d="M 40 9 C 37 11 36 11 33 13 C 31 16 31 19 33 22 C 38 27 37 21 37 85 C 37 116 37 142 37 144 C 37 144 35 147 34 148 C 27 156 30 159 46 159 C 60 160 64 157 60 150 C 55 144 55 144 54 139 C 54 130 54 91 55 88 C 58 81 73 73 84 75 C 96 76 103 82 104 93 C 105 95 105 106 105 118 C 105 142 105 144 101 148 C 96 156 99 160 114 160 C 129 160 132 156 125 148 C 121 144 121 144 121 117 C 121 96 120 90 120 87 C 114 66 91 57 64 67 C 60 69 59 70 57 69 C 54 67 54 67 54 39 C 54 12 54 11 51 9 C 49 8 44 8 40 9 z" fill="black" /><!-- width=143 height=191 -->
<path id="gl262" d="M 129 19 C 122 19 115 22 109 27 C 103 31 100 31 94 26 C 87 21 83 19 73 19 C 63 18 57 20 49 25 C 43 29 42 29 37 24 C 33 18 29 18 23 22 C 16 27 16 30 22 39 C 25 42 25 44 25 71 C 25 99 25 99 21 103 C 15 111 21 114 37 114 C 45 113 46 113 48 111 C 50 109 49 107 46 103 C 42 99 42 99 43 71 C 43 48 43 47 44 45 C 51 30 72 25 82 36 C 87 42 87 48 88 76 C 88 98 87 98 84 103 C 81 107 81 108 82 110 C 83 113 85 114 94 114 C 110 114 114 111 108 103 C 105 97 105 97 105 73 C 105 43 105 40 118 33 C 132 27 144 31 148 43 C 150 46 150 50 150 70 C 150 97 150 97 146 103 C 143 108 143 108 145 111 C 147 113 151 114 163 114 C 173 113 175 110 171 103 C 167 98 167 100 166 72 C 166 63 166 54 166 46 C 166 44 165 42 165 40 C 163 34 161 31 157 27 C 151 21 139 17 129 19 z" fill="black" /><!-- width=186 height=128 -->
<path id="gl4" d="M 39 13 C 24 18 14 30 15 44 C 16 59 22 64 45 70 C 51 72 58 73 60 75 C 73 81 70 98 54 101 C 44 103 36 100 28 93 C 21 85 17 84 13 87 C 9 91 10 97 15 103 C 27 114 47 117 63 111 C 88 102 92 72 70 60 C 65 58 54 54 52 54 C 49 54 40 51 37 49 C 32 47 30 45 30 40 C 30 31 37 25 48 25 C 55 25 58 27 64 33 C 70 38 72 39 75 39 C 82 37 84 28 78 21 C 72 15 50 10 39 13 z" fill="black" /><!-- width=98 height=127 -->
<path id="gl772" d="M 55 13 C 45 15 37 25 33 38 C 33 42 32 45 32 55 C 31 72 31 73 24 74 C 18 75 15 76 16 81 C 16 84 19 85 24 85 C 27 85 29 86 30 88 C 31 90 31 91 31 120 C 31 154 31 153 26 158 C 22 162 21 164 22 167 C 24 171 25 171 40 171 C 54 171 55 171 57 167 C 58 164 57 162 53 158 C 51 156 49 154 49 153 C 48 149 48 89 48 88 C 49 85 51 85 58 85 C 66 85 67 85 69 81 C 70 75 66 73 57 73 C 48 74 47 73 48 54 C 49 38 49 34 52 32 C 54 30 57 30 61 32 C 69 34 75 30 73 22 C 72 16 64 11 55 13 z" fill="black" /><!-- width=85 height=184 -->
<path id="gl5" d="M 75 28 C 71 30 67 33 63 38 C 57 47 53 47 51 38 C 48 28 44 25 35 30 C 25 34 23 42 30 46 C 39 53 39 52 39 81 C 39 110 39 108 32 114 C 28 118 28 122 32 124 C 35 125 59 125 61 124 C 66 122 66 118 62 115 C 55 108 55 109 55 85 C 55 66 56 64 60 57 C 67 47 74 43 82 48 C 90 52 97 43 93 34 C 90 28 82 25 75 28 z" fill="black" /><!-- width=105 height=138 -->
<path id="gl9490" d="M 55 14 C 38 18 22 30 16 45 C 5 74 19 105 49 114 C 56 116 70 116 77 114 C 102 108 118 86 117 60 C 115 43 108 31 92 21 C 82 15 67 12 55 14 M 73 29 C 84 32 92 40 96 52 C 105 83 78 111 51 98 C 34 90 27 66 37 46 C 43 33 58 25 73 29 z" fill="black" /><!-- width=130 height=129 -->
<path id="gl262" d="M 129 19 C 122 19 115 22 109 27 C 103 31 100 31 94 26 C 87 21 83 19 73 19 C 63 18 57 20 49 25 C 43 29 42 29 37 24 C 33 18 29 18 23 22 C 16 27 16 30 22 39 C 25 42 25 44 25 71 C 25 99 25 99 21 103 C 15 111 21 114 37 114 C 45 113 46 113 48 111 C 50 109 49 107 46 103 C 42 99 42 99 43 71 C 43 48 43 47 44 45 C 51 30 72 25 82 36 C 87 42 87 48 88 76 C 88 98 87 98 84 103 C 81 107 81 108 82 110 C 83 113 85 114 94 114 C 110 114 114 111 108 103 C 105 97 105 97 105 73 C 105 43 105 40 118 33 C 132 27 144 31 148 43 C 150 46 150 50 150 70 C 150 97 150 97 146 103 C 143 108 143 108 145 111 C 147 113 151 114 163 114 C 173 113 175 110 171 103 C 167 98 167 100 166 72 C 166 63 166 54 166 46 C 166 44 165 42 165 40 C 163 34 161 31 157 27 C 151 21 139 17 129 19 z" fill="black" /><!-- width=186 height=128 -->
<path id="gl0" d="M 38 8 C 36 11 35 14 34 24 C 33 39 31 42 24 42 C 19 43 16 44 15 47 C 14 51 18 54 24 54 C 29 55 31 57 31 61 C 31 63 31 81 31 99 C 30 143 29 139 46 141 C 52 141 58 141 61 141 C 70 142 76 137 72 131 C 71 128 67 127 60 127 C 47 127 48 129 47 90 C 47 58 47 57 49 55 C 51 54 51 54 56 54 C 66 56 70 55 72 51 C 73 48 73 45 70 43 C 69 42 62 42 54 43 C 53 43 52 43 51 43 C 50 43 49 42 49 42 C 47 39 47 37 48 24 C 49 11 48 7 42 6 C 40 6 40 6 38 8 z" fill="black" /><!-- width=84 height=157 -->
<path id="gl1" d="M 40 9 C 37 11 36 11 33 13 C 31 16 31 19 33 22 C 38 27 37 21 37 85 C 37 116 37 142 37 144 C 37 144 35 147 34 148 C 27 156 30 159 46 159 C 60 160 64 157 60 150 C 55 144 55 144 54 139 C 54 130 54 91 55 88 C 58 81 73 73 84 75 C 96 76 103 82 104 93 C 105 95 105 106 105 118 C 105 142 105 144 101 148 C 96 156 99 160 114 160 C 129 160 132 156 125 148 C 121 144 121 144 121 117 C 121 96 120 90 120 87 C 114 66 91 57 64 67 C 60 69 59 70 57 69 C 54 67 54 67 54 39 C 54 12 54 11 51 9 C 49 8 44 8 40 9 z" fill="black" /><!-- width=143 height=191 -->
<path id="gl261" d="M 61 12 C 43 16 28 30 21 49 C 19 57 19 72 21 79 C 30 108 63 120 91 106 C 97 103 102 100 106 96 C 112 91 111 83 105 81 C 102 81 98 83 93 88 C 85 96 73 100 61 97 C 48 94 36 82 40 75 C 41 73 43 72 52 72 C 73 71 89 65 99 55 C 105 49 106 46 106 38 C 106 30 105 27 99 21 C 91 12 77 9 61 12 M 79 25 C 93 29 91 45 78 53 C 72 57 49 63 42 63 C 36 63 35 58 39 47 C 45 31 64 21 79 25 z" fill="black" /><!-- width=121 height=124 -->
<path id="gl3849" d="M 33 35 C 27 36 22 40 22 44 C 22 46 24 47 27 51 C 34 57 33 52 33 106 C 33 155 33 154 30 159 C 24 168 27 171 42 171 C 57 171 59 168 54 160 C 49 154 50 155 50 112 C 50 69 50 69 53 62 C 63 42 94 41 103 62 C 109 73 109 94 103 106 C 97 120 84 126 69 122 C 63 120 60 120 58 122 C 52 127 66 135 81 133 C 102 132 118 119 124 99 C 126 93 126 73 124 67 C 118 47 102 34 82 34 C 73 34 65 37 58 42 C 53 46 50 46 46 40 C 42 35 39 34 33 35 z" fill="black" /><!-- width=138 height=185 -->
<path id="gl5" d="M 75 28 C 71 30 67 33 63 38 C 57 47 53 47 51 38 C 48 28 44 25 35 30 C 25 34 23 42 30 46 C 39 53 39 52 39 81 C 39 110 39 108 32 114 C 28 118 28 122 32 124 C 35 125 59 125 61 124 C 66 122 66 118 62 115 C 55 108 55 109 55 85 C 55 66 56 64 60 57 C 67 47 74 43 82 48 C 90 52 97 43 93 34 C 90 28 82 25 75 28 z" fill="black" /><!-- width=105 height=138 -->
<path id="gl3848" d="M 24 9 C 16 13 16 24 22 29 C 26 31 34 31 38 29 C 42 26 43 25 43 19 C 43 18 43 16 43 14 C 42 13 41 12 40 12 C 36 7 29 6 24 9 M 31 46 C 30 46 27 48 25 48 C 24 49 21 51 19 51 C 16 52 13 55 13 58 C 13 61 15 63 21 65 C 25 67 25 66 25 98 C 25 130 25 129 20 132 C 13 136 12 141 18 144 C 19 145 22 145 33 145 C 37 145 42 145 46 145 C 48 144 48 144 49 143 C 54 140 52 137 47 133 C 41 128 42 131 42 90 C 42 51 42 51 39 48 C 36 45 36 45 31 46 z" fill="black" /><!-- width=64 height=169 -->
<path id="gl3" d="M 66 16 C 66 16 63 17 60 18 C 57 19 54 20 51 22 C 44 28 44 28 42 27 C 40 26 39 25 37 22 C 37 20 35 18 34 18 C 29 14 16 21 16 28 C 16 31 16 31 21 36 C 22 37 24 39 26 40 C 26 49 26 59 26 69 C 26 78 26 88 26 97 C 24 99 22 100 21 102 C 16 107 15 108 17 111 C 19 114 19 114 34 114 C 48 114 49 114 50 112 C 54 109 54 106 48 102 C 43 98 43 99 43 71 C 43 46 43 46 45 43 C 51 31 75 25 87 34 C 93 38 93 41 93 74 C 93 99 93 98 89 101 C 84 105 82 109 86 112 C 88 114 88 114 100 114 C 114 114 115 114 117 111 C 120 108 119 105 114 100 C 112 100 111 99 111 98 C 111 97 111 84 110 69 C 110 39 110 39 106 31 C 102 22 89 15 74 16 C 70 16 67 16 66 16 z" fill="black" /><!-- width=131 height=127 -->
<path id="gl0" d="M 38 8 C 36 11 35 14 34 24 C 33 39 31 42 24 42 C 19 43 16 44 15 47 C 14 51 18 54 24 54 C 29 55 31 57 31 61 C 31 63 31 81 31 99 C 30 143 29 139 46 141 C 52 141 58 141 61 141 C 70 142 76 137 72 131 C 71 128 67 127 60 127 C 47 127 48 129 47 90 C 47 58 47 57 49 55 C 51 54 51 54 56 54 C 66 56 70 55 72 51 C 73 48 73 45 70 43 C 69 42 62 42 54 43 C 53 43 52 43 51 43 C 50 43 49 42 49 42 C 47 39 47 37 48 24 C 49 11 48 7 42 6 C 40 6 40 6 38 8 z" fill="black" /><!-- width=84 height=157 -->
<path id="gl259" d="M 64 12 C 39 16 19 39 19 66 C 19 96 43 115 73 113 C 85 112 100 105 108 97 C 113 92 112 85 106 84 C 102 83 100 84 95 89 C 81 103 59 103 45 90 C 36 81 38 74 50 74 C 72 74 94 65 103 54 C 112 41 107 23 92 16 C 85 12 73 10 64 12 M 79 25 C 88 28 91 38 87 46 C 83 54 76 57 54 63 C 43 66 40 66 39 64 C 36 61 36 60 38 53 C 43 33 62 20 79 25 z" fill="black" /><!-- width=123 height=125 -->
<path id="gl257" d="M 84 10 C 78 12 73 16 73 19 C 73 19 74 21 75 23 C 79 28 79 28 79 47 C 79 70 79 69 67 66 C 45 60 25 69 15 89 C 10 99 9 103 9 116 C 9 128 10 133 14 142 C 25 162 50 169 70 159 C 76 155 78 155 84 159 C 92 163 103 162 103 156 C 103 155 101 153 100 150 C 99 148 98 147 97 145 C 97 143 97 141 96 138 C 96 134 96 105 96 74 C 96 29 96 16 96 15 C 94 10 90 9 84 10 M 69 78 C 75 81 76 81 78 84 C 79 87 79 87 79 111 C 79 142 79 142 70 147 C 44 161 22 141 26 107 C 30 82 48 70 69 78 z" fill="black" /><!-- width=127 height=199 -->
<path id="gl5915" d="M 80 33 C 75 34 68 36 63 39 C 55 43 55 43 49 38 C 43 33 39 32 31 36 C 22 40 21 46 28 52 C 30 54 32 55 33 57 C 33 58 34 59 34 60 C 34 75 34 90 34 105 C 34 121 34 136 34 151 C 34 152 33 153 33 154 C 32 156 30 159 30 160 C 27 165 28 169 34 170 C 39 171 54 171 57 170 C 61 168 63 163 58 159 C 55 154 54 152 54 142 C 54 129 55 128 64 131 C 92 141 121 126 129 99 C 131 89 130 73 127 64 C 120 43 102 31 80 33 M 93 51 C 104 56 109 67 109 84 C 109 103 102 115 88 120 C 82 121 79 121 72 119 C 69 118 64 117 62 117 C 54 117 54 118 54 93 C 54 72 55 69 57 63 C 64 51 81 45 93 51 z" fill="black" /><!-- width=144 height=184 -->
<path id="gl5900" d="M 42 9 C 25 11 17 15 16 22 C 16 27 19 31 24 31 C 27 31 29 30 39 25 C 48 20 58 21 68 27 C 74 30 77 37 75 40 C 73 42 73 42 63 42 C 44 43 33 47 22 57 C 5 73 8 98 28 108 C 34 111 38 111 48 111 C 57 111 61 110 69 105 C 75 101 78 101 81 104 C 85 108 92 110 100 109 C 108 108 109 100 100 95 C 96 91 96 92 96 64 C 96 37 96 36 91 28 C 84 14 63 5 42 9 M 75 54 C 78 56 78 58 78 67 C 78 81 75 87 66 92 C 46 102 29 95 31 77 C 32 69 36 64 46 60 C 55 55 70 52 75 54 z" fill="black" /><!-- width=119 height=127 -->
<path id="gl7691" d="M 47 16 C 21 21 6 43 9 72 C 12 100 33 116 61 111 C 67 110 69 110 71 110 C 84 113 88 129 79 136 C 73 141 69 141 54 141 C 34 141 31 140 28 132 C 25 124 19 122 13 127 C 9 132 9 144 13 148 C 18 154 37 157 55 157 C 85 156 104 144 104 126 C 104 118 101 112 93 106 C 85 102 85 99 93 89 C 102 76 102 58 94 42 C 91 36 92 33 99 31 C 105 30 108 25 105 21 C 103 17 100 16 88 17 C 81 17 75 17 67 16 C 55 15 52 15 47 16 M 64 31 C 67 33 72 37 75 40 C 81 51 82 71 76 84 C 70 96 54 102 41 94 C 25 85 23 53 37 37 C 43 30 55 28 64 31 z" fill="black" /><!-- width=118 height=171 -->
<path id="gl259" d="M 64 12 C 39 16 19 39 19 66 C 19 96 43 115 73 113 C 85 112 100 105 108 97 C 113 92 112 85 106 84 C 102 83 100 84 95 89 C 81 103 59 103 45 90 C 36 81 38 74 50 74 C 72 74 94 65 103 54 C 112 41 107 23 92 16 C 85 12 73 10 64 12 M 79 25 C 88 28 91 38 87 46 C 83 54 76 57 54 63 C 43 66 40 66 39 64 C 36 61 36 60 38 53 C 43 33 62 20 79 25 z" fill="black" /><!-- width=123 height=125 -->
<path id="gl2312" d="M 19 14 C 7 19 11 37 24 39 C 37 41 44 23 33 15 C 30 12 23 12 19 14 z" fill="black" /><!-- width=51 height=52 -->
</defs>
<use xlink:href="#gl5402" x="0" y="11" />
<use xlink:href="#gl3589" x="83" y="6" />
<use xlink:href="#gl0" x="198" y="29" />
<use xlink:href="#gl515" x="259" y="59" />
<use xlink:href="#gl18436" x="356" y="37" />
<use xlink:href="#gl9998" x="549" y="6" />
<use xlink:href="#gl21016" x="680" y="80" />
<use xlink:href="#gl3593" x="819" y="4" />
<use xlink:href="#gl7" x="987" y="10" />
<use xlink:href="#gl5900" x="1031" y="63" />
<use xlink:href="#gl4104" x="1123" y="39" />
<use xlink:href="#gl10243" x="1301" y="28" />
<use xlink:href="#gl1" x="1355" y="11" />
<use xlink:href="#gl515" x="1476" y="59" />
<use xlink:href="#gl4" x="1646" y="60" />
<use xlink:href="#gl5669" x="1728" y="65" />
<use xlink:href="#gl262" x="1823" y="55" />
<use xlink:href="#gl6" x="1990" y="60" />
<use xlink:href="#gl5" x="2145" y="46" />
<use xlink:href="#gl1" x="2216" y="11" />
<use xlink:href="#gl5147" x="2330" y="42" />
<use xlink:href="#gl5141" x="2435" y="28" />
<use xlink:href="#gl1" x="2488" y="11" />
<use xlink:href="#gl262" x="2613" y="56" />
<use xlink:href="#gl4" x="2786" y="60" />
<use xlink:href="#gl772" x="2922" y="0" />
<use xlink:href="#gl5" x="2974" y="46" />
<use xlink:href="#gl9490" x="3060" y="58" />
<use xlink:href="#gl262" x="3171" y="56" />
<use xlink:href="#gl0" x="3399" y="31" />
<use xlink:href="#gl1" x="3450" y="12" />
<use xlink:href="#gl261" x="3572" y="62" />
<use xlink:href="#gl3849" x="3734" y="40" />
<use xlink:href="#gl5" x="3844" y="46" />
<use xlink:href="#gl3848" x="3930" y="28" />
<use xlink:href="#gl3" x="3975" y="58" />
<use xlink:href="#gl0" x="4086" y="31" />
<use xlink:href="#gl259" x="4147" y="61" />
<use xlink:href="#gl257" x="4256" y="11" />
<use xlink:href="#gl5915" x="4410" y="41" />
<use xlink:href="#gl5900" x="4537" y="65" />
<use xlink:href="#gl7691" x="4641" y="58" />
<use xlink:href="#gl259" x="4737" y="62" />
<use xlink:href="#gl2312" x="4856" y="137" />
</svg>