<?xml version="1.0" standalone="no"?>
<!DOCTYPE svg PUBLIC "-//W3C/DTD SVG 1.1//EN" "http://www.w3.org/Graphics/SVG/1.1/DTD/svg11.dtd">
<svg width="584px" height="151px" viewBox="0 0 5842 1516" xmlns="http://www.w3.org/2000/svg" xmlns:xlink="http://www.w3.org/1999/xlink" version="1.1">
<defs>
<path id="gl7706" d="M 4 14 C 4 24 9 24 14 24 C 19 24 24 28 19 52 C 19 76 19 81 28 81 C 38 81 43 72 38 67 C 28 62 28 24 38 19 C 57 9 52 0 28 0 C 9 0 4 4 4 14 z" fill="black" /><!-- width=57 height=86 -->
<path id="gl7707" d="M 4 14 C 4 19 4 33 4 43 C 4 57 9 67 14 67 C 14 67 19 52 19 33 C 19 9 14 0 9 0 C 4 0 0 4 4 14 z" fill="black" /><!-- width=28 height=72 -->
<path id="gl7708" d="M 4 4 C 0 9 0 67 9 72 C 9 72 9 62 9 38 C 9 0 9 0 4 4 z" fill="black" /><!-- width=24 height=81 -->
<path id="gl7936" d="M 3312 115 C 3312 153 3312 187 3312 225 C 3187 225 3067 225 2947 225 C 2822 225 2702 225 2577 230 C 2568 220 2563 211 2553 206 C 2544 192 2524 172 2520 163 C 2515 153 2510 144 2505 139 C 2510 144 2510 148 2510 158 C 2510 163 2510 187 2510 201 C 2510 211 2510 220 2510 225 C 2428 225 2352 225 2270 225 C 2193 225 2116 225 2035 225 C 2030 220 2020 211 2011 206 C 2001 192 1987 172 1982 158 C 1977 153 1972 144 1972 139 C 1968 153 1968 168 1968 182 C 1968 196 1968 211 1968 225 C 1891 225 1809 225 1732 225 C 1651 225 1574 225 1492 230 C 1483 220 1473 211 1464 201 C 1444 182 1435 168 1435 153 C 1435 148 1430 144 1430 139 C 1430 144 1430 153 1425 158 C 1425 168 1425 187 1425 201 C 1425 211 1425 220 1425 225 C 1344 225 1267 225 1185 225 C 1108 225 1032 225 950 225 C 945 220 936 216 931 206 C 907 187 892 158 888 144 C 888 139 888 153 888 177 C 883 196 883 211 883 225 C 816 225 744 225 672 225 C 604 225 532 225 465 225 C 465 220 465 216 465 211 C 465 206 465 196 470 196 C 480 187 480 163 470 153 C 465 148 460 139 465 124 C 465 110 465 100 460 100 C 460 100 460 110 460 124 C 460 144 456 153 446 163 C 441 163 441 168 436 172 C 436 163 436 153 436 144 C 432 110 422 110 422 144 C 422 163 422 172 417 177 C 408 187 403 211 412 211 C 417 211 422 216 422 220 C 422 225 408 230 345 225 C 316 225 292 225 268 225 C 268 220 268 216 268 211 C 264 168 249 124 235 120 C 216 115 187 153 182 201 C 182 211 177 220 177 225 C 148 225 120 225 91 225 C 62 225 33 225 4 225 C 9 422 9 619 9 816 C 9 1012 9 1209 9 1406 C 139 1406 273 1406 403 1406 C 532 1406 662 1406 796 1411 C 792 1425 792 1440 792 1454 C 792 1492 792 1502 796 1502 C 806 1507 840 1473 868 1435 C 873 1425 883 1416 888 1411 C 960 1411 1036 1411 1108 1411 C 1281 1411 1334 1411 1334 1416 C 1334 1416 1334 1440 1334 1459 C 1334 1497 1334 1502 1344 1502 C 1353 1502 1392 1459 1420 1420 C 1425 1416 1425 1411 1430 1406 C 1473 1406 1521 1406 1564 1406 C 1636 1406 1737 1406 1790 1406 C 1819 1406 1848 1406 1876 1411 C 1881 1425 1881 1440 1881 1454 C 1881 1468 1881 1483 1881 1497 C 1881 1492 1886 1483 1886 1478 C 1891 1468 1905 1449 1920 1435 C 1929 1425 1934 1416 1944 1411 C 2011 1411 2078 1411 2145 1406 C 2260 1406 2366 1406 2385 1406 C 2395 1406 2404 1406 2414 1411 C 2414 1425 2414 1440 2414 1454 C 2414 1492 2424 1507 2428 1478 C 2428 1468 2443 1449 2457 1435 C 2462 1425 2472 1416 2481 1406 C 2601 1406 2726 1406 2846 1406 C 3048 1411 3216 1411 3220 1411 C 3220 1411 3225 1420 3220 1425 C 3220 1449 3225 1449 3230 1430 C 3235 1420 3240 1416 3240 1411 C 3316 1411 3388 1411 3460 1411 C 3532 1411 3604 1411 3681 1411 C 3681 1416 3681 1420 3681 1430 C 3681 1440 3681 1444 3681 1444 C 3686 1444 3686 1444 3686 1440 C 3686 1435 3691 1425 3696 1420 C 3700 1416 3700 1411 3705 1411 C 3964 1411 4224 1411 4488 1411 C 4747 1411 5006 1411 5265 1411 C 5265 1425 5265 1440 5265 1454 C 5265 1483 5270 1507 5270 1507 C 5280 1512 5313 1478 5342 1440 C 5347 1430 5356 1420 5366 1411 C 5433 1411 5500 1411 5568 1411 C 5697 1411 5769 1406 5769 1401 C 5769 1401 5697 1396 5568 1396 C 5500 1396 5438 1396 5371 1396 C 5371 1387 5371 1372 5371 1358 C 5371 1348 5371 1334 5371 1320 C 5433 1320 5500 1320 5563 1320 C 5764 1320 5808 1315 5707 1315 C 5688 1310 5664 1310 5644 1310 C 5644 1305 5644 1300 5644 1291 C 5644 1281 5649 1267 5649 1252 C 5654 1248 5654 1238 5659 1228 C 5678 1228 5692 1228 5712 1228 C 5745 1228 5769 1228 5769 1224 C 5769 1224 5745 1224 5712 1224 C 5697 1224 5678 1224 5659 1224 C 5659 1214 5664 1209 5664 1209 C 5664 1200 5668 1185 5668 1176 C 5673 1161 5668 1161 5654 1180 C 5640 1200 5630 1204 5630 1180 C 5630 1156 5596 1147 5587 1171 C 5582 1195 5616 1219 5635 1209 C 5649 1200 5649 1200 5649 1209 C 5649 1219 5649 1224 5510 1224 C 5395 1224 5371 1219 5371 1214 C 5371 1209 5361 1204 5356 1195 C 5342 1180 5323 1180 5299 1195 C 5275 1209 5280 1209 5280 1176 C 5280 1166 5280 1156 5280 1147 C 5361 1142 5443 1142 5524 1142 C 5688 1142 5774 1142 5769 1137 C 5764 1137 5668 1137 5529 1137 C 5400 1137 5289 1137 5284 1137 C 5280 1132 5280 1128 5280 1099 C 5280 1084 5280 1070 5280 1056 C 5361 1056 5443 1056 5524 1056 C 5688 1056 5774 1056 5774 1051 C 5774 1051 5688 1051 5524 1051 C 5443 1051 5361 1051 5280 1051 C 5280 1036 5280 1022 5280 1008 C 5280 998 5280 984 5280 974 C 5294 974 5313 974 5332 974 C 5366 974 5390 969 5390 969 C 5390 964 5376 960 5366 960 C 5342 960 5342 964 5356 940 C 5380 897 5352 864 5308 888 C 5284 897 5270 916 5270 940 C 5270 955 5270 960 5265 960 C 5256 960 5256 964 5256 969 C 5256 969 5256 974 5265 974 C 5270 974 5270 979 5270 1012 C 5270 1046 5270 1051 5256 1051 C 5256 1051 5116 1051 4944 1046 C 4843 1046 4737 1046 4636 1046 C 4636 1041 4636 1036 4636 1032 C 4636 1008 4636 1003 4651 1012 C 4670 1017 4699 1008 4708 988 C 4718 979 4728 974 4732 974 C 4737 974 4747 969 4747 969 C 4747 964 4742 960 4732 960 C 4728 960 4728 960 4728 955 C 4728 921 4675 916 4646 945 C 4636 955 4627 960 4617 960 C 4612 960 4612 964 4612 969 C 4612 969 4612 974 4617 974 C 4627 974 4632 974 4632 1008 C 4632 1022 4632 1036 4632 1051 C 4569 1051 4507 1051 4449 1051 C 4348 1051 4267 1046 4267 1046 C 4267 1046 4272 1036 4281 1027 C 4296 1012 4296 988 4281 974 C 4248 950 4195 984 4195 1032 C 4195 1036 4195 1041 4195 1051 C 4128 1046 4060 1046 3988 1046 C 3921 1046 3849 1046 3782 1046 C 3782 1041 3777 1036 3772 1032 C 3763 1003 3729 1003 3700 1036 C 3696 1041 3691 1046 3686 1051 C 3624 1051 3561 1051 3504 1051 C 3441 1051 3379 1051 3321 1051 C 3316 1046 3316 1041 3316 1036 C 3312 1003 3273 1003 3244 1032 C 3235 1036 3230 1041 3225 1046 C 2841 1046 2462 1046 2078 1051 C 1449 1051 830 1051 700 1051 C 624 1051 547 1051 470 1051 C 465 1041 465 1036 465 1032 C 460 1008 451 1008 451 1032 C 451 1046 451 1051 441 1051 C 436 1051 436 1046 436 1041 C 436 1032 432 1027 427 1027 C 427 1027 422 1027 422 1032 C 422 1036 422 1046 417 1046 C 412 1051 19 1051 19 1046 C 14 1046 14 940 14 816 C 14 739 14 662 14 585 C 38 585 62 585 86 585 C 129 585 182 585 206 585 C 220 585 235 590 249 590 C 249 604 254 619 254 633 C 264 672 259 676 254 691 C 244 710 225 724 206 720 C 196 720 192 710 201 705 C 220 700 230 667 211 648 C 192 624 148 643 148 676 C 153 729 211 748 249 710 C 254 705 264 700 268 691 C 268 681 264 672 264 657 C 264 638 259 614 259 604 C 259 595 254 590 254 585 C 350 585 446 585 537 585 C 700 585 825 585 825 585 C 825 590 820 595 816 600 C 792 619 792 652 816 662 C 844 681 888 648 888 604 C 888 595 888 590 888 585 C 969 585 1051 585 1128 585 C 1387 585 1372 580 1348 604 C 1329 624 1334 657 1358 667 C 1392 676 1425 648 1430 609 C 1430 600 1435 590 1435 585 C 1521 585 1612 585 1704 585 C 1790 585 1881 585 1968 585 C 1968 590 1968 595 1968 604 C 1968 609 1968 619 1968 624 C 1958 624 1953 624 1944 624 C 1924 624 1900 633 1891 652 C 1886 657 1881 662 1872 662 C 1867 662 1862 662 1862 662 C 1862 667 1862 667 1867 667 C 1876 667 1876 672 1876 676 C 1876 691 1891 705 1905 710 C 1920 715 1958 696 1968 681 C 1968 672 1977 667 1982 667 C 1996 667 1996 667 1987 662 C 1977 662 1977 657 1977 624 C 1977 609 1977 595 1977 585 C 2064 585 2155 585 2241 585 C 2332 585 2419 585 2510 585 C 2510 590 2510 600 2510 604 C 2510 614 2510 619 2510 628 C 2500 624 2496 624 2491 624 C 2472 619 2443 633 2433 648 C 2424 657 2419 662 2414 662 C 2400 662 2400 667 2409 667 C 2419 667 2419 672 2424 681 C 2428 715 2467 720 2500 686 C 2510 676 2520 667 2529 667 C 2539 667 2539 667 2529 662 C 2520 657 2510 619 2515 590 C 2520 585 2553 585 2889 585 C 3009 585 3134 585 3259 585 C 3254 585 3249 590 3244 595 C 3216 628 3220 662 3259 662 C 3292 667 3321 638 3321 604 C 3321 595 3321 590 3321 585 C 3384 585 3451 585 3518 585 C 3624 585 3710 585 3710 585 C 3710 590 3705 595 3700 600 C 3672 628 3686 662 3720 662 C 3753 662 3777 643 3777 609 C 3777 600 3782 590 3782 585 C 3854 585 3931 585 4003 585 C 4147 585 4228 585 4228 585 C 4228 590 4224 595 4219 595 C 4214 595 4195 624 4195 633 C 4195 652 4214 667 4233 667 C 4267 667 4291 633 4291 600 C 4291 595 4291 590 4296 585 C 4348 585 4406 585 4459 585 C 4516 585 4574 585 4627 585 C 4627 585 4632 590 4632 595 C 4636 633 4680 633 4708 600 C 4713 595 4718 590 4723 585 C 4900 585 5073 585 5246 585 C 5596 585 5774 580 5774 580 C 5774 576 5697 571 5558 571 C 5443 571 5347 571 5347 571 C 5347 571 5352 561 5356 552 C 5366 542 5371 528 5371 513 C 5371 508 5371 504 5371 494 C 5438 494 5505 494 5572 494 C 5702 494 5774 494 5774 489 C 5774 489 5745 489 5707 489 C 5640 489 5640 489 5644 475 C 5644 470 5649 451 5654 436 C 5659 408 5664 408 5688 408 C 5692 408 5716 408 5736 408 C 5750 408 5760 403 5774 403 C 5755 403 5736 403 5716 398 C 5683 398 5664 398 5664 393 C 5668 360 5668 336 5664 345 C 5644 374 5625 379 5630 360 C 5635 340 5611 326 5596 340 C 5587 345 5587 369 5596 374 C 5606 384 5635 388 5644 384 C 5654 379 5659 379 5659 384 C 5659 398 5644 398 5505 398 C 5462 398 5414 398 5366 398 C 5371 388 5371 374 5371 360 C 5371 345 5371 336 5371 321 C 5385 321 5400 321 5414 321 C 5424 321 5438 321 5452 321 C 5452 331 5452 340 5452 350 C 5452 379 5457 374 5462 340 C 5462 331 5462 326 5467 316 C 5496 316 5529 316 5563 321 C 5616 321 5683 321 5716 316 C 5750 316 5707 316 5620 316 C 5568 312 5520 312 5467 312 C 5467 307 5462 297 5462 292 C 5457 283 5452 264 5448 259 C 5443 249 5443 240 5443 240 C 5443 235 5496 235 5606 235 C 5697 235 5774 230 5769 230 C 5769 230 5692 230 5596 225 C 5544 225 5486 225 5428 225 C 5419 216 5409 206 5400 196 C 5385 182 5371 163 5371 158 C 5366 129 5356 144 5356 182 C 5356 211 5356 220 5352 225 C 5347 225 5131 225 4867 225 C 4704 225 4545 230 4387 230 C 4382 220 4377 216 4372 211 C 4363 201 4348 182 4339 168 C 4324 158 4310 134 4300 124 C 4286 91 4286 100 4286 163 C 4286 192 4286 216 4286 220 C 4281 225 4272 230 4080 225 C 4012 225 3945 225 3878 225 C 3878 216 3873 211 3873 201 C 3864 172 3859 158 3820 120 C 3806 105 3787 81 3782 67 C 3782 62 3777 52 3777 48 C 3777 76 3777 105 3777 134 C 3772 211 3772 220 3768 225 C 3763 225 3681 230 3585 225 C 3528 225 3470 225 3412 225 C 3412 216 3412 206 3412 192 C 3412 148 3403 120 3360 76 C 3345 62 3331 38 3326 24 C 3321 19 3316 9 3316 4 C 3312 43 3312 76 3312 115 M 3355 105 C 3388 129 3408 163 3403 196 C 3403 206 3403 216 3403 225 C 3388 225 3374 225 3364 225 C 3350 225 3336 225 3321 225 C 3321 206 3321 187 3321 168 C 3316 86 3316 86 3355 105 M 3806 148 C 3835 163 3859 196 3859 216 C 3859 230 3859 230 3820 225 C 3811 225 3796 225 3782 225 C 3782 211 3782 201 3782 187 C 3777 134 3782 129 3806 148 M 240 163 C 249 172 259 201 249 216 C 249 225 244 225 225 225 C 196 225 196 225 206 196 C 220 168 230 158 240 163 M 4334 201 C 4363 225 4363 230 4324 225 C 4315 225 4305 225 4296 225 C 4296 220 4296 211 4296 206 C 4291 177 4305 177 4334 201 M 451 216 C 451 230 436 230 436 216 C 432 206 436 206 441 206 C 451 206 451 206 451 216 M 177 240 C 187 249 192 302 187 312 C 182 312 144 312 96 312 C 72 312 43 312 14 312 C 14 302 14 288 14 278 C 9 249 14 240 19 235 C 28 230 168 235 177 240 M 240 235 C 249 240 235 264 216 278 C 201 292 201 292 196 264 C 192 235 192 235 240 235 M 422 249 C 422 259 422 264 417 268 C 412 273 408 278 408 288 C 412 312 408 316 321 316 C 244 316 240 312 249 297 C 254 292 259 283 259 268 C 264 254 268 240 268 240 C 268 235 288 235 345 235 C 369 235 393 235 417 235 C 417 240 422 244 422 249 M 561 264 C 561 288 561 292 552 292 C 542 297 537 292 537 268 C 537 254 537 244 532 244 C 532 244 532 259 532 273 C 532 307 523 312 489 312 C 470 316 465 312 465 302 C 465 292 470 283 470 283 C 480 278 480 249 470 244 C 456 240 480 235 518 235 C 532 235 547 235 566 235 C 561 244 561 254 561 264 M 883 273 C 883 288 883 297 883 312 C 835 312 787 312 734 312 C 686 312 638 312 590 312 C 590 307 590 302 590 297 C 585 292 585 283 580 283 C 571 278 571 240 580 235 C 585 235 657 235 734 235 C 787 235 835 235 883 235 C 883 249 883 259 883 273 M 931 244 C 950 259 974 288 974 302 C 974 316 969 316 931 312 C 916 312 907 312 892 312 C 892 297 892 288 892 273 C 892 259 888 244 888 235 C 892 235 897 235 902 235 C 912 235 921 235 931 244 M 1425 240 C 1430 249 1430 283 1425 302 C 1425 307 1425 312 1420 316 C 1348 312 1276 312 1204 312 C 1132 312 1060 312 988 312 C 988 302 984 297 984 292 C 984 278 974 264 969 254 C 964 249 964 240 964 240 C 969 225 1420 230 1425 240 M 1488 259 C 1502 273 1512 283 1512 297 C 1512 302 1516 307 1516 316 C 1502 316 1488 316 1473 316 C 1459 316 1444 316 1430 316 C 1430 302 1430 288 1430 278 C 1430 254 1435 240 1435 235 C 1444 225 1468 240 1488 259 M 1968 273 C 1968 288 1968 297 1968 312 C 1896 312 1824 312 1747 312 C 1675 312 1603 312 1531 316 C 1531 307 1526 302 1526 297 C 1526 288 1516 268 1512 259 C 1507 249 1507 240 1507 235 C 1507 235 1588 235 1737 235 C 1814 235 1891 235 1968 235 C 1968 249 1968 259 1968 273 M 2020 244 C 2040 259 2059 297 2054 307 C 2054 312 2044 316 2016 312 C 2001 312 1992 312 1977 312 C 1977 302 1977 288 1977 278 C 1977 259 1977 244 1977 240 C 1982 230 2001 230 2020 244 M 2510 273 C 2510 288 2510 302 2510 316 C 2438 316 2371 312 2299 312 C 2073 312 2073 312 2073 297 C 2073 292 2064 278 2059 264 C 2054 249 2049 240 2049 235 C 2049 235 2150 235 2275 235 C 2356 235 2428 235 2510 235 C 2510 244 2510 259 2510 273 M 2572 254 C 2592 278 2601 302 2596 307 C 2596 312 2577 312 2553 312 C 2544 312 2529 312 2520 312 C 2520 297 2520 288 2520 273 C 2520 259 2520 244 2520 235 C 2524 235 2529 235 2534 235 C 2544 235 2553 240 2572 254 M 2961 268 C 2961 288 2961 307 2956 307 C 2956 312 2880 312 2788 312 C 2611 316 2611 316 2606 288 C 2606 283 2601 268 2596 259 C 2592 244 2587 235 2587 235 C 2587 235 2668 235 2774 235 C 2836 235 2899 235 2961 235 C 2961 244 2961 259 2961 268 M 3316 254 C 3316 264 3316 268 3316 278 C 3307 278 3302 273 3297 273 C 3278 268 3249 283 3240 297 C 3235 302 3230 307 3230 312 C 3187 312 3144 312 3100 312 C 3057 312 3014 312 2971 312 C 2971 297 2971 288 2971 273 C 2971 259 2971 244 2966 235 C 3024 235 3081 235 3139 235 C 3196 235 3254 235 3316 235 C 3316 240 3316 249 3316 254 M 3772 268 C 3772 288 3772 302 3772 307 C 3763 312 3345 316 3331 307 C 3321 307 3321 302 3321 273 C 3321 254 3321 240 3321 235 C 3321 235 3427 235 3547 235 C 3624 235 3696 235 3772 235 C 3772 244 3772 259 3772 268 M 3868 254 C 3868 264 3868 268 3868 278 C 3868 268 3868 264 3873 254 C 3873 249 3878 240 3878 230 C 3945 235 4012 235 4080 235 C 4147 235 4219 235 4286 235 C 4286 244 4286 254 4286 268 C 4291 316 4310 316 4027 312 C 3945 312 3864 312 3782 312 C 3782 297 3782 288 3782 273 C 3782 259 3782 244 3777 235 C 3792 235 3806 235 3820 235 C 3835 235 3849 235 3864 235 C 3868 240 3868 249 3868 254 M 4372 244 C 4372 254 4377 268 4377 283 C 4382 312 4377 312 4324 312 C 4315 312 4305 312 4296 312 C 4296 297 4296 288 4296 273 C 4296 259 4296 244 4291 235 C 4305 235 4315 235 4329 235 C 4363 235 4368 235 4372 244 M 5145 273 C 5145 288 5145 297 5145 312 C 5083 312 5020 312 4958 312 C 4737 316 4742 316 4732 288 C 4723 268 4713 273 4718 292 C 4728 312 4718 316 4555 312 C 4468 312 4396 312 4392 312 C 4387 312 4387 244 4387 235 C 4387 235 4560 235 4766 235 C 4891 235 5016 235 5145 235 C 5145 244 5145 259 5145 273 M 5356 273 C 5356 288 5356 302 5356 312 C 5323 312 5289 312 5256 312 C 5222 312 5188 316 5150 316 C 5150 307 5150 297 5150 288 C 5150 273 5150 259 5150 254 C 5150 244 5150 240 5150 235 C 5150 235 5198 235 5256 235 C 5289 235 5323 235 5356 235 C 5356 244 5356 259 5356 273 M 5424 254 C 5443 278 5457 302 5443 312 C 5443 312 5424 312 5404 312 C 5395 312 5380 312 5371 312 C 5371 302 5371 288 5371 278 C 5366 240 5371 235 5385 235 C 5395 235 5404 240 5424 254 M 451 244 C 451 254 451 254 451 254 C 451 254 446 259 441 259 C 436 264 436 259 436 249 C 436 240 436 240 441 240 C 451 240 451 240 451 244 M 451 302 C 451 312 451 316 446 316 C 436 316 432 302 441 297 C 451 292 451 292 451 302 M 163 326 C 163 326 153 345 139 364 C 129 379 120 388 110 403 C 96 398 81 398 62 398 C 48 398 28 398 14 398 C 14 388 14 374 14 364 C 9 336 14 326 19 321 C 24 316 158 321 163 326 M 422 336 C 422 345 422 355 427 355 C 432 355 432 350 432 340 C 432 321 441 316 451 326 C 456 331 460 336 460 340 C 460 345 460 345 465 345 C 465 345 465 336 465 331 C 465 312 513 316 513 331 C 513 336 518 345 523 345 C 528 345 532 350 532 369 C 532 379 532 393 532 398 C 480 398 427 398 374 398 C 326 398 273 398 220 398 C 220 398 220 393 216 388 C 206 360 216 331 244 321 C 244 321 288 321 336 321 C 364 321 393 321 422 321 C 422 326 422 331 422 336 M 883 340 C 888 350 883 369 883 379 C 883 388 883 393 878 398 C 830 398 782 398 734 398 C 686 398 638 398 585 398 C 585 398 585 393 585 388 C 585 379 585 379 580 379 C 576 379 571 369 576 350 C 576 316 571 321 739 321 C 787 321 835 321 883 321 C 883 326 883 336 883 340 M 979 340 C 979 350 979 355 979 364 C 979 360 979 350 984 345 C 984 336 988 331 988 321 C 1060 321 1132 321 1204 321 C 1377 321 1420 321 1425 326 C 1425 326 1425 345 1425 364 C 1425 379 1420 388 1420 403 C 1377 398 1334 398 1286 398 C 1132 398 1147 403 1156 360 C 1161 340 1152 331 1147 355 C 1147 360 1137 364 1132 369 C 1123 379 1118 379 1118 360 C 1118 340 1113 336 1099 336 C 1080 336 1070 364 1084 379 C 1094 384 1123 384 1137 379 C 1142 379 1142 379 1142 384 C 1142 398 1132 403 1012 398 C 974 398 931 398 892 398 C 892 388 892 374 892 364 C 888 316 888 316 936 316 C 950 316 964 316 979 316 C 979 326 979 336 979 340 M 1516 350 C 1516 355 1516 364 1516 374 C 1516 364 1521 355 1521 350 C 1526 331 1531 321 1540 321 C 1545 321 1646 321 1761 321 C 1828 321 1896 321 1968 321 C 1968 331 1968 340 1968 350 C 1968 364 1968 384 1968 388 C 1968 393 1968 398 1963 403 C 1920 398 1876 398 1828 398 C 1675 398 1689 403 1699 360 C 1699 350 1699 345 1704 336 C 1694 340 1689 350 1684 355 C 1660 379 1656 384 1660 364 C 1665 340 1632 316 1622 340 C 1608 374 1636 393 1675 379 C 1680 374 1684 379 1680 388 C 1680 388 1680 393 1680 398 C 1636 398 1598 398 1555 398 C 1516 398 1473 398 1430 398 C 1430 388 1430 374 1430 360 C 1430 345 1430 331 1430 316 C 1444 321 1459 321 1473 321 C 1488 321 1502 321 1516 321 C 1516 331 1516 340 1516 350 M 2064 340 C 2064 350 2064 355 2064 364 C 2064 355 2064 350 2068 340 C 2068 336 2073 326 2073 316 C 2145 316 2217 316 2289 316 C 2361 316 2433 316 2510 316 C 2510 331 2510 345 2510 355 C 2510 369 2510 384 2510 393 C 2500 398 2496 398 2486 398 C 2476 398 2414 398 2352 398 C 2222 398 2236 403 2241 360 C 2241 340 2241 336 2236 345 C 2217 374 2198 384 2203 360 C 2208 340 2184 321 2169 340 C 2150 360 2169 384 2198 384 C 2222 384 2227 384 2222 388 C 2222 398 2208 398 2097 398 C 2059 398 2016 398 1977 398 C 1977 388 1977 374 1977 364 C 1972 316 1972 316 2020 316 C 2035 316 2049 316 2059 316 C 2064 326 2064 336 2064 340 M 2601 345 C 2601 369 2601 364 2611 331 C 2611 326 2611 321 2616 316 C 2673 321 2731 321 2788 321 C 2846 321 2904 321 2961 321 C 2961 331 2961 336 2961 345 C 2961 360 2961 374 2961 384 C 2961 388 2961 393 2956 398 C 2928 398 2899 398 2865 398 C 2836 398 2808 398 2774 398 C 2774 393 2779 384 2779 374 C 2779 364 2784 350 2784 345 C 2788 340 2779 345 2769 355 C 2745 379 2740 384 2745 364 C 2750 336 2716 321 2707 345 C 2692 369 2726 393 2755 384 C 2764 379 2769 379 2764 388 C 2764 393 2764 393 2764 398 C 2726 398 2688 398 2649 398 C 2505 398 2520 403 2520 355 C 2520 345 2520 331 2520 316 C 2529 321 2544 321 2558 321 C 2572 321 2587 321 2601 321 C 2601 331 2601 336 2601 345 M 3225 331 C 3230 360 3264 369 3292 350 C 3316 336 3316 336 3312 369 C 3312 379 3312 388 3312 398 C 3254 398 3196 398 3139 398 C 3081 398 3024 398 2966 403 C 2966 388 2966 374 2966 360 C 2966 345 2966 331 2966 316 C 3009 316 3052 316 3096 316 C 3139 316 3182 316 3220 316 C 3225 321 3225 326 3225 331 M 3710 321 C 3710 321 3705 331 3700 340 C 3691 350 3686 360 3686 379 C 3686 384 3686 393 3686 398 C 3667 398 3643 398 3619 398 C 3532 398 3532 398 3537 364 C 3547 331 3547 326 3532 350 C 3518 374 3499 384 3504 364 C 3508 336 3475 321 3465 345 C 3451 369 3484 393 3513 384 C 3528 374 3532 374 3523 388 C 3523 398 3518 398 3432 398 C 3312 398 3321 403 3321 360 C 3321 340 3321 326 3321 321 C 3326 316 3710 316 3710 321 M 4286 336 C 4291 360 4286 364 4267 360 C 4248 355 4228 364 4209 384 C 4204 388 4200 398 4200 403 C 4171 403 4142 398 4113 398 C 4017 398 4027 403 4032 360 C 4036 340 4032 336 4027 345 C 4027 350 4017 360 4012 364 C 4008 369 4003 374 3998 379 C 3998 374 3998 369 3998 364 C 3993 336 3969 321 3955 345 C 3940 369 3969 388 4003 384 C 4017 379 4017 379 4017 384 C 4017 398 4008 403 3892 398 C 3859 398 3820 398 3782 398 C 3782 388 3782 374 3782 364 C 3782 345 3782 331 3782 326 C 3782 321 3830 321 4032 321 C 4118 321 4200 316 4281 316 C 4281 326 4286 331 4286 336 M 4377 326 C 4377 331 4377 331 4377 326 C 4382 316 4708 316 4713 326 C 4718 331 4723 360 4718 379 C 4718 388 4718 393 4713 398 C 4680 398 4646 398 4612 398 C 4550 398 4502 398 4502 398 C 4502 393 4502 384 4507 369 C 4512 340 4507 331 4497 350 C 4492 360 4483 369 4478 369 C 4468 374 4468 374 4468 360 C 4468 340 4459 331 4440 336 C 4425 340 4420 364 4435 379 C 4444 384 4473 384 4488 379 C 4492 374 4492 379 4492 388 C 4488 398 4488 398 4406 398 C 4363 398 4320 398 4310 398 C 4305 398 4300 398 4296 393 C 4296 384 4296 369 4296 355 C 4296 345 4296 331 4296 316 C 4305 316 4320 316 4334 316 C 4363 316 4377 321 4377 326 M 5140 360 C 5140 369 5140 384 5140 398 C 5112 398 5083 398 5059 398 C 5001 398 4972 398 4972 393 C 4972 388 4977 379 4977 364 C 4977 355 4977 345 4982 336 C 4977 340 4972 350 4968 355 C 4948 374 4939 379 4939 360 C 4944 340 4920 326 4905 340 C 4881 364 4920 398 4953 379 C 4963 374 4968 379 4963 388 C 4953 398 4953 398 4886 398 C 4862 398 4838 398 4819 398 C 4814 393 4809 388 4804 384 C 4800 374 4785 360 4776 350 C 4766 336 4756 326 4756 326 C 4756 321 4819 316 4953 316 C 5016 316 5078 316 5145 316 C 5140 331 5140 345 5140 360 M 5356 360 C 5356 374 5356 388 5356 398 C 5323 398 5289 398 5256 398 C 5145 398 5145 403 5150 369 C 5150 360 5150 345 5150 336 C 5150 331 5155 326 5155 316 C 5188 316 5222 316 5256 316 C 5289 316 5323 316 5356 316 C 5356 331 5356 345 5356 360 M 561 360 C 561 384 556 393 542 388 C 537 384 537 345 547 336 C 556 326 561 331 561 360 M 4776 379 C 4795 398 4761 408 4732 398 C 4728 393 4723 364 4728 355 C 4732 350 4756 364 4776 379 M 206 384 C 206 393 201 398 192 398 C 172 403 168 393 187 374 C 201 355 211 360 206 384 M 801 408 C 806 408 816 408 825 412 C 820 417 816 422 811 427 C 801 441 796 451 796 465 C 796 475 796 480 796 484 C 758 489 720 489 681 489 C 528 489 537 494 537 460 C 537 436 542 432 552 432 C 561 427 561 427 561 451 C 566 484 576 484 576 451 C 576 403 561 408 801 408 M 1132 408 C 1132 412 1132 432 1128 451 C 1123 465 1123 475 1118 489 C 1080 489 1041 489 1003 489 C 964 489 926 489 888 489 C 888 475 888 460 888 451 C 888 436 888 422 888 412 C 897 412 907 408 916 408 C 993 403 1128 403 1132 408 M 1363 408 C 1363 412 1363 417 1358 422 C 1344 432 1334 456 1339 470 C 1339 475 1339 480 1344 489 C 1305 489 1272 489 1238 489 C 1176 489 1132 484 1132 484 C 1132 470 1147 412 1152 408 C 1156 403 1358 403 1363 408 M 1675 408 C 1675 412 1675 427 1670 451 C 1665 460 1660 475 1660 484 C 1622 484 1584 484 1545 484 C 1507 484 1468 484 1430 489 C 1430 475 1430 460 1430 446 C 1430 432 1430 417 1430 408 C 1473 408 1512 408 1550 408 C 1617 408 1675 408 1675 408 M 1900 408 C 1905 412 1910 412 1905 417 C 1891 427 1876 460 1881 470 C 1886 480 1891 484 1891 484 C 1891 484 1838 489 1780 489 C 1684 489 1670 484 1670 480 C 1670 475 1675 456 1680 436 C 1684 427 1684 417 1689 408 C 1723 408 1756 408 1790 408 C 1843 408 1896 408 1900 408 M 2217 427 C 2217 436 2212 456 2208 465 C 2208 475 2203 480 2203 489 C 2164 489 2126 489 2088 489 C 2049 489 2011 489 1977 489 C 1977 475 1977 460 1977 451 C 1977 427 1977 412 1977 408 C 1977 408 2035 408 2102 408 C 2140 408 2179 403 2222 403 C 2222 412 2217 417 2217 427 M 2448 408 C 2448 412 2448 417 2443 422 C 2428 432 2419 456 2424 470 C 2424 475 2424 480 2428 489 C 2390 489 2356 489 2323 489 C 2260 489 2212 484 2212 484 C 2212 480 2232 412 2232 408 C 2236 403 2443 403 2448 408 M 2760 408 C 2760 412 2760 427 2755 451 C 2750 460 2745 475 2745 484 C 2707 484 2668 484 2630 484 C 2592 484 2553 484 2520 489 C 2520 475 2520 460 2520 446 C 2520 432 2520 417 2520 408 C 2558 408 2596 408 2635 408 C 2702 408 2760 408 2760 408 M 2961 422 C 2961 432 2966 446 2961 460 C 2961 470 2961 475 2961 484 C 2928 484 2894 484 2860 484 C 2827 484 2793 484 2760 489 C 2760 484 2760 480 2760 475 C 2760 465 2769 417 2774 412 C 2774 408 2808 408 2870 408 C 2899 408 2928 408 2956 408 C 2961 412 2961 417 2961 422 M 3312 446 C 3312 460 3312 470 3312 484 C 3254 484 3196 484 3139 484 C 3081 484 3024 484 2966 489 C 2966 475 2966 460 2966 446 C 2966 432 2966 417 2966 403 C 3024 408 3081 408 3139 408 C 3196 408 3254 408 3312 408 C 3312 422 3312 432 3312 446 M 3513 408 C 3518 412 3518 422 3513 451 C 3508 460 3504 475 3504 484 C 3475 484 3441 484 3412 484 C 3379 484 3350 484 3321 489 C 3321 475 3321 460 3321 451 C 3321 427 3321 412 3321 408 C 3326 403 3508 403 3513 408 M 3772 446 C 3772 460 3772 470 3772 484 C 3729 484 3686 484 3643 484 C 3600 484 3556 484 3518 489 C 3518 484 3518 480 3518 475 C 3518 465 3528 417 3532 412 C 3532 408 3571 408 3652 408 C 3696 408 3734 408 3772 408 C 3772 422 3772 432 3772 446 M 4008 427 C 4008 441 4003 456 3998 465 C 3998 475 3993 480 3993 484 C 3960 484 3921 484 3888 484 C 3849 484 3816 484 3782 489 C 3782 475 3782 460 3782 451 C 3782 427 3782 412 3782 408 C 3782 408 3835 408 3897 408 C 3936 408 3974 403 4012 403 C 4012 412 4008 422 4008 427 M 4200 417 C 4204 451 4233 456 4267 436 C 4272 432 4276 427 4281 427 C 4281 436 4281 446 4281 456 C 4281 465 4281 475 4281 489 C 4238 489 4190 489 4142 489 C 4099 489 4051 489 4003 489 C 4003 484 4008 480 4008 475 C 4008 470 4012 456 4017 436 C 4017 422 4022 412 4027 408 C 4027 408 4070 408 4113 408 C 4142 408 4171 403 4195 403 C 4195 408 4200 412 4200 417 M 4478 408 C 4483 412 4483 422 4478 451 C 4473 460 4473 475 4468 484 C 4440 484 4411 484 4382 484 C 4353 484 4324 484 4296 489 C 4296 475 4296 460 4296 451 C 4296 427 4296 412 4296 408 C 4300 403 4473 403 4478 408 M 4718 417 C 4718 427 4718 441 4718 460 C 4718 470 4713 480 4713 489 C 4675 489 4636 489 4598 489 C 4507 489 4483 484 4483 480 C 4483 465 4492 412 4502 412 C 4502 408 4555 408 4612 408 C 4646 408 4680 408 4713 408 C 4718 412 4718 417 4718 417 M 4795 408 C 4804 412 4809 441 4814 465 C 4814 475 4814 480 4814 489 C 4795 489 4780 489 4771 489 C 4752 489 4742 489 4728 489 C 4728 475 4728 460 4728 451 C 4728 436 4728 422 4728 412 C 4732 412 4742 408 4752 408 C 4766 408 4780 408 4780 408 C 4785 408 4795 408 4795 408 M 4953 412 C 4953 412 4953 432 4948 451 C 4944 460 4944 475 4939 489 C 4920 484 4900 484 4881 484 C 4862 484 4838 484 4819 484 C 4819 470 4819 460 4819 446 C 4819 427 4819 408 4819 408 C 4824 408 4953 408 4953 412 M 5126 408 C 5131 408 5136 408 5145 412 C 5145 422 5145 436 5145 451 C 5145 460 5145 475 5145 489 C 5112 489 5078 489 5044 489 C 4996 489 4953 484 4953 484 C 4953 475 4968 412 4972 408 C 4977 408 5107 403 5126 408 M 5280 408 C 5284 408 5294 412 5304 412 C 5299 412 5294 417 5294 422 C 5275 441 5270 456 5275 470 C 5275 475 5275 480 5280 489 C 5256 489 5236 489 5217 489 C 5164 489 5155 484 5150 480 C 5145 465 5145 417 5155 412 C 5160 403 5241 403 5280 408 M 5644 412 C 5644 412 5644 432 5640 451 C 5635 460 5635 475 5630 489 C 5587 489 5544 489 5500 489 C 5457 489 5414 489 5371 489 C 5371 475 5371 460 5371 451 C 5371 417 5371 412 5376 408 C 5390 408 5644 408 5644 412 M 100 432 C 96 446 96 460 96 470 C 91 475 91 480 91 489 C 81 489 67 489 52 489 C 38 489 24 489 14 489 C 14 475 14 460 14 446 C 14 436 14 422 14 412 C 28 412 43 412 57 412 C 76 412 91 412 105 412 C 105 417 100 427 100 432 M 177 422 C 168 436 158 451 153 480 C 153 484 144 489 139 489 C 124 489 124 470 139 441 C 153 412 153 412 172 412 C 177 412 187 412 192 412 C 187 412 182 417 177 422 M 513 427 C 513 432 518 441 523 441 C 528 441 532 446 532 460 C 532 470 532 480 532 489 C 494 489 460 489 427 489 C 388 489 355 489 321 489 C 321 480 316 475 316 470 C 316 460 307 441 302 432 C 292 422 288 417 288 412 C 321 412 360 412 398 412 C 441 412 475 412 513 412 C 513 412 513 422 513 427 M 278 460 C 302 484 297 489 264 484 C 254 484 244 484 235 484 C 235 480 235 470 230 465 C 230 456 230 446 230 441 C 235 432 264 446 278 460 M 220 456 C 225 484 225 489 196 489 C 172 489 168 480 187 460 C 201 441 216 441 220 456 M 1963 494 C 1968 494 1968 504 1968 537 C 1968 547 1968 561 1968 571 C 1881 571 1790 571 1699 571 C 1612 571 1521 571 1430 571 C 1430 561 1430 547 1430 537 C 1430 523 1430 508 1430 499 C 1464 494 1497 494 1531 494 C 1588 494 1704 494 1790 494 C 1881 494 1958 494 1963 494 M 2472 494 C 2481 494 2496 494 2510 494 C 2510 508 2510 523 2510 537 C 2510 547 2510 561 2510 571 C 2419 571 2332 571 2241 571 C 2155 571 2064 571 1977 571 C 1977 561 1977 547 1977 537 C 1977 523 1977 508 1977 499 C 1982 494 1992 494 2001 494 C 2016 494 2121 494 2232 494 C 2342 494 2452 494 2472 494 M 2961 528 C 2966 576 2990 571 2736 571 C 2664 571 2592 571 2520 571 C 2520 561 2520 547 2520 537 C 2520 523 2520 508 2520 499 C 2558 494 2601 494 2640 494 C 2707 494 2808 494 2860 494 C 2894 494 2928 494 2956 499 C 2956 508 2961 518 2961 528 M 3772 513 C 3777 523 3772 542 3772 552 C 3772 561 3772 566 3768 571 C 3696 571 3619 571 3542 571 C 3470 571 3393 571 3321 571 C 3321 561 3321 547 3321 537 C 3321 523 3321 508 3321 499 C 3350 494 3384 494 3417 494 C 3470 494 3571 494 3643 494 C 3686 499 3729 499 3772 499 C 3772 504 3772 508 3772 513 M 105 513 C 110 523 120 537 129 552 C 139 556 144 566 153 571 C 129 571 110 576 86 576 C 52 576 19 576 14 576 C 9 571 9 504 14 499 C 19 499 38 494 57 494 C 72 494 86 494 96 494 C 100 504 100 508 105 513 M 158 508 C 168 523 187 547 182 537 C 182 532 182 528 177 523 C 163 504 168 494 201 499 C 211 499 220 499 230 499 C 230 508 235 518 235 528 C 244 576 244 571 216 571 C 177 571 129 537 129 504 C 129 489 153 494 158 508 M 302 508 C 302 532 268 566 254 561 C 249 561 235 508 240 499 C 240 499 254 494 273 494 C 297 494 302 499 302 508 M 883 532 C 883 552 883 566 883 571 C 878 571 499 576 302 576 C 297 576 288 576 283 571 C 288 566 292 561 302 556 C 307 542 316 528 316 518 C 316 508 321 504 321 494 C 412 499 508 499 600 499 C 696 499 787 499 883 499 C 883 508 883 523 883 532 M 1425 532 C 1425 547 1425 561 1425 571 C 1406 576 1392 576 1377 576 C 1348 576 1228 576 1108 576 C 1036 576 964 576 888 571 C 888 561 888 547 888 532 C 888 523 888 508 888 494 C 979 494 1070 494 1156 494 C 1248 494 1334 494 1425 494 C 1425 508 1425 523 1425 532 M 3316 537 C 3316 547 3316 561 3316 571 C 3254 571 3196 571 3144 571 C 3081 571 3028 571 2966 571 C 2966 561 2966 547 2966 537 C 2966 523 2966 508 2966 494 C 3028 494 3081 494 3144 494 C 3196 494 3254 494 3316 494 C 3316 508 3316 523 3316 537 M 4281 537 C 4281 547 4281 561 4281 571 C 4200 571 4118 571 4032 571 C 3945 571 3864 571 3782 571 C 3782 561 3782 547 3782 537 C 3782 523 3782 508 3782 494 C 3864 494 3945 494 4032 494 C 4118 494 4200 494 4281 494 C 4281 508 4281 523 4281 537 M 4713 518 C 4713 523 4713 532 4713 537 C 4708 537 4699 537 4689 537 C 4665 537 4660 537 4646 556 C 4641 561 4636 566 4632 571 C 4574 571 4521 571 4464 571 C 4406 571 4348 571 4296 571 C 4296 561 4296 547 4296 537 C 4296 523 4296 508 4296 494 C 4363 494 4435 494 4507 494 C 4574 494 4646 494 4713 494 C 4713 504 4713 508 4713 518 M 4809 504 C 4809 508 4809 508 4809 504 C 4814 499 4848 494 4977 494 C 5035 494 5088 494 5145 494 C 5145 508 5145 523 5145 537 C 5145 547 5145 561 5145 571 C 5073 571 5001 571 4934 571 C 4862 571 4795 571 4728 571 C 4728 561 4728 547 4728 537 C 4728 523 4728 508 4728 494 C 4737 494 4752 494 4766 494 C 4795 494 4809 499 4809 504 M 5294 508 C 5275 528 5270 537 5275 556 C 5275 561 5275 566 5280 576 C 5256 571 5236 571 5212 571 C 5193 571 5169 571 5150 571 C 5150 561 5150 552 5150 542 C 5145 494 5140 494 5227 494 C 5251 494 5280 494 5304 494 C 5299 499 5294 504 5294 508 M 139 1060 C 139 1065 139 1070 134 1075 C 124 1080 110 1113 110 1123 C 110 1132 100 1132 67 1137 C 19 1142 19 1142 14 1108 C 9 1056 9 1056 81 1056 C 115 1056 139 1060 139 1060 M 422 1070 C 422 1080 417 1084 417 1089 C 408 1089 403 1113 412 1123 C 427 1132 422 1137 360 1137 C 278 1137 283 1137 278 1123 C 278 1113 268 1099 254 1084 C 244 1075 240 1060 240 1060 C 240 1060 278 1056 331 1056 C 360 1056 388 1056 422 1056 C 422 1060 422 1065 422 1070 M 451 1065 C 451 1070 451 1070 451 1070 C 451 1070 446 1075 441 1075 C 436 1080 436 1075 436 1070 C 436 1060 436 1056 441 1056 C 451 1056 451 1060 451 1065 M 1910 1060 C 1910 1065 1905 1070 1900 1070 C 1891 1075 1881 1104 1876 1118 C 1876 1123 1876 1128 1876 1132 C 1819 1137 1756 1137 1694 1137 C 1440 1137 1435 1137 1430 1123 C 1420 1094 1382 1089 1353 1118 C 1348 1123 1344 1128 1334 1137 C 1262 1137 1190 1137 1118 1137 C 888 1137 892 1137 888 1123 C 883 1094 844 1089 811 1118 C 806 1123 801 1132 796 1137 C 744 1137 691 1137 638 1137 C 470 1137 460 1137 465 1118 C 465 1108 470 1104 470 1104 C 475 1099 475 1089 480 1084 C 480 1075 480 1065 480 1060 C 484 1056 1910 1056 1910 1060 M 2443 1070 C 2433 1080 2414 1108 2419 1113 C 2419 1137 2433 1132 2184 1132 C 2107 1132 2025 1132 1948 1132 C 1953 1132 1953 1128 1958 1123 C 1972 1104 1977 1089 1972 1075 C 1968 1070 1968 1065 1968 1056 C 2049 1056 2126 1056 2208 1056 C 2289 1056 2371 1056 2452 1056 C 2448 1060 2443 1065 2443 1070 M 2961 1099 C 2961 1108 2961 1123 2961 1132 C 2913 1137 2870 1137 2827 1137 C 2678 1137 2496 1132 2496 1132 C 2491 1132 2496 1123 2500 1118 C 2515 1104 2515 1089 2510 1070 C 2510 1065 2510 1060 2505 1056 C 2582 1056 2659 1056 2731 1056 C 2808 1056 2884 1056 2961 1056 C 2961 1070 2961 1084 2961 1099 M 3225 1094 C 3225 1108 3225 1123 3225 1132 C 3206 1137 3187 1137 3172 1137 C 3144 1137 3086 1137 3043 1137 C 3019 1137 2995 1137 2966 1132 C 2966 1123 2966 1108 2966 1094 C 2966 1084 2966 1070 2966 1056 C 3009 1056 3052 1056 3096 1056 C 3139 1056 3182 1056 3225 1056 C 3225 1070 3225 1084 3225 1094 M 3681 1099 C 3681 1108 3681 1123 3681 1132 C 3662 1137 3638 1137 3614 1137 C 3556 1137 3456 1137 3331 1137 C 3321 1137 3321 1132 3321 1128 C 3321 1118 3302 1099 3292 1099 C 3288 1099 3288 1089 3302 1080 C 3307 1070 3312 1065 3316 1060 C 3379 1060 3436 1060 3499 1060 C 3561 1060 3624 1060 3681 1056 C 3681 1070 3681 1084 3681 1099 M 4195 1099 C 4195 1108 4195 1118 4195 1132 C 4128 1132 4056 1132 3988 1132 C 3921 1132 3849 1132 3782 1132 C 3782 1128 3777 1123 3772 1118 C 3772 1108 3763 1104 3758 1099 C 3748 1094 3748 1094 3763 1075 C 3768 1070 3772 1065 3777 1060 C 3849 1060 3916 1060 3988 1060 C 4056 1060 4128 1060 4195 1060 C 4195 1070 4195 1084 4195 1099 M 4627 1094 C 4627 1108 4627 1118 4627 1132 C 4612 1132 4598 1132 4588 1132 C 4564 1137 4483 1137 4406 1132 C 4363 1132 4315 1132 4267 1132 C 4272 1128 4276 1123 4276 1118 C 4291 1104 4296 1075 4291 1070 C 4272 1060 4296 1056 4459 1056 C 4516 1056 4574 1056 4632 1056 C 4627 1070 4627 1084 4627 1094 M 4718 1089 C 4713 1132 4713 1137 4670 1132 C 4660 1132 4646 1132 4636 1132 C 4636 1118 4636 1108 4636 1094 C 4636 1084 4636 1070 4632 1056 C 4646 1056 4665 1056 4680 1056 C 4694 1056 4708 1056 4723 1056 C 4723 1070 4718 1080 4718 1089 M 5136 1099 C 5136 1108 5136 1123 5136 1132 C 5068 1132 5001 1132 4934 1132 C 4862 1132 4795 1132 4728 1132 C 4728 1123 4728 1108 4728 1099 C 4728 1084 4728 1070 4728 1056 C 4795 1056 4862 1056 4934 1056 C 5001 1056 5068 1056 5136 1056 C 5136 1070 5136 1084 5136 1099 M 5270 1099 C 5270 1108 5270 1118 5270 1132 C 5251 1132 5227 1132 5208 1132 C 5188 1132 5169 1132 5150 1137 C 5150 1123 5150 1108 5150 1099 C 5150 1084 5150 1070 5150 1056 C 5169 1060 5188 1060 5208 1060 C 5227 1060 5251 1060 5270 1060 C 5270 1070 5270 1084 5270 1099 M 211 1084 C 225 1094 235 1128 230 1132 C 225 1137 187 1137 182 1128 C 177 1123 168 1118 158 1113 C 139 1108 134 1099 139 1089 C 153 1065 192 1065 211 1084 M 3254 1104 C 3254 1104 3254 1108 3244 1113 C 3235 1118 3235 1118 3230 1108 C 3230 1104 3230 1099 3230 1099 C 3235 1094 3249 1094 3254 1104 M 3710 1099 C 3710 1104 3710 1108 3700 1113 C 3696 1123 3696 1123 3696 1108 C 3696 1094 3696 1094 3700 1094 C 3710 1094 3710 1099 3710 1099 M 451 1123 C 451 1132 451 1132 441 1132 C 427 1132 432 1113 451 1113 C 451 1113 451 1118 451 1123 M 115 1156 C 124 1166 129 1166 148 1166 C 168 1166 172 1166 177 1156 C 182 1147 192 1147 206 1147 C 216 1147 220 1147 230 1147 C 230 1152 225 1161 225 1171 C 225 1185 220 1200 220 1209 C 216 1214 216 1219 216 1224 C 182 1224 148 1224 115 1224 C 81 1224 52 1224 19 1224 C 19 1214 14 1209 14 1200 C 14 1190 14 1171 14 1161 C 14 1156 19 1152 19 1147 C 33 1147 48 1147 62 1147 C 100 1147 105 1147 115 1156 M 417 1161 C 417 1171 417 1180 412 1185 C 408 1190 403 1200 403 1209 C 403 1214 403 1219 403 1224 C 379 1224 355 1224 331 1224 C 288 1224 249 1219 249 1219 C 249 1219 259 1209 264 1200 C 268 1190 278 1176 278 1171 C 278 1161 283 1152 283 1152 C 283 1147 302 1147 350 1147 C 374 1147 398 1147 422 1147 C 422 1152 417 1156 417 1161 M 446 1147 C 456 1152 456 1156 451 1161 C 441 1176 436 1176 436 1161 C 436 1142 436 1142 446 1147 M 561 1171 C 566 1190 561 1200 556 1200 C 542 1209 537 1204 537 1176 C 537 1161 537 1156 532 1156 C 532 1156 532 1171 532 1185 C 532 1219 528 1219 489 1219 C 465 1224 456 1214 470 1200 C 480 1190 480 1161 470 1161 C 470 1161 465 1156 465 1152 C 465 1147 475 1142 513 1147 C 532 1147 547 1147 561 1147 C 561 1156 561 1161 561 1171 M 792 1185 C 792 1195 792 1209 796 1224 C 758 1224 724 1224 691 1224 C 657 1224 624 1224 585 1224 C 585 1214 585 1209 585 1209 C 585 1195 585 1195 580 1195 C 571 1195 571 1156 576 1147 C 580 1147 628 1147 686 1147 C 720 1147 758 1147 792 1147 C 792 1161 792 1171 792 1185 M 1334 1185 C 1334 1195 1334 1209 1339 1224 C 1305 1224 1272 1224 1243 1224 C 1209 1224 1180 1224 1147 1224 C 1147 1214 1152 1209 1152 1209 C 1152 1200 1156 1185 1156 1176 C 1156 1171 1156 1166 1161 1161 C 1156 1166 1152 1176 1142 1180 C 1128 1200 1118 1204 1118 1185 C 1123 1161 1089 1147 1075 1171 C 1065 1195 1084 1209 1113 1204 C 1137 1204 1142 1204 1137 1209 C 1137 1224 888 1224 888 1214 C 888 1209 883 1200 873 1190 C 868 1185 864 1185 859 1180 C 864 1171 873 1166 878 1161 C 883 1156 888 1152 892 1142 C 964 1147 1041 1147 1113 1147 C 1185 1147 1262 1147 1334 1147 C 1334 1161 1334 1171 1334 1185 M 1876 1180 C 1876 1195 1876 1209 1876 1224 C 1848 1224 1814 1224 1785 1224 C 1752 1224 1718 1224 1689 1224 C 1689 1209 1694 1204 1694 1195 C 1699 1161 1699 1156 1684 1176 C 1670 1200 1660 1204 1656 1180 C 1656 1152 1612 1152 1612 1180 C 1612 1200 1632 1209 1660 1204 C 1680 1204 1684 1204 1680 1209 C 1680 1219 1665 1219 1555 1219 C 1512 1219 1473 1219 1430 1219 C 1430 1214 1430 1209 1430 1209 C 1425 1200 1420 1195 1416 1190 C 1411 1185 1406 1185 1401 1180 C 1406 1176 1411 1171 1416 1161 C 1420 1156 1425 1152 1430 1147 C 1507 1147 1579 1147 1656 1147 C 1728 1147 1804 1147 1876 1147 C 1876 1156 1876 1171 1876 1180 M 2419 1152 C 2419 1161 2419 1185 2419 1214 C 2419 1219 2395 1224 2323 1224 C 2294 1224 2265 1224 2232 1224 C 2232 1219 2236 1214 2236 1209 C 2236 1200 2241 1185 2241 1176 C 2241 1171 2246 1161 2246 1156 C 2241 1161 2236 1171 2232 1176 C 2212 1200 2198 1204 2203 1190 C 2212 1166 2174 1147 2164 1166 C 2150 1190 2174 1209 2208 1204 C 2227 1204 2227 1204 2227 1214 C 2222 1219 2217 1224 2088 1224 C 1968 1224 1934 1219 1958 1209 C 1968 1204 1977 1171 1972 1161 C 1968 1156 1963 1147 1963 1147 C 1963 1147 2068 1147 2188 1147 C 2400 1147 2414 1147 2419 1152 M 2961 1180 C 2961 1195 2961 1209 2961 1224 C 2928 1224 2899 1224 2865 1224 C 2832 1224 2803 1224 2769 1224 C 2774 1219 2774 1214 2774 1209 C 2774 1200 2779 1190 2784 1180 C 2788 1161 2784 1156 2774 1171 C 2760 1190 2750 1195 2745 1195 C 2740 1195 2740 1195 2740 1190 C 2755 1166 2731 1147 2712 1161 C 2683 1180 2707 1209 2745 1204 C 2755 1204 2764 1204 2764 1204 C 2764 1219 2764 1224 2625 1224 C 2505 1224 2481 1219 2496 1209 C 2510 1204 2515 1176 2510 1161 C 2510 1156 2510 1147 2510 1147 C 2510 1147 2611 1147 2736 1147 C 2808 1147 2884 1147 2961 1147 C 2961 1156 2961 1171 2961 1180 M 3225 1180 C 3225 1195 3225 1209 3225 1224 C 3182 1224 3139 1224 3096 1224 C 3000 1224 2966 1219 2966 1214 C 2966 1204 2966 1190 2966 1166 C 2966 1161 2966 1152 2966 1147 C 3009 1147 3052 1147 3096 1147 C 3139 1147 3182 1147 3225 1147 C 3225 1156 3225 1171 3225 1180 M 3681 1180 C 3681 1195 3681 1209 3681 1224 C 3657 1224 3633 1224 3609 1224 C 3528 1224 3528 1224 3537 1180 C 3542 1161 3537 1156 3532 1171 C 3518 1200 3504 1204 3504 1185 C 3504 1166 3499 1161 3484 1161 C 3460 1161 3451 1185 3465 1200 C 3475 1204 3484 1209 3499 1204 C 3513 1204 3523 1204 3523 1204 C 3523 1219 3518 1224 3374 1219 C 3326 1219 3278 1219 3230 1219 C 3230 1214 3230 1209 3230 1200 C 3230 1190 3230 1180 3230 1180 C 3230 1180 3240 1180 3244 1185 C 3264 1190 3288 1180 3307 1161 C 3312 1156 3316 1152 3321 1147 C 3379 1147 3441 1147 3504 1147 C 3561 1147 3624 1147 3681 1147 C 3681 1156 3681 1171 3681 1180 M 4195 1180 C 4195 1195 4195 1204 4195 1219 C 4166 1219 4137 1219 4108 1219 C 4080 1219 4051 1219 4022 1224 C 4027 1219 4027 1214 4027 1209 C 4027 1200 4032 1185 4032 1176 C 4032 1171 4032 1166 4036 1161 C 4032 1166 4022 1176 4017 1180 C 4003 1200 3993 1204 3993 1185 C 3998 1161 3964 1147 3955 1166 C 3940 1190 3964 1209 3998 1204 C 4012 1204 4017 1204 4012 1209 C 4012 1219 3998 1219 3849 1219 C 3796 1219 3744 1219 3686 1219 C 3686 1214 3686 1209 3686 1204 C 3686 1180 3691 1176 3705 1180 C 3724 1190 3753 1180 3763 1161 C 3768 1156 3772 1152 3777 1147 C 3844 1147 3916 1147 3988 1147 C 4056 1147 4128 1147 4200 1147 C 4195 1156 4195 1171 4195 1180 M 4627 1147 C 4627 1152 4627 1171 4627 1190 C 4627 1200 4622 1209 4622 1224 C 4603 1224 4584 1224 4560 1224 C 4540 1224 4521 1224 4497 1224 C 4497 1214 4502 1209 4502 1204 C 4502 1195 4507 1180 4507 1176 C 4507 1166 4507 1161 4512 1156 C 4507 1161 4502 1166 4502 1166 C 4483 1195 4459 1209 4468 1190 C 4473 1176 4464 1156 4444 1161 C 4425 1161 4420 1176 4430 1190 C 4435 1204 4440 1204 4464 1204 C 4488 1204 4497 1209 4488 1219 C 4483 1224 4444 1224 4392 1224 C 4358 1224 4329 1224 4300 1219 C 4296 1214 4296 1209 4296 1200 C 4291 1176 4286 1176 4286 1200 C 4286 1209 4291 1214 4291 1224 C 4276 1224 4262 1224 4248 1224 C 4233 1224 4219 1224 4200 1224 C 4200 1209 4200 1200 4200 1185 C 4200 1166 4204 1152 4204 1147 C 4209 1142 4622 1142 4627 1147 M 4694 1152 C 4689 1161 4646 1190 4641 1185 C 4636 1185 4632 1161 4636 1152 C 4636 1147 4646 1147 4665 1147 C 4689 1147 4694 1147 4694 1152 M 5136 1180 C 5136 1195 5136 1209 5136 1224 C 5112 1224 5083 1224 5054 1224 C 5025 1224 4996 1224 4968 1224 C 4968 1219 4972 1214 4972 1209 C 4972 1200 4977 1185 4977 1176 C 4977 1171 4977 1161 4982 1156 C 4977 1161 4972 1166 4972 1166 C 4948 1200 4934 1204 4939 1185 C 4944 1161 4920 1147 4900 1166 C 4881 1185 4900 1209 4939 1204 C 4958 1204 4968 1209 4958 1219 C 4953 1224 4670 1224 4670 1219 C 4670 1219 4675 1204 4689 1190 C 4699 1176 4713 1161 4713 1156 C 4723 1147 4728 1147 4929 1147 C 5001 1147 5068 1147 5136 1147 C 5136 1156 5136 1171 5136 1180 M 5270 1166 C 5270 1180 5270 1195 5270 1204 C 5270 1209 5270 1214 5265 1224 C 5246 1224 5227 1224 5208 1224 C 5188 1224 5169 1224 5150 1224 C 5150 1209 5150 1195 5150 1180 C 5150 1171 5150 1156 5150 1142 C 5169 1147 5188 1147 5208 1147 C 5227 1147 5251 1147 5270 1147 C 5270 1152 5270 1161 5270 1166 M 825 1190 C 825 1195 806 1209 801 1209 C 796 1209 796 1185 801 1180 C 806 1180 825 1185 825 1190 M 1358 1200 C 1344 1209 1339 1209 1339 1195 C 1339 1180 1344 1180 1353 1185 C 1363 1190 1363 1190 1358 1200 M 201 1238 C 192 1252 158 1281 134 1296 C 110 1310 110 1315 62 1315 C 48 1315 33 1315 19 1315 C 14 1305 14 1300 14 1296 C 14 1281 14 1243 14 1233 C 14 1233 57 1228 110 1228 C 196 1228 206 1233 201 1238 M 422 1248 C 422 1262 422 1272 422 1272 C 427 1272 427 1267 427 1262 C 427 1238 432 1228 446 1228 C 451 1228 451 1233 451 1243 C 451 1257 460 1262 465 1248 C 465 1228 513 1224 513 1243 C 513 1252 518 1257 523 1257 C 528 1257 532 1262 528 1281 C 528 1291 528 1300 528 1310 C 465 1310 398 1310 336 1310 C 211 1310 148 1310 148 1310 C 148 1305 153 1296 163 1291 C 172 1286 196 1267 211 1257 C 220 1248 230 1238 240 1233 C 268 1233 302 1233 331 1233 C 360 1233 388 1233 422 1228 C 422 1238 422 1243 422 1248 M 792 1272 C 792 1286 792 1296 792 1310 C 758 1310 724 1310 691 1310 C 657 1310 624 1310 585 1315 C 585 1310 585 1305 585 1300 C 585 1291 585 1286 580 1286 C 571 1286 571 1243 576 1233 C 580 1233 628 1233 686 1233 C 720 1233 758 1233 792 1233 C 792 1248 792 1257 792 1272 M 1132 1238 C 1132 1243 1128 1252 1128 1262 C 1128 1272 1123 1286 1118 1296 C 1118 1300 1118 1305 1113 1315 C 1065 1310 1012 1310 960 1310 C 907 1310 854 1310 801 1310 C 801 1305 801 1300 801 1296 C 796 1272 801 1262 811 1272 C 830 1281 854 1272 873 1248 C 878 1243 888 1238 892 1228 C 931 1228 974 1228 1012 1228 C 1128 1228 1137 1233 1132 1238 M 1334 1243 C 1339 1257 1339 1296 1334 1305 C 1329 1310 1320 1315 1228 1315 C 1118 1315 1128 1320 1137 1262 C 1142 1252 1142 1243 1147 1228 C 1176 1228 1209 1228 1238 1228 C 1329 1228 1329 1233 1334 1243 M 1670 1252 C 1670 1267 1665 1281 1660 1291 C 1660 1300 1656 1305 1656 1310 C 1603 1310 1550 1310 1497 1310 C 1449 1310 1396 1310 1344 1310 C 1344 1305 1344 1296 1344 1291 C 1344 1286 1339 1276 1339 1272 C 1348 1272 1358 1272 1363 1272 C 1396 1272 1406 1267 1406 1262 C 1406 1262 1411 1252 1420 1243 C 1420 1238 1425 1233 1430 1228 C 1468 1228 1512 1228 1550 1228 C 1593 1228 1632 1228 1675 1228 C 1670 1238 1670 1248 1670 1252 M 1876 1272 C 1876 1286 1876 1300 1876 1315 C 1843 1315 1809 1315 1776 1315 C 1718 1315 1670 1310 1670 1310 C 1670 1305 1680 1248 1684 1238 C 1684 1233 1708 1228 1780 1228 C 1814 1228 1848 1228 1876 1228 C 1876 1243 1876 1257 1876 1272 M 2217 1238 C 2217 1243 2212 1252 2212 1262 C 2212 1272 2208 1286 2203 1296 C 2203 1300 2203 1305 2198 1315 C 2164 1310 2126 1310 2092 1310 C 1987 1310 1982 1310 1982 1300 C 1977 1281 1972 1276 1972 1291 C 1968 1300 1968 1305 1968 1310 C 1953 1310 1939 1310 1924 1310 C 1915 1310 1900 1310 1886 1310 C 1886 1300 1886 1286 1886 1276 C 1886 1257 1886 1243 1886 1238 C 1891 1228 2222 1228 2217 1238 M 2419 1272 C 2419 1286 2419 1296 2419 1310 C 2385 1310 2352 1310 2318 1310 C 2265 1310 2222 1310 2217 1310 C 2212 1305 2222 1257 2227 1238 C 2227 1233 2251 1233 2323 1233 C 2356 1233 2385 1233 2419 1233 C 2419 1248 2419 1257 2419 1272 M 2755 1252 C 2755 1267 2750 1281 2745 1291 C 2745 1300 2740 1305 2740 1310 C 2702 1310 2668 1310 2630 1310 C 2596 1310 2558 1310 2524 1315 C 2520 1310 2520 1305 2520 1300 C 2510 1267 2510 1262 2510 1286 C 2510 1296 2510 1300 2510 1310 C 2496 1310 2481 1310 2472 1310 C 2457 1310 2443 1310 2428 1310 C 2428 1296 2428 1286 2428 1272 C 2428 1257 2428 1243 2424 1233 C 2481 1233 2539 1233 2592 1233 C 2649 1233 2702 1228 2760 1228 C 2760 1238 2755 1248 2755 1252 M 2961 1272 C 2961 1286 2961 1300 2961 1315 C 2928 1315 2894 1315 2860 1315 C 2788 1315 2760 1310 2755 1305 C 2755 1300 2764 1252 2769 1238 C 2769 1233 2788 1228 2865 1228 C 2894 1228 2928 1228 2961 1228 C 2961 1243 2961 1257 2961 1272 M 3225 1272 C 3225 1286 3225 1300 3225 1315 C 3182 1315 3139 1315 3096 1315 C 3052 1315 3009 1315 2971 1315 C 2971 1305 2966 1296 2966 1286 C 2966 1272 2966 1257 2966 1248 C 2966 1243 2971 1238 2971 1228 C 3009 1228 3052 1228 3096 1228 C 3139 1228 3182 1228 3225 1228 C 3225 1243 3225 1257 3225 1272 M 3316 1252 C 3316 1262 3312 1281 3307 1291 C 3302 1300 3302 1305 3297 1315 C 3288 1315 3278 1315 3264 1315 C 3235 1315 3235 1310 3230 1300 C 3230 1296 3230 1238 3230 1233 C 3230 1233 3249 1228 3273 1228 C 3288 1228 3302 1228 3316 1228 C 3316 1238 3316 1243 3316 1252 M 3518 1238 C 3518 1243 3518 1248 3523 1248 C 3523 1248 3523 1248 3523 1243 C 3523 1233 3528 1228 3604 1228 C 3633 1228 3657 1228 3686 1228 C 3681 1243 3681 1257 3681 1272 C 3681 1286 3681 1296 3681 1310 C 3652 1310 3624 1310 3595 1310 C 3504 1310 3508 1315 3518 1272 C 3523 1243 3513 1252 3504 1281 C 3504 1291 3499 1300 3499 1310 C 3470 1310 3441 1310 3412 1310 C 3384 1310 3350 1310 3321 1310 C 3321 1296 3321 1286 3321 1272 C 3321 1257 3321 1243 3321 1228 C 3355 1228 3388 1228 3422 1228 C 3508 1228 3523 1233 3518 1238 M 3772 1262 C 3768 1305 3763 1315 3724 1310 C 3710 1310 3700 1310 3691 1310 C 3691 1300 3691 1286 3691 1276 C 3686 1228 3686 1228 3734 1228 C 3748 1228 3763 1228 3777 1228 C 3777 1243 3772 1252 3772 1262 M 4012 1233 C 4012 1243 3993 1300 3988 1305 C 3984 1310 3960 1310 3883 1310 C 3849 1310 3816 1310 3782 1310 C 3782 1296 3782 1286 3782 1272 C 3782 1257 3782 1243 3782 1228 C 3820 1228 3859 1228 3897 1228 C 3960 1228 4012 1233 4012 1233 M 4195 1262 C 4200 1315 4204 1315 4104 1315 C 4046 1315 4008 1310 4008 1305 C 4003 1300 4012 1252 4022 1238 C 4027 1233 4032 1228 4108 1233 C 4137 1233 4166 1233 4195 1233 C 4195 1243 4195 1252 4195 1262 M 4281 1238 C 4281 1262 4252 1300 4228 1305 C 4204 1315 4204 1310 4204 1267 C 4204 1252 4204 1243 4200 1228 C 4214 1228 4228 1228 4243 1228 C 4267 1228 4281 1233 4281 1238 M 4478 1252 C 4478 1262 4473 1281 4468 1291 C 4468 1296 4464 1305 4464 1310 C 4435 1310 4401 1310 4372 1310 C 4262 1315 4267 1315 4281 1286 C 4286 1276 4296 1257 4296 1248 C 4296 1243 4296 1238 4300 1228 C 4329 1228 4358 1228 4392 1228 C 4420 1228 4449 1228 4483 1228 C 4483 1238 4478 1243 4478 1252 M 4622 1248 C 4622 1262 4627 1272 4632 1272 C 4632 1272 4636 1272 4636 1267 C 4636 1262 4636 1252 4641 1243 C 4646 1238 4646 1233 4651 1228 C 4699 1228 4747 1228 4800 1228 C 4881 1228 4948 1233 4953 1233 C 4953 1233 4953 1248 4948 1262 C 4944 1276 4939 1291 4939 1300 C 4939 1305 4939 1310 4934 1315 C 4862 1315 4790 1315 4713 1315 C 4593 1315 4488 1310 4483 1310 C 4478 1305 4483 1272 4492 1238 C 4492 1233 4512 1228 4560 1228 C 4579 1228 4603 1228 4622 1228 C 4622 1238 4622 1243 4622 1248 M 5136 1272 C 5136 1286 5136 1300 5136 1315 C 5107 1315 5073 1315 5044 1315 C 5011 1315 4982 1315 4948 1315 C 4948 1305 4953 1296 4953 1291 C 4953 1276 4958 1257 4963 1248 C 4963 1243 4963 1238 4968 1228 C 4996 1228 5025 1228 5054 1228 C 5083 1228 5107 1228 5136 1228 C 5136 1243 5136 1257 5136 1272 M 5265 1272 C 5265 1286 5265 1300 5265 1310 C 5246 1310 5227 1310 5208 1310 C 5188 1310 5169 1315 5150 1315 C 5150 1300 5150 1286 5150 1272 C 5150 1257 5150 1243 5150 1228 C 5169 1228 5188 1228 5208 1228 C 5227 1228 5246 1228 5265 1228 C 5265 1243 5265 1257 5265 1272 M 5644 1238 C 5644 1252 5630 1300 5625 1305 C 5620 1310 5587 1310 5452 1310 C 5395 1310 5337 1310 5280 1310 C 5280 1305 5280 1296 5280 1291 C 5280 1281 5275 1276 5275 1267 C 5284 1272 5289 1272 5294 1272 C 5318 1276 5342 1267 5352 1248 C 5356 1243 5361 1238 5366 1228 C 5409 1228 5457 1228 5505 1228 C 5635 1228 5644 1233 5644 1238 M 561 1267 C 561 1291 556 1305 547 1305 C 537 1305 537 1252 547 1248 C 556 1233 561 1238 561 1267 M 513 1320 C 518 1329 576 1329 580 1324 C 590 1320 720 1315 763 1320 C 782 1324 801 1324 801 1324 C 806 1320 873 1320 883 1324 C 888 1324 883 1363 878 1387 C 873 1401 868 1401 830 1401 C 806 1396 614 1396 403 1396 C 192 1396 19 1396 14 1396 C 9 1392 9 1344 19 1329 C 19 1320 19 1320 264 1320 C 412 1315 508 1320 513 1320 M 1334 1329 C 1334 1334 1334 1353 1334 1368 C 1334 1377 1334 1387 1334 1396 C 1262 1396 1185 1396 1113 1396 C 1041 1396 964 1396 892 1401 C 892 1387 892 1372 892 1358 C 892 1339 892 1320 892 1320 C 892 1320 993 1320 1113 1320 C 1185 1320 1257 1320 1329 1320 C 1334 1320 1334 1324 1334 1329 M 1420 1320 C 1430 1324 1430 1344 1420 1377 C 1416 1382 1416 1392 1411 1396 C 1401 1396 1387 1396 1377 1396 C 1363 1396 1353 1396 1339 1396 C 1339 1387 1339 1372 1339 1363 C 1339 1329 1344 1324 1348 1320 C 1358 1320 1406 1320 1420 1320 M 1872 1320 C 1876 1324 1876 1329 1876 1363 C 1876 1372 1876 1387 1876 1396 C 1804 1396 1732 1396 1656 1396 C 1584 1396 1507 1396 1430 1396 C 1430 1387 1430 1372 1430 1358 C 1430 1344 1430 1329 1430 1320 C 1502 1320 1574 1320 1646 1320 C 1766 1320 1867 1320 1872 1320 M 1963 1324 C 1963 1329 1963 1339 1958 1353 C 1939 1392 1896 1416 1886 1387 C 1881 1368 1881 1329 1891 1324 C 1900 1315 1958 1315 1963 1324 M 2419 1329 C 2419 1334 2419 1353 2419 1368 C 2419 1377 2414 1387 2414 1396 C 2337 1396 2260 1396 2184 1396 C 2059 1396 1958 1396 1958 1396 C 1958 1396 1958 1387 1963 1377 C 1968 1368 1977 1348 1977 1339 C 1977 1334 1982 1324 1982 1320 C 1982 1320 2083 1320 2198 1320 C 2270 1320 2342 1320 2414 1320 C 2414 1320 2419 1324 2419 1329 M 2505 1324 C 2505 1353 2462 1401 2443 1396 C 2428 1396 2428 1396 2428 1363 C 2428 1344 2428 1329 2428 1324 C 2433 1315 2510 1315 2505 1324 M 2961 1358 C 2961 1372 2961 1387 2961 1396 C 2880 1396 2803 1396 2726 1396 C 2596 1396 2496 1396 2496 1396 C 2496 1396 2500 1387 2505 1372 C 2510 1363 2520 1344 2520 1334 C 2520 1329 2520 1324 2524 1320 C 2596 1320 2668 1320 2740 1320 C 2812 1320 2884 1320 2961 1320 C 2961 1329 2961 1344 2961 1358 M 3216 1320 C 3220 1324 3225 1334 3220 1363 C 3220 1372 3220 1387 3220 1396 C 3177 1396 3139 1396 3096 1396 C 3052 1396 3009 1396 2971 1401 C 2966 1392 2966 1387 2966 1382 C 2966 1372 2966 1329 2966 1320 C 2971 1315 3211 1320 3216 1320 M 3288 1320 C 3292 1329 3240 1372 3235 1363 C 3230 1358 3230 1324 3230 1320 C 3235 1315 3283 1315 3288 1320 M 3681 1324 C 3681 1324 3681 1344 3681 1363 C 3681 1377 3681 1387 3676 1396 C 3609 1396 3537 1396 3470 1396 C 3355 1396 3259 1396 3259 1396 C 3259 1392 3268 1382 3278 1372 C 3283 1368 3297 1348 3307 1339 C 3312 1329 3316 1324 3321 1320 C 3379 1320 3441 1320 3499 1320 C 3619 1320 3681 1320 3681 1324 M 3748 1320 C 3753 1329 3700 1368 3696 1363 C 3691 1363 3686 1353 3686 1339 C 3686 1334 3686 1329 3686 1324 C 3696 1320 3705 1320 3715 1320 C 3729 1320 3739 1320 3744 1320 C 3744 1320 3748 1320 3748 1320 M 4190 1358 C 4190 1372 4190 1387 4195 1396 C 4113 1396 4036 1396 3960 1396 C 3816 1396 3724 1396 3724 1396 C 3724 1392 3724 1387 3729 1382 C 3744 1368 3768 1334 3768 1329 C 3768 1320 3782 1320 3988 1320 C 4056 1320 4123 1320 4190 1320 C 4190 1334 4190 1348 4190 1358 M 5126 1320 C 5136 1324 5136 1324 5136 1363 C 5136 1372 5136 1387 5136 1396 C 4982 1396 4828 1396 4675 1396 C 4224 1396 4209 1396 4209 1392 C 4209 1377 4228 1348 4248 1329 C 4252 1324 4262 1320 4267 1320 C 4406 1320 4550 1320 4689 1320 C 4924 1320 5121 1320 5126 1320 M 5265 1358 C 5265 1372 5265 1387 5265 1401 C 5246 1396 5227 1396 5208 1396 C 5188 1396 5169 1396 5150 1396 C 5150 1387 5150 1372 5150 1363 C 5145 1315 5145 1315 5212 1320 C 5232 1320 5246 1320 5265 1320 C 5265 1334 5265 1348 5265 1358 M 5352 1320 C 5366 1324 5366 1324 5361 1348 C 5356 1396 5352 1396 5313 1396 C 5299 1396 5289 1396 5280 1396 C 5280 1387 5280 1372 5280 1363 C 5280 1339 5280 1324 5280 1320 C 5284 1315 5337 1315 5352 1320 M 859 1416 C 849 1430 820 1454 806 1454 C 801 1454 801 1449 801 1430 C 801 1425 801 1416 801 1411 C 811 1411 820 1411 830 1411 C 859 1411 864 1411 859 1416 M 1382 1430 C 1353 1459 1339 1459 1339 1430 C 1339 1425 1339 1416 1339 1411 C 1353 1411 1363 1411 1372 1411 C 1382 1411 1396 1411 1406 1411 C 1396 1416 1392 1425 1382 1430 M 5332 1416 C 5332 1420 5294 1454 5284 1454 C 5280 1454 5280 1444 5280 1430 C 5280 1425 5280 1416 5280 1411 C 5289 1411 5299 1411 5308 1411 C 5328 1411 5337 1411 5332 1416 M 302 1089 C 292 1094 292 1113 302 1118 C 312 1128 321 1123 331 1113 C 345 1094 316 1070 302 1089 z" fill="black" /><!-- width=5779 height=1516 -->
<path id="gl8192" d="M 33 28 C 19 33 9 38 0 43 C 0 163 4 283 4 403 C 4 600 9 878 9 1017 C 9 1104 9 1185 9 1272 C 19 1276 28 1281 38 1286 C 72 1300 81 1300 57 1281 C 52 1281 43 1276 38 1272 C 38 1065 38 864 38 657 C 38 451 38 244 33 43 C 43 38 48 33 52 28 C 86 4 76 4 33 28 z" fill="black" /><!-- width=100 height=1320 -->
<path id="gl8193" d="M 104 27 C 99 28 95 30 91 32 C 85 36 86 36 78 33 C 71 31 70 31 68 32 C 66 33 66 34 69 37 C 73 42 72 45 64 61 C 63 64 61 69 61 73 C 60 76 58 81 57 84 C 55 85 54 90 52 94 C 51 98 49 103 48 105 C 47 108 46 111 45 113 C 45 115 44 118 43 120 C 42 122 40 126 40 128 C 39 130 38 133 37 134 C 37 135 36 138 35 141 C 34 144 32 148 31 151 C 30 153 28 158 27 161 C 25 168 23 170 19 172 C 13 177 13 178 13 179 C 13 181 18 183 25 182 C 28 182 36 182 41 183 C 58 184 61 181 55 173 C 53 170 53 166 55 161 C 55 159 57 154 58 152 C 59 150 60 145 61 142 C 63 139 64 135 64 133 C 65 129 67 124 69 121 C 72 117 74 117 79 122 C 88 131 100 131 112 123 C 114 122 115 121 117 120 C 124 117 139 97 141 88 C 141 86 142 82 143 81 C 145 73 145 70 145 63 C 146 52 144 42 140 37 C 132 25 120 21 104 27 M 121 39 C 126 44 126 53 121 68 C 121 71 120 75 119 76 C 119 78 118 80 117 82 C 116 84 114 87 114 88 C 111 93 103 102 99 105 C 89 112 82 108 82 95 C 82 84 83 78 90 64 C 98 45 115 31 121 39 z" fill="black" /><!-- width=167 height=195 -->
<path id="gl6684" d="M 30 13 C 19 16 12 24 13 33 C 14 40 20 48 27 50 C 30 51 38 51 42 50 C 60 46 63 25 47 16 C 40 13 36 12 30 13 z" fill="black" /><!-- width=71 height=64 -->
</defs>
<use xlink:href="#gl7706" x="571" y="1325" />
<use xlink:href="#gl7707" x="619" y="1325" />
<use xlink:href="#gl7708" x="850" y="1325" />
<use xlink:href="#gl7936" x="63" y="0" />
<use xlink:href="#gl8192" x="0" y="173" />
<use xlink:href="#gl8193" x="538" y="714" />
<use xlink:href="#gl6684" x="342" y="1147" />
</svg>