<?xml version="1.0" standalone="no"?>
<!DOCTYPE svg PUBLIC "-//W3C/DTD SVG 1.1//EN" "http://www.w3.org/Graphics/SVG/1.1/DTD/svg11.dtd">
<svg width="583px" height="175px" viewBox="0 0 5832 1752" xmlns="http://www.w3.org/2000/svg" xmlns:xlink="http://www.w3.org/1999/xlink" version="1.1">
<defs>
<path id="gl18705" d="M 40 7 C 31 7 30 12 37 15 C 42 18 42 18 42 55 C 42 81 42 81 37 84 C 34 87 33 88 33 90 C 33 94 33 94 67 94 C 103 94 102 95 105 84 C 106 75 106 64 105 63 C 100 58 94 60 92 69 C 89 82 83 86 66 85 C 58 85 58 86 58 50 C 58 40 58 30 58 21 C 58 20 59 19 60 18 C 60 17 62 16 63 15 C 70 12 70 8 64 7 C 60 6 44 6 40 7 z" fill="black" /><!-- width=120 height=115 -->
<path id="gl24838" d="M 25 9 C 14 15 12 18 13 23 C 14 25 18 30 19 30 C 21 30 22 32 22 34 C 22 34 20 36 18 38 C 12 42 12 42 12 51 C 11 61 12 63 18 65 C 25 68 34 68 42 64 C 47 61 48 61 52 64 C 57 67 62 67 66 66 C 68 65 68 64 69 62 C 69 58 68 57 64 54 C 59 49 58 48 59 40 C 61 26 59 15 54 12 C 49 7 31 6 25 9 M 42 18 C 45 19 46 24 45 26 C 44 28 39 31 34 32 C 28 32 26 30 28 23 C 30 17 36 15 42 18 M 45 39 C 46 40 46 47 45 50 C 40 58 27 58 25 51 C 25 48 30 41 33 41 C 34 41 35 40 36 39 C 39 37 42 37 45 39 z" fill="black" /><!-- width=76 height=78 -->
<path id="gl18705" d="M 40 7 C 31 7 30 12 37 15 C 42 18 42 18 42 55 C 42 81 42 81 37 84 C 34 87 33 88 33 90 C 33 94 33 94 67 94 C 103 94 102 95 105 84 C 106 75 106 64 105 63 C 100 58 94 60 92 69 C 89 82 83 86 66 85 C 58 85 58 86 58 50 C 58 40 58 30 58 21 C 58 20 59 19 60 18 C 60 17 62 16 63 15 C 70 12 70 8 64 7 C 60 6 44 6 40 7 z" fill="black" /><!-- width=120 height=115 -->
<path id="gl24838" d="M 25 9 C 14 15 12 18 13 23 C 14 25 18 30 19 30 C 21 30 22 32 22 34 C 22 34 20 36 18 38 C 12 42 12 42 12 51 C 11 61 12 63 18 65 C 25 68 34 68 42 64 C 47 61 48 61 52 64 C 57 67 62 67 66 66 C 68 65 68 64 69 62 C 69 58 68 57 64 54 C 59 49 58 48 59 40 C 61 26 59 15 54 12 C 49 7 31 6 25 9 M 42 18 C 45 19 46 24 45 26 C 44 28 39 31 34 32 C 28 32 26 30 28 23 C 30 17 36 15 42 18 M 45 39 C 46 40 46 47 45 50 C 40 58 27 58 25 51 C 25 48 30 41 33 41 C 34 41 35 40 36 39 C 39 37 42 37 45 39 z" fill="black" /><!-- width=76 height=78 -->
<path id="gl1565" d="M 18 13 C 13 18 13 27 18 28 C 24 30 29 27 30 21 C 31 16 31 16 25 13 C 21 11 21 11 18 13 z" fill="black" /><!-- width=45 height=42 -->
<path id="gl24839" d="M 67 9 C 38 14 33 19 28 28 C 19 43 19 52 24 52 C 28 52 33 43 33 33 C 43 24 52 14 48 28 C 48 28 38 52 33 72 C 24 96 14 115 9 115 C 0 120 4 124 24 124 C 48 124 57 120 48 115 C 43 115 43 105 48 96 C 52 76 52 76 62 86 C 76 96 110 62 110 38 C 115 9 100 4 67 9 M 91 38 C 86 52 76 67 67 67 C 62 67 67 43 76 28 C 86 14 96 19 91 38 z" fill="black" /><!-- width=120 height=139 -->
<path id="gl24840" d="M 9 9 C 0 14 0 24 9 28 C 24 38 33 33 33 19 C 33 4 24 0 9 9 M 19 129 C 9 139 14 153 28 153 C 38 153 43 139 33 129 C 28 120 24 120 19 129 z" fill="black" /><!-- width=48 height=163 -->
<path id="gl24841" d="M 14 14 C 0 19 0 24 4 33 C 19 67 28 62 28 33 C 28 14 24 4 24 4 C 24 4 19 4 14 14 z" fill="black" /><!-- width=33 height=67 -->
<path id="gl24842" d="M 52 14 C 52 19 52 24 43 19 C 38 19 28 19 19 24 C 4 28 4 33 4 57 C 4 91 9 96 33 81 C 67 62 67 57 67 28 C 62 4 52 -5 52 14 z" fill="black" /><!-- width=76 height=100 -->
<path id="gl24843" d="M 4 24 C 4 33 4 43 4 43 C 4 48 9 48 9 48 C 14 52 19 43 19 28 C 19 14 14 4 14 4 C 9 4 4 9 4 24 z" fill="black" /><!-- width=28 height=57 -->
<path id="gl25088" d="M 417 14 C 417 19 412 24 417 28 C 417 43 412 52 408 52 C 408 52 403 48 403 38 C 403 28 403 24 398 24 C 393 24 388 28 388 43 C 388 52 388 67 388 67 C 384 72 379 81 379 91 C 379 96 379 100 379 105 C 364 105 350 105 336 105 C 273 110 273 110 268 76 C 259 4 211 4 201 81 C 201 91 196 105 192 105 C 192 105 158 105 124 105 C 91 105 62 105 62 110 C 62 110 62 172 57 249 C 57 388 57 403 48 398 C 43 393 38 360 38 249 C 38 206 38 158 38 110 C 43 105 52 100 57 96 C 91 76 81 72 43 91 C 33 96 19 100 9 105 C 9 153 9 201 9 249 C 9 297 9 350 4 398 C 14 398 24 403 28 408 C 43 412 52 417 52 417 C 57 422 62 643 57 681 C 57 691 57 705 52 715 C 48 720 38 720 28 724 C 24 724 14 729 9 734 C 9 883 9 1036 9 1190 C 9 1344 9 1492 9 1646 C 19 1651 33 1656 43 1660 C 86 1680 91 1680 57 1656 C 52 1651 43 1646 33 1636 C 38 1488 38 1339 38 1190 C 38 772 38 739 48 734 C 52 724 57 724 57 763 C 57 782 57 988 57 1214 C 57 1444 57 1636 57 1636 C 57 1641 196 1641 720 1641 C 940 1641 1161 1641 1382 1641 C 1382 1660 1382 1675 1382 1694 C 1382 1723 1382 1737 1387 1737 C 1387 1737 1392 1713 1392 1689 C 1392 1675 1392 1660 1392 1641 C 1483 1641 1579 1641 1670 1641 C 1824 1641 1958 1641 1968 1641 C 1982 1641 2006 1641 2025 1641 C 2040 1641 2049 1641 2064 1641 C 2064 1651 2064 1660 2064 1670 C 2064 1699 2068 1713 2073 1699 C 2073 1694 2073 1680 2073 1665 C 2073 1660 2073 1651 2073 1641 C 2102 1641 2126 1641 2155 1641 C 2184 1641 2208 1641 2232 1641 C 2232 1660 2232 1675 2232 1689 C 2232 1718 2236 1737 2236 1737 C 2241 1737 2241 1718 2241 1694 C 2241 1670 2246 1646 2246 1646 C 2256 1641 2568 1641 2577 1646 C 2577 1646 2577 1670 2577 1694 C 2577 1718 2582 1737 2582 1737 C 2587 1737 2587 1718 2587 1689 C 2587 1675 2587 1660 2587 1641 C 2668 1641 2745 1641 2822 1641 C 2899 1641 2976 1641 3052 1641 C 3052 1651 3052 1656 3052 1660 C 3052 1665 3057 1670 3057 1670 C 3062 1670 3062 1660 3062 1656 C 3062 1651 3062 1646 3062 1641 C 3091 1641 3120 1641 3144 1641 C 3168 1641 3196 1641 3225 1641 C 3225 1651 3225 1660 3225 1670 C 3225 1713 3230 1713 3235 1675 C 3235 1665 3235 1656 3235 1646 C 3249 1646 3264 1646 3278 1641 C 3297 1641 3336 1641 3360 1641 C 3374 1641 3388 1646 3403 1646 C 3403 1660 3403 1675 3403 1689 C 3403 1718 3403 1737 3408 1737 C 3412 1737 3412 1732 3412 1684 C 3408 1660 3412 1646 3417 1646 C 3422 1641 3777 1636 3811 1641 C 3825 1646 3830 1646 3830 1651 C 3830 1680 3873 1680 3897 1656 C 3902 1651 3907 1646 3912 1641 C 3955 1641 4003 1641 4046 1641 C 4209 1641 4228 1641 4224 1656 C 4224 1660 4228 1665 4233 1665 C 4238 1665 4243 1660 4243 1656 C 4243 1651 4243 1646 4243 1641 C 4310 1641 4377 1641 4444 1641 C 4555 1641 4646 1646 4651 1646 C 4651 1646 4656 1660 4656 1680 C 4656 1694 4656 1704 4660 1704 C 4660 1704 4665 1689 4665 1670 C 4665 1646 4665 1641 4675 1641 C 4684 1641 4766 1641 4857 1641 C 4992 1646 5025 1641 5020 1636 C 5020 1632 5006 1632 4963 1632 C 4934 1632 4896 1632 4881 1632 C 4872 1632 4862 1632 4848 1632 C 4848 1622 4848 1612 4848 1603 C 4848 1593 4848 1584 4848 1574 C 4891 1574 4934 1574 4972 1574 C 5068 1574 5097 1579 5102 1584 C 5102 1588 5107 1588 5112 1584 C 5112 1579 5131 1574 5164 1574 C 5184 1574 5198 1574 5212 1574 C 5212 1584 5212 1593 5212 1603 C 5212 1636 5212 1636 5155 1632 C 5121 1627 5116 1627 5116 1636 C 5116 1641 5126 1641 5246 1641 C 5289 1641 5332 1641 5376 1641 C 5380 1660 5380 1675 5380 1689 C 5380 1752 5390 1752 5390 1694 C 5390 1675 5390 1660 5390 1646 C 5428 1646 5462 1646 5500 1646 C 5534 1646 5572 1646 5606 1641 C 5606 1660 5606 1675 5606 1689 C 5606 1713 5611 1737 5611 1737 C 5616 1737 5616 1728 5616 1699 C 5616 1636 5611 1641 5721 1641 C 5779 1641 5812 1641 5812 1636 C 5812 1636 5779 1632 5721 1632 C 5630 1632 5620 1632 5620 1627 C 5620 1617 5620 1593 5620 1584 C 5620 1579 5644 1574 5721 1574 C 5779 1574 5812 1574 5812 1569 C 5812 1569 5779 1569 5721 1569 C 5688 1569 5654 1569 5620 1569 C 5620 1560 5620 1555 5620 1550 C 5620 1540 5625 1536 5630 1540 C 5644 1545 5668 1531 5683 1521 C 5692 1512 5697 1507 5755 1507 C 5793 1507 5812 1507 5812 1507 C 5812 1502 5793 1502 5755 1502 C 5736 1502 5716 1502 5697 1502 C 5692 1492 5692 1488 5688 1488 C 5678 1464 5649 1464 5625 1488 C 5620 1488 5616 1492 5611 1502 C 5587 1502 5563 1502 5539 1502 C 5515 1502 5491 1502 5467 1502 C 5462 1497 5462 1492 5457 1488 C 5452 1478 5448 1468 5443 1468 C 5433 1464 5400 1478 5390 1488 C 5380 1497 5376 1502 5313 1502 C 5222 1502 5227 1502 5227 1468 C 5227 1459 5227 1449 5227 1444 C 5323 1444 5424 1444 5520 1444 C 5712 1444 5812 1440 5812 1440 C 5812 1435 5716 1430 5529 1430 C 5371 1430 5236 1430 5232 1430 C 5227 1425 5227 1420 5227 1401 C 5227 1392 5227 1382 5227 1377 C 5323 1377 5424 1377 5520 1377 C 5712 1377 5812 1372 5812 1372 C 5812 1368 5745 1363 5620 1363 C 5452 1363 4684 1363 4579 1363 C 4569 1363 4555 1363 4540 1358 C 4540 1353 4540 1339 4540 1334 C 4540 1315 4540 1300 4536 1300 C 4536 1300 4531 1315 4531 1334 C 4531 1348 4531 1363 4531 1363 C 4521 1363 4353 1363 4315 1363 C 4300 1363 4286 1363 4272 1358 C 4272 1358 4272 1353 4272 1344 C 4272 1329 4267 1329 4262 1344 C 4262 1353 4257 1358 4248 1358 C 4243 1363 3844 1363 3364 1363 C 3072 1363 2784 1363 2491 1363 C 2491 1353 2491 1344 2491 1334 C 2491 1315 2486 1300 2486 1300 C 2481 1300 2476 1315 2476 1334 C 2476 1344 2476 1353 2476 1363 C 2371 1363 2270 1363 2164 1363 C 2059 1363 1958 1363 1852 1363 C 1852 1358 1852 1353 1852 1348 C 1848 1334 1843 1334 1843 1348 C 1843 1363 1828 1363 1732 1363 C 1704 1363 1680 1363 1651 1363 C 1651 1353 1651 1344 1651 1329 C 1651 1310 1651 1300 1646 1300 C 1646 1300 1641 1320 1641 1334 C 1641 1344 1641 1353 1641 1363 C 1488 1363 1329 1363 1171 1363 C 907 1363 691 1363 686 1363 C 681 1358 681 1358 686 1339 C 696 1320 696 1320 681 1310 C 657 1286 619 1305 614 1344 C 609 1353 609 1358 609 1363 C 580 1363 552 1363 518 1363 C 489 1363 460 1363 432 1363 C 432 1358 432 1353 432 1353 C 427 1329 422 1329 417 1348 C 412 1368 408 1372 403 1358 C 398 1344 388 1344 388 1353 C 388 1363 379 1363 220 1363 C 172 1363 120 1363 72 1363 C 72 1310 72 1252 72 1195 C 72 1137 72 1080 72 1022 C 76 1022 81 1017 91 1017 C 100 1017 144 1017 182 1017 C 206 1017 230 1022 249 1022 C 254 1032 254 1041 259 1056 C 264 1094 254 1113 225 1113 C 216 1113 216 1113 225 1104 C 249 1080 216 1036 182 1060 C 158 1080 182 1128 216 1128 C 254 1128 273 1104 268 1056 C 264 1041 264 1027 264 1022 C 268 1017 604 1012 619 1017 C 624 1022 624 1022 619 1036 C 609 1051 609 1065 619 1075 C 643 1094 681 1075 691 1041 C 691 1032 696 1027 696 1017 C 724 1017 748 1017 777 1017 C 820 1017 1972 1017 3336 1017 C 4939 1017 5812 1012 5812 1012 C 5812 1008 5702 1008 5520 1008 C 5361 1003 5232 1003 5227 1003 C 5227 998 5227 988 5227 974 C 5227 964 5227 960 5227 950 C 5323 950 5424 950 5520 950 C 5683 950 5812 950 5812 945 C 5812 945 5798 940 5779 940 C 5755 940 5712 940 5678 940 C 5644 940 5529 940 5419 940 C 5356 940 5289 940 5222 936 C 5227 931 5227 921 5227 912 C 5227 902 5227 892 5227 883 C 5284 883 5342 883 5400 883 C 5496 883 5625 883 5692 883 C 5769 883 5812 878 5812 873 C 5812 873 5712 873 5520 873 C 5419 873 5323 873 5222 873 C 5227 864 5227 854 5227 844 C 5227 835 5227 825 5227 816 C 5270 816 5308 816 5347 816 C 5390 816 5428 816 5472 816 C 5472 820 5472 825 5472 830 C 5476 835 5476 840 5476 844 C 5491 844 5500 844 5515 844 C 5548 844 5553 844 5553 835 C 5558 811 5558 811 5688 816 C 5784 816 5812 816 5812 811 C 5817 806 5755 801 5520 801 C 5424 801 5323 801 5227 801 C 5227 792 5227 782 5227 772 C 5227 768 5227 758 5227 748 C 5323 748 5424 748 5520 748 C 5688 744 5803 744 5788 739 C 5774 739 4622 739 3230 739 C 1838 739 696 734 691 734 C 691 734 686 729 686 720 C 686 715 686 710 686 710 C 681 710 681 720 681 724 C 681 729 681 734 681 739 C 638 739 595 739 552 739 C 432 739 427 734 427 729 C 427 720 432 715 432 715 C 436 715 436 705 436 700 C 436 691 436 681 432 681 C 432 681 427 672 427 667 C 427 657 427 648 427 648 C 417 638 412 648 412 672 C 412 696 403 691 403 672 C 398 648 388 652 388 672 C 388 681 388 696 384 700 C 379 710 379 715 379 724 C 379 729 379 734 384 739 C 364 739 345 739 326 739 C 307 739 292 739 273 739 C 273 729 268 724 268 715 C 264 672 244 648 230 657 C 220 667 201 700 201 715 C 201 734 196 739 129 739 C 76 739 72 734 72 729 C 72 724 72 715 76 715 C 81 710 81 705 76 705 C 67 700 67 432 76 427 C 76 422 76 422 76 417 C 72 417 72 408 72 398 C 72 393 72 388 72 388 C 100 388 129 388 158 388 C 187 388 216 388 249 388 C 249 388 249 393 254 398 C 264 427 259 465 249 480 C 235 489 220 489 220 480 C 220 480 220 475 220 475 C 235 475 240 451 230 436 C 206 403 158 432 177 470 C 192 504 225 508 254 484 C 268 475 268 475 268 432 C 268 417 268 403 268 388 C 340 384 412 384 489 384 C 609 384 902 384 1137 384 C 1281 384 1420 384 1564 379 C 1569 388 1574 393 1579 398 C 1598 422 1627 417 1651 393 C 1656 384 1660 379 1723 384 C 1785 384 1790 384 1776 403 C 1766 417 1766 427 1776 436 C 1800 460 1838 441 1848 403 C 1848 398 1852 388 1852 384 C 2025 384 2193 384 2361 384 C 2534 384 2702 384 2870 379 C 2870 398 2870 412 2870 427 C 2870 489 2880 494 2884 432 C 2884 412 2884 398 2884 384 C 2942 384 2995 384 3052 384 C 3110 384 3168 384 3225 379 C 3225 398 3225 412 3225 432 C 3225 465 3225 480 3230 475 C 3230 475 3235 470 3235 460 C 3235 456 3235 436 3235 417 C 3235 403 3235 393 3240 384 C 3307 384 3379 384 3451 384 C 3518 384 3590 384 3657 384 C 3657 398 3657 412 3657 432 C 3657 489 3667 494 3672 432 C 3672 412 3672 398 3672 384 C 3696 384 3724 384 3748 384 C 3777 384 3801 384 3825 379 C 3830 398 3830 412 3830 427 C 3830 456 3830 475 3835 470 C 3840 470 3840 465 3840 417 C 3840 408 3840 393 3844 384 C 3945 384 4046 384 4152 384 C 4252 384 4358 384 4459 384 C 4464 393 4464 403 4464 412 C 4464 441 4473 451 4473 422 C 4473 412 4473 403 4473 393 C 4473 388 4473 384 4478 379 C 4536 384 4598 384 4656 384 C 4718 384 4776 384 4838 384 C 4838 398 4838 412 4838 432 C 4843 494 4848 489 4848 432 C 4848 412 4848 398 4848 384 C 5011 384 5169 384 5332 384 C 5649 384 5812 379 5812 379 C 5812 374 5712 369 5520 369 C 5424 369 5323 369 5227 369 C 5227 360 5227 350 5227 340 C 5227 331 5227 321 5222 316 C 5323 316 5419 316 5520 316 C 5712 316 5812 312 5812 307 C 5812 307 5750 302 5635 302 C 5534 302 5452 302 5448 302 C 5448 297 5448 297 5452 292 C 5452 288 5457 278 5457 268 C 5462 259 5462 254 5462 249 C 5520 249 5582 249 5640 249 C 5750 249 5812 244 5812 240 C 5812 240 5750 235 5640 235 C 5582 235 5520 235 5462 235 C 5462 225 5462 216 5462 211 C 5462 201 5462 192 5462 182 C 5520 182 5582 182 5640 182 C 5750 182 5812 177 5812 172 C 5812 172 5750 172 5640 172 C 5582 172 5524 172 5467 172 C 5462 163 5462 158 5462 153 C 5462 144 5457 134 5462 124 C 5462 124 5462 120 5462 115 C 5520 115 5582 115 5640 115 C 5740 110 5817 110 5812 105 C 5812 105 5731 100 5635 100 C 5577 100 5520 100 5462 100 C 5462 91 5462 81 5462 72 C 5457 28 5448 33 5448 72 C 5448 81 5448 91 5448 105 C 5256 105 5059 105 4862 105 C 4665 105 4468 105 4272 105 C 4272 96 4272 91 4272 91 C 4272 72 4267 72 4262 86 C 4262 91 4262 96 4262 100 C 4233 100 4204 100 4176 100 C 4142 100 4113 100 4084 100 C 4084 91 4084 81 4084 72 C 4084 52 4080 43 4075 43 C 4075 43 4070 52 4070 72 C 4070 81 4070 91 4070 100 C 3806 100 3542 100 3278 100 C 3014 100 2750 100 2491 105 C 2491 91 2491 81 2491 72 C 2491 33 2481 28 2476 72 C 2476 81 2476 91 2476 100 C 2419 100 2366 100 2313 100 C 2256 100 2203 100 2145 100 C 2145 96 2145 91 2145 86 C 2140 72 2131 76 2131 91 C 2131 96 2131 100 2131 105 C 2054 105 1977 105 1896 105 C 1766 105 1574 105 1464 105 C 1401 105 1334 105 1272 105 C 1272 105 1267 100 1267 96 C 1267 76 1262 72 1257 91 C 1252 96 1252 100 1252 105 C 1166 105 1080 105 993 105 C 715 110 691 105 691 91 C 691 72 686 72 681 86 C 681 96 676 100 672 105 C 667 110 456 110 441 105 C 427 100 427 86 432 81 C 436 81 436 72 436 62 C 436 52 436 48 432 48 C 432 48 427 38 427 28 C 427 9 422 0 417 14 M 254 72 C 259 96 259 105 235 105 C 216 105 216 100 225 76 C 240 57 249 57 254 72 M 681 144 C 681 153 681 163 681 172 C 667 172 657 172 643 172 C 590 172 436 168 432 168 C 432 168 432 158 436 153 C 436 148 441 139 441 129 C 441 124 441 120 441 120 C 465 115 489 115 513 115 C 552 115 604 115 633 115 C 648 115 662 120 681 120 C 681 124 681 134 681 144 M 1012 115 C 1036 115 1060 115 1084 115 C 1084 124 1084 129 1084 134 C 1084 172 1099 172 883 172 C 681 172 691 172 691 148 C 691 144 691 134 691 129 C 691 124 691 120 691 120 C 729 115 763 115 801 115 C 859 115 916 115 926 115 C 936 115 974 115 1012 115 M 1257 134 C 1262 172 1262 172 1171 172 C 1147 172 1118 172 1094 172 C 1094 163 1094 153 1094 144 C 1094 129 1094 120 1094 115 C 1099 115 1132 115 1176 115 C 1200 115 1228 115 1252 115 C 1252 120 1252 129 1257 134 M 1449 124 C 1454 134 1449 144 1449 153 C 1449 158 1449 163 1444 172 C 1416 172 1387 172 1358 172 C 1329 172 1300 172 1272 172 C 1272 163 1272 153 1272 144 C 1272 134 1272 124 1272 115 C 1300 115 1329 115 1358 115 C 1392 115 1420 115 1449 115 C 1449 120 1449 124 1449 124 M 1958 139 C 1958 148 1958 158 1958 168 C 1910 168 1857 168 1804 168 C 1660 168 1656 168 1656 158 C 1656 144 1646 144 1646 158 C 1646 163 1641 168 1641 172 C 1612 172 1584 172 1550 172 C 1521 172 1492 172 1459 172 C 1459 158 1459 148 1459 139 C 1459 129 1459 120 1459 110 C 1545 115 1627 115 1708 115 C 1790 115 1876 115 1958 115 C 1958 124 1958 134 1958 139 M 2131 139 C 2131 153 2131 158 2131 172 C 2107 172 2078 172 2054 172 C 2025 172 1996 172 1968 172 C 1968 158 1968 153 1968 139 C 1968 134 1968 120 1968 115 C 1996 115 2025 115 2054 115 C 2078 115 2107 115 2131 115 C 2131 120 2131 134 2131 139 M 2476 139 C 2476 148 2476 158 2476 168 C 2424 168 2366 168 2313 168 C 2222 168 2145 168 2145 168 C 2140 105 2121 115 2313 115 C 2366 115 2424 115 2476 115 C 2476 124 2476 134 2476 139 M 2755 120 C 2755 124 2755 139 2755 148 C 2755 158 2755 163 2750 172 C 2707 172 2664 172 2620 172 C 2577 172 2534 172 2491 172 C 2491 158 2491 153 2491 139 C 2491 134 2491 120 2491 115 C 2534 115 2577 115 2620 115 C 2736 115 2755 115 2755 120 M 3556 120 C 3556 124 3561 134 3561 139 C 3561 172 3595 172 3158 172 C 3028 172 2899 172 2769 172 C 2769 158 2769 153 2769 139 C 2769 134 2769 120 2769 115 C 2899 115 3028 115 3158 115 C 3513 115 3552 115 3556 120 M 4070 139 C 4070 148 4070 158 4070 168 C 3988 168 3902 168 3820 168 C 3739 168 3652 168 3571 168 C 3571 158 3571 148 3571 139 C 3571 129 3571 120 3566 110 C 3652 115 3734 115 3820 115 C 3902 115 3988 115 4070 115 C 4070 124 4070 134 4070 139 M 4262 139 C 4262 172 4267 172 4176 172 C 4132 172 4094 168 4089 168 C 4080 163 4080 124 4084 115 C 4089 115 4128 115 4176 115 C 4204 115 4233 115 4262 115 C 4262 120 4262 129 4262 139 M 4358 134 C 4358 168 4358 172 4315 168 C 4300 168 4291 168 4276 168 C 4276 158 4276 148 4276 139 C 4276 129 4272 120 4272 115 C 4286 115 4300 115 4315 115 C 4329 115 4344 115 4363 115 C 4358 120 4358 129 4358 134 M 5212 139 C 5212 148 5212 158 5212 168 C 5073 168 4934 168 4795 168 C 4651 168 4512 168 4372 168 C 4372 158 4372 148 4372 139 C 4372 129 4372 120 4368 110 C 4512 115 4651 115 4790 115 C 4929 115 5073 115 5212 115 C 5212 124 5212 134 5212 139 M 5448 139 C 5448 148 5448 158 5448 168 C 5409 168 5376 168 5337 168 C 5299 168 5265 168 5227 168 C 5227 163 5227 153 5227 148 C 5222 110 5217 110 5337 115 C 5376 115 5409 115 5448 115 C 5448 124 5448 134 5448 139 M 201 144 C 201 153 201 168 201 168 C 201 172 105 172 76 172 C 72 172 72 163 72 144 C 72 134 72 124 72 115 C 91 115 110 115 134 115 C 153 115 177 115 196 115 C 201 124 201 134 201 144 M 240 124 C 240 139 225 153 220 148 C 206 129 211 115 225 115 C 235 115 240 120 240 124 M 388 124 C 388 129 388 134 384 139 C 379 144 379 153 379 158 C 379 168 374 168 345 172 C 307 177 254 172 259 163 C 259 158 264 148 268 139 C 268 129 268 124 273 115 C 292 115 312 115 331 115 C 379 115 388 120 388 124 M 388 201 C 388 216 398 216 403 196 C 403 182 412 177 412 192 C 412 196 417 196 422 196 C 427 196 427 196 427 192 C 427 187 600 177 657 182 C 662 182 672 187 681 187 C 681 196 681 201 681 211 C 681 220 681 230 681 240 C 604 240 532 240 456 240 C 384 240 307 240 235 240 C 230 230 230 225 230 220 C 225 187 235 187 307 182 C 379 182 388 182 388 201 M 1080 211 C 1080 216 1080 225 1080 235 C 1017 235 950 235 888 235 C 820 235 758 235 696 240 C 691 230 691 225 691 220 C 691 211 691 196 691 192 C 691 187 691 182 696 177 C 758 182 820 182 888 182 C 950 182 1017 182 1080 182 C 1080 192 1080 201 1080 211 M 1248 182 C 1252 187 1257 192 1257 211 C 1257 220 1257 230 1257 240 C 1228 240 1200 240 1171 240 C 1147 240 1118 240 1094 240 C 1094 230 1094 220 1094 211 C 1094 192 1094 187 1099 182 C 1113 182 1238 182 1248 182 M 1444 182 C 1449 187 1454 192 1454 211 C 1454 220 1454 230 1454 240 C 1420 240 1392 240 1363 240 C 1262 240 1267 240 1267 201 C 1267 192 1267 187 1272 182 C 1286 177 1435 177 1444 182 M 1641 211 C 1641 220 1641 230 1646 240 C 1612 240 1584 240 1555 240 C 1521 240 1492 240 1459 240 C 1459 230 1459 220 1459 211 C 1459 177 1454 182 1560 182 C 1584 182 1612 182 1641 182 C 1641 192 1641 201 1641 211 M 1838 196 C 1843 206 1838 220 1838 225 C 1838 230 1838 235 1833 240 C 1804 240 1776 240 1747 240 C 1699 240 1656 235 1656 235 C 1656 230 1656 225 1656 216 C 1656 206 1656 196 1656 192 C 1656 187 1656 182 1660 177 C 1689 182 1718 182 1747 182 C 1780 182 1809 182 1838 182 C 1838 187 1838 192 1838 196 M 1958 211 C 1958 216 1958 225 1958 235 C 1939 235 1920 235 1905 235 C 1886 235 1867 235 1852 240 C 1852 230 1852 220 1852 211 C 1852 177 1848 177 1905 182 C 1924 182 1939 182 1958 182 C 1958 192 1958 201 1958 211 M 2131 211 C 2131 220 2131 230 2136 240 C 2107 240 2078 240 2054 240 C 2025 240 1996 240 1968 240 C 1968 230 1968 220 1968 211 C 1968 196 1972 187 1972 182 C 1977 182 2011 182 2054 182 C 2078 182 2107 182 2131 182 C 2131 192 2131 201 2131 211 M 2476 211 C 2476 216 2476 225 2476 235 C 2424 235 2366 235 2313 235 C 2188 235 2150 235 2145 230 C 2140 225 2140 187 2145 182 C 2150 182 2222 182 2313 182 C 2366 182 2424 182 2476 182 C 2476 192 2476 201 2476 211 M 2755 192 C 2755 196 2755 211 2755 220 C 2755 225 2755 230 2750 240 C 2707 235 2664 235 2620 235 C 2577 235 2534 235 2491 235 C 2491 230 2491 220 2491 216 C 2486 177 2476 177 2620 177 C 2664 177 2707 177 2750 177 C 2755 182 2755 187 2755 192 M 3556 187 C 3556 192 3556 206 3556 216 C 3556 225 3556 230 3552 240 C 3513 240 3470 240 3432 240 C 3393 240 3350 240 3312 240 C 3307 235 3307 230 3302 225 C 3292 201 3264 201 3240 220 C 3235 225 3230 230 3225 240 C 3182 240 3134 240 3091 240 C 3048 240 3004 240 2961 240 C 2956 235 2956 230 2952 225 C 2942 201 2908 201 2889 220 C 2875 235 2870 240 2822 240 C 2803 240 2784 240 2769 240 C 2769 225 2769 220 2769 211 C 2769 196 2769 192 2769 177 C 2899 177 3028 177 3163 177 C 3508 177 3556 182 3556 187 M 4070 201 C 4070 235 4070 240 3988 240 C 3921 240 3912 235 3912 225 C 3912 216 3888 201 3873 206 C 3868 206 3854 216 3844 225 C 3820 244 3748 244 3739 225 C 3734 211 3720 206 3705 206 C 3700 206 3691 211 3681 220 C 3672 225 3667 230 3662 240 C 3648 235 3628 235 3614 235 C 3600 235 3585 235 3571 235 C 3571 225 3571 216 3571 206 C 3571 196 3571 187 3566 177 C 3652 177 3734 177 3820 177 C 3902 177 3988 177 4070 177 C 4070 187 4070 196 4070 201 M 4262 206 C 4262 240 4267 240 4176 240 C 4080 240 4080 240 4080 206 C 4080 196 4080 187 4080 177 C 4113 177 4142 177 4176 177 C 4204 177 4233 177 4262 177 C 4262 187 4262 196 4262 206 M 4358 192 C 4358 196 4363 211 4358 220 C 4358 225 4358 230 4358 235 C 4344 235 4329 235 4320 235 C 4305 235 4291 235 4276 235 C 4276 225 4276 216 4276 206 C 4276 196 4272 187 4272 177 C 4286 177 4300 177 4315 177 C 4353 177 4353 182 4358 192 M 4473 196 C 4464 206 4464 216 4464 225 C 4464 230 4464 235 4464 240 C 4444 235 4430 235 4416 235 C 4401 235 4387 235 4372 235 C 4372 225 4372 216 4372 206 C 4372 196 4372 187 4368 177 C 4387 177 4406 177 4425 177 C 4444 177 4464 177 4483 177 C 4478 187 4473 192 4473 196 M 5212 211 C 5212 220 5212 225 5212 240 C 5164 240 5116 240 5068 240 C 5020 240 4972 240 4924 240 C 4924 235 4924 230 4920 225 C 4910 201 4881 196 4852 225 C 4848 230 4838 235 4833 240 C 4785 235 4732 235 4684 235 C 4540 235 4536 235 4536 225 C 4540 220 4540 206 4540 196 C 4540 192 4545 187 4545 177 C 4656 177 4766 177 4881 177 C 4992 177 5102 177 5212 177 C 5212 192 5212 196 5212 211 M 5448 206 C 5452 240 5457 240 5328 235 C 5294 235 5260 235 5227 235 C 5227 230 5227 220 5227 216 C 5222 177 5217 177 5337 182 C 5376 182 5409 182 5448 182 C 5448 192 5448 196 5448 206 M 182 187 C 182 192 172 201 163 216 C 158 220 153 230 148 235 C 134 235 120 235 110 235 C 96 235 81 235 72 240 C 72 230 72 220 72 211 C 72 201 72 192 72 182 C 86 182 105 182 124 182 C 153 182 182 187 182 187 M 4526 192 C 4526 211 4488 235 4478 225 C 4473 220 4488 201 4502 192 C 4521 182 4526 182 4526 192 M 220 225 C 220 235 216 240 211 240 C 196 240 196 230 206 225 C 211 216 220 216 220 225 M 2937 230 C 2932 240 2918 240 2913 235 C 2913 230 2913 230 2923 225 C 2932 220 2942 225 2937 230 M 3292 225 C 3292 235 3278 240 3268 235 C 3259 235 3259 230 3268 225 C 3283 216 3292 216 3292 225 M 4905 220 C 4910 230 4896 240 4886 235 C 4876 230 4876 230 4886 225 C 4896 216 4900 216 4905 220 M 134 259 C 134 264 129 278 129 288 C 129 292 124 297 124 307 C 115 302 105 302 100 302 C 91 302 81 302 72 302 C 72 297 72 288 72 283 C 67 249 72 244 105 249 C 129 249 134 249 134 259 M 676 264 C 681 273 676 278 662 278 C 652 278 638 283 628 288 C 619 297 614 302 604 302 C 556 302 508 302 460 302 C 412 302 364 302 316 302 C 312 297 312 292 312 288 C 307 273 302 264 297 259 C 283 249 307 249 489 249 C 552 249 614 249 676 249 C 676 254 676 259 676 264 M 1080 259 C 1080 264 1084 278 1080 288 C 1080 292 1080 297 1080 302 C 1017 302 950 302 888 302 C 820 302 758 302 696 307 C 696 302 691 297 691 292 C 691 288 691 273 691 264 C 691 259 696 254 696 244 C 758 244 820 244 888 244 C 950 244 1012 244 1075 244 C 1080 249 1080 254 1080 259 M 1257 259 C 1257 273 1252 278 1238 278 C 1224 278 1204 288 1195 297 C 1190 302 1176 302 1137 302 C 1123 302 1108 302 1094 302 C 1094 297 1094 288 1094 278 C 1094 264 1094 254 1094 249 C 1099 249 1132 244 1176 244 C 1204 244 1228 244 1257 244 C 1257 254 1257 259 1257 259 M 1449 278 C 1449 283 1449 292 1449 302 C 1420 302 1392 302 1358 302 C 1329 302 1300 302 1272 307 C 1267 297 1267 292 1267 288 C 1267 278 1267 264 1267 259 C 1267 254 1267 249 1272 244 C 1300 249 1329 249 1358 249 C 1392 249 1420 249 1449 249 C 1449 259 1449 268 1449 278 M 1641 278 C 1641 283 1641 297 1641 302 C 1612 302 1584 302 1555 302 C 1521 302 1492 302 1459 302 C 1459 297 1459 283 1459 278 C 1459 264 1459 259 1459 244 C 1492 244 1521 244 1555 244 C 1584 244 1612 244 1641 244 C 1641 259 1641 264 1641 278 M 1838 249 C 1838 254 1838 264 1838 278 C 1838 288 1838 292 1838 302 C 1809 302 1776 302 1747 302 C 1718 302 1684 302 1656 302 C 1656 297 1656 292 1656 288 C 1651 278 1656 264 1656 259 C 1656 254 1656 249 1660 244 C 1689 244 1718 244 1747 244 C 1795 244 1838 249 1838 249 M 1958 259 C 1958 264 1958 278 1958 288 C 1958 292 1958 297 1958 302 C 1939 302 1920 302 1905 302 C 1886 302 1867 302 1852 307 C 1852 297 1852 288 1852 278 C 1852 268 1852 259 1852 244 C 1867 244 1886 244 1900 244 C 1953 244 1953 249 1958 259 M 2131 259 C 2131 273 2131 273 2112 278 C 2097 278 2083 283 2078 292 C 2064 302 2059 302 2016 302 C 2001 302 1987 302 1968 302 C 1968 297 1968 283 1968 278 C 1968 264 1968 259 1968 244 C 1996 244 2025 244 2054 244 C 2078 244 2107 244 2131 244 C 2131 249 2131 254 2131 259 M 2419 249 C 2419 249 2419 259 2414 268 C 2409 273 2409 288 2409 292 C 2409 297 2409 297 2409 302 C 2366 302 2323 302 2275 302 C 2232 302 2188 302 2145 302 C 2145 297 2145 292 2145 288 C 2140 278 2145 264 2145 259 C 2145 254 2145 249 2150 244 C 2193 244 2241 244 2284 244 C 2361 244 2419 249 2419 249 M 2750 278 C 2750 283 2750 297 2750 302 C 2707 302 2659 302 2611 302 C 2481 302 2472 302 2476 297 C 2481 288 2486 268 2491 254 C 2491 249 2524 244 2620 244 C 2664 244 2707 244 2750 244 C 2750 259 2750 264 2750 278 M 2870 278 C 2870 283 2870 292 2870 302 C 2851 302 2836 302 2817 302 C 2803 302 2784 302 2769 307 C 2769 297 2769 288 2769 278 C 2769 264 2769 254 2769 244 C 2784 249 2803 249 2817 249 C 2836 249 2851 249 2870 249 C 2870 259 2870 268 2870 278 M 2923 249 C 2923 254 2889 268 2889 264 C 2884 264 2889 259 2889 254 C 2889 244 2923 244 2923 249 M 3225 278 C 3225 288 3225 297 3225 307 C 3168 302 3110 302 3052 302 C 2995 302 2942 302 2884 302 C 2884 297 2884 292 2884 288 C 2880 273 2884 273 2894 278 C 2908 283 2937 268 2947 254 C 2952 249 2956 244 3086 244 C 3134 244 3177 244 3225 244 C 3225 259 3225 268 3225 278 M 3278 249 C 3278 254 3244 264 3240 264 C 3240 264 3240 259 3240 254 C 3244 249 3278 244 3278 249 M 3556 264 C 3556 273 3556 288 3556 292 C 3556 297 3556 302 3552 302 C 3499 302 3446 302 3393 302 C 3340 302 3288 302 3240 302 C 3240 302 3240 297 3240 288 C 3240 278 3240 278 3254 278 C 3273 278 3278 273 3292 264 C 3297 259 3302 254 3307 249 C 3350 249 3388 249 3432 249 C 3475 249 3513 249 3556 249 C 3556 254 3556 259 3556 264 M 3657 273 C 3657 283 3657 292 3657 302 C 3643 302 3628 302 3614 302 C 3600 302 3585 302 3571 307 C 3571 297 3571 288 3571 278 C 3571 268 3571 259 3571 244 C 3585 244 3600 244 3614 244 C 3628 244 3643 244 3662 244 C 3657 254 3657 264 3657 273 M 3825 273 C 3825 283 3825 292 3825 302 C 3801 302 3782 302 3758 302 C 3676 307 3667 302 3672 288 C 3672 278 3676 278 3691 278 C 3705 273 3715 273 3724 264 C 3739 249 3744 249 3782 249 C 3796 249 3811 249 3830 244 C 3825 254 3825 264 3825 273 M 4012 264 C 4003 273 4003 283 4003 292 C 4003 292 4003 297 4003 302 C 3974 302 3950 302 3921 302 C 3897 302 3873 302 3844 302 C 3844 297 3844 292 3844 288 C 3840 278 3844 278 3859 278 C 3878 278 3883 273 3897 264 C 3912 249 3912 249 3964 249 C 3984 249 4003 249 4022 244 C 4017 254 4012 259 4012 264 M 4262 259 C 4262 273 4262 273 4243 273 C 4228 273 4200 292 4200 297 C 4200 302 4080 307 4070 302 C 4070 302 4070 292 4075 283 C 4080 278 4080 264 4080 259 C 4080 254 4080 249 4080 244 C 4113 244 4142 244 4176 244 C 4204 244 4233 244 4267 244 C 4267 249 4262 254 4262 259 M 4358 273 C 4358 283 4358 292 4358 302 C 4348 302 4339 302 4329 302 C 4276 307 4272 302 4272 273 C 4272 264 4272 254 4272 244 C 4286 244 4305 244 4320 244 C 4334 244 4348 244 4363 244 C 4363 254 4358 264 4358 273 M 4459 273 C 4459 283 4459 292 4459 302 C 4444 302 4430 302 4416 302 C 4401 302 4387 302 4372 302 C 4372 292 4372 283 4372 273 C 4372 264 4372 254 4368 244 C 4387 244 4401 244 4416 244 C 4430 244 4444 244 4464 244 C 4464 254 4459 264 4459 273 M 4838 273 C 4838 297 4838 297 4828 302 C 4814 307 4492 307 4483 302 C 4478 297 4478 292 4478 273 C 4478 264 4478 254 4478 244 C 4536 244 4598 244 4660 244 C 4718 244 4780 244 4838 244 C 4838 254 4838 264 4838 273 M 4881 254 C 4872 264 4852 264 4852 254 C 4852 249 4862 249 4872 249 C 4891 249 4891 249 4881 254 M 5212 273 C 5212 283 5212 292 5212 302 C 5150 302 5092 302 5030 302 C 4972 302 4915 302 4852 302 C 4852 297 4852 292 4852 288 C 4848 278 4852 278 4867 278 C 4881 278 4891 273 4905 264 C 4910 259 4915 254 4920 249 C 4968 249 5020 249 5068 249 C 5116 249 5164 249 5217 244 C 5212 254 5212 264 5212 273 M 5390 259 C 5385 264 5385 278 5380 288 C 5380 292 5380 297 5380 302 C 5356 302 5337 302 5313 302 C 5222 307 5227 307 5227 273 C 5227 264 5227 254 5227 244 C 5256 244 5284 244 5313 244 C 5342 244 5371 244 5400 244 C 5395 249 5395 254 5390 259 M 192 264 C 187 268 177 283 177 292 C 172 312 158 312 163 292 C 168 268 177 254 192 254 C 201 254 201 254 192 264 M 2476 264 C 2476 273 2448 297 2433 297 C 2419 297 2419 292 2428 278 C 2448 259 2476 249 2476 264 M 5448 259 C 5448 278 5404 302 5395 292 C 5390 288 5409 264 5424 259 C 5443 249 5448 249 5448 259 M 230 278 C 230 283 230 288 230 292 C 235 302 230 302 216 302 C 206 302 201 302 201 297 C 201 288 225 268 230 278 M 273 288 C 288 302 288 302 268 302 C 249 302 240 297 240 283 C 240 273 264 273 273 288 M 676 297 C 676 302 672 302 662 302 C 648 302 648 297 657 292 C 667 288 676 292 676 297 M 2126 297 C 2126 302 2102 307 2102 302 C 2102 292 2112 288 2121 288 C 2126 288 2126 292 2126 297 M 115 316 C 124 321 134 326 139 336 C 148 345 153 355 158 360 C 163 364 163 369 168 369 C 148 369 134 369 120 369 C 100 369 86 369 72 369 C 72 364 72 355 72 345 C 72 316 76 312 115 316 M 182 331 C 187 340 216 364 225 364 C 235 364 235 360 225 355 C 211 350 192 326 196 321 C 201 316 230 316 235 321 C 235 321 240 336 240 345 C 240 355 244 364 244 369 C 235 369 230 369 225 369 C 196 369 153 336 163 321 C 168 312 177 316 182 331 M 288 326 C 292 336 273 364 264 364 C 259 364 249 340 249 321 C 249 307 288 312 288 326 M 600 316 C 604 316 614 326 614 331 C 619 355 652 355 676 331 C 681 326 686 321 691 316 C 758 316 820 316 883 316 C 950 316 1012 316 1075 316 C 1080 321 1080 326 1080 331 C 1080 340 1084 350 1080 360 C 1080 360 1080 364 1080 369 C 950 369 816 369 686 369 C 552 369 422 369 288 374 C 292 369 297 364 297 360 C 307 350 312 340 312 340 C 312 340 312 331 312 326 C 316 321 316 316 316 316 C 364 316 408 316 456 316 C 528 316 595 316 600 316 M 657 316 C 657 326 638 331 633 331 C 624 331 624 321 633 316 C 643 312 657 312 657 316 M 1190 331 C 1204 355 1224 355 1248 331 C 1257 326 1262 321 1267 316 C 1291 316 1310 316 1329 316 C 1396 316 1401 316 1387 336 C 1382 340 1382 350 1382 360 C 1382 360 1382 364 1382 369 C 1334 369 1286 369 1238 369 C 1190 369 1142 369 1094 374 C 1094 364 1094 355 1094 345 C 1094 312 1089 312 1137 316 C 1180 316 1180 316 1190 331 M 1641 331 C 1641 340 1641 345 1636 340 C 1612 340 1603 345 1588 360 C 1584 364 1579 364 1574 369 C 1550 369 1531 369 1507 369 C 1449 369 1444 369 1449 364 C 1454 355 1464 326 1464 321 C 1464 316 1488 316 1555 316 C 1584 316 1612 316 1641 316 C 1641 321 1641 326 1641 331 M 1838 321 C 1838 321 1838 331 1838 340 C 1838 350 1838 360 1838 364 C 1833 369 1828 374 1747 369 C 1718 369 1684 369 1656 369 C 1656 364 1656 360 1656 350 C 1651 312 1646 316 1747 316 C 1814 316 1833 316 1838 321 M 1958 345 C 1958 350 1958 360 1958 369 C 1939 369 1920 369 1905 369 C 1886 369 1867 369 1852 374 C 1852 364 1852 355 1852 345 C 1852 331 1852 321 1852 312 C 1867 316 1886 316 1905 316 C 1920 316 1939 316 1958 316 C 1958 326 1958 336 1958 345 M 2068 326 C 2078 350 2107 350 2136 326 C 2136 321 2140 316 2145 316 C 2246 316 2347 316 2448 316 C 2774 316 2755 312 2755 336 C 2755 340 2755 350 2755 360 C 2755 364 2755 364 2750 369 C 2620 369 2491 369 2361 369 C 2232 369 2102 369 1968 369 C 1968 364 1968 355 1968 345 C 1968 312 1968 316 2020 316 C 2059 316 2064 316 2068 326 M 2107 321 C 2107 326 2078 336 2078 326 C 2078 316 2088 316 2097 316 C 2107 316 2107 316 2107 321 M 2870 345 C 2870 350 2870 360 2870 369 C 2851 369 2836 369 2817 369 C 2803 369 2784 369 2769 374 C 2769 364 2769 355 2769 345 C 2769 331 2769 321 2769 312 C 2784 316 2803 316 2817 316 C 2836 316 2851 316 2870 316 C 2870 326 2870 336 2870 345 M 3220 340 C 3220 350 3220 360 3220 369 C 3163 369 3110 369 3052 369 C 2995 369 2942 369 2884 369 C 2884 364 2884 355 2884 350 C 2880 312 2870 316 3057 316 C 3110 316 3168 316 3225 316 C 3225 321 3220 331 3220 340 M 3556 326 C 3556 331 3556 340 3556 345 C 3556 355 3556 364 3556 364 C 3556 369 3518 369 3398 369 C 3345 369 3292 369 3240 369 C 3240 364 3235 360 3235 355 C 3235 345 3235 331 3235 326 C 3235 321 3240 316 3240 316 C 3292 316 3345 316 3398 316 C 3451 316 3499 316 3552 316 C 3556 316 3556 321 3556 326 M 3657 340 C 3657 350 3657 360 3657 369 C 3643 369 3628 369 3614 369 C 3600 369 3585 369 3571 374 C 3571 364 3571 355 3571 345 C 3571 336 3571 326 3571 316 C 3585 316 3600 316 3614 316 C 3628 316 3643 316 3662 316 C 3657 321 3657 331 3657 340 M 3825 340 C 3825 350 3825 360 3825 369 C 3801 369 3772 369 3748 369 C 3710 369 3672 369 3672 369 C 3672 350 3672 340 3672 326 C 3672 321 3672 316 3676 316 C 3700 316 3724 316 3753 316 C 3777 316 3801 316 3830 316 C 3825 321 3825 331 3825 340 M 4195 321 C 4200 350 4238 350 4262 326 C 4272 316 4276 312 4315 316 C 4329 316 4344 316 4358 316 C 4358 326 4358 336 4358 345 C 4358 350 4358 360 4358 369 C 4272 369 4185 369 4099 369 C 4017 369 3931 369 3844 369 C 3844 364 3844 355 3840 350 C 3835 312 3820 316 4017 316 C 4185 316 4190 316 4195 321 M 4459 340 C 4459 350 4459 360 4459 369 C 4444 369 4430 369 4416 369 C 4401 369 4387 369 4372 369 C 4372 360 4372 350 4372 340 C 4372 331 4372 321 4368 316 C 4387 316 4401 316 4416 316 C 4430 316 4444 316 4464 316 C 4464 321 4459 331 4459 340 M 4838 331 C 4838 340 4838 355 4838 360 C 4838 364 4838 369 4833 369 C 4776 369 4718 369 4656 369 C 4598 369 4536 369 4478 369 C 4478 364 4473 360 4473 350 C 4468 312 4454 312 4656 316 C 4718 316 4776 316 4838 316 C 4838 321 4838 326 4838 331 M 5212 340 C 5212 374 5227 374 5020 369 C 4968 369 4910 369 4852 369 C 4852 360 4852 350 4852 340 C 4852 331 4848 321 4848 316 C 4910 316 4972 316 5030 316 C 5092 316 5155 316 5212 316 C 5212 321 5212 331 5212 340 M 254 710 C 259 729 254 739 235 739 C 216 739 216 729 230 710 C 240 691 244 691 254 710 M 196 753 C 196 758 201 768 201 782 C 201 787 206 796 206 801 C 196 801 192 806 182 806 C 158 811 100 811 81 806 C 72 801 72 801 72 777 C 72 768 72 758 72 753 C 86 748 105 748 120 748 C 172 748 187 748 196 753 M 388 753 C 388 758 388 763 384 772 C 379 782 379 792 379 796 C 379 806 360 806 307 806 C 254 806 254 806 264 777 C 268 768 268 758 273 753 C 288 748 302 748 316 748 C 379 748 379 748 388 753 M 676 777 C 676 787 681 796 681 806 C 672 806 662 806 652 806 C 580 806 432 806 432 801 C 427 801 432 796 432 787 C 436 782 436 772 436 768 C 436 744 436 744 561 748 C 600 748 638 748 676 748 C 676 758 676 768 676 777 M 1080 772 C 1080 787 1080 796 1080 801 C 1075 801 1036 806 988 806 C 960 806 931 806 902 806 C 897 801 892 796 888 787 C 868 768 854 768 868 787 C 873 796 873 801 868 801 C 859 806 700 806 691 801 C 686 796 686 753 696 748 C 700 748 792 748 892 748 C 955 748 1017 748 1080 748 C 1080 758 1080 763 1080 772 M 1958 772 C 1958 787 1958 796 1958 801 C 1953 801 1190 806 1108 806 C 1094 806 1094 801 1094 777 C 1094 763 1094 753 1094 748 C 1099 748 1291 748 1526 748 C 1670 748 1814 748 1958 748 C 1958 758 1958 763 1958 772 M 2755 753 C 2755 758 2755 772 2755 782 C 2755 792 2750 796 2750 801 C 2721 806 2688 806 2654 806 C 2601 806 2424 806 2265 806 C 2164 806 2068 806 1968 801 C 1968 796 1968 787 1968 777 C 1968 763 1972 753 1972 748 C 1977 748 2150 748 2366 748 C 2721 748 2750 748 2755 753 M 3556 753 C 3556 782 3556 792 3556 796 C 3552 801 3470 806 3158 806 C 3028 806 2899 806 2769 806 C 2769 792 2769 787 2769 772 C 2769 768 2769 753 2769 748 C 2899 748 3028 748 3158 748 C 3532 748 3556 748 3556 753 M 4358 753 C 4358 758 4363 768 4363 772 C 4363 806 4396 806 3960 806 C 3830 806 3700 806 3571 806 C 3571 792 3571 787 3571 772 C 3571 768 3571 753 3571 748 C 3700 748 3830 748 3960 748 C 4315 748 4353 748 4358 753 M 5212 772 C 5212 782 5212 792 5212 801 C 5073 801 4934 801 4790 801 C 4651 801 4512 801 4372 806 C 4372 796 4372 787 4372 772 C 4372 763 4372 753 4372 744 C 4512 748 4651 748 4790 748 C 4934 748 5073 748 5212 748 C 5212 758 5212 768 5212 772 M 240 763 C 235 777 220 787 216 777 C 206 763 211 748 230 748 C 244 748 249 753 240 763 M 1478 820 C 1483 820 1483 825 1488 835 C 1488 844 1488 844 1526 844 C 1540 844 1555 844 1569 849 C 1569 844 1569 840 1569 835 C 1569 816 1579 816 1771 816 C 1972 816 1963 811 1958 849 C 1958 854 1958 864 1958 868 C 1814 868 1670 868 1526 868 C 1382 868 1238 868 1094 873 C 1094 864 1094 854 1094 844 C 1094 835 1094 825 1094 820 C 1118 816 1147 816 1171 816 C 1276 816 1473 816 1478 820 M 2313 816 C 2318 820 2318 825 2323 830 C 2323 844 2323 844 2361 844 C 2376 844 2385 844 2400 844 C 2400 840 2400 835 2400 830 C 2404 825 2404 820 2404 816 C 2462 816 2520 816 2577 816 C 2635 816 2692 816 2750 816 C 2750 820 2750 825 2755 830 C 2755 840 2755 854 2755 859 C 2755 864 2750 868 2750 873 C 2620 868 2491 868 2361 868 C 2232 868 2102 868 1972 868 C 1972 859 1972 854 1972 844 C 1968 825 1972 820 1977 816 C 1992 811 2308 811 2313 816 M 3115 830 C 3120 844 3124 844 3153 844 C 3196 844 3201 844 3201 825 C 3201 820 3201 816 3201 811 C 3264 811 3321 811 3379 811 C 3436 811 3494 811 3556 811 C 3556 825 3556 830 3556 844 C 3556 854 3556 859 3556 873 C 3422 873 3292 873 3158 873 C 3028 873 2899 873 2769 873 C 2769 864 2769 854 2769 844 C 2769 830 2769 820 2769 816 C 2774 816 2851 816 2942 816 C 3000 816 3057 816 3115 816 C 3115 820 3115 825 3115 830 M 3916 830 C 3921 844 3936 849 3974 844 C 3998 844 4003 840 4008 820 C 4008 816 4022 811 4180 811 C 4377 811 4363 811 4358 849 C 4358 859 4353 864 4353 873 C 4224 873 4094 873 3960 873 C 3830 873 3700 873 3571 873 C 3571 864 3571 854 3571 844 C 3571 830 3571 820 3571 816 C 3576 816 3652 816 3744 816 C 3801 816 3859 816 3916 816 C 3916 820 3916 825 3916 830 M 4747 825 C 4747 844 4761 849 4804 844 C 4838 844 4833 844 4838 830 C 4838 825 4838 820 4838 816 C 4900 816 4963 816 5025 816 C 5088 816 5150 816 5212 816 C 5212 825 5212 835 5212 844 C 5212 849 5212 859 5212 868 C 5073 868 4934 868 4790 868 C 4651 868 4512 868 4372 873 C 4372 864 4372 854 4372 844 C 4372 830 4372 820 4372 816 C 4377 816 4459 811 4564 811 C 4627 811 4689 811 4747 811 C 4747 816 4747 820 4747 825 M 182 825 C 182 825 172 840 163 849 C 153 859 148 864 144 873 C 129 873 120 873 105 873 C 96 873 81 868 72 868 C 72 864 72 854 72 844 C 72 835 72 825 72 816 C 86 816 105 816 124 816 C 163 816 182 820 182 825 M 388 835 C 393 849 398 849 403 830 C 408 816 412 811 412 825 C 412 835 427 840 427 830 C 432 820 432 816 556 816 C 595 816 638 816 681 816 C 681 825 681 835 681 844 C 681 854 681 864 681 868 C 609 873 537 873 470 873 C 216 873 235 873 230 854 C 225 820 230 816 316 820 C 340 820 364 820 388 820 C 388 825 388 830 388 835 M 873 820 C 873 825 868 835 864 844 C 859 854 849 864 849 868 C 849 868 820 868 772 868 C 681 868 686 868 691 835 C 691 830 691 825 696 816 C 724 816 753 816 787 816 C 835 816 873 820 873 820 M 1080 844 C 1080 854 1080 859 1080 868 C 1051 868 1017 868 988 868 C 892 873 888 868 907 849 C 916 844 921 835 921 830 C 921 825 921 820 921 816 C 945 820 974 820 998 820 C 1027 820 1051 820 1080 820 C 1080 830 1080 835 1080 844 M 628 888 C 643 888 662 888 681 888 C 681 888 681 892 681 897 C 681 907 676 912 662 912 C 648 912 638 912 628 926 C 624 931 614 936 609 940 C 561 940 518 940 470 940 C 331 940 316 940 316 931 C 316 931 312 916 307 907 C 297 897 292 888 292 888 C 292 883 523 883 552 883 C 566 883 600 888 628 888 M 873 892 C 883 907 883 916 873 916 C 868 916 859 921 849 931 C 844 936 840 940 835 945 C 811 945 787 940 768 940 C 691 940 691 940 691 907 C 686 883 691 883 782 883 C 859 883 864 883 873 892 M 1080 883 C 1084 888 1084 931 1080 936 C 1070 940 931 945 926 940 C 916 931 892 902 892 892 C 892 888 897 888 916 883 C 936 883 1065 883 1080 883 M 1953 883 C 1958 888 1958 892 1958 912 C 1958 921 1958 931 1958 936 C 1920 940 1876 940 1833 940 C 1766 940 1579 940 1425 940 C 1272 940 1132 940 1118 940 C 1108 940 1099 936 1094 936 C 1094 931 1094 921 1094 912 C 1094 892 1094 888 1099 883 C 1113 878 1944 878 1953 883 M 2755 883 C 2755 888 2755 902 2755 912 C 2755 921 2750 931 2750 936 C 2702 940 2654 940 2606 940 C 2476 940 2227 940 2044 940 C 2020 940 1996 940 1968 936 C 1968 931 1968 921 1968 912 C 1968 897 1972 888 1972 883 C 1977 878 2750 878 2755 883 M 3556 888 C 3556 892 3556 907 3556 931 C 3556 936 3470 936 3158 936 C 3028 936 2899 936 2769 936 C 2769 931 2769 916 2769 912 C 2769 897 2769 892 2769 878 C 2899 878 3028 878 3158 878 C 3470 878 3552 883 3556 888 M 4358 888 C 4358 892 4363 902 4363 912 C 4363 940 4396 936 3960 936 C 3830 936 3700 936 3571 936 C 3571 931 3571 916 3571 912 C 3571 897 3571 892 3571 878 C 3700 878 3830 878 3960 878 C 4315 878 4353 883 4358 888 M 5212 912 C 5212 921 5212 931 5217 936 C 5073 936 4934 936 4795 936 C 4651 936 4512 936 4372 936 C 4372 931 4372 916 4372 907 C 4372 897 4372 888 4372 878 C 4512 883 4651 883 4790 883 C 4934 883 5073 883 5212 883 C 5212 892 5212 902 5212 912 M 134 892 C 134 897 129 912 129 921 C 124 931 124 940 120 940 C 115 940 110 940 100 940 C 72 945 72 940 72 912 C 72 902 72 892 72 888 C 81 888 91 888 105 888 C 134 888 139 888 134 892 M 196 888 C 196 888 192 897 187 907 C 177 916 177 931 177 931 C 177 940 163 940 158 936 C 153 931 177 888 187 888 C 192 888 196 888 196 888 M 225 916 C 225 921 230 926 230 931 C 235 936 230 936 216 936 C 196 936 192 926 211 916 C 220 907 225 907 225 916 M 273 921 C 288 931 288 936 268 936 C 249 936 240 931 240 916 C 240 907 259 907 273 921 M 1958 979 C 1958 988 1958 998 1963 1003 C 1814 1003 1670 1003 1526 1003 C 1382 1003 1238 1003 1094 1003 C 1094 998 1094 988 1094 979 C 1094 969 1094 960 1094 955 C 1099 955 1108 950 1113 950 C 1128 950 1320 950 1550 950 C 1684 950 1819 950 1958 950 C 1958 960 1958 969 1958 979 M 2750 979 C 2750 988 2750 998 2750 1008 C 2620 1003 2491 1003 2361 1003 C 2232 1003 2102 1003 1972 1003 C 1972 998 1972 988 1972 984 C 1972 969 1972 960 1972 955 C 1972 950 2035 950 2361 950 C 2491 950 2625 950 2750 950 C 2750 960 2750 964 2750 979 M 3556 955 C 3556 960 3556 974 3556 984 C 3556 993 3552 998 3552 1003 C 3422 1003 3292 1003 3158 1003 C 3028 1003 2899 1003 2769 1003 C 2769 998 2769 988 2769 979 C 2769 964 2769 955 2769 950 C 2774 950 2947 950 3163 950 C 3532 945 3552 950 3556 955 M 4358 960 C 4358 964 4363 979 4358 988 C 4358 993 4358 998 4358 1003 C 4228 1003 4094 1003 3964 1003 C 3830 1003 3700 1003 3571 1008 C 3571 998 3571 988 3571 979 C 3571 964 3571 955 3571 950 C 3576 950 3748 950 3964 950 C 4094 950 4224 950 4353 950 C 4358 950 4358 955 4358 960 M 5212 979 C 5212 988 5212 998 5217 1003 C 5073 1003 4934 1003 4795 1003 C 4651 1003 4512 1003 4372 1003 C 4372 998 4372 984 4372 974 C 4372 964 4372 955 4372 945 C 4512 950 4651 950 4790 950 C 4934 950 5073 950 5212 950 C 5212 960 5212 969 5212 979 M 139 969 C 144 979 153 988 158 988 C 172 1003 163 1003 115 1003 C 100 1003 86 1003 72 1003 C 72 998 72 988 72 979 C 72 969 72 960 72 955 C 81 955 91 955 100 955 C 129 955 129 955 139 969 M 187 969 C 201 988 225 1003 230 998 C 235 998 230 993 230 993 C 216 988 196 964 196 960 C 196 955 201 955 211 955 C 235 955 240 960 244 984 C 244 993 244 998 244 1003 C 235 1003 230 1003 220 1003 C 201 1003 177 988 168 969 C 153 945 168 945 187 969 M 288 964 C 288 974 273 998 264 998 C 259 998 254 979 254 964 C 249 955 254 955 268 955 C 288 955 288 955 288 964 M 609 960 C 614 979 643 984 672 974 C 676 969 681 974 681 988 C 681 993 681 998 681 1003 C 614 1003 547 1003 484 1003 C 292 1003 288 1003 292 998 C 297 988 302 984 302 984 C 307 984 312 974 312 964 C 312 960 312 955 316 955 C 364 955 412 955 460 955 C 600 955 609 955 609 960 M 864 969 C 883 993 897 993 883 969 C 878 964 873 960 873 955 C 873 955 921 955 979 955 C 1012 955 1046 955 1084 955 C 1084 960 1080 969 1080 979 C 1080 984 1080 993 1080 1003 C 1012 1003 950 1003 883 1003 C 820 1003 753 1003 691 1003 C 691 998 691 988 691 979 C 691 950 686 955 768 955 C 796 955 820 955 844 955 C 849 960 859 964 864 969 M 3542 1377 C 3556 1377 3556 1377 3552 1401 C 3552 1411 3552 1420 3552 1430 C 3484 1430 3412 1430 3345 1430 C 3139 1435 3139 1430 3134 1420 C 3124 1396 3091 1392 3067 1420 C 3052 1430 3052 1430 3000 1430 C 2937 1430 2937 1430 2947 1411 C 2952 1406 2956 1392 2956 1387 C 2956 1382 2956 1377 2956 1377 C 3009 1377 3062 1377 3115 1377 C 3254 1377 3273 1377 3264 1382 C 3259 1387 3259 1392 3268 1396 C 3278 1406 3288 1401 3283 1387 C 3283 1382 3283 1377 3283 1377 C 3312 1372 3345 1372 3379 1372 C 3432 1372 3489 1372 3504 1372 C 3518 1372 3537 1377 3542 1377 M 3672 1377 C 3672 1377 3672 1387 3662 1406 C 3662 1411 3657 1420 3657 1430 C 3643 1430 3628 1430 3614 1430 C 3600 1430 3585 1430 3571 1430 C 3571 1420 3571 1411 3571 1406 C 3571 1377 3571 1377 3580 1372 C 3590 1372 3672 1372 3672 1377 M 4065 1372 C 4075 1377 4075 1425 4065 1430 C 4060 1430 4027 1430 3993 1430 C 3916 1430 3912 1430 3912 1416 C 3912 1401 3902 1401 3897 1416 C 3897 1420 3897 1425 3897 1430 C 3868 1430 3844 1430 3816 1430 C 3724 1430 3724 1430 3734 1416 C 3739 1406 3739 1396 3739 1387 C 3744 1382 3744 1377 3744 1372 C 3744 1372 3974 1372 4065 1372 M 4233 1372 C 4243 1372 4252 1372 4262 1377 C 4262 1382 4262 1392 4262 1401 C 4262 1435 4267 1435 4166 1430 C 4137 1430 4108 1430 4084 1430 C 4084 1420 4084 1411 4084 1401 C 4084 1392 4080 1382 4080 1377 C 4094 1372 4108 1372 4123 1372 C 4147 1372 4176 1372 4185 1372 C 4195 1372 4219 1372 4233 1372 M 4344 1372 C 4348 1372 4358 1372 4363 1377 C 4363 1382 4358 1392 4358 1401 C 4358 1411 4358 1420 4358 1430 C 4344 1430 4329 1430 4320 1430 C 4305 1430 4291 1430 4276 1430 C 4276 1420 4276 1416 4276 1406 C 4272 1372 4276 1368 4305 1372 C 4320 1372 4334 1372 4344 1372 M 4526 1372 C 4531 1372 4536 1382 4531 1401 C 4531 1411 4531 1420 4531 1430 C 4507 1430 4483 1430 4464 1430 C 4368 1435 4372 1435 4372 1401 C 4372 1382 4372 1377 4377 1372 C 4387 1372 4507 1372 4526 1372 M 5116 1372 C 5150 1372 5184 1372 5212 1377 C 5212 1382 5212 1392 5212 1401 C 5212 1430 5212 1430 5160 1430 C 5116 1430 5112 1430 5112 1416 C 5112 1401 5102 1401 5097 1416 C 5097 1420 5097 1425 5097 1430 C 5068 1430 5035 1430 5006 1430 C 4958 1430 4915 1430 4910 1430 C 4910 1425 4910 1416 4915 1411 C 4920 1401 4920 1392 4920 1387 C 4915 1372 4924 1372 4982 1372 C 5001 1372 5064 1372 5116 1372 M 158 1377 C 158 1382 153 1392 144 1406 C 139 1416 139 1425 134 1430 C 124 1430 110 1430 100 1430 C 91 1430 81 1430 72 1430 C 72 1420 72 1416 72 1401 C 72 1396 72 1382 72 1377 C 81 1377 96 1377 110 1377 C 134 1377 158 1377 158 1377 M 388 1382 C 388 1382 388 1387 388 1392 C 384 1392 384 1406 379 1416 C 379 1420 379 1425 379 1430 C 369 1430 360 1430 350 1430 C 340 1430 331 1430 321 1435 C 321 1425 321 1420 321 1416 C 326 1392 321 1387 302 1392 C 288 1396 288 1396 292 1416 C 292 1435 288 1440 283 1420 C 278 1416 273 1406 268 1396 C 259 1387 259 1382 254 1377 C 254 1372 384 1372 388 1382 M 609 1396 C 609 1406 609 1420 609 1425 C 604 1430 600 1430 523 1430 C 427 1430 427 1430 436 1406 C 436 1396 441 1382 441 1382 C 441 1377 460 1377 528 1377 C 552 1377 580 1377 609 1377 C 609 1382 609 1392 609 1396 M 854 1377 C 854 1382 854 1387 849 1387 C 849 1392 844 1401 844 1411 C 840 1416 840 1425 840 1430 C 816 1430 787 1430 763 1430 C 686 1435 672 1430 681 1416 C 686 1416 686 1406 686 1396 C 686 1387 691 1382 691 1377 C 696 1372 854 1372 854 1377 M 1080 1401 C 1080 1411 1080 1420 1080 1430 C 1051 1430 1022 1430 993 1430 C 945 1430 907 1430 907 1430 C 907 1430 912 1420 916 1411 C 921 1401 921 1387 921 1382 C 916 1377 921 1377 998 1377 C 1027 1377 1056 1377 1084 1377 C 1084 1382 1080 1392 1080 1401 M 1195 1387 C 1190 1396 1185 1406 1185 1416 C 1180 1420 1180 1425 1180 1430 C 1166 1430 1152 1430 1137 1430 C 1123 1430 1108 1430 1094 1435 C 1094 1425 1094 1416 1094 1406 C 1094 1396 1094 1387 1094 1377 C 1108 1377 1128 1377 1147 1377 C 1166 1377 1185 1377 1204 1377 C 1200 1377 1200 1382 1195 1387 M 1641 1401 C 1641 1411 1641 1420 1641 1430 C 1579 1430 1512 1430 1449 1430 C 1382 1430 1320 1430 1252 1435 C 1257 1430 1257 1425 1257 1420 C 1257 1416 1262 1401 1262 1392 C 1262 1387 1267 1382 1267 1377 C 1329 1377 1392 1377 1454 1377 C 1516 1377 1579 1377 1646 1377 C 1641 1382 1641 1392 1641 1401 M 1838 1387 C 1838 1392 1843 1406 1838 1416 C 1838 1420 1838 1425 1838 1430 C 1809 1430 1776 1430 1747 1430 C 1718 1430 1684 1430 1656 1430 C 1656 1420 1656 1411 1656 1401 C 1656 1392 1651 1382 1651 1377 C 1684 1377 1713 1377 1742 1377 C 1776 1377 1804 1377 1833 1377 C 1838 1377 1838 1382 1838 1387 M 1958 1401 C 1958 1411 1958 1420 1958 1430 C 1939 1430 1920 1430 1905 1430 C 1886 1430 1867 1430 1852 1435 C 1852 1425 1852 1416 1852 1406 C 1852 1396 1852 1387 1852 1377 C 1867 1377 1886 1377 1905 1377 C 1924 1377 1944 1377 1963 1377 C 1958 1382 1958 1392 1958 1401 M 2107 1387 C 2107 1396 2112 1401 2112 1401 C 2116 1401 2121 1396 2121 1387 C 2121 1382 2121 1377 2121 1372 C 2179 1377 2241 1377 2299 1377 C 2356 1377 2419 1377 2476 1377 C 2476 1387 2476 1396 2476 1401 C 2476 1411 2476 1420 2476 1430 C 2390 1430 2308 1430 2222 1430 C 2140 1430 2059 1430 1972 1430 C 1972 1420 1972 1411 1972 1401 C 1972 1392 1968 1382 1968 1377 C 1992 1377 2016 1377 2040 1377 C 2064 1377 2083 1377 2107 1377 C 2107 1377 2107 1382 2107 1387 M 2755 1392 C 2755 1401 2755 1416 2755 1420 C 2755 1425 2755 1430 2750 1435 C 2707 1430 2664 1430 2620 1430 C 2577 1430 2534 1430 2491 1430 C 2491 1420 2491 1411 2491 1401 C 2491 1392 2491 1382 2486 1372 C 2534 1377 2577 1377 2620 1377 C 2664 1377 2712 1377 2755 1377 C 2755 1382 2755 1387 2755 1392 M 2884 1382 C 2880 1392 2870 1420 2870 1425 C 2870 1430 2856 1430 2817 1430 C 2803 1430 2784 1430 2769 1430 C 2769 1420 2769 1416 2769 1401 C 2769 1396 2769 1382 2769 1377 C 2788 1377 2808 1377 2827 1377 C 2884 1377 2889 1377 2884 1382 M 4694 1387 C 4689 1396 4699 1406 4708 1396 C 4713 1396 4713 1392 4713 1382 C 4708 1377 4713 1377 4780 1377 C 4824 1377 4852 1377 4852 1377 C 4843 1396 4843 1406 4838 1420 C 4838 1425 4838 1430 4833 1430 C 4785 1430 4737 1430 4689 1430 C 4641 1430 4593 1430 4545 1430 C 4545 1420 4545 1411 4545 1401 C 4545 1392 4540 1382 4540 1377 C 4569 1377 4593 1377 4617 1377 C 4694 1377 4694 1377 4694 1387 M 211 1387 C 225 1392 240 1416 235 1425 C 230 1435 206 1435 196 1420 C 192 1416 187 1416 182 1416 C 172 1416 172 1411 172 1401 C 172 1387 187 1382 211 1387 M 144 1449 C 153 1464 187 1464 196 1449 C 201 1444 211 1440 220 1444 C 235 1444 240 1459 230 1488 C 225 1492 225 1497 225 1502 C 196 1497 172 1497 148 1497 C 120 1497 96 1497 72 1497 C 72 1492 72 1483 72 1478 C 67 1444 72 1444 105 1444 C 129 1444 139 1444 144 1449 M 292 1459 C 288 1478 297 1488 316 1483 C 321 1478 326 1478 321 1464 C 321 1454 321 1449 321 1444 C 331 1444 345 1444 355 1444 C 384 1444 388 1444 388 1454 C 388 1459 388 1464 388 1464 C 384 1464 379 1473 379 1483 C 379 1488 379 1492 374 1502 C 360 1502 340 1502 321 1502 C 259 1502 259 1502 273 1473 C 292 1435 297 1435 292 1459 M 609 1468 C 609 1478 609 1488 609 1497 C 580 1497 552 1497 523 1497 C 432 1502 427 1497 436 1478 C 441 1468 441 1459 441 1449 C 436 1440 441 1440 523 1444 C 552 1444 580 1444 609 1444 C 609 1454 609 1464 609 1468 M 840 1468 C 840 1478 840 1488 840 1497 C 806 1497 768 1497 729 1497 C 696 1497 662 1497 624 1497 C 624 1492 624 1483 624 1478 C 619 1440 614 1440 734 1444 C 768 1444 806 1444 840 1444 C 840 1454 840 1464 840 1468 M 1080 1468 C 1080 1478 1080 1488 1080 1497 C 1041 1497 1003 1497 969 1497 C 931 1497 892 1497 854 1497 C 854 1488 854 1478 854 1468 C 854 1459 849 1449 849 1440 C 888 1444 926 1444 964 1444 C 1003 1444 1041 1444 1080 1444 C 1080 1454 1080 1464 1080 1468 M 1180 1473 C 1180 1483 1180 1492 1180 1502 C 1166 1497 1152 1497 1137 1497 C 1123 1497 1108 1497 1094 1497 C 1094 1488 1094 1478 1094 1468 C 1094 1459 1094 1449 1089 1444 C 1108 1444 1123 1444 1137 1444 C 1152 1444 1166 1444 1180 1444 C 1180 1454 1180 1464 1180 1473 M 1641 1468 C 1641 1478 1641 1488 1641 1497 C 1612 1497 1584 1497 1555 1497 C 1526 1497 1497 1502 1468 1502 C 1464 1497 1459 1488 1459 1483 C 1440 1464 1406 1468 1392 1488 C 1392 1492 1387 1497 1382 1502 C 1353 1502 1320 1502 1291 1502 C 1257 1502 1228 1502 1195 1502 C 1195 1488 1195 1483 1195 1468 C 1195 1464 1195 1449 1195 1444 C 1272 1444 1348 1444 1420 1444 C 1497 1444 1569 1444 1646 1444 C 1641 1449 1641 1459 1641 1468 M 1838 1468 C 1838 1478 1838 1488 1838 1497 C 1809 1497 1785 1497 1756 1497 C 1651 1502 1651 1502 1651 1473 C 1651 1459 1656 1449 1656 1444 C 1660 1444 1699 1444 1747 1444 C 1780 1444 1809 1444 1838 1444 C 1838 1454 1838 1464 1838 1468 M 1958 1468 C 1958 1478 1958 1488 1958 1497 C 1939 1497 1924 1497 1905 1497 C 1886 1497 1872 1497 1852 1497 C 1852 1488 1852 1478 1852 1468 C 1852 1459 1852 1449 1848 1440 C 1867 1444 1886 1444 1905 1444 C 1920 1444 1939 1444 1958 1444 C 1958 1454 1958 1464 1958 1468 M 2073 1444 C 2073 1449 2073 1459 2068 1464 C 2064 1473 2064 1483 2064 1488 C 2059 1497 2049 1502 2006 1497 C 1996 1497 1982 1497 1972 1497 C 1972 1488 1972 1478 1972 1468 C 1972 1459 1968 1449 1968 1444 C 1987 1444 2006 1444 2020 1444 C 2054 1444 2073 1444 2073 1444 M 2476 1468 C 2481 1502 2481 1497 2390 1497 C 2323 1502 2318 1497 2318 1488 C 2304 1464 2280 1459 2251 1488 C 2232 1497 2232 1502 2188 1497 C 2136 1497 2131 1497 2136 1483 C 2140 1478 2140 1464 2140 1459 C 2140 1454 2140 1444 2140 1440 C 2198 1444 2256 1444 2308 1444 C 2366 1444 2419 1444 2476 1444 C 2476 1454 2476 1459 2476 1468 M 2755 1449 C 2760 1459 2760 1478 2750 1492 C 2745 1507 2664 1502 2659 1488 C 2649 1464 2616 1459 2592 1488 C 2577 1502 2577 1502 2534 1497 C 2520 1497 2505 1497 2491 1497 C 2491 1488 2491 1478 2491 1468 C 2491 1459 2491 1449 2486 1444 C 2534 1444 2577 1444 2620 1444 C 2736 1444 2750 1444 2755 1449 M 2870 1468 C 2870 1497 2870 1502 2822 1502 C 2769 1502 2769 1497 2769 1468 C 2769 1459 2769 1449 2769 1444 C 2784 1444 2803 1444 2822 1444 C 2836 1444 2856 1444 2870 1444 C 2870 1449 2870 1459 2870 1468 M 3052 1468 C 3052 1478 3052 1488 3052 1497 C 3024 1497 2995 1497 2971 1497 C 2942 1497 2913 1497 2884 1497 C 2884 1492 2884 1483 2884 1478 C 2880 1440 2875 1444 2971 1444 C 3000 1444 3028 1444 3057 1444 C 3052 1449 3052 1459 3052 1468 M 3235 1459 C 3225 1468 3225 1483 3225 1488 C 3225 1497 3211 1502 3134 1497 C 3110 1497 3091 1497 3067 1497 C 3067 1492 3067 1488 3067 1483 C 3062 1473 3067 1468 3086 1468 C 3105 1468 3110 1468 3120 1459 C 3120 1454 3124 1449 3129 1444 C 3148 1444 3168 1444 3187 1444 C 3206 1444 3225 1444 3244 1444 C 3240 1449 3235 1454 3235 1459 M 3556 1454 C 3566 1492 3556 1497 3518 1497 C 3499 1502 3494 1497 3480 1483 C 3460 1464 3441 1464 3417 1483 C 3403 1497 3398 1502 3355 1502 C 3292 1502 3288 1497 3297 1483 C 3302 1478 3302 1468 3302 1459 C 3302 1454 3302 1449 3302 1444 C 3345 1444 3388 1444 3427 1444 C 3470 1444 3513 1444 3552 1444 C 3552 1444 3556 1449 3556 1454 M 3657 1468 C 3657 1478 3657 1488 3657 1497 C 3648 1497 3643 1497 3633 1497 C 3619 1497 3600 1497 3590 1497 C 3580 1497 3576 1497 3571 1492 C 3571 1488 3571 1478 3571 1468 C 3571 1459 3571 1449 3571 1444 C 3585 1444 3600 1444 3614 1444 C 3628 1444 3643 1444 3662 1444 C 3657 1449 3657 1459 3657 1468 M 3897 1468 C 3897 1478 3897 1488 3897 1497 C 3864 1497 3830 1497 3796 1497 C 3662 1497 3667 1497 3667 1473 C 3667 1459 3672 1449 3672 1444 C 3676 1444 3724 1444 3787 1444 C 3825 1444 3864 1444 3902 1444 C 3902 1449 3897 1459 3897 1468 M 4070 1468 C 4075 1497 4075 1497 3993 1497 C 3912 1497 3912 1497 3912 1473 C 3912 1459 3912 1449 3912 1444 C 3916 1444 3950 1444 3993 1444 C 4017 1444 4046 1444 4070 1444 C 4070 1454 4070 1459 4070 1468 M 4262 1468 C 4267 1502 4267 1502 4161 1497 C 4132 1497 4108 1497 4084 1497 C 4084 1488 4084 1478 4084 1468 C 4084 1459 4080 1449 4080 1440 C 4113 1444 4142 1444 4171 1444 C 4200 1444 4233 1444 4262 1444 C 4262 1454 4262 1459 4262 1468 M 4358 1459 C 4363 1497 4358 1502 4324 1502 C 4276 1502 4272 1497 4272 1468 C 4272 1459 4272 1449 4272 1440 C 4286 1444 4300 1444 4315 1444 C 4329 1444 4344 1444 4358 1444 C 4358 1449 4358 1454 4358 1459 M 4531 1468 C 4531 1478 4531 1488 4531 1497 C 4507 1497 4478 1497 4454 1497 C 4425 1497 4396 1497 4372 1497 C 4372 1488 4372 1478 4372 1468 C 4372 1459 4372 1449 4368 1444 C 4396 1444 4425 1444 4454 1444 C 4478 1444 4507 1444 4536 1444 C 4531 1449 4531 1459 4531 1468 M 4660 1454 C 4656 1459 4651 1468 4651 1478 C 4651 1497 4646 1497 4593 1497 C 4579 1497 4560 1497 4545 1497 C 4545 1488 4545 1478 4545 1468 C 4545 1459 4540 1449 4540 1444 C 4564 1444 4584 1444 4608 1444 C 4627 1444 4646 1444 4670 1444 C 4665 1444 4665 1449 4660 1454 M 4838 1468 C 4838 1497 4838 1497 4771 1497 C 4723 1497 4713 1492 4723 1478 C 4728 1473 4728 1464 4728 1459 C 4728 1454 4728 1449 4728 1444 C 4747 1444 4766 1444 4785 1444 C 4804 1444 4824 1444 4838 1444 C 4838 1449 4838 1459 4838 1468 M 5102 1468 C 5102 1502 5107 1502 4968 1502 C 4929 1502 4891 1502 4848 1502 C 4848 1488 4848 1483 4848 1468 C 4848 1464 4848 1449 4848 1444 C 4891 1444 4934 1444 4977 1444 C 5016 1444 5059 1444 5102 1444 C 5102 1449 5102 1459 5102 1468 M 5212 1468 C 5217 1497 5212 1497 5160 1497 C 5112 1502 5112 1497 5112 1468 C 5112 1459 5112 1449 5112 1440 C 5126 1444 5145 1444 5160 1444 C 5179 1444 5193 1444 5212 1444 C 5212 1454 5212 1459 5212 1468 M 3556 1531 C 3561 1564 3556 1569 3489 1564 C 3417 1564 3417 1564 3417 1550 C 3417 1540 3417 1536 3432 1536 C 3446 1536 3475 1521 3475 1516 C 3475 1507 3508 1507 3537 1507 C 3542 1512 3552 1512 3556 1512 C 3556 1516 3556 1526 3556 1531 M 4070 1536 C 4070 1545 4070 1550 4070 1560 C 4056 1560 4041 1564 4022 1564 C 3921 1569 3912 1569 3912 1536 C 3912 1507 3912 1507 3998 1507 C 4022 1507 4046 1507 4070 1512 C 4070 1516 4070 1526 4070 1536 M 211 1516 C 211 1521 196 1531 182 1545 C 153 1564 153 1564 110 1564 C 100 1564 86 1564 72 1564 C 72 1560 72 1550 72 1545 C 67 1507 67 1507 139 1507 C 196 1507 211 1512 211 1516 M 388 1526 C 393 1540 403 1540 403 1521 C 408 1507 412 1507 417 1521 C 417 1526 422 1526 422 1526 C 427 1526 427 1526 432 1521 C 432 1512 436 1507 518 1507 C 547 1507 576 1507 604 1507 C 609 1512 609 1516 609 1521 C 609 1526 614 1540 609 1550 C 609 1555 609 1560 609 1564 C 542 1564 470 1564 403 1564 C 288 1564 192 1564 187 1564 C 187 1560 196 1550 216 1536 C 225 1526 240 1516 249 1512 C 273 1512 297 1512 321 1512 C 340 1512 364 1512 388 1512 C 388 1516 388 1521 388 1526 M 840 1536 C 840 1545 840 1555 840 1564 C 801 1564 768 1564 729 1564 C 696 1564 657 1564 624 1569 C 624 1560 624 1550 624 1540 C 624 1526 624 1516 624 1512 C 628 1512 676 1512 734 1512 C 768 1512 806 1512 840 1512 C 840 1521 840 1531 840 1536 M 1080 1536 C 1080 1545 1080 1555 1080 1564 C 1041 1564 1003 1564 969 1564 C 931 1564 892 1564 854 1564 C 854 1560 854 1550 854 1545 C 849 1507 844 1507 969 1507 C 1008 1507 1046 1507 1084 1507 C 1084 1516 1080 1526 1080 1536 M 1180 1540 C 1180 1550 1180 1560 1180 1569 C 1166 1564 1152 1564 1137 1564 C 1123 1564 1108 1564 1094 1564 C 1094 1555 1094 1545 1094 1536 C 1094 1526 1094 1516 1089 1507 C 1108 1507 1123 1507 1137 1507 C 1152 1507 1166 1507 1180 1507 C 1180 1521 1180 1531 1180 1540 M 1377 1536 C 1377 1545 1377 1555 1377 1564 C 1348 1564 1315 1564 1286 1564 C 1257 1564 1228 1564 1195 1569 C 1195 1560 1195 1550 1195 1540 C 1195 1531 1195 1521 1195 1507 C 1228 1507 1257 1507 1291 1507 C 1320 1507 1348 1507 1382 1507 C 1382 1516 1377 1526 1377 1536 M 1593 1512 C 1593 1516 1588 1521 1584 1526 C 1579 1526 1579 1536 1579 1550 C 1579 1555 1579 1560 1579 1569 C 1545 1564 1516 1564 1483 1564 C 1454 1564 1420 1564 1392 1564 C 1392 1560 1392 1555 1392 1550 C 1387 1540 1392 1540 1406 1540 C 1425 1540 1454 1526 1454 1512 C 1454 1512 1488 1507 1521 1507 C 1560 1507 1593 1512 1593 1512 M 1838 1521 C 1843 1531 1838 1531 1828 1531 C 1814 1531 1795 1545 1780 1555 C 1771 1564 1766 1569 1704 1569 C 1684 1569 1660 1569 1636 1569 C 1641 1564 1641 1560 1646 1555 C 1651 1545 1651 1536 1651 1526 C 1651 1507 1656 1507 1747 1512 C 1838 1512 1838 1512 1838 1521 M 1958 1536 C 1958 1569 1958 1569 1896 1564 C 1881 1564 1867 1564 1852 1564 C 1852 1555 1852 1545 1852 1536 C 1852 1526 1852 1516 1848 1507 C 1867 1507 1886 1507 1905 1507 C 1924 1507 1944 1507 1958 1507 C 1958 1516 1958 1526 1958 1536 M 2064 1526 C 2068 1564 2064 1569 2016 1564 C 2001 1564 1987 1564 1972 1564 C 1972 1555 1972 1545 1972 1536 C 1972 1526 1968 1516 1968 1507 C 1987 1507 2001 1507 2016 1507 C 2030 1507 2044 1507 2059 1507 C 2059 1516 2064 1521 2064 1526 M 2232 1536 C 2232 1545 2232 1555 2232 1564 C 2208 1564 2188 1564 2164 1564 C 2073 1569 2073 1569 2073 1536 C 2073 1526 2073 1516 2073 1507 C 2102 1507 2131 1507 2155 1507 C 2184 1507 2208 1507 2236 1507 C 2232 1516 2232 1526 2232 1536 M 2419 1512 C 2419 1512 2419 1521 2414 1531 C 2409 1536 2409 1545 2409 1550 C 2414 1564 2400 1569 2332 1569 C 2265 1569 2241 1564 2246 1550 C 2246 1545 2251 1540 2260 1540 C 2275 1545 2299 1531 2308 1516 C 2313 1512 2318 1507 2366 1507 C 2395 1507 2419 1512 2419 1512 M 2577 1531 C 2582 1564 2577 1569 2529 1569 C 2476 1569 2472 1564 2481 1545 C 2486 1540 2491 1526 2491 1521 C 2491 1516 2491 1512 2491 1507 C 2505 1512 2520 1512 2534 1512 C 2548 1512 2563 1512 2577 1512 C 2577 1516 2577 1526 2577 1531 M 2755 1531 C 2760 1564 2755 1569 2673 1569 C 2596 1569 2587 1564 2587 1550 C 2587 1540 2592 1536 2601 1540 C 2611 1545 2635 1531 2649 1521 C 2659 1512 2664 1507 2707 1512 C 2721 1512 2740 1512 2755 1512 C 2755 1516 2755 1526 2755 1531 M 2870 1536 C 2870 1564 2870 1569 2822 1569 C 2769 1569 2769 1564 2769 1536 C 2769 1526 2769 1516 2769 1507 C 2784 1507 2803 1507 2822 1507 C 2836 1507 2856 1507 2870 1507 C 2870 1516 2870 1526 2870 1536 M 3052 1536 C 3052 1545 3052 1555 3052 1564 C 3024 1564 2995 1564 2971 1564 C 2942 1564 2913 1564 2884 1564 C 2884 1555 2884 1545 2884 1536 C 2884 1526 2880 1516 2880 1507 C 2908 1512 2937 1512 2966 1512 C 2995 1512 3024 1512 3052 1512 C 3052 1521 3052 1531 3052 1536 M 3225 1531 C 3225 1569 3225 1569 3139 1564 C 3115 1564 3091 1564 3067 1564 C 3067 1555 3067 1545 3067 1536 C 3067 1526 3062 1516 3062 1507 C 3091 1507 3115 1507 3144 1507 C 3168 1507 3196 1507 3220 1507 C 3220 1516 3225 1526 3225 1531 M 3398 1536 C 3398 1545 3398 1555 3398 1564 C 3369 1564 3345 1564 3316 1564 C 3292 1564 3268 1564 3240 1564 C 3240 1555 3240 1545 3240 1536 C 3240 1526 3240 1516 3235 1507 C 3264 1507 3292 1507 3316 1507 C 3345 1507 3374 1507 3403 1507 C 3403 1516 3398 1526 3398 1536 M 3657 1536 C 3657 1545 3657 1555 3657 1564 C 3643 1564 3628 1564 3614 1564 C 3600 1564 3585 1569 3571 1569 C 3571 1560 3571 1550 3571 1540 C 3571 1531 3571 1521 3571 1507 C 3585 1507 3600 1507 3614 1507 C 3628 1507 3643 1507 3662 1507 C 3657 1516 3657 1526 3657 1536 M 3897 1536 C 3897 1545 3897 1555 3897 1564 C 3864 1564 3825 1564 3792 1564 C 3715 1569 3681 1564 3676 1564 C 3672 1560 3672 1536 3672 1512 C 3672 1512 3724 1507 3787 1507 C 3825 1507 3864 1507 3902 1507 C 3902 1516 3897 1526 3897 1536 M 4262 1521 C 4262 1531 4262 1531 4252 1531 C 4233 1531 4209 1545 4204 1555 C 4200 1564 4190 1564 4142 1564 C 4123 1564 4104 1564 4084 1564 C 4084 1555 4084 1545 4084 1536 C 4084 1526 4080 1516 4080 1507 C 4113 1507 4142 1507 4171 1507 C 4204 1507 4233 1507 4262 1507 C 4262 1512 4262 1516 4262 1521 M 4363 1531 C 4363 1564 4353 1569 4310 1564 C 4300 1564 4286 1564 4276 1564 C 4276 1555 4276 1545 4276 1536 C 4276 1526 4272 1516 4272 1507 C 4286 1507 4300 1507 4315 1507 C 4329 1507 4344 1507 4363 1507 C 4363 1516 4363 1526 4363 1531 M 4473 1521 C 4468 1526 4468 1536 4468 1545 C 4468 1564 4459 1564 4411 1564 C 4396 1564 4387 1564 4372 1564 C 4372 1555 4372 1545 4372 1536 C 4372 1526 4372 1516 4368 1507 C 4387 1507 4406 1507 4425 1507 C 4444 1507 4464 1507 4483 1507 C 4478 1512 4478 1516 4473 1521 M 4651 1526 C 4656 1564 4656 1569 4598 1564 C 4536 1564 4526 1564 4536 1550 C 4540 1545 4540 1536 4540 1526 C 4540 1521 4540 1516 4540 1507 C 4560 1512 4579 1512 4598 1512 C 4617 1512 4632 1512 4651 1512 C 4651 1516 4651 1521 4651 1526 M 4838 1536 C 4843 1564 4838 1569 4747 1564 C 4718 1564 4694 1564 4665 1564 C 4665 1555 4665 1545 4665 1536 C 4665 1526 4665 1516 4660 1507 C 4689 1512 4723 1512 4752 1512 C 4780 1512 4809 1512 4838 1512 C 4838 1521 4838 1526 4838 1536 M 5102 1516 C 5102 1521 5107 1521 5107 1516 C 5112 1512 5126 1512 5164 1512 C 5179 1512 5198 1512 5212 1512 C 5212 1521 5212 1531 5212 1536 C 5212 1545 5212 1555 5212 1564 C 5150 1564 5092 1564 5030 1564 C 4972 1564 4915 1564 4852 1564 C 4852 1555 4852 1545 4852 1536 C 4852 1526 4848 1516 4848 1507 C 4891 1507 4934 1507 4972 1507 C 5068 1507 5097 1512 5102 1516 M 5376 1536 C 5376 1545 5376 1555 5376 1564 C 5352 1564 5332 1564 5308 1564 C 5227 1569 5227 1569 5227 1540 C 5227 1526 5227 1516 5227 1512 C 5232 1512 5265 1507 5304 1507 C 5328 1507 5352 1507 5380 1507 C 5380 1516 5376 1526 5376 1536 M 5606 1536 C 5606 1545 5606 1555 5606 1564 C 5572 1564 5534 1564 5500 1564 C 5467 1564 5428 1564 5395 1564 C 5395 1560 5395 1555 5395 1550 C 5390 1540 5395 1536 5409 1536 C 5428 1536 5433 1536 5448 1526 C 5452 1521 5457 1512 5462 1507 C 5486 1507 5510 1507 5534 1507 C 5558 1507 5582 1507 5611 1507 C 5606 1516 5606 1526 5606 1536 M 609 1608 C 609 1612 609 1622 609 1632 C 518 1632 427 1632 340 1632 C 249 1632 158 1632 72 1636 C 72 1627 72 1617 72 1608 C 72 1593 72 1584 72 1579 C 72 1579 196 1579 340 1579 C 432 1579 518 1579 609 1579 C 609 1588 609 1598 609 1608 M 840 1593 C 844 1603 840 1617 840 1622 C 840 1627 840 1632 835 1632 C 801 1632 763 1632 729 1632 C 691 1632 657 1632 624 1632 C 624 1622 624 1612 624 1603 C 624 1593 624 1584 624 1574 C 657 1579 696 1579 729 1579 C 768 1579 801 1579 840 1579 C 840 1584 840 1588 840 1593 M 1080 1608 C 1080 1612 1080 1622 1080 1632 C 1041 1632 1003 1632 969 1632 C 931 1632 892 1632 854 1632 C 854 1627 854 1617 854 1612 C 849 1574 844 1574 969 1579 C 1003 1579 1041 1579 1080 1579 C 1080 1588 1080 1598 1080 1608 M 1180 1608 C 1180 1617 1180 1627 1180 1636 C 1166 1632 1152 1632 1137 1632 C 1123 1632 1108 1632 1094 1632 C 1094 1622 1094 1612 1094 1603 C 1094 1593 1094 1584 1089 1574 C 1108 1574 1123 1574 1137 1574 C 1152 1574 1166 1574 1180 1574 C 1180 1588 1180 1598 1180 1608 M 1377 1603 C 1382 1632 1382 1632 1286 1632 C 1195 1636 1200 1636 1195 1608 C 1195 1574 1190 1574 1286 1579 C 1315 1579 1348 1579 1377 1579 C 1377 1588 1377 1593 1377 1603 M 1771 1588 C 1780 1598 1790 1603 1790 1608 C 1814 1608 1824 1603 1838 1588 C 1838 1584 1843 1579 1848 1574 C 1867 1579 1886 1579 1905 1579 C 1920 1579 1939 1579 1958 1579 C 1958 1588 1958 1593 1958 1603 C 1963 1627 1958 1627 1948 1632 C 1929 1636 1406 1636 1396 1632 C 1387 1627 1387 1588 1392 1579 C 1396 1579 1478 1574 1579 1574 C 1641 1574 1699 1574 1761 1574 C 1766 1579 1771 1584 1771 1588 M 2064 1588 C 2064 1632 2064 1632 2025 1632 C 1972 1632 1968 1632 1968 1603 C 1968 1593 1968 1584 1968 1574 C 1987 1574 2001 1574 2016 1574 C 2030 1574 2044 1574 2064 1574 C 2064 1579 2064 1584 2064 1588 M 2232 1603 C 2232 1627 2232 1627 2217 1632 C 2198 1636 2083 1632 2078 1627 C 2073 1627 2073 1598 2073 1584 C 2073 1579 2097 1574 2155 1574 C 2184 1574 2208 1574 2232 1574 C 2232 1584 2232 1593 2232 1603 M 2577 1598 C 2577 1612 2577 1622 2577 1627 C 2572 1632 2294 1636 2265 1632 C 2256 1632 2251 1632 2241 1627 C 2241 1622 2241 1612 2241 1608 C 2241 1593 2246 1584 2246 1579 C 2251 1579 2323 1574 2414 1574 C 2467 1574 2520 1574 2572 1574 C 2572 1584 2577 1593 2577 1598 M 2755 1603 C 2760 1632 2755 1636 2664 1632 C 2640 1632 2616 1632 2592 1632 C 2592 1622 2592 1612 2592 1603 C 2592 1593 2587 1584 2587 1574 C 2616 1579 2644 1579 2673 1579 C 2697 1579 2726 1579 2755 1579 C 2755 1588 2755 1593 2755 1603 M 2870 1603 C 2870 1632 2870 1632 2817 1632 C 2769 1636 2769 1632 2769 1603 C 2769 1593 2769 1584 2769 1574 C 2784 1574 2803 1574 2822 1574 C 2836 1574 2856 1574 2870 1574 C 2870 1584 2870 1593 2870 1603 M 3052 1598 C 3057 1632 3052 1636 2971 1632 C 2928 1632 2894 1632 2889 1632 C 2880 1627 2880 1584 2884 1579 C 2889 1579 2928 1579 2971 1579 C 3000 1579 3024 1579 3052 1579 C 3052 1584 3052 1593 3052 1598 M 3225 1603 C 3225 1612 3225 1617 3225 1627 C 3216 1627 3211 1632 3206 1632 C 3182 1632 3081 1632 3072 1632 C 3067 1627 3062 1617 3062 1603 C 3062 1593 3062 1584 3062 1574 C 3091 1574 3120 1574 3144 1574 C 3168 1574 3196 1574 3225 1574 C 3225 1584 3225 1593 3225 1603 M 3403 1603 C 3403 1612 3403 1622 3403 1632 C 3388 1632 3379 1632 3369 1632 C 3350 1632 3316 1632 3292 1632 C 3268 1632 3244 1632 3244 1632 C 3240 1627 3235 1598 3235 1579 C 3235 1579 3273 1574 3316 1574 C 3345 1574 3374 1574 3403 1574 C 3403 1584 3403 1593 3403 1603 M 3556 1603 C 3556 1612 3556 1627 3552 1627 C 3552 1627 3460 1632 3422 1632 C 3412 1632 3412 1627 3412 1608 C 3412 1574 3408 1574 3484 1579 C 3508 1579 3532 1579 3556 1579 C 3556 1588 3556 1593 3556 1603 M 3657 1603 C 3657 1632 3657 1636 3604 1632 C 3590 1632 3580 1627 3571 1627 C 3571 1617 3571 1612 3571 1603 C 3571 1593 3571 1584 3571 1574 C 3585 1574 3600 1574 3614 1574 C 3628 1574 3643 1574 3657 1574 C 3657 1584 3657 1593 3657 1603 M 3902 1588 C 3902 1598 3897 1598 3878 1603 C 3868 1603 3854 1608 3849 1617 C 3835 1627 3830 1632 3777 1632 C 3744 1632 3710 1632 3696 1632 C 3686 1632 3676 1627 3667 1627 C 3667 1622 3667 1612 3667 1608 C 3667 1593 3672 1584 3672 1579 C 3676 1579 3724 1574 3787 1574 C 3825 1574 3864 1574 3902 1574 C 3902 1579 3902 1584 3902 1588 M 4012 1593 C 4003 1603 4003 1617 4003 1622 C 4003 1627 4003 1627 3974 1632 C 3926 1636 3912 1632 3912 1608 C 3907 1579 3907 1574 3964 1574 C 3984 1574 4003 1574 4022 1574 C 4017 1584 4012 1588 4012 1593 M 4195 1584 C 4195 1608 4238 1612 4257 1593 C 4272 1579 4272 1574 4315 1574 C 4329 1574 4344 1574 4363 1574 C 4363 1584 4363 1593 4363 1598 C 4363 1612 4358 1627 4358 1627 C 4348 1632 4099 1632 4080 1632 C 4070 1627 4070 1627 4075 1617 C 4080 1612 4080 1598 4080 1593 C 4080 1588 4080 1584 4080 1574 C 4099 1574 4118 1574 4137 1574 C 4171 1574 4195 1579 4195 1584 M 4651 1603 C 4651 1627 4651 1627 4636 1632 C 4622 1632 4406 1632 4377 1632 C 4372 1632 4372 1622 4372 1603 C 4372 1593 4372 1584 4372 1574 C 4416 1579 4464 1579 4512 1579 C 4555 1579 4603 1579 4651 1579 C 4651 1588 4651 1593 4651 1603 M 4838 1603 C 4838 1636 4843 1632 4761 1632 C 4660 1632 4665 1632 4665 1603 C 4665 1593 4665 1584 4665 1574 C 4694 1574 4723 1574 4752 1574 C 4780 1574 4809 1574 4838 1574 C 4838 1584 4838 1593 4838 1603 M 5380 1603 C 5380 1636 5380 1632 5294 1632 C 5275 1632 5251 1632 5227 1632 C 5227 1622 5227 1612 5227 1603 C 5227 1593 5227 1584 5222 1574 C 5251 1574 5275 1574 5299 1574 C 5328 1574 5352 1574 5380 1574 C 5380 1584 5380 1593 5380 1603 M 5606 1608 C 5606 1612 5606 1622 5606 1632 C 5572 1632 5534 1632 5500 1632 C 5385 1636 5390 1636 5390 1608 C 5385 1574 5380 1574 5500 1579 C 5534 1579 5572 1579 5606 1579 C 5606 1588 5606 1598 5606 1608 M 3441 1406 C 3441 1411 3441 1416 3441 1420 C 3451 1425 3460 1420 3460 1411 C 3460 1396 3446 1396 3441 1406 M 1420 1406 C 1416 1416 1420 1420 1430 1420 C 1440 1420 1444 1416 1440 1406 C 1435 1396 1425 1396 1420 1406 M 2275 1406 C 2275 1411 2275 1416 2275 1420 C 2284 1425 2299 1420 2294 1411 C 2294 1396 2280 1396 2275 1406 M 2620 1401 C 2616 1411 2620 1420 2630 1420 C 2635 1420 2640 1420 2635 1411 C 2635 1401 2625 1396 2620 1401 M 1608 1608 C 1608 1622 1612 1627 1622 1617 C 1632 1608 1627 1598 1612 1598 C 1608 1598 1608 1603 1608 1608 M 2438 1603 C 2433 1612 2443 1627 2448 1622 C 2462 1622 2457 1603 2448 1603 C 2443 1603 2438 1603 2438 1603 M 4502 1608 C 4497 1612 4512 1627 4516 1622 C 4526 1617 4526 1598 4516 1598 C 4507 1598 4502 1603 4502 1608 z" fill="black" /><!-- width=5832 height=1752 -->
<path id="gl25344" d="M 14 9 C 4 19 4 38 19 38 C 33 43 33 48 19 62 C 9 76 9 81 24 76 C 33 72 48 43 48 28 C 52 9 33 0 14 9 z" fill="black" /><!-- width=62 height=86 -->
<path id="gl1565" d="M 18 13 C 13 18 13 27 18 28 C 24 30 29 27 30 21 C 31 16 31 16 25 13 C 21 11 21 11 18 13 z" fill="black" /><!-- width=45 height=42 -->
<path id="gl1565" d="M 18 13 C 13 18 13 27 18 28 C 24 30 29 27 30 21 C 31 16 31 16 25 13 C 21 11 21 11 18 13 z" fill="black" /><!-- width=45 height=42 -->
<path id="gl2312" d="M 19 14 C 7 19 11 37 24 39 C 37 41 44 23 33 15 C 30 12 23 12 19 14 z" fill="black" /><!-- width=51 height=52 -->
<path id="gl2312" d="M 19 14 C 7 19 11 37 24 39 C 37 41 44 23 33 15 C 30 12 23 12 19 14 z" fill="black" /><!-- width=51 height=52 -->
<path id="gl2312" d="M 19 14 C 7 19 11 37 24 39 C 37 41 44 23 33 15 C 30 12 23 12 19 14 z" fill="black" /><!-- width=51 height=52 -->
<path id="gl2322" d="M 21 14 C 19 15 18 16 16 18 C 7 28 19 43 33 37 C 43 33 43 18 33 14 C 30 13 23 13 21 14 z" fill="black" /><!-- width=54 height=52 -->
<path id="gl2312" d="M 19 14 C 7 19 11 37 24 39 C 37 41 44 23 33 15 C 30 12 23 12 19 14 z" fill="black" /><!-- width=51 height=52 -->
<path id="gl2312" d="M 19 14 C 7 19 11 37 24 39 C 37 41 44 23 33 15 C 30 12 23 12 19 14 z" fill="black" /><!-- width=51 height=52 -->
<path id="gl2312" d="M 19 14 C 7 19 11 37 24 39 C 37 41 44 23 33 15 C 30 12 23 12 19 14 z" fill="black" /><!-- width=51 height=52 -->
<path id="gl2312" d="M 19 14 C 7 19 11 37 24 39 C 37 41 44 23 33 15 C 30 12 23 12 19 14 z" fill="black" /><!-- width=51 height=52 -->
<path id="gl2322" d="M 21 14 C 19 15 18 16 16 18 C 7 28 19 43 33 37 C 43 33 43 18 33 14 C 30 13 23 13 21 14 z" fill="black" /><!-- width=54 height=52 -->
<path id="gl2312" d="M 19 14 C 7 19 11 37 24 39 C 37 41 44 23 33 15 C 30 12 23 12 19 14 z" fill="black" /><!-- width=51 height=52 -->
<path id="gl2312" d="M 19 14 C 7 19 11 37 24 39 C 37 41 44 23 33 15 C 30 12 23 12 19 14 z" fill="black" /><!-- width=51 height=52 -->
<path id="gl2312" d="M 19 14 C 7 19 11 37 24 39 C 37 41 44 23 33 15 C 30 12 23 12 19 14 z" fill="black" /><!-- width=51 height=52 -->
</defs>
<use xlink:href="#gl18705" x="554" y="503" />
<use xlink:href="#gl24838" x="648" y="531" />
<use xlink:href="#gl18705" x="1082" y="503" />
<use xlink:href="#gl24838" x="1177" y="531" />
<use xlink:href="#gl1565" x="1239" y="568" />
<use xlink:href="#gl24839" x="360" y="1137" />
<use xlink:href="#gl24840" x="634" y="1104" />
<use xlink:href="#gl24841" x="5021" y="1612" />
<use xlink:href="#gl24842" x="5045" y="1584" />
<use xlink:href="#gl24843" x="5093" y="1516" />
<use xlink:href="#gl25088" x="0" y="0" />
<use xlink:href="#gl25344" x="3053" y="4" />
<use xlink:href="#gl1565" x="1271" y="568" />
<use xlink:href="#gl1565" x="1302" y="568" />
<use xlink:href="#gl2312" x="4865" y="1282" />
<use xlink:href="#gl2312" x="867" y="1289" />
<use xlink:href="#gl2312" x="1210" y="1289" />
<use xlink:href="#gl2322" x="2897" y="1288" />
<use xlink:href="#gl2312" x="3686" y="1296" />
<use xlink:href="#gl2312" x="3077" y="1307" />
<use xlink:href="#gl2312" x="5404" y="1376" />
<use xlink:href="#gl2312" x="5635" y="1376" />
<use xlink:href="#gl2322" x="1783" y="1641" />
<use xlink:href="#gl2312" x="4018" y="1651" />
<use xlink:href="#gl2312" x="3855" y="1677" />
<use xlink:href="#gl2312" x="5053" y="1678" />
</svg>