<?xml version="1.0" standalone="no"?>
<!DOCTYPE svg PUBLIC "-//W3C/DTD SVG 1.1//EN" "http://www.w3.org/Graphics/SVG/1.1/DTD/svg11.dtd">
<svg width="584px" height="184px" viewBox="0 0 5846 1843" xmlns="http://www.w3.org/2000/svg" xmlns:xlink="http://www.w3.org/1999/xlink" version="1.1">
<defs>
<path id="gl13313" d="M 9 4 C 9 9 9 19 14 28 C 28 67 33 76 38 86 C 43 105 52 100 67 72 C 91 24 96 4 81 4 C 72 4 72 4 72 14 C 72 28 52 76 52 72 C 43 62 28 28 28 14 C 28 9 28 4 28 4 C 24 4 19 4 14 4 C 9 4 9 4 9 4 z" fill="black" /><!-- width=100 height=110 -->
<path id="gl13314" d="M 32 10 C 25 15 21 18 19 21 C 18 24 17 26 16 27 C 15 29 13 39 13 47 C 13 53 13 53 16 57 C 17 60 19 62 19 63 C 24 72 37 77 49 73 C 54 72 54 72 57 73 C 60 74 61 74 63 72 C 64 72 67 70 70 68 C 75 64 75 64 78 58 C 82 50 82 47 81 37 C 80 27 78 23 72 16 C 66 10 62 9 57 9 C 54 9 51 9 48 9 C 46 9 42 9 40 9 C 36 8 36 9 32 10 M 55 18 C 56 19 57 20 58 21 C 58 22 60 25 61 26 C 68 35 69 52 62 60 C 60 63 53 69 52 69 C 51 69 48 67 45 66 C 36 63 31 58 28 49 C 28 45 28 34 30 30 C 30 28 31 27 31 25 C 31 23 39 18 42 16 C 44 16 46 15 46 15 C 47 15 51 16 55 18 z" fill="black" /><!-- width=95 height=84 -->
<path id="gl5387" d="M 18 7 C 14 9 12 15 13 18 C 14 21 19 24 22 24 C 27 24 27 23 29 20 C 32 15 32 12 28 8 C 25 6 21 5 18 7 M 18 36 C 11 38 10 42 14 48 C 18 54 18 53 17 72 C 17 78 17 83 17 88 C 16 90 15 91 15 92 C 10 98 11 100 18 102 C 21 103 27 103 32 100 C 37 99 37 97 33 94 C 29 88 29 90 30 64 C 30 39 30 38 27 36 C 25 34 21 34 18 36 z" fill="black" /><!-- width=46 height=122 -->
<path id="gl13315" d="M 14 14 C -5 43 14 81 48 62 C 52 62 57 62 62 57 C 57 57 48 57 43 57 C 28 52 24 52 19 43 C 9 19 28 4 48 19 C 52 28 52 28 57 19 C 67 0 28 0 14 14 z" fill="black" /><!-- width=67 height=76 -->
<path id="gl13316" d="M 54 11 C 52 12 50 12 50 12 C 49 12 48 13 46 13 C 42 14 37 16 34 17 C 34 18 32 19 31 19 C 30 19 29 21 28 22 C 28 23 27 25 25 27 C 22 31 21 33 21 48 C 20 55 20 55 22 58 C 23 60 24 62 24 63 C 25 65 32 72 34 74 C 37 75 51 79 53 79 C 54 79 57 79 58 78 C 61 78 67 76 71 76 C 76 75 76 75 76 73 C 77 70 77 68 76 67 C 75 66 64 66 61 67 C 58 69 51 68 48 66 C 42 64 36 56 36 51 C 35 45 38 43 48 45 C 50 45 52 46 55 46 C 57 46 59 46 61 45 C 65 45 67 44 70 45 C 75 45 75 45 77 43 C 78 43 79 42 80 42 C 81 42 81 41 82 40 C 85 36 79 22 73 17 C 69 14 61 10 59 11 C 59 11 57 11 54 11 M 60 21 C 61 21 62 22 62 23 C 63 24 63 25 64 27 C 66 28 66 29 66 32 C 66 34 66 35 66 36 C 64 37 64 37 63 38 C 60 40 60 40 55 39 C 51 39 50 39 46 39 C 40 40 40 40 38 38 C 36 37 36 36 37 30 C 39 25 42 21 46 20 C 49 19 59 20 60 21 z" fill="black" /><!-- width=94 height=89 -->
<path id="gl4375" d="M 17 13 C 11 15 10 22 16 25 C 18 26 19 27 25 26 C 39 25 48 25 54 26 C 61 27 63 26 66 23 C 70 18 64 12 56 13 C 52 13 31 13 24 13 C 21 13 18 13 17 13 z" fill="black" /><!-- width=79 height=39 -->
<path id="gl13317" d="M 110 4 C 96 9 72 33 72 43 C 72 48 72 52 72 52 C 67 52 67 62 62 76 C 57 100 43 148 38 148 C 33 148 28 148 28 139 C 28 129 19 129 9 144 C 4 153 19 168 33 163 C 57 153 67 139 81 100 C 91 76 100 62 105 62 C 110 57 110 57 105 52 C 96 43 105 24 120 14 C 139 4 124 0 110 4 z" fill="black" /><!-- width=139 height=172 -->
<path id="gl13318" d="M 4 4 C 0 14 4 28 14 28 C 19 28 24 28 19 19 C 19 4 9 0 4 4 z" fill="black" /><!-- width=33 height=43 -->
<path id="gl13319" d="M 4 4 C 4 9 4 52 4 96 C 9 196 9 196 43 158 C 81 124 76 100 33 105 C 28 105 24 105 19 110 C 19 91 19 72 19 57 C 19 24 19 4 14 4 C 9 4 9 4 4 4 M 43 124 C 48 139 28 168 19 163 C 14 158 14 124 24 120 C 38 110 43 115 43 124 z" fill="black" /><!-- width=76 height=196 -->
<path id="gl13568" d="M 412 33 C 412 62 398 67 398 38 C 393 14 384 19 384 43 C 384 57 384 67 379 67 C 379 67 374 76 379 86 C 379 96 379 100 379 105 C 360 105 340 105 326 105 C 307 105 288 105 268 105 C 268 96 268 91 264 81 C 249 4 216 4 196 81 C 196 91 192 96 192 105 C 172 105 148 105 129 105 C 96 105 62 105 62 105 C 57 105 57 139 57 254 C 57 336 52 398 52 398 C 33 398 28 388 28 249 C 28 110 33 96 43 96 C 48 96 52 96 57 91 C 62 81 48 86 19 100 C 14 100 9 105 4 105 C 4 139 4 177 4 211 C 4 264 4 331 4 350 C 4 364 9 379 9 393 C 14 393 24 398 33 403 C 38 403 48 408 57 412 C 57 460 57 513 57 561 C 57 609 57 662 57 710 C 48 715 38 720 28 724 C 24 724 14 729 9 734 C 9 888 9 1036 9 1190 C 9 1344 9 1492 9 1646 C 14 1651 19 1651 24 1651 C 57 1665 57 1665 43 1651 C 38 1646 33 1646 28 1641 C 33 1488 33 1339 33 1190 C 33 1036 33 888 33 734 C 38 734 38 729 43 729 C 48 724 52 724 57 720 C 57 873 57 1027 57 1180 C 57 1579 57 1636 62 1636 C 67 1636 67 1636 67 1627 C 62 1622 62 1608 62 1598 C 67 1588 67 1579 67 1574 C 105 1574 144 1574 182 1574 C 249 1574 297 1574 297 1574 C 292 1569 264 1569 230 1569 C 196 1569 168 1564 168 1564 C 168 1564 177 1555 196 1545 C 211 1531 230 1521 235 1516 C 235 1512 254 1507 316 1507 C 340 1507 364 1507 393 1507 C 393 1516 393 1521 393 1526 C 393 1531 393 1536 398 1536 C 398 1536 403 1526 403 1521 C 403 1512 403 1507 408 1507 C 412 1507 412 1512 412 1516 C 412 1526 417 1526 417 1526 C 422 1526 422 1526 422 1516 C 422 1512 427 1507 441 1507 C 456 1507 465 1512 465 1516 C 465 1526 470 1526 475 1526 C 475 1526 475 1536 475 1545 C 475 1564 465 1579 456 1569 C 451 1569 446 1569 446 1569 C 446 1574 446 1579 451 1579 C 460 1579 480 1608 475 1627 C 475 1627 475 1632 475 1636 C 422 1636 369 1636 316 1641 C 259 1641 206 1641 153 1641 C 220 1641 283 1641 350 1641 C 460 1641 537 1641 528 1641 C 513 1636 499 1636 494 1636 C 489 1641 484 1636 484 1617 C 484 1584 499 1579 504 1612 C 504 1636 513 1632 513 1608 C 513 1579 513 1574 638 1574 C 672 1574 710 1574 748 1574 C 748 1588 748 1598 748 1608 C 748 1617 748 1627 748 1636 C 724 1641 705 1641 686 1641 C 667 1641 648 1641 628 1641 C 648 1641 667 1641 686 1641 C 705 1641 724 1641 748 1646 C 748 1660 748 1675 748 1694 C 748 1732 748 1737 753 1728 C 753 1723 758 1708 753 1699 C 753 1684 753 1670 753 1660 C 753 1656 753 1651 758 1646 C 825 1641 892 1641 960 1641 C 1070 1641 1137 1641 1108 1641 C 1094 1641 1075 1641 1056 1636 C 1056 1627 1056 1617 1056 1608 C 1056 1584 1060 1574 1065 1574 C 1070 1574 1070 1574 1065 1574 C 1060 1569 1056 1540 1056 1516 C 1056 1512 1060 1507 1065 1507 C 1075 1507 1075 1507 1065 1507 C 1060 1507 1056 1497 1056 1473 C 1056 1444 1060 1440 1065 1440 C 1075 1440 1075 1440 1065 1435 C 1060 1430 1056 1420 1056 1401 C 1056 1392 1056 1382 1056 1377 C 1080 1372 1104 1372 1128 1372 C 1166 1372 1108 1372 998 1372 C 811 1368 782 1368 763 1368 C 758 1368 753 1358 758 1334 C 758 1324 758 1315 758 1305 C 772 1305 787 1305 801 1300 C 820 1300 835 1300 825 1300 C 806 1296 806 1300 820 1276 C 830 1262 830 1257 820 1252 C 816 1243 811 1243 811 1252 C 811 1272 782 1300 763 1291 C 748 1286 782 1243 801 1243 C 806 1243 806 1243 806 1243 C 806 1233 792 1233 777 1238 C 763 1248 748 1272 748 1286 C 748 1291 744 1300 739 1300 C 734 1300 734 1300 739 1305 C 744 1305 748 1324 748 1339 C 748 1348 748 1358 748 1363 C 734 1368 724 1368 710 1368 C 691 1368 638 1368 590 1368 C 542 1368 484 1368 465 1368 C 451 1368 436 1363 422 1363 C 422 1358 422 1353 422 1348 C 422 1344 422 1334 417 1334 C 417 1334 412 1344 412 1353 C 412 1363 412 1368 408 1363 C 403 1363 398 1358 398 1358 C 398 1353 398 1348 393 1348 C 393 1348 393 1348 393 1353 C 393 1368 374 1368 312 1368 C 273 1368 206 1368 153 1368 C 124 1368 96 1368 62 1363 C 67 1305 67 1248 67 1190 C 67 1128 67 1070 67 1012 C 81 1012 96 1012 110 1012 C 134 1008 177 1012 201 1012 C 216 1012 235 1012 249 1017 C 254 1027 254 1036 254 1051 C 264 1094 254 1113 220 1113 C 206 1118 206 1113 220 1099 C 240 1080 230 1051 201 1051 C 172 1051 158 1084 182 1108 C 201 1128 216 1128 235 1118 C 264 1104 268 1094 264 1056 C 259 1036 259 1017 259 1017 C 259 1012 398 1008 691 1008 C 926 1008 1104 1008 1089 1008 C 1056 1003 1051 998 1056 969 C 1056 960 1056 955 1056 950 C 1056 950 1060 945 1065 945 C 1070 945 1070 945 1070 940 C 1070 940 1070 940 1070 940 C 1065 940 1060 940 1060 936 C 1056 931 1051 888 1060 883 C 1060 883 1060 873 1056 868 C 1056 864 1056 849 1056 835 C 1056 830 1056 820 1060 816 C 1080 811 1099 811 1123 811 C 1142 811 1166 811 1185 811 C 1166 811 1142 811 1123 811 C 1099 811 1080 811 1056 806 C 1056 796 1060 787 1060 772 C 1060 763 1060 753 1060 744 C 1022 744 984 744 945 744 C 835 744 825 739 825 734 C 825 729 825 710 825 691 C 830 676 825 657 825 652 C 820 643 820 648 820 691 C 820 705 820 724 816 739 C 772 744 724 744 676 744 C 628 744 585 744 537 744 C 585 744 628 744 676 744 C 724 744 772 744 816 744 C 816 753 816 758 816 763 C 816 777 816 777 806 777 C 792 772 772 782 758 796 C 748 806 744 806 643 811 C 609 811 571 811 537 811 C 571 811 604 811 643 811 C 676 811 710 811 744 816 C 744 816 748 820 748 825 C 748 830 758 840 763 840 C 772 849 777 849 811 835 C 816 830 816 835 816 849 C 816 859 816 864 816 873 C 806 873 796 873 782 873 C 763 873 748 873 748 878 C 748 878 748 878 758 878 C 768 878 768 883 758 897 C 753 902 748 912 748 921 C 748 931 748 936 744 936 C 739 936 739 940 739 945 C 739 945 744 945 753 945 C 768 945 768 950 753 964 C 748 974 744 984 748 993 C 748 998 748 1003 753 1008 C 672 1008 595 1008 513 1008 C 436 1008 360 1008 278 1008 C 283 998 288 993 292 988 C 297 979 307 969 307 960 C 307 955 307 950 312 945 C 326 945 345 945 364 945 C 422 945 408 940 345 940 C 312 936 312 936 307 926 C 307 916 297 907 292 897 C 288 892 283 883 283 883 C 283 883 326 878 374 878 C 456 878 465 883 465 888 C 465 892 465 902 470 902 C 475 902 475 912 475 921 C 475 926 475 931 475 936 C 470 936 460 936 451 936 C 436 936 422 940 422 945 C 422 945 441 945 460 945 C 480 945 499 945 499 945 C 499 940 494 936 494 936 C 489 936 484 926 484 916 C 484 902 489 897 494 897 C 499 897 504 902 504 912 C 504 936 508 936 513 912 C 513 892 518 888 523 883 C 528 878 532 878 532 878 C 537 878 532 868 523 864 C 508 849 508 816 523 816 C 528 816 532 811 532 806 C 532 806 532 806 528 806 C 528 806 523 806 523 796 C 523 792 523 782 518 782 C 504 777 508 748 523 744 C 532 744 513 744 480 744 C 465 739 446 739 427 739 C 427 734 427 729 427 724 C 427 720 427 715 427 715 C 436 715 436 686 427 681 C 427 681 422 672 422 657 C 422 648 422 643 417 643 C 417 643 412 657 412 667 C 412 691 403 705 398 681 C 398 676 398 667 398 662 C 398 643 393 652 393 672 C 393 686 388 696 384 700 C 374 705 374 724 379 729 C 398 739 384 744 326 739 C 307 739 288 739 268 739 C 268 729 268 720 264 715 C 254 633 211 638 196 720 C 196 729 196 734 192 744 C 172 739 153 739 129 739 C 110 739 86 739 67 739 C 67 681 67 619 67 561 C 67 499 67 441 67 379 C 81 379 100 379 120 379 C 144 379 187 379 206 379 C 220 379 235 384 249 384 C 249 388 249 398 254 408 C 254 417 259 432 259 441 C 259 451 259 456 249 470 C 240 475 235 484 240 484 C 240 484 244 480 254 470 C 268 456 268 446 259 393 C 259 388 259 384 254 379 C 273 379 292 379 307 379 C 336 374 360 374 360 374 C 364 374 345 369 321 369 C 307 369 292 369 278 369 C 283 369 288 364 292 360 C 297 350 307 336 307 331 C 307 326 307 321 312 316 C 336 312 360 312 388 312 C 412 312 441 312 465 312 C 441 312 417 312 393 312 C 316 307 307 307 307 292 C 307 288 297 273 292 264 C 288 259 283 254 278 244 C 312 244 340 244 369 244 C 456 244 465 249 465 254 C 465 259 465 268 470 268 C 480 278 480 292 470 307 C 470 312 470 316 475 316 C 489 316 489 312 484 292 C 484 288 484 278 484 273 C 494 254 504 259 504 278 C 504 302 508 302 513 278 C 513 259 518 254 523 249 C 528 244 532 244 532 244 C 537 244 532 235 523 230 C 513 220 513 216 513 201 C 513 192 513 187 513 177 C 537 177 566 177 590 177 C 643 177 667 177 657 172 C 652 172 619 172 585 172 C 532 172 523 172 523 163 C 523 158 523 153 518 148 C 508 139 508 115 518 110 C 523 110 523 110 513 110 C 504 105 470 105 470 110 C 465 110 475 115 484 115 C 489 115 494 115 504 115 C 504 120 504 124 504 134 C 504 148 499 153 494 153 C 489 153 484 148 484 139 C 484 129 484 120 480 120 C 480 120 475 124 475 139 C 475 163 465 172 446 172 C 441 172 432 172 432 172 C 422 168 422 153 427 153 C 436 153 436 124 427 120 C 422 115 427 115 441 115 C 456 115 460 110 460 110 C 460 105 451 105 441 105 C 427 110 422 110 422 96 C 422 86 427 81 427 81 C 432 81 432 72 432 62 C 432 57 432 52 427 52 C 427 52 422 43 422 33 C 422 4 417 4 412 33 M 254 86 C 254 105 249 105 225 105 C 211 105 206 100 216 86 C 230 52 254 52 254 86 M 196 139 C 201 148 201 163 201 168 C 201 168 168 172 129 172 C 57 172 62 172 62 144 C 62 110 57 115 129 115 C 148 115 172 115 192 115 C 196 120 196 129 196 139 M 240 120 C 240 124 235 134 230 139 C 216 158 211 153 211 129 C 211 115 211 115 225 115 C 235 115 240 115 240 120 M 384 124 C 384 129 384 139 379 139 C 379 139 374 148 374 158 C 374 168 374 172 369 172 C 345 172 254 172 254 168 C 254 168 254 153 259 139 C 264 129 264 120 268 115 C 288 115 307 115 326 115 C 345 115 364 115 384 115 C 384 115 384 120 384 124 M 182 182 C 182 182 177 196 163 211 C 158 220 148 230 144 235 C 129 235 120 235 105 235 C 91 235 76 235 67 235 C 67 225 67 216 67 206 C 67 196 67 187 67 177 C 86 177 105 177 124 177 C 158 177 182 182 182 182 M 388 196 C 384 211 393 211 398 196 C 403 177 412 172 417 192 C 417 196 417 196 417 201 C 417 196 422 196 422 192 C 427 177 465 172 465 187 C 465 192 465 196 470 196 C 480 201 480 230 465 240 C 451 244 230 240 225 230 C 220 220 225 201 235 192 C 244 182 244 177 316 182 C 340 182 364 182 388 182 C 388 187 388 192 388 196 M 499 211 C 499 230 489 240 484 220 C 484 206 489 187 494 187 C 499 187 504 196 499 211 M 216 220 C 220 235 220 235 206 235 C 187 235 187 235 196 220 C 206 211 211 211 216 220 M 134 249 C 134 254 134 259 129 259 C 129 259 124 273 124 283 C 124 292 124 297 124 307 C 115 307 105 307 96 307 C 62 307 57 297 62 264 C 62 259 67 254 67 244 C 76 244 91 244 100 244 C 120 244 134 249 134 249 M 192 259 C 182 268 177 278 177 288 C 172 302 172 307 163 307 C 153 307 148 302 153 292 C 158 268 177 244 187 244 C 192 244 196 244 201 244 C 196 249 192 254 192 259 M 225 288 C 230 302 230 307 211 307 C 192 307 192 302 192 297 C 211 268 225 264 225 288 M 273 283 C 288 302 288 302 268 307 C 240 307 240 307 235 288 C 235 264 249 264 273 283 M 129 321 C 129 326 139 336 153 350 C 158 355 163 364 172 369 C 153 369 134 369 120 369 C 100 369 81 369 67 369 C 67 360 67 350 67 345 C 67 336 67 326 67 316 C 76 316 86 316 100 316 C 124 316 129 316 129 321 M 182 326 C 187 336 192 345 196 345 C 201 345 201 340 196 336 C 182 326 187 316 211 316 C 235 316 235 316 240 345 C 240 355 244 364 244 369 C 235 369 230 369 220 369 C 211 369 196 369 187 364 C 172 355 148 321 153 316 C 163 312 172 316 182 326 M 288 326 C 292 336 268 360 259 360 C 254 360 240 326 244 316 C 249 307 288 316 288 326 M 254 705 C 259 724 254 744 230 744 C 211 744 211 739 216 724 C 220 691 240 676 254 705 M 196 763 C 196 772 201 787 201 792 C 206 801 196 806 182 806 C 177 806 148 806 120 806 C 100 806 81 801 67 801 C 67 792 67 782 67 772 C 67 763 67 753 67 744 C 86 744 105 744 129 744 C 148 744 172 744 192 744 C 196 753 196 758 196 763 M 244 753 C 249 763 220 792 216 787 C 206 782 206 753 216 748 C 230 744 244 748 244 753 M 388 758 C 388 763 388 772 384 772 C 379 777 379 787 374 796 C 374 806 374 806 316 806 C 249 811 244 806 259 782 C 264 772 264 763 264 758 C 268 748 268 744 331 744 C 384 744 384 748 388 758 M 504 768 C 504 782 499 787 494 792 C 489 792 484 792 484 772 C 484 763 484 753 480 753 C 480 753 475 768 475 777 C 475 801 470 806 446 806 C 427 806 417 796 427 787 C 436 782 436 758 427 753 C 422 753 422 753 427 753 C 432 748 451 748 470 748 C 480 748 489 748 504 748 C 504 753 504 763 504 768 M 1046 777 C 1046 787 1051 796 1051 811 C 1012 811 974 806 940 806 C 878 806 825 806 825 806 C 825 801 825 787 825 772 C 825 763 830 753 830 744 C 864 748 902 748 936 748 C 974 748 1008 748 1046 748 C 1046 758 1046 768 1046 777 M 811 801 C 806 811 777 811 777 801 C 777 792 806 782 811 792 C 811 792 816 796 811 801 M 182 816 C 182 816 177 830 163 844 C 158 854 148 864 144 868 C 129 868 120 873 105 873 C 91 873 76 873 67 873 C 67 864 67 854 67 844 C 67 835 67 825 67 816 C 86 816 105 816 124 816 C 158 816 182 816 182 816 M 388 820 C 388 825 388 835 388 835 C 388 840 388 844 393 844 C 398 844 403 835 403 825 C 403 816 403 816 408 816 C 412 816 412 816 412 825 C 412 830 417 835 417 835 C 422 835 422 830 422 825 C 422 816 427 816 446 816 C 456 816 465 816 465 820 C 465 825 465 830 470 830 C 475 835 480 840 475 854 C 475 859 475 868 475 873 C 432 873 393 873 355 873 C 312 873 268 873 230 873 C 230 868 225 864 225 854 C 220 840 220 835 230 825 C 244 816 244 816 316 816 C 379 816 384 816 388 820 M 801 816 C 801 820 782 830 768 830 C 758 830 758 830 758 825 C 763 816 801 806 801 816 M 1051 844 C 1051 854 1051 864 1051 878 C 1012 878 979 873 940 873 C 883 873 830 873 830 873 C 820 868 820 854 825 830 C 825 825 830 820 830 816 C 864 816 902 816 940 816 C 974 816 1012 816 1051 816 C 1051 825 1051 835 1051 844 M 504 844 C 504 859 499 864 494 864 C 489 864 484 859 484 844 C 484 830 489 825 494 825 C 499 825 504 830 504 844 M 216 868 C 216 873 211 873 206 873 C 201 873 196 873 192 873 C 192 873 192 864 201 859 C 211 844 220 854 216 868 M 134 883 C 134 883 134 888 134 897 C 129 902 124 916 124 926 C 124 931 124 936 124 936 C 115 936 105 936 96 936 C 86 936 76 936 67 936 C 67 931 67 921 67 912 C 67 892 67 883 67 878 C 76 878 134 878 134 883 M 192 892 C 177 916 177 921 177 931 C 172 936 172 940 163 936 C 148 936 153 916 168 897 C 182 878 206 873 192 892 M 1051 907 C 1051 945 1051 945 926 940 C 840 936 825 936 825 931 C 825 921 825 883 825 883 C 825 883 878 878 940 878 C 974 878 1012 878 1051 878 C 1051 888 1051 897 1051 907 M 811 892 C 811 902 782 936 772 936 C 748 936 758 912 787 892 C 806 883 811 883 811 892 M 230 926 C 235 936 235 936 216 936 C 187 936 187 921 211 912 C 220 902 225 907 230 926 M 273 916 C 292 931 288 936 264 936 C 244 936 235 936 235 912 C 235 902 259 902 273 916 M 120 945 C 124 945 134 955 134 964 C 139 969 148 979 153 988 C 172 1003 168 1008 115 1003 C 100 1003 81 1003 67 1003 C 67 993 67 984 67 974 C 62 955 67 950 72 945 C 86 945 110 940 120 945 M 187 964 C 196 974 196 974 196 969 C 187 950 187 945 216 945 C 230 945 235 950 235 955 C 235 960 240 969 240 984 C 240 988 244 998 244 1008 C 235 1008 230 1008 225 1003 C 196 1003 158 979 158 955 C 153 945 168 945 187 964 M 288 955 C 288 964 278 988 268 993 C 254 998 254 998 249 979 C 249 969 244 960 244 955 C 240 950 244 945 264 945 C 283 945 288 950 288 955 M 1051 979 C 1051 988 1051 998 1051 1008 C 1008 1008 964 1008 926 1008 C 883 1008 844 1008 801 1008 C 806 1003 811 998 811 993 C 820 984 820 974 820 969 C 820 945 820 945 940 945 C 974 945 1012 945 1051 945 C 1051 955 1051 969 1051 979 M 811 955 C 811 979 777 1003 763 998 C 744 993 782 955 806 955 C 811 955 811 955 811 955 M 153 1377 C 153 1382 148 1392 144 1406 C 139 1416 134 1425 129 1435 C 120 1435 110 1435 96 1435 C 86 1435 76 1435 67 1435 C 67 1425 67 1416 67 1406 C 67 1382 67 1377 72 1372 C 91 1372 153 1372 153 1377 M 729 1372 C 734 1372 739 1372 748 1372 C 748 1382 748 1392 748 1406 C 748 1416 748 1425 748 1435 C 710 1435 676 1435 643 1435 C 609 1435 576 1435 542 1435 C 576 1435 609 1435 643 1440 C 700 1440 744 1440 744 1440 C 744 1440 748 1454 748 1468 C 748 1507 753 1507 628 1502 C 576 1502 532 1502 532 1507 C 532 1507 580 1507 643 1507 C 676 1507 710 1507 748 1507 C 748 1516 748 1526 748 1536 C 748 1545 748 1555 748 1564 C 739 1564 734 1569 729 1569 C 720 1569 672 1574 619 1569 C 528 1569 528 1569 523 1560 C 523 1555 518 1545 513 1545 C 504 1545 508 1512 518 1512 C 532 1507 528 1488 518 1478 C 504 1468 508 1444 523 1444 C 528 1444 532 1440 532 1435 C 532 1435 528 1435 518 1435 C 508 1435 504 1435 499 1435 C 499 1440 499 1449 499 1459 C 504 1483 499 1483 494 1483 C 489 1483 484 1483 484 1468 C 484 1444 480 1444 475 1468 C 475 1497 460 1507 436 1502 C 427 1497 417 1483 432 1483 C 432 1483 436 1473 432 1464 C 432 1440 432 1440 475 1440 C 484 1444 494 1440 494 1440 C 494 1435 480 1435 460 1435 C 427 1435 422 1430 422 1420 C 422 1416 427 1406 432 1406 C 436 1401 436 1392 436 1387 C 436 1382 436 1377 436 1377 C 480 1372 518 1372 556 1372 C 624 1372 686 1372 696 1372 C 700 1372 720 1372 729 1372 M 388 1382 C 388 1382 388 1387 384 1392 C 374 1401 374 1420 384 1425 C 388 1430 374 1435 336 1435 C 316 1435 297 1435 283 1435 C 278 1430 278 1425 273 1420 C 268 1411 259 1396 254 1392 C 249 1387 244 1382 240 1372 C 264 1372 288 1372 312 1372 C 360 1372 388 1377 388 1382 M 1046 1440 C 1046 1464 1046 1483 1046 1507 C 1012 1502 979 1502 945 1502 C 892 1502 840 1502 835 1497 C 825 1497 820 1497 825 1497 C 835 1492 806 1473 796 1473 C 792 1473 782 1473 772 1478 C 768 1483 763 1488 758 1488 C 758 1483 758 1473 758 1464 C 758 1454 758 1444 758 1440 C 796 1440 835 1440 878 1440 C 964 1444 998 1440 1003 1440 C 1003 1435 969 1435 883 1435 C 840 1435 796 1435 758 1435 C 758 1425 758 1416 758 1406 C 758 1392 758 1382 758 1372 C 806 1372 854 1372 902 1372 C 950 1372 998 1372 1046 1372 C 1046 1396 1046 1416 1046 1440 M 220 1396 C 244 1420 244 1435 216 1435 C 206 1435 196 1430 196 1425 C 196 1420 187 1416 182 1416 C 158 1416 153 1392 177 1387 C 196 1377 206 1377 220 1396 M 144 1449 C 158 1464 187 1459 196 1444 C 201 1440 206 1435 220 1440 C 235 1440 240 1444 225 1483 C 225 1488 225 1492 220 1497 C 196 1497 168 1497 144 1497 C 115 1497 91 1497 67 1497 C 67 1488 67 1478 67 1468 C 67 1459 67 1449 67 1435 C 76 1435 86 1435 96 1435 C 124 1435 134 1440 144 1449 M 355 1440 C 388 1444 398 1454 384 1464 C 379 1468 379 1478 374 1488 C 374 1492 374 1497 374 1502 C 355 1502 336 1502 316 1502 C 249 1497 254 1502 264 1478 C 273 1468 273 1459 273 1454 C 273 1444 278 1444 292 1440 C 321 1435 326 1435 355 1440 M 811 1492 C 811 1497 811 1497 792 1497 C 787 1497 777 1497 772 1497 C 777 1497 782 1492 787 1492 C 806 1478 811 1478 811 1492 M 201 1507 C 216 1512 206 1526 172 1550 C 144 1564 144 1564 105 1564 C 91 1564 76 1564 67 1564 C 67 1560 67 1550 67 1540 C 67 1516 67 1512 72 1507 C 91 1507 192 1502 201 1507 M 801 1512 C 801 1521 782 1526 768 1526 C 753 1526 753 1526 763 1516 C 768 1507 801 1507 801 1512 M 1051 1540 C 1051 1550 1051 1560 1051 1574 C 1003 1574 955 1574 912 1574 C 864 1574 820 1574 772 1574 C 820 1574 864 1574 912 1574 C 955 1574 1003 1574 1051 1579 C 1051 1588 1051 1598 1051 1608 C 1051 1617 1051 1627 1051 1636 C 998 1636 950 1636 902 1636 C 744 1636 753 1641 753 1612 C 753 1603 753 1593 753 1588 C 753 1579 758 1574 763 1574 C 768 1574 768 1574 768 1569 C 768 1569 763 1569 758 1569 C 758 1569 758 1564 758 1555 C 758 1540 758 1536 777 1536 C 796 1536 801 1536 811 1526 C 816 1521 820 1516 825 1512 C 864 1512 902 1512 936 1512 C 974 1512 1012 1512 1051 1507 C 1051 1521 1051 1531 1051 1540 M 504 1536 C 504 1550 499 1555 494 1560 C 489 1560 484 1560 484 1540 C 484 1526 489 1516 494 1516 C 499 1516 504 1526 504 1536 M 4939 57 C 4939 72 4939 86 4939 105 C 4891 105 4848 105 4800 105 C 4723 105 4660 105 4660 110 C 4656 110 4660 115 4660 115 C 4665 115 4670 120 4665 144 C 4665 153 4665 163 4665 172 C 4526 172 4382 172 4243 172 C 4008 172 3744 177 3652 177 C 3561 177 3753 177 4080 177 C 4276 177 4473 177 4670 177 C 4670 187 4670 196 4670 206 C 4670 225 4665 240 4665 240 C 4665 240 4564 240 4444 240 C 4368 244 4296 244 4219 244 C 4296 244 4368 244 4444 244 C 4516 244 4593 244 4670 244 C 4670 254 4670 268 4670 278 C 4670 292 4665 307 4665 307 C 4665 307 4588 307 4497 307 C 4440 312 4387 312 4329 312 C 4387 312 4444 312 4497 312 C 4555 312 4612 312 4670 316 C 4670 326 4670 336 4670 345 C 4670 364 4665 374 4660 374 C 4660 374 4660 374 4665 379 C 4670 384 4689 379 4684 374 C 4680 369 4675 355 4675 340 C 4675 331 4675 321 4670 316 C 4675 312 4684 312 4689 312 C 4694 312 4708 312 4713 312 C 4718 316 4728 312 4737 312 C 4752 307 4752 307 4718 307 C 4670 302 4670 297 4675 264 C 4675 259 4675 254 4680 244 C 4699 244 4718 244 4732 244 C 4752 244 4771 244 4790 244 C 4795 254 4800 259 4804 264 C 4809 268 4814 273 4819 278 C 4814 278 4809 278 4800 283 C 4795 283 4780 288 4780 292 C 4776 297 4766 302 4766 307 C 4756 307 4756 307 4766 312 C 4771 312 4785 321 4795 331 C 4809 345 4828 350 4814 336 C 4804 331 4804 316 4814 312 C 4824 312 4881 312 4968 312 C 4987 312 5006 312 5030 316 C 5030 326 5030 336 5030 345 C 5030 350 5030 360 5030 369 C 5001 369 4977 369 4953 369 C 4915 369 4886 374 4886 374 C 4891 379 5049 379 5049 374 C 5049 374 5049 369 5044 369 C 5035 369 5035 364 5035 336 C 5035 326 5040 321 5040 316 C 5078 316 5121 316 5164 316 C 5203 316 5246 316 5284 316 C 5284 321 5284 331 5284 340 C 5284 350 5284 360 5284 369 C 5260 369 5232 374 5203 374 C 5160 374 5107 374 5088 374 C 5064 374 5054 374 5064 379 C 5064 379 5116 379 5179 379 C 5212 379 5251 379 5284 379 C 5284 384 5284 388 5284 393 C 5284 398 5289 408 5289 408 C 5294 408 5294 398 5294 393 C 5294 384 5299 384 5356 379 C 5385 379 5448 374 5491 379 C 5520 379 5544 379 5572 379 C 5572 388 5572 398 5572 408 C 5572 427 5577 441 5582 441 C 5582 441 5587 436 5582 432 C 5582 427 5582 412 5582 403 C 5587 393 5587 388 5587 379 C 5625 379 5664 379 5707 379 C 5769 379 5827 379 5827 379 C 5832 374 5832 345 5832 240 C 5832 196 5832 153 5832 110 C 5808 110 5779 110 5755 105 C 5707 105 5510 105 5313 105 C 5193 105 5073 105 4948 105 C 4948 91 4948 76 4948 62 C 4948 0 4944 0 4939 57 M 4939 144 C 4939 153 4939 163 4939 172 C 4920 172 4900 172 4881 172 C 4867 172 4848 172 4828 172 C 4824 168 4814 158 4809 153 C 4800 139 4795 139 4795 144 C 4804 168 4804 168 4785 172 C 4756 177 4680 172 4675 168 C 4670 163 4670 120 4675 115 C 4680 115 4737 115 4809 115 C 4852 115 4896 115 4944 115 C 4939 124 4939 134 4939 144 M 5044 115 C 5044 115 5044 124 5035 129 C 5030 139 5030 148 5030 158 C 5030 168 5025 168 5011 172 C 4987 172 4977 168 4987 158 C 4996 153 4996 144 4996 129 C 4996 124 4996 120 4996 115 C 5006 115 5016 115 5025 115 C 5035 115 5044 115 5044 115 M 5496 139 C 5496 172 5496 172 5428 172 C 5409 172 5390 172 5371 172 C 5371 168 5366 163 5366 163 C 5352 134 5318 139 5299 163 C 5294 168 5289 172 5284 177 C 5256 177 5222 172 5188 172 C 5136 172 5088 172 5088 172 C 5088 172 5092 163 5097 158 C 5102 148 5107 139 5102 129 C 5102 124 5102 120 5102 115 C 5169 115 5232 115 5299 115 C 5366 115 5433 115 5500 115 C 5496 120 5496 129 5496 139 M 5822 144 C 5822 153 5822 163 5822 172 C 5769 172 5721 172 5668 172 C 5616 172 5563 172 5510 172 C 5510 163 5510 153 5510 144 C 5510 134 5510 124 5510 115 C 5563 115 5616 115 5668 115 C 5721 115 5769 115 5822 115 C 5822 124 5822 134 5822 144 M 4977 129 C 4982 139 4963 172 4953 172 C 4948 172 4948 129 4958 124 C 4963 115 4977 120 4977 129 M 4804 182 C 4804 187 4804 196 4800 206 C 4795 211 4790 225 4785 230 C 4780 240 4689 249 4680 235 C 4670 230 4670 187 4675 182 C 4680 177 4800 177 4804 182 M 4944 187 C 4944 192 4948 192 4953 187 C 4953 182 4972 177 4992 177 C 5006 177 5016 177 5030 177 C 5030 192 5025 201 5025 211 C 5025 220 5025 230 5025 240 C 4992 240 4958 240 4929 240 C 4872 240 4828 235 4828 235 C 4824 235 4828 225 4838 216 C 4848 206 4848 196 4843 192 C 4843 192 4843 187 4843 182 C 4838 177 4939 177 4944 187 M 5284 206 C 5284 216 5284 225 5284 235 C 5280 240 5275 240 5265 240 C 5256 240 5198 240 5140 240 C 5107 240 5073 240 5040 240 C 5040 230 5040 220 5040 211 C 5040 201 5040 192 5035 177 C 5078 177 5121 177 5160 177 C 5203 177 5246 177 5284 177 C 5284 187 5284 196 5284 206 M 5491 206 C 5491 216 5491 225 5491 235 C 5486 240 5481 240 5476 240 C 5467 240 5424 240 5380 240 C 5352 240 5328 240 5299 240 C 5299 235 5299 230 5299 225 C 5294 211 5299 206 5313 206 C 5332 206 5352 196 5361 187 C 5361 182 5380 177 5428 177 C 5452 177 5472 177 5491 177 C 5491 187 5491 196 5491 206 M 5592 182 C 5592 182 5592 192 5582 196 C 5577 206 5572 216 5572 225 C 5572 235 5572 235 5558 235 C 5544 235 5544 235 5544 211 C 5544 201 5544 187 5544 182 C 5548 177 5592 177 5592 182 M 5822 211 C 5822 220 5822 230 5822 244 C 5803 244 5784 240 5764 240 C 5731 240 5688 240 5668 240 C 5659 240 5649 235 5635 235 C 5640 230 5640 230 5644 225 C 5654 211 5654 192 5644 187 C 5640 182 5659 177 5731 177 C 5764 177 5793 177 5822 177 C 5822 192 5822 201 5822 211 M 5529 206 C 5529 216 5529 225 5524 225 C 5520 225 5515 225 5510 225 C 5505 225 5505 201 5515 196 C 5524 192 5529 196 5529 206 M 5486 249 C 5500 249 5515 249 5529 249 C 5529 259 5529 268 5529 278 C 5529 288 5529 297 5529 307 C 5515 307 5491 307 5476 307 C 5433 307 5419 307 5419 312 C 5419 312 5428 316 5452 312 C 5476 312 5510 312 5534 312 C 5548 312 5563 312 5572 316 C 5572 326 5572 336 5572 345 C 5572 350 5572 360 5572 369 C 5529 369 5481 369 5433 369 C 5390 369 5342 369 5294 369 C 5294 360 5294 350 5294 345 C 5294 336 5294 326 5294 316 C 5313 312 5328 312 5342 312 C 5366 312 5390 312 5390 307 C 5400 307 5390 302 5361 307 C 5289 307 5294 307 5294 278 C 5294 268 5294 259 5294 249 C 5318 244 5342 244 5361 244 C 5400 244 5433 244 5433 244 C 5438 244 5462 249 5486 249 M 5030 278 C 5030 288 5030 297 5030 307 C 4996 307 4963 307 4934 307 C 4872 307 4843 302 4843 297 C 4843 297 4843 288 4833 283 C 4828 273 4824 264 4824 259 C 4824 254 4824 249 4824 244 C 4857 244 4891 244 4924 244 C 4958 244 4992 244 5030 244 C 5030 254 5030 268 5030 278 M 5284 273 C 5284 283 5284 292 5284 302 C 5270 302 5256 307 5241 307 C 5193 312 5054 307 5044 307 C 5040 302 5035 292 5035 273 C 5035 264 5035 254 5035 244 C 5078 244 5121 244 5164 244 C 5203 244 5246 244 5284 244 C 5284 254 5284 264 5284 273 M 5572 278 C 5572 288 5572 297 5572 307 C 5568 307 5563 307 5558 307 C 5553 307 5548 307 5544 307 C 5544 297 5544 288 5544 278 C 5544 264 5544 254 5544 249 C 5544 249 5553 244 5563 244 C 5572 244 5572 244 5572 278 M 5822 273 C 5822 312 5832 307 5692 307 C 5659 307 5620 302 5582 302 C 5582 297 5582 297 5582 292 C 5582 288 5582 273 5582 264 C 5582 259 5582 254 5587 244 C 5625 244 5664 244 5707 244 C 5745 244 5784 244 5822 244 C 5822 254 5822 264 5822 273 M 5822 345 C 5822 355 5822 364 5822 374 C 5784 369 5745 369 5702 369 C 5664 369 5625 369 5582 369 C 5582 360 5582 355 5582 345 C 5582 331 5582 321 5582 316 C 5582 316 5640 316 5707 316 C 5745 316 5784 316 5822 316 C 5822 326 5822 336 5822 345 M 2280 76 C 2280 86 2280 100 2280 110 C 2256 110 2232 105 2208 105 C 2155 105 2136 105 2136 105 C 2136 110 2169 115 2212 115 C 2236 115 2260 115 2280 115 C 2280 124 2280 134 2280 144 C 2280 153 2280 163 2280 172 C 2256 172 2227 172 2198 172 C 2174 172 2145 172 2116 172 C 2116 163 2116 148 2116 139 C 2116 124 2116 115 2116 105 C 2112 105 2107 105 2102 105 C 2092 105 2083 105 2083 105 C 2083 110 2092 115 2097 115 C 2112 115 2112 115 2107 144 C 2107 153 2107 163 2107 172 C 2088 172 2068 172 2049 177 C 2030 177 2011 177 1992 177 C 2011 177 2030 177 2049 182 C 2068 182 2088 182 2107 182 C 2107 192 2107 196 2107 206 C 2107 220 2107 235 2102 235 C 2102 240 2102 244 2102 249 C 2112 259 2112 292 2102 302 C 2102 307 2102 312 2102 316 C 2107 316 2107 331 2107 345 C 2107 355 2107 364 2112 369 C 2078 369 2044 369 2011 369 C 1958 369 1915 374 1920 374 C 1920 374 2404 379 2433 374 C 2448 374 2380 374 2284 374 C 2232 369 2174 369 2116 369 C 2116 360 2116 350 2116 340 C 2116 331 2116 321 2112 316 C 2164 316 2212 316 2265 316 C 2313 316 2366 316 2414 316 C 2414 316 2419 321 2419 326 C 2419 350 2457 350 2481 326 C 2496 316 2496 312 2544 312 C 2563 312 2577 312 2596 312 C 2577 312 2563 312 2544 312 C 2529 307 2515 307 2496 307 C 2496 297 2496 288 2496 278 C 2496 268 2491 259 2491 244 C 2510 244 2524 244 2539 244 C 2553 244 2568 244 2582 244 C 2568 244 2553 244 2539 244 C 2524 240 2510 240 2496 240 C 2496 230 2496 220 2496 211 C 2491 182 2496 177 2500 177 C 2510 177 2510 177 2500 172 C 2496 172 2491 163 2491 139 C 2491 134 2491 124 2491 115 C 2505 110 2520 110 2534 110 C 2548 110 2563 110 2577 110 C 2563 110 2548 110 2534 110 C 2520 110 2505 110 2491 105 C 2491 100 2491 96 2491 91 C 2491 86 2491 81 2486 81 C 2486 81 2481 91 2481 96 C 2481 100 2481 105 2481 105 C 2452 105 2419 105 2390 105 C 2356 105 2323 110 2294 110 C 2289 100 2289 96 2289 91 C 2289 81 2289 67 2289 57 C 2289 52 2289 43 2284 43 C 2284 43 2280 57 2280 76 M 2481 177 C 2481 196 2481 220 2481 240 C 2452 240 2424 240 2390 240 C 2289 244 2289 244 2289 206 C 2289 201 2289 192 2289 182 C 2323 182 2352 182 2380 177 C 2414 177 2443 177 2476 177 C 2448 177 2419 177 2385 177 C 2284 172 2284 177 2289 134 C 2289 129 2289 120 2289 115 C 2323 115 2352 115 2385 115 C 2419 115 2452 115 2481 115 C 2481 134 2481 153 2481 177 M 2280 206 C 2280 244 2284 244 2188 240 C 2164 240 2140 240 2116 240 C 2116 230 2116 220 2116 211 C 2116 201 2116 192 2112 177 C 2140 177 2169 177 2198 177 C 2227 177 2256 177 2280 177 C 2280 187 2280 196 2280 206 M 2222 259 C 2217 268 2212 283 2212 292 C 2212 297 2212 302 2212 307 C 2198 307 2179 307 2164 307 C 2150 307 2131 307 2116 307 C 2116 297 2116 288 2116 278 C 2116 268 2116 259 2112 244 C 2136 244 2155 244 2174 244 C 2193 244 2212 244 2236 244 C 2232 249 2227 254 2222 259 M 2481 264 C 2481 278 2481 278 2467 278 C 2448 278 2443 283 2428 292 C 2424 297 2419 302 2414 307 C 2390 307 2371 307 2347 307 C 2270 307 2270 307 2284 288 C 2289 278 2289 268 2289 259 C 2289 254 2289 249 2289 244 C 2323 244 2356 244 2385 244 C 2419 244 2452 244 2481 244 C 2481 254 2481 259 2481 264 M 614 105 C 614 110 619 115 628 115 C 643 115 652 110 652 105 C 652 105 643 105 633 105 C 624 105 614 105 614 105 M 1036 110 C 1036 110 1032 110 1027 110 C 1032 110 1036 110 1036 110 C 1046 110 1051 115 1051 144 C 1051 153 1051 168 1051 177 C 998 177 950 172 902 172 C 758 172 691 172 753 177 C 777 182 777 182 777 196 C 777 201 782 206 782 211 C 792 206 806 206 820 206 C 859 206 859 206 859 192 C 859 187 864 182 864 177 C 892 177 926 177 955 177 C 988 177 1017 177 1051 177 C 1051 187 1051 196 1051 206 C 1051 225 1046 235 1041 240 C 1041 240 936 240 816 240 C 696 240 595 240 600 240 C 600 244 758 244 955 244 C 984 244 1017 244 1051 244 C 1051 259 1046 268 1046 278 C 1046 288 1046 297 1046 307 C 1012 307 979 307 945 312 C 907 312 873 312 840 312 C 873 312 907 312 945 312 C 979 312 1012 312 1051 316 C 1051 326 1051 336 1051 345 C 1051 350 1051 360 1051 369 C 960 369 868 369 777 369 C 628 369 504 374 508 374 C 508 374 1012 379 1060 379 C 1065 374 1070 374 1065 374 C 1060 369 1060 355 1056 340 C 1056 331 1056 321 1056 316 C 1070 316 1089 316 1104 316 C 1147 316 1161 316 1166 321 C 1166 326 1176 336 1185 340 C 1200 350 1200 350 1195 340 C 1185 312 1185 316 1228 312 C 1248 312 1257 312 1248 312 C 1238 312 1228 307 1228 302 C 1224 297 1219 288 1214 278 C 1200 264 1200 244 1209 244 C 1219 244 1219 244 1219 244 C 1219 240 1219 235 1214 235 C 1204 235 1204 230 1219 216 C 1228 206 1228 196 1228 192 C 1224 182 1228 182 1238 177 C 1243 177 1243 177 1233 177 C 1219 177 1209 172 1200 158 C 1180 139 1171 134 1180 153 C 1195 172 1190 172 1123 172 C 1051 177 1056 177 1056 134 C 1056 129 1056 120 1056 115 C 1070 115 1084 115 1099 110 C 1108 110 1123 110 1137 110 C 1123 110 1108 110 1094 105 C 1070 105 1046 105 1036 110 M 1190 187 C 1190 192 1176 216 1166 225 C 1166 225 1166 230 1161 235 C 1156 244 1065 244 1060 235 C 1056 225 1056 192 1056 187 C 1060 177 1190 177 1190 187 M 1185 259 C 1200 278 1200 278 1185 278 C 1180 278 1171 288 1161 297 C 1152 307 1147 307 1104 307 C 1056 307 1056 307 1056 273 C 1056 244 1051 244 1118 244 C 1176 244 1176 249 1185 259 M 1459 105 C 1459 110 1464 115 1473 115 C 1488 115 1497 110 1497 105 C 1497 105 1488 105 1478 105 C 1468 105 1459 105 1459 105 M 1531 110 C 1536 110 1622 110 1728 110 C 1790 110 1852 110 1915 110 C 1852 110 1785 110 1723 105 C 1617 105 1531 105 1531 110 M 2688 105 C 2688 110 2688 153 2688 206 C 2688 240 2692 273 2692 307 C 2688 307 2683 307 2678 307 C 2668 307 2659 307 2649 307 C 2640 307 2635 312 2635 316 C 2635 316 2630 326 2630 331 C 2625 340 2625 350 2625 360 C 2625 369 2625 374 2625 379 C 2659 379 2688 379 2721 379 C 2755 374 2788 374 2817 374 C 2822 379 2822 384 2827 388 C 2841 417 2870 417 2894 393 C 2899 388 2904 384 2908 379 C 2937 379 2966 379 2995 379 C 3057 379 3081 379 3076 374 C 3076 374 3067 374 3057 374 C 3048 369 3048 369 3048 345 C 3048 336 3048 326 3048 316 C 3067 312 3091 312 3115 312 C 3201 312 3196 312 3110 307 C 3091 307 3067 307 3048 307 C 3048 297 3048 288 3048 278 C 3048 268 3048 259 3043 244 C 3076 244 3105 244 3139 244 C 3168 244 3201 244 3230 244 C 3201 244 3168 244 3139 244 C 3110 240 3076 240 3048 240 C 3048 230 3048 220 3048 211 C 3048 201 3048 192 3043 182 C 3076 177 3105 177 3134 177 C 3163 177 3196 177 3225 177 C 3196 177 3168 177 3134 177 C 3105 177 3076 177 3048 177 C 3048 163 3048 153 3048 144 C 3048 134 3048 124 3048 115 C 3072 110 3100 110 3129 110 C 3201 110 3196 110 3105 110 C 3043 110 3000 110 3014 110 C 3038 115 3038 120 3038 148 C 3038 172 3038 177 2971 172 C 2952 172 2928 172 2908 172 C 2908 168 2908 163 2908 158 C 2908 153 2904 144 2899 144 C 2894 144 2894 158 2899 211 C 2899 220 2899 230 2899 240 C 2884 244 2875 244 2860 244 C 2851 244 2836 244 2827 244 C 2836 244 2851 244 2860 244 C 2875 244 2884 244 2899 244 C 2899 254 2899 264 2899 273 C 2899 297 2894 307 2889 307 C 2880 312 2880 312 2889 312 C 2894 312 2899 316 2899 331 C 2899 345 2894 345 2884 345 C 2865 340 2841 355 2836 364 C 2832 374 2678 374 2678 369 C 2678 369 2683 360 2688 355 C 2697 345 2702 336 2702 326 C 2702 316 2702 312 2707 312 C 2716 312 2716 312 2707 307 C 2702 307 2702 292 2702 206 C 2702 134 2697 105 2697 105 C 2692 105 2688 105 2688 105 M 3038 211 C 3038 220 3038 230 3038 240 C 3019 240 2995 240 2971 240 C 2952 240 2928 240 2908 240 C 2908 230 2908 220 2908 211 C 2908 201 2908 192 2904 177 C 2928 182 2952 182 2971 182 C 2995 182 3014 182 3038 182 C 3038 192 3038 201 3038 211 M 3038 254 C 3038 254 3038 264 3038 268 C 3038 278 3038 288 3038 297 C 3038 302 3038 307 3033 307 C 3019 307 3000 307 2980 307 C 2904 307 2908 312 2908 273 C 2908 264 2908 254 2908 244 C 2928 244 2947 244 2971 244 C 3019 244 3033 249 3038 254 M 3038 345 C 3038 355 3038 364 3038 369 C 3019 369 2995 369 2971 369 C 2952 369 2928 369 2908 369 C 2908 360 2908 350 2908 340 C 2908 331 2908 321 2908 312 C 2928 316 2952 316 2971 316 C 2995 316 3014 316 3038 316 C 3038 326 3038 336 3038 345 M 2808 110 C 2774 110 2793 110 2870 110 C 2932 110 2980 110 2976 110 C 2971 105 2865 105 2808 110 M 3739 110 C 3518 110 3590 110 4051 110 C 4382 110 4656 110 4651 110 C 4651 105 4056 105 3739 110 M 830 110 C 864 110 926 110 960 110 C 998 110 969 110 897 110 C 820 110 792 110 830 110 M 1420 144 C 1416 148 1406 153 1401 158 C 1396 168 1387 172 1368 172 C 1358 177 1348 177 1339 177 C 1348 177 1358 177 1363 177 C 1372 177 1382 177 1392 177 C 1392 192 1387 201 1387 211 C 1387 220 1387 230 1387 240 C 1368 240 1353 240 1339 240 C 1310 235 1286 240 1291 240 C 1291 240 1310 240 1334 244 C 1392 244 1392 244 1387 278 C 1387 288 1387 297 1387 307 C 1382 307 1372 307 1363 312 C 1358 312 1348 312 1344 312 C 1353 312 1358 312 1368 312 C 1372 312 1382 312 1392 316 C 1392 321 1392 331 1392 340 C 1392 350 1392 360 1392 369 C 1377 374 1363 374 1353 374 C 1339 374 1329 374 1315 374 C 1329 374 1339 374 1353 374 C 1363 374 1377 374 1392 379 C 1392 379 1392 388 1392 388 C 1392 408 1396 408 1401 393 C 1401 388 1401 384 1401 379 C 1440 379 1478 379 1512 379 C 1550 379 1588 379 1627 379 C 1627 388 1627 393 1627 403 C 1632 441 1636 446 1636 408 C 1641 398 1641 388 1641 379 C 1651 379 1660 379 1670 374 C 1680 374 1689 374 1699 374 C 1689 374 1680 374 1670 374 C 1660 374 1651 374 1641 369 C 1641 360 1641 350 1641 345 C 1641 336 1641 326 1641 316 C 1675 316 1713 316 1752 316 C 1790 316 1828 316 1867 316 C 1867 340 1867 364 1867 388 C 1867 432 1872 465 1872 465 C 1876 475 1881 460 1881 388 C 1881 321 1881 316 1886 312 C 1896 312 1896 312 1886 307 C 1881 307 1881 297 1881 288 C 1881 278 1881 273 1891 278 C 1905 283 1934 268 1944 254 C 1944 249 1948 244 1953 244 C 1963 244 1963 244 1953 240 C 1948 235 1944 225 1944 225 C 1944 206 1900 211 1881 230 C 1872 240 1867 240 1852 240 C 1848 240 1838 240 1838 240 C 1838 244 1848 244 1852 244 C 1857 244 1867 244 1872 244 C 1872 259 1872 268 1872 278 C 1872 288 1872 297 1872 312 C 1833 307 1795 307 1756 307 C 1718 307 1680 307 1641 307 C 1641 297 1641 288 1641 278 C 1641 268 1641 259 1636 244 C 1670 244 1699 244 1728 244 C 1756 244 1785 244 1814 244 C 1795 244 1776 244 1752 240 C 1723 240 1694 240 1694 240 C 1689 240 1694 230 1699 225 C 1704 220 1704 206 1704 196 C 1704 192 1704 187 1704 177 C 1737 177 1771 177 1800 177 C 1852 177 1800 177 1684 177 C 1483 172 1473 172 1468 163 C 1454 139 1444 134 1420 144 M 1651 187 C 1651 187 1646 196 1641 201 C 1636 206 1632 216 1632 225 C 1627 230 1627 235 1627 240 C 1593 240 1560 240 1526 240 C 1459 235 1420 240 1420 240 C 1420 244 1454 244 1526 244 C 1560 244 1593 244 1632 244 C 1632 259 1627 268 1627 278 C 1627 288 1627 297 1627 307 C 1588 307 1550 307 1512 307 C 1478 307 1440 307 1401 307 C 1401 297 1401 288 1401 278 C 1396 254 1401 244 1406 244 C 1411 244 1411 244 1406 240 C 1401 240 1396 230 1396 220 C 1396 211 1401 206 1411 211 C 1425 216 1454 201 1464 187 C 1464 182 1473 177 1560 177 C 1632 177 1651 182 1651 187 M 1632 345 C 1632 350 1632 360 1632 369 C 1593 369 1550 369 1512 369 C 1478 369 1440 369 1396 369 C 1396 360 1396 350 1396 345 C 1396 336 1396 326 1396 316 C 1440 316 1478 316 1512 316 C 1550 316 1593 316 1632 316 C 1632 326 1632 336 1632 345 M 2788 177 C 2764 177 2745 177 2721 177 C 2750 177 2774 177 2803 177 C 2856 177 2880 177 2880 177 C 2880 172 2870 172 2865 172 C 2860 172 2827 172 2788 177 M 1238 244 C 1228 244 1228 244 1248 244 C 1262 244 1276 244 1276 244 C 1281 235 1252 235 1238 244 M 2016 240 C 2016 244 2025 244 2044 244 C 2078 244 2078 244 2040 240 C 2025 240 2016 240 2016 240 M 3614 244 C 3667 244 3748 244 3801 244 C 3854 244 3811 244 3705 244 C 3604 244 3561 244 3614 244 M 2827 307 C 2817 312 2808 312 2798 312 C 2812 312 2827 312 2836 312 C 2865 312 2875 312 2875 307 C 2875 307 2870 307 2865 307 C 2860 307 2841 307 2827 307 M 3556 312 C 3552 312 3609 312 3691 312 C 3768 312 3825 312 3820 312 C 3796 307 3566 307 3556 312 M 4075 307 C 4089 307 4113 307 4128 307 C 4142 307 4128 307 4099 307 C 4075 307 4060 307 4075 307 M 1809 379 C 1804 379 1809 379 1828 379 C 1843 379 1857 379 1857 374 C 1862 369 1819 369 1809 379 M 2539 379 C 2534 379 2611 379 2611 374 C 2616 374 2596 369 2577 374 C 2558 374 2539 374 2539 379 M 3148 374 C 3134 379 3120 379 3105 379 C 3120 379 3134 379 3148 379 C 3163 379 3172 379 3187 379 C 3187 384 3182 388 3182 393 C 3168 412 3177 432 3201 436 C 3230 446 3230 446 3220 432 C 3206 417 3206 398 3216 388 C 3235 369 3264 403 3249 427 C 3244 436 3244 441 3254 441 C 3278 441 3292 412 3278 393 C 3268 384 3268 379 3297 379 C 3312 379 3331 379 3336 379 C 3345 374 3206 374 3148 374 M 3384 374 C 3408 374 3441 374 3460 374 C 3484 374 3465 374 3422 374 C 3379 374 3364 374 3384 374 M 3547 379 C 3585 384 3739 379 3705 374 C 3691 374 3643 374 3600 374 C 3542 374 3528 374 3547 379 M 3916 374 C 3916 379 4046 379 4204 379 C 4377 379 4492 379 4492 379 C 4488 374 3921 369 3916 374 M 4608 379 C 4608 384 4627 384 4641 379 C 4651 374 4646 374 4632 374 C 4617 374 4608 374 4608 379 M 4723 374 C 4728 379 4867 379 4876 374 C 4876 374 4843 374 4800 374 C 4756 374 4718 374 4723 374 M 177 427 C 158 451 177 484 211 489 C 220 494 225 489 225 489 C 225 484 225 480 220 480 C 211 480 211 480 211 480 C 211 475 211 470 220 470 C 230 460 230 432 220 427 C 206 417 192 417 177 427 M 3916 652 C 3916 681 3916 710 3916 739 C 3912 739 3902 739 3897 744 C 3892 744 3883 744 3878 744 C 3883 744 3892 744 3897 748 C 3916 748 3916 748 3916 763 C 3916 777 3916 777 3902 777 C 3897 777 3888 777 3883 777 C 3878 777 3868 787 3859 796 C 3854 796 3849 806 3844 806 C 3739 806 3638 806 3537 806 C 3432 806 3331 806 3230 806 C 3225 806 3220 796 3220 796 C 3206 777 3196 777 3206 792 C 3206 796 3211 806 3211 806 C 3211 806 3172 806 3124 806 C 3100 806 3072 806 3043 806 C 3048 796 3048 787 3048 777 C 3048 768 3048 758 3048 748 C 3072 748 3096 748 3120 744 C 3163 744 3086 744 2952 744 C 2808 744 2774 744 2870 744 C 2923 744 2980 744 3033 748 C 3038 748 3038 753 3038 758 C 3038 763 3038 777 3038 787 C 3038 792 3038 801 3038 806 C 2980 806 2923 806 2865 811 C 2803 811 2745 811 2688 811 C 2745 811 2803 811 2865 816 C 2923 816 2980 816 3038 816 C 3038 825 3038 835 3038 844 C 3038 854 3038 864 3038 873 C 3014 873 2985 873 2961 873 C 2923 873 2884 878 2884 878 C 2880 878 2918 878 2961 878 C 2985 878 3014 878 3038 878 C 3038 888 3038 897 3038 907 C 3038 945 3043 945 2966 940 C 2928 940 2904 940 2913 940 C 2918 945 2947 945 2980 945 C 3000 945 3019 945 3038 950 C 3038 955 3038 960 3038 964 C 3038 974 3038 988 3038 993 C 3038 998 3038 1003 3033 1003 C 2971 1008 2908 1008 2846 1008 C 2784 1008 2721 1008 2659 1008 C 2726 1008 2798 1008 2865 1008 C 2980 1008 3067 1008 3057 1008 C 3048 1003 3048 1003 3048 974 C 3048 964 3048 955 3048 945 C 3067 945 3091 945 3110 945 C 3134 945 3158 945 3177 945 C 3182 955 3187 955 3192 964 C 3201 969 3211 979 3211 979 C 3220 979 3220 974 3216 969 C 3201 955 3206 945 3230 945 C 3254 945 3254 940 3235 912 C 3211 888 3216 878 3264 878 C 3292 878 3307 878 3302 878 C 3297 873 3278 873 3264 873 C 3230 878 3225 873 3240 849 C 3249 835 3254 830 3249 825 C 3244 820 3244 820 3244 816 C 3249 816 3384 816 3547 816 C 3825 816 3844 816 3844 820 C 3854 844 3868 854 3897 840 C 3916 830 3921 830 3916 854 C 3912 868 3912 868 3897 873 C 3859 878 3513 873 3513 868 C 3513 859 3513 859 3518 844 C 3518 835 3518 830 3523 825 C 3518 830 3513 835 3508 840 C 3494 854 3489 854 3484 840 C 3484 825 3470 820 3460 830 C 3441 844 3456 864 3484 859 C 3494 859 3504 859 3504 864 C 3504 868 3494 873 3484 873 C 3470 873 3460 873 3460 878 C 3460 878 3465 878 3480 878 C 3484 878 3489 878 3499 878 C 3494 888 3494 892 3494 902 C 3489 936 3489 936 3470 936 C 3465 936 3456 940 3460 940 C 3460 940 3523 945 3604 945 C 3681 945 3744 945 3739 945 C 3739 945 3686 940 3619 940 C 3552 940 3499 936 3499 936 C 3494 936 3499 921 3504 907 C 3504 897 3504 888 3508 878 C 3566 878 3628 878 3686 878 C 3787 878 3864 883 3864 883 C 3864 883 3864 892 3854 897 C 3849 907 3844 916 3849 926 C 3849 940 3844 940 3796 945 C 3772 945 3772 945 3811 945 C 3864 950 3864 950 3854 964 C 3849 974 3844 984 3849 993 C 3849 998 3849 1003 3849 1008 C 3763 1008 3672 1008 3585 1008 C 3494 1008 3408 1008 3316 1008 C 3412 1008 3508 1008 3604 1008 C 3888 1012 3926 1012 3916 1008 C 3912 1003 3912 998 3916 988 C 3921 979 3921 969 3921 960 C 3921 950 3926 950 3993 945 C 4080 940 4147 940 4209 945 C 4224 945 4238 950 4252 950 C 4252 960 4252 969 4252 979 C 4252 988 4252 998 4252 1003 C 4224 1008 4195 1008 4161 1008 C 4132 1008 4099 1008 4070 1008 C 4099 1008 4132 1008 4161 1008 C 4195 1008 4224 1008 4252 1008 C 4257 1027 4257 1041 4257 1060 C 4257 1099 4257 1104 4262 1089 C 4262 1080 4262 1065 4262 1056 C 4257 1051 4262 1036 4262 1027 C 4262 1022 4262 1017 4267 1008 C 4324 1008 4382 1008 4440 1008 C 4502 1008 4560 1008 4617 1008 C 4560 1008 4497 1008 4440 1008 C 4344 1003 4262 1003 4262 998 C 4262 998 4262 993 4262 988 C 4262 979 4267 979 4286 974 C 4305 974 4315 969 4320 960 C 4324 955 4329 950 4329 945 C 4372 945 4416 945 4454 945 C 4521 945 4579 945 4574 945 C 4574 945 4406 940 4348 940 C 4334 940 4334 936 4334 931 C 4334 926 4324 916 4320 912 C 4315 912 4310 912 4305 907 C 4310 902 4315 897 4320 892 C 4324 888 4329 883 4334 878 C 4377 878 4425 878 4468 878 C 4545 878 4608 878 4603 878 C 4603 878 4545 878 4478 873 C 4339 873 4334 873 4329 859 C 4324 844 4305 840 4281 849 C 4276 854 4272 859 4262 859 C 4262 854 4262 844 4262 835 C 4262 830 4262 820 4262 816 C 4334 816 4396 816 4464 816 C 4536 816 4598 816 4670 816 C 4670 820 4670 830 4670 840 C 4670 849 4670 859 4670 868 C 4660 873 4651 873 4646 873 C 4608 878 4608 878 4636 878 C 4646 878 4656 878 4670 878 C 4670 888 4670 897 4670 907 C 4670 940 4670 940 4636 940 C 4627 936 4612 940 4612 940 C 4612 945 4617 945 4636 945 C 4646 945 4656 945 4670 945 C 4670 955 4670 964 4670 974 C 4670 998 4665 1003 4656 1003 C 4646 1008 5755 1012 5827 1012 C 5832 1012 5832 979 5832 878 C 5832 830 5832 787 5832 744 C 5558 744 5280 744 5006 744 C 4732 744 4454 744 4180 744 C 4180 724 4180 710 4180 696 C 4180 633 4171 633 4166 691 C 4166 705 4166 724 4166 739 C 4137 739 4108 739 4084 739 C 4056 739 4027 739 4003 744 C 4003 734 4003 724 4003 715 C 4003 681 3993 662 3960 628 C 3945 609 3931 590 3926 580 C 3921 566 3921 571 3916 652 M 3974 672 C 3988 691 3998 744 3988 744 C 3984 744 3984 744 3984 748 C 3988 758 3988 758 3993 753 C 3998 748 4012 744 4041 744 C 4056 744 4070 744 4080 744 C 4080 753 4084 758 4084 768 C 4089 806 4084 806 4036 811 C 4022 811 4008 811 3993 811 C 4008 811 4022 811 4036 811 C 4051 811 4065 811 4084 816 C 4084 825 4084 835 4084 844 C 4084 854 4084 864 4084 873 C 4070 873 4056 873 4046 873 C 4003 873 4017 878 4060 878 C 4065 878 4075 878 4084 878 C 4084 888 4084 897 4084 902 C 4084 926 4084 926 4099 916 C 4137 878 4147 878 4219 878 C 4233 878 4243 878 4252 878 C 4252 888 4252 897 4252 907 C 4252 916 4252 926 4252 936 C 4214 940 4171 940 4128 940 C 4060 940 3984 940 3964 940 C 3950 940 3936 936 3921 936 C 3921 926 3921 916 3921 907 C 3921 897 3921 888 3921 878 C 3936 878 3945 878 3960 878 C 3998 878 3998 878 3955 873 C 3945 873 3936 873 3926 873 C 3926 864 3926 854 3926 844 C 3921 816 3926 811 3931 811 C 3940 811 3940 811 3931 811 C 3926 806 3916 652 3926 638 C 3931 633 3964 652 3974 672 M 4166 777 C 4166 787 4166 796 4171 806 C 4156 806 4147 806 4137 806 C 4094 806 4094 806 4094 777 C 4094 744 4094 744 4132 748 C 4142 748 4156 748 4166 748 C 4166 758 4166 768 4166 777 M 4272 748 C 4281 753 4281 753 4272 758 C 4262 763 4252 782 4252 796 C 4252 806 4252 806 4228 806 C 4204 806 4204 806 4219 787 C 4224 782 4228 772 4228 768 C 4228 758 4228 753 4228 748 C 4233 744 4257 744 4272 748 M 4665 777 C 4665 787 4670 796 4670 806 C 4608 806 4550 806 4492 806 C 4396 806 4315 806 4315 806 C 4315 806 4320 796 4324 787 C 4334 772 4334 768 4334 758 C 4329 758 4329 748 4329 748 C 4334 748 4406 748 4497 748 C 4555 748 4608 748 4665 748 C 4665 758 4665 768 4665 777 M 5817 748 C 5822 753 5822 758 5822 782 C 5822 792 5822 801 5822 806 C 5736 806 5649 806 5558 806 C 5414 806 5294 811 5299 811 C 5299 811 5419 811 5563 816 C 5856 816 5827 811 5827 849 C 5827 859 5822 864 5822 873 C 5635 873 5443 873 5256 873 C 4939 873 4680 873 4680 868 C 4675 868 4675 854 4675 840 C 4675 830 4680 820 4680 811 C 4766 816 4852 816 4944 816 C 5030 816 5121 816 5208 816 C 5208 820 5208 825 5208 830 C 5212 840 5212 840 5241 844 C 5289 844 5289 844 5289 825 C 5289 820 5289 816 5289 806 C 5188 806 5088 806 4987 806 C 4881 806 4780 806 4680 806 C 4680 806 4675 801 4675 796 C 4675 792 4675 777 4675 768 C 4675 758 4680 753 4680 744 C 4867 744 5054 744 5246 744 C 5553 744 5812 748 5817 748 M 4324 763 C 4324 782 4276 811 4267 801 C 4262 792 4281 768 4300 758 C 4315 753 4324 753 4324 763 M 4204 768 C 4204 772 4200 787 4195 796 C 4190 801 4185 806 4180 811 C 4180 801 4180 796 4180 787 C 4180 763 4180 758 4200 758 C 4204 758 4204 758 4204 768 M 3211 820 C 3211 825 3201 840 3196 844 C 3192 854 3187 864 3182 868 C 3182 873 3172 878 3115 873 C 3091 873 3072 873 3048 873 C 3048 864 3048 854 3048 844 C 3048 835 3048 825 3043 816 C 3072 816 3100 816 3124 816 C 3206 816 3211 816 3211 820 M 4166 820 C 4171 830 4171 830 4180 820 C 4190 816 4200 816 4224 816 C 4233 816 4243 816 4252 816 C 4252 825 4252 835 4252 844 C 4252 854 4252 864 4252 873 C 4238 873 4219 873 4200 873 C 4156 873 4147 868 4147 864 C 4147 849 4128 840 4108 844 C 4094 849 4094 849 4094 835 C 4094 816 4094 816 4132 816 C 4156 816 4166 816 4166 820 M 4118 859 C 4128 868 4113 878 4099 868 C 4089 864 4089 864 4099 859 C 4108 849 4113 849 4118 859 M 4324 864 C 4324 868 4320 873 4305 873 C 4286 873 4281 864 4300 859 C 4320 849 4324 849 4324 864 M 5659 878 C 5712 878 5769 878 5822 878 C 5822 892 5822 902 5822 912 C 5822 921 5822 931 5822 940 C 5740 940 5654 940 5568 940 C 5424 940 5308 940 5304 940 C 5304 945 5366 945 5452 945 C 5539 945 5654 945 5716 945 C 5750 945 5788 945 5822 945 C 5822 955 5822 969 5822 979 C 5822 988 5822 998 5822 1008 C 5635 1008 5443 1008 5251 1008 C 5059 1008 4867 1008 4680 1008 C 4675 1003 4675 998 4675 993 C 4670 969 4675 945 4689 945 C 4699 945 4708 945 4708 945 C 4708 940 4704 936 4694 936 C 4689 936 4684 936 4680 936 C 4680 931 4680 921 4680 912 C 4680 902 4680 892 4680 883 C 4684 878 4694 878 4704 878 C 4718 878 4905 878 5112 878 C 5318 878 5568 878 5659 878 M 3206 892 C 3220 912 3220 912 3206 916 C 3192 916 3187 916 3182 931 C 3177 940 3172 940 3110 940 C 3091 940 3067 940 3048 940 C 3048 931 3048 921 3048 912 C 3048 902 3048 892 3043 878 C 3072 878 3096 878 3120 878 C 3148 878 3172 878 3196 878 C 3201 883 3206 888 3206 892 M 4113 883 C 4113 888 4113 892 4108 897 C 4099 907 4089 902 4094 888 C 4094 878 4113 878 4113 883 M 4300 892 C 4291 897 4262 902 4262 897 C 4262 888 4272 878 4291 883 C 4296 883 4305 883 4310 883 C 4305 883 4300 888 4300 892 M 4324 926 C 4324 936 4320 936 4300 936 C 4281 936 4281 936 4296 926 C 4315 916 4324 916 4324 926 M 4300 960 C 4281 969 4262 969 4267 955 C 4272 950 4276 950 4291 950 C 4296 950 4305 950 4310 950 C 4305 950 4300 955 4300 960 M 1358 744 C 1411 744 1492 744 1540 744 C 1593 744 1550 744 1449 744 C 1348 744 1310 744 1358 744 M 1670 744 C 1689 744 1723 744 1737 744 C 1756 744 1742 744 1704 744 C 1665 744 1651 744 1670 744 M 2035 744 C 2059 748 2083 748 2107 748 C 2107 758 2107 768 2107 777 C 2107 801 2107 806 2092 811 C 2083 811 2083 811 2092 811 C 2112 816 2116 873 2097 873 C 2092 873 2088 873 2088 873 C 2088 878 2092 878 2097 883 C 2107 883 2107 888 2107 912 C 2107 921 2107 931 2107 936 C 2102 940 2097 940 2092 940 C 2078 940 2078 940 2092 940 C 2107 945 2112 955 2107 984 C 2107 988 2107 998 2107 1003 C 2083 1003 2059 1003 2035 1008 C 1996 1008 2068 1008 2193 1008 C 2328 1008 2356 1008 2270 1008 C 2217 1008 2164 1008 2116 1003 C 2116 984 2116 964 2116 945 C 2116 902 2116 883 2121 878 C 2126 878 2126 873 2121 873 C 2116 873 2116 859 2116 840 C 2116 830 2116 820 2116 816 C 2174 811 2236 811 2299 811 C 2361 811 2419 811 2481 811 C 2419 811 2361 811 2299 811 C 2236 811 2174 811 2116 806 C 2116 796 2116 787 2116 777 C 2116 768 2116 758 2116 748 C 2160 744 2203 744 2251 744 C 2323 744 2289 744 2179 744 C 2064 744 2001 744 2035 744 M 3499 744 C 3566 744 3667 744 3729 744 C 3792 744 3739 744 3614 744 C 3489 744 3436 744 3499 744 M 1363 811 C 1420 816 1483 816 1540 816 C 1540 820 1540 825 1540 825 C 1540 840 1555 844 1598 844 C 1622 840 1627 840 1627 825 C 1627 820 1627 816 1627 816 C 1660 811 1699 811 1737 811 C 1800 811 1699 811 1516 811 C 1276 811 1233 811 1363 811 M 1934 811 C 1963 811 2006 811 2035 811 C 2059 811 2040 811 1982 811 C 1924 811 1905 811 1934 811 M 2520 811 C 2534 816 2534 816 2534 830 C 2534 840 2539 844 2548 844 C 2563 844 2616 840 2616 840 C 2616 840 2616 835 2620 825 C 2620 820 2620 816 2620 806 C 2601 811 2582 811 2563 811 C 2529 811 2510 811 2520 811 M 1464 878 C 1464 878 1540 878 1660 878 C 1771 878 1862 878 1857 878 C 1852 873 1464 873 1464 878 M 2726 878 C 2697 878 2707 878 2769 878 C 2812 878 2851 878 2846 878 C 2841 873 2779 873 2726 878 M 3345 878 C 3345 878 3364 878 3388 878 C 3412 878 3436 878 3432 878 C 3427 873 3345 868 3345 878 M 1089 878 C 1099 878 1123 878 1132 878 C 1147 878 1137 878 1108 878 C 1084 878 1075 878 1089 878 M 2294 878 C 2352 878 2448 878 2510 878 C 2568 878 2520 878 2400 878 C 2284 878 2236 878 2294 878 M 508 940 C 508 945 614 945 614 940 C 619 940 595 936 561 936 C 532 936 508 940 508 940 M 676 945 C 710 950 729 950 729 945 C 729 940 715 940 691 940 C 652 940 652 940 676 945 M 1161 945 C 1156 945 1161 945 1176 945 C 1190 945 1195 945 1195 945 C 1190 936 1176 940 1161 945 M 1464 945 C 1464 945 1569 945 1689 945 C 1809 945 1900 945 1891 945 C 1848 940 1459 940 1464 945 M 2222 945 C 2256 945 2318 945 2352 945 C 2385 945 2356 945 2284 945 C 2212 945 2184 945 2222 945 M 2438 945 C 2448 945 2467 945 2481 945 C 2491 945 2481 945 2457 945 C 2433 945 2424 945 2438 945 M 1377 1008 C 1435 1008 1536 1008 1593 1008 C 1651 1008 1603 1008 1483 1008 C 1363 1008 1315 1008 1377 1008 M 3964 1008 C 3979 1008 3993 1008 4008 1008 C 4017 1008 4008 1008 3988 1008 C 3964 1008 3955 1008 3964 1008 M 4286 1209 C 4257 1224 4252 1233 4252 1267 C 4257 1296 4252 1300 4248 1300 C 4238 1300 4238 1300 4248 1305 C 4252 1310 4252 1320 4252 1339 C 4252 1348 4252 1358 4252 1372 C 4243 1372 4228 1372 4214 1372 C 4180 1372 4180 1368 4180 1358 C 4180 1353 4176 1344 4176 1344 C 4171 1344 4166 1353 4166 1358 C 4166 1363 4166 1368 4166 1372 C 4118 1372 4065 1372 4012 1372 C 3926 1372 3854 1368 3854 1368 C 3854 1363 3854 1348 3854 1334 C 3854 1324 3859 1315 3859 1310 C 3864 1305 3868 1305 3878 1305 C 3902 1305 3940 1300 3921 1300 C 3907 1296 3907 1291 3916 1281 C 3926 1276 3926 1252 3912 1243 C 3888 1228 3849 1252 3849 1286 C 3849 1291 3844 1300 3840 1300 C 3835 1300 3835 1300 3840 1305 C 3844 1305 3849 1324 3849 1339 C 3849 1348 3849 1358 3849 1372 C 3667 1372 3484 1372 3302 1372 C 3004 1372 2822 1372 2899 1372 C 2947 1372 2995 1372 3038 1377 C 3038 1387 3038 1392 3038 1401 C 3038 1440 3048 1435 2918 1435 C 2856 1435 2817 1435 2832 1440 C 2846 1440 2899 1440 2947 1440 C 2980 1440 3009 1440 3043 1444 C 3038 1454 3038 1464 3038 1473 C 3038 1483 3038 1492 3038 1502 C 2985 1502 2937 1502 2884 1507 C 2832 1507 2784 1507 2731 1507 C 2784 1507 2832 1507 2884 1512 C 2937 1512 2985 1512 3038 1512 C 3038 1521 3038 1531 3038 1540 C 3038 1550 3038 1560 3038 1569 C 2980 1569 2923 1569 2865 1574 C 2808 1574 2750 1574 2692 1574 C 2750 1574 2808 1574 2865 1579 C 2923 1579 2980 1579 3038 1579 C 3038 1588 3038 1598 3038 1608 C 3038 1617 3038 1627 3043 1636 C 2966 1641 2884 1641 2808 1641 C 2731 1641 2654 1641 2577 1641 C 2654 1641 2731 1641 2812 1641 C 2937 1646 3048 1646 3052 1646 C 3057 1641 3062 1641 3067 1641 C 3062 1641 3057 1641 3057 1636 C 3048 1636 3043 1632 3048 1608 C 3048 1598 3048 1588 3048 1579 C 3067 1579 3091 1579 3110 1579 C 3134 1579 3153 1579 3172 1574 C 3182 1584 3187 1588 3196 1598 C 3216 1617 3220 1617 3216 1603 C 3206 1584 3211 1579 3240 1574 C 3254 1574 3259 1574 3254 1574 C 3249 1574 3249 1564 3249 1560 C 3249 1555 3244 1550 3240 1550 C 3220 1540 3220 1507 3240 1478 C 3249 1464 3249 1459 3249 1454 C 3244 1444 3244 1440 3254 1440 C 3259 1440 3259 1440 3244 1435 C 3235 1435 3220 1425 3216 1416 C 3201 1401 3196 1401 3201 1416 C 3211 1435 3206 1435 3163 1435 C 3105 1440 3105 1444 3163 1444 C 3201 1444 3211 1444 3211 1449 C 3211 1454 3196 1478 3187 1483 C 3182 1492 3182 1507 3187 1507 C 3196 1507 3216 1531 3216 1540 C 3216 1540 3216 1545 3206 1545 C 3201 1545 3192 1550 3182 1560 C 3182 1564 3177 1569 3172 1574 C 3148 1569 3129 1569 3110 1569 C 3091 1569 3067 1569 3048 1569 C 3048 1560 3048 1550 3048 1540 C 3048 1531 3048 1521 3043 1507 C 3067 1507 3091 1507 3110 1507 C 3134 1507 3153 1507 3177 1507 C 3158 1507 3134 1507 3115 1507 C 3091 1502 3067 1502 3048 1502 C 3048 1492 3048 1483 3048 1473 C 3043 1444 3048 1440 3052 1440 C 3062 1440 3062 1440 3052 1435 C 3048 1430 3043 1425 3048 1401 C 3048 1396 3048 1387 3048 1377 C 3182 1377 3312 1377 3446 1377 C 3580 1377 3715 1377 3849 1372 C 3849 1382 3849 1392 3849 1401 C 3849 1440 3854 1440 3672 1435 C 3566 1435 3523 1435 3523 1435 C 3523 1440 3542 1444 3571 1440 C 3595 1440 3667 1440 3729 1440 C 3768 1440 3806 1440 3849 1444 C 3849 1454 3849 1464 3849 1473 C 3849 1483 3849 1492 3849 1507 C 3792 1507 3734 1507 3681 1507 C 3624 1507 3571 1507 3513 1507 C 3513 1497 3518 1488 3518 1483 C 3518 1454 3518 1449 3508 1468 C 3499 1483 3489 1483 3484 1468 C 3484 1449 3456 1449 3456 1468 C 3451 1483 3460 1488 3484 1488 C 3504 1492 3508 1492 3504 1497 C 3499 1502 3465 1502 3403 1507 C 3369 1507 3340 1507 3307 1507 C 3340 1507 3369 1507 3403 1507 C 3508 1512 3504 1507 3489 1550 C 3489 1555 3489 1564 3484 1574 C 3451 1574 3412 1574 3379 1574 C 3316 1574 3398 1574 3556 1574 C 3652 1579 3748 1579 3844 1579 C 3844 1588 3844 1598 3844 1608 C 3844 1617 3849 1627 3849 1636 C 3758 1641 3672 1641 3585 1641 C 3499 1641 3408 1641 3321 1641 C 3408 1641 3494 1641 3585 1641 C 3672 1641 3758 1641 3844 1646 C 3849 1660 3849 1680 3849 1694 C 3849 1742 3849 1747 3854 1732 C 3859 1723 3868 1708 3883 1699 C 3892 1684 3907 1670 3912 1660 C 3916 1656 3926 1646 3936 1646 C 3940 1641 3945 1641 3936 1641 C 3931 1641 3931 1636 3931 1608 C 3931 1598 3931 1588 3931 1579 C 3940 1574 3955 1574 3964 1574 C 3979 1574 3988 1574 4003 1574 C 3988 1574 3979 1574 3964 1574 C 3931 1574 3921 1569 3921 1564 C 3916 1555 3916 1555 3916 1564 C 3916 1569 3912 1574 3907 1574 C 3907 1574 3907 1574 3912 1574 C 3916 1574 3916 1579 3916 1598 C 3916 1632 3912 1636 3883 1636 C 3873 1636 3864 1636 3854 1636 C 3854 1632 3854 1627 3854 1617 C 3854 1608 3854 1593 3854 1588 C 3854 1584 3859 1579 3864 1574 C 3878 1574 3878 1574 3868 1574 C 3859 1574 3854 1569 3854 1555 C 3854 1540 3859 1540 3878 1540 C 3897 1540 3902 1536 3912 1526 C 3926 1512 3926 1512 3974 1507 C 3988 1507 4008 1507 4022 1507 C 4008 1507 3988 1507 3974 1507 C 3926 1507 3926 1502 3921 1492 C 3921 1473 3897 1468 3873 1478 C 3868 1483 3864 1488 3854 1488 C 3854 1488 3854 1483 3854 1478 C 3854 1473 3854 1464 3854 1459 C 3854 1454 3854 1449 3854 1444 C 3854 1444 3888 1440 3926 1440 C 3964 1440 4012 1440 4036 1440 C 4070 1435 4051 1435 3969 1435 C 3849 1435 3849 1435 3854 1401 C 3854 1392 3854 1382 3854 1377 C 3907 1377 3960 1377 4012 1377 C 4065 1377 4118 1377 4166 1372 C 4166 1382 4166 1392 4166 1401 C 4166 1420 4166 1435 4161 1435 C 4156 1435 4156 1440 4161 1440 C 4166 1440 4166 1454 4166 1473 C 4166 1483 4166 1492 4166 1502 C 4147 1507 4123 1507 4099 1507 C 4080 1507 4056 1507 4032 1507 C 4056 1507 4080 1507 4099 1507 C 4142 1507 4166 1512 4166 1516 C 4166 1516 4171 1516 4176 1516 C 4180 1516 4185 1516 4185 1516 C 4185 1512 4200 1507 4219 1507 C 4233 1507 4243 1507 4252 1507 C 4252 1521 4252 1531 4252 1540 C 4252 1550 4252 1560 4252 1569 C 4214 1574 4176 1574 4132 1574 C 4094 1574 4051 1574 4012 1574 C 4051 1574 4094 1574 4132 1574 C 4176 1574 4214 1574 4252 1574 C 4252 1588 4252 1598 4252 1608 C 4252 1617 4252 1627 4252 1636 C 4214 1641 4171 1641 4128 1641 C 4084 1641 4041 1641 3998 1641 C 4041 1641 4084 1641 4128 1641 C 4171 1641 4214 1641 4252 1646 C 4252 1656 4252 1665 4252 1670 C 4252 1689 4257 1699 4257 1699 C 4262 1699 4262 1689 4262 1675 C 4262 1665 4262 1656 4262 1646 C 4444 1646 4627 1646 4809 1646 C 5112 1646 5356 1641 5356 1641 C 5361 1641 5208 1636 5020 1636 C 4756 1636 4684 1636 4680 1632 C 4675 1627 4675 1593 4680 1584 C 4680 1579 4790 1579 5256 1579 C 5443 1579 5635 1579 5827 1579 C 5827 1588 5827 1598 5827 1608 C 5827 1617 5827 1627 5827 1636 C 5750 1636 5673 1636 5601 1641 C 5524 1641 5448 1641 5371 1641 C 5448 1641 5524 1641 5601 1641 C 5678 1641 5755 1641 5832 1646 C 5832 1598 5832 1555 5832 1507 C 5832 1464 5832 1416 5832 1372 C 5644 1372 5452 1372 5260 1372 C 5068 1372 4876 1372 4684 1372 C 4876 1372 5064 1372 5256 1372 C 5448 1377 5635 1377 5827 1377 C 5827 1387 5827 1396 5827 1406 C 5827 1416 5827 1425 5832 1435 C 5745 1435 5659 1435 5577 1435 C 5438 1435 5179 1435 5006 1435 C 4766 1430 4689 1435 4689 1435 C 4689 1440 4699 1444 4728 1440 C 4747 1440 4867 1440 4987 1440 C 5064 1440 5136 1440 5212 1444 C 5212 1444 5212 1454 5212 1454 C 5212 1473 5208 1473 5260 1473 C 5289 1473 5289 1473 5289 1459 C 5294 1454 5294 1449 5294 1444 C 5313 1444 5337 1444 5356 1444 C 5390 1440 5510 1440 5620 1444 C 5692 1444 5760 1444 5827 1444 C 5827 1454 5827 1464 5827 1473 C 5827 1483 5827 1492 5827 1502 C 5779 1502 5731 1502 5683 1502 C 5606 1502 5510 1502 5476 1507 C 5443 1507 5505 1507 5620 1507 C 5688 1512 5760 1512 5827 1512 C 5827 1521 5827 1531 5827 1540 C 5827 1550 5827 1560 5827 1569 C 5635 1569 5443 1569 5251 1569 C 4934 1569 4675 1569 4675 1569 C 4675 1560 4675 1521 4675 1516 C 4675 1512 4752 1507 5030 1507 C 5150 1507 5265 1507 5385 1507 C 5265 1507 5150 1507 5030 1507 C 4915 1507 4795 1507 4680 1507 C 4675 1497 4675 1492 4675 1483 C 4675 1473 4675 1464 4675 1459 C 4680 1454 4680 1435 4680 1411 C 4680 1396 4680 1382 4680 1372 C 4675 1372 4670 1372 4665 1372 C 4651 1372 4651 1372 4660 1377 C 4670 1382 4670 1425 4660 1435 C 4656 1440 4656 1444 4660 1444 C 4665 1444 4670 1454 4670 1473 C 4670 1483 4670 1492 4670 1507 C 4612 1507 4555 1507 4497 1507 C 4401 1507 4324 1502 4320 1502 C 4320 1502 4320 1492 4324 1488 C 4329 1478 4334 1468 4329 1459 C 4329 1454 4329 1449 4329 1444 C 4382 1444 4435 1444 4492 1444 C 4579 1444 4651 1440 4651 1440 C 4651 1435 4574 1435 4483 1435 C 4387 1435 4300 1435 4286 1435 C 4281 1435 4272 1430 4262 1430 C 4262 1420 4262 1411 4262 1401 C 4262 1392 4262 1382 4262 1377 C 4324 1372 4382 1372 4440 1372 C 4497 1372 4560 1372 4617 1372 C 4560 1372 4497 1372 4440 1372 C 4382 1372 4324 1372 4262 1372 C 4262 1358 4267 1348 4267 1339 C 4267 1324 4267 1315 4267 1305 C 4281 1305 4296 1305 4305 1300 C 4320 1300 4334 1300 4348 1300 C 4334 1300 4320 1300 4305 1300 C 4291 1300 4276 1300 4262 1300 C 4262 1291 4262 1291 4262 1281 C 4262 1272 4267 1272 4281 1272 C 4315 1272 4344 1243 4334 1224 C 4329 1214 4329 1214 4324 1224 C 4320 1228 4315 1233 4305 1233 C 4281 1233 4281 1228 4300 1219 C 4315 1214 4320 1209 4320 1204 C 4315 1200 4296 1200 4286 1209 M 4305 1243 C 4305 1248 4291 1257 4281 1257 C 4272 1257 4267 1257 4267 1252 C 4267 1243 4272 1243 4291 1243 C 4300 1243 4305 1243 4305 1243 M 4252 1401 C 4252 1411 4252 1420 4252 1430 C 4248 1430 4243 1435 4233 1435 C 4224 1435 4204 1435 4195 1435 C 4190 1435 4185 1430 4180 1430 C 4180 1420 4180 1411 4180 1401 C 4180 1392 4180 1382 4180 1372 C 4190 1372 4204 1372 4214 1372 C 4228 1372 4243 1372 4252 1372 C 4252 1382 4252 1392 4252 1401 M 4252 1473 C 4252 1483 4252 1492 4252 1507 C 4248 1507 4243 1507 4233 1507 C 4209 1507 4204 1502 4219 1483 C 4228 1468 4228 1459 4228 1454 C 4224 1444 4228 1444 4238 1440 C 4248 1440 4252 1440 4252 1440 C 4252 1440 4252 1454 4252 1473 M 4204 1464 C 4209 1473 4190 1497 4180 1497 C 4176 1497 4176 1454 4185 1449 C 4195 1444 4204 1449 4204 1464 M 4324 1454 C 4324 1478 4276 1507 4272 1492 C 4267 1483 4272 1473 4291 1459 C 4315 1444 4324 1444 4324 1454 M 3849 1540 C 3849 1550 3849 1560 3849 1574 C 3787 1574 3729 1574 3672 1574 C 3614 1574 3556 1574 3494 1574 C 3499 1564 3499 1560 3499 1550 C 3499 1540 3504 1526 3508 1521 C 3508 1516 3508 1512 3508 1507 C 3566 1507 3624 1507 3676 1507 C 3734 1507 3792 1507 3849 1507 C 3849 1521 3849 1531 3849 1540 M 4670 1540 C 4670 1550 4670 1560 4670 1574 C 4603 1574 4536 1574 4468 1574 C 4238 1574 4262 1574 4262 1531 C 4262 1526 4267 1516 4267 1507 C 4334 1507 4401 1507 4468 1507 C 4536 1507 4603 1507 4670 1507 C 4670 1521 4670 1531 4670 1540 M 4670 1608 C 4670 1617 4670 1627 4670 1636 C 4598 1636 4536 1636 4464 1636 C 4396 1636 4334 1636 4262 1636 C 4262 1627 4262 1617 4262 1608 C 4262 1598 4262 1588 4262 1574 C 4334 1574 4396 1574 4464 1574 C 4536 1574 4598 1574 4670 1574 C 4670 1588 4670 1598 4670 1608 M 3897 1646 C 3902 1651 3873 1680 3864 1680 C 3854 1680 3854 1665 3854 1651 C 3859 1641 3892 1641 3897 1646 M 1728 1372 C 1852 1377 1982 1377 2107 1377 C 2107 1387 2107 1396 2107 1401 C 2107 1420 2107 1430 2102 1435 C 2097 1435 2097 1440 2102 1440 C 2112 1444 2107 1497 2102 1502 C 2097 1507 2097 1507 2102 1512 C 2107 1512 2112 1521 2107 1540 C 2107 1550 2107 1560 2107 1569 C 1963 1569 1814 1569 1670 1574 C 1526 1574 1377 1574 1233 1574 C 1377 1574 1526 1574 1670 1579 C 1814 1579 1963 1579 2107 1579 C 2107 1584 2107 1593 2107 1598 C 2112 1641 2116 1636 2011 1641 C 1963 1641 2035 1641 2179 1641 C 2318 1641 2361 1641 2275 1641 C 2222 1641 2169 1641 2116 1636 C 2116 1627 2116 1617 2116 1608 C 2116 1598 2116 1588 2116 1579 C 2174 1574 2232 1574 2289 1574 C 2347 1574 2409 1574 2467 1574 C 2409 1574 2347 1574 2289 1574 C 2232 1574 2174 1574 2112 1574 C 2116 1560 2116 1550 2116 1540 C 2116 1531 2116 1521 2116 1512 C 2193 1512 2270 1512 2347 1507 C 2428 1507 2505 1507 2582 1507 C 2505 1507 2428 1507 2347 1502 C 2270 1502 2193 1502 2116 1502 C 2116 1492 2116 1483 2116 1473 C 2116 1464 2116 1454 2112 1444 C 2121 1444 2126 1444 2136 1444 C 2145 1444 2155 1440 2155 1435 C 2155 1435 2145 1435 2136 1435 C 2126 1435 2121 1435 2112 1435 C 2116 1425 2116 1416 2116 1406 C 2116 1396 2116 1387 2116 1377 C 2188 1377 2260 1377 2332 1372 C 2448 1372 2275 1372 1944 1372 C 1435 1372 1406 1372 1728 1372 M 1228 1435 C 1248 1435 1272 1435 1291 1435 C 1305 1435 1291 1435 1257 1435 C 1224 1435 1209 1435 1228 1435 M 1392 1435 C 1392 1435 1411 1435 1435 1440 C 1531 1440 1545 1440 1545 1459 C 1545 1464 1545 1468 1545 1473 C 1555 1473 1569 1473 1579 1473 C 1593 1473 1608 1473 1617 1473 C 1622 1464 1622 1464 1622 1454 C 1622 1444 1627 1440 1636 1440 C 1646 1440 1646 1440 1641 1440 C 1632 1435 1387 1430 1392 1435 M 1694 1435 C 1684 1440 1670 1440 1656 1440 C 1675 1440 1689 1440 1704 1440 C 1742 1440 1756 1440 1747 1435 C 1747 1435 1742 1435 1742 1435 C 1737 1435 1718 1435 1694 1435 M 2035 1440 C 2054 1444 2092 1440 2092 1435 C 2092 1435 2078 1435 2054 1435 C 2020 1435 2020 1435 2035 1440 M 2232 1440 C 2232 1440 2289 1440 2366 1440 C 2443 1440 2500 1440 2491 1440 C 2467 1435 2236 1435 2232 1440 M 2529 1435 C 2520 1440 2520 1440 2529 1440 C 2534 1440 2534 1444 2534 1454 C 2534 1464 2534 1464 2534 1473 C 2548 1473 2563 1473 2577 1473 C 2592 1473 2606 1473 2620 1473 C 2620 1464 2620 1464 2620 1454 C 2620 1444 2620 1444 2625 1444 C 2630 1444 2635 1440 2630 1440 C 2625 1435 2539 1435 2529 1435 M 3441 1440 C 3460 1444 3508 1444 3508 1440 C 3508 1435 3489 1435 3465 1435 C 3441 1435 3432 1435 3441 1440 M 4113 1435 C 4113 1444 4142 1444 4147 1435 C 4156 1435 4152 1435 4137 1435 C 4123 1435 4113 1435 4113 1435 M 1118 1507 C 1142 1507 1176 1507 1200 1507 C 1219 1507 1200 1507 1156 1507 C 1113 1507 1094 1507 1118 1507 M 1425 1507 C 1512 1507 1651 1507 1737 1507 C 1824 1507 1752 1507 1584 1507 C 1411 1507 1344 1507 1425 1507 M 2006 1507 C 2025 1507 2049 1507 2064 1507 C 2078 1507 2068 1507 2035 1507 C 2001 1507 1992 1507 2006 1507 M 369 1574 C 379 1574 403 1574 412 1574 C 427 1574 417 1574 393 1574 C 364 1574 355 1574 369 1574 M 1104 1574 C 1118 1574 1152 1574 1166 1574 C 1185 1574 1171 1574 1137 1574 C 1099 1574 1084 1574 1104 1574 M 1392 1641 C 1459 1641 1569 1641 1632 1641 C 1699 1641 1641 1641 1512 1641 C 1382 1641 1324 1641 1392 1641 M 1790 1641 C 1804 1641 1819 1641 1833 1641 C 1843 1641 1833 1641 1809 1641 C 1790 1641 1780 1641 1790 1641 M 3134 1641 C 3148 1641 3163 1641 3177 1641 C 3187 1641 3177 1641 3158 1641 C 3134 1641 3124 1641 3134 1641 M 288 1406 C 283 1416 292 1425 307 1420 C 312 1420 316 1416 316 1406 C 316 1392 292 1387 288 1406 M 292 1454 C 283 1464 283 1473 292 1478 C 307 1488 316 1478 316 1464 C 316 1454 302 1444 292 1454 M 4776 940 C 4852 950 5299 950 5289 945 C 5289 940 5188 940 5006 940 C 4852 940 4747 940 4776 940 z" fill="black" /><!-- width=5846 height=1756 -->
<path id="gl13824" d="M 33 9 C 28 14 33 28 38 28 C 43 28 52 9 48 4 C 43 0 38 0 33 9 M 4 19 C 0 24 9 38 19 38 C 33 38 33 43 14 48 C 9 52 0 57 0 57 C 0 67 19 67 24 57 C 33 48 48 52 57 62 C 67 72 72 67 72 57 C 72 52 67 48 62 48 C 48 43 48 38 62 38 C 72 38 72 33 72 24 C 72 19 72 14 72 14 C 67 14 62 19 57 24 C 48 38 33 38 28 33 C 24 24 9 14 4 19 M 33 67 C 28 76 38 86 43 81 C 48 76 48 62 38 62 C 38 62 33 62 33 67 z" fill="black" /><!-- width=86 height=91 -->
</defs>
<use xlink:href="#gl13313" x="580" y="1" />
<use xlink:href="#gl13314" x="652" y="27" />
<use xlink:href="#gl5387" x="733" y="0" />
<use xlink:href="#gl13315" x="777" y="34" />
<use xlink:href="#gl13316" x="818" y="24" />
<use xlink:href="#gl4375" x="536" y="944" />
<use xlink:href="#gl13317" x="3628" y="1181" />
<use xlink:href="#gl13318" x="3753" y="1186" />
<use xlink:href="#gl13319" x="4161" y="1186" />
<use xlink:href="#gl13568" x="0" y="87" />
<use xlink:href="#gl13824" x="4262" y="668" />
</svg>