<?xml version="1.0" standalone="no"?>
<!DOCTYPE svg PUBLIC "-//W3C/DTD SVG 1.1//EN" "http://www.w3.org/Graphics/SVG/1.1/DTD/svg11.dtd">
<svg width="391px" height="26px" viewBox="0 0 3910 269" xmlns="http://www.w3.org/2000/svg" xmlns:xlink="http://www.w3.org/1999/xlink" version="1.1">
<defs>
<path id="gl1041" d="M 90 6 C 83 7 78 10 75 17 C 67 30 61 42 60 47 C 59 49 57 53 55 56 C 54 60 52 64 51 67 C 49 70 48 75 47 76 C 42 86 37 97 37 99 C 36 101 35 103 34 105 C 33 106 32 109 31 111 C 31 113 30 117 28 120 C 27 122 26 126 26 127 C 26 128 25 131 24 134 C 23 136 21 142 19 147 C 15 162 15 161 11 165 C 6 171 4 175 7 179 C 9 183 19 184 37 183 C 49 181 52 181 53 178 C 53 177 54 177 54 176 C 54 175 52 172 49 168 C 43 161 43 158 45 147 C 47 136 51 129 55 127 C 56 127 57 126 58 126 C 66 126 74 126 82 126 C 110 126 114 126 117 129 C 118 131 121 135 122 141 C 123 144 124 148 125 151 C 127 162 127 162 122 169 C 120 172 119 173 119 175 C 119 182 124 183 157 183 C 181 183 183 182 185 179 C 187 175 186 171 180 165 C 178 162 176 160 175 157 C 175 156 173 153 172 151 C 172 149 171 145 170 142 C 169 140 168 135 165 130 C 163 126 161 121 161 121 C 161 120 160 117 159 115 C 157 113 156 110 156 108 C 153 102 151 96 150 93 C 148 91 147 88 147 86 C 145 84 144 81 144 79 C 143 79 142 76 141 75 C 141 72 139 68 132 54 C 132 52 129 46 126 42 C 124 37 122 33 122 32 C 122 31 121 30 120 28 C 119 26 118 23 117 21 C 115 15 109 8 104 6 C 101 6 94 6 90 6 M 88 58 C 90 60 91 63 93 66 C 93 68 95 72 97 75 C 98 78 99 80 99 80 C 99 80 100 84 102 87 C 106 96 106 102 103 104 C 102 105 92 106 74 105 C 64 105 63 104 63 101 C 63 98 66 87 67 85 C 68 84 69 81 70 79 C 70 77 72 75 73 73 C 73 72 75 70 75 69 C 75 67 79 57 81 55 C 83 54 86 55 88 58 z" fill="black" /><!-- width=201 height=211 -->
<path id="gl1042" d="M 39 10 C 34 11 30 12 28 13 C 25 13 22 15 20 15 C 13 18 12 23 16 30 C 21 36 21 35 21 64 C 22 104 23 110 32 118 C 46 132 72 133 93 121 C 100 117 102 117 105 121 C 109 125 111 126 127 126 C 139 126 142 126 145 125 C 154 123 154 117 147 109 C 141 104 141 106 141 58 C 140 12 140 13 136 11 C 131 7 97 13 93 19 C 91 22 91 26 95 30 C 99 35 99 36 99 60 C 100 91 99 96 93 102 C 86 109 75 111 69 105 C 63 100 63 94 62 52 C 62 19 61 16 59 13 C 57 9 49 8 39 10 z" fill="black" /><!-- width=165 height=142 -->
<path id="gl1043" d="M 62 18 C 46 19 31 27 23 36 C 15 45 11 56 10 69 C 9 94 19 112 40 121 C 52 126 55 127 74 127 C 79 127 85 127 91 127 C 92 127 93 128 94 129 C 103 134 105 146 98 153 C 91 159 78 162 65 159 C 55 157 53 156 51 148 C 50 141 47 138 39 138 C 18 138 6 153 16 166 C 24 178 68 184 102 178 C 129 172 142 161 141 143 C 141 133 136 126 127 121 C 120 117 120 113 124 108 C 135 95 139 81 138 66 C 137 60 136 56 132 46 C 130 40 130 39 139 35 C 143 34 144 31 144 27 C 144 22 141 20 133 19 C 122 18 69 16 62 18 M 79 33 C 93 38 99 63 93 89 C 90 103 79 111 68 108 C 62 106 57 98 54 89 C 52 80 52 63 55 54 C 59 37 68 30 79 33 z" fill="black" /><!-- width=158 height=193 -->
<path id="gl1044" d="M 63 13 C 61 13 56 15 53 15 C 51 16 46 17 45 18 C 30 22 20 33 18 47 C 13 71 24 80 63 87 C 74 90 79 93 81 100 C 84 113 63 122 47 114 C 44 112 42 111 37 105 C 28 95 23 93 17 97 C 10 102 10 112 18 119 C 22 124 37 132 48 133 C 61 135 78 134 90 130 C 115 121 127 97 117 77 C 114 69 98 62 76 58 C 66 55 63 54 60 51 C 52 44 57 33 67 30 C 80 27 89 31 99 43 C 105 51 112 52 116 45 C 118 39 116 26 112 22 C 105 16 80 11 63 13 z" fill="black" /><!-- width=136 height=148 -->
<path id="gl1045" d="M 53 6 C 51 6 48 6 46 7 C 45 8 42 9 40 9 C 28 13 24 15 24 19 C 24 22 26 27 30 30 C 36 36 36 33 36 98 C 36 159 36 157 40 165 C 48 179 53 183 70 187 C 85 191 97 191 113 187 C 116 186 119 186 120 186 C 121 186 126 183 131 181 C 141 176 150 168 153 163 C 153 162 155 159 156 157 C 163 145 166 121 162 108 C 161 107 160 105 160 103 C 159 101 158 98 157 97 C 156 95 155 93 155 93 C 155 90 144 79 136 75 C 127 70 120 68 109 68 C 105 68 102 68 99 68 C 96 69 93 70 90 71 C 79 75 78 75 76 73 C 75 70 75 66 75 40 C 74 13 74 10 72 8 C 69 5 61 4 53 6 M 105 88 C 110 91 111 92 114 99 C 119 108 121 115 121 131 C 121 143 121 143 119 150 C 117 156 113 163 111 166 C 109 168 101 172 97 172 C 88 172 79 162 77 150 C 76 143 76 114 77 108 C 79 93 94 83 105 88 z" fill="black" /><!-- width=174 height=216 -->
<path id="gl1042" d="M 39 10 C 34 11 30 12 28 13 C 25 13 22 15 20 15 C 13 18 12 23 16 30 C 21 36 21 35 21 64 C 22 104 23 110 32 118 C 46 132 72 133 93 121 C 100 117 102 117 105 121 C 109 125 111 126 127 126 C 139 126 142 126 145 125 C 154 123 154 117 147 109 C 141 104 141 106 141 58 C 140 12 140 13 136 11 C 131 7 97 13 93 19 C 91 22 91 26 95 30 C 99 35 99 36 99 60 C 100 91 99 96 93 102 C 86 109 75 111 69 105 C 63 100 63 94 62 52 C 62 19 61 16 59 13 C 57 9 49 8 39 10 z" fill="black" /><!-- width=165 height=142 -->
<path id="gl1046" d="M 59 25 C 49 27 36 32 33 35 C 28 39 29 46 36 50 C 44 56 45 60 45 87 C 45 117 44 121 39 126 C 33 130 33 138 40 140 C 42 141 85 141 89 141 C 97 139 97 132 90 125 C 86 120 85 119 85 105 C 83 67 90 53 110 57 C 121 60 129 54 129 42 C 129 30 119 22 105 25 C 99 26 91 31 88 36 C 84 41 81 41 77 34 C 72 25 68 23 59 25 z" fill="black" /><!-- width=144 height=154 -->
<path id="gl1043" d="M 62 18 C 46 19 31 27 23 36 C 15 45 11 56 10 69 C 9 94 19 112 40 121 C 52 126 55 127 74 127 C 79 127 85 127 91 127 C 92 127 93 128 94 129 C 103 134 105 146 98 153 C 91 159 78 162 65 159 C 55 157 53 156 51 148 C 50 141 47 138 39 138 C 18 138 6 153 16 166 C 24 178 68 184 102 178 C 129 172 142 161 141 143 C 141 133 136 126 127 121 C 120 117 120 113 124 108 C 135 95 139 81 138 66 C 137 60 136 56 132 46 C 130 40 130 39 139 35 C 143 34 144 31 144 27 C 144 22 141 20 133 19 C 122 18 69 16 62 18 M 79 33 C 93 38 99 63 93 89 C 90 103 79 111 68 108 C 62 106 57 98 54 89 C 52 80 52 63 55 54 C 59 37 68 30 79 33 z" fill="black" /><!-- width=158 height=193 -->
<path id="gl1047" d="M 73 33 C 53 33 52 33 49 38 C 47 41 48 44 53 50 C 55 52 57 55 58 57 C 59 58 59 64 59 121 C 59 193 59 187 53 194 C 48 200 47 203 51 207 C 54 210 58 210 81 211 C 111 211 115 210 115 202 C 115 199 114 199 111 195 C 104 188 104 187 104 157 C 104 129 103 130 128 129 C 141 129 144 130 151 133 C 162 138 166 137 169 130 C 169 127 169 118 169 111 C 168 102 161 99 151 105 C 145 109 144 109 126 109 C 103 109 105 111 104 84 C 104 63 105 60 107 56 C 110 52 119 50 133 51 C 151 51 157 54 169 64 C 174 70 177 71 179 70 C 186 69 188 63 186 51 C 183 39 181 36 175 34 C 172 33 108 32 73 33 z" fill="black" /><!-- width=198 height=223 -->
<path id="gl1048" d="M 75 13 C 49 16 28 29 18 52 C 11 67 13 90 22 105 C 42 135 93 143 126 120 C 148 106 157 78 148 54 C 142 34 120 17 99 14 C 90 13 82 13 75 13 M 87 31 C 104 34 112 55 108 88 C 105 107 93 118 78 116 C 68 114 62 107 58 93 C 57 87 55 69 57 60 C 60 40 72 28 87 31 z" fill="black" /><!-- width=165 height=147 -->
<path id="gl1049" d="M 9 14 C 4 19 4 19 9 28 C 24 48 24 96 14 105 C 4 115 4 115 38 120 C 67 120 81 115 67 105 C 57 100 57 48 67 43 C 67 38 76 38 81 38 C 96 38 115 24 115 14 C 120 4 76 4 62 14 C 52 24 52 24 48 14 C 43 4 24 4 9 14 z" fill="black" /><!-- width=124 height=129 -->
<path id="gl1050" d="M 28 4 C 28 9 24 14 24 24 C 24 33 19 43 14 43 C 4 43 4 62 9 67 C 14 67 14 86 14 110 C 9 158 14 163 57 158 C 86 158 100 144 72 144 C 57 144 48 124 48 91 C 48 67 52 67 62 67 C 67 67 76 62 76 57 C 86 48 81 48 62 43 C 52 43 52 38 52 24 C 48 4 38 0 28 4 z" fill="black" /><!-- width=91 height=168 -->
<path id="gl1046" d="M 59 25 C 49 27 36 32 33 35 C 28 39 29 46 36 50 C 44 56 45 60 45 87 C 45 117 44 121 39 126 C 33 130 33 138 40 140 C 42 141 85 141 89 141 C 97 139 97 132 90 125 C 86 120 85 119 85 105 C 83 67 90 53 110 57 C 121 60 129 54 129 42 C 129 30 119 22 105 25 C 99 26 91 31 88 36 C 84 41 81 41 77 34 C 72 25 68 23 59 25 z" fill="black" /><!-- width=144 height=154 -->
<path id="gl1051" d="M 78 18 C 50 22 28 40 22 63 C 21 70 21 88 22 95 C 33 133 88 150 127 127 C 144 117 151 104 142 100 C 138 97 135 99 126 105 C 109 118 92 120 79 112 C 73 107 69 100 70 96 C 70 93 73 91 90 89 C 119 84 138 73 142 60 C 145 55 144 44 142 39 C 133 22 106 12 78 18 M 97 35 C 103 39 106 49 102 57 C 97 66 82 74 70 74 C 65 74 63 67 67 57 C 72 40 86 30 97 35 z" fill="black" /><!-- width=160 height=151 -->
<path id="gl1044" d="M 63 13 C 61 13 56 15 53 15 C 51 16 46 17 45 18 C 30 22 20 33 18 47 C 13 71 24 80 63 87 C 74 90 79 93 81 100 C 84 113 63 122 47 114 C 44 112 42 111 37 105 C 28 95 23 93 17 97 C 10 102 10 112 18 119 C 22 124 37 132 48 133 C 61 135 78 134 90 130 C 115 121 127 97 117 77 C 114 69 98 62 76 58 C 66 55 63 54 60 51 C 52 44 57 33 67 30 C 80 27 89 31 99 43 C 105 51 112 52 116 45 C 118 39 116 26 112 22 C 105 16 80 11 63 13 z" fill="black" /><!-- width=136 height=148 -->
<path id="gl1044" d="M 63 13 C 61 13 56 15 53 15 C 51 16 46 17 45 18 C 30 22 20 33 18 47 C 13 71 24 80 63 87 C 74 90 79 93 81 100 C 84 113 63 122 47 114 C 44 112 42 111 37 105 C 28 95 23 93 17 97 C 10 102 10 112 18 119 C 22 124 37 132 48 133 C 61 135 78 134 90 130 C 115 121 127 97 117 77 C 114 69 98 62 76 58 C 66 55 63 54 60 51 C 52 44 57 33 67 30 C 80 27 89 31 99 43 C 105 51 112 52 116 45 C 118 39 116 26 112 22 C 105 16 80 11 63 13 z" fill="black" /><!-- width=136 height=148 -->
<path id="gl1052" d="M 14 14 C 4 19 4 43 19 52 C 38 67 76 57 76 33 C 76 14 38 0 14 14 z" fill="black" /><!-- width=81 height=72 -->
<path id="gl1053" d="M 16 19 C 8 20 5 24 8 31 C 9 33 10 34 15 36 C 16 36 18 36 19 37 C 20 39 21 41 22 43 C 23 45 24 46 25 49 C 25 69 25 89 25 109 C 25 129 25 149 25 169 C 24 171 24 172 23 172 C 21 177 19 178 16 180 C 11 182 9 190 12 193 C 15 196 16 196 34 196 C 51 196 57 196 58 194 C 60 192 61 187 60 184 C 58 183 54 178 51 177 C 49 177 48 173 46 167 C 46 162 46 157 46 129 C 46 112 46 95 46 93 C 46 86 47 83 49 82 C 51 82 51 82 52 82 C 53 84 57 93 58 95 C 59 97 63 106 66 112 C 67 114 68 116 68 117 C 68 118 69 121 70 124 C 75 133 78 139 79 143 C 79 145 80 147 81 148 C 88 162 90 165 93 168 C 93 169 94 171 96 172 C 98 172 100 172 102 172 C 111 172 114 171 117 169 C 120 166 128 150 132 139 C 133 135 136 129 137 126 C 139 123 140 120 140 119 C 140 118 141 116 142 114 C 143 112 144 109 145 108 C 145 106 147 103 147 101 C 148 99 150 96 150 94 C 152 90 156 83 157 82 C 157 82 158 82 159 82 C 163 84 163 84 162 129 C 162 143 162 157 162 171 C 162 172 161 173 160 174 C 159 176 158 178 156 180 C 149 184 150 193 158 196 C 163 197 210 196 213 195 C 220 192 220 187 212 179 C 210 177 208 174 208 173 C 207 170 207 51 208 46 C 209 39 212 36 217 35 C 220 34 221 32 221 28 C 221 19 220 19 190 19 C 166 19 166 19 163 20 C 159 22 156 25 155 29 C 154 31 153 34 152 34 C 151 36 150 38 150 39 C 150 40 149 43 148 45 C 147 47 145 51 144 54 C 143 58 141 63 139 67 C 137 72 135 75 135 76 C 135 76 135 78 133 81 C 132 83 131 86 131 87 C 131 88 130 91 129 93 C 128 94 127 97 127 98 C 126 99 125 102 124 104 C 123 106 121 108 121 109 C 121 110 120 112 120 112 C 119 113 119 114 118 114 C 118 114 117 114 116 113 C 115 112 113 111 113 110 C 109 102 108 98 106 96 C 106 95 105 93 105 91 C 103 89 102 85 97 72 C 97 70 95 66 94 64 C 93 62 92 60 91 58 C 91 55 86 44 85 42 C 84 40 83 38 82 36 C 80 28 76 22 72 20 C 69 19 69 19 45 19 C 31 19 18 19 16 19 z" fill="black" /><!-- width=240 height=205 -->
<path id="gl1054" d="M 30 10 C 19 13 13 22 16 32 C 19 45 42 49 56 40 C 67 34 65 17 53 11 C 48 9 35 7 30 10 M 43 62 C 38 63 23 67 21 67 C 15 67 10 70 10 75 C 10 79 11 81 17 84 C 24 88 23 85 23 121 C 24 158 24 156 18 163 C 13 167 13 168 13 171 C 13 174 17 177 19 177 C 21 177 25 177 28 177 C 33 177 40 176 49 177 C 65 177 66 177 69 176 C 74 174 73 168 68 163 C 61 157 62 160 62 111 C 62 96 62 82 62 67 C 61 67 61 66 61 65 C 58 61 51 59 43 62 z" fill="black" /><!-- width=83 height=201 -->
<path id="gl1055" d="M 91 13 C 83 15 77 17 72 21 C 67 24 64 24 60 19 C 55 12 50 12 34 17 C 17 22 13 29 21 38 C 27 44 27 48 27 84 C 27 108 27 108 22 115 C 17 121 18 126 23 129 C 26 130 65 130 70 129 C 76 127 76 122 72 115 C 67 109 67 108 67 81 C 67 54 67 50 70 44 C 77 31 97 30 103 42 C 105 48 106 53 105 81 C 105 111 106 109 100 116 C 96 122 97 127 103 129 C 107 130 148 129 151 128 C 155 126 155 120 151 115 C 147 109 147 111 146 78 C 146 48 145 44 142 36 C 139 26 128 18 115 14 C 109 13 97 12 91 13 z" fill="black" /><!-- width=169 height=144 -->
<path id="gl1055" d="M 91 13 C 83 15 77 17 72 21 C 67 24 64 24 60 19 C 55 12 50 12 34 17 C 17 22 13 29 21 38 C 27 44 27 48 27 84 C 27 108 27 108 22 115 C 17 121 18 126 23 129 C 26 130 65 130 70 129 C 76 127 76 122 72 115 C 67 109 67 108 67 81 C 67 54 67 50 70 44 C 77 31 97 30 103 42 C 105 48 106 53 105 81 C 105 111 106 109 100 116 C 96 122 97 127 103 129 C 107 130 148 129 151 128 C 155 126 155 120 151 115 C 147 109 147 111 146 78 C 146 48 145 44 142 36 C 139 26 128 18 115 14 C 109 13 97 12 91 13 z" fill="black" /><!-- width=169 height=144 -->
<path id="gl1051" d="M 78 18 C 50 22 28 40 22 63 C 21 70 21 88 22 95 C 33 133 88 150 127 127 C 144 117 151 104 142 100 C 138 97 135 99 126 105 C 109 118 92 120 79 112 C 73 107 69 100 70 96 C 70 93 73 91 90 89 C 119 84 138 73 142 60 C 145 55 144 44 142 39 C 133 22 106 12 78 18 M 97 35 C 103 39 106 49 102 57 C 97 66 82 74 70 74 C 65 74 63 67 67 57 C 72 40 86 30 97 35 z" fill="black" /><!-- width=160 height=151 -->
<path id="gl1280" d="M 51 6 C 51 6 47 7 43 8 C 39 9 35 9 34 9 C 24 9 15 24 21 30 C 28 36 40 35 49 28 C 60 20 60 21 64 19 C 70 19 74 19 79 22 C 86 27 89 31 89 39 C 89 43 86 45 78 45 C 76 45 71 45 68 45 C 64 45 60 46 48 49 C 41 51 34 53 31 55 C 29 57 26 59 24 60 C 18 64 13 72 12 78 C 10 90 12 96 16 104 C 20 111 20 111 24 114 C 27 115 29 117 29 117 C 30 118 32 119 42 121 C 51 124 57 124 66 123 C 75 121 76 120 80 117 C 85 113 90 112 92 112 C 93 113 94 114 94 114 C 94 114 95 115 96 116 C 98 119 100 119 109 120 C 114 120 121 120 127 120 C 140 121 141 120 142 115 C 144 111 142 107 138 105 C 130 100 130 99 130 66 C 130 44 130 40 129 38 C 129 36 128 33 127 31 C 126 25 125 24 119 19 C 110 12 97 7 84 6 C 75 6 54 5 51 6 M 88 58 C 92 60 93 62 91 70 C 91 75 91 79 90 80 C 90 82 89 84 89 86 C 88 94 76 104 67 104 C 60 104 57 102 54 96 C 48 82 55 67 71 61 C 79 58 85 57 88 58 z" fill="black" /><!-- width=156 height=136 -->
<path id="gl1281" d="M 99 31 C 94 32 87 34 82 37 C 75 42 73 42 69 36 C 65 30 57 29 45 33 C 25 40 20 46 29 55 C 36 61 35 60 35 112 C 35 169 35 171 29 175 C 22 181 22 187 30 190 C 33 192 33 192 52 192 C 78 192 84 191 85 187 C 87 183 87 181 82 176 C 76 172 76 169 76 154 C 76 144 76 144 77 141 C 78 139 78 138 79 137 C 78 136 78 134 77 132 C 76 131 76 129 75 128 C 76 119 76 111 76 102 C 76 73 76 70 79 64 C 83 55 88 51 97 51 C 105 51 107 52 112 58 C 118 64 120 70 121 79 C 124 100 121 115 111 124 C 106 129 98 132 91 130 C 88 130 84 131 81 134 C 79 136 79 137 81 141 C 94 158 133 152 150 131 C 163 116 167 100 165 80 C 162 58 150 42 130 34 C 120 30 108 29 99 31 z" fill="black" /><!-- width=177 height=205 -->
<path id="gl1048" d="M 75 13 C 49 16 28 29 18 52 C 11 67 13 90 22 105 C 42 135 93 143 126 120 C 148 106 157 78 148 54 C 142 34 120 17 99 14 C 90 13 82 13 75 13 M 87 31 C 104 34 112 55 108 88 C 105 107 93 118 78 116 C 68 114 62 107 58 93 C 57 87 55 69 57 60 C 60 40 72 28 87 31 z" fill="black" /><!-- width=165 height=147 -->
<path id="gl1282" d="M 45 8 C 43 9 40 9 37 10 C 35 10 29 12 25 13 C 13 15 10 17 10 22 C 11 25 12 27 15 28 C 18 30 22 34 24 37 C 24 39 24 39 25 40 C 25 60 25 81 25 100 C 25 141 24 162 24 163 C 23 168 21 171 18 172 C 12 175 10 181 13 186 C 15 189 17 189 23 189 C 39 187 49 187 63 189 C 70 190 72 189 75 186 C 78 182 75 174 69 171 C 66 170 64 168 63 164 C 63 162 63 140 63 88 C 63 36 63 14 62 12 C 61 9 53 6 45 8 z" fill="black" /><!-- width=87 height=203 -->
<path id="gl1054" d="M 30 10 C 19 13 13 22 16 32 C 19 45 42 49 56 40 C 67 34 65 17 53 11 C 48 9 35 7 30 10 M 43 62 C 38 63 23 67 21 67 C 15 67 10 70 10 75 C 10 79 11 81 17 84 C 24 88 23 85 23 121 C 24 158 24 156 18 163 C 13 167 13 168 13 171 C 13 174 17 177 19 177 C 21 177 25 177 28 177 C 33 177 40 176 49 177 C 65 177 66 177 69 176 C 74 174 73 168 68 163 C 61 157 62 160 62 111 C 62 96 62 82 62 67 C 61 67 61 66 61 65 C 58 61 51 59 43 62 z" fill="black" /><!-- width=83 height=201 -->
<path id="gl1044" d="M 63 13 C 61 13 56 15 53 15 C 51 16 46 17 45 18 C 30 22 20 33 18 47 C 13 71 24 80 63 87 C 74 90 79 93 81 100 C 84 113 63 122 47 114 C 44 112 42 111 37 105 C 28 95 23 93 17 97 C 10 102 10 112 18 119 C 22 124 37 132 48 133 C 61 135 78 134 90 130 C 115 121 127 97 117 77 C 114 69 98 62 76 58 C 66 55 63 54 60 51 C 52 44 57 33 67 30 C 80 27 89 31 99 43 C 105 51 112 52 116 45 C 118 39 116 26 112 22 C 105 16 80 11 63 13 z" fill="black" /><!-- width=136 height=148 -->
</defs>
<use xlink:href="#gl1041" x="0" y="27" />
<use xlink:href="#gl1042" x="178" y="84" />
<use xlink:href="#gl1043" x="331" y="76" />
<use xlink:href="#gl1044" x="473" y="80" />
<use xlink:href="#gl1045" x="581" y="24" />
<use xlink:href="#gl1042" x="745" y="84" />
<use xlink:href="#gl1046" x="880" y="69" />
<use xlink:href="#gl1043" x="1011" y="76" />
<use xlink:href="#gl1047" x="1201" y="0" />
<use xlink:href="#gl1048" x="1386" y="80" />
<use xlink:href="#gl1049" x="1546" y="89" />
<use xlink:href="#gl1050" x="1656" y="51" />
<use xlink:href="#gl1046" x="1718" y="69" />
<use xlink:href="#gl1051" x="1837" y="77" />
<use xlink:href="#gl1044" x="1981" y="80" />
<use xlink:href="#gl1044" x="2102" y="79" />
<use xlink:href="#gl1052" x="2309" y="89" />
<use xlink:href="#gl1053" x="2459" y="13" />
<use xlink:href="#gl1054" x="2682" y="33" />
<use xlink:href="#gl1055" x="2749" y="79" />
<use xlink:href="#gl1055" x="2898" y="79" />
<use xlink:href="#gl1051" x="3041" y="75" />
<use xlink:href="#gl1280" x="3187" y="88" />
<use xlink:href="#gl1281" x="3317" y="61" />
<use xlink:href="#gl1048" x="3479" y="78" />
<use xlink:href="#gl1282" x="3630" y="20" />
<use xlink:href="#gl1054" x="3704" y="32" />
<use xlink:href="#gl1044" x="3774" y="77" />
</svg>