<?xml version="1.0" standalone="no"?>
<!DOCTYPE svg PUBLIC "-//W3C/DTD SVG 1.1//EN" "http://www.w3.org/Graphics/SVG/1.1/DTD/svg11.dtd">
<svg width="584px" height="187px" viewBox="0 0 5846 1870" xmlns="http://www.w3.org/2000/svg" xmlns:xlink="http://www.w3.org/1999/xlink" version="1.1">
<defs>
<path id="gl14850" d="M 88 18 C 81 19 80 20 84 26 C 88 31 88 32 84 40 C 82 43 81 48 80 50 C 79 52 77 58 75 62 C 73 67 72 72 72 73 C 70 77 67 85 66 85 C 66 86 64 87 64 87 C 63 87 62 87 61 87 C 61 86 60 85 60 84 C 55 74 54 70 54 69 C 53 66 48 53 46 50 C 45 48 44 43 40 34 C 39 30 39 30 42 25 C 45 19 43 18 31 18 C 21 18 20 19 18 22 C 17 25 17 25 18 26 C 19 27 19 28 19 28 C 19 30 21 33 23 35 C 26 39 28 46 28 48 C 28 49 30 51 31 54 C 33 57 35 61 36 64 C 37 68 40 73 42 76 C 46 85 49 96 52 103 C 54 110 56 113 60 114 C 63 114 63 114 66 111 C 67 109 69 107 69 106 C 69 100 70 98 72 96 C 73 94 74 91 74 90 C 75 88 75 87 76 86 C 76 85 78 82 79 80 C 80 78 82 75 82 75 C 82 73 85 68 90 58 C 91 55 93 51 94 48 C 94 46 96 43 97 42 C 97 41 99 39 99 37 C 99 36 100 34 101 33 C 104 29 106 21 105 19 C 103 17 98 17 88 18 z" fill="black" /><!-- width=114 height=122 -->
<path id="gl14851" d="M 14 9 C 0 28 4 76 28 67 C 33 67 33 62 28 57 C 14 43 14 28 24 14 C 33 4 24 0 14 9 M 38 4 C 38 4 43 14 48 24 C 52 33 57 38 52 52 C 48 62 48 62 52 62 C 72 62 76 24 57 9 C 48 4 38 0 38 4 z" fill="black" /><!-- width=81 height=76 -->
<path id="gl5387" d="M 18 7 C 14 9 12 15 13 18 C 14 21 19 24 22 24 C 27 24 27 23 29 20 C 32 15 32 12 28 8 C 25 6 21 5 18 7 M 18 36 C 11 38 10 42 14 48 C 18 54 18 53 17 72 C 17 78 17 83 17 88 C 16 90 15 91 15 92 C 10 98 11 100 18 102 C 21 103 27 103 32 100 C 37 99 37 97 33 94 C 29 88 29 90 30 64 C 30 39 30 38 27 36 C 25 34 21 34 18 36 z" fill="black" /><!-- width=46 height=122 -->
<path id="gl13826" d="M 52 9 C 48 10 36 16 32 20 C 30 22 26 27 25 31 C 19 51 26 69 43 76 C 50 79 72 79 76 75 C 79 73 78 68 75 66 C 72 66 71 66 64 67 C 55 69 48 66 43 60 C 31 43 39 19 55 19 C 62 19 64 21 69 27 C 74 34 79 31 79 19 C 79 11 75 9 63 9 C 58 9 54 9 52 9 z" fill="black" /><!-- width=90 height=90 -->
<path id="gl14852" d="M 24 9 C 4 19 0 48 14 62 C 24 72 57 72 62 62 C 62 62 57 57 48 57 C 38 57 28 57 28 52 C 19 38 24 38 48 38 C 67 38 72 19 52 4 C 43 0 38 4 43 14 C 52 28 52 33 38 33 C 24 33 19 24 28 14 C 38 4 38 0 24 9 z" fill="black" /><!-- width=76 height=76 -->
<path id="gl14853" d="z" fill="black" /><!-- width=33 height=19 -->
<path id="gl14854" d="M 14 28 C 14 48 9 62 4 62 C 0 62 0 67 4 67 C 9 67 14 76 14 81 C 14 96 19 96 24 81 C 24 57 19 0 14 0 C 14 0 14 14 14 28 z" fill="black" /><!-- width=33 height=100 -->
<path id="gl14855" d="M 4 9 C 0 9 0 14 4 14 C 9 14 9 28 9 43 C 9 52 14 67 19 67 C 19 67 19 52 19 38 C 19 33 19 24 19 19 C 38 14 52 14 67 14 C 105 14 110 14 105 9 C 96 9 76 9 57 9 C 33 9 19 9 19 9 C 19 0 14 0 4 9 z" fill="black" /><!-- width=120 height=72 -->
<path id="gl14856" d="z" fill="black" /><!-- width=19 height=38 -->
<path id="gl14857" d="M 29 7 C 28 7 27 8 26 9 C 25 9 25 5 25 52 C 25 90 25 91 24 96 C 22 100 22 103 24 107 C 25 111 25 112 25 135 C 25 163 24 163 20 166 C 19 166 18 167 18 167 C 18 168 20 171 21 172 C 22 174 24 176 24 178 C 25 180 26 181 27 182 C 28 182 28 182 30 182 C 33 183 33 183 37 178 C 42 173 42 173 55 171 C 58 171 63 170 65 169 C 67 168 69 168 69 168 C 71 168 70 167 67 166 C 66 166 64 165 64 164 C 63 162 63 161 71 153 C 79 145 81 143 84 136 C 87 129 88 123 85 115 C 84 109 84 108 86 106 C 87 105 87 103 88 102 C 88 102 88 101 88 100 C 87 100 85 99 83 99 C 78 98 63 98 41 99 C 34 99 34 100 34 51 C 34 13 34 10 33 8 C 32 7 31 7 31 7 C 31 7 30 7 29 7 M 57 112 C 61 112 61 112 64 117 C 66 121 66 126 65 131 C 63 137 58 145 56 148 C 54 150 52 152 52 153 C 52 153 49 156 46 159 C 41 164 40 165 39 164 C 34 164 34 163 34 142 C 34 125 34 123 36 120 C 37 115 40 112 45 112 C 46 112 48 112 49 111 C 50 111 51 111 52 111 C 52 111 55 112 57 112 M 75 166 C 70 167 70 168 74 168 C 81 170 90 170 90 168 C 90 166 84 166 75 166 z" fill="black" /><!-- width=99 height=237 -->
<path id="gl15104" d="M 412 33 C 412 62 398 62 393 33 C 393 28 393 19 393 14 C 393 24 393 28 393 38 C 393 48 388 62 384 67 C 374 72 374 91 379 91 C 384 91 384 96 384 100 C 384 105 384 110 379 110 C 379 110 379 110 384 115 C 388 120 388 120 384 134 C 374 153 374 177 384 177 C 388 182 393 187 393 196 C 393 201 393 206 393 211 C 393 206 393 201 393 196 C 398 177 412 172 412 187 C 412 196 422 196 427 182 C 432 177 432 172 427 172 C 427 172 422 168 422 158 C 422 153 427 153 427 153 C 436 153 436 124 427 120 C 422 120 422 115 427 115 C 436 110 436 105 432 105 C 422 100 422 81 427 76 C 432 76 432 67 432 62 C 432 57 432 48 427 48 C 427 48 422 38 422 28 C 422 19 422 9 417 9 C 417 9 412 14 412 33 M 412 91 C 412 105 408 110 398 105 C 398 100 398 96 398 91 C 408 81 412 81 412 91 M 412 120 C 412 124 412 129 412 129 C 412 129 408 129 403 129 C 398 134 398 129 398 124 C 398 115 398 115 408 115 C 412 115 412 115 412 120 M 4545 62 C 4545 76 4545 91 4540 110 C 4512 110 4478 110 4449 110 C 4396 110 4372 110 4396 110 C 4411 110 4425 110 4440 115 C 4440 124 4440 134 4440 144 C 4440 153 4440 163 4440 172 C 4416 177 4396 177 4377 177 C 4353 177 4334 177 4315 177 C 4334 177 4353 177 4377 177 C 4396 177 4416 177 4440 177 C 4440 192 4440 201 4440 211 C 4440 220 4440 230 4440 240 C 4416 244 4392 244 4368 244 C 4344 244 4320 244 4296 244 C 4320 244 4344 244 4368 244 C 4392 244 4416 244 4440 244 C 4440 259 4440 268 4440 278 C 4440 288 4440 297 4440 307 C 4430 312 4420 312 4416 312 C 4406 312 4401 312 4392 312 C 4401 312 4406 312 4416 312 C 4420 312 4430 312 4440 316 C 4440 326 4435 336 4435 345 C 4435 369 4440 379 4440 379 C 4454 379 4459 374 4449 369 C 4435 355 4440 316 4459 316 C 4468 312 4473 312 4473 340 C 4473 360 4468 369 4464 369 C 4464 369 4464 374 4464 374 C 4473 388 4483 379 4478 360 C 4478 350 4478 331 4478 326 C 4478 321 4478 316 4483 316 C 4507 312 4531 312 4560 312 C 4584 312 4612 312 4636 312 C 4608 312 4584 312 4555 312 C 4531 312 4502 312 4478 307 C 4478 302 4478 297 4478 288 C 4473 249 4473 249 4536 244 C 4550 244 4569 244 4588 244 C 4569 244 4550 244 4531 244 C 4516 244 4497 244 4478 240 C 4478 230 4478 220 4478 211 C 4478 201 4478 192 4478 182 C 4497 182 4512 182 4526 182 C 4579 182 4579 182 4584 196 C 4584 206 4584 206 4584 196 C 4584 187 4588 182 4593 182 C 4598 177 4598 177 4593 172 C 4588 168 4584 163 4588 139 C 4588 134 4588 124 4588 115 C 4593 115 4603 115 4608 115 C 4622 110 4627 115 4622 120 C 4622 124 4622 153 4617 187 C 4617 206 4617 230 4617 249 C 4627 249 4632 249 4636 249 C 4646 249 4651 249 4656 249 C 4660 259 4660 268 4660 278 C 4660 292 4660 307 4660 312 C 4660 312 4660 316 4665 316 C 4670 316 4670 297 4670 244 C 4670 220 4670 196 4670 172 C 4660 172 4656 172 4651 172 C 4641 172 4636 177 4632 177 C 4632 163 4632 153 4632 144 C 4632 134 4632 124 4632 115 C 4641 115 4651 115 4665 115 C 4675 115 4689 115 4699 115 C 4699 144 4699 172 4699 201 C 4699 244 4704 288 4704 288 C 4704 292 4742 268 4756 254 C 4766 240 4761 216 4742 216 C 4732 211 4728 216 4732 220 C 4742 225 4742 240 4732 240 C 4732 240 4732 244 4732 249 C 4732 254 4718 278 4713 278 C 4713 278 4713 240 4713 192 C 4713 163 4713 134 4713 110 C 4694 110 4675 110 4651 110 C 4632 110 4612 110 4593 110 C 4593 100 4588 96 4588 86 C 4584 67 4584 67 4560 76 C 4555 81 4545 57 4550 43 C 4550 38 4550 28 4550 24 C 4545 14 4545 24 4545 62 M 4584 100 C 4584 105 4574 110 4569 110 C 4550 110 4545 96 4564 91 C 4579 91 4584 91 4584 100 M 4473 144 C 4473 153 4473 163 4473 177 C 4464 177 4459 177 4454 177 C 4440 177 4440 172 4444 148 C 4444 115 4444 115 4459 115 C 4468 115 4473 115 4473 144 M 4540 134 C 4540 139 4540 144 4540 153 C 4550 148 4555 148 4560 148 C 4579 144 4584 144 4584 158 C 4584 163 4584 168 4584 177 C 4564 177 4545 177 4526 177 C 4512 177 4492 177 4473 177 C 4473 163 4478 153 4478 144 C 4478 134 4478 124 4478 115 C 4488 115 4497 115 4512 115 C 4521 115 4531 115 4540 115 C 4540 120 4540 124 4540 134 M 4584 115 C 4584 120 4569 129 4560 129 C 4555 129 4550 124 4550 120 C 4550 115 4555 115 4569 115 C 4574 115 4584 115 4584 115 M 4473 211 C 4473 220 4473 230 4473 244 C 4468 244 4464 240 4459 240 C 4435 240 4435 177 4459 177 C 4468 177 4473 182 4473 211 M 4656 206 C 4656 220 4651 225 4636 225 C 4627 225 4627 201 4636 196 C 4651 192 4656 196 4656 206 M 4473 278 C 4473 288 4473 297 4473 312 C 4468 312 4464 307 4459 307 C 4435 307 4435 244 4459 244 C 4468 244 4473 249 4473 278 M 216 38 C 206 48 201 67 196 76 C 196 91 187 105 187 105 C 182 105 177 105 177 110 C 177 110 182 110 182 110 C 192 105 196 120 201 148 C 201 153 201 163 206 172 C 182 172 163 172 144 172 C 124 172 100 172 81 172 C 100 172 115 172 134 172 C 192 177 192 177 172 201 C 129 249 134 244 129 283 C 124 302 124 302 105 307 C 100 307 91 307 86 307 C 91 307 100 307 105 307 C 124 307 129 312 134 326 C 139 336 148 350 158 355 C 177 369 177 369 129 374 C 96 374 96 374 148 374 C 240 379 249 379 254 388 C 254 393 254 393 254 384 C 259 379 264 374 331 374 C 360 374 384 374 408 374 C 388 374 364 374 345 374 C 307 374 278 369 278 364 C 278 364 283 364 283 364 C 292 364 316 307 312 302 C 307 302 307 297 307 292 C 307 288 297 273 292 264 C 288 259 283 254 278 244 C 297 244 312 244 326 244 C 369 244 364 244 302 240 C 220 235 220 240 220 216 C 220 192 235 177 264 172 C 273 172 278 172 288 172 C 283 172 273 172 268 172 C 249 172 240 163 249 158 C 254 158 259 148 259 134 C 264 120 268 115 273 115 C 278 115 278 110 278 110 C 278 105 278 105 273 105 C 268 105 268 96 264 81 C 259 24 235 4 216 38 M 244 57 C 249 57 254 72 254 81 C 254 91 254 96 254 105 C 244 105 235 105 230 105 C 206 105 206 105 216 86 C 230 52 235 48 244 57 M 244 115 C 249 120 220 153 216 153 C 211 153 206 115 216 110 C 220 110 240 110 244 115 M 216 225 C 216 240 216 240 206 240 C 187 240 187 235 201 220 C 211 206 220 211 216 225 M 192 259 C 187 264 182 278 177 288 C 172 297 168 302 163 302 C 148 307 148 302 158 278 C 168 254 172 244 192 244 C 196 244 201 244 201 244 C 201 249 196 254 192 259 M 259 268 C 264 268 283 292 283 297 C 283 302 283 307 278 307 C 268 312 268 312 278 312 C 292 316 292 331 278 350 C 259 369 249 369 244 336 C 240 316 244 316 249 312 C 259 312 259 312 249 307 C 240 307 240 297 235 288 C 235 268 235 264 244 268 C 249 268 254 268 259 268 M 230 288 C 230 307 230 312 206 307 C 187 302 187 297 201 283 C 216 264 225 268 230 288 M 192 326 C 187 302 230 307 235 331 C 244 364 244 369 225 369 C 196 369 153 340 153 316 C 153 307 168 312 182 326 C 187 331 187 336 192 340 C 192 336 192 331 192 326 M 2544 96 C 2544 100 2544 148 2544 196 C 2544 225 2544 254 2544 278 C 2539 278 2534 278 2529 278 C 2510 278 2486 288 2481 302 C 2481 307 2467 307 2409 307 C 2337 307 2332 307 2347 292 C 2352 288 2356 278 2356 268 C 2356 259 2361 254 2361 249 C 2385 244 2414 244 2443 244 C 2472 244 2496 244 2524 244 C 2496 244 2472 244 2443 244 C 2371 244 2361 240 2361 235 C 2361 230 2356 225 2352 225 C 2352 225 2347 230 2347 235 C 2347 240 2342 240 2323 240 C 2304 240 2299 244 2299 249 C 2299 249 2299 259 2294 264 C 2284 273 2284 283 2284 288 C 2284 297 2284 307 2280 307 C 2280 312 2299 316 2376 316 C 2457 316 2476 316 2476 321 C 2476 331 2491 345 2505 345 C 2524 345 2563 312 2558 307 C 2548 302 2548 249 2558 244 C 2568 244 2568 244 2558 240 C 2548 235 2548 177 2558 177 C 2558 177 2558 177 2558 172 C 2553 168 2553 148 2553 124 C 2553 100 2548 81 2548 81 C 2548 76 2544 86 2544 96 M 24 96 C 19 100 14 100 4 105 C 4 148 4 192 4 240 C 0 393 0 388 28 398 C 38 403 48 408 57 408 C 57 460 57 508 57 556 C 57 609 57 657 57 710 C 48 710 38 715 33 720 C 19 724 9 729 4 734 C 4 734 4 888 4 1070 C 4 1257 9 1459 9 1526 C 9 1564 9 1608 9 1646 C 14 1651 19 1651 28 1656 C 48 1665 57 1660 43 1651 C 38 1646 33 1646 28 1641 C 28 1492 28 1339 28 1190 C 28 739 33 734 38 724 C 48 720 52 715 52 720 C 52 720 57 926 57 1180 C 57 1435 57 1641 62 1636 C 62 1636 67 1608 67 1569 C 67 1550 62 1526 62 1507 C 91 1507 115 1507 139 1507 C 177 1507 216 1507 216 1507 C 216 1516 177 1550 158 1560 C 148 1564 129 1569 105 1569 C 91 1569 81 1569 67 1569 C 76 1569 86 1569 100 1569 C 134 1574 254 1574 259 1569 C 264 1569 240 1569 216 1569 C 187 1569 168 1564 168 1564 C 168 1560 172 1555 172 1555 C 177 1555 196 1545 216 1531 C 225 1521 235 1512 249 1507 C 264 1502 278 1502 292 1502 C 312 1502 326 1502 340 1502 C 326 1502 312 1502 297 1502 C 254 1497 249 1497 264 1483 C 268 1478 273 1464 273 1459 C 278 1440 278 1440 307 1435 C 312 1435 321 1435 331 1435 C 321 1435 316 1435 307 1435 C 283 1435 278 1430 273 1416 C 264 1401 254 1392 249 1387 C 230 1372 240 1372 316 1372 C 388 1372 403 1372 384 1392 C 374 1401 374 1416 379 1420 C 393 1425 384 1435 360 1435 C 350 1435 340 1435 331 1435 C 340 1435 350 1435 360 1435 C 388 1440 398 1449 384 1464 C 374 1478 374 1502 384 1507 C 388 1507 393 1512 393 1521 C 393 1531 393 1536 398 1536 C 398 1536 403 1526 403 1516 C 403 1502 408 1497 412 1512 C 417 1526 422 1526 427 1516 C 427 1512 432 1502 441 1502 C 441 1502 446 1502 451 1502 C 446 1502 441 1502 441 1502 C 427 1497 422 1488 427 1478 C 436 1473 432 1430 427 1430 C 422 1430 422 1411 427 1406 C 432 1406 432 1396 432 1382 C 432 1372 432 1363 427 1363 C 427 1363 422 1353 422 1348 C 422 1344 422 1339 417 1339 C 417 1339 412 1344 412 1353 C 412 1368 403 1372 398 1353 C 393 1353 393 1348 393 1344 C 393 1348 388 1353 388 1353 C 388 1358 388 1363 384 1368 C 331 1363 278 1363 225 1363 C 168 1363 115 1363 62 1363 C 62 1358 62 1353 62 1344 C 57 1339 62 1257 62 1171 C 62 1118 62 1065 67 1012 C 72 1008 76 1008 81 1008 C 86 1003 91 1003 96 1003 C 91 1003 86 1003 81 1003 C 76 1003 72 1003 67 998 C 67 993 67 984 67 974 C 67 964 67 955 67 945 C 72 940 81 940 86 940 C 96 940 100 940 110 940 C 100 940 96 940 86 940 C 81 940 72 940 67 936 C 62 931 62 921 62 912 C 57 878 57 873 100 873 C 139 873 139 878 134 888 C 134 892 129 907 129 916 C 124 931 124 940 120 940 C 115 940 115 940 120 945 C 124 945 129 950 129 950 C 129 955 139 964 153 979 C 168 998 168 998 163 1003 C 153 1008 168 1008 201 1008 C 244 1008 249 1012 254 1022 C 264 1046 264 1084 254 1099 C 249 1104 249 1108 249 1108 C 264 1108 268 1075 259 1027 C 259 1022 254 1017 254 1008 C 283 1008 307 1008 331 1008 C 374 1008 408 1008 403 1008 C 403 1008 374 1008 340 1003 C 307 1003 278 1003 278 1003 C 278 1003 288 993 292 984 C 297 979 307 964 307 955 C 312 945 312 945 355 940 C 369 940 384 940 398 940 C 384 940 369 940 355 940 C 340 940 326 940 312 936 C 307 931 307 926 307 921 C 302 912 297 897 288 892 C 273 878 278 878 336 873 C 388 873 384 873 312 873 C 225 868 220 868 220 844 C 220 811 235 806 316 811 C 384 811 388 811 388 820 C 388 840 393 844 393 830 C 398 811 408 801 412 816 C 417 830 422 830 422 820 C 422 816 427 806 432 806 C 436 806 436 806 432 806 C 422 801 422 787 427 782 C 436 777 436 758 427 753 C 417 748 427 744 456 739 C 465 739 475 739 484 739 C 475 739 465 739 456 739 C 427 739 422 734 422 724 C 422 715 427 705 427 705 C 432 705 432 700 432 696 C 432 686 432 676 427 676 C 427 676 422 667 422 657 C 422 648 422 638 417 638 C 417 638 412 643 412 657 C 412 672 412 681 412 681 C 408 681 403 686 403 686 C 398 686 398 676 398 672 C 393 643 393 648 393 672 C 393 686 388 696 384 696 C 374 700 374 724 379 724 C 388 724 393 763 384 768 C 379 772 374 782 374 792 C 374 796 374 801 374 806 C 355 806 336 806 316 806 C 278 806 254 801 254 801 C 254 796 254 782 259 768 C 264 758 264 748 268 744 C 288 739 307 739 326 739 C 345 739 364 739 384 739 C 364 739 345 739 326 739 C 307 739 288 739 268 739 C 268 729 264 724 264 715 C 259 686 249 657 240 652 C 225 648 206 672 201 705 C 196 715 192 724 192 734 C 168 734 148 734 124 734 C 105 734 81 734 62 734 C 62 676 62 614 62 556 C 62 451 62 379 67 379 C 67 379 67 374 62 369 C 57 360 62 312 67 312 C 72 312 76 312 76 307 C 76 307 76 302 72 302 C 52 302 52 249 72 244 C 72 240 76 240 81 240 C 76 240 72 240 72 240 C 62 240 62 235 62 206 C 62 182 62 177 72 177 C 72 172 76 172 81 172 C 76 172 72 172 72 172 C 52 168 52 115 72 115 C 76 115 86 110 86 110 C 91 100 81 100 67 105 C 62 105 57 110 57 110 C 57 158 57 206 57 249 C 57 331 52 393 52 398 C 48 398 43 398 38 393 C 33 384 28 374 28 244 C 28 196 28 153 28 105 C 33 100 38 100 43 96 C 62 81 52 81 24 96 M 244 686 C 249 691 249 696 254 705 C 254 734 254 739 230 739 C 211 739 206 724 220 700 C 235 681 235 681 244 686 M 412 724 C 412 734 412 739 408 739 C 393 739 398 720 412 715 C 412 715 412 720 412 724 M 201 768 C 206 806 211 806 129 801 C 110 801 86 801 62 801 C 62 792 62 787 62 777 C 57 739 57 744 129 744 C 148 744 172 744 192 744 C 196 748 196 758 201 768 M 249 748 C 249 758 225 787 216 787 C 211 787 211 777 211 763 C 211 753 211 748 211 744 C 216 744 220 744 225 744 C 240 744 249 744 249 748 M 412 748 C 412 758 412 763 408 763 C 398 763 398 758 398 748 C 403 739 412 739 412 748 M 182 811 C 182 816 172 830 163 844 C 153 854 148 864 139 873 C 129 868 115 868 100 868 C 86 868 76 868 62 868 C 62 859 62 854 62 844 C 57 806 57 811 124 811 C 158 811 182 811 182 811 M 220 859 C 220 868 216 873 206 873 C 187 873 187 868 201 854 C 211 840 220 844 220 859 M 196 888 C 182 902 172 916 172 926 C 172 936 172 936 168 936 C 148 936 148 931 163 902 C 172 878 177 873 192 873 C 196 873 201 873 206 873 C 201 878 196 883 196 888 M 230 921 C 235 936 235 936 216 936 C 192 936 187 926 206 912 C 220 897 225 902 230 921 M 264 907 C 292 921 292 936 264 936 C 240 936 235 936 235 912 C 235 897 244 897 264 907 M 182 955 C 182 960 187 960 187 964 C 187 960 187 955 187 955 C 187 945 192 940 211 945 C 220 945 225 945 235 945 C 235 955 240 964 240 969 C 249 1003 249 1003 220 1003 C 182 998 129 940 163 940 C 168 940 177 950 182 955 M 288 955 C 288 964 278 984 264 993 C 254 998 249 988 244 960 C 244 955 244 950 244 940 C 249 940 259 940 268 940 C 288 940 288 945 288 955 M 168 1377 C 168 1377 163 1382 163 1382 C 158 1382 134 1416 134 1425 C 134 1430 129 1430 100 1430 C 57 1430 52 1425 62 1372 C 67 1368 168 1368 168 1377 M 225 1392 C 230 1396 235 1406 235 1416 C 240 1430 240 1430 220 1430 C 206 1430 196 1430 196 1425 C 196 1420 187 1416 177 1416 C 158 1411 158 1401 172 1387 C 182 1377 211 1377 225 1392 M 144 1444 C 153 1459 182 1459 196 1444 C 201 1440 211 1435 220 1440 C 235 1440 240 1459 225 1488 C 225 1492 225 1497 220 1502 C 196 1502 168 1502 144 1502 C 120 1502 91 1502 67 1502 C 67 1492 62 1483 62 1478 C 57 1440 62 1440 100 1440 C 129 1440 134 1440 144 1444 M 321 110 C 312 110 297 110 283 110 C 297 110 307 110 321 110 C 345 110 364 110 364 110 C 364 105 364 105 364 105 C 364 105 345 105 321 110 M 499 105 C 499 110 499 120 499 134 C 504 163 484 163 484 134 C 480 129 480 120 480 115 C 480 124 480 129 480 139 C 475 158 475 163 465 168 C 456 172 456 172 456 172 C 460 172 465 177 465 187 C 465 192 465 196 470 196 C 480 201 480 240 465 240 C 456 240 456 235 465 254 C 465 264 470 268 475 268 C 475 268 480 278 475 292 C 475 312 475 316 484 316 C 494 316 494 307 484 302 C 480 297 480 283 484 268 C 489 254 504 259 504 278 C 504 288 504 297 508 297 C 508 297 513 292 513 278 C 513 259 513 254 518 249 C 523 249 523 240 523 235 C 523 225 523 220 518 220 C 508 220 508 182 518 177 C 532 172 528 153 518 148 C 513 144 508 139 513 124 C 513 110 504 91 499 105 M 504 211 C 504 225 499 235 494 235 C 484 235 480 201 484 192 C 499 177 504 182 504 211 M 585 105 C 595 105 609 105 619 105 C 628 105 619 105 600 105 C 580 105 576 105 585 105 M 1257 105 C 1257 110 1257 153 1257 211 C 1262 302 1257 307 1252 312 C 1243 312 1243 312 1252 312 C 1257 312 1257 316 1257 340 C 1257 350 1257 360 1257 369 C 1238 374 1214 374 1195 374 C 1156 374 1185 374 1252 374 C 1320 374 1353 374 1324 374 C 1281 369 1267 369 1267 364 C 1267 360 1267 350 1267 336 C 1267 331 1267 321 1267 316 C 1286 316 1300 316 1320 316 C 1334 316 1353 316 1368 312 C 1372 316 1377 321 1382 326 C 1401 345 1411 350 1401 331 C 1392 316 1396 316 1420 312 C 1435 312 1440 312 1430 312 C 1416 307 1411 302 1430 302 C 1440 302 1440 297 1425 278 C 1411 264 1411 244 1430 216 C 1440 201 1440 196 1435 192 C 1430 187 1430 182 1435 182 C 1440 177 1440 177 1430 172 C 1425 172 1416 163 1406 153 C 1401 148 1392 139 1392 144 C 1387 144 1392 148 1392 153 C 1411 168 1401 172 1358 177 C 1348 177 1334 177 1320 177 C 1334 177 1344 177 1353 177 C 1406 182 1406 182 1392 211 C 1372 240 1372 244 1382 244 C 1387 244 1411 273 1411 278 C 1411 283 1406 283 1396 283 C 1387 283 1377 288 1372 297 C 1358 316 1272 316 1267 297 C 1267 292 1267 283 1267 273 C 1267 264 1267 254 1267 254 C 1267 249 1272 230 1272 211 C 1272 177 1272 177 1286 177 C 1296 177 1296 177 1281 172 C 1267 168 1267 168 1272 139 C 1272 115 1267 105 1267 105 C 1262 105 1257 105 1257 105 M 878 110 C 892 110 907 110 921 110 C 931 110 921 110 902 110 C 878 110 868 110 878 110 M 1838 110 C 1852 110 1867 110 1881 110 C 1891 110 1881 110 1857 110 C 1838 110 1828 110 1838 110 M 2174 139 C 2179 153 2174 168 2169 172 C 2169 177 2169 177 2169 177 C 2174 177 2174 206 2174 264 C 2174 307 2179 345 2179 345 C 2179 350 2184 340 2184 331 C 2184 321 2184 316 2188 316 C 2188 316 2188 312 2188 307 C 2179 297 2179 182 2188 177 C 2193 177 2193 177 2188 177 C 2184 172 2179 163 2184 139 C 2184 120 2184 105 2179 105 C 2174 105 2174 120 2174 139 M 2740 134 C 2740 148 2740 192 2740 235 C 2740 259 2740 283 2740 307 C 2731 307 2721 307 2716 307 C 2702 307 2688 312 2688 316 C 2688 316 2688 326 2683 331 C 2673 340 2673 350 2673 360 C 2673 364 2673 369 2673 374 C 2683 374 2697 374 2707 374 C 2731 374 2740 374 2736 374 C 2731 369 2731 369 2740 355 C 2745 345 2745 336 2745 326 C 2745 321 2750 312 2755 312 C 2764 312 2764 312 2755 312 C 2750 312 2745 288 2745 259 C 2745 259 2750 240 2745 216 C 2745 187 2750 182 2755 177 C 2764 177 2764 177 2755 177 C 2750 177 2745 168 2745 139 C 2745 100 2740 96 2740 134 M 3067 177 C 3067 225 3067 244 3062 244 C 3057 244 3057 244 3062 244 C 3067 249 3072 259 3067 283 C 3067 302 3067 321 3072 326 C 3076 336 3076 331 3076 278 C 3072 254 3076 244 3081 244 C 3086 244 3086 244 3081 244 C 3076 240 3072 230 3072 206 C 3076 148 3072 110 3072 110 C 3067 110 3067 139 3067 177 M 3379 110 C 3393 110 3408 110 3417 110 C 3427 110 3417 110 3398 110 C 3379 110 3369 110 3379 110 M 3489 110 C 3504 110 3518 110 3532 110 C 3542 110 3532 110 3508 110 C 3489 110 3480 110 3489 110 M 3950 110 C 3979 110 4032 110 4060 110 C 4089 110 4065 110 4003 110 C 3940 110 3916 110 3950 110 M 4939 110 C 4987 110 5068 110 5116 110 C 5164 110 5126 110 5030 110 C 4929 110 4891 110 4939 110 M 5323 110 C 5332 115 5328 120 5323 129 C 5308 144 5308 144 5304 268 C 5304 355 5304 384 5308 384 C 5313 384 5313 374 5313 350 C 5313 336 5313 321 5313 316 C 5318 312 5318 307 5318 307 C 5308 302 5308 264 5313 254 C 5318 249 5337 249 5404 249 C 5428 249 5457 249 5486 249 C 5486 259 5486 268 5486 278 C 5486 288 5486 297 5491 307 C 5472 312 5457 312 5443 312 C 5428 312 5409 312 5395 312 C 5409 312 5424 312 5443 312 C 5457 312 5472 312 5486 316 C 5486 321 5486 331 5486 340 C 5486 355 5486 374 5486 374 C 5481 379 5481 384 5486 384 C 5491 388 5491 388 5491 388 C 5491 384 5520 384 5572 384 C 5601 384 5630 384 5659 384 C 5659 388 5659 398 5659 408 C 5659 422 5659 432 5659 432 C 5664 432 5664 422 5664 408 C 5664 398 5664 388 5664 384 C 5678 379 5688 379 5702 379 C 5716 379 5731 379 5745 379 C 5731 379 5721 379 5707 379 C 5664 374 5659 374 5664 336 C 5664 331 5664 321 5664 316 C 5678 316 5692 316 5707 312 C 5716 312 5731 312 5745 312 C 5731 312 5716 312 5702 312 C 5688 312 5673 312 5664 307 C 5664 302 5664 292 5664 283 C 5664 244 5664 244 5726 249 C 5750 249 5774 249 5774 244 C 5779 244 5764 240 5745 240 C 5736 240 5726 240 5712 240 C 5716 240 5721 235 5721 230 C 5731 220 5736 211 5731 201 C 5731 182 5731 182 5750 182 C 5755 182 5769 182 5769 182 C 5774 177 5750 177 5721 177 C 5668 172 5664 177 5668 182 C 5673 187 5673 192 5668 201 C 5659 211 5659 220 5659 230 C 5659 235 5659 240 5659 240 C 5630 240 5601 240 5572 240 C 5548 240 5520 240 5491 240 C 5491 235 5491 230 5491 225 C 5491 211 5496 211 5515 211 C 5534 211 5539 206 5553 196 C 5568 182 5568 182 5616 177 C 5630 177 5649 177 5664 177 C 5649 177 5630 177 5616 177 C 5577 177 5568 172 5568 168 C 5568 144 5520 139 5500 163 C 5491 172 5486 177 5424 177 C 5404 177 5385 177 5361 177 C 5366 172 5371 168 5371 163 C 5380 153 5380 144 5380 129 C 5380 120 5380 115 5380 110 C 5371 110 5361 110 5347 110 C 5328 110 5323 110 5323 110 M 5486 211 C 5486 220 5486 230 5491 244 C 5462 240 5428 240 5400 240 C 5371 240 5342 240 5313 240 C 5313 230 5313 225 5313 216 C 5308 177 5308 177 5404 182 C 5433 182 5457 182 5486 182 C 5486 192 5486 201 5486 211 M 5659 278 C 5659 288 5659 297 5659 312 C 5630 307 5601 307 5577 307 C 5548 307 5524 307 5496 307 C 5496 297 5496 292 5496 283 C 5491 244 5486 244 5577 244 C 5601 244 5630 244 5659 244 C 5659 259 5659 268 5659 278 M 5659 345 C 5659 355 5659 364 5659 379 C 5630 374 5601 374 5577 374 C 5548 374 5524 374 5496 374 C 5496 364 5496 355 5496 345 C 5496 336 5491 326 5491 316 C 5520 316 5548 316 5572 316 C 5601 316 5630 316 5659 316 C 5659 326 5659 336 5659 345 M 5467 110 C 5510 110 5582 110 5625 110 C 5668 110 5630 110 5544 110 C 5462 110 5424 110 5467 110 M 5822 115 C 5827 115 5827 129 5827 148 C 5827 158 5827 168 5827 177 C 5822 177 5817 177 5808 177 C 5803 177 5793 177 5788 177 C 5793 177 5803 177 5808 182 C 5817 182 5822 182 5827 187 C 5827 216 5827 249 5827 278 C 5827 331 5832 374 5832 374 C 5832 379 5832 316 5832 244 C 5832 129 5832 110 5822 110 C 5817 105 5817 110 5822 115 M 1598 148 C 1569 163 1569 168 1569 259 C 1569 312 1569 345 1574 345 C 1574 345 1579 321 1579 302 C 1579 302 1579 288 1579 273 C 1579 259 1579 240 1579 230 C 1574 206 1579 206 1588 211 C 1603 216 1622 206 1636 192 C 1660 163 1636 129 1598 148 M 2942 158 C 2942 163 2942 168 2937 172 C 2913 177 2884 177 2856 177 C 2827 177 2803 177 2774 177 C 2803 177 2827 177 2856 177 C 2884 177 2913 177 2937 177 C 2937 192 2937 201 2937 211 C 2937 220 2937 230 2937 240 C 2928 244 2913 244 2899 244 C 2884 244 2870 244 2856 244 C 2870 244 2884 244 2899 244 C 2913 244 2928 244 2937 244 C 2937 259 2937 268 2937 278 C 2937 288 2937 297 2937 307 C 2913 312 2884 312 2856 312 C 2827 312 2798 312 2769 312 C 2798 312 2827 312 2856 312 C 2937 316 2937 316 2942 326 C 2942 326 2942 331 2942 336 C 2942 331 2942 331 2942 326 C 2942 316 2947 316 2980 312 C 2990 312 3004 312 3014 312 C 3004 312 2990 312 2980 312 C 2966 312 2956 312 2942 307 C 2942 297 2942 288 2942 278 C 2942 268 2942 259 2942 249 C 2956 244 2966 244 2976 244 C 2985 244 3000 244 3009 244 C 3000 244 2985 244 2976 244 C 2966 244 2956 244 2942 240 C 2942 230 2942 220 2942 211 C 2942 187 2947 177 2952 177 C 2956 177 2956 177 2952 177 C 2947 172 2942 168 2942 158 C 2942 153 2942 148 2942 144 C 2942 148 2942 153 2942 158 M 5126 158 C 5126 163 5131 168 5131 177 C 5088 177 5049 177 5006 177 C 4968 177 4924 177 4886 177 C 4886 172 4886 168 4886 163 C 4886 153 4881 153 4881 153 C 4876 153 4876 158 4876 163 C 4876 172 4872 177 4862 177 C 4857 177 4857 177 4852 177 C 4857 177 4857 177 4862 177 C 4872 177 4876 182 4876 211 C 4876 220 4876 230 4876 240 C 4862 244 4852 244 4843 244 C 4833 244 4824 244 4814 244 C 4824 244 4833 244 4843 244 C 4852 244 4862 244 4872 244 C 4872 259 4876 268 4876 278 C 4876 292 4876 307 4872 307 C 4862 312 4881 321 4891 316 C 4905 312 5102 312 5107 321 C 5107 326 5116 331 5126 340 C 5136 350 5140 350 5136 340 C 5126 312 5126 316 5164 312 C 5184 312 5193 312 5184 312 C 5174 307 5169 307 5169 302 C 5169 297 5164 288 5160 283 C 5145 268 5140 249 5155 244 C 5164 244 5164 244 5155 244 C 5150 240 5150 240 5160 220 C 5169 206 5174 201 5169 192 C 5164 187 5164 182 5169 182 C 5174 177 5169 177 5164 177 C 5160 177 5150 168 5140 158 C 5136 153 5131 148 5121 144 C 5126 148 5126 153 5126 158 M 5131 187 C 5131 192 5126 201 5121 211 C 5116 220 5112 230 5112 235 C 5112 240 5092 240 4996 240 C 4958 240 4920 240 4886 240 C 4886 230 4886 220 4886 211 C 4886 201 4886 192 4886 177 C 4924 182 4968 182 5006 182 C 5088 182 5131 182 5131 187 M 5131 264 C 5145 283 5145 283 5131 283 C 5121 283 5112 288 5107 297 C 5102 302 5097 307 5097 307 C 5064 307 5035 307 5006 307 C 4953 307 4915 307 4915 307 C 4915 307 4920 297 4924 288 C 4934 278 4934 273 4934 259 C 4934 254 4929 249 4929 244 C 4963 244 4992 244 5020 244 C 5054 244 5083 244 5116 244 C 5121 254 5126 259 5131 264 M 4915 264 C 4920 273 4900 302 4891 302 C 4881 307 4881 268 4886 259 C 4891 254 4910 259 4915 264 M 604 172 C 648 172 710 172 753 172 C 792 172 758 172 676 172 C 600 172 566 172 604 172 M 883 172 C 883 172 883 182 883 192 C 883 196 888 201 888 211 C 897 206 912 206 926 206 C 964 206 964 206 964 192 C 964 187 969 177 974 177 C 979 177 974 177 969 177 C 964 172 888 168 883 172 M 1771 177 C 1780 177 1790 177 1800 182 C 1795 187 1790 192 1785 196 C 1771 211 1771 216 1771 273 C 1776 297 1771 302 1766 307 C 1756 312 1756 312 1766 312 C 1771 316 1776 316 1776 340 C 1776 350 1776 360 1776 369 C 1752 374 1728 374 1708 374 C 1684 374 1665 374 1641 374 C 1665 374 1684 374 1708 374 C 1728 374 1752 374 1776 374 C 1776 384 1776 393 1776 403 C 1776 412 1776 422 1776 432 C 1776 422 1776 412 1776 408 C 1780 398 1780 388 1780 379 C 1800 379 1819 379 1838 374 C 1862 374 1881 374 1900 374 C 1881 374 1857 374 1838 374 C 1819 374 1800 374 1780 369 C 1780 364 1780 350 1780 345 C 1780 331 1780 326 1780 316 C 1804 312 1833 312 1862 312 C 1891 312 1915 312 1944 312 C 1915 312 1891 312 1862 312 C 1833 307 1809 307 1780 307 C 1780 297 1780 288 1780 278 C 1780 268 1780 259 1776 244 C 1809 244 1843 244 1876 244 C 1910 244 1944 244 1972 244 C 1972 283 1972 316 1972 355 C 1972 427 1977 460 1982 465 C 1982 470 1987 451 1982 393 C 1982 336 1982 316 1987 316 C 1992 312 1992 312 1987 307 C 1972 292 1982 278 2001 278 C 2035 278 2059 249 2049 230 C 2040 211 2016 206 1992 225 C 1987 230 1982 235 1972 240 C 1948 240 1924 240 1900 240 C 1862 240 1833 240 1833 240 C 1833 240 1833 230 1843 225 C 1848 211 1852 206 1848 192 C 1848 187 1848 182 1843 177 C 1828 177 1809 177 1795 177 C 1761 177 1752 177 1771 177 M 1900 177 C 1924 177 1968 177 1992 177 C 2016 177 1992 177 1944 177 C 1896 177 1872 177 1900 177 M 2241 177 C 2260 177 2294 177 2308 177 C 2328 177 2313 177 2275 177 C 2236 177 2222 177 2241 177 M 2467 177 C 2476 177 2491 177 2500 177 C 2510 177 2500 177 2481 177 C 2462 177 2457 177 2467 177 M 3403 177 C 3432 177 3475 177 3499 177 C 3528 177 3504 177 3451 177 C 3398 177 3379 177 3403 177 M 3844 177 C 3878 177 3940 177 3974 177 C 4008 177 3979 177 3907 177 C 3835 177 3806 177 3844 177 M 811 244 C 830 244 854 244 873 244 C 888 244 873 244 844 244 C 811 244 796 244 811 244 M 1300 244 C 1310 244 1324 244 1334 244 C 1344 244 1339 244 1315 244 C 1296 244 1291 244 1300 244 M 3355 244 C 3384 244 3436 244 3465 244 C 3494 244 3470 244 3412 244 C 3350 244 3326 244 3355 244 M 3537 244 C 3547 244 3561 244 3571 244 C 3580 244 3576 244 3556 244 C 3532 244 3528 244 3537 244 M 3878 244 C 3912 244 3964 244 3998 244 C 4032 244 4003 244 3936 244 C 3868 244 3844 244 3878 244 M 777 312 C 796 312 830 312 844 312 C 864 312 849 312 811 312 C 772 312 758 312 777 312 M 3374 312 C 3403 312 3456 312 3484 312 C 3513 312 3489 312 3427 312 C 3369 312 3345 312 3374 312 M 3888 312 C 3926 312 3988 312 4022 312 C 4060 312 4027 312 3955 312 C 3883 312 3849 312 3888 312 M 2884 355 C 2870 369 2865 369 2822 374 C 2808 374 2793 374 2779 374 C 2793 374 2808 374 2822 374 C 2860 379 2870 379 2870 384 C 2870 412 2908 417 2932 393 C 2971 355 2928 321 2884 355 M 1569 360 C 1569 364 1569 369 1564 369 C 1564 369 1564 374 1564 379 C 1569 384 1569 384 1569 388 C 1569 388 1569 393 1569 398 C 1574 403 1574 398 1579 388 C 1579 369 1579 360 1569 360 C 1569 360 1569 360 1569 360 M 672 374 C 715 374 787 374 830 374 C 873 374 835 374 753 374 C 667 374 628 374 672 374 M 2328 374 C 2347 374 2380 374 2400 374 C 2424 374 2404 374 2366 374 C 2323 374 2304 374 2328 374 M 3273 379 C 3283 384 3283 384 3273 388 C 3254 408 3268 432 3292 436 C 3312 441 3316 441 3307 432 C 3297 422 3292 398 3302 388 C 3316 369 3350 398 3340 427 C 3336 441 3345 441 3360 432 C 3374 422 3374 408 3364 388 C 3355 384 3355 379 3355 374 C 3355 374 3331 374 3307 374 C 3273 374 3268 374 3273 379 M 4032 379 C 4046 379 4070 379 4080 379 C 4094 379 4084 379 4056 379 C 4032 379 4017 379 4032 379 M 4540 379 C 4564 379 4598 379 4617 379 C 4641 379 4622 379 4579 379 C 4536 379 4521 379 4540 379 M 5035 379 C 5073 379 5126 379 5160 379 C 5193 379 5164 379 5097 379 C 5030 379 5001 379 5035 379 M 177 432 C 153 465 201 504 240 480 C 249 475 249 475 244 475 C 225 484 216 484 211 480 C 206 480 206 475 216 465 C 220 460 225 451 225 446 C 225 422 192 412 177 432 M 763 686 C 763 705 763 720 758 739 C 724 739 691 739 657 739 C 624 739 590 739 556 739 C 590 739 624 739 657 739 C 691 744 724 744 758 744 C 758 753 758 758 758 768 C 758 801 753 806 734 806 C 710 806 715 796 734 787 C 748 782 753 777 744 777 C 729 772 715 777 700 792 C 691 801 691 801 619 806 C 600 806 576 806 552 806 C 576 806 595 806 619 806 C 686 811 686 811 691 820 C 691 825 691 825 696 830 C 696 825 696 825 700 820 C 705 806 744 801 744 811 C 744 820 720 830 710 830 C 705 830 705 835 705 835 C 705 844 729 844 744 835 C 758 825 763 825 758 864 C 758 868 734 873 657 873 C 561 873 561 873 638 873 C 662 873 686 873 715 878 C 710 883 705 888 700 892 C 691 902 686 907 691 921 C 691 926 691 931 696 936 C 676 940 657 940 643 940 C 624 940 609 940 590 940 C 609 940 633 940 652 940 C 672 940 696 940 715 940 C 710 945 705 950 700 955 C 696 964 691 974 691 988 C 691 993 691 1003 691 1008 C 705 1008 720 1008 739 1008 C 763 1008 772 1008 763 1008 C 744 1003 744 1003 758 988 C 763 979 763 969 763 960 C 763 955 763 950 763 940 C 787 940 811 940 830 940 C 854 940 873 940 897 940 C 873 940 854 940 835 940 C 811 936 792 936 768 936 C 768 926 768 916 768 907 C 768 897 768 888 763 878 C 782 873 801 873 820 873 C 835 873 854 873 873 873 C 854 873 835 873 820 873 C 801 873 782 873 763 873 C 763 859 768 849 768 840 C 768 830 768 820 768 811 C 787 811 801 811 816 806 C 835 806 854 806 868 806 C 849 806 835 806 816 806 C 801 806 782 806 763 806 C 763 792 763 782 763 772 C 763 763 763 753 763 744 C 787 739 811 739 835 739 C 859 739 883 739 907 739 C 883 739 859 739 835 739 C 811 739 787 739 768 739 C 763 720 763 705 763 686 C 763 672 763 652 763 638 C 763 652 763 672 763 686 M 758 892 C 758 912 715 936 705 931 C 691 921 710 897 729 888 C 748 883 758 883 758 892 M 758 955 C 758 974 710 1008 700 998 C 691 993 705 969 724 960 C 748 945 758 945 758 955 M 4545 696 C 4545 710 4545 724 4540 744 C 4516 744 4492 744 4468 744 C 4430 744 4406 744 4416 744 C 4425 744 4430 744 4440 748 C 4440 758 4440 768 4440 777 C 4440 787 4440 796 4440 806 C 4425 811 4411 811 4396 811 C 4387 811 4372 811 4358 811 C 4372 811 4387 811 4396 811 C 4411 811 4425 811 4440 811 C 4440 825 4440 835 4435 844 C 4435 902 4435 921 4444 912 C 4444 907 4449 902 4444 897 C 4444 883 4449 878 4459 878 C 4468 878 4473 883 4473 907 C 4473 931 4468 940 4464 940 C 4454 945 4454 945 4464 945 C 4468 950 4473 955 4473 974 C 4473 979 4473 979 4478 979 C 4478 979 4483 969 4483 960 C 4483 960 4483 955 4483 950 C 4492 945 4507 945 4516 945 C 4531 945 4540 945 4555 945 C 4540 945 4531 945 4516 945 C 4478 940 4478 940 4478 897 C 4478 892 4478 888 4478 883 C 4507 883 4540 883 4569 883 C 4598 883 4627 883 4656 883 C 4660 888 4660 892 4660 902 C 4660 936 4665 945 4665 912 C 4670 888 4670 878 4675 878 C 4684 878 4684 878 4675 873 C 4665 868 4665 825 4675 816 C 4680 806 4680 806 4646 806 C 4641 806 4636 806 4632 806 C 4632 796 4632 787 4632 777 C 4632 768 4632 758 4627 748 C 4641 748 4651 748 4665 748 C 4675 748 4689 748 4699 748 C 4699 777 4699 806 4699 835 C 4699 883 4704 921 4704 921 C 4704 926 4718 916 4747 892 C 4761 878 4766 873 4761 864 C 4756 849 4742 840 4732 844 C 4723 849 4723 849 4732 854 C 4742 859 4742 868 4732 873 C 4728 873 4723 878 4728 878 C 4732 883 4732 888 4728 892 C 4718 907 4708 907 4708 892 C 4708 888 4713 878 4718 878 C 4718 878 4718 878 4718 873 C 4713 873 4713 844 4713 806 C 4713 782 4713 763 4713 744 C 4694 744 4675 744 4651 744 C 4588 744 4584 739 4588 720 C 4588 705 4584 700 4569 705 C 4560 705 4555 710 4545 710 C 4550 700 4550 696 4550 686 C 4550 676 4550 662 4550 657 C 4545 648 4545 657 4545 696 M 4579 734 C 4579 739 4569 744 4564 744 C 4550 744 4550 729 4564 724 C 4574 724 4584 729 4579 734 M 4473 777 C 4473 801 4468 811 4464 811 C 4459 811 4459 811 4464 811 C 4478 820 4468 873 4459 873 C 4444 878 4435 840 4449 816 C 4449 811 4449 806 4449 806 C 4444 806 4440 758 4444 748 C 4444 748 4454 748 4459 748 C 4468 748 4473 748 4473 777 M 4540 768 C 4540 772 4540 777 4540 787 C 4550 782 4555 782 4560 782 C 4579 777 4584 777 4584 792 C 4584 796 4579 806 4574 806 C 4569 811 4569 811 4574 811 C 4579 811 4584 820 4584 825 C 4584 830 4584 835 4584 840 C 4584 835 4584 830 4588 825 C 4588 816 4593 811 4608 811 C 4612 811 4617 811 4622 811 C 4622 825 4622 835 4622 844 C 4622 854 4622 864 4622 873 C 4598 873 4574 873 4555 873 C 4478 873 4473 873 4478 840 C 4478 830 4478 825 4478 816 C 4492 816 4507 816 4521 811 C 4531 811 4545 811 4560 811 C 4545 811 4536 811 4521 811 C 4478 806 4478 806 4478 768 C 4478 763 4478 753 4478 748 C 4488 748 4497 748 4507 748 C 4521 748 4531 748 4540 748 C 4540 753 4540 758 4540 768 M 4579 748 C 4579 753 4564 763 4555 763 C 4555 763 4550 758 4550 753 C 4550 748 4555 748 4564 748 C 4569 748 4579 748 4579 748 M 4622 777 C 4617 806 4617 811 4608 811 C 4593 811 4584 796 4588 772 C 4588 768 4588 758 4588 753 C 4588 748 4593 744 4608 744 C 4612 744 4617 744 4622 744 C 4622 758 4622 768 4622 777 M 4656 854 C 4656 854 4651 859 4641 859 C 4632 864 4632 859 4632 849 C 4632 825 4656 816 4656 840 C 4656 844 4656 854 4656 854 M 4785 696 C 4785 768 4790 820 4790 820 C 4790 825 4795 820 4804 820 C 4809 816 4819 811 4833 811 C 4848 811 4848 811 4838 811 C 4824 806 4824 806 4833 792 C 4843 782 4848 772 4848 753 C 4848 744 4843 744 4824 739 C 4814 739 4809 739 4800 739 C 4800 724 4800 710 4800 696 C 4795 633 4790 638 4785 696 M 4824 768 C 4828 782 4809 811 4800 806 C 4795 801 4795 763 4804 758 C 4814 748 4824 753 4824 768 M 499 744 C 504 753 504 763 499 782 C 494 796 484 787 484 772 C 484 763 484 753 480 753 C 480 753 475 758 475 772 C 475 787 475 796 470 796 C 465 796 465 806 465 811 C 465 816 465 825 470 825 C 480 830 480 868 470 868 C 460 873 465 897 475 897 C 480 897 480 931 470 936 C 460 940 460 940 475 940 C 489 940 489 940 489 916 C 489 902 489 892 494 892 C 499 888 504 892 504 907 C 504 916 504 926 508 926 C 508 926 513 921 513 907 C 513 888 513 883 523 878 C 532 873 532 873 528 868 C 513 849 513 844 513 830 C 513 816 513 811 523 811 C 528 806 528 806 528 801 C 523 801 518 796 518 787 C 518 782 518 782 513 782 C 508 782 508 748 518 744 C 523 739 518 739 508 739 C 494 739 494 739 499 744 M 504 840 C 504 854 499 859 494 859 C 489 859 484 854 484 840 C 484 825 489 816 494 816 C 499 816 504 825 504 840 M 1171 739 C 1200 739 1228 739 1257 744 C 1262 748 1262 753 1262 758 C 1262 768 1262 777 1262 777 C 1257 782 1262 787 1262 787 C 1267 787 1267 782 1267 777 C 1267 772 1267 763 1267 753 C 1267 748 1267 744 1267 744 C 1286 739 1300 739 1320 739 C 1344 739 1300 739 1224 739 C 1147 739 1118 739 1171 739 M 1718 739 C 1732 739 1756 739 1766 739 C 1780 739 1771 739 1742 739 C 1713 739 1704 739 1718 739 M 2174 835 C 2174 907 2174 936 2169 936 C 2169 936 2169 940 2169 945 C 2174 950 2179 964 2174 979 C 2174 1008 2174 1008 2184 1008 C 2188 1008 2188 1008 2188 1008 C 2174 1003 2179 950 2193 945 C 2193 940 2198 940 2203 940 C 2198 940 2198 940 2193 940 C 2184 940 2184 936 2184 873 C 2184 816 2184 811 2193 811 C 2198 806 2198 806 2203 806 C 2198 806 2193 806 2193 806 C 2179 806 2179 801 2184 772 C 2184 753 2179 739 2179 739 C 2174 739 2174 777 2174 835 M 2419 744 C 2433 744 2448 744 2457 744 C 2467 744 2457 744 2438 744 C 2419 744 2409 744 2419 744 M 2899 744 C 2923 744 2956 744 2976 744 C 3000 744 2980 744 2937 744 C 2894 744 2880 744 2899 744 M 3067 811 C 3067 849 3072 883 3072 878 C 3076 878 3076 744 3072 744 C 3067 744 3067 768 3067 811 M 3412 744 C 3436 744 3480 744 3504 744 C 3528 744 3504 744 3456 744 C 3408 744 3384 744 3412 744 M 3964 744 C 3984 744 4008 744 4027 744 C 4041 744 4027 744 3998 744 C 3964 744 3950 744 3964 744 M 4958 744 C 5006 744 5078 744 5121 744 C 5169 744 5131 744 5040 744 C 4948 744 4915 744 4958 744 M 5510 744 C 5553 744 5625 744 5668 744 C 5712 744 5673 744 5587 744 C 5500 744 5467 744 5510 744 M 5827 777 C 5827 792 5827 854 5827 912 C 5827 988 5827 1012 5832 1008 C 5836 1003 5836 753 5832 748 C 5832 744 5827 758 5827 777 M 4872 796 C 4872 806 4872 820 4876 835 C 4876 859 4876 864 4867 873 C 4862 878 4862 878 4867 878 C 4872 878 4876 883 4876 888 C 4881 897 4872 940 4867 940 C 4867 940 4867 945 4872 950 C 4876 955 4881 955 4886 955 C 4891 950 4896 950 4900 945 C 4910 945 4915 945 4915 940 C 4915 936 4920 931 4924 921 C 4934 907 4939 902 4934 892 C 4934 888 4934 878 4934 878 C 4939 878 4939 878 4939 873 C 4939 873 4934 868 4929 873 C 4891 878 4881 873 4886 844 C 4886 835 4886 825 4886 816 C 4929 816 4968 816 5011 811 C 5054 811 5092 811 5136 811 C 5092 811 5054 811 5011 806 C 4968 806 4929 806 4886 806 C 4886 801 4886 796 4886 796 C 4881 782 4876 782 4872 796 M 4915 892 C 4920 907 4900 936 4891 936 C 4881 936 4881 897 4891 892 C 4896 883 4910 883 4915 892 M 1257 796 C 1257 801 1248 806 1176 806 C 1147 806 1118 806 1089 806 C 1118 806 1147 806 1176 806 C 1204 806 1233 806 1257 811 C 1257 820 1257 830 1257 840 C 1257 849 1257 859 1257 868 C 1233 873 1204 873 1176 873 C 1152 873 1123 873 1094 873 C 1123 873 1152 873 1176 873 C 1204 873 1233 873 1257 873 C 1257 888 1257 897 1257 907 C 1257 916 1257 926 1257 936 C 1233 940 1204 940 1180 940 C 1152 940 1128 940 1099 940 C 1128 940 1152 940 1180 940 C 1209 945 1233 945 1262 945 C 1262 955 1262 964 1262 974 C 1262 984 1262 993 1262 1003 C 1252 1003 1248 1003 1238 1008 C 1224 1008 1267 1008 1329 1008 C 1425 1008 1430 1008 1358 1008 C 1329 1008 1300 1008 1267 1003 C 1267 993 1267 984 1267 974 C 1267 964 1267 955 1267 945 C 1291 940 1310 940 1334 940 C 1353 940 1377 940 1396 940 C 1377 940 1353 940 1334 940 C 1310 940 1291 940 1267 936 C 1267 926 1267 916 1267 907 C 1267 897 1267 888 1267 873 C 1286 873 1305 873 1320 873 C 1339 873 1353 873 1372 873 C 1358 873 1339 873 1324 873 C 1267 868 1267 868 1267 835 C 1267 825 1267 820 1267 811 C 1286 811 1300 811 1315 806 C 1334 806 1348 806 1368 806 C 1348 806 1334 806 1315 801 C 1281 801 1267 801 1267 796 C 1267 792 1267 787 1262 787 C 1262 787 1257 792 1257 796 M 1665 806 C 1680 811 1680 811 1684 825 C 1684 830 1684 835 1684 840 C 1699 840 1708 840 1723 840 C 1737 840 1747 840 1761 840 C 1761 835 1761 830 1761 825 C 1766 811 1766 811 1800 806 C 1814 806 1790 806 1742 806 C 1689 806 1656 806 1665 806 M 2577 811 C 2568 811 2568 811 2577 811 C 2582 811 2582 816 2587 825 C 2587 840 2587 840 2625 840 C 2640 840 2649 840 2664 840 C 2664 835 2664 830 2668 825 C 2668 816 2668 806 2664 806 C 2635 806 2582 806 2577 811 M 2380 811 C 2395 811 2409 811 2424 811 C 2433 811 2424 811 2400 811 C 2380 811 2371 811 2380 811 M 2908 811 C 2937 811 2980 811 3004 811 C 3033 811 3009 811 2956 811 C 2904 811 2884 811 2908 811 M 3427 811 C 3465 811 3528 811 3566 811 C 3604 811 3571 811 3494 811 C 3417 811 3388 811 3427 811 M 3729 825 C 3729 830 3734 835 3734 844 C 3744 840 3758 840 3772 840 C 3787 840 3796 840 3811 840 C 3811 835 3811 830 3816 825 C 3816 820 3816 816 3816 811 C 3801 811 3787 811 3772 811 C 3758 811 3744 811 3729 811 C 3729 816 3729 820 3729 825 M 3926 811 C 3964 811 4027 811 4065 811 C 4104 811 4070 811 3998 811 C 3921 811 3888 811 3926 811 M 5366 816 C 5371 816 5376 825 5376 830 C 5376 849 5452 844 5452 825 C 5452 820 5457 816 5457 816 C 5496 811 5539 811 5582 811 C 5692 811 5683 811 5529 811 C 5409 811 5361 811 5366 816 M 1699 873 C 1728 873 1771 873 1800 873 C 1824 873 1804 873 1747 873 C 1689 873 1670 873 1699 873 M 2232 873 C 2246 873 2260 873 2275 873 C 2284 873 2275 873 2251 873 C 2232 873 2222 873 2232 873 M 2769 873 C 2784 873 2798 873 2808 873 C 2817 873 2808 873 2788 873 C 2769 873 2760 873 2769 873 M 3307 873 C 3321 873 3336 873 3350 873 C 3360 873 3350 873 3326 873 C 3307 873 3297 873 3307 873 M 3849 873 C 3859 873 3873 873 3883 873 C 3892 873 3888 873 3864 873 C 3844 873 3840 873 3849 873 M 4070 878 C 4080 878 4094 878 4104 878 C 4113 878 4104 878 4084 878 C 4065 878 4060 878 4070 878 M 5035 878 C 5073 878 5126 878 5164 878 C 5198 878 5169 878 5097 878 C 5030 878 5001 878 5035 878 M 5515 878 C 5563 878 5635 878 5678 878 C 5721 878 5688 878 5596 878 C 5505 878 5472 878 5515 878 M 3067 936 C 3067 979 3067 1008 3072 1008 C 3076 1008 3076 936 3072 931 C 3072 926 3067 931 3067 936 M 4435 936 C 4430 945 4430 945 4435 950 C 4440 950 4440 955 4440 955 C 4440 960 4440 960 4440 960 C 4449 960 4449 945 4444 936 C 4440 931 4440 931 4435 936 M 1675 940 C 1713 940 1785 940 1824 940 C 1867 940 1833 940 1747 940 C 1665 940 1632 940 1675 940 M 2270 940 C 2280 940 2299 940 2313 940 C 2323 940 2313 940 2289 940 C 2265 940 2256 940 2270 940 M 5059 945 C 5088 945 5131 945 5160 945 C 5184 945 5164 945 5112 945 C 5054 945 5035 945 5059 945 M 5577 945 C 5616 945 5678 945 5716 945 C 5755 945 5726 945 5644 945 C 5568 945 5539 945 5577 945 M 4468 1003 C 4468 1012 4444 1012 4444 1008 C 4444 1003 4444 1003 4440 1003 C 4416 1012 4440 1012 4526 1012 C 4617 1012 4617 1012 4550 1012 C 4492 1012 4483 1008 4483 1003 C 4483 993 4473 988 4468 1003 M 830 1008 C 854 1008 888 1008 912 1008 C 931 1008 912 1008 868 1008 C 825 1008 806 1008 830 1008 M 1800 1008 C 1828 1008 1872 1008 1900 1008 C 1924 1008 1905 1008 1848 1008 C 1790 1008 1771 1008 1800 1008 M 2260 1008 C 2299 1008 2361 1008 2400 1008 C 2438 1008 2404 1008 2332 1008 C 2256 1008 2222 1008 2260 1008 M 2812 1008 C 2841 1008 2884 1008 2913 1008 C 2942 1008 2918 1008 2865 1008 C 2808 1008 2784 1008 2812 1008 M 3345 1008 C 3355 1008 3374 1008 3388 1008 C 3398 1008 3388 1008 3364 1008 C 3340 1008 3331 1008 3345 1008 M 3816 1008 C 3835 1008 3859 1008 3878 1008 C 3892 1008 3878 1008 3844 1008 C 3811 1008 3796 1008 3816 1008 M 5035 1012 C 5068 1012 5121 1012 5155 1012 C 5188 1012 5160 1012 5092 1012 C 5025 1012 5001 1012 5035 1012 M 5534 1012 C 5577 1012 5649 1012 5692 1012 C 5736 1012 5697 1012 5611 1012 C 5524 1012 5491 1012 5534 1012 M 177 1065 C 163 1084 172 1104 196 1118 C 211 1128 230 1128 216 1118 C 206 1113 206 1113 216 1104 C 230 1094 230 1070 220 1060 C 216 1051 187 1051 177 1065 M 3672 1296 C 3672 1377 3672 1392 3686 1382 C 3686 1377 3696 1377 3696 1377 C 3724 1377 3744 1315 3720 1305 C 3705 1300 3700 1305 3710 1315 C 3720 1324 3715 1339 3700 1353 C 3686 1372 3681 1368 3686 1339 C 3686 1281 3686 1209 3681 1209 C 3676 1209 3672 1248 3672 1296 M 720 1238 C 705 1248 691 1267 691 1286 C 691 1291 686 1296 681 1296 C 676 1296 676 1300 681 1305 C 686 1305 691 1324 691 1339 C 691 1348 691 1358 691 1363 C 662 1368 633 1368 609 1368 C 580 1368 556 1368 528 1368 C 556 1368 580 1368 609 1368 C 633 1372 662 1372 686 1372 C 686 1382 686 1392 686 1401 C 686 1411 691 1420 691 1430 C 662 1435 633 1435 609 1435 C 580 1435 556 1435 528 1435 C 556 1435 580 1435 609 1435 C 633 1440 662 1440 686 1440 C 686 1449 686 1459 686 1468 C 686 1478 691 1488 691 1502 C 667 1502 643 1502 624 1502 C 600 1502 580 1502 556 1502 C 576 1502 600 1502 619 1502 C 643 1507 662 1507 686 1507 C 686 1516 686 1526 686 1536 C 686 1545 691 1555 691 1569 C 662 1569 633 1569 609 1569 C 542 1569 523 1564 523 1560 C 523 1555 523 1550 518 1550 C 508 1545 508 1516 518 1507 C 528 1502 528 1483 518 1473 C 508 1468 508 1444 518 1440 C 523 1435 518 1430 508 1430 C 494 1430 494 1430 499 1449 C 508 1464 499 1488 494 1488 C 489 1488 484 1478 484 1464 C 484 1440 480 1440 475 1468 C 475 1488 475 1492 465 1497 C 451 1502 451 1502 460 1507 C 465 1507 465 1512 465 1516 C 465 1521 470 1526 470 1526 C 484 1526 480 1564 465 1569 C 460 1569 456 1574 460 1574 C 465 1574 465 1584 465 1588 C 465 1593 470 1598 475 1598 C 475 1598 480 1608 475 1622 C 475 1641 475 1646 480 1641 C 489 1641 489 1636 489 1617 C 484 1593 489 1593 494 1593 C 504 1593 508 1593 508 1612 C 508 1632 508 1632 508 1608 C 513 1574 518 1569 609 1574 C 633 1574 662 1574 686 1574 C 686 1584 686 1593 686 1603 C 691 1632 691 1632 676 1636 C 672 1636 667 1636 662 1636 C 667 1636 672 1636 676 1641 C 681 1641 686 1641 691 1646 C 691 1660 691 1675 691 1694 C 691 1718 691 1742 691 1737 C 691 1737 696 1699 696 1656 C 696 1608 696 1574 700 1574 C 700 1574 700 1569 696 1564 C 686 1550 696 1536 710 1536 C 729 1540 758 1526 763 1512 C 763 1507 777 1507 801 1502 C 816 1502 825 1502 840 1502 C 825 1502 816 1502 801 1502 C 772 1502 763 1497 763 1492 C 763 1488 763 1488 763 1488 C 758 1488 753 1488 753 1492 C 753 1502 715 1502 715 1497 C 715 1488 734 1483 748 1483 C 753 1483 753 1478 753 1478 C 748 1468 720 1468 710 1478 C 696 1488 691 1488 696 1464 C 696 1454 696 1449 696 1440 C 720 1440 744 1440 763 1435 C 787 1435 811 1435 835 1435 C 811 1435 787 1435 763 1435 C 739 1435 715 1435 691 1430 C 696 1420 696 1411 696 1401 C 696 1392 696 1382 696 1372 C 724 1372 758 1372 787 1368 C 816 1368 849 1368 878 1368 C 849 1368 816 1368 787 1368 C 753 1368 724 1368 691 1363 C 696 1353 696 1344 696 1334 C 696 1324 696 1315 696 1305 C 710 1305 720 1305 734 1300 C 753 1300 768 1300 758 1300 C 753 1300 748 1300 744 1296 C 748 1291 753 1286 758 1281 C 763 1272 768 1267 763 1257 C 758 1243 758 1243 758 1252 C 748 1272 734 1291 715 1291 C 686 1296 696 1267 734 1248 C 744 1243 753 1238 753 1238 C 753 1233 729 1238 720 1238 M 744 1507 C 744 1516 720 1526 710 1526 C 696 1526 696 1521 705 1512 C 710 1502 744 1502 744 1507 M 504 1536 C 504 1550 499 1564 489 1564 C 484 1564 484 1521 489 1516 C 499 1512 504 1516 504 1536 M 3283 1252 C 3278 1257 3268 1267 3264 1272 C 3259 1286 3259 1488 3264 1492 C 3268 1502 3268 1497 3268 1372 C 3268 1353 3268 1329 3268 1310 C 3278 1310 3288 1310 3297 1310 C 3316 1305 3321 1305 3321 1300 C 3321 1300 3326 1291 3331 1286 C 3360 1257 3316 1224 3283 1252 M 3854 1305 C 3854 1368 3849 1368 3840 1372 C 3840 1372 3835 1372 3830 1372 C 3835 1372 3840 1372 3840 1372 C 3849 1372 3854 1377 3854 1396 C 3854 1406 3854 1420 3854 1420 C 3859 1420 3897 1392 3902 1382 C 3907 1377 3916 1377 3926 1377 C 3931 1377 3936 1377 3940 1377 C 3940 1387 3936 1396 3936 1406 C 3936 1416 3936 1425 3936 1435 C 3921 1435 3912 1435 3902 1440 C 3888 1440 3873 1440 3864 1440 C 3878 1440 3888 1440 3902 1440 C 3912 1440 3926 1440 3940 1444 C 3940 1454 3936 1464 3936 1473 C 3936 1483 3936 1492 3936 1502 C 3907 1502 3883 1502 3854 1507 C 3830 1507 3806 1507 3777 1507 C 3806 1507 3830 1507 3859 1507 C 3883 1507 3912 1507 3940 1507 C 3940 1516 3940 1526 3940 1536 C 3940 1555 3936 1569 3936 1569 C 3931 1569 3840 1555 3777 1540 C 3768 1536 3768 1536 3768 1478 C 3768 1449 3763 1420 3763 1420 C 3758 1416 3758 1420 3758 1502 C 3758 1526 3758 1545 3758 1569 C 3753 1569 3748 1569 3748 1574 C 3739 1574 3739 1574 3758 1579 C 3768 1579 3782 1579 3782 1579 C 3787 1579 3796 1579 3811 1584 C 3825 1584 3854 1593 3883 1598 C 3940 1608 3940 1608 3945 1593 C 3945 1579 3945 1579 3984 1574 C 3998 1574 4008 1574 4022 1574 C 4008 1574 3998 1574 3984 1574 C 3969 1574 3955 1574 3945 1569 C 3945 1560 3945 1550 3945 1540 C 3945 1531 3945 1521 3945 1507 C 3969 1507 3998 1507 4027 1507 C 4056 1507 4084 1507 4108 1507 C 4108 1521 4108 1531 4108 1540 C 4108 1560 4108 1569 4104 1569 C 4099 1569 4099 1574 4104 1579 C 4113 1584 4113 1636 4104 1636 C 4089 1636 4108 1646 4128 1646 C 4142 1646 4180 1656 4219 1660 C 4267 1670 4291 1675 4296 1670 C 4296 1665 4300 1627 4300 1569 C 4300 1536 4300 1502 4300 1468 C 4300 1473 4305 1473 4310 1473 C 4324 1478 4353 1464 4363 1449 C 4363 1444 4372 1440 4387 1440 C 4396 1440 4401 1440 4411 1440 C 4406 1440 4396 1440 4392 1440 C 4377 1435 4368 1435 4368 1425 C 4358 1401 4334 1401 4305 1425 C 4300 1430 4291 1435 4286 1440 C 4286 1459 4286 1483 4286 1507 C 4286 1526 4286 1550 4291 1569 C 4276 1574 4267 1574 4257 1574 C 4248 1574 4238 1574 4228 1574 C 4238 1574 4248 1574 4257 1574 C 4291 1579 4296 1579 4296 1622 C 4296 1641 4291 1641 4224 1627 C 4195 1622 4156 1612 4142 1612 C 4123 1608 4118 1608 4118 1593 C 4118 1584 4123 1574 4128 1574 C 4132 1574 4132 1574 4128 1574 C 4123 1574 4118 1564 4118 1540 C 4118 1531 4118 1521 4118 1512 C 4128 1507 4137 1507 4147 1507 C 4156 1507 4166 1507 4176 1507 C 4166 1507 4156 1507 4147 1507 C 4118 1502 4113 1502 4118 1464 C 4118 1459 4123 1449 4123 1444 C 4128 1440 4137 1440 4147 1440 C 4156 1440 4161 1440 4171 1440 C 4176 1435 4176 1425 4180 1420 C 4190 1401 4190 1396 4185 1387 C 4185 1382 4185 1377 4185 1372 C 4185 1372 4156 1372 4104 1372 C 4075 1372 4046 1372 4017 1372 C 4012 1368 4012 1363 4012 1358 C 4008 1334 3969 1334 3945 1358 C 3931 1372 3916 1372 3912 1358 C 3907 1344 3892 1334 3883 1339 C 3883 1344 3883 1348 3883 1348 C 3897 1353 3892 1372 3873 1372 C 3864 1372 3859 1368 3864 1358 C 3864 1329 3859 1248 3854 1248 C 3854 1248 3854 1267 3854 1305 M 3888 1377 C 3888 1382 3868 1401 3864 1401 C 3864 1401 3859 1396 3859 1387 C 3859 1377 3864 1377 3873 1377 C 3878 1377 3888 1377 3888 1377 M 4137 1377 C 4137 1377 4132 1382 4128 1387 C 4123 1396 4113 1406 4113 1416 C 4113 1425 4108 1430 4108 1435 C 4080 1435 4056 1435 4027 1435 C 3998 1435 3974 1435 3945 1435 C 3945 1430 3945 1425 3945 1420 C 3940 1406 3940 1401 3964 1401 C 3984 1401 3988 1401 4003 1392 C 4017 1377 4017 1377 4075 1377 C 4108 1377 4137 1377 4137 1377 M 4108 1473 C 4108 1483 4108 1492 4108 1507 C 4084 1507 4056 1507 4027 1507 C 3998 1507 3969 1507 3945 1507 C 3945 1492 3945 1483 3945 1473 C 3945 1464 3945 1454 3945 1444 C 3969 1444 3998 1444 4027 1444 C 4056 1444 4084 1444 4108 1444 C 4108 1454 4108 1464 4108 1473 M 2908 1272 C 2904 1272 2889 1281 2884 1286 C 2880 1291 2870 1296 2870 1296 C 2865 1296 2865 1315 2865 1334 C 2865 1368 2865 1368 2856 1372 C 2851 1372 2846 1372 2841 1372 C 2846 1372 2851 1372 2856 1372 C 2865 1372 2865 1377 2870 1396 C 2870 1406 2870 1411 2870 1420 C 2870 1411 2870 1406 2870 1396 C 2870 1392 2870 1382 2870 1377 C 2889 1372 2904 1372 2923 1372 C 2937 1372 2956 1372 2971 1372 C 2956 1372 2937 1372 2923 1372 C 2908 1368 2889 1368 2875 1368 C 2875 1363 2875 1358 2875 1353 C 2870 1339 2870 1339 2894 1339 C 2913 1339 2918 1334 2932 1320 C 2942 1315 2952 1305 2956 1305 C 2961 1305 2956 1305 2952 1300 C 2947 1300 2942 1296 2942 1291 C 2942 1286 2928 1267 2923 1272 C 2918 1272 2913 1272 2908 1272 M 2702 1310 C 2673 1324 2668 1329 2668 1454 C 2668 1521 2668 1564 2664 1569 C 2664 1574 2664 1574 2668 1574 C 2678 1574 2678 1569 2678 1478 C 2678 1444 2678 1411 2678 1377 C 2683 1377 2692 1372 2702 1372 C 2716 1372 2731 1372 2731 1368 C 2731 1363 2736 1358 2740 1348 C 2750 1329 2750 1324 2736 1315 C 2726 1300 2716 1300 2702 1310 M 3787 1310 C 3768 1324 3763 1329 3758 1353 C 3758 1377 3758 1411 3763 1387 C 3768 1377 3772 1377 3796 1377 C 3811 1372 3820 1372 3816 1372 C 3816 1368 3820 1363 3825 1353 C 3849 1320 3820 1291 3787 1310 M 2505 1344 C 2476 1358 2472 1363 2472 1435 C 2472 1459 2472 1483 2472 1502 C 2452 1507 2428 1507 2404 1507 C 2380 1507 2356 1507 2332 1507 C 2356 1507 2380 1507 2404 1507 C 2462 1507 2476 1512 2476 1516 C 2476 1521 2476 1526 2476 1526 C 2481 1526 2481 1521 2481 1516 C 2481 1512 2491 1512 2505 1507 C 2510 1507 2520 1507 2524 1507 C 2520 1507 2510 1507 2505 1507 C 2481 1502 2476 1497 2481 1464 C 2481 1444 2481 1444 2500 1440 C 2505 1440 2515 1440 2520 1440 C 2515 1440 2505 1440 2500 1435 C 2481 1435 2481 1435 2481 1420 C 2481 1406 2481 1406 2496 1406 C 2539 1406 2568 1363 2539 1344 C 2529 1334 2524 1334 2505 1344 M 4785 1358 C 4785 1368 4785 1401 4785 1440 C 4785 1497 4785 1507 4780 1507 C 4771 1507 4771 1507 4780 1512 C 4790 1516 4795 1516 4800 1516 C 4804 1512 4814 1507 4824 1507 C 4828 1507 4828 1507 4828 1502 C 4828 1502 4828 1492 4833 1488 C 4838 1483 4843 1468 4843 1459 C 4848 1449 4848 1444 4848 1440 C 4838 1440 4833 1440 4824 1440 C 4814 1440 4804 1440 4795 1440 C 4795 1425 4795 1416 4800 1406 C 4800 1353 4800 1344 4790 1344 C 4790 1344 4785 1353 4785 1358 M 4824 1459 C 4828 1468 4814 1502 4804 1502 C 4795 1502 4795 1454 4804 1449 C 4814 1444 4824 1449 4824 1459 M 4209 1358 C 4209 1363 4209 1382 4209 1396 C 4214 1416 4209 1430 4209 1435 C 4204 1440 4204 1444 4204 1444 C 4209 1444 4209 1454 4209 1464 C 4209 1483 4214 1483 4228 1478 C 4252 1478 4257 1497 4238 1507 C 4233 1507 4228 1507 4224 1507 C 4228 1507 4233 1507 4233 1512 C 4243 1512 4248 1516 4252 1526 C 4257 1545 4262 1516 4262 1464 C 4257 1401 4257 1396 4238 1401 C 4224 1406 4224 1401 4219 1392 C 4219 1387 4219 1377 4224 1377 C 4224 1372 4224 1358 4214 1353 C 4214 1353 4209 1353 4209 1358 M 4248 1425 C 4248 1425 4248 1430 4248 1435 C 4243 1440 4243 1444 4243 1444 C 4248 1449 4238 1454 4228 1454 C 4219 1459 4219 1444 4228 1440 C 4238 1440 4238 1440 4228 1440 C 4224 1440 4219 1435 4219 1430 C 4219 1420 4243 1416 4248 1425 M 4540 1358 C 4540 1368 4531 1368 4454 1372 C 4406 1372 4382 1372 4401 1372 C 4416 1372 4425 1372 4440 1377 C 4440 1387 4440 1396 4440 1406 C 4440 1435 4435 1435 4425 1440 C 4420 1440 4416 1440 4411 1440 C 4416 1440 4420 1440 4425 1440 C 4435 1440 4440 1444 4440 1459 C 4440 1478 4440 1478 4440 1464 C 4440 1454 4444 1444 4449 1444 C 4449 1440 4449 1435 4449 1435 C 4444 1435 4444 1420 4444 1401 C 4444 1377 4444 1377 4454 1377 C 4473 1377 4473 1377 4473 1401 C 4473 1425 4468 1435 4464 1435 C 4454 1440 4454 1440 4464 1440 C 4468 1440 4473 1444 4473 1473 C 4473 1502 4468 1507 4459 1507 C 4454 1507 4444 1502 4444 1497 C 4440 1492 4440 1492 4435 1502 C 4430 1507 4430 1507 4430 1507 C 4435 1507 4440 1521 4440 1540 C 4440 1550 4440 1560 4440 1569 C 4420 1574 4401 1574 4382 1574 C 4363 1574 4344 1574 4324 1574 C 4344 1574 4363 1574 4382 1574 C 4396 1579 4416 1579 4435 1579 C 4435 1588 4435 1598 4440 1608 C 4440 1617 4440 1627 4440 1636 C 4435 1636 4430 1636 4425 1636 C 4416 1636 4411 1641 4416 1641 C 4416 1641 4449 1646 4488 1646 C 4531 1646 4550 1646 4540 1641 C 4526 1641 4507 1641 4497 1641 C 4488 1641 4483 1641 4478 1636 C 4478 1627 4478 1617 4478 1608 C 4478 1598 4478 1588 4478 1579 C 4488 1579 4492 1579 4502 1574 C 4512 1574 4516 1574 4526 1574 C 4516 1574 4512 1574 4502 1569 C 4492 1569 4488 1569 4478 1569 C 4478 1560 4478 1550 4478 1540 C 4478 1531 4478 1521 4478 1512 C 4492 1512 4512 1512 4531 1512 C 4564 1512 4579 1512 4579 1516 C 4579 1536 4584 1536 4584 1526 C 4588 1516 4593 1512 4603 1512 C 4608 1512 4617 1507 4622 1507 C 4622 1521 4617 1531 4617 1545 C 4617 1555 4617 1569 4617 1584 C 4622 1584 4632 1584 4636 1584 C 4646 1584 4651 1584 4656 1584 C 4656 1588 4656 1598 4656 1608 C 4656 1622 4660 1632 4660 1632 C 4665 1632 4670 1622 4670 1608 C 4670 1593 4670 1584 4675 1579 C 4684 1574 4684 1574 4675 1574 C 4670 1574 4665 1569 4670 1536 C 4670 1526 4670 1512 4670 1502 C 4660 1502 4656 1502 4651 1502 C 4641 1502 4636 1507 4632 1507 C 4632 1492 4632 1483 4632 1473 C 4632 1464 4632 1454 4632 1440 C 4641 1444 4651 1444 4665 1444 C 4675 1444 4689 1444 4699 1444 C 4699 1454 4699 1464 4699 1473 C 4704 1497 4699 1502 4689 1502 C 4689 1507 4684 1507 4680 1507 C 4684 1507 4689 1507 4689 1507 C 4704 1512 4708 1569 4694 1574 C 4684 1574 4684 1574 4694 1579 C 4699 1579 4699 1588 4699 1603 C 4699 1627 4704 1632 4713 1612 C 4718 1608 4723 1608 4728 1608 C 4732 1608 4737 1598 4747 1588 C 4766 1569 4761 1545 4737 1545 C 4723 1545 4723 1545 4732 1550 C 4742 1564 4742 1569 4732 1569 C 4728 1569 4728 1574 4728 1579 C 4728 1584 4728 1593 4723 1598 C 4718 1603 4713 1608 4713 1612 C 4713 1593 4713 1579 4713 1560 C 4713 1545 4713 1526 4713 1512 C 4718 1507 4723 1507 4732 1507 C 4737 1507 4747 1507 4752 1507 C 4747 1507 4737 1507 4732 1507 C 4708 1502 4704 1492 4713 1454 C 4713 1449 4713 1444 4713 1440 C 4694 1440 4675 1440 4651 1440 C 4588 1440 4588 1435 4588 1411 C 4588 1401 4584 1401 4569 1401 C 4550 1406 4550 1406 4550 1392 C 4550 1387 4550 1382 4550 1377 C 4564 1372 4579 1372 4593 1372 C 4612 1372 4627 1372 4641 1372 C 4627 1372 4612 1372 4598 1372 C 4555 1368 4550 1368 4550 1358 C 4545 1348 4536 1348 4540 1358 M 4540 1406 C 4540 1416 4540 1425 4540 1435 C 4531 1435 4521 1435 4512 1435 C 4478 1440 4478 1435 4478 1401 C 4478 1392 4478 1382 4478 1377 C 4488 1377 4497 1377 4507 1377 C 4521 1377 4531 1377 4540 1377 C 4540 1387 4540 1396 4540 1406 M 4579 1430 C 4579 1435 4569 1440 4564 1440 C 4555 1440 4550 1435 4550 1430 C 4550 1425 4555 1420 4564 1420 C 4579 1420 4579 1425 4579 1430 M 4540 1464 C 4540 1468 4540 1473 4540 1483 C 4550 1478 4555 1478 4564 1478 C 4584 1473 4584 1473 4579 1488 C 4579 1492 4579 1497 4579 1502 C 4560 1502 4545 1502 4526 1502 C 4512 1502 4497 1502 4478 1502 C 4478 1492 4478 1483 4478 1478 C 4478 1440 4478 1444 4512 1444 C 4521 1444 4531 1444 4540 1444 C 4540 1449 4540 1454 4540 1464 M 4579 1444 C 4579 1449 4564 1459 4555 1459 C 4555 1459 4550 1454 4550 1449 C 4550 1444 4555 1444 4564 1444 C 4569 1444 4579 1444 4579 1444 M 4622 1473 C 4622 1483 4622 1492 4622 1507 C 4612 1507 4608 1502 4603 1502 C 4588 1502 4588 1502 4588 1478 C 4588 1444 4588 1444 4608 1444 C 4612 1444 4617 1444 4622 1444 C 4622 1454 4622 1464 4622 1473 M 4473 1540 C 4473 1569 4473 1569 4459 1569 C 4444 1569 4444 1569 4444 1545 C 4440 1512 4444 1507 4459 1507 C 4468 1507 4473 1512 4473 1540 M 4656 1540 C 4656 1550 4646 1564 4632 1564 C 4627 1564 4632 1531 4636 1526 C 4651 1521 4656 1526 4656 1540 M 4468 1608 C 4473 1636 4473 1636 4459 1636 C 4440 1636 4430 1584 4449 1579 C 4464 1574 4468 1579 4468 1608 M 1171 1368 C 1200 1368 1228 1368 1257 1372 C 1257 1382 1257 1392 1257 1401 C 1257 1411 1257 1420 1257 1430 C 1243 1435 1224 1435 1209 1435 C 1190 1435 1176 1435 1156 1435 C 1176 1435 1190 1435 1209 1435 C 1252 1435 1262 1440 1262 1444 C 1262 1449 1262 1464 1262 1473 C 1262 1483 1262 1488 1262 1497 C 1243 1497 1228 1497 1209 1502 C 1190 1502 1176 1502 1156 1502 C 1176 1502 1190 1502 1209 1502 C 1267 1507 1262 1502 1262 1545 C 1262 1569 1267 1569 1233 1574 C 1224 1574 1228 1574 1243 1574 C 1248 1574 1257 1574 1267 1574 C 1262 1588 1262 1598 1262 1608 C 1262 1617 1262 1627 1262 1636 C 1252 1636 1243 1636 1238 1641 C 1219 1641 1272 1641 1348 1641 C 1478 1641 1483 1641 1382 1641 C 1344 1641 1305 1641 1267 1636 C 1267 1627 1267 1617 1267 1608 C 1267 1588 1272 1574 1276 1574 C 1281 1574 1281 1574 1276 1569 C 1272 1569 1267 1550 1267 1536 C 1267 1526 1267 1516 1267 1507 C 1276 1502 1281 1502 1286 1502 C 1291 1502 1296 1502 1300 1502 C 1296 1502 1291 1502 1286 1502 C 1281 1502 1276 1502 1267 1502 C 1267 1488 1267 1478 1267 1468 C 1267 1459 1267 1449 1267 1440 C 1276 1435 1281 1435 1286 1435 C 1291 1435 1296 1435 1300 1435 C 1296 1435 1291 1435 1286 1435 C 1281 1435 1272 1435 1267 1430 C 1267 1420 1272 1411 1272 1401 C 1272 1372 1272 1372 1286 1368 C 1296 1368 1252 1368 1190 1368 C 1080 1368 1080 1368 1171 1368 M 1689 1368 C 1704 1368 1728 1368 1737 1368 C 1752 1368 1742 1368 1713 1368 C 1689 1368 1675 1368 1689 1368 M 2174 1396 C 2179 1420 2174 1430 2169 1430 C 2169 1430 2169 1435 2169 1440 C 2179 1444 2179 1632 2169 1636 C 2164 1641 2169 1641 2188 1641 C 2203 1641 2203 1641 2193 1641 C 2184 1636 2184 1636 2184 1612 C 2184 1593 2184 1579 2188 1579 C 2188 1574 2188 1574 2188 1569 C 2179 1564 2179 1516 2188 1512 C 2188 1512 2188 1507 2188 1502 C 2184 1497 2184 1473 2184 1430 C 2184 1396 2179 1368 2179 1368 C 2174 1368 2174 1377 2174 1396 M 2313 1372 C 2299 1372 2294 1372 2299 1372 C 2308 1372 2308 1377 2299 1387 C 2280 1406 2280 1416 2280 1492 C 2280 1540 2280 1569 2275 1569 C 2275 1569 2275 1574 2280 1579 C 2280 1584 2280 1598 2280 1612 C 2280 1617 2280 1627 2280 1636 C 2270 1636 2256 1636 2246 1641 C 2227 1641 2260 1641 2323 1641 C 2390 1641 2404 1641 2361 1641 C 2337 1641 2313 1641 2284 1636 C 2284 1627 2284 1617 2284 1608 C 2284 1598 2284 1588 2284 1574 C 2318 1574 2347 1574 2380 1574 C 2414 1574 2443 1574 2476 1574 C 2476 1579 2476 1584 2476 1588 C 2476 1598 2476 1598 2476 1588 C 2481 1584 2486 1579 2505 1574 C 2510 1574 2520 1574 2524 1574 C 2520 1574 2510 1574 2505 1574 C 2496 1574 2491 1574 2481 1569 C 2481 1564 2481 1555 2481 1550 C 2481 1540 2481 1526 2476 1526 C 2476 1526 2476 1540 2476 1550 C 2476 1555 2476 1564 2476 1569 C 2443 1569 2414 1569 2380 1569 C 2352 1569 2318 1569 2289 1569 C 2289 1550 2289 1526 2289 1507 C 2289 1488 2289 1464 2289 1444 C 2299 1444 2308 1444 2318 1444 C 2337 1444 2347 1440 2342 1435 C 2342 1435 2347 1425 2352 1416 C 2356 1401 2361 1396 2356 1387 C 2352 1377 2352 1372 2356 1372 C 2356 1372 2356 1372 2352 1372 C 2347 1368 2342 1368 2337 1368 C 2337 1368 2328 1368 2313 1372 M 1819 1372 C 1828 1372 1848 1372 1862 1372 C 1872 1372 1862 1372 1838 1372 C 1814 1372 1804 1372 1819 1372 M 2385 1372 C 2400 1372 2424 1372 2438 1372 C 2452 1372 2438 1372 2414 1372 C 2385 1372 2371 1372 2385 1372 M 3024 1372 C 3038 1377 3052 1377 3067 1377 C 3067 1387 3067 1396 3067 1406 C 3067 1416 3067 1425 3067 1435 C 3033 1435 3004 1435 2976 1435 C 2889 1440 2880 1435 2875 1430 C 2870 1425 2870 1425 2870 1425 C 2870 1430 2860 1435 2856 1435 C 2856 1440 2851 1440 2846 1440 C 2851 1440 2856 1440 2856 1440 C 2865 1440 2870 1444 2870 1473 C 2870 1483 2870 1492 2870 1502 C 2860 1507 2856 1507 2846 1507 C 2841 1507 2832 1507 2827 1507 C 2832 1507 2841 1507 2846 1507 C 2865 1507 2865 1512 2870 1521 C 2870 1526 2870 1526 2870 1531 C 2870 1526 2870 1526 2870 1521 C 2870 1516 2870 1512 2870 1507 C 2904 1507 2937 1507 2971 1507 C 3004 1507 3038 1507 3067 1507 C 3067 1521 3067 1531 3067 1540 C 3067 1560 3067 1569 3062 1569 C 3062 1569 3062 1574 3062 1579 C 3067 1584 3072 1598 3067 1612 C 3067 1632 3067 1641 3072 1641 C 3076 1641 3076 1632 3076 1473 C 3076 1377 3076 1377 3086 1372 C 3091 1372 3072 1372 3038 1372 C 2980 1372 2980 1372 3024 1372 M 3067 1473 C 3067 1483 3067 1492 3067 1502 C 3033 1502 3004 1502 2971 1502 C 2937 1502 2908 1502 2875 1502 C 2875 1492 2875 1483 2875 1473 C 2875 1464 2875 1454 2870 1440 C 2904 1444 2937 1444 2971 1444 C 3000 1444 3033 1444 3067 1444 C 3067 1454 3067 1464 3067 1473 M 3422 1372 C 3456 1372 3508 1372 3542 1372 C 3571 1372 3547 1372 3480 1372 C 3417 1372 3393 1372 3422 1372 M 4944 1372 C 4987 1372 5059 1372 5102 1372 C 5145 1372 5107 1372 5020 1372 C 4934 1372 4900 1372 4944 1372 M 5515 1372 C 5664 1372 5688 1377 5678 1382 C 5668 1392 5659 1411 5659 1425 C 5659 1430 5659 1435 5659 1440 C 5640 1440 5625 1440 5611 1440 C 5572 1440 5568 1435 5568 1430 C 5568 1406 5524 1401 5500 1420 C 5496 1425 5491 1430 5486 1440 C 5452 1440 5424 1440 5395 1440 C 5342 1440 5308 1440 5313 1440 C 5328 1444 5328 1444 5318 1464 C 5308 1473 5308 1483 5308 1488 C 5308 1492 5304 1502 5299 1502 C 5289 1507 5289 1507 5299 1507 C 5304 1507 5308 1512 5308 1521 C 5308 1526 5308 1531 5313 1531 C 5313 1531 5318 1526 5318 1521 C 5318 1516 5318 1512 5318 1507 C 5342 1512 5371 1512 5400 1512 C 5428 1512 5457 1512 5486 1512 C 5486 1521 5486 1531 5486 1540 C 5486 1550 5486 1560 5491 1569 C 5486 1569 5481 1569 5472 1569 C 5467 1569 5462 1574 5462 1574 C 5462 1579 5472 1584 5476 1584 C 5486 1584 5486 1584 5486 1627 C 5486 1651 5491 1675 5491 1675 C 5491 1680 5491 1670 5491 1665 C 5491 1656 5496 1651 5500 1651 C 5505 1651 5505 1646 5500 1641 C 5491 1632 5491 1584 5500 1584 C 5505 1584 5510 1579 5510 1574 C 5510 1574 5505 1569 5500 1569 C 5496 1569 5491 1564 5496 1540 C 5496 1531 5496 1521 5496 1512 C 5524 1512 5548 1512 5577 1512 C 5601 1512 5630 1512 5659 1507 C 5659 1521 5659 1531 5659 1545 C 5659 1555 5659 1564 5659 1579 C 5635 1574 5611 1574 5587 1574 C 5553 1574 5524 1574 5524 1579 C 5524 1579 5553 1584 5587 1584 C 5611 1584 5635 1584 5659 1584 C 5659 1593 5659 1603 5659 1612 C 5659 1622 5659 1632 5659 1641 C 5635 1646 5611 1646 5587 1646 C 5548 1646 5568 1646 5635 1646 C 5702 1646 5736 1646 5712 1646 C 5697 1646 5683 1646 5668 1641 C 5668 1632 5668 1622 5668 1612 C 5668 1603 5668 1593 5668 1584 C 5678 1579 5692 1579 5707 1579 C 5721 1579 5731 1579 5745 1579 C 5731 1579 5721 1579 5707 1579 C 5692 1579 5678 1579 5668 1574 C 5664 1569 5664 1560 5664 1550 C 5664 1536 5664 1521 5664 1516 C 5664 1512 5678 1512 5707 1507 C 5721 1507 5736 1507 5750 1507 C 5736 1507 5721 1507 5707 1507 C 5692 1507 5678 1507 5668 1507 C 5664 1497 5664 1492 5664 1488 C 5664 1478 5664 1468 5664 1459 C 5664 1454 5664 1449 5664 1444 C 5678 1444 5688 1444 5702 1440 C 5721 1440 5736 1440 5731 1440 C 5721 1440 5716 1435 5721 1435 C 5721 1430 5726 1425 5726 1416 C 5731 1411 5731 1396 5731 1387 C 5731 1382 5731 1377 5726 1372 C 5668 1372 5606 1372 5544 1372 C 5481 1372 5424 1372 5361 1372 C 5414 1372 5462 1372 5515 1372 M 5486 1473 C 5486 1483 5486 1492 5486 1502 C 5467 1502 5448 1502 5428 1502 C 5395 1502 5371 1502 5371 1502 C 5371 1502 5371 1492 5376 1488 C 5380 1483 5385 1468 5380 1464 C 5380 1454 5380 1449 5380 1444 C 5380 1444 5404 1444 5433 1444 C 5452 1444 5467 1444 5486 1444 C 5486 1454 5486 1464 5486 1473 M 5659 1473 C 5659 1483 5659 1492 5659 1507 C 5630 1507 5601 1507 5572 1507 C 5548 1507 5520 1507 5491 1507 C 5491 1497 5496 1492 5496 1488 C 5496 1473 5496 1473 5510 1473 C 5529 1478 5544 1468 5558 1454 C 5568 1444 5568 1444 5611 1444 C 5625 1444 5640 1444 5659 1444 C 5659 1454 5659 1464 5659 1473 M 5832 1401 C 5832 1430 5827 1435 5822 1440 C 5812 1440 5812 1440 5822 1440 C 5827 1440 5832 1444 5827 1473 C 5827 1492 5827 1516 5832 1531 C 5832 1540 5832 1550 5832 1560 C 5832 1550 5832 1545 5832 1536 C 5836 1521 5836 1478 5832 1440 C 5832 1401 5832 1382 5832 1401 M 292 1401 C 288 1411 288 1416 292 1416 C 302 1425 316 1420 316 1406 C 316 1392 297 1387 292 1401 M 1392 1411 C 1401 1430 1401 1454 1392 1468 C 1377 1492 1377 1497 1396 1521 C 1416 1540 1416 1545 1396 1545 C 1387 1545 1377 1550 1372 1560 C 1363 1569 1358 1569 1329 1574 C 1315 1574 1300 1574 1291 1574 C 1305 1574 1320 1574 1334 1574 C 1372 1574 1372 1579 1382 1593 C 1396 1608 1406 1608 1401 1593 C 1401 1588 1396 1584 1396 1574 C 1406 1574 1416 1574 1420 1574 C 1435 1574 1444 1574 1444 1574 C 1444 1569 1435 1569 1430 1569 C 1420 1569 1411 1569 1411 1564 C 1411 1564 1416 1564 1420 1564 C 1440 1564 1440 1560 1425 1540 C 1406 1521 1411 1507 1435 1507 C 1459 1507 1464 1507 1440 1502 C 1416 1502 1416 1492 1435 1473 C 1444 1459 1440 1444 1416 1420 C 1396 1401 1387 1401 1392 1411 M 2006 1411 C 2001 1411 1992 1420 1987 1425 C 1977 1430 1968 1440 1958 1440 C 1953 1440 1948 1440 1944 1440 C 1948 1440 1953 1440 1958 1440 C 1972 1440 1977 1444 1977 1459 C 1977 1478 2016 1478 2044 1454 C 2049 1444 2054 1440 2064 1435 C 2059 1430 2054 1425 2049 1420 C 2035 1401 2020 1401 2006 1411 M 3523 1411 C 3532 1435 3532 1459 3518 1478 C 3513 1488 3508 1497 3508 1497 C 3508 1502 3470 1507 3417 1507 C 3384 1507 3355 1507 3326 1507 C 3360 1507 3388 1507 3422 1507 C 3456 1507 3489 1507 3518 1507 C 3523 1512 3528 1516 3528 1521 C 3542 1540 3542 1545 3523 1550 C 3499 1550 3489 1574 3513 1588 C 3532 1608 3537 1608 3528 1593 C 3528 1584 3528 1579 3532 1579 C 3542 1574 3547 1574 3547 1569 C 3547 1564 3547 1564 3552 1564 C 3566 1569 3566 1560 3556 1545 C 3532 1516 3537 1512 3590 1507 C 3609 1507 3624 1507 3638 1507 C 3624 1507 3609 1507 3595 1507 C 3547 1502 3542 1502 3561 1478 C 3571 1464 3571 1459 3566 1454 C 3561 1449 3561 1444 3571 1440 C 3576 1440 3576 1440 3566 1440 C 3561 1440 3552 1430 3537 1420 C 3523 1406 3518 1406 3523 1411 M 1084 1435 C 1099 1435 1113 1435 1128 1435 C 1137 1435 1128 1435 1104 1435 C 1084 1435 1075 1435 1084 1435 M 1780 1440 C 1785 1440 1790 1444 1790 1444 C 1790 1449 1785 1454 1780 1459 C 1776 1468 1776 1478 1776 1488 C 1776 1497 1771 1502 1766 1502 C 1756 1502 1756 1502 1766 1507 C 1771 1512 1776 1516 1771 1540 C 1771 1550 1771 1560 1771 1569 C 1756 1569 1742 1569 1728 1574 C 1708 1574 1694 1574 1680 1574 C 1694 1574 1708 1574 1728 1574 C 1742 1574 1756 1574 1776 1574 C 1776 1588 1776 1598 1776 1608 C 1776 1617 1776 1627 1776 1636 C 1756 1641 1742 1641 1723 1641 C 1708 1641 1689 1641 1675 1641 C 1689 1641 1708 1641 1723 1641 C 1742 1641 1756 1641 1771 1641 C 1776 1656 1776 1665 1776 1680 C 1776 1689 1776 1704 1776 1713 C 1776 1704 1776 1689 1776 1680 C 1776 1665 1776 1656 1780 1641 C 1809 1641 1838 1641 1867 1641 C 1896 1641 1929 1641 1958 1641 C 1929 1641 1900 1641 1872 1641 C 1838 1636 1809 1636 1780 1636 C 1780 1627 1780 1617 1780 1608 C 1780 1598 1780 1588 1776 1574 C 1804 1574 1838 1574 1867 1574 C 1896 1574 1924 1574 1953 1574 C 1924 1574 1896 1574 1867 1574 C 1838 1569 1809 1569 1780 1569 C 1780 1560 1780 1550 1780 1545 C 1780 1531 1780 1516 1780 1512 C 1785 1512 1824 1507 1872 1507 C 1929 1507 1939 1507 1896 1507 C 1828 1502 1828 1502 1843 1488 C 1848 1478 1848 1468 1848 1454 C 1848 1449 1848 1440 1848 1435 C 1833 1435 1824 1435 1809 1435 C 1776 1435 1771 1435 1780 1440 M 3403 1440 C 3427 1440 3460 1440 3484 1440 C 3504 1440 3489 1440 3446 1440 C 3398 1440 3384 1440 3403 1440 M 5001 1440 C 5068 1440 5121 1444 5121 1444 C 5121 1444 5116 1454 5112 1459 C 5102 1468 5097 1478 5097 1483 C 5097 1507 5102 1507 4987 1507 C 4953 1507 4920 1507 4886 1507 C 4886 1502 4886 1497 4886 1492 C 4886 1488 4881 1483 4881 1483 C 4876 1483 4876 1488 4876 1492 C 4876 1502 4872 1502 4852 1507 C 4848 1507 4838 1507 4833 1507 C 4838 1507 4848 1507 4852 1507 C 4862 1507 4867 1507 4872 1507 C 4872 1516 4876 1526 4876 1536 C 4876 1569 4876 1569 4857 1574 C 4857 1574 4852 1574 4848 1574 C 4852 1574 4857 1574 4862 1574 C 4876 1579 4876 1588 4876 1617 C 4876 1627 4872 1632 4872 1636 C 4862 1641 4852 1641 4843 1641 C 4828 1641 4819 1641 4809 1641 C 4819 1641 4828 1641 4838 1641 C 4857 1641 4872 1646 4872 1651 C 4876 1656 4881 1656 4896 1651 C 4905 1646 4920 1641 4968 1646 C 5001 1646 5030 1646 5035 1641 C 5044 1641 5020 1641 4977 1641 C 4910 1641 4905 1636 4915 1632 C 4929 1617 4934 1603 4934 1588 C 4929 1574 4929 1569 4905 1569 C 4900 1569 4891 1569 4886 1569 C 4886 1560 4886 1550 4886 1540 C 4886 1531 4886 1521 4886 1507 C 4920 1512 4953 1512 4992 1512 C 5025 1512 5064 1512 5097 1512 C 5097 1521 5097 1531 5097 1540 C 5102 1569 5097 1574 5092 1574 C 5083 1574 5083 1574 5092 1579 C 5097 1584 5097 1593 5097 1612 C 5097 1641 5097 1641 5073 1641 C 5064 1641 5059 1641 5059 1646 C 5059 1646 5068 1651 5078 1651 C 5083 1651 5088 1651 5092 1651 C 5097 1660 5097 1670 5097 1680 C 5097 1708 5097 1713 5102 1704 C 5112 1684 5150 1651 5155 1651 C 5160 1651 5164 1646 5160 1641 C 5160 1636 5160 1632 5164 1632 C 5174 1617 5184 1579 5179 1560 C 5174 1555 5174 1545 5174 1540 C 5174 1545 5174 1550 5174 1555 C 5174 1564 5169 1574 5164 1574 C 5160 1579 5160 1579 5160 1579 C 5174 1584 5164 1603 5145 1622 C 5131 1636 5121 1641 5116 1641 C 5107 1636 5107 1636 5107 1574 C 5107 1555 5107 1531 5107 1512 C 5116 1512 5131 1512 5140 1512 C 5174 1512 5198 1507 5169 1507 C 5155 1507 5155 1502 5169 1483 C 5174 1473 5174 1468 5174 1459 C 5174 1454 5174 1449 5169 1444 C 5184 1440 5198 1440 5212 1440 C 5232 1440 5169 1440 5068 1440 C 4968 1440 4939 1440 5001 1440 M 4915 1598 C 4915 1612 4900 1636 4891 1636 C 4881 1636 4881 1593 4886 1588 C 4896 1579 4915 1588 4915 1598 M 292 1454 C 278 1468 292 1488 312 1478 C 321 1473 321 1454 312 1449 C 302 1444 302 1444 292 1454 M 5212 1459 C 5198 1478 5217 1497 5246 1492 C 5260 1492 5265 1492 5260 1497 C 5260 1497 5251 1502 5241 1507 C 5227 1507 5227 1507 5241 1507 C 5260 1512 5260 1516 5241 1569 C 5236 1579 5241 1584 5251 1584 C 5256 1584 5260 1579 5256 1574 C 5251 1560 5265 1512 5275 1512 C 5280 1507 5280 1507 5275 1502 C 5270 1497 5270 1492 5270 1483 C 5280 1459 5275 1454 5260 1473 C 5251 1488 5241 1488 5241 1473 C 5241 1454 5227 1444 5212 1459 M 1598 1478 C 1579 1488 1564 1507 1569 1516 C 1574 1526 1574 1564 1564 1569 C 1564 1574 1564 1574 1564 1579 C 1574 1584 1574 1632 1564 1636 C 1564 1636 1564 1641 1569 1646 C 1569 1651 1574 1670 1569 1694 C 1569 1718 1569 1737 1574 1737 C 1574 1732 1579 1689 1579 1636 C 1579 1603 1579 1569 1579 1536 C 1584 1536 1588 1536 1593 1536 C 1622 1536 1660 1507 1651 1497 C 1632 1468 1617 1464 1598 1478 M 1972 1492 C 1972 1502 1972 1512 1972 1516 C 1977 1521 1977 1531 1977 1536 C 1977 1545 1972 1564 1972 1608 C 1977 1622 1972 1636 1972 1636 C 1972 1641 1972 1646 1972 1656 C 1977 1684 1987 1646 1987 1612 C 1987 1598 1982 1588 1982 1579 C 1992 1574 2001 1574 2006 1574 C 2016 1574 2020 1574 2030 1574 C 2020 1574 2016 1574 2006 1574 C 2001 1574 1992 1574 1987 1569 C 1987 1560 1987 1550 1987 1540 C 1987 1521 1987 1507 1992 1507 C 1996 1507 1996 1507 1992 1507 C 1987 1507 1987 1502 1987 1497 C 1987 1483 1977 1478 1972 1492 M 1084 1502 C 1094 1502 1108 1502 1118 1502 C 1128 1502 1123 1502 1104 1502 C 1080 1502 1075 1502 1084 1502 M 4348 1507 C 4363 1507 4387 1507 4401 1507 C 4416 1507 4401 1507 4377 1507 C 4348 1507 4334 1507 4348 1507 M 5308 1545 C 5304 1550 5304 1612 5308 1675 C 5308 1684 5308 1694 5308 1704 C 5308 1694 5308 1684 5313 1675 C 5313 1656 5313 1632 5313 1617 C 5313 1603 5313 1588 5313 1584 C 5318 1574 5318 1569 5313 1569 C 5313 1569 5313 1560 5313 1550 C 5313 1536 5313 1536 5308 1545 M 744 1574 C 768 1574 820 1579 816 1574 C 816 1574 796 1574 768 1569 C 734 1569 729 1569 744 1574 M 1123 1569 C 1137 1569 1152 1569 1166 1569 C 1176 1569 1166 1569 1147 1569 C 1123 1569 1113 1569 1123 1569 M 5827 1569 C 5827 1574 5827 1588 5827 1612 C 5832 1622 5832 1632 5832 1646 C 5832 1636 5836 1622 5836 1612 C 5841 1579 5836 1555 5827 1569 M 2822 1574 C 2860 1574 2923 1574 2961 1574 C 3000 1574 2966 1574 2889 1574 C 2812 1574 2784 1574 2822 1574 M 3283 1574 C 3321 1574 3384 1574 3422 1574 C 3460 1574 3427 1574 3355 1574 C 3278 1574 3244 1574 3283 1574 M 5025 1574 C 5025 1579 5030 1584 5044 1584 C 5054 1584 5059 1579 5059 1574 C 5059 1574 5049 1569 5040 1569 C 5030 1569 5025 1574 5025 1574 M 264 1641 C 292 1641 336 1641 360 1641 C 388 1641 364 1641 312 1641 C 259 1641 240 1641 264 1641 M 787 1641 C 820 1641 883 1641 916 1641 C 950 1641 921 1641 849 1641 C 777 1641 748 1641 787 1641 M 2808 1641 C 2836 1641 2880 1641 2904 1641 C 2932 1641 2908 1641 2856 1641 C 2803 1641 2784 1641 2808 1641 M 3384 1641 C 3408 1641 3451 1641 3475 1641 C 3504 1641 3480 1641 3427 1641 C 3379 1641 3355 1641 3384 1641 M 3854 1641 C 3868 1641 3902 1641 3916 1641 C 3936 1641 3921 1641 3888 1641 C 3849 1641 3835 1641 3854 1641 M 4358 1641 C 4368 1641 4382 1641 4392 1641 C 4401 1641 4396 1641 4377 1641 C 4353 1641 4348 1641 4358 1641 M 4627 1641 C 4617 1646 4608 1646 4598 1646 C 4612 1646 4622 1646 4636 1646 C 4660 1646 4670 1646 4670 1641 C 4670 1641 4665 1641 4660 1641 C 4660 1641 4641 1641 4627 1641 z" fill="black" /><!-- width=5846 height=1752 -->
</defs>
<use xlink:href="#gl14850" x="489" y="0" />
<use xlink:href="#gl14851" x="585" y="46" />
<use xlink:href="#gl5387" x="654" y="12" />
<use xlink:href="#gl13826" x="675" y="39" />
<use xlink:href="#gl14852" x="753" y="46" />
<use xlink:href="#gl14853" x="609" y="108" />
<use xlink:href="#gl14854" x="2337" y="161" />
<use xlink:href="#gl14855" x="2337" y="281" />
<use xlink:href="#gl14856" x="2347" y="252" />
<use xlink:href="#gl14857" x="4762" y="127" />
<use xlink:href="#gl15104" x="0" y="118" />
</svg>