<?xml version="1.0" standalone="no"?>
<!DOCTYPE svg PUBLIC "-//W3C/DTD SVG 1.1//EN" "http://www.w3.org/Graphics/SVG/1.1/DTD/svg11.dtd">
<svg width="552px" height="112px" viewBox="0 0 5524 1128" xmlns="http://www.w3.org/2000/svg" xmlns:xlink="http://www.w3.org/1999/xlink" version="1.1">
<defs>
<path id="gl14338" d="M 9 4 C 4 14 14 38 28 43 C 38 48 43 48 62 38 C 67 33 72 28 81 28 C 81 33 81 43 81 48 C 81 72 76 72 52 72 C 43 72 28 72 19 72 C 14 76 4 76 0 76 C 4 76 9 76 14 76 C 19 76 28 76 33 81 C 28 86 24 91 19 96 C 14 105 9 120 14 124 C 14 134 14 139 9 139 C 0 144 4 144 14 144 C 28 148 28 153 19 168 C 14 172 14 187 14 196 C 14 201 14 206 14 216 C 28 211 43 211 52 211 C 76 211 91 211 81 211 C 67 206 67 206 81 192 C 86 177 91 168 91 91 C 91 62 91 33 91 4 C 76 4 62 4 52 4 C 28 4 9 4 9 4 z" fill="black" /><!-- width=100 height=225 -->
<path id="gl14339" d="M 11 8 C 9 9 8 11 9 12 C 9 12 10 14 10 16 C 10 18 11 20 12 21 C 12 21 13 22 13 22 C 14 22 15 22 16 21 C 22 19 78 19 85 22 C 90 23 91 23 91 22 C 93 21 93 20 91 19 C 89 18 88 16 89 14 C 90 10 90 10 88 9 C 86 8 85 8 81 9 C 77 9 19 9 14 8 C 13 8 12 8 11 8 z" fill="black" /><!-- width=100 height=30 -->
<path id="gl14339" d="M 11 8 C 9 9 8 11 9 12 C 9 12 10 14 10 16 C 10 18 11 20 12 21 C 12 21 13 22 13 22 C 14 22 15 22 16 21 C 22 19 78 19 85 22 C 90 23 91 23 91 22 C 93 21 93 20 91 19 C 89 18 88 16 89 14 C 90 10 90 10 88 9 C 86 8 85 8 81 9 C 77 9 19 9 14 8 C 13 8 12 8 11 8 z" fill="black" /><!-- width=100 height=30 -->
<path id="gl14339" d="M 11 8 C 9 9 8 11 9 12 C 9 12 10 14 10 16 C 10 18 11 20 12 21 C 12 21 13 22 13 22 C 14 22 15 22 16 21 C 22 19 78 19 85 22 C 90 23 91 23 91 22 C 93 21 93 20 91 19 C 89 18 88 16 89 14 C 90 10 90 10 88 9 C 86 8 85 8 81 9 C 77 9 19 9 14 8 C 13 8 12 8 11 8 z" fill="black" /><!-- width=100 height=30 -->
<path id="gl14340" d="M 43 9 C 4 9 4 9 28 9 C 62 14 62 14 52 28 C 38 38 38 48 43 67 C 48 76 48 81 76 81 C 81 81 91 81 100 81 C 100 67 100 52 100 43 C 100 14 100 4 96 4 C 91 4 67 4 43 9 M 76 110 C 72 110 62 120 52 129 C 43 134 33 144 19 144 C 14 144 4 144 0 144 C 4 144 14 144 19 144 C 38 144 38 148 38 153 C 38 163 43 168 52 172 C 72 182 52 206 19 211 C 14 211 4 211 0 211 C 4 211 14 211 19 211 C 38 211 38 216 38 220 C 38 240 57 249 76 244 C 96 240 124 216 110 216 C 105 216 105 211 105 196 C 105 187 100 177 96 177 C 96 177 96 172 100 168 C 100 163 100 148 100 134 C 100 110 96 105 76 110 z" fill="black" /><!-- width=134 height=259 -->
<path id="gl14341" d="M 4 110 C 4 144 4 177 4 216 C 24 216 48 216 72 216 C 91 216 115 216 139 216 C 134 177 134 144 134 110 C 134 76 134 38 134 4 C 115 4 91 4 72 4 C 48 4 24 4 4 4 C 4 38 4 76 4 110 M 134 43 C 134 52 134 62 134 76 C 115 76 96 76 76 76 C 57 76 38 76 19 76 C 19 62 19 52 19 43 C 19 33 19 24 19 14 C 38 14 57 14 76 14 C 96 14 115 14 134 14 C 134 24 134 33 134 43 M 134 110 C 134 120 134 129 134 139 C 115 139 96 139 76 139 C 57 139 38 139 19 139 C 19 129 19 120 19 110 C 19 100 19 91 19 81 C 38 81 57 81 76 81 C 96 81 115 81 134 81 C 134 91 134 100 134 110 M 134 177 C 134 187 134 196 134 206 C 115 206 96 206 76 206 C 57 206 38 206 19 206 C 19 196 19 187 19 177 C 19 168 19 158 19 144 C 38 144 57 144 76 144 C 96 144 115 144 134 144 C 134 158 134 168 134 177 z" fill="black" /><!-- width=148 height=225 -->
<path id="gl14342" d="M 4 9 C 4 14 9 19 43 19 C 81 19 86 14 86 9 C 81 4 72 0 43 0 C 19 0 9 4 4 9 z" fill="black" /><!-- width=96 height=24 -->
<path id="gl14343" d="M 33 9 C 28 14 19 19 19 28 C 9 48 4 72 4 76 C 9 81 9 86 9 91 C 9 96 14 100 14 100 C 19 105 19 100 19 91 C 19 86 19 81 19 72 C 33 72 48 72 62 72 C 91 72 100 72 100 72 C 100 67 91 62 81 62 C 67 62 67 62 76 57 C 105 24 76 -10 33 9 M 76 19 C 76 24 76 28 76 33 C 72 43 48 57 33 57 C 19 57 19 52 33 33 C 57 14 81 4 76 19 z" fill="black" /><!-- width=110 height=110 -->
<path id="gl14344" d="M 14 9 C 14 14 9 19 4 19 C 4 19 4 19 4 24 C 4 24 19 28 38 28 C 72 28 86 19 67 14 C 62 14 62 14 67 14 C 72 14 72 9 72 4 C 72 4 62 0 43 0 C 19 0 14 4 14 9 M 38 62 C 9 76 4 91 9 105 C 14 110 24 120 28 120 C 33 120 38 124 43 124 C 33 129 28 134 24 139 C 0 163 9 196 43 187 C 62 182 86 158 81 158 C 76 153 72 148 72 144 C 72 129 72 129 62 124 C 62 124 57 124 52 120 C 57 120 62 115 62 115 C 81 100 76 57 62 57 C 52 57 43 57 38 62 z" fill="black" /><!-- width=91 height=201 -->
<path id="gl14345" d="M 4 76 C 4 139 4 153 9 158 C 19 158 24 153 19 148 C 9 144 9 96 19 91 C 24 91 24 86 19 86 C 9 81 9 28 19 24 C 24 24 14 0 4 0 C 4 0 4 38 4 76 z" fill="black" /><!-- width=28 height=168 -->
<path id="gl14592" d="M 364 38 C 364 67 350 76 345 52 C 345 43 345 33 345 28 C 340 24 340 28 340 48 C 340 62 336 76 331 76 C 331 76 331 81 331 86 C 331 96 331 105 331 105 C 336 105 340 115 340 124 C 340 134 336 144 331 144 C 331 144 331 153 331 163 C 331 177 331 187 331 187 C 336 187 340 192 340 196 C 340 206 340 216 345 216 C 345 216 345 206 345 196 C 345 187 350 187 360 187 C 364 187 364 187 369 196 C 369 206 369 206 374 196 C 379 187 379 182 374 177 C 369 172 374 153 384 153 C 388 153 388 129 379 129 C 369 124 369 91 379 81 C 388 76 388 62 379 57 C 374 52 369 43 369 33 C 369 14 369 14 364 38 M 364 110 C 364 120 364 129 364 134 C 364 134 360 139 355 139 C 350 139 350 129 350 115 C 350 96 350 96 360 96 C 364 96 364 96 364 110 M 1953 62 C 1953 91 1948 105 1944 110 C 1939 110 1939 110 1944 110 C 1948 110 1948 124 1948 144 C 1948 153 1948 163 1948 172 C 1920 172 1886 172 1857 172 C 1824 172 1790 172 1761 172 C 1761 158 1761 144 1761 124 C 1761 100 1756 76 1756 76 C 1756 72 1756 81 1756 91 C 1756 100 1752 110 1747 110 C 1742 115 1742 120 1747 120 C 1752 120 1756 129 1756 144 C 1756 153 1756 163 1756 172 C 1742 177 1732 177 1723 177 C 1699 177 1689 177 1699 182 C 1704 187 1704 187 1694 201 C 1684 211 1680 220 1684 230 C 1684 235 1689 244 1689 249 C 1689 249 1699 254 1713 249 C 1756 249 1756 249 1752 268 C 1752 283 1752 283 1732 283 C 1718 278 1713 283 1699 297 C 1689 307 1675 312 1670 316 C 1660 316 1660 316 1670 316 C 1680 316 1684 321 1684 331 C 1684 336 1689 345 1694 345 C 1708 350 1708 355 1694 369 C 1665 393 1694 427 1728 412 C 1756 403 1761 388 1761 312 C 1761 273 1761 249 1766 249 C 1766 249 1771 249 1771 249 C 1771 244 1766 240 1761 240 C 1761 240 1756 230 1756 211 C 1756 201 1756 192 1756 177 C 1790 177 1824 177 1857 177 C 1886 177 1920 177 1948 177 C 1948 187 1948 192 1948 196 C 1948 211 1948 216 1934 216 C 1920 216 1910 216 1896 230 C 1891 235 1881 240 1876 240 C 1872 240 1876 244 1876 249 C 1881 249 1881 259 1881 264 C 1881 283 1924 288 1939 268 C 1944 268 1948 264 1948 259 C 1948 268 1948 278 1948 283 C 1948 292 1948 302 1948 307 C 1939 312 1929 312 1920 312 C 1896 312 1886 312 1896 316 C 1900 321 1900 321 1891 331 C 1881 350 1881 384 1896 384 C 1900 388 1900 388 1891 403 C 1867 441 1905 465 1944 436 C 1948 432 1953 427 1958 422 C 1958 393 1958 364 1958 340 C 1958 297 1958 254 1958 254 C 1958 249 1972 244 2006 244 C 2025 244 2040 244 2054 244 C 2040 244 2020 244 2006 244 C 1992 240 1977 240 1958 240 C 1958 230 1958 220 1958 211 C 1958 201 1958 192 1958 182 C 1977 182 1996 182 2016 182 C 2035 182 2054 182 2078 177 C 2078 201 2078 225 2078 249 C 2078 340 2078 384 2083 384 C 2083 379 2088 364 2088 345 C 2083 316 2083 316 2097 312 C 2102 312 2107 312 2112 312 C 2107 312 2102 312 2097 312 C 2092 312 2088 312 2083 307 C 2088 288 2088 264 2088 244 C 2088 206 2083 172 2083 168 C 2073 148 2083 115 2097 110 C 2107 110 2107 110 2092 110 C 2088 110 2083 110 2078 110 C 2078 120 2078 129 2078 139 C 2078 153 2078 163 2078 172 C 2054 172 2035 172 2016 172 C 1996 172 1977 172 1958 172 C 1958 168 1958 158 1958 148 C 1958 134 1958 115 1963 115 C 1968 110 1968 110 1963 110 C 1958 110 1953 91 1953 62 C 1953 43 1953 28 1953 14 C 1953 28 1953 43 1953 62 M 4372 62 C 4372 76 4372 91 4372 110 C 4339 105 4305 105 4272 105 C 4243 105 4209 105 4176 105 C 4176 100 4176 91 4176 86 C 4176 81 4171 76 4171 67 C 4166 72 4161 72 4152 72 C 4147 72 4142 72 4137 76 C 4137 67 4137 57 4137 48 C 4137 33 4132 24 4128 24 C 4128 24 4123 43 4123 67 C 4123 81 4123 96 4123 110 C 4108 110 4094 110 4080 110 C 4051 110 4041 110 4046 115 C 4060 120 4065 163 4051 172 C 4051 177 4051 177 4051 182 C 4056 182 4056 196 4056 211 C 4056 225 4056 240 4051 240 C 4051 244 4051 244 4051 249 C 4060 254 4060 302 4051 307 C 4041 312 4041 312 4051 316 C 4056 316 4056 326 4056 345 C 4056 355 4056 364 4056 374 C 4056 374 4051 374 4041 374 C 4036 374 4036 374 4032 374 C 4032 364 4032 355 4032 345 C 4032 326 4032 312 4036 312 C 4041 312 4041 312 4036 312 C 4027 307 4027 249 4036 244 C 4046 244 4046 244 4036 244 C 4032 244 4032 235 4032 172 C 4032 153 4032 129 4032 110 C 3931 110 3835 110 3734 110 C 3633 110 3537 110 3436 110 C 3532 110 3633 110 3729 110 C 3825 115 3926 115 4022 115 C 4022 124 4022 134 4022 139 C 4027 163 4022 168 4017 172 C 4012 177 4012 177 4017 182 C 4027 187 4027 230 4017 240 C 4012 244 4012 249 4017 249 C 4022 249 4022 259 4022 278 C 4022 288 4022 297 4022 307 C 3988 307 3950 307 3916 307 C 3883 307 3844 307 3811 307 C 3811 297 3811 288 3811 278 C 3811 268 3811 259 3811 249 C 3844 244 3878 244 3912 244 C 3945 244 3979 244 4012 244 C 3979 244 3945 244 3912 244 C 3878 244 3844 244 3811 240 C 3811 230 3811 220 3811 211 C 3811 201 3811 192 3811 182 C 3840 177 3873 177 3907 177 C 3964 177 3902 177 3777 177 C 3604 177 3580 177 3676 177 C 3715 182 3758 182 3801 182 C 3801 192 3801 201 3801 211 C 3801 220 3801 230 3806 240 C 3739 244 3676 244 3614 244 C 3552 244 3484 244 3422 244 C 3484 244 3547 244 3614 244 C 3676 244 3739 244 3801 249 C 3801 259 3801 268 3801 278 C 3801 288 3801 297 3801 307 C 3734 312 3662 312 3595 312 C 3523 312 3456 312 3384 312 C 3456 312 3523 312 3595 312 C 3662 312 3734 312 3801 316 C 3801 326 3801 336 3801 345 C 3801 355 3801 364 3801 374 C 3758 379 3715 379 3672 379 C 3628 379 3580 379 3537 379 C 3576 379 3609 379 3648 379 C 3758 384 3763 384 3748 398 C 3734 408 3729 427 3739 432 C 3739 432 3744 432 3744 422 C 3753 398 3796 379 3796 398 C 3796 412 3782 427 3763 436 C 3748 441 3744 441 3753 446 C 3777 456 3806 432 3806 403 C 3811 398 3811 388 3811 384 C 3868 384 3926 384 3984 379 C 4084 379 4137 379 4113 379 C 4094 379 4080 379 4065 374 C 4065 364 4065 355 4065 345 C 4065 326 4065 312 4070 312 C 4075 312 4075 312 4070 312 C 4065 312 4065 297 4065 278 C 4065 268 4065 259 4065 249 C 4084 244 4108 244 4132 244 C 4156 244 4176 244 4200 244 C 4176 244 4156 244 4132 244 C 4108 244 4084 244 4065 240 C 4065 230 4065 220 4065 211 C 4065 192 4065 177 4070 177 C 4075 177 4075 177 4070 177 C 4065 177 4065 163 4065 144 C 4065 134 4065 124 4065 110 C 4075 110 4084 110 4094 110 C 4104 110 4113 110 4123 110 C 4123 120 4123 124 4123 134 C 4123 139 4123 144 4123 153 C 4132 153 4137 148 4142 148 C 4152 148 4156 148 4161 144 C 4161 153 4161 163 4161 172 C 4161 182 4166 196 4166 201 C 4171 206 4171 201 4171 192 C 4171 187 4176 177 4180 177 C 4185 177 4185 177 4180 177 C 4176 177 4171 163 4171 144 C 4171 134 4171 124 4171 110 C 4180 110 4185 110 4190 110 C 4195 110 4200 110 4209 110 C 4204 120 4204 129 4204 139 C 4204 153 4204 168 4204 168 C 4200 172 4200 177 4204 182 C 4204 187 4209 201 4204 220 C 4204 230 4204 240 4204 254 C 4209 254 4214 249 4224 249 C 4228 249 4238 249 4243 249 C 4243 259 4243 268 4248 278 C 4248 288 4248 297 4248 307 C 4248 297 4248 292 4248 283 C 4248 268 4252 254 4257 249 C 4262 244 4262 244 4257 240 C 4248 235 4248 187 4257 182 C 4262 177 4252 168 4238 172 C 4219 177 4214 172 4214 139 C 4214 129 4209 120 4209 110 C 4224 110 4233 110 4248 110 C 4257 110 4272 110 4286 110 C 4286 120 4286 129 4286 139 C 4286 153 4281 172 4276 172 C 4272 177 4272 177 4276 177 C 4286 177 4286 240 4276 244 C 4267 244 4267 244 4276 244 C 4281 244 4286 249 4286 268 C 4286 278 4286 288 4286 288 C 4291 288 4320 273 4334 259 C 4344 249 4348 244 4401 249 C 4420 249 4440 249 4459 249 C 4459 259 4459 268 4459 278 C 4459 288 4459 297 4459 307 C 4425 307 4396 307 4363 312 C 4329 312 4300 312 4267 312 C 4300 312 4329 312 4363 312 C 4440 312 4459 316 4459 321 C 4464 326 4464 326 4468 321 C 4478 316 4492 316 4579 316 C 4612 316 4646 316 4684 316 C 4689 321 4694 326 4699 331 C 4718 350 4732 355 4718 336 C 4704 316 4704 316 4790 316 C 4819 316 4848 316 4872 316 C 4872 326 4872 336 4872 345 C 4872 355 4872 364 4872 374 C 4761 379 4646 379 4531 379 C 4416 379 4305 379 4190 379 C 4305 379 4416 379 4531 379 C 4646 379 4761 379 4872 384 C 4876 398 4876 412 4876 432 C 4876 446 4876 465 4876 480 C 4876 465 4876 446 4876 432 C 4881 417 4881 398 4881 384 C 4905 384 4934 384 4958 379 C 4987 379 5011 379 5040 379 C 5011 379 4987 379 4958 374 C 4934 374 4905 374 4881 374 C 4881 369 4881 364 4881 360 C 4881 345 4881 345 4900 345 C 4920 345 4924 340 4939 331 C 4953 316 4953 316 5011 312 C 5025 312 5044 312 5064 312 C 5044 312 5030 312 5011 312 C 4992 312 4972 312 4958 307 C 4953 307 4953 302 4948 297 C 4944 288 4939 278 4934 278 C 4929 278 4929 273 4939 264 C 4948 249 4948 249 5006 244 C 5025 244 5044 244 5064 244 C 5044 244 5025 244 5011 244 C 4958 240 4958 240 4948 230 C 4939 206 4900 206 4891 220 C 4886 235 4876 225 4881 206 C 4881 196 4881 192 4881 182 C 4910 182 4934 182 4963 177 C 5035 177 5040 177 4992 177 C 4929 172 4929 172 4944 153 C 4948 144 4953 139 4948 129 C 4948 124 4948 120 4948 110 C 4953 110 4963 110 4972 110 C 4987 110 4862 110 4694 110 C 4588 105 4483 105 4382 105 C 4382 91 4382 76 4382 62 C 4377 0 4372 4 4372 62 M 4161 100 C 4161 100 4161 105 4156 105 C 4147 110 4132 105 4137 100 C 4142 91 4161 91 4161 100 M 4161 115 C 4161 124 4142 129 4137 124 C 4137 124 4137 120 4137 120 C 4142 110 4161 110 4161 115 M 4372 144 C 4372 153 4372 163 4372 172 C 4358 172 4344 172 4329 172 C 4320 172 4305 172 4291 172 C 4291 163 4291 153 4291 144 C 4291 134 4291 124 4291 110 C 4305 110 4320 110 4329 110 C 4344 110 4358 110 4372 110 C 4372 124 4372 134 4372 144 M 4891 115 C 4891 120 4891 124 4886 129 C 4881 134 4876 144 4876 153 C 4872 163 4872 168 4872 172 C 4848 172 4828 172 4804 172 C 4785 172 4761 177 4737 177 C 4732 168 4728 163 4723 158 C 4713 148 4704 144 4704 144 C 4699 144 4704 148 4704 153 C 4708 153 4713 163 4713 168 C 4713 172 4704 177 4588 172 C 4550 172 4507 172 4468 172 C 4468 168 4468 163 4468 163 C 4464 148 4459 153 4459 168 C 4459 172 4454 172 4430 172 C 4406 172 4406 172 4420 158 C 4425 148 4430 139 4430 129 C 4430 124 4430 120 4430 110 C 4507 110 4584 110 4660 110 C 4790 110 4891 115 4891 115 M 4411 134 C 4411 144 4387 177 4382 172 C 4372 163 4382 124 4392 124 C 4406 120 4411 120 4411 134 M 4372 187 C 4372 187 4372 187 4377 187 C 4382 187 4382 187 4382 187 C 4382 182 4401 177 4420 177 C 4459 177 4464 182 4459 220 C 4459 225 4459 235 4459 240 C 4440 240 4420 240 4401 240 C 4382 240 4368 240 4348 244 C 4348 240 4344 235 4344 230 C 4339 216 4324 206 4310 211 C 4291 220 4291 220 4291 196 C 4291 192 4291 187 4291 177 C 4305 177 4320 177 4329 177 C 4353 177 4372 182 4372 187 M 4718 187 C 4718 187 4708 201 4704 211 C 4699 220 4694 230 4694 235 C 4694 240 4680 240 4584 240 C 4545 240 4507 240 4473 240 C 4473 240 4468 235 4468 230 C 4464 216 4464 187 4468 182 C 4478 177 4718 177 4718 187 M 4872 211 C 4872 220 4872 230 4872 240 C 4848 240 4824 240 4804 240 C 4728 244 4723 240 4747 216 C 4756 201 4756 192 4747 187 C 4742 182 4756 177 4809 182 C 4828 182 4852 182 4872 182 C 4872 192 4872 201 4872 211 M 4243 206 C 4243 220 4228 230 4219 225 C 4209 220 4214 201 4224 196 C 4238 187 4243 192 4243 206 M 4320 225 C 4320 230 4320 235 4320 240 C 4315 244 4315 244 4315 249 C 4320 249 4305 273 4296 273 C 4296 273 4291 268 4291 264 C 4291 249 4296 249 4300 249 C 4310 249 4310 244 4300 240 C 4291 235 4291 230 4296 225 C 4305 216 4315 216 4320 225 M 4713 264 C 4728 283 4728 288 4718 283 C 4699 283 4689 288 4684 297 C 4684 302 4684 307 4680 307 C 4651 307 4617 307 4588 307 C 4536 307 4497 307 4497 307 C 4497 307 4502 297 4507 288 C 4516 278 4521 268 4516 259 C 4516 254 4516 249 4516 249 C 4545 249 4579 249 4608 249 C 4636 249 4670 249 4699 249 C 4704 254 4708 259 4713 264 M 4872 273 C 4872 297 4872 302 4867 307 C 4852 312 4732 312 4732 302 C 4732 302 4732 302 4737 302 C 4752 302 4752 292 4737 278 C 4713 249 4718 249 4804 249 C 4828 249 4852 249 4872 249 C 4872 254 4872 264 4872 273 M 4492 254 C 4507 259 4488 307 4473 307 C 4464 307 4464 268 4473 259 C 4483 249 4483 249 4492 254 M 4022 345 C 4022 355 4022 364 4022 374 C 3988 374 3950 374 3916 374 C 3878 374 3844 374 3811 379 C 3811 369 3811 360 3811 350 C 3811 331 3811 321 3811 316 C 3816 316 3864 316 3916 316 C 3955 316 3988 316 4022 316 C 4022 326 4022 336 4022 345 M 5136 62 C 5136 76 5136 91 5136 105 C 5121 105 5102 105 5088 110 C 5068 110 5054 110 5035 110 C 5054 110 5068 110 5088 110 C 5102 110 5121 110 5140 110 C 5140 120 5140 124 5140 129 C 5140 144 5136 144 5121 144 C 5102 144 5097 148 5088 158 C 5083 163 5078 168 5073 172 C 5088 172 5097 172 5112 172 C 5121 172 5136 172 5145 172 C 5145 163 5145 153 5145 139 C 5145 129 5145 120 5145 110 C 5179 110 5212 110 5241 110 C 5275 110 5304 110 5332 110 C 5332 120 5332 129 5332 139 C 5332 158 5337 172 5342 172 C 5342 172 5347 158 5347 139 C 5347 129 5347 120 5347 110 C 5361 110 5380 110 5400 110 C 5419 110 5438 110 5457 110 C 5462 124 5462 134 5462 144 C 5462 153 5462 163 5462 172 C 5462 163 5462 153 5462 139 C 5462 129 5462 120 5467 110 C 5443 110 5424 110 5404 110 C 5371 110 5342 105 5342 105 C 5342 105 5342 91 5342 76 C 5337 33 5332 33 5332 72 C 5332 86 5332 96 5332 105 C 5304 105 5275 105 5241 105 C 5212 105 5179 105 5150 105 C 5150 91 5150 76 5150 67 C 5145 9 5140 4 5136 62 M 1555 67 C 1555 81 1555 96 1555 110 C 1540 115 1526 115 1512 115 C 1502 115 1488 115 1473 115 C 1488 115 1502 115 1512 115 C 1526 115 1540 115 1555 120 C 1555 124 1555 129 1555 134 C 1555 148 1550 148 1531 148 C 1492 148 1468 187 1492 206 C 1502 216 1526 216 1536 206 C 1550 196 1555 196 1555 220 C 1555 235 1550 244 1550 244 C 1540 244 1483 249 1492 249 C 1497 249 1502 249 1507 254 C 1502 259 1497 264 1492 268 C 1488 273 1483 288 1488 292 C 1488 302 1488 312 1483 312 C 1483 316 1483 316 1492 316 C 1497 316 1502 316 1507 316 C 1502 321 1497 326 1497 331 C 1492 340 1488 355 1483 364 C 1483 374 1483 379 1483 384 C 1492 384 1507 384 1516 384 C 1540 384 1550 384 1550 384 C 1540 379 1540 374 1550 360 C 1555 355 1560 340 1560 302 C 1560 254 1560 249 1569 249 C 1579 249 1579 249 1569 244 C 1560 240 1560 235 1560 177 C 1560 139 1560 120 1564 120 C 1564 120 1564 115 1564 110 C 1560 105 1555 86 1555 62 C 1555 48 1555 33 1555 19 C 1555 33 1555 48 1555 67 M 177 28 C 168 33 148 76 148 96 C 144 110 144 110 134 115 C 124 115 124 115 134 115 C 144 115 144 120 148 144 C 158 182 158 177 81 177 C 57 177 33 177 9 177 C 9 168 9 158 9 148 C 9 139 9 129 9 120 C 28 115 48 115 67 115 C 86 115 105 115 124 115 C 105 115 86 115 67 115 C 48 115 28 115 4 110 C 9 192 9 273 9 355 C 9 523 9 566 9 494 C 14 456 14 422 14 388 C 43 388 76 388 105 388 C 196 388 201 388 206 408 C 206 412 206 412 206 403 C 206 388 206 388 220 388 C 225 388 230 384 230 379 C 230 379 230 374 240 364 C 244 360 254 350 254 340 C 254 331 259 321 264 321 C 264 321 264 312 259 307 C 254 297 249 288 249 288 C 249 283 244 273 240 268 C 235 264 230 254 230 254 C 230 249 220 244 206 244 C 196 244 187 244 177 244 C 177 240 172 230 172 225 C 168 206 168 206 182 196 C 192 187 201 172 206 153 C 211 139 220 120 220 120 C 225 115 225 115 225 110 C 220 110 216 100 216 86 C 206 43 192 24 177 28 M 196 67 C 206 81 206 110 201 110 C 196 110 196 115 196 120 C 196 124 192 134 182 148 C 172 153 168 163 163 168 C 158 158 158 153 158 144 C 153 129 158 120 158 120 C 163 120 163 115 163 110 C 158 96 177 62 187 62 C 192 62 196 62 196 67 M 139 187 C 139 192 134 196 129 201 C 124 201 115 216 105 225 C 100 235 96 240 91 249 C 81 249 67 249 52 249 C 38 249 24 249 9 249 C 9 235 9 225 9 216 C 9 206 9 196 9 187 C 33 187 52 187 72 187 C 110 187 139 187 139 187 M 168 225 C 172 240 172 249 153 249 C 134 249 134 244 148 230 C 158 216 163 216 168 225 M 86 264 C 81 264 81 278 81 292 C 81 297 76 307 76 316 C 67 316 57 316 43 316 C 33 316 24 316 9 316 C 9 302 9 292 9 283 C 9 273 9 264 9 249 C 24 254 38 254 48 254 C 81 254 86 254 86 264 M 153 254 C 153 259 148 264 144 268 C 139 273 129 288 129 297 C 124 316 105 321 105 307 C 105 292 115 268 124 259 C 129 249 153 249 153 254 M 177 278 C 177 283 182 292 182 302 C 182 312 187 331 187 340 C 196 379 196 384 172 384 C 144 384 105 350 105 326 C 105 316 124 316 129 331 C 134 331 134 336 134 340 C 134 336 134 331 134 331 C 134 321 139 316 148 316 C 153 316 158 316 148 316 C 139 312 139 302 153 288 C 163 273 172 273 177 278 M 220 288 C 230 292 235 302 235 307 C 235 312 235 321 240 321 C 249 336 220 374 206 369 C 196 364 192 326 201 316 C 206 316 206 316 196 316 C 192 316 187 302 187 283 C 187 273 201 273 220 288 M 86 336 C 91 345 100 355 110 364 C 115 369 120 374 124 384 C 105 384 86 384 67 384 C 48 384 28 384 9 384 C 9 369 9 360 9 350 C 9 340 9 331 9 316 C 24 316 33 316 43 316 C 76 316 76 321 86 336 M 801 62 C 801 86 801 91 801 81 C 801 72 801 57 801 48 C 801 38 801 43 801 62 M 2251 86 C 2251 100 2251 139 2251 177 C 2251 196 2251 220 2256 240 C 2241 240 2232 240 2222 240 C 2198 240 2193 244 2198 249 C 2203 254 2203 254 2203 254 C 2188 254 2174 312 2188 316 C 2193 316 2208 316 2222 316 C 2232 316 2241 316 2251 316 C 2251 321 2251 326 2251 331 C 2251 350 2251 350 2232 350 C 2208 345 2174 374 2184 398 C 2184 403 2193 412 2198 412 C 2208 417 2208 422 2188 436 C 2164 460 2198 494 2232 475 C 2260 460 2260 456 2260 384 C 2256 321 2260 316 2265 312 C 2275 312 2275 312 2265 312 C 2256 307 2256 249 2265 244 C 2270 244 2270 244 2265 244 C 2260 240 2260 216 2260 153 C 2260 105 2256 67 2256 67 C 2256 62 2251 72 2251 86 M 2433 129 C 2433 158 2433 201 2433 230 C 2433 249 2433 264 2433 283 C 2428 283 2424 283 2414 283 C 2400 283 2390 288 2380 297 C 2371 302 2361 307 2361 307 C 2356 307 2352 312 2352 316 C 2352 316 2356 316 2356 316 C 2361 316 2366 326 2371 331 C 2376 350 2400 350 2419 340 C 2433 331 2438 331 2438 355 C 2438 364 2438 369 2438 374 C 2428 379 2424 379 2419 379 C 2404 379 2376 384 2385 384 C 2385 384 2385 393 2380 398 C 2366 417 2366 446 2380 451 C 2385 456 2385 456 2376 465 C 2371 475 2371 484 2371 489 C 2371 532 2438 518 2443 475 C 2443 465 2448 456 2448 456 C 2452 451 2452 451 2448 446 C 2438 436 2438 393 2448 388 C 2452 384 2452 384 2452 379 C 2448 379 2443 345 2443 316 C 2443 312 2443 297 2443 283 C 2438 264 2443 254 2443 249 C 2448 244 2448 240 2448 240 C 2443 240 2443 216 2443 163 C 2443 124 2438 86 2438 86 C 2438 81 2433 105 2433 129 M 792 110 C 792 110 753 115 681 115 C 643 115 604 115 566 115 C 604 115 643 115 681 115 C 720 120 758 120 796 120 C 796 129 796 134 796 144 C 792 177 792 177 772 177 C 748 177 748 172 772 163 C 787 158 787 153 782 148 C 772 144 744 158 734 168 C 729 177 724 182 638 182 C 604 182 571 182 542 182 C 571 182 604 182 633 182 C 724 187 724 187 729 196 C 729 196 734 201 734 206 C 734 201 734 196 739 196 C 739 187 744 187 758 187 C 787 187 787 192 758 201 C 753 206 744 211 739 211 C 744 211 748 211 758 211 C 768 211 777 211 782 206 C 796 196 801 196 796 220 C 796 230 796 235 796 244 C 787 244 772 244 758 249 C 739 249 729 249 739 249 C 744 249 748 249 748 249 C 748 259 744 264 739 268 C 729 283 729 292 729 302 C 729 307 729 307 734 312 C 720 316 705 316 696 316 C 657 316 657 316 705 316 C 748 316 753 321 744 326 C 729 345 724 355 729 369 C 734 374 734 379 734 379 C 720 384 700 384 686 384 C 657 384 720 384 820 384 C 921 384 960 384 897 384 C 835 384 787 379 787 379 C 787 379 787 369 792 364 C 801 355 806 345 806 336 C 806 331 806 326 806 321 C 840 316 873 316 907 316 C 940 316 974 316 1008 316 C 974 316 940 316 907 316 C 873 316 840 316 806 316 C 806 302 806 292 806 283 C 806 273 806 264 806 254 C 830 249 859 249 888 249 C 912 249 940 249 969 249 C 940 249 912 249 888 249 C 859 249 830 249 806 249 C 806 235 806 225 806 216 C 806 206 806 196 806 187 C 825 182 844 182 868 182 C 888 182 912 182 931 182 C 912 182 888 182 868 182 C 844 182 825 182 806 177 C 806 168 806 158 806 148 C 806 139 806 129 806 120 C 830 115 859 115 888 115 C 912 115 940 115 969 115 C 940 115 912 115 888 115 C 835 115 806 110 806 110 C 806 105 801 105 801 105 C 796 105 792 105 792 110 M 792 264 C 792 283 763 307 744 307 C 734 307 734 292 748 278 C 772 259 792 249 792 264 M 792 336 C 792 345 763 374 748 374 C 724 374 734 350 768 336 C 787 321 792 321 792 336 M 2616 115 C 2620 115 2625 134 2625 148 C 2625 158 2625 168 2625 172 C 2616 177 2606 177 2601 177 C 2592 177 2587 177 2577 177 C 2587 177 2592 177 2596 177 C 2606 182 2611 182 2620 182 C 2620 201 2620 225 2620 244 C 2620 268 2620 288 2620 307 C 2611 307 2601 307 2592 307 C 2572 307 2563 312 2568 316 C 2572 321 2572 326 2563 336 C 2544 360 2544 364 2587 364 C 2601 364 2616 364 2625 364 C 2625 355 2630 345 2630 340 C 2630 326 2630 316 2635 316 C 2640 316 2644 316 2644 316 C 2644 312 2640 307 2635 307 C 2625 307 2625 187 2635 177 C 2640 177 2640 177 2635 177 C 2630 177 2625 168 2625 144 C 2625 124 2630 115 2630 115 C 2635 115 2640 115 2640 115 C 2640 110 2630 110 2625 110 C 2616 110 2611 110 2616 115 M 2812 110 C 2851 115 2889 115 2928 115 C 2928 124 2928 134 2928 144 C 2928 153 2928 163 2932 172 C 2913 172 2894 172 2875 172 C 2856 172 2836 172 2817 172 C 2812 168 2812 163 2812 158 C 2812 153 2812 148 2812 144 C 2812 148 2812 153 2812 158 C 2812 163 2812 168 2812 172 C 2784 177 2755 177 2726 177 C 2697 177 2668 177 2640 177 C 2668 177 2697 177 2726 177 C 2755 177 2784 177 2812 177 C 2812 192 2812 201 2812 211 C 2812 220 2812 230 2812 240 C 2784 244 2755 244 2731 244 C 2702 244 2678 244 2649 244 C 2678 244 2702 244 2731 244 C 2755 244 2784 244 2812 249 C 2812 259 2812 268 2812 278 C 2812 288 2812 297 2812 307 C 2784 312 2755 312 2726 312 C 2697 312 2673 312 2644 312 C 2673 312 2697 312 2726 312 C 2755 312 2784 312 2812 316 C 2812 321 2812 326 2812 331 C 2812 345 2808 350 2793 350 C 2779 350 2769 350 2755 364 C 2740 374 2736 379 2692 379 C 2678 379 2664 379 2649 379 C 2664 379 2678 379 2692 379 C 2731 384 2736 384 2745 398 C 2755 417 2779 422 2793 408 C 2808 398 2812 398 2812 422 C 2812 427 2812 436 2812 441 C 2798 446 2784 446 2769 446 C 2745 446 2736 446 2745 446 C 2764 451 2764 451 2750 465 C 2745 470 2740 484 2740 494 C 2740 504 2740 508 2736 513 C 2731 513 2736 513 2745 513 C 2760 518 2764 523 2755 532 C 2740 547 2736 561 2745 571 C 2769 595 2812 571 2812 537 C 2812 528 2817 518 2822 518 C 2832 513 2832 513 2822 513 C 2817 513 2812 508 2812 484 C 2812 460 2817 451 2822 451 C 2832 446 2832 446 2822 446 C 2817 446 2812 441 2812 417 C 2812 393 2817 384 2822 384 C 2832 379 2832 379 2822 379 C 2817 379 2812 374 2812 345 C 2812 336 2812 326 2812 316 C 2832 316 2851 316 2875 316 C 2894 316 2913 316 2932 316 C 2932 326 2932 336 2932 345 C 2932 355 2932 364 2932 374 C 2913 374 2899 374 2880 374 C 2856 374 2832 379 2836 379 C 2841 384 2937 384 2942 379 C 2947 379 2942 374 2942 374 C 2932 374 2932 331 2937 321 C 2942 316 2966 316 3052 316 C 3091 316 3124 316 3163 316 C 3163 326 3163 336 3163 345 C 3163 355 3168 364 3168 374 C 3153 379 3139 379 3129 379 C 3105 379 3096 379 3100 379 C 3115 384 3115 393 3105 398 C 3100 403 3091 427 3096 432 C 3100 432 3105 432 3105 427 C 3110 412 3139 393 3153 393 C 3172 393 3148 432 3120 436 C 3105 441 3105 441 3115 446 C 3139 456 3168 432 3168 398 C 3168 388 3172 379 3177 379 C 3182 379 3182 379 3177 379 C 3172 379 3168 369 3168 345 C 3168 326 3172 312 3177 312 C 3182 312 3182 312 3177 312 C 3172 312 3168 297 3168 278 C 3168 254 3172 244 3177 244 C 3182 244 3182 244 3177 244 C 3172 240 3168 230 3172 206 C 3172 177 3172 172 3163 172 C 3148 172 3148 177 3158 182 C 3163 187 3168 192 3163 216 C 3163 240 3163 240 3148 244 C 3139 244 3134 244 3129 244 C 3134 244 3139 244 3148 249 C 3153 249 3158 249 3163 249 C 3163 259 3163 268 3163 278 C 3163 288 3168 297 3168 312 C 3129 307 3091 307 3052 307 C 3014 307 2976 307 2937 307 C 2937 297 2937 288 2937 278 C 2937 268 2932 259 2932 249 C 2966 244 2995 244 3028 244 C 3057 244 3091 244 3120 244 C 3091 244 3057 244 3028 244 C 2995 244 2966 244 2932 240 C 2932 230 2932 220 2932 211 C 2932 201 2932 192 2932 182 C 2966 177 3000 177 3028 177 C 3062 177 3091 177 3124 177 C 3091 177 3062 177 3028 177 C 3000 177 2966 177 2932 172 C 2932 163 2932 153 2932 144 C 2932 129 2937 115 2937 115 C 2937 115 2980 115 3033 115 C 3096 110 3057 110 2908 110 C 2745 110 2721 110 2812 110 M 2932 211 C 2932 220 2932 230 2932 240 C 2913 240 2894 240 2875 240 C 2851 240 2832 240 2812 240 C 2812 230 2812 220 2812 211 C 2812 201 2812 192 2812 177 C 2832 177 2851 177 2875 177 C 2894 177 2913 177 2932 177 C 2932 192 2932 201 2932 211 M 2932 278 C 2932 288 2932 297 2932 307 C 2913 307 2894 307 2875 307 C 2851 307 2832 307 2812 307 C 2812 297 2812 288 2812 278 C 2812 268 2812 259 2812 249 C 2832 249 2851 249 2875 249 C 2894 249 2913 249 2932 249 C 2932 259 2932 268 2932 278 M 451 139 C 451 158 451 163 441 163 C 436 168 432 163 432 148 C 432 134 432 129 432 129 C 427 129 427 139 427 153 C 427 163 422 172 417 177 C 412 182 412 182 417 196 C 427 216 427 249 417 249 C 408 249 412 273 422 278 C 427 278 427 288 427 302 C 427 312 427 316 432 316 C 432 316 432 307 432 297 C 432 278 436 273 441 268 C 451 264 451 264 456 288 C 456 312 460 297 460 273 C 460 264 465 254 470 254 C 480 254 475 235 470 230 C 456 220 460 187 470 187 C 480 187 475 158 465 153 C 460 148 456 144 460 129 C 460 115 460 110 456 110 C 451 110 451 120 451 139 M 451 216 C 451 244 432 244 432 216 C 432 196 436 196 446 196 C 451 196 456 196 451 216 M 1176 148 C 1176 177 1180 225 1180 211 C 1185 201 1185 115 1180 115 C 1180 110 1180 129 1176 148 M 1612 115 C 1632 115 1656 115 1670 115 C 1684 115 1675 115 1641 115 C 1608 115 1598 115 1612 115 M 1310 153 C 1320 182 1315 230 1296 230 C 1286 230 1296 244 1315 264 C 1334 283 1339 292 1320 288 C 1310 283 1296 292 1286 307 C 1286 312 1286 316 1300 331 C 1305 340 1310 345 1320 350 C 1315 345 1315 340 1315 336 C 1315 321 1315 316 1320 316 C 1320 316 1329 316 1334 316 C 1334 316 1339 312 1339 312 C 1339 307 1339 307 1344 307 C 1353 307 1353 302 1344 288 C 1329 273 1334 235 1344 220 C 1353 211 1353 201 1353 196 C 1353 187 1353 182 1363 182 C 1368 182 1368 182 1353 177 C 1344 177 1329 168 1320 158 C 1310 148 1310 148 1310 153 M 2174 177 C 2188 177 2203 177 2212 177 C 2222 177 2212 177 2193 177 C 2174 177 2164 177 2174 177 M 1176 240 C 1176 244 1176 254 1180 264 C 1180 292 1180 307 1180 312 C 1176 326 1180 369 1185 364 C 1190 360 1185 240 1180 240 C 1180 240 1176 240 1176 240 M 657 249 C 672 249 686 249 700 249 C 710 249 700 249 681 249 C 657 249 648 249 657 249 M 1992 312 C 2006 312 2030 312 2044 312 C 2059 312 2044 312 2016 312 C 1987 312 1977 312 1992 312 M 4113 312 C 4137 312 4171 312 4195 312 C 4214 312 4200 312 4156 312 C 4108 312 4094 312 4113 312 M 2976 379 C 2995 379 3019 379 3033 379 C 3048 379 3038 379 3004 379 C 2971 379 2961 379 2976 379 M 1617 384 C 1627 384 1641 384 1651 384 C 1660 384 1656 384 1636 384 C 1612 384 1608 384 1617 384 M 2481 384 C 2496 384 2510 384 2524 384 C 2534 384 2524 384 2505 384 C 2481 384 2472 384 2481 384 M 129 436 C 120 451 120 470 134 484 C 144 494 163 504 158 494 C 158 489 163 480 168 475 C 182 460 182 451 172 441 C 158 427 139 427 129 436 M 3576 585 C 3576 585 3576 624 3576 667 C 3576 691 3576 715 3576 739 C 3561 739 3552 739 3542 739 C 3508 739 3508 739 3504 729 C 3504 729 3504 724 3499 720 C 3499 724 3499 729 3494 729 C 3489 744 3470 744 3470 729 C 3465 715 3451 705 3441 710 C 3436 715 3436 715 3441 720 C 3456 724 3451 739 3436 739 C 3417 739 3417 739 3427 724 C 3427 720 3427 715 3427 715 C 3422 715 3422 691 3422 662 C 3422 633 3417 619 3412 619 C 3408 619 3408 782 3412 792 C 3412 792 3417 792 3422 787 C 3480 734 3494 734 3494 777 C 3499 806 3499 806 3484 806 C 3470 806 3470 816 3484 816 C 3484 816 3489 816 3494 816 C 3494 816 3494 825 3494 840 C 3494 849 3499 859 3499 859 C 3499 859 3504 854 3513 854 C 3532 849 3537 849 3532 868 C 3532 878 3528 878 3504 878 C 3470 878 3470 883 3504 883 C 3528 883 3528 888 3532 897 C 3532 907 3542 902 3542 892 C 3542 888 3547 883 3556 883 C 3561 883 3561 883 3561 883 C 3561 878 3556 878 3552 878 C 3542 883 3537 868 3542 840 C 3542 830 3542 825 3542 816 C 3576 816 3604 816 3633 816 C 3667 816 3696 816 3729 816 C 3729 825 3729 830 3734 840 C 3734 873 3734 873 3710 878 C 3696 878 3681 878 3676 883 C 3667 883 3672 883 3696 883 C 3710 883 3720 883 3734 883 C 3734 892 3734 902 3734 912 C 3729 921 3729 931 3729 940 C 3715 945 3696 945 3676 945 C 3657 945 3638 945 3619 945 C 3638 945 3657 945 3676 945 C 3696 945 3715 945 3729 950 C 3734 955 3734 964 3734 969 C 3734 984 3734 998 3734 1003 C 3734 1008 3729 1012 3652 1012 C 3624 1012 3600 1012 3571 1012 C 3600 1012 3624 1012 3652 1012 C 3676 1012 3705 1012 3729 1017 C 3729 1017 3729 1022 3729 1027 C 3729 1032 3734 1041 3734 1041 C 3739 1041 3744 1036 3744 1032 C 3744 1027 3744 1022 3744 1012 C 3796 1012 3849 1012 3902 1012 C 3955 1012 4012 1012 4065 1012 C 4065 993 4065 969 4065 950 C 4065 926 4065 907 4065 883 C 4080 883 4099 883 4113 883 C 4132 883 4147 883 4161 878 C 4161 883 4161 888 4161 892 C 4161 897 4166 902 4171 902 C 4171 902 4171 902 4171 897 C 4171 883 4180 878 4195 883 C 4204 888 4209 888 4209 916 C 4209 926 4209 936 4209 945 C 4185 945 4161 945 4137 945 C 4118 945 4094 945 4070 945 C 4094 945 4118 945 4142 950 C 4180 950 4219 950 4228 950 C 4233 950 4238 950 4243 950 C 4243 964 4243 974 4243 984 C 4243 1003 4248 1012 4248 1012 C 4252 1012 4252 1003 4252 988 C 4248 960 4257 945 4272 950 C 4276 950 4281 955 4281 969 C 4286 988 4286 998 4291 993 C 4296 988 4305 984 4315 974 C 4324 964 4339 955 4339 955 C 4344 950 4353 945 4358 945 C 4372 945 4372 945 4358 945 C 4348 940 4344 936 4344 926 C 4339 916 4310 907 4310 916 C 4310 921 4315 926 4315 926 C 4320 926 4324 926 4324 936 C 4324 940 4320 945 4315 945 C 4310 945 4310 945 4310 950 C 4315 955 4305 979 4296 979 C 4291 979 4291 955 4300 950 C 4300 945 4300 945 4296 940 C 4291 940 4291 936 4296 931 C 4300 921 4300 916 4296 916 C 4291 916 4291 888 4300 883 C 4300 883 4300 878 4296 873 C 4296 868 4296 854 4296 840 C 4296 835 4296 825 4296 816 C 4305 816 4315 816 4324 811 C 4339 811 4315 811 4262 811 C 4233 811 4204 811 4176 806 C 4176 801 4171 796 4171 792 C 4171 772 4171 772 4152 772 C 4137 777 4132 777 4137 763 C 4137 758 4137 753 4137 748 C 4176 748 4214 748 4252 748 C 4291 748 4329 748 4372 744 C 4372 758 4372 768 4372 777 C 4372 801 4368 806 4363 811 C 4353 811 4353 811 4363 811 C 4368 811 4372 816 4368 849 C 4368 888 4372 897 4387 888 C 4392 883 4406 883 4411 883 C 4420 883 4435 883 4444 883 C 4449 883 4454 883 4459 883 C 4459 892 4459 902 4459 912 C 4459 921 4459 931 4459 940 C 4444 940 4430 940 4416 945 C 4406 945 4392 945 4377 945 C 4392 945 4406 945 4416 950 C 4430 950 4444 950 4459 950 C 4459 960 4459 964 4459 974 C 4459 1008 4459 1008 4435 1012 C 4430 1012 4420 1012 4416 1012 C 4420 1012 4430 1012 4435 1012 C 4449 1012 4459 1017 4459 1022 C 4464 1027 4464 1027 4473 1022 C 4483 1017 4526 1012 4780 1012 C 4881 1012 4977 1012 5078 1012 C 4982 1012 4886 1012 4785 1012 C 4598 1012 4497 1008 4497 1003 C 4497 1003 4497 1003 4497 1003 C 4507 1003 4521 974 4516 960 C 4516 955 4516 955 4516 950 C 4651 950 4780 950 4910 950 C 5044 945 5174 945 5308 945 C 5169 945 5030 945 4886 945 C 4747 940 4608 940 4468 940 C 4468 931 4468 921 4468 916 C 4468 892 4468 888 4478 883 C 4488 883 4656 878 4876 878 C 5006 878 5136 878 5265 878 C 5131 878 5001 878 4867 878 C 4732 873 4603 873 4468 873 C 4468 868 4468 864 4468 864 C 4464 849 4459 854 4459 868 C 4459 873 4454 873 4435 873 C 4425 873 4416 873 4411 873 C 4411 868 4416 864 4420 859 C 4430 849 4430 835 4430 830 C 4430 825 4430 820 4430 816 C 4521 816 4612 816 4704 816 C 4795 816 4886 816 4972 811 C 4972 816 4972 820 4972 825 C 4972 844 4982 849 5025 849 C 5035 849 5044 849 5059 849 C 5059 844 5059 840 5059 835 C 5059 811 5054 811 5265 816 C 5332 816 5395 816 5457 816 C 5457 825 5457 835 5457 844 C 5457 854 5462 864 5462 873 C 5433 878 5404 878 5380 878 C 5352 878 5328 878 5299 878 C 5328 878 5352 878 5380 878 C 5404 883 5433 883 5457 883 C 5457 892 5457 902 5457 912 C 5457 921 5462 931 5462 940 C 5438 945 5419 945 5400 945 C 5380 945 5356 945 5337 945 C 5356 945 5380 945 5400 945 C 5419 945 5438 945 5462 950 C 5462 960 5462 969 5462 979 C 5462 988 5462 998 5462 1008 C 5400 1012 5342 1012 5284 1012 C 5227 1012 5164 1012 5107 1012 C 5164 1012 5227 1012 5284 1012 C 5347 1012 5404 1012 5467 1012 C 5467 993 5467 974 5467 950 C 5467 916 5467 859 5467 820 C 5467 782 5467 748 5462 744 C 5462 744 5241 739 4920 739 C 4742 739 4560 739 4382 739 C 4382 734 4382 729 4382 729 C 4377 715 4372 720 4372 734 C 4372 748 4142 748 4137 729 C 4132 729 4132 724 4132 720 C 4128 724 4128 724 4128 729 C 4123 739 4118 739 4099 744 C 4089 744 4080 744 4070 744 C 4080 744 4089 744 4099 744 C 4108 744 4118 744 4123 748 C 4123 758 4123 768 4123 777 C 4123 787 4123 796 4123 806 C 4113 806 4104 806 4094 806 C 4084 806 4075 806 4060 806 C 4060 796 4065 787 4065 772 C 4065 763 4065 753 4065 739 C 4017 739 3974 739 3926 739 C 3883 739 3835 739 3787 739 C 3792 739 3796 734 3796 729 C 3806 715 3811 696 3806 696 C 3801 696 3796 700 3796 705 C 3787 724 3763 739 3748 734 C 3734 729 3753 700 3782 691 C 3787 686 3796 681 3801 681 C 3796 681 3787 681 3782 681 C 3758 676 3744 691 3729 724 C 3720 739 3720 739 3700 739 C 3676 739 3681 729 3710 720 C 3729 715 3729 715 3720 710 C 3705 705 3681 715 3667 729 C 3662 739 3652 739 3633 739 C 3609 739 3604 739 3619 724 C 3643 705 3633 676 3604 681 C 3600 681 3590 681 3585 681 C 3580 667 3580 648 3580 633 C 3580 604 3580 585 3576 585 M 3609 696 C 3614 710 3595 744 3585 739 C 3580 734 3580 696 3590 691 C 3600 681 3609 686 3609 696 M 3441 748 C 3446 753 3432 772 3422 772 C 3417 772 3417 753 3422 748 C 3427 744 3436 744 3441 748 M 3576 753 C 3576 758 3580 758 3590 753 C 3604 744 3657 744 3657 758 C 3662 768 3667 768 3667 758 C 3667 748 3681 748 3696 748 C 3700 748 3710 748 3710 753 C 3710 758 3686 772 3676 772 C 3672 772 3672 772 3672 772 C 3676 782 3700 782 3715 772 C 3729 758 3729 758 3729 782 C 3729 792 3729 801 3729 806 C 3700 806 3667 806 3638 806 C 3609 806 3576 806 3542 806 C 3542 806 3542 801 3542 796 C 3542 782 3537 772 3518 777 C 3504 777 3499 772 3504 748 C 3508 744 3571 748 3576 753 M 4022 777 C 4022 787 4022 796 4022 806 C 3988 806 3955 806 3921 806 C 3816 811 3816 811 3806 796 C 3806 796 3801 792 3801 787 C 3801 792 3801 792 3801 796 C 3801 806 3796 806 3777 806 C 3772 806 3763 806 3758 806 C 3763 806 3768 801 3768 796 C 3777 792 3782 792 3787 792 C 3792 792 3796 787 3796 782 C 3796 777 3768 777 3753 792 C 3748 792 3744 796 3744 801 C 3744 792 3744 782 3744 777 C 3744 763 3744 753 3744 748 C 3748 748 3811 748 3883 748 C 3931 748 3974 748 4022 748 C 4022 758 4022 768 4022 777 M 4056 777 C 4056 806 4056 806 4041 806 C 4036 806 4032 811 4032 811 C 4032 796 4032 787 4032 777 C 4032 768 4032 758 4032 744 C 4032 744 4036 748 4041 748 C 4056 748 4056 748 4056 777 M 5457 777 C 5457 787 5462 796 5462 811 C 5280 806 5102 806 4920 806 C 4742 806 4560 806 4382 806 C 4382 796 4382 792 4382 782 C 4382 768 4382 758 4382 753 C 4382 748 4468 748 4920 748 C 5097 748 5280 748 5457 748 C 5457 758 5457 768 5457 777 M 3528 801 C 3528 806 3528 806 3518 806 C 3504 806 3504 801 3513 796 C 3523 792 3528 796 3528 801 M 4161 801 C 4161 806 4161 806 4152 806 C 4137 806 4137 801 4147 796 C 4156 792 4161 796 4161 801 M 3528 820 C 3528 825 3508 835 3508 830 C 3504 830 3504 825 3508 820 C 3508 816 3528 811 3528 820 M 3787 816 C 3792 820 3763 835 3753 835 C 3744 840 3744 820 3753 816 C 3763 811 3782 811 3787 816 M 4022 825 C 4022 830 4022 844 4022 854 C 4022 859 4022 868 4022 873 C 3974 873 3931 873 3883 873 C 3835 873 3787 873 3744 878 C 3744 868 3744 864 3744 859 C 3744 844 3744 844 3758 844 C 3777 849 3782 844 3796 830 C 3801 825 3811 820 3816 816 C 3849 816 3883 816 3916 816 C 3950 816 3984 816 4017 816 C 4022 816 4022 820 4022 825 M 4056 844 C 4060 873 4056 873 4046 878 C 4046 878 4041 878 4036 878 C 4041 878 4041 883 4046 883 C 4060 888 4065 940 4051 945 C 4041 945 4041 945 4051 950 C 4056 950 4056 960 4056 984 C 4056 1008 4056 1012 4041 1012 C 4032 1012 4032 1008 4032 984 C 4032 969 4032 950 4036 950 C 4041 945 4041 945 4036 945 C 4032 945 4027 825 4032 816 C 4032 816 4041 816 4046 816 C 4056 816 4056 820 4056 844 M 4123 835 C 4128 854 4128 854 4152 849 C 4161 849 4161 854 4161 864 C 4161 868 4166 873 4166 873 C 4147 873 4132 873 4113 873 C 4099 873 4080 873 4065 873 C 4065 868 4065 859 4065 849 C 4065 811 4065 811 4094 816 C 4104 816 4113 816 4123 816 C 4123 820 4123 830 4123 835 M 4161 820 C 4156 825 4142 835 4137 825 C 4137 825 4137 820 4137 820 C 4142 811 4161 816 4161 820 M 4204 844 C 4204 854 4204 864 4209 873 C 4200 873 4195 873 4190 873 C 4185 873 4180 873 4171 873 C 4171 868 4171 859 4171 849 C 4171 816 4176 811 4190 816 C 4204 816 4204 820 4204 844 M 4281 844 C 4281 854 4286 864 4286 873 C 4272 873 4262 873 4252 873 C 4238 873 4228 873 4219 873 C 4219 864 4214 854 4214 844 C 4214 811 4214 811 4248 816 C 4262 816 4272 816 4281 816 C 4281 825 4281 835 4281 844 M 4411 830 C 4416 844 4392 878 4382 873 C 4377 868 4377 835 4387 830 C 4392 820 4406 820 4411 830 M 4022 912 C 4022 921 4022 931 4027 945 C 3979 945 3931 945 3883 945 C 3753 945 3744 940 3739 936 C 3739 916 3744 888 3744 883 C 3744 883 3811 883 3883 883 C 3931 883 3974 883 4022 883 C 4022 892 4022 902 4022 912 M 4286 912 C 4286 921 4286 931 4286 945 C 4276 945 4272 940 4267 940 C 4252 940 4252 940 4252 916 C 4252 883 4252 888 4281 883 C 4281 883 4286 892 4286 912 M 4243 907 C 4248 921 4238 926 4224 926 C 4219 926 4219 926 4219 916 C 4219 892 4243 888 4243 907 M 4022 979 C 4022 988 4022 998 4022 1008 C 3974 1008 3931 1008 3883 1008 C 3835 1008 3787 1008 3744 1012 C 3744 1003 3744 993 3744 984 C 3744 964 3744 955 3744 950 C 3748 950 3811 950 3883 950 C 3931 950 3974 950 4022 950 C 4022 960 4022 969 4022 979 M 4497 964 C 4502 969 4488 998 4478 1003 C 4473 1012 4468 998 4468 979 C 4464 960 4492 950 4497 964 M 9 691 C 9 748 9 753 14 753 C 19 748 19 748 19 748 C 14 744 9 720 9 681 C 9 662 9 643 9 624 C 9 648 9 667 9 691 M 3110 729 C 3105 729 3100 739 3096 739 C 3028 744 2961 744 2889 744 C 2755 744 2726 744 2808 744 C 2851 744 2889 744 2932 748 C 2932 758 2932 768 2932 777 C 2932 796 2928 806 2923 806 C 2923 806 2923 811 2923 816 C 2928 820 2928 844 2928 883 C 2928 902 2928 921 2928 940 C 2908 945 2889 945 2865 945 C 2846 945 2822 945 2803 945 C 2822 945 2846 945 2865 945 C 2889 945 2908 945 2932 950 C 2932 960 2932 969 2932 979 C 2932 988 2932 998 2932 1008 C 2904 1012 2875 1012 2846 1012 C 2803 1012 2836 1012 2928 1012 C 2985 1012 3038 1012 3096 1012 C 3096 1022 3096 1027 3096 1032 C 3096 1036 3096 1041 3096 1046 C 3096 1041 3096 1036 3096 1032 C 3100 1017 3100 1017 3129 1012 C 3134 1012 3144 1012 3153 1012 C 3144 1012 3134 1012 3124 1012 C 3115 1012 3105 1012 3096 1012 C 3100 998 3100 988 3100 979 C 3100 969 3100 960 3100 950 C 3120 950 3134 950 3153 945 C 3172 945 3187 945 3206 945 C 3187 945 3168 945 3153 945 C 3134 945 3115 945 3096 945 C 3100 926 3100 912 3100 892 C 3100 878 3100 859 3100 844 C 3105 844 3115 844 3120 844 C 3139 849 3144 844 3158 830 C 3172 816 3177 816 3201 816 C 3240 811 3240 806 3201 806 C 3172 806 3172 806 3168 796 C 3168 792 3163 782 3153 782 C 3148 777 3148 777 3158 763 C 3192 724 3144 691 3110 729 M 3091 777 C 3091 787 3096 796 3096 806 C 3072 811 3048 811 3024 811 C 3004 811 2980 811 2956 811 C 2980 811 3000 811 3024 811 C 3048 816 3067 816 3091 816 C 3091 849 3091 883 3091 912 C 3091 945 3091 979 3091 1012 C 3067 1012 3043 1012 3014 1012 C 2990 1012 2961 1012 2937 1012 C 2937 988 2937 969 2937 950 C 2937 907 2937 888 2942 883 C 2947 883 2947 878 2942 878 C 2932 873 2932 820 2942 816 C 2942 811 2942 811 2942 806 C 2932 801 2932 753 2937 748 C 2942 748 2976 748 3014 748 C 3043 748 3067 748 3091 748 C 3091 758 3091 768 3091 777 M 364 729 C 364 739 364 748 364 753 C 364 763 360 763 355 763 C 350 763 345 763 350 758 C 350 739 345 729 345 729 C 340 729 340 734 340 739 C 340 744 336 748 331 748 C 326 748 326 748 331 748 C 340 753 340 772 331 772 C 331 772 331 782 331 792 C 331 796 331 806 331 806 C 336 806 340 844 336 849 C 326 859 326 883 331 888 C 336 888 340 897 340 902 C 340 907 340 916 345 916 C 345 916 345 907 345 902 C 345 883 360 878 364 897 C 369 902 369 907 369 897 C 369 892 374 888 379 888 C 384 888 384 883 379 883 C 369 878 369 873 379 859 C 384 854 388 849 384 840 C 384 830 379 820 379 820 C 379 816 379 811 379 811 C 369 806 369 792 379 782 C 388 777 388 748 379 744 C 374 744 374 739 369 729 C 369 729 369 724 369 720 C 369 724 364 729 364 729 M 364 806 C 364 806 360 811 355 811 C 350 816 345 806 350 796 C 355 792 364 796 364 806 M 360 830 C 360 840 345 844 345 835 C 345 825 350 816 360 816 C 360 816 360 820 360 830 M 729 739 C 724 744 715 748 681 748 C 667 748 648 748 633 748 C 648 748 662 748 681 748 C 720 748 724 753 729 758 C 729 768 729 768 729 758 C 734 753 744 748 864 748 C 907 748 955 748 998 748 C 955 748 912 748 868 748 C 768 748 734 744 729 739 C 729 734 729 734 729 739 M 2059 744 C 2064 744 2068 744 2073 748 C 2073 787 2073 825 2073 868 C 2073 931 2078 988 2078 988 C 2078 993 2083 984 2083 974 C 2083 964 2083 955 2083 955 C 2088 950 2088 940 2083 926 C 2083 907 2083 897 2083 888 C 2088 883 2088 878 2083 868 C 2078 849 2083 816 2092 816 C 2092 816 2092 816 2088 811 C 2083 801 2083 796 2088 758 C 2088 753 2088 748 2088 739 C 2083 744 2073 744 2064 744 C 2044 744 2044 744 2059 744 M 57 748 C 67 748 81 748 91 748 C 100 748 91 748 72 748 C 52 748 48 748 57 748 M 110 748 C 120 753 120 758 110 763 C 100 772 91 792 91 801 C 91 811 86 816 52 816 C 38 816 24 816 14 816 C 9 806 9 796 9 787 C 9 772 9 816 9 888 C 9 1008 9 1017 14 1017 C 24 1017 24 1017 19 1012 C 14 1012 9 993 9 979 C 9 969 9 960 9 950 C 33 950 57 950 81 950 C 124 950 144 950 129 950 C 124 945 120 945 110 945 C 120 940 124 936 129 931 C 144 926 163 912 177 902 C 196 888 201 888 230 883 C 240 883 254 883 264 883 C 254 883 244 883 235 883 C 201 878 201 878 216 859 C 220 854 225 840 225 835 C 230 820 230 820 244 816 C 249 816 254 816 259 816 C 254 816 249 816 244 816 C 230 816 225 811 220 792 C 216 782 206 768 201 763 C 192 763 192 753 192 753 C 192 748 177 748 148 748 C 120 748 105 748 110 748 M 172 772 C 187 787 192 811 177 816 C 168 816 168 816 177 816 C 187 820 187 840 177 864 C 177 868 172 873 172 883 C 144 883 120 883 91 883 C 62 883 38 883 9 883 C 9 868 14 859 14 849 C 14 840 14 830 14 820 C 24 820 38 820 48 820 C 76 816 81 820 91 830 C 105 844 129 840 144 825 C 153 820 158 816 158 816 C 153 816 148 811 144 806 C 134 796 129 792 124 792 C 110 792 105 782 120 768 C 129 758 153 758 172 772 M 158 892 C 158 897 134 926 110 936 C 96 945 86 950 52 950 C 38 950 24 950 9 950 C 9 940 9 931 9 921 C 9 902 14 892 14 888 C 24 883 158 883 158 892 M 244 777 C 235 787 240 806 254 806 C 264 806 273 787 264 777 C 254 768 249 768 244 777 M 3326 806 C 3331 830 3326 835 3316 849 C 3312 859 3307 873 3307 873 C 3307 878 3302 883 3297 883 C 3297 883 3297 883 3307 883 C 3316 883 3350 916 3340 916 C 3336 916 3331 921 3321 921 C 3316 921 3307 931 3302 936 C 3292 945 3297 945 3316 964 C 3336 988 3345 988 3331 969 C 3321 960 3326 950 3340 950 C 3345 950 3345 945 3345 945 C 3345 940 3350 936 3355 936 C 3369 936 3369 936 3355 916 C 3331 888 3336 883 3403 883 C 3470 883 3475 883 3408 878 C 3345 878 3345 878 3360 854 C 3369 840 3369 835 3369 825 C 3364 820 3364 816 3369 816 C 3379 811 3374 811 3364 811 C 3355 811 3345 806 3336 792 C 3331 787 3326 782 3326 777 C 3326 787 3326 796 3326 806 M 715 816 C 710 816 705 816 700 816 C 705 816 710 816 715 816 C 720 816 724 816 724 816 C 724 849 724 883 724 916 C 724 950 724 984 724 1012 C 710 1017 696 1017 681 1017 C 662 1017 648 1017 633 1017 C 648 1017 662 1017 681 1017 C 696 1017 710 1017 724 1017 C 729 1036 729 1051 729 1070 C 729 1084 729 1104 729 1118 C 729 1104 729 1084 729 1070 C 729 1051 729 1036 734 1022 C 777 1017 820 1017 868 1017 C 912 1017 960 1017 1003 1017 C 960 1017 912 1017 868 1017 C 820 1017 777 1017 734 1012 C 734 1003 734 993 734 984 C 734 974 734 964 734 955 C 792 950 849 950 907 950 C 964 950 1022 950 1080 950 C 1022 950 964 950 907 950 C 849 950 792 950 734 950 C 734 940 734 936 734 931 C 734 916 734 916 753 916 C 772 916 777 912 792 902 C 796 897 801 892 806 888 C 864 883 921 883 984 883 C 1041 883 1099 883 1156 883 C 1099 883 1041 883 979 883 C 825 883 806 878 806 873 C 806 868 801 868 801 868 C 796 868 792 868 792 873 C 792 878 763 907 753 907 C 729 907 739 888 763 883 C 772 883 772 883 768 883 C 748 878 758 868 787 859 C 792 859 792 859 782 854 C 772 849 753 854 744 864 C 734 873 729 873 734 844 C 734 840 734 830 734 820 C 792 820 849 820 907 816 C 969 816 1027 816 1084 816 C 1027 816 964 816 907 811 C 811 811 724 811 715 816 M 1176 811 C 1176 811 1176 830 1176 849 C 1176 984 1180 1017 1180 1022 C 1185 1022 1185 993 1185 955 C 1185 916 1185 892 1190 888 C 1190 883 1190 878 1190 878 C 1180 873 1180 825 1185 820 C 1190 820 1190 816 1190 811 C 1185 806 1180 806 1176 811 M 2438 811 C 2428 816 2414 816 2404 816 C 2414 816 2424 816 2438 820 C 2467 820 2467 820 2467 835 C 2472 844 2472 849 2510 849 C 2548 849 2548 844 2548 820 C 2548 820 2563 816 2582 816 C 2601 816 2620 816 2616 816 C 2616 811 2472 811 2438 811 M 2822 811 C 2832 811 2846 811 2856 811 C 2865 811 2860 811 2841 811 C 2817 811 2812 811 2822 811 M 446 820 C 456 830 451 864 441 864 C 436 868 432 864 432 849 C 432 840 432 835 432 835 C 427 835 427 840 427 854 C 427 864 422 873 417 878 C 408 883 408 883 417 897 C 427 912 432 940 422 945 C 412 950 412 969 422 974 C 427 979 427 988 427 1003 C 422 1017 427 1017 432 1017 C 436 1017 436 1012 436 998 C 432 984 436 974 441 969 C 451 964 451 964 451 988 C 451 998 456 1003 456 1003 C 460 1003 460 993 460 984 C 460 969 460 964 470 960 C 475 950 475 950 470 936 C 460 916 460 892 470 888 C 475 883 475 878 465 854 C 460 840 460 835 460 825 C 465 816 465 816 456 816 C 446 816 441 816 446 820 M 451 916 C 451 936 446 945 436 940 C 432 936 432 902 436 897 C 446 888 451 897 451 916 M 1545 816 C 1560 816 1574 816 1588 820 C 1588 825 1588 830 1588 835 C 1588 840 1588 844 1588 849 C 1603 849 1617 849 1632 849 C 1646 849 1660 849 1675 849 C 1675 844 1675 840 1675 835 C 1675 830 1675 825 1675 820 C 1694 816 1718 816 1742 816 C 1780 816 1742 816 1656 816 C 1569 816 1521 816 1545 816 M 1588 883 C 1651 883 1752 883 1814 883 C 1876 883 1828 883 1704 883 C 1574 883 1526 883 1588 883 M 2510 883 C 2548 883 2620 883 2659 883 C 2702 883 2668 883 2587 883 C 2500 883 2467 883 2510 883 M 3590 883 C 3600 883 3624 883 3633 883 C 3648 883 3638 883 3609 883 C 3585 883 3576 883 3590 883 M 4094 1012 C 4108 1012 4132 1012 4147 1012 C 4161 1012 4147 1012 4123 1012 C 4094 1012 4080 1012 4094 1012 M 2990 945 C 3004 945 3038 945 3052 945 C 3072 945 3057 945 3019 945 C 2985 945 2971 945 2990 945 z" fill="black" /><!-- width=5476 height=1128 -->
<path id="gl14848" d="M 24 19 C 14 24 9 28 4 33 C 4 38 4 249 4 508 C 4 662 4 820 0 974 C 9 979 14 979 24 984 C 48 993 57 993 43 984 C 38 979 33 979 28 974 C 28 816 28 662 28 504 C 28 345 28 187 28 28 C 33 24 38 24 43 19 C 57 9 43 9 24 19 z" fill="black" /><!-- width=72 height=1008 -->
<path id="gl14849" d="M 24 9 C 38 33 350 43 460 24 C 508 14 528 4 484 14 C 412 24 62 24 28 9 C 24 4 19 9 24 9 z" fill="black" /><!-- width=528 height=48 -->
<path id="gl12295" d="M 25 12 C 23 12 21 13 18 13 C 18 15 17 15 16 16 C 12 23 12 29 15 33 C 16 34 18 36 19 37 C 22 42 29 43 37 41 C 42 40 43 39 45 36 C 49 30 49 23 45 18 C 39 10 36 9 25 12 z" fill="black" /><!-- width=62 height=53 -->
</defs>
<use xlink:href="#gl14338" x="5108" y="168" />
<use xlink:href="#gl14339" x="5190" y="162" />
<use xlink:href="#gl14339" x="5190" y="229" />
<use xlink:href="#gl14339" x="5190" y="297" />
<use xlink:href="#gl14340" x="5276" y="168" />
<use xlink:href="#gl14341" x="5376" y="168" />
<use xlink:href="#gl14342" x="5194" y="370" />
<use xlink:href="#gl14343" x="764" y="610" />
<use xlink:href="#gl14344" x="2592" y="360" />
<use xlink:href="#gl14345" x="2664" y="360" />
<use xlink:href="#gl14592" x="48" y="0" />
<use xlink:href="#gl14848" x="0" y="72" />
<use xlink:href="#gl14849" x="3236" y="432" />
<use xlink:href="#gl12295" x="271" y="821" />
</svg>