<?xml version="1.0" standalone="no"?>
<!DOCTYPE svg PUBLIC "-//W3C/DTD SVG 1.1//EN" "http://www.w3.org/Graphics/SVG/1.1/DTD/svg11.dtd">
<svg width="480px" height="185px" viewBox="0 0 4809 1857" xmlns="http://www.w3.org/2000/svg" xmlns:xlink="http://www.w3.org/1999/xlink" version="1.1">
<defs>
<path id="gl13825" d="M 0 9 C 0 9 4 19 14 33 C 19 43 28 62 33 76 C 43 115 43 115 76 43 C 81 33 86 24 86 24 C 86 19 86 19 86 19 C 91 19 96 14 96 14 C 96 9 86 4 81 4 C 72 4 67 9 67 14 C 67 14 67 19 67 19 C 72 19 67 28 62 48 C 57 62 52 72 52 72 C 43 72 28 24 28 14 C 33 9 28 4 19 4 C 9 4 0 9 0 9 z" fill="black" /><!-- width=100 height=110 -->
<path id="gl13314" d="M 32 10 C 25 15 21 18 19 21 C 18 24 17 26 16 27 C 15 29 13 39 13 47 C 13 53 13 53 16 57 C 17 60 19 62 19 63 C 24 72 37 77 49 73 C 54 72 54 72 57 73 C 60 74 61 74 63 72 C 64 72 67 70 70 68 C 75 64 75 64 78 58 C 82 50 82 47 81 37 C 80 27 78 23 72 16 C 66 10 62 9 57 9 C 54 9 51 9 48 9 C 46 9 42 9 40 9 C 36 8 36 9 32 10 M 55 18 C 56 19 57 20 58 21 C 58 22 60 25 61 26 C 68 35 69 52 62 60 C 60 63 53 69 52 69 C 51 69 48 67 45 66 C 36 63 31 58 28 49 C 28 45 28 34 30 30 C 30 28 31 27 31 25 C 31 23 39 18 42 16 C 44 16 46 15 46 15 C 47 15 51 16 55 18 z" fill="black" /><!-- width=95 height=84 -->
<path id="gl5387" d="M 18 7 C 14 9 12 15 13 18 C 14 21 19 24 22 24 C 27 24 27 23 29 20 C 32 15 32 12 28 8 C 25 6 21 5 18 7 M 18 36 C 11 38 10 42 14 48 C 18 54 18 53 17 72 C 17 78 17 83 17 88 C 16 90 15 91 15 92 C 10 98 11 100 18 102 C 21 103 27 103 32 100 C 37 99 37 97 33 94 C 29 88 29 90 30 64 C 30 39 30 38 27 36 C 25 34 21 34 18 36 z" fill="black" /><!-- width=46 height=122 -->
<path id="gl13826" d="M 52 9 C 48 10 36 16 32 20 C 30 22 26 27 25 31 C 19 51 26 69 43 76 C 50 79 72 79 76 75 C 79 73 78 68 75 66 C 72 66 71 66 64 67 C 55 69 48 66 43 60 C 31 43 39 19 55 19 C 62 19 64 21 69 27 C 74 34 79 31 79 19 C 79 11 75 9 63 9 C 58 9 54 9 52 9 z" fill="black" /><!-- width=90 height=90 -->
<path id="gl13827" d="M 14 14 C -5 33 4 72 33 72 C 38 72 48 67 52 67 C 57 62 52 57 43 57 C 24 57 14 52 19 33 C 24 14 33 4 43 19 C 48 28 48 28 38 28 C 33 28 28 33 28 33 C 28 43 52 38 62 33 C 67 28 48 0 38 0 C 33 0 24 4 14 14 z" fill="black" /><!-- width=72 height=81 -->
<path id="gl14080" d="M 417 28 C 417 62 403 62 403 33 C 398 4 393 9 393 43 C 393 52 388 62 388 62 C 384 62 379 72 379 76 C 379 86 384 91 388 91 C 388 91 393 96 393 100 C 393 100 369 100 331 100 C 312 100 292 100 273 100 C 273 91 268 81 268 72 C 264 48 249 14 244 14 C 225 14 206 43 201 81 C 196 96 192 100 182 105 C 182 105 177 105 172 105 C 177 105 182 105 182 110 C 196 110 196 115 201 134 C 206 163 206 168 177 172 C 158 172 158 172 168 172 C 187 177 187 177 163 211 C 158 220 153 230 144 240 C 134 235 120 235 105 235 C 91 235 81 235 67 235 C 67 225 67 216 67 206 C 62 182 67 177 76 177 C 76 172 81 172 86 172 C 81 172 76 168 76 168 C 67 168 67 163 67 144 C 67 110 67 110 124 105 C 139 105 158 105 172 105 C 153 105 134 105 115 105 C 96 105 76 105 57 100 C 57 153 57 201 57 249 C 57 393 57 408 43 393 C 38 388 38 364 38 244 C 38 196 38 153 38 105 C 38 100 43 100 48 96 C 67 81 57 81 28 91 C 24 96 14 100 4 100 C 9 148 9 196 9 244 C 9 403 4 388 43 403 C 48 403 52 408 57 408 C 57 460 57 508 57 556 C 57 604 57 657 57 705 C 52 710 43 715 33 720 C 24 720 19 724 9 729 C 9 883 9 1032 9 1185 C 9 1339 9 1488 9 1641 C 14 1646 24 1646 28 1651 C 52 1665 67 1665 48 1651 C 43 1646 38 1641 38 1636 C 38 1488 38 1339 38 1185 C 38 753 38 734 43 724 C 48 720 52 720 57 720 C 57 720 57 926 57 1180 C 57 1329 57 1488 57 1641 C 67 1636 72 1636 81 1636 C 96 1636 100 1636 86 1636 C 81 1636 76 1636 72 1632 C 72 1612 72 1588 72 1569 C 72 1545 72 1526 72 1502 C 96 1502 120 1502 139 1502 C 182 1502 216 1507 216 1507 C 220 1516 177 1550 148 1564 C 124 1579 134 1579 182 1574 C 201 1569 206 1569 192 1569 C 187 1564 177 1564 172 1564 C 187 1555 201 1545 216 1536 C 230 1526 244 1516 259 1502 C 273 1502 292 1502 307 1502 C 379 1502 388 1507 393 1526 C 393 1531 398 1536 403 1536 C 403 1536 403 1526 403 1521 C 403 1512 403 1507 412 1507 C 417 1507 422 1512 422 1516 C 422 1521 422 1521 422 1521 C 427 1521 427 1521 427 1516 C 427 1502 460 1497 465 1512 C 465 1516 470 1526 475 1526 C 480 1526 484 1536 484 1545 C 484 1555 484 1560 484 1564 C 441 1564 403 1564 364 1564 C 297 1564 244 1569 249 1569 C 249 1569 297 1574 355 1574 C 393 1574 427 1574 460 1574 C 465 1579 470 1584 470 1588 C 480 1598 480 1612 480 1617 C 480 1622 480 1627 480 1632 C 422 1632 364 1632 307 1632 C 244 1636 187 1636 129 1636 C 225 1636 316 1636 408 1636 C 504 1641 600 1641 691 1641 C 691 1656 691 1670 696 1689 C 696 1737 700 1742 700 1694 C 700 1651 700 1641 710 1636 C 720 1636 720 1636 715 1636 C 691 1627 691 1574 715 1574 C 724 1574 724 1574 724 1569 C 724 1569 720 1564 715 1564 C 705 1564 696 1550 700 1540 C 700 1540 710 1536 720 1536 C 734 1536 763 1521 763 1516 C 763 1512 772 1507 782 1507 C 787 1507 792 1502 796 1502 C 792 1502 787 1502 782 1502 C 777 1502 772 1497 772 1492 C 772 1473 739 1464 720 1478 C 705 1483 705 1483 700 1478 C 700 1473 700 1449 705 1444 C 705 1440 859 1440 1046 1440 C 1228 1440 1344 1440 1291 1440 C 1243 1435 1094 1435 955 1435 C 816 1435 705 1430 700 1430 C 691 1416 700 1401 724 1401 C 753 1401 777 1382 772 1358 C 768 1344 763 1339 763 1353 C 763 1358 753 1363 748 1368 C 739 1368 734 1372 739 1372 C 748 1382 729 1396 715 1396 C 700 1396 700 1382 710 1377 C 734 1368 734 1368 729 1368 C 720 1363 739 1344 748 1344 C 753 1344 758 1344 758 1339 C 758 1329 724 1339 710 1348 C 700 1358 691 1363 691 1363 C 686 1363 681 1368 681 1372 C 681 1372 686 1377 686 1377 C 691 1377 696 1387 696 1406 C 696 1420 691 1435 686 1435 C 686 1435 657 1435 628 1435 C 595 1435 537 1435 499 1435 C 432 1430 427 1430 427 1420 C 427 1416 432 1406 436 1406 C 436 1401 441 1392 441 1387 C 441 1382 441 1377 441 1372 C 465 1372 494 1372 518 1368 C 542 1368 571 1368 595 1368 C 566 1368 537 1368 513 1368 C 484 1368 456 1368 427 1363 C 427 1358 427 1353 427 1348 C 427 1344 427 1334 422 1334 C 422 1334 422 1344 422 1348 C 422 1368 408 1372 403 1353 C 403 1348 403 1348 398 1344 C 398 1348 398 1348 393 1353 C 393 1358 393 1363 393 1363 C 340 1363 292 1363 244 1363 C 163 1363 96 1368 100 1368 C 100 1368 115 1372 129 1372 C 168 1372 168 1372 153 1396 C 148 1406 139 1420 139 1425 C 139 1430 139 1435 105 1435 C 91 1435 81 1435 72 1435 C 72 1425 72 1416 72 1406 C 72 1392 72 1372 76 1372 C 81 1368 81 1363 76 1363 C 72 1363 72 1320 72 1185 C 72 1123 72 1065 72 1003 C 100 1003 129 1008 163 1008 C 249 1008 254 1008 254 1017 C 264 1036 268 1075 264 1089 C 259 1094 259 1099 259 1099 C 273 1099 273 1060 268 1036 C 259 1003 244 1003 513 1003 C 686 1003 758 1003 758 998 C 758 998 758 988 763 984 C 768 979 772 964 772 955 C 772 945 772 940 787 936 C 792 936 796 936 801 936 C 796 936 792 936 787 931 C 772 931 772 931 772 902 C 768 883 772 873 777 873 C 782 868 782 868 777 864 C 772 859 768 854 772 830 C 772 825 772 816 772 806 C 859 806 950 806 1036 801 C 1128 801 1214 801 1305 801 C 1214 801 1128 801 1036 796 C 950 796 859 796 772 796 C 772 787 772 777 772 772 C 768 748 772 744 777 739 C 787 734 787 734 777 734 C 772 734 772 724 768 681 C 768 667 768 648 768 633 C 768 648 768 667 768 681 C 768 729 763 734 758 734 C 748 734 744 734 744 739 C 744 739 748 744 758 744 C 763 744 768 744 763 753 C 763 758 763 768 763 768 C 763 772 758 772 748 772 C 720 768 686 796 696 816 C 700 830 700 830 705 820 C 705 806 729 801 734 806 C 744 811 744 816 724 825 C 710 830 705 830 715 835 C 720 835 729 835 739 835 C 763 825 763 825 763 835 C 768 868 772 864 643 864 C 537 864 532 864 532 859 C 532 854 528 844 523 844 C 518 844 518 835 518 825 C 518 806 518 806 595 801 C 609 801 628 801 648 801 C 628 801 609 801 590 801 C 537 801 532 796 532 792 C 532 787 528 777 523 772 C 513 768 513 744 523 744 C 523 744 523 739 523 739 C 523 734 513 734 499 734 C 484 734 470 734 470 739 C 470 739 480 744 489 744 C 499 744 504 744 508 744 C 508 748 508 753 508 763 C 504 792 489 792 489 763 C 489 753 489 748 489 748 C 484 748 484 753 484 768 C 484 792 475 796 451 796 C 432 796 422 787 436 777 C 436 777 441 772 436 758 C 436 744 436 744 451 744 C 475 744 470 734 451 729 C 427 729 422 720 436 705 C 446 696 441 676 432 676 C 432 676 427 667 427 657 C 427 643 427 638 422 638 C 422 638 422 648 422 662 C 422 676 417 686 412 686 C 408 686 408 676 408 667 C 408 657 403 648 403 648 C 398 648 393 652 393 667 C 393 681 393 691 388 696 C 379 700 379 720 388 724 C 393 729 379 734 331 734 C 312 734 292 734 273 734 C 273 724 268 720 268 710 C 268 686 254 652 240 652 C 225 648 211 672 201 705 C 201 715 201 720 196 729 C 187 734 172 734 163 734 C 148 734 139 734 124 734 C 139 734 148 734 163 734 C 172 734 187 734 196 739 C 201 744 201 753 201 763 C 211 801 211 796 139 796 C 115 796 91 796 72 796 C 72 792 67 782 67 777 C 67 763 72 748 72 744 C 76 739 76 734 72 734 C 72 734 72 662 72 552 C 72 494 72 436 72 374 C 100 374 129 374 158 379 C 206 379 249 379 249 379 C 259 384 268 446 259 460 C 254 465 254 475 254 475 C 268 475 273 441 264 388 C 264 384 259 379 259 379 C 345 374 436 374 523 374 C 609 374 696 374 782 374 C 700 374 619 374 537 374 C 408 374 292 369 292 369 C 288 369 288 364 297 355 C 302 345 312 331 312 326 C 312 321 312 316 316 307 C 379 307 441 307 504 307 C 566 307 633 307 696 307 C 700 316 705 321 710 326 C 729 340 734 340 729 326 C 720 312 724 312 753 307 C 772 307 777 307 772 307 C 768 302 763 297 763 297 C 763 292 758 288 753 278 C 734 254 739 244 763 240 C 782 240 782 240 768 240 C 744 235 744 230 758 211 C 768 196 768 192 763 187 C 763 182 763 177 763 177 C 763 172 763 172 758 172 C 753 172 744 163 734 153 C 720 134 710 129 715 144 C 724 163 724 168 710 172 C 696 172 696 172 710 172 C 729 177 729 182 715 211 C 710 220 705 230 700 235 C 672 235 643 235 614 235 C 542 240 532 235 532 230 C 532 225 528 220 523 220 C 518 216 513 211 518 196 C 518 192 518 182 518 177 C 542 177 571 177 595 172 C 619 172 648 172 672 172 C 648 172 624 172 600 172 C 580 172 556 172 532 168 C 528 163 528 158 523 148 C 508 115 513 110 561 105 C 595 105 585 105 518 105 C 489 105 460 105 427 100 C 427 96 427 91 427 86 C 427 81 432 72 436 72 C 436 72 441 67 441 62 C 441 52 436 43 436 43 C 432 43 427 33 427 24 C 427 0 422 4 417 28 M 254 81 C 254 100 254 100 235 100 C 216 105 211 96 225 72 C 240 43 259 52 254 81 M 244 115 C 244 124 225 153 216 153 C 216 153 216 139 216 129 C 216 110 216 105 230 105 C 244 105 244 110 244 115 M 388 124 C 388 129 388 139 388 139 C 384 139 379 144 379 153 C 379 158 379 163 379 172 C 360 172 340 172 316 172 C 254 172 249 168 259 144 C 264 139 264 134 264 134 C 264 129 268 124 268 120 C 278 110 278 105 331 110 C 350 110 369 110 388 110 C 388 115 388 120 388 124 M 417 120 C 417 120 412 124 408 124 C 403 129 398 120 403 110 C 408 105 417 110 417 120 M 504 129 C 504 158 494 163 489 139 C 489 115 480 115 480 139 C 475 168 470 168 446 168 C 427 172 427 163 436 144 C 441 129 441 115 432 115 C 432 115 432 115 432 110 C 432 110 451 105 470 105 C 484 105 494 105 508 105 C 508 115 504 124 504 129 M 393 187 C 393 196 393 206 393 206 C 398 206 403 206 403 196 C 403 192 403 182 403 182 C 408 172 422 177 422 187 C 422 192 422 196 422 196 C 427 196 427 192 427 187 C 427 177 432 177 451 177 C 465 177 470 177 470 182 C 470 187 470 196 475 196 C 480 196 484 206 480 216 C 480 220 480 230 480 235 C 436 235 398 235 355 235 C 316 235 273 235 235 240 C 235 235 230 230 230 225 C 220 182 235 177 321 177 C 345 177 369 177 393 177 C 393 177 393 182 393 187 M 504 206 C 504 220 504 230 499 230 C 489 230 489 196 494 187 C 504 182 504 187 504 206 M 220 230 C 220 240 201 240 196 235 C 196 230 196 225 206 220 C 216 206 225 216 220 230 M 134 268 C 134 283 129 302 124 302 C 124 307 124 307 124 307 C 129 307 134 316 139 321 C 144 331 153 345 158 350 C 177 369 172 374 115 374 C 100 374 86 374 72 374 C 72 360 72 350 72 340 C 72 316 72 307 76 307 C 86 307 86 307 76 307 C 72 302 72 297 72 273 C 72 264 72 254 72 244 C 81 244 91 244 105 244 C 115 244 124 244 139 244 C 134 249 134 259 134 268 M 201 244 C 201 244 196 254 192 264 C 187 268 182 283 182 288 C 182 302 168 307 158 302 C 158 297 158 288 163 278 C 172 249 192 235 201 244 M 470 249 C 470 254 470 264 475 268 C 480 268 480 278 480 288 C 480 292 480 297 480 302 C 451 302 427 302 398 302 C 369 302 340 302 316 307 C 312 297 312 292 312 288 C 307 273 302 264 297 259 C 278 244 288 244 379 244 C 460 244 470 244 470 249 M 724 259 C 739 278 739 278 724 278 C 710 278 705 283 700 292 C 696 297 696 302 691 302 C 657 302 624 302 590 302 C 556 302 523 302 489 302 C 489 297 494 288 494 283 C 494 254 504 249 504 278 C 508 302 518 297 518 273 C 518 244 518 244 624 244 C 652 244 681 244 710 244 C 715 249 720 254 724 259 M 278 283 C 292 302 288 307 264 302 C 244 297 244 297 244 283 C 244 264 244 264 254 268 C 264 268 273 278 278 283 M 230 288 C 230 297 230 302 216 302 C 201 307 196 292 206 278 C 220 264 235 268 230 288 M 187 326 C 192 336 201 340 201 340 C 206 340 201 336 201 331 C 187 321 192 307 216 307 C 235 307 235 312 240 326 C 254 364 249 374 216 369 C 192 364 163 336 163 321 C 163 302 172 307 187 326 M 292 321 C 297 331 292 340 278 350 C 264 369 249 360 249 326 C 249 321 249 316 249 307 C 259 307 264 312 273 312 C 288 312 292 312 292 321 M 259 700 C 264 724 259 734 235 734 C 216 734 211 724 230 700 C 240 681 254 681 259 700 M 244 753 C 230 782 216 787 216 758 C 216 744 216 744 225 739 C 249 739 254 739 244 753 M 379 739 C 393 744 398 758 388 768 C 384 768 379 777 379 787 C 379 792 379 796 379 796 C 360 796 340 796 316 796 C 283 796 259 796 259 796 C 259 787 273 744 278 739 C 283 734 360 734 379 739 M 758 787 C 758 792 753 796 744 796 C 724 801 720 792 734 787 C 748 777 763 777 758 787 M 187 806 C 187 811 163 849 148 859 C 144 864 124 864 105 864 C 91 864 81 864 72 864 C 72 859 72 849 72 840 C 72 820 72 811 72 806 C 76 801 182 801 187 806 M 393 811 C 393 811 398 816 398 816 C 393 820 398 830 403 830 C 403 830 408 825 408 820 C 408 806 412 801 417 811 C 422 825 427 825 432 816 C 432 811 436 806 446 806 C 465 801 484 820 480 844 C 480 854 480 859 480 864 C 441 864 403 864 364 864 C 307 864 249 864 244 864 C 225 859 225 830 240 816 C 249 806 249 801 316 806 C 355 806 388 806 393 811 M 504 835 C 504 859 489 864 489 840 C 489 830 494 820 494 816 C 504 811 508 816 504 835 M 225 849 C 225 859 211 868 201 864 C 196 859 196 859 206 849 C 216 835 225 840 225 849 M 139 883 C 134 883 134 897 134 912 C 129 916 129 926 129 931 C 120 931 110 931 100 931 C 91 931 81 931 72 931 C 72 921 72 912 72 902 C 72 892 72 883 67 868 C 81 873 91 873 105 873 C 134 873 139 873 139 883 M 201 873 C 201 878 201 883 196 888 C 192 892 187 902 182 912 C 172 936 163 940 163 921 C 163 902 182 873 196 873 C 201 873 201 873 201 873 M 470 883 C 470 888 470 892 475 892 C 480 897 484 902 484 916 C 484 921 484 926 484 936 C 456 936 427 936 403 936 C 374 936 345 936 321 936 C 316 926 316 921 312 916 C 307 907 302 892 292 883 C 292 878 288 873 283 873 C 316 873 345 873 374 873 C 465 873 470 873 470 883 M 763 902 C 763 912 763 921 763 931 C 753 931 739 931 729 936 C 710 936 700 936 705 936 C 715 940 715 940 705 955 C 700 960 696 969 696 979 C 696 984 696 993 696 998 C 633 998 576 998 518 998 C 312 1003 278 998 297 988 C 302 984 307 969 312 960 C 312 955 316 945 316 940 C 374 940 427 940 480 936 C 571 936 614 936 580 936 C 542 931 508 931 504 931 C 494 931 489 897 494 888 C 504 883 508 888 508 907 C 508 931 518 926 518 902 C 518 888 523 878 528 873 C 528 873 585 873 648 873 C 686 873 724 873 763 873 C 763 883 763 892 763 902 M 278 912 C 292 926 288 936 268 936 C 249 936 244 926 244 902 C 244 892 264 897 278 912 M 235 912 C 240 931 240 936 220 936 C 201 936 196 926 206 912 C 216 897 230 897 235 912 M 144 955 C 148 964 158 979 163 984 C 177 998 168 1003 115 998 C 100 998 86 998 72 998 C 72 988 72 984 72 974 C 67 940 72 940 100 940 C 129 940 129 940 144 955 M 182 940 C 182 945 182 950 192 960 C 192 960 196 964 201 969 C 196 964 196 960 196 955 C 196 940 196 940 216 940 C 225 940 230 940 240 940 C 240 950 244 960 244 964 C 254 998 254 998 225 998 C 192 998 153 964 163 945 C 163 936 177 936 182 940 M 292 945 C 292 979 264 1003 254 979 C 244 950 249 940 273 940 C 292 940 292 940 292 945 M 763 955 C 763 969 729 998 710 998 C 705 998 705 979 715 969 C 729 950 763 940 763 955 M 388 1372 C 398 1377 398 1392 388 1396 C 379 1396 379 1425 388 1425 C 388 1425 393 1425 393 1430 C 393 1430 369 1435 336 1435 C 288 1435 283 1430 283 1420 C 278 1416 268 1401 264 1392 C 254 1382 249 1377 249 1372 C 254 1368 379 1368 388 1372 M 220 1392 C 230 1401 240 1411 240 1420 C 244 1430 244 1435 225 1435 C 211 1435 201 1430 201 1425 C 201 1425 192 1420 182 1416 C 163 1406 163 1396 182 1387 C 196 1377 206 1377 220 1392 M 148 1449 C 153 1454 168 1464 177 1464 C 182 1464 192 1454 196 1449 C 225 1420 244 1440 235 1473 C 230 1483 230 1492 225 1497 C 201 1497 172 1497 148 1497 C 120 1497 96 1497 72 1497 C 72 1492 72 1483 72 1473 C 72 1440 72 1440 110 1440 C 124 1440 134 1440 148 1449 M 393 1449 C 393 1449 393 1459 388 1468 C 384 1473 379 1488 379 1492 C 379 1497 374 1497 321 1497 C 264 1497 254 1497 268 1488 C 268 1483 273 1473 278 1464 C 283 1444 283 1444 312 1440 C 345 1440 388 1440 393 1449 M 504 1464 C 504 1478 504 1488 499 1488 C 494 1488 489 1478 489 1468 C 489 1454 489 1449 489 1449 C 484 1449 484 1454 484 1468 C 484 1492 475 1497 451 1497 C 432 1497 422 1488 432 1483 C 441 1478 441 1459 436 1454 C 427 1444 436 1444 470 1444 C 484 1444 494 1444 504 1444 C 504 1449 504 1459 504 1464 M 696 1473 C 696 1483 696 1492 696 1497 C 686 1497 681 1497 672 1497 C 662 1497 657 1502 657 1507 C 657 1507 662 1512 667 1507 C 691 1507 696 1507 696 1536 C 696 1560 691 1564 686 1564 C 681 1564 681 1569 681 1569 C 681 1574 681 1574 686 1574 C 691 1574 696 1584 696 1603 C 696 1612 696 1627 696 1636 C 662 1636 628 1636 595 1636 C 556 1636 523 1636 489 1636 C 489 1627 489 1617 489 1612 C 489 1598 494 1588 499 1588 C 504 1588 504 1598 504 1608 C 504 1617 508 1627 508 1627 C 513 1627 518 1617 518 1608 C 518 1584 523 1574 537 1574 C 542 1574 552 1574 552 1569 C 552 1569 552 1564 542 1564 C 537 1564 532 1564 532 1560 C 532 1555 528 1550 523 1550 C 518 1550 518 1540 518 1531 C 518 1521 518 1516 518 1507 C 532 1507 552 1507 566 1507 C 595 1507 624 1507 628 1502 C 633 1502 619 1502 580 1502 C 532 1497 532 1497 532 1492 C 532 1488 528 1478 523 1478 C 518 1473 518 1464 518 1454 C 518 1449 518 1444 518 1444 C 547 1444 576 1444 604 1444 C 633 1444 662 1444 696 1444 C 696 1454 696 1464 696 1473 M 758 1488 C 758 1492 753 1497 744 1497 C 724 1502 720 1492 734 1488 C 748 1478 763 1478 758 1488 M 744 1507 C 748 1507 744 1512 744 1516 C 734 1526 710 1531 705 1521 C 696 1512 720 1502 744 1507 M 504 1540 C 504 1550 504 1560 499 1560 C 494 1560 494 1550 494 1540 C 489 1521 494 1516 499 1516 C 504 1516 508 1521 504 1540 M 3792 9 C 3792 9 3787 33 3787 57 C 3787 72 3787 86 3787 100 C 3758 100 3724 100 3696 100 C 3662 100 3628 100 3600 100 C 3600 96 3595 91 3595 86 C 3595 67 3595 67 3576 67 C 3571 67 3566 72 3561 72 C 3561 62 3561 52 3561 43 C 3561 24 3556 9 3556 9 C 3552 9 3547 28 3547 57 C 3547 72 3547 86 3547 100 C 3542 105 3532 105 3523 105 C 3513 105 3508 105 3499 105 C 3508 105 3513 105 3523 105 C 3547 110 3547 110 3547 129 C 3547 134 3552 139 3552 148 C 3556 148 3561 144 3571 144 C 3585 144 3590 144 3585 153 C 3585 158 3585 163 3585 168 C 3571 168 3552 168 3537 168 C 3523 168 3504 168 3489 168 C 3489 158 3489 148 3489 134 C 3489 110 3489 100 3480 100 C 3475 100 3475 110 3475 134 C 3480 168 3480 172 3465 172 C 3456 172 3451 168 3451 144 C 3451 120 3456 110 3460 110 C 3470 105 3460 105 3427 105 C 3388 105 3384 105 3412 105 C 3422 110 3432 110 3441 110 C 3441 120 3441 129 3441 139 C 3441 148 3446 158 3446 168 C 3350 172 3259 172 3163 172 C 3072 172 2976 172 2884 172 C 2976 172 3072 172 3163 172 C 3259 172 3350 172 3446 177 C 3446 187 3446 196 3446 206 C 3446 216 3446 225 3446 235 C 3364 240 3283 240 3201 240 C 3124 240 3043 240 2961 240 C 3043 240 3120 240 3201 240 C 3283 240 3364 240 3441 244 C 3441 249 3446 254 3446 259 C 3446 268 3446 283 3446 292 C 3446 297 3441 302 3441 302 C 3369 307 3302 307 3230 307 C 3158 307 3086 307 3014 307 C 3086 307 3158 307 3230 307 C 3302 307 3369 307 3441 307 C 3441 316 3446 326 3446 336 C 3446 350 3446 364 3441 364 C 3436 369 3436 379 3446 379 C 3456 379 3456 374 3456 345 C 3451 312 3451 307 3465 307 C 3475 307 3480 312 3480 336 C 3480 350 3475 369 3470 369 C 3465 374 3470 379 3480 379 C 3494 379 3499 374 3494 369 C 3489 369 3484 350 3484 336 C 3484 326 3484 316 3484 307 C 3508 307 3532 307 3556 307 C 3580 307 3604 307 3628 307 C 3604 307 3580 307 3561 307 C 3537 302 3513 302 3489 302 C 3489 292 3489 288 3484 278 C 3484 240 3480 240 3580 244 C 3604 244 3633 244 3662 244 C 3662 254 3667 264 3667 273 C 3667 292 3667 297 3662 297 C 3657 297 3657 302 3657 302 C 3657 307 3662 307 3667 307 C 3676 307 3676 307 3676 278 C 3676 264 3676 254 3676 244 C 3681 244 3686 244 3691 244 C 3700 244 3705 249 3705 249 C 3705 254 3705 264 3705 273 C 3705 278 3705 288 3705 292 C 3715 288 3720 278 3729 273 C 3739 268 3753 254 3758 249 C 3763 244 3772 244 3820 244 C 3840 244 3859 244 3873 244 C 3873 249 3878 259 3878 268 C 3878 302 3883 302 3796 302 C 3763 302 3734 302 3734 307 C 3734 307 3763 307 3801 307 C 3849 307 3878 312 3878 316 C 3883 316 3883 316 3888 316 C 3888 312 3926 307 3993 307 C 4027 307 4065 307 4099 307 C 4104 316 4108 321 4118 326 C 4137 345 4142 345 4137 331 C 4123 312 4128 307 4200 307 C 4219 307 4243 307 4267 307 C 4267 316 4267 326 4267 336 C 4267 355 4262 364 4257 364 C 4257 364 4252 369 4252 374 C 4252 374 4262 379 4267 379 C 4276 379 4276 374 4276 340 C 4276 331 4272 321 4272 307 C 4286 307 4296 307 4310 307 C 4406 307 4425 307 4430 312 C 4435 312 4435 336 4435 360 C 4435 364 4425 364 4416 364 C 4406 364 4401 369 4401 374 C 4401 374 4411 379 4416 379 C 4430 379 4435 379 4435 388 C 4440 393 4440 398 4440 403 C 4440 398 4440 393 4440 388 C 4440 379 4444 379 4449 379 C 4459 379 4459 374 4459 374 C 4459 369 4459 364 4449 364 C 4444 364 4444 364 4444 340 C 4444 302 4435 307 4540 307 C 4569 307 4598 307 4627 312 C 4627 321 4627 331 4627 336 C 4632 374 4632 374 4536 369 C 4488 364 4464 369 4464 369 C 4464 374 4492 379 4545 379 C 4574 379 4598 379 4627 379 C 4627 388 4627 398 4632 408 C 4632 417 4632 427 4632 436 C 4632 427 4632 417 4632 408 C 4632 398 4632 388 4636 379 C 4656 374 4680 374 4704 374 C 4728 374 4752 374 4776 374 C 4752 374 4732 374 4708 374 C 4632 369 4632 369 4636 336 C 4636 326 4636 316 4636 307 C 4660 307 4684 307 4713 307 C 4795 307 4795 307 4795 345 C 4795 360 4790 364 4785 364 C 4780 364 4780 369 4780 374 C 4780 374 4780 379 4785 379 C 4795 379 4800 374 4800 240 C 4800 196 4800 148 4800 105 C 4632 100 4464 100 4300 100 C 4132 100 3969 100 3801 100 C 3801 86 3801 67 3801 52 C 3796 28 3796 9 3792 9 M 3590 96 C 3590 100 3585 100 3576 100 C 3561 100 3556 96 3566 91 C 3576 86 3590 91 3590 96 M 3624 139 C 3624 148 3624 158 3624 172 C 3624 172 3619 168 3614 168 C 3590 168 3590 105 3614 105 C 3624 105 3624 110 3624 139 M 3705 120 C 3705 124 3705 139 3705 148 C 3705 153 3705 163 3705 168 C 3696 168 3686 168 3676 168 C 3643 168 3638 163 3638 129 C 3638 110 3638 105 3672 105 C 3700 105 3705 110 3705 120 M 3787 139 C 3787 148 3787 158 3787 172 C 3777 172 3768 168 3753 168 C 3739 168 3729 168 3720 168 C 3720 158 3720 148 3720 144 C 3720 105 3715 105 3758 105 C 3768 105 3777 105 3787 105 C 3787 120 3787 129 3787 139 M 4281 110 C 4281 115 4281 120 4272 129 C 4267 139 4267 148 4267 158 C 4267 163 4267 168 4267 172 C 4248 172 4228 172 4209 172 C 4190 172 4171 172 4156 172 C 4152 163 4147 158 4142 153 C 4128 139 4118 129 4123 144 C 4123 144 4128 153 4128 158 C 4128 163 4128 168 4132 172 C 4089 172 4051 172 4012 172 C 3969 172 3931 172 3888 172 C 3888 168 3888 163 3888 158 C 3883 139 3878 139 3878 158 C 3878 168 3873 172 3849 172 C 3825 172 3825 172 3840 148 C 3849 139 3849 129 3849 120 C 3849 115 3849 110 3844 105 C 3921 105 3993 105 4065 105 C 4185 105 4281 110 4281 110 M 4790 110 C 4795 177 4809 172 4651 172 C 4608 172 4564 172 4521 172 C 4516 168 4516 163 4512 158 C 4502 134 4478 134 4449 158 C 4430 168 4430 172 4382 172 C 4329 172 4329 168 4339 148 C 4344 139 4344 129 4344 120 C 4344 115 4344 110 4339 105 C 4416 105 4488 105 4564 105 C 4689 105 4790 110 4790 110 M 3830 129 C 3830 139 3820 153 3811 163 C 3806 168 3801 153 3801 139 C 3801 129 3801 120 3806 120 C 3820 110 3830 115 3830 129 M 3480 206 C 3480 235 3475 240 3465 235 C 3451 235 3446 177 3465 177 C 3475 177 3480 177 3480 206 M 3585 187 C 3590 201 3595 201 3600 187 C 3600 182 3604 177 3614 177 C 3619 177 3624 172 3628 172 C 3624 182 3624 196 3624 206 C 3624 216 3624 225 3624 235 C 3600 235 3580 235 3556 235 C 3532 235 3513 235 3489 235 C 3489 230 3489 225 3489 220 C 3484 211 3484 211 3518 211 C 3556 211 3561 206 3561 192 C 3561 172 3585 168 3585 187 M 3705 192 C 3705 220 3705 240 3696 240 C 3676 240 3667 216 3676 187 C 3681 168 3700 172 3705 192 M 3792 182 C 3796 192 3796 192 3801 182 C 3811 177 3820 177 3844 177 C 3854 177 3864 177 3878 177 C 3878 187 3878 196 3878 206 C 3878 216 3878 225 3878 240 C 3859 240 3840 240 3820 240 C 3806 240 3787 240 3768 240 C 3768 235 3768 230 3763 225 C 3758 211 3753 206 3729 206 C 3720 211 3720 206 3720 192 C 3720 187 3720 182 3720 177 C 3729 177 3739 177 3753 177 C 3782 177 3787 177 3792 182 M 4128 182 C 4128 187 4123 201 4118 211 C 4113 220 4108 230 4108 235 C 4108 240 3892 240 3888 230 C 3883 220 3883 201 3888 187 C 3888 182 3892 177 3892 177 C 3931 177 3969 177 4012 177 C 4123 177 4128 177 4128 182 M 4267 206 C 4267 216 4267 225 4267 240 C 4248 240 4228 240 4209 240 C 4147 240 4147 235 4166 211 C 4171 201 4171 196 4171 187 C 4171 182 4171 177 4166 177 C 4185 177 4200 177 4214 177 C 4233 177 4248 177 4267 177 C 4267 187 4267 196 4267 206 M 4430 182 C 4435 187 4435 216 4435 230 C 4435 235 4425 240 4353 235 C 4329 235 4300 235 4276 235 C 4276 225 4276 220 4276 211 C 4272 172 4272 177 4353 177 C 4411 177 4430 177 4430 182 M 4651 177 C 4651 177 4646 182 4641 187 C 4636 192 4632 206 4627 216 C 4627 225 4627 230 4622 240 C 4593 235 4564 235 4536 235 C 4502 235 4473 235 4444 235 C 4444 230 4444 225 4444 220 C 4444 206 4444 206 4459 206 C 4478 211 4497 201 4507 182 C 4512 177 4521 177 4584 177 C 4617 177 4651 177 4651 177 M 4790 182 C 4795 192 4795 211 4790 225 C 4785 235 4785 240 4737 240 C 4713 240 4689 235 4689 235 C 4689 235 4694 225 4699 216 C 4704 206 4704 196 4704 187 C 4704 182 4704 177 4699 177 C 4713 177 4728 177 4742 177 C 4780 177 4785 177 4790 182 M 3662 201 C 3662 216 3657 225 3643 225 C 3638 225 3638 196 3643 192 C 3652 182 3662 192 3662 201 M 3748 225 C 3748 230 3734 240 3724 240 C 3715 240 3715 220 3724 216 C 3729 216 3748 220 3748 225 M 3475 273 C 3475 297 3475 302 3465 302 C 3456 302 3456 297 3456 278 C 3451 249 3456 240 3465 244 C 3475 244 3475 249 3475 273 M 3739 244 C 3739 249 3724 264 3720 264 C 3715 264 3715 249 3720 244 C 3724 240 3739 240 3739 244 M 4128 254 C 4142 273 4142 273 4128 273 C 4123 273 4113 283 4104 292 C 4104 297 4099 302 4094 307 C 4060 307 4032 302 4003 302 C 3912 302 3907 302 3926 288 C 3931 283 3936 268 3936 259 C 3936 254 3940 249 3940 244 C 3969 244 3998 244 4027 244 C 4056 244 4084 244 4113 244 C 4118 244 4123 249 4128 254 M 4267 268 C 4267 278 4267 288 4267 297 C 4257 297 4252 302 4248 302 C 4204 307 4176 307 4166 292 C 4166 288 4156 273 4152 268 C 4142 244 4142 244 4209 244 C 4228 244 4248 244 4267 244 C 4267 249 4267 259 4267 268 M 4435 268 C 4435 278 4435 288 4435 297 C 4406 297 4382 297 4353 297 C 4329 297 4300 297 4272 302 C 4272 292 4272 283 4272 273 C 4272 259 4276 249 4276 244 C 4281 244 4315 244 4358 244 C 4382 244 4411 244 4435 244 C 4435 254 4435 264 4435 268 M 4627 259 C 4627 268 4632 278 4627 288 C 4627 292 4627 297 4627 302 C 4603 302 4579 302 4555 302 C 4512 302 4468 302 4459 302 C 4454 302 4449 302 4444 297 C 4444 292 4444 283 4444 273 C 4444 259 4444 249 4444 244 C 4449 244 4488 244 4536 244 C 4564 244 4593 244 4622 244 C 4627 249 4627 254 4627 259 M 4790 249 C 4790 254 4795 264 4795 278 C 4795 302 4780 307 4704 302 C 4680 302 4660 302 4636 302 C 4636 292 4636 288 4636 278 C 4632 240 4632 244 4713 244 C 4776 244 4785 244 4790 249 M 3912 264 C 3916 278 3897 302 3892 297 C 3883 292 3888 254 3897 249 C 3907 244 3912 249 3912 264 M 1728 72 C 1728 81 1728 91 1728 100 C 1689 105 1651 105 1612 105 C 1545 105 1507 105 1521 105 C 1536 110 1545 110 1555 110 C 1555 120 1555 129 1555 139 C 1560 158 1555 168 1550 168 C 1545 172 1545 172 1550 177 C 1555 182 1560 187 1555 211 C 1555 216 1555 225 1555 235 C 1545 235 1536 235 1526 240 C 1516 240 1507 240 1497 240 C 1507 240 1516 240 1526 244 C 1536 244 1545 244 1555 244 C 1555 254 1555 264 1555 268 C 1560 292 1555 297 1550 302 C 1545 307 1545 307 1550 312 C 1560 316 1560 360 1550 369 C 1545 374 1550 374 1564 374 C 1574 374 1579 374 1574 374 C 1560 369 1555 326 1569 312 C 1574 307 1574 307 1569 302 C 1564 302 1560 292 1564 273 C 1564 264 1564 254 1564 244 C 1584 244 1603 244 1622 244 C 1680 240 1684 244 1670 264 C 1665 268 1660 278 1660 288 C 1660 302 1660 302 1646 307 C 1636 307 1680 307 1747 307 C 1785 307 1824 307 1862 307 C 1867 312 1867 316 1867 321 C 1872 345 1905 350 1934 321 C 1939 316 1944 312 1948 307 C 1972 307 1996 307 2016 307 C 2097 307 2097 312 2083 326 C 2078 336 2078 345 2078 355 C 2078 369 2073 369 2064 374 C 2059 374 2078 374 2102 374 C 2131 374 2150 374 2145 374 C 2136 369 2136 369 2145 355 C 2150 345 2150 336 2150 326 C 2150 321 2155 312 2160 312 C 2160 307 2160 307 2160 302 C 2150 297 2150 249 2160 244 C 2160 244 2160 240 2160 235 C 2155 230 2155 216 2155 201 C 2155 196 2155 187 2155 177 C 2188 177 2222 177 2256 177 C 2289 177 2323 177 2352 172 C 2352 187 2352 196 2352 206 C 2352 216 2352 225 2352 240 C 2328 240 2304 240 2280 240 C 2256 240 2232 240 2208 240 C 2232 240 2256 240 2280 240 C 2304 244 2328 244 2352 244 C 2352 254 2352 264 2352 273 C 2352 283 2352 292 2352 302 C 2342 302 2337 302 2332 307 C 2323 307 2318 307 2308 307 C 2318 307 2323 307 2332 307 C 2337 307 2347 307 2352 307 C 2352 316 2352 321 2352 326 C 2352 340 2352 345 2342 340 C 2328 336 2294 350 2294 360 C 2294 360 2289 364 2284 369 C 2275 374 2275 374 2280 379 C 2284 379 2289 384 2289 388 C 2289 412 2328 412 2352 388 C 2356 384 2361 379 2366 379 C 2419 379 2467 379 2520 379 C 2664 379 2688 379 2673 388 C 2659 398 2664 422 2683 432 C 2712 446 2716 441 2702 422 C 2692 398 2697 384 2716 384 C 2736 384 2750 412 2736 427 C 2726 436 2736 441 2755 432 C 2774 422 2779 408 2764 384 C 2764 379 2760 374 2760 374 C 2716 374 2673 374 2635 374 C 2592 374 2548 374 2510 374 C 2510 360 2510 350 2510 340 C 2510 331 2510 321 2510 312 C 2539 307 2572 307 2606 307 C 2640 307 2673 307 2707 307 C 2673 307 2640 307 2606 307 C 2572 307 2539 307 2505 302 C 2510 292 2510 283 2510 273 C 2510 264 2510 254 2510 244 C 2544 244 2572 244 2606 240 C 2640 240 2668 240 2702 240 C 2668 240 2640 240 2606 240 C 2572 240 2539 240 2510 240 C 2510 225 2510 216 2510 206 C 2510 196 2510 187 2510 177 C 2544 172 2582 172 2620 172 C 2659 172 2697 172 2736 172 C 2697 172 2659 172 2620 172 C 2582 172 2548 172 2510 172 C 2510 163 2505 153 2505 144 C 2505 105 2500 105 2558 110 C 2587 110 2620 110 2635 110 C 2649 105 2558 105 2433 105 C 2289 105 2260 105 2352 105 C 2400 105 2448 105 2500 110 C 2500 120 2500 129 2500 139 C 2500 148 2500 158 2500 172 C 2476 172 2452 172 2433 172 C 2409 172 2385 172 2366 172 C 2366 168 2366 163 2366 158 C 2366 153 2361 144 2356 144 C 2356 144 2352 148 2352 153 C 2352 158 2352 168 2352 172 C 2323 168 2289 168 2256 168 C 2222 168 2188 168 2155 168 C 2155 158 2155 148 2155 144 C 2155 129 2155 115 2160 110 C 2164 105 2160 100 2150 100 C 2140 100 2140 105 2145 115 C 2150 129 2150 163 2145 168 C 2140 168 2140 182 2145 196 C 2150 216 2150 225 2145 230 C 2140 240 2140 244 2145 244 C 2145 249 2145 264 2145 278 C 2145 283 2145 292 2145 302 C 2112 302 2078 302 2049 302 C 2016 302 1982 302 1948 302 C 1948 283 1948 259 1948 240 C 1948 182 1948 177 1958 177 C 1963 172 1963 172 1968 172 C 1963 172 1963 172 1958 172 C 1948 172 1948 168 1948 144 C 1948 110 1944 110 2006 105 C 2044 105 2040 105 1996 105 C 1948 105 1948 100 1948 91 C 1948 86 1944 76 1939 76 C 1939 76 1934 81 1934 86 C 1934 91 1934 96 1934 100 C 1905 100 1872 100 1838 100 C 1804 100 1771 100 1742 100 C 1742 91 1742 81 1742 72 C 1742 52 1737 38 1737 38 C 1732 38 1728 52 1728 72 M 1728 139 C 1728 148 1728 158 1728 172 C 1704 172 1680 172 1651 172 C 1627 172 1598 172 1574 172 C 1598 172 1627 172 1651 172 C 1680 172 1704 172 1728 177 C 1728 187 1728 196 1728 206 C 1728 216 1728 225 1728 240 C 1704 240 1675 240 1651 240 C 1579 240 1569 235 1564 230 C 1560 216 1560 182 1569 177 C 1569 172 1569 172 1569 168 C 1560 163 1560 129 1564 115 C 1569 110 1579 105 1651 105 C 1675 105 1704 105 1728 105 C 1728 120 1728 129 1728 139 M 1934 139 C 1934 148 1934 158 1939 172 C 1905 172 1872 172 1838 172 C 1804 172 1771 172 1742 172 C 1742 158 1742 148 1742 139 C 1742 129 1742 120 1742 105 C 1771 110 1804 110 1838 110 C 1872 110 1900 110 1934 110 C 1934 120 1934 129 1934 139 M 1934 206 C 1934 216 1934 225 1939 240 C 1905 240 1872 240 1838 240 C 1804 240 1771 240 1742 240 C 1742 230 1742 220 1742 211 C 1742 192 1742 182 1742 177 C 1747 177 1790 177 1838 177 C 1872 177 1900 177 1934 177 C 1934 187 1934 196 1934 206 M 2500 206 C 2500 216 2500 225 2500 240 C 2476 240 2452 240 2433 240 C 2409 240 2385 240 2366 240 C 2366 225 2366 216 2366 206 C 2366 196 2366 187 2366 177 C 2385 177 2409 177 2433 177 C 2452 177 2476 177 2500 177 C 2500 187 2500 196 2500 206 M 1934 259 C 1934 273 1934 273 1920 273 C 1900 273 1886 283 1876 297 C 1872 302 1862 302 1795 302 C 1723 302 1713 302 1732 288 C 1737 283 1742 273 1742 264 C 1742 240 1737 244 1843 244 C 1872 244 1905 244 1934 244 C 1934 249 1934 254 1934 259 M 2500 273 C 2500 283 2500 292 2500 307 C 2476 302 2452 302 2433 302 C 2409 302 2390 302 2366 302 C 2366 292 2366 283 2366 273 C 2366 264 2366 254 2361 244 C 2385 244 2409 244 2428 244 C 2452 244 2476 244 2500 244 C 2500 254 2500 264 2500 273 M 2500 340 C 2500 350 2500 360 2500 374 C 2476 374 2452 374 2433 374 C 2409 374 2385 374 2366 374 C 2366 360 2366 350 2366 340 C 2366 331 2366 321 2366 307 C 2385 307 2409 307 2433 307 C 2452 307 2476 307 2500 307 C 2500 321 2500 331 2500 340 M 648 105 C 667 105 691 105 710 105 C 724 105 710 105 681 105 C 648 105 633 105 648 105 M 907 105 C 984 105 1104 105 1180 105 C 1252 105 1195 105 1046 105 C 892 105 835 105 907 105 M 2995 105 C 3057 105 3148 105 3206 105 C 3264 105 3216 105 3100 105 C 2985 105 2937 105 2995 105 M 921 153 C 907 168 902 168 859 172 C 844 172 830 172 816 172 C 830 172 844 172 859 172 C 873 172 888 172 902 177 C 902 182 907 192 907 196 C 907 240 907 235 859 240 C 844 240 830 240 816 240 C 830 240 844 240 859 240 C 873 240 888 240 907 244 C 907 249 907 249 907 254 C 907 264 907 278 907 288 C 907 297 907 302 897 302 C 888 307 888 307 897 312 C 907 312 907 336 907 364 C 907 369 888 374 859 374 C 844 374 830 374 816 374 C 830 374 844 374 859 374 C 902 379 907 379 912 393 C 912 408 916 398 916 307 C 916 288 916 264 916 244 C 950 244 984 244 1017 244 C 1056 244 1089 244 1123 244 C 1123 254 1123 264 1123 273 C 1123 283 1128 292 1128 302 C 1099 307 1075 307 1046 307 C 1022 307 993 307 969 307 C 993 307 1022 307 1046 307 C 1075 307 1099 307 1128 307 C 1128 321 1128 331 1128 340 C 1128 350 1128 360 1128 369 C 1099 374 1070 374 1046 374 C 1017 374 993 374 964 374 C 993 374 1017 374 1046 374 C 1070 374 1099 374 1128 379 C 1128 388 1128 398 1128 408 C 1128 427 1128 441 1132 441 C 1132 441 1132 427 1132 412 C 1132 398 1132 384 1132 384 C 1132 379 1161 379 1238 379 C 1272 379 1305 379 1339 379 C 1339 393 1339 408 1339 422 C 1339 446 1344 470 1344 470 C 1348 470 1353 456 1353 427 C 1353 408 1353 393 1353 379 C 1358 374 1363 374 1368 374 C 1372 374 1377 374 1382 374 C 1377 374 1372 374 1368 374 C 1363 374 1358 374 1353 374 C 1353 360 1353 350 1353 340 C 1353 331 1353 321 1353 312 C 1358 307 1368 307 1377 307 C 1387 307 1392 307 1401 307 C 1392 307 1387 307 1377 307 C 1368 307 1358 307 1353 302 C 1353 297 1353 292 1353 288 C 1353 273 1353 273 1363 273 C 1377 278 1396 268 1416 254 C 1425 240 1425 240 1420 225 C 1406 201 1377 201 1353 225 C 1348 230 1339 240 1329 240 C 1320 240 1320 240 1329 240 C 1339 244 1339 244 1339 273 C 1339 283 1339 292 1339 307 C 1305 302 1272 302 1238 302 C 1200 302 1166 302 1132 302 C 1132 292 1132 283 1132 273 C 1132 264 1132 254 1132 244 C 1161 244 1195 244 1224 240 C 1310 240 1310 240 1252 240 C 1214 240 1190 235 1190 235 C 1190 235 1190 225 1195 220 C 1200 216 1204 201 1200 192 C 1200 187 1200 182 1200 177 C 1219 177 1238 177 1262 172 C 1296 172 1257 172 1152 172 C 1017 172 988 168 988 163 C 988 139 945 134 921 153 M 1147 177 C 1147 177 1142 187 1137 192 C 1128 201 1123 211 1123 220 C 1123 225 1123 230 1123 235 C 1089 235 1051 235 1017 235 C 984 235 950 235 912 240 C 912 230 916 225 916 220 C 916 206 916 206 936 206 C 950 211 955 206 969 192 C 974 187 984 182 988 177 C 1012 177 1041 177 1065 177 C 1108 177 1147 177 1147 177 M 1339 340 C 1339 350 1339 360 1339 374 C 1305 374 1272 374 1238 374 C 1123 374 1132 374 1132 336 C 1128 307 1128 307 1238 307 C 1272 307 1305 307 1339 307 C 1339 321 1339 331 1339 340 M 1449 172 C 1464 172 1478 172 1488 172 C 1497 172 1488 172 1468 172 C 1449 172 1440 172 1449 172 M 1411 374 C 1420 374 1435 374 1444 374 C 1454 374 1449 374 1425 374 C 1406 374 1401 374 1411 374 M 1728 374 C 1785 374 1886 374 1944 374 C 2006 374 1958 374 1838 374 C 1713 374 1665 374 1728 374 M 3096 374 C 3158 374 3259 374 3321 374 C 3384 374 3331 374 3206 374 C 3081 374 3033 374 3096 374 M 3806 374 C 3844 374 3916 374 3960 374 C 4003 374 3969 374 3883 374 C 3796 374 3763 374 3806 374 M 4065 374 C 4084 374 4108 374 4123 374 C 4137 374 4128 374 4094 374 C 4060 374 4051 374 4065 374 M 182 427 C 153 456 206 504 244 484 C 249 480 244 480 230 480 C 211 484 211 480 225 460 C 249 432 211 403 182 427 M 3552 643 C 3552 643 3547 667 3547 691 C 3547 705 3547 715 3547 729 C 3542 734 3532 734 3528 734 C 3518 734 3513 734 3504 734 C 3513 734 3518 734 3528 734 C 3532 734 3542 734 3547 739 C 3547 744 3547 748 3547 758 C 3547 763 3547 768 3547 777 C 3556 777 3561 772 3566 772 C 3590 772 3595 792 3576 796 C 3576 801 3571 801 3566 801 C 3571 801 3576 801 3576 801 C 3585 801 3590 806 3590 811 C 3590 820 3590 820 3590 820 C 3595 820 3595 820 3595 816 C 3595 811 3600 806 3604 806 C 3609 801 3609 801 3604 796 C 3600 792 3595 787 3600 763 C 3600 739 3600 739 3614 739 C 3624 734 3624 734 3624 768 C 3624 787 3624 801 3619 801 C 3614 801 3614 801 3619 801 C 3624 801 3624 811 3624 830 C 3624 840 3624 849 3624 859 C 3614 859 3604 864 3595 864 C 3556 868 3508 868 3494 864 C 3489 859 3484 854 3484 830 C 3484 825 3484 816 3484 806 C 3499 801 3513 801 3528 801 C 3542 801 3552 801 3566 801 C 3552 801 3542 801 3528 801 C 3513 801 3499 801 3484 796 C 3484 792 3484 782 3484 772 C 3484 748 3489 739 3494 739 C 3499 734 3494 734 3480 734 C 3460 734 3456 734 3465 739 C 3484 744 3484 796 3465 796 C 3456 796 3451 796 3451 763 C 3451 753 3451 744 3451 734 C 3369 734 3288 734 3201 734 C 3120 734 3033 734 2952 734 C 3033 734 3115 734 3196 739 C 3331 739 3441 739 3441 739 C 3441 739 3446 753 3446 768 C 3446 777 3446 787 3446 796 C 3436 801 3427 801 3417 801 C 3408 801 3398 801 3388 801 C 3398 801 3408 801 3417 801 C 3427 801 3436 801 3446 801 C 3446 816 3441 825 3441 835 C 3441 844 3441 854 3441 864 C 3379 864 3321 864 3259 864 C 3048 868 3048 868 3048 849 C 3048 835 3048 835 3067 835 C 3086 835 3091 830 3105 820 C 3110 816 3115 811 3120 806 C 3158 801 3201 801 3240 801 C 3278 801 3321 801 3360 801 C 3321 801 3278 801 3240 801 C 3196 801 3158 801 3120 796 C 3120 796 3115 792 3115 787 C 3110 768 3076 763 3052 782 C 3028 806 2966 806 2966 787 C 2966 782 2961 772 2961 772 C 2956 772 2952 782 2952 787 C 2952 796 2952 796 2908 801 C 2894 801 2880 801 2865 801 C 2880 801 2894 801 2908 801 C 2923 806 2937 806 2952 806 C 2952 816 2952 825 2952 835 C 2952 844 2952 854 2952 864 C 2918 864 2884 864 2851 864 C 2817 864 2784 864 2745 868 C 2745 864 2745 859 2745 854 C 2745 835 2736 830 2697 835 C 2688 835 2673 835 2664 835 C 2664 840 2664 844 2664 849 C 2664 854 2659 859 2659 864 C 2635 864 2611 864 2587 864 C 2539 864 2510 864 2505 864 C 2505 859 2505 844 2505 830 C 2505 820 2510 811 2510 801 C 2548 801 2587 801 2625 801 C 2664 801 2702 801 2740 801 C 2702 801 2664 801 2625 801 C 2515 796 2505 796 2505 787 C 2505 782 2505 768 2505 758 C 2510 739 2510 739 2524 734 C 2534 734 2486 734 2414 734 C 2284 734 2284 734 2390 734 C 2424 734 2462 734 2500 739 C 2500 748 2500 758 2500 768 C 2500 777 2500 787 2500 796 C 2452 801 2404 801 2361 801 C 2313 801 2270 801 2222 801 C 2270 801 2313 801 2361 801 C 2404 801 2452 801 2500 801 C 2496 816 2496 825 2496 835 C 2496 844 2496 854 2496 864 C 2462 864 2424 864 2385 868 C 2352 868 2318 868 2280 868 C 2318 868 2352 868 2390 868 C 2424 868 2462 868 2500 873 C 2500 883 2500 892 2500 902 C 2500 912 2500 921 2500 931 C 2467 936 2438 936 2404 936 C 2376 936 2342 936 2313 936 C 2342 936 2376 936 2404 936 C 2438 936 2467 936 2500 940 C 2500 950 2500 960 2500 969 C 2500 979 2500 988 2500 998 C 2448 1003 2400 1003 2352 1003 C 2270 1003 2347 1003 2520 1003 C 2692 1003 2764 1003 2673 1003 C 2616 1003 2563 1003 2510 998 C 2510 993 2505 984 2505 979 C 2505 936 2491 940 2644 936 C 2688 936 2736 936 2779 936 C 2736 936 2688 936 2644 936 C 2596 936 2553 936 2510 936 C 2510 921 2510 912 2510 902 C 2510 892 2510 883 2510 873 C 2582 873 2659 873 2731 873 C 2808 873 2880 873 2956 873 C 2952 883 2952 892 2952 902 C 2952 912 2952 921 2952 931 C 2942 931 2932 931 2923 936 C 2913 936 2904 936 2894 936 C 2904 936 2913 936 2923 936 C 2942 936 2952 940 2956 945 C 2956 950 2961 950 2966 945 C 2980 936 3033 936 3038 945 C 3038 1003 3043 998 3000 1003 C 2990 1003 2976 1003 2966 1003 C 2976 1003 2990 1003 3000 1003 C 3014 1003 3024 1003 3033 1003 C 3038 1012 3038 1022 3038 1032 C 3043 1075 3043 1075 3043 1036 C 3043 1027 3043 1017 3048 1003 C 3220 1003 3398 1003 3571 1003 C 3748 1003 3921 1003 4094 1003 C 4094 1022 4094 1036 4094 1051 C 4094 1080 4099 1099 4104 1099 C 4104 1099 4108 1084 4108 1056 C 4108 1036 4108 1022 4108 1008 C 4147 1003 4190 1003 4233 1003 C 4272 1003 4315 1003 4358 1003 C 4315 1003 4272 1003 4233 1003 C 4190 1003 4147 1003 4108 998 C 4108 993 4108 988 4108 984 C 4108 969 4108 969 4118 969 C 4132 974 4161 960 4166 950 C 4171 945 4171 940 4176 936 C 4276 940 4377 940 4483 940 C 4584 940 4689 940 4790 940 C 4790 945 4790 955 4790 960 C 4795 969 4790 984 4790 988 C 4790 993 4790 998 4785 1003 C 4718 1003 4646 998 4579 998 C 4464 998 4368 998 4368 1003 C 4363 1003 4459 1003 4579 1003 C 4651 1003 4723 1003 4795 1003 C 4795 960 4795 912 4795 868 C 4795 820 4795 777 4800 734 C 4694 734 4593 734 4492 734 C 4392 734 4291 734 4190 734 C 4291 734 4387 734 4488 734 C 4588 739 4684 739 4785 739 C 4785 748 4790 753 4790 763 C 4800 801 4828 796 4473 796 C 4300 796 4156 796 4161 796 C 4161 792 4166 787 4166 777 C 4171 772 4176 758 4171 748 C 4171 744 4171 739 4166 734 C 4108 734 4046 734 3984 734 C 3921 734 3859 734 3801 734 C 3801 715 3801 700 3801 686 C 3801 657 3796 643 3796 643 C 3792 643 3787 657 3787 686 C 3787 700 3787 715 3787 734 C 3758 729 3724 729 3696 729 C 3662 729 3633 729 3600 729 C 3600 724 3600 720 3595 715 C 3595 696 3595 696 3576 696 C 3571 696 3566 700 3561 700 C 3561 691 3556 681 3556 667 C 3556 652 3556 643 3552 643 M 3705 748 C 3705 753 3705 768 3705 777 C 3705 787 3700 792 3700 796 C 3691 796 3681 796 3672 796 C 3638 796 3638 796 3638 763 C 3638 739 3638 739 3676 739 C 3700 739 3700 739 3705 748 M 3787 768 C 3787 777 3787 787 3787 796 C 3777 796 3763 796 3753 796 C 3739 796 3729 796 3720 801 C 3720 787 3720 777 3720 768 C 3720 758 3720 748 3720 739 C 3729 739 3744 739 3753 739 C 3768 739 3777 739 3792 739 C 3787 748 3787 758 3787 768 M 4118 744 C 4118 744 4113 753 4108 758 C 4104 763 4099 772 4099 782 C 4094 787 4094 792 4094 796 C 4060 796 4027 796 3988 796 C 3955 796 3921 796 3888 796 C 3888 792 3888 787 3888 782 C 3883 768 3878 772 3878 787 C 3878 796 3873 796 3854 796 C 3830 796 3825 792 3840 777 C 3844 772 3849 763 3849 753 C 3849 744 3849 739 3849 739 C 3854 734 4118 739 4118 744 M 3830 758 C 3830 768 3811 792 3801 792 C 3796 792 3796 753 3801 748 C 3811 739 3830 748 3830 758 M 4166 753 C 4166 768 4137 787 4123 787 C 4104 787 4104 787 4113 772 C 4132 748 4166 739 4166 753 M 3110 782 C 3110 792 3100 796 3086 796 C 3072 796 3072 796 3081 787 C 3086 782 3110 777 3110 782 M 3033 835 C 3033 844 3033 854 3033 868 C 3024 864 3014 864 3000 864 C 2990 864 2976 864 2966 864 C 2966 854 2966 849 2966 840 C 2961 806 2961 801 3000 801 C 3014 801 3024 801 3033 801 C 3033 816 3033 825 3033 835 M 3091 806 C 3091 816 3076 820 3067 825 C 3052 825 3043 816 3057 806 C 3062 801 3091 801 3091 806 M 3480 830 C 3480 864 3475 868 3460 864 C 3456 859 3451 854 3451 830 C 3451 806 3456 801 3465 801 C 3475 801 3480 806 3480 830 M 3705 830 C 3705 859 3700 868 3681 864 C 3676 859 3676 854 3676 835 C 3676 806 3676 801 3691 801 C 3700 801 3705 806 3705 830 M 3792 811 C 3792 816 3796 816 3801 811 C 3811 806 3825 801 3844 801 C 3854 801 3864 801 3878 801 C 3878 811 3878 820 3878 830 C 3878 864 3878 864 3811 864 C 3772 859 3768 859 3768 854 C 3768 840 3753 830 3734 835 C 3720 840 3720 840 3720 820 C 3720 816 3720 811 3720 801 C 3729 801 3739 801 3753 801 C 3777 801 3787 806 3792 811 M 4094 835 C 4094 844 4094 854 4094 864 C 4060 864 4027 864 3993 864 C 3883 864 3883 864 3883 835 C 3883 801 3883 801 3993 806 C 4027 806 4060 806 4094 806 C 4094 816 4094 825 4094 835 M 4790 806 C 4790 811 4790 825 4790 835 C 4790 844 4785 854 4785 859 C 4776 859 4771 864 4761 864 C 4737 864 4708 864 4560 864 C 4545 864 4531 864 4521 859 C 4521 854 4521 849 4521 844 C 4521 840 4521 835 4521 830 C 4507 830 4492 830 4478 830 C 4440 830 4440 835 4440 844 C 4440 849 4435 859 4430 859 C 4425 864 4142 868 4123 864 C 4104 859 4104 864 4104 816 C 4104 811 4104 806 4108 801 C 4219 801 4334 801 4444 801 C 4670 801 4785 806 4790 806 M 3662 830 C 3662 840 3662 844 3662 844 C 3657 844 3652 849 3648 849 C 3643 854 3643 849 3643 835 C 3643 820 3643 816 3652 816 C 3662 816 3662 820 3662 830 M 3739 854 C 3744 859 3739 859 3729 859 C 3715 859 3710 849 3724 844 C 3734 840 3739 844 3739 854 M 3033 902 C 3033 912 3033 921 3033 936 C 3028 936 3024 936 3019 936 C 2995 936 2990 931 3004 912 C 3014 902 3014 892 3014 888 C 3009 873 3014 873 3028 873 C 3033 873 3033 873 3033 902 M 3446 902 C 3446 912 3446 921 3446 936 C 3388 936 3331 936 3273 936 C 3158 936 3105 931 3105 926 C 3105 926 3105 916 3110 912 C 3115 902 3120 892 3115 883 C 3115 878 3115 873 3115 873 C 3168 873 3225 873 3278 873 C 3336 873 3388 873 3446 873 C 3446 883 3446 892 3446 902 M 3480 902 C 3480 931 3475 936 3465 931 C 3451 931 3446 873 3465 873 C 3475 873 3480 873 3480 902 M 3662 897 C 3662 912 3667 926 3667 926 C 3667 931 3638 931 3604 936 C 3566 936 3604 936 3710 936 C 3816 936 3878 940 3878 945 C 3878 945 3878 950 3883 950 C 3888 950 3892 945 3892 940 C 3892 940 3926 940 3993 940 C 4027 940 4060 940 4094 940 C 4094 950 4094 960 4094 969 C 4094 979 4094 988 4094 998 C 3993 998 3892 998 3792 998 C 3691 998 3590 998 3489 998 C 3489 988 3489 979 3489 969 C 3484 945 3489 940 3494 940 C 3499 940 3499 936 3494 931 C 3489 931 3484 912 3484 897 C 3484 888 3484 878 3484 868 C 3518 868 3547 873 3576 873 C 3604 873 3633 873 3662 873 C 3662 883 3662 888 3662 897 M 3705 883 C 3705 916 3705 921 3729 902 C 3744 892 3753 878 3758 878 C 3758 873 3777 873 3820 873 C 3840 873 3859 873 3878 873 C 3878 883 3873 892 3873 902 C 3873 912 3873 921 3873 931 C 3840 931 3806 931 3777 931 C 3744 931 3710 931 3676 931 C 3676 926 3676 916 3676 912 C 3672 883 3676 873 3691 873 C 3700 873 3705 873 3705 883 M 3739 873 C 3739 878 3724 897 3720 897 C 3720 897 3720 888 3720 883 C 3720 873 3720 873 3724 873 C 3734 873 3739 873 3739 873 M 4094 902 C 4094 912 4094 921 4094 931 C 4065 931 4036 931 4008 931 C 3912 936 3907 931 3931 912 C 3936 907 3936 897 3936 888 C 3936 883 3936 878 3936 873 C 3964 873 3993 873 4017 873 C 4046 873 4070 873 4099 873 C 4094 883 4094 892 4094 902 M 4790 897 C 4795 936 4819 931 4483 931 C 4190 931 4180 931 4176 926 C 4176 921 4166 912 4161 907 C 4147 897 4147 897 4113 912 C 4108 916 4108 912 4108 892 C 4108 888 4108 878 4108 873 C 4219 873 4334 873 4444 873 C 4560 873 4675 873 4785 873 C 4790 878 4790 888 4790 897 M 3110 883 C 3110 892 3081 921 3072 926 C 3038 936 3048 902 3081 888 C 3100 878 3110 878 3110 883 M 2995 892 C 2995 902 2976 931 2966 931 C 2961 931 2961 888 2966 883 C 2976 873 2995 883 2995 892 M 3916 888 C 3916 902 3897 931 3888 926 C 3883 921 3883 897 3888 888 C 3892 878 3912 878 3916 888 M 4161 926 C 4161 931 4128 936 4132 926 C 4132 916 4156 907 4161 912 C 4161 916 4166 921 4161 926 M 3446 969 C 3446 979 3446 988 3446 1003 C 3379 998 3312 998 3244 998 C 3177 998 3115 998 3048 998 C 3048 988 3048 984 3048 974 C 3043 936 3028 940 3244 940 C 3312 940 3379 940 3446 940 C 3446 950 3446 960 3446 969 M 3475 969 C 3475 993 3475 998 3465 998 C 3456 998 3456 993 3456 969 C 3451 940 3451 940 3465 940 C 3480 940 3480 940 3475 969 M 4152 940 C 4152 945 4132 955 4123 955 C 4113 960 4108 950 4113 940 C 4118 936 4152 936 4152 940 M 532 739 C 532 739 537 739 556 739 C 576 739 590 739 585 739 C 580 734 542 734 532 739 M 940 734 C 974 734 1036 734 1070 734 C 1104 734 1075 734 1003 734 C 931 734 902 734 940 734 M 1512 734 C 1526 739 1540 739 1555 739 C 1555 748 1555 758 1555 768 C 1555 777 1555 787 1560 796 C 1550 801 1540 801 1531 801 C 1526 801 1516 801 1507 801 C 1516 801 1521 801 1531 801 C 1540 806 1545 806 1555 806 C 1555 816 1555 825 1555 830 C 1555 844 1555 859 1550 864 C 1550 868 1550 873 1550 873 C 1555 873 1555 883 1555 902 C 1555 912 1555 921 1555 936 C 1536 936 1516 936 1497 936 C 1473 936 1454 936 1435 936 C 1454 936 1473 936 1497 936 C 1516 940 1536 940 1555 940 C 1555 950 1555 960 1555 964 C 1555 979 1555 993 1550 998 C 1545 1003 1579 1003 1795 1003 C 1876 1003 1958 1003 2040 1003 C 1963 1003 1881 1003 1804 1003 C 1723 1003 1646 1003 1564 998 C 1564 988 1564 979 1564 969 C 1564 960 1564 950 1564 940 C 1641 936 1718 936 1790 936 C 1867 936 1939 936 2016 936 C 1939 936 1867 936 1790 936 C 1584 936 1564 931 1564 926 C 1564 912 1564 892 1564 883 C 1564 878 1564 873 1564 873 C 1665 868 1761 868 1857 868 C 1953 868 2054 868 2150 868 C 2054 868 1958 868 1857 868 C 1761 868 1665 868 1569 864 C 1564 864 1564 859 1564 854 C 1564 849 1564 835 1564 825 C 1564 820 1564 811 1564 806 C 1636 806 1704 806 1776 806 C 1848 806 1915 806 1987 806 C 1987 811 1987 816 1987 816 C 1992 830 1992 830 2030 830 C 2044 830 2059 830 2068 835 C 2073 830 2073 825 2073 820 C 2073 811 2078 801 2083 801 C 2083 801 1968 801 1824 801 C 1737 796 1651 796 1564 796 C 1564 787 1564 777 1564 768 C 1564 753 1564 744 1564 744 C 1569 744 1569 739 1569 739 C 1569 734 1550 734 1521 734 C 1502 734 1488 734 1468 734 C 1483 734 1497 734 1512 734 M 1675 734 C 1723 734 1795 734 1843 734 C 1886 734 1848 734 1756 734 C 1670 734 1632 734 1675 734 M 2798 801 C 2808 801 2832 801 2841 801 C 2856 801 2846 801 2822 801 C 2793 801 2784 801 2798 801 M 1128 835 C 1128 840 1128 844 1128 854 C 1128 859 1128 864 1128 864 C 1080 868 1036 868 988 868 C 916 868 993 868 1161 868 C 1334 868 1411 868 1339 868 C 1296 864 1252 864 1209 864 C 1209 859 1209 854 1209 849 C 1204 835 1204 835 1166 835 C 1147 835 1132 835 1128 835 M 993 936 C 1060 936 1171 936 1238 936 C 1305 936 1248 936 1113 936 C 984 936 926 936 993 936 M 1056 1003 C 1128 1003 1238 1003 1310 1003 C 1377 1003 1320 1003 1180 1003 C 1041 1003 984 1003 1056 1003 M 2088 1003 C 2097 1003 2112 1003 2121 1003 C 2131 1003 2121 1003 2102 1003 C 2083 1003 2078 1003 2088 1003 M 182 1060 C 172 1070 172 1094 192 1108 C 206 1123 230 1123 235 1118 C 235 1113 235 1113 230 1113 C 216 1118 211 1108 225 1099 C 235 1089 240 1084 235 1075 C 230 1046 201 1041 182 1060 M 2952 1286 C 2952 1358 2952 1363 2947 1368 C 2937 1368 2937 1368 2947 1368 C 2952 1368 2952 1372 2952 1377 C 2952 1387 2961 1387 2966 1377 C 2966 1368 3028 1368 3038 1377 C 3048 1392 3043 1430 3028 1430 C 3019 1435 3019 1435 3028 1440 C 3033 1444 3033 1449 3033 1473 C 3033 1483 3033 1492 3033 1497 C 3024 1497 3014 1497 3000 1497 C 2985 1497 2976 1497 2966 1497 C 2966 1492 2966 1483 2966 1473 C 2966 1464 2966 1454 2966 1444 C 2971 1440 2976 1440 2985 1440 C 2990 1435 3000 1435 3004 1435 C 2995 1435 2985 1435 2976 1435 C 2956 1435 2947 1435 2947 1440 C 2947 1440 2947 1444 2947 1444 C 2952 1444 2952 1454 2952 1473 C 2952 1483 2952 1492 2952 1497 C 2928 1497 2899 1497 2875 1497 C 2832 1497 2793 1502 2798 1502 C 2798 1502 2832 1502 2870 1507 C 2961 1507 2952 1502 2952 1540 C 2952 1550 2952 1560 2952 1564 C 2947 1569 2942 1569 2932 1569 C 2928 1569 2918 1569 2913 1569 C 2918 1569 2928 1569 2932 1569 C 2952 1574 2952 1574 2952 1588 C 2956 1622 2956 1622 2980 1603 C 2995 1593 3004 1584 3009 1579 C 3028 1560 3038 1574 3038 1608 C 3038 1617 3038 1622 3038 1632 C 3014 1632 2990 1632 2966 1636 C 2942 1636 2918 1636 2894 1636 C 2918 1636 2942 1636 2966 1636 C 2985 1636 3009 1636 3033 1641 C 3033 1646 3038 1656 3038 1660 C 3038 1675 3043 1694 3043 1708 C 3043 1723 3043 1713 3043 1689 C 3048 1670 3048 1656 3048 1641 C 3115 1641 3187 1641 3254 1641 C 3369 1636 3460 1636 3460 1632 C 3446 1627 3451 1579 3465 1574 C 3475 1569 3480 1579 3475 1612 C 3475 1636 3475 1641 3484 1641 C 3494 1641 3499 1636 3494 1632 C 3484 1622 3484 1579 3494 1574 C 3504 1569 3504 1569 3494 1569 C 3489 1569 3484 1564 3484 1540 C 3484 1516 3489 1507 3494 1507 C 3504 1502 3504 1502 3494 1502 C 3489 1497 3484 1497 3484 1473 C 3484 1440 3489 1440 3528 1440 C 3547 1440 3547 1440 3547 1459 C 3547 1464 3552 1468 3552 1478 C 3556 1478 3561 1473 3571 1473 C 3585 1473 3590 1473 3590 1488 C 3590 1492 3590 1497 3590 1497 C 3576 1502 3561 1502 3547 1502 C 3513 1502 3513 1502 3537 1502 C 3580 1507 3585 1507 3590 1521 C 3590 1521 3590 1526 3595 1531 C 3595 1526 3595 1521 3595 1521 C 3600 1507 3624 1497 3628 1512 C 3628 1516 3628 1540 3628 1560 C 3628 1564 3609 1569 3566 1569 C 3547 1569 3528 1569 3508 1569 C 3532 1569 3561 1569 3585 1574 C 3628 1574 3662 1579 3662 1579 C 3662 1579 3667 1593 3667 1608 C 3667 1617 3667 1627 3672 1632 C 3657 1636 3643 1636 3628 1636 C 3609 1636 3652 1636 3734 1636 C 3854 1636 3878 1641 3878 1646 C 3883 1651 3883 1651 3888 1646 C 3897 1641 3912 1641 3998 1641 C 4032 1641 4065 1641 4094 1641 C 4094 1651 4094 1660 4094 1670 C 4094 1684 4099 1699 4104 1699 C 4104 1699 4108 1684 4108 1670 C 4108 1656 4108 1641 4108 1641 C 4113 1641 4267 1641 4454 1636 C 4785 1636 4795 1636 4800 1632 C 4800 1627 4800 1569 4800 1507 C 4800 1449 4800 1392 4800 1382 C 4800 1377 4800 1372 4800 1363 C 4689 1363 4584 1363 4478 1363 C 4180 1363 4147 1363 4166 1353 C 4171 1348 4176 1329 4176 1320 C 4171 1305 4166 1310 4166 1320 C 4166 1339 4128 1363 4113 1358 C 4104 1353 4128 1324 4147 1315 C 4156 1310 4161 1310 4166 1305 C 4161 1305 4156 1305 4152 1305 C 4123 1300 4094 1324 4094 1353 C 4094 1368 4094 1368 3950 1363 C 3835 1363 3801 1363 3801 1358 C 3801 1344 3796 1339 3796 1339 C 3792 1339 3787 1348 3787 1353 C 3787 1358 3787 1363 3787 1363 C 3753 1363 3715 1363 3676 1363 C 3566 1363 3561 1363 3561 1353 C 3561 1348 3556 1344 3552 1344 C 3552 1344 3547 1348 3547 1353 C 3547 1363 3547 1368 3537 1368 C 3532 1368 3528 1368 3523 1368 C 3528 1368 3532 1368 3532 1368 C 3547 1372 3547 1377 3547 1401 C 3547 1411 3547 1420 3552 1435 C 3537 1435 3528 1435 3518 1435 C 3508 1435 3499 1435 3484 1435 C 3484 1420 3489 1411 3489 1401 C 3489 1377 3489 1372 3499 1368 C 3513 1368 3508 1368 3494 1368 C 3489 1368 3480 1368 3475 1363 C 3475 1387 3475 1411 3475 1435 C 3475 1454 3475 1478 3480 1497 C 3475 1497 3470 1497 3465 1497 C 3456 1497 3451 1497 3451 1473 C 3451 1454 3456 1444 3460 1440 C 3470 1435 3470 1435 3460 1435 C 3456 1435 3451 1430 3456 1401 C 3456 1382 3456 1372 3460 1372 C 3465 1372 3465 1372 3465 1372 C 3465 1368 3451 1368 3427 1368 C 3393 1368 3393 1368 3417 1368 C 3427 1368 3436 1368 3446 1372 C 3446 1392 3446 1416 3446 1435 C 3446 1459 3446 1478 3446 1497 C 3379 1497 3312 1497 3244 1497 C 3177 1497 3110 1497 3048 1497 C 3048 1492 3048 1483 3048 1473 C 3048 1464 3048 1454 3048 1444 C 3057 1444 3067 1440 3081 1440 C 3100 1440 3187 1440 3278 1440 C 3384 1440 3436 1440 3436 1435 C 3436 1435 3432 1435 3417 1435 C 3408 1435 3316 1435 3220 1435 C 3163 1435 3105 1435 3048 1435 C 3048 1425 3048 1416 3048 1406 C 3048 1368 3033 1372 3216 1368 C 3264 1368 3316 1368 3364 1368 C 3321 1368 3273 1368 3230 1368 C 3187 1368 3144 1368 3096 1363 C 3100 1363 3105 1358 3105 1353 C 3120 1339 3120 1329 3115 1315 C 3110 1305 3110 1310 3105 1324 C 3100 1339 3076 1358 3057 1358 C 3038 1358 3057 1324 3091 1315 C 3110 1305 3100 1300 3076 1305 C 3057 1310 3038 1329 3038 1348 C 3038 1353 3038 1358 3038 1363 C 3033 1368 2995 1368 2995 1358 C 2995 1358 2995 1353 2995 1353 C 3009 1353 3019 1324 3014 1315 C 3009 1300 3004 1300 2985 1305 C 2976 1305 2971 1305 2966 1305 C 2966 1291 2966 1272 2966 1257 C 2966 1228 2961 1209 2961 1209 C 2956 1209 2952 1238 2952 1286 M 2995 1324 C 2995 1339 2976 1363 2966 1363 C 2961 1363 2961 1320 2971 1315 C 2985 1305 2995 1310 2995 1324 M 3787 1401 C 3787 1411 3787 1420 3787 1435 C 3758 1430 3724 1430 3696 1430 C 3662 1430 3633 1430 3600 1430 C 3600 1425 3600 1416 3600 1411 C 3595 1396 3595 1396 3585 1396 C 3561 1401 3561 1401 3561 1392 C 3556 1372 3556 1372 3676 1372 C 3715 1372 3753 1372 3787 1372 C 3787 1382 3787 1392 3787 1401 M 4094 1401 C 4094 1411 4094 1420 4099 1435 C 4046 1430 3998 1430 3950 1430 C 3902 1430 3849 1430 3801 1430 C 3801 1420 3801 1416 3801 1406 C 3796 1368 3787 1368 3950 1372 C 3998 1372 4046 1372 4094 1372 C 4094 1382 4094 1392 4094 1401 M 4790 1401 C 4790 1411 4790 1420 4790 1430 C 4675 1430 4560 1430 4449 1430 C 4334 1430 4219 1430 4108 1435 C 4108 1425 4108 1416 4108 1406 C 4108 1387 4108 1377 4108 1372 C 4113 1372 4267 1372 4449 1372 C 4564 1372 4675 1372 4790 1372 C 4790 1382 4790 1392 4790 1401 M 3590 1425 C 3590 1430 3585 1435 3576 1435 C 3561 1435 3561 1425 3571 1420 C 3580 1416 3590 1420 3590 1425 M 3628 1459 C 3628 1492 3628 1502 3614 1497 C 3600 1497 3595 1473 3600 1449 C 3604 1425 3628 1435 3628 1459 M 3705 1468 C 3705 1478 3705 1488 3705 1497 C 3696 1497 3686 1497 3672 1497 C 3662 1497 3652 1497 3643 1497 C 3643 1488 3643 1478 3643 1468 C 3643 1459 3643 1449 3643 1435 C 3652 1440 3662 1440 3672 1440 C 3686 1440 3696 1440 3705 1440 C 3705 1449 3705 1459 3705 1468 M 3787 1468 C 3787 1478 3787 1488 3787 1497 C 3777 1497 3768 1497 3753 1497 C 3739 1497 3729 1497 3720 1497 C 3720 1492 3720 1483 3720 1473 C 3720 1440 3720 1440 3763 1440 C 3772 1440 3782 1440 3787 1440 C 3787 1449 3787 1459 3787 1468 M 4089 1440 C 4094 1444 4094 1449 4094 1473 C 4094 1483 4094 1492 4094 1497 C 4060 1497 4027 1497 3993 1497 C 3960 1497 3926 1497 3892 1497 C 3892 1497 3888 1492 3888 1488 C 3888 1478 3878 1478 3878 1492 C 3878 1497 3873 1497 3854 1497 C 3830 1502 3830 1497 3844 1478 C 3849 1473 3854 1459 3849 1454 C 3849 1444 3849 1444 3883 1440 C 3950 1440 4080 1440 4089 1440 M 4790 1468 C 4790 1478 4790 1488 4790 1497 C 4747 1497 4699 1497 4656 1497 C 4612 1497 4564 1497 4521 1497 C 4521 1492 4521 1488 4521 1483 C 4516 1478 4516 1473 4516 1468 C 4502 1468 4492 1468 4478 1468 C 4464 1468 4449 1468 4440 1464 C 4440 1473 4435 1478 4435 1483 C 4435 1488 4435 1492 4435 1497 C 4392 1497 4348 1497 4305 1497 C 4156 1502 4152 1497 4166 1483 C 4171 1478 4176 1468 4176 1459 C 4176 1449 4176 1440 4176 1440 C 4176 1440 4315 1440 4483 1440 C 4588 1440 4689 1440 4790 1440 C 4790 1449 4790 1459 4790 1468 M 3825 1459 C 3830 1473 3811 1502 3801 1497 C 3796 1492 3796 1454 3806 1449 C 3816 1444 3825 1449 3825 1459 M 4166 1454 C 4166 1464 4142 1488 4128 1492 C 4108 1497 4108 1483 4128 1464 C 4147 1444 4166 1440 4166 1454 M 3038 1516 C 3038 1531 3038 1550 3038 1560 C 3033 1574 3019 1564 3014 1550 C 3009 1540 3004 1536 2985 1540 C 2966 1540 2966 1540 2966 1526 C 2961 1507 2971 1507 3004 1507 C 3033 1507 3033 1507 3038 1516 M 3436 1507 C 3441 1512 3446 1574 3446 1627 C 3446 1632 3432 1636 3244 1632 C 3177 1632 3115 1632 3048 1632 C 3048 1627 3048 1622 3048 1617 C 3048 1603 3048 1603 3062 1603 C 3076 1608 3105 1593 3110 1584 C 3120 1574 3120 1569 3220 1569 C 3259 1569 3292 1569 3326 1569 C 3292 1569 3254 1569 3220 1569 C 3148 1569 3115 1564 3115 1560 C 3115 1540 3086 1531 3062 1545 C 3057 1550 3052 1550 3048 1550 C 3043 1555 3043 1512 3048 1507 C 3052 1502 3432 1502 3436 1507 M 3475 1536 C 3480 1564 3480 1564 3465 1564 C 3456 1564 3451 1564 3451 1540 C 3451 1507 3456 1502 3465 1507 C 3475 1507 3475 1516 3475 1536 M 3705 1536 C 3705 1564 3705 1564 3691 1564 C 3681 1569 3681 1564 3676 1545 C 3676 1507 3676 1502 3691 1507 C 3705 1507 3705 1507 3705 1536 M 3792 1512 C 3792 1516 3796 1516 3806 1512 C 3816 1507 3825 1502 3849 1507 C 3859 1507 3868 1507 3878 1507 C 3878 1512 3878 1521 3878 1526 C 3878 1569 3883 1564 3820 1564 C 3772 1564 3772 1564 3768 1555 C 3763 1540 3753 1536 3729 1540 C 3720 1545 3720 1545 3720 1526 C 3720 1507 3720 1502 3758 1502 C 3782 1502 3787 1507 3792 1512 M 4094 1536 C 4094 1545 4094 1555 4094 1564 C 4060 1564 4027 1564 3993 1564 C 3960 1564 3926 1564 3892 1564 C 3892 1560 3892 1550 3892 1540 C 3892 1521 3892 1512 3892 1507 C 3897 1507 3940 1502 3998 1502 C 4032 1502 4065 1502 4094 1502 C 4094 1516 4094 1526 4094 1536 M 4780 1507 C 4790 1512 4795 1512 4790 1536 C 4790 1545 4790 1555 4790 1564 C 4675 1564 4564 1564 4449 1564 C 4334 1564 4224 1564 4108 1564 C 4108 1555 4108 1550 4108 1540 C 4108 1526 4108 1516 4108 1512 C 4108 1502 4756 1502 4780 1507 M 3662 1531 C 3662 1545 3657 1550 3643 1550 C 3638 1550 3638 1526 3648 1521 C 3662 1516 3662 1521 3662 1531 M 2995 1555 C 2995 1564 2990 1564 2980 1564 C 2966 1564 2961 1564 2971 1555 C 2976 1545 2995 1545 2995 1555 M 3105 1555 C 3105 1560 3100 1564 3091 1564 C 3072 1569 3067 1560 3081 1555 C 3096 1545 3110 1545 3105 1555 M 3744 1555 C 3744 1560 3739 1564 3729 1564 C 3720 1569 3710 1560 3720 1550 C 3724 1545 3744 1550 3744 1555 M 2985 1574 C 2985 1579 2985 1584 2980 1593 C 2971 1603 2971 1603 2966 1593 C 2961 1579 2976 1564 2985 1574 M 3086 1579 C 3091 1584 3067 1593 3057 1593 C 3048 1593 3048 1579 3057 1574 C 3067 1569 3086 1574 3086 1579 M 3705 1593 C 3710 1622 3710 1622 3744 1593 C 3753 1584 3763 1579 3768 1569 C 3787 1569 3806 1569 3820 1569 C 3883 1569 3883 1574 3878 1612 C 3878 1617 3878 1627 3878 1632 C 3844 1632 3811 1632 3777 1632 C 3744 1632 3710 1632 3676 1632 C 3676 1627 3676 1617 3676 1608 C 3676 1569 3676 1569 3691 1574 C 3705 1574 3705 1574 3705 1593 M 3734 1579 C 3739 1584 3729 1593 3720 1593 C 3715 1593 3715 1579 3720 1574 C 3724 1569 3729 1569 3734 1579 M 4094 1603 C 4094 1612 4094 1622 4099 1636 C 4065 1636 4036 1636 4008 1636 C 3960 1636 3916 1632 3916 1632 C 3916 1632 3921 1622 3931 1617 C 3936 1608 3936 1598 3936 1588 C 3936 1584 3936 1579 3936 1569 C 3964 1574 3988 1574 4017 1574 C 4041 1574 4070 1574 4094 1574 C 4094 1584 4094 1593 4094 1603 M 4790 1603 C 4790 1612 4790 1622 4790 1632 C 4675 1632 4564 1632 4449 1632 C 4334 1632 4224 1632 4108 1632 C 4108 1622 4108 1617 4108 1608 C 4108 1593 4108 1584 4108 1579 C 4108 1574 4166 1574 4449 1574 C 4564 1574 4675 1574 4790 1574 C 4790 1584 4790 1593 4790 1603 M 3916 1588 C 3921 1598 3907 1627 3897 1627 C 3888 1632 3888 1588 3892 1584 C 3897 1579 3916 1579 3916 1588 M 907 1368 C 916 1368 936 1368 950 1368 C 960 1368 950 1368 926 1368 C 902 1368 892 1368 907 1368 M 1051 1368 C 1094 1368 1166 1368 1209 1368 C 1252 1368 1214 1368 1132 1368 C 1046 1368 1008 1368 1051 1368 M 1324 1372 C 1324 1372 1329 1377 1339 1377 C 1353 1377 1358 1372 1358 1372 C 1358 1368 1353 1363 1339 1363 C 1329 1363 1324 1368 1324 1372 M 1531 1368 C 1540 1372 1545 1372 1555 1372 C 1555 1382 1555 1392 1555 1401 C 1555 1411 1555 1420 1560 1435 C 1550 1435 1545 1435 1540 1435 C 1526 1435 1516 1435 1516 1435 C 1516 1440 1526 1440 1536 1440 C 1545 1440 1550 1440 1555 1440 C 1555 1449 1555 1459 1555 1468 C 1555 1478 1555 1488 1560 1497 C 1550 1502 1540 1502 1536 1502 C 1526 1502 1521 1502 1512 1502 C 1516 1502 1526 1502 1536 1502 C 1540 1507 1550 1507 1555 1507 C 1555 1516 1555 1526 1555 1536 C 1555 1560 1555 1564 1550 1564 C 1550 1564 1550 1569 1550 1574 C 1555 1579 1555 1593 1555 1608 C 1555 1612 1555 1622 1555 1632 C 1545 1632 1531 1632 1521 1636 C 1502 1636 1608 1636 1756 1636 C 1848 1636 1934 1636 2025 1636 C 1948 1636 1872 1636 1795 1636 C 1718 1636 1646 1636 1569 1632 C 1564 1627 1564 1622 1564 1617 C 1564 1608 1564 1593 1564 1584 C 1564 1579 1564 1579 1569 1574 C 1593 1569 1617 1569 1641 1569 C 1665 1569 1689 1569 1713 1569 C 1689 1569 1665 1569 1641 1569 C 1598 1569 1564 1564 1564 1564 C 1564 1526 1564 1512 1569 1507 C 1574 1507 1646 1502 1780 1507 C 1891 1507 1982 1507 1982 1502 C 1977 1502 1886 1497 1771 1497 C 1704 1497 1632 1497 1564 1497 C 1564 1488 1564 1483 1564 1473 C 1564 1459 1564 1444 1569 1440 C 1569 1435 1569 1430 1564 1430 C 1560 1425 1564 1377 1569 1372 C 1569 1368 1560 1368 1540 1368 C 1507 1368 1507 1368 1531 1368 M 1680 1368 C 1732 1368 1824 1368 1876 1368 C 1934 1368 1886 1368 1776 1368 C 1670 1368 1622 1368 1680 1368 M 2236 1368 C 2246 1368 2260 1368 2270 1368 C 2280 1368 2270 1368 2251 1368 C 2232 1368 2227 1368 2236 1368 M 2404 1368 C 2438 1372 2467 1372 2496 1372 C 2496 1392 2496 1416 2496 1435 C 2496 1459 2496 1478 2500 1497 C 2443 1502 2390 1502 2332 1502 C 2280 1502 2222 1502 2169 1502 C 2222 1502 2280 1502 2332 1502 C 2390 1502 2443 1502 2500 1502 C 2500 1516 2500 1526 2500 1536 C 2500 1555 2496 1569 2491 1569 C 2486 1569 2486 1574 2491 1574 C 2496 1574 2500 1588 2500 1608 C 2500 1617 2500 1627 2500 1632 C 2448 1636 2400 1636 2347 1636 C 2265 1636 2304 1636 2433 1636 C 2563 1636 2630 1636 2587 1636 C 2563 1636 2534 1636 2510 1632 C 2510 1622 2510 1612 2510 1603 C 2510 1593 2510 1584 2510 1574 C 2515 1574 2524 1574 2534 1574 C 2548 1574 2553 1574 2553 1569 C 2553 1569 2539 1564 2529 1564 C 2520 1564 2515 1564 2510 1564 C 2510 1560 2510 1550 2510 1540 C 2510 1507 2505 1507 2563 1502 C 2592 1502 2592 1502 2553 1502 C 2539 1502 2524 1502 2510 1497 C 2510 1492 2510 1483 2510 1473 C 2510 1444 2510 1444 2524 1440 C 2529 1435 2534 1435 2539 1435 C 2534 1435 2529 1435 2524 1435 C 2520 1435 2515 1435 2505 1435 C 2510 1420 2510 1411 2510 1401 C 2510 1392 2510 1382 2510 1372 C 2524 1372 2539 1372 2548 1368 C 2572 1368 2529 1368 2452 1368 C 2332 1368 2328 1368 2404 1368 M 2865 1368 C 2880 1368 2904 1368 2913 1368 C 2928 1368 2918 1368 2889 1368 C 2865 1368 2851 1368 2865 1368 M 1579 1435 C 1579 1440 1809 1440 1809 1435 C 1809 1435 1756 1435 1689 1435 C 1627 1435 1574 1435 1579 1435 M 1824 1440 C 1824 1440 1833 1440 1852 1440 C 1872 1440 1876 1440 1872 1440 C 1852 1430 1828 1430 1824 1440 M 1924 1440 C 1924 1440 1939 1444 1958 1444 C 1987 1444 1987 1444 1992 1454 C 1992 1468 1992 1468 2030 1468 C 2044 1468 2059 1468 2068 1473 C 2073 1468 2073 1464 2073 1459 C 2078 1444 2078 1440 2092 1440 C 2107 1440 2107 1440 2088 1435 C 2064 1430 1924 1435 1924 1440 M 2294 1435 C 2304 1440 2472 1440 2472 1435 C 2472 1435 2433 1435 2380 1435 C 2332 1435 2289 1435 2294 1435 M 2697 1440 C 2659 1440 2625 1440 2587 1440 C 2620 1440 2654 1440 2688 1440 C 2745 1440 2822 1440 2865 1440 C 2889 1435 2913 1435 2937 1435 C 2918 1435 2894 1435 2870 1435 C 2836 1435 2760 1435 2697 1440 M 1128 1488 C 1128 1492 1128 1497 1128 1497 C 1070 1502 1017 1502 964 1502 C 907 1502 854 1502 801 1502 C 873 1502 940 1502 1012 1507 C 1128 1507 1238 1507 1257 1507 C 1267 1502 1281 1502 1291 1502 C 1276 1502 1262 1502 1248 1502 C 1233 1502 1219 1502 1209 1497 C 1209 1497 1209 1492 1209 1488 C 1209 1483 1209 1478 1209 1473 C 1195 1473 1180 1473 1166 1473 C 1152 1473 1137 1473 1128 1473 C 1128 1478 1128 1483 1128 1488 M 2664 1478 C 2659 1497 2659 1502 2664 1507 C 2673 1512 2745 1512 2769 1507 C 2774 1502 2784 1502 2788 1502 C 2784 1502 2774 1502 2769 1502 C 2750 1502 2750 1497 2745 1488 C 2745 1483 2745 1478 2740 1473 C 2731 1473 2716 1473 2702 1473 C 2678 1473 2664 1473 2664 1478 M 1324 1502 C 1320 1507 1324 1507 1339 1507 C 1353 1507 1358 1507 1358 1502 C 1358 1497 1334 1497 1324 1502 M 907 1569 C 931 1569 964 1569 984 1569 C 1008 1569 988 1569 945 1569 C 902 1569 888 1569 907 1569 M 1166 1569 C 1166 1574 1180 1574 1190 1574 C 1204 1574 1209 1574 1209 1569 C 1209 1569 1200 1564 1185 1564 C 1176 1564 1166 1569 1166 1569 M 1243 1574 C 1243 1574 1272 1574 1315 1574 C 1348 1574 1382 1574 1377 1574 C 1372 1569 1243 1569 1243 1574 M 1790 1574 C 1848 1574 1929 1579 1924 1574 C 1924 1574 1881 1569 1833 1569 C 1761 1569 1752 1569 1790 1574 M 2318 1569 C 2347 1569 2400 1569 2428 1569 C 2457 1569 2433 1569 2371 1569 C 2313 1569 2289 1569 2318 1569 M 1012 1636 C 1060 1636 1132 1636 1180 1636 C 1224 1636 1185 1636 1099 1636 C 1008 1636 969 1636 1012 1636 M 1377 1636 C 1392 1636 1406 1636 1416 1636 C 1425 1636 1416 1636 1396 1636 C 1377 1636 1368 1636 1377 1636 M 2755 1636 C 2769 1636 2793 1636 2803 1636 C 2817 1636 2803 1636 2779 1636 C 2755 1636 2740 1636 2755 1636 M 297 1396 C 292 1401 292 1406 292 1411 C 292 1416 292 1420 292 1420 C 292 1420 302 1425 312 1425 C 321 1425 326 1420 326 1411 C 326 1392 312 1382 297 1396 M 292 1459 C 288 1473 297 1483 312 1483 C 321 1483 326 1478 321 1468 C 321 1454 297 1444 292 1459 M 609 1574 C 624 1574 638 1574 652 1574 C 662 1574 652 1574 633 1574 C 609 1574 600 1574 609 1574 z" fill="black" /><!-- width=4809 height=1747 -->
</defs>
<use xlink:href="#gl13825" x="447" y="0" />
<use xlink:href="#gl13314" x="516" y="28" />
<use xlink:href="#gl5387" x="597" y="2" />
<use xlink:href="#gl13826" x="620" y="25" />
<use xlink:href="#gl13827" x="701" y="33" />
<use xlink:href="#gl14080" x="0" y="110" />
</svg>