<?xml version="1.0" standalone="no"?>
<!DOCTYPE svg PUBLIC "-//W3C/DTD SVG 1.1//EN" "http://www.w3.org/Graphics/SVG/1.1/DTD/svg11.dtd">
<svg width="582px" height="32px" viewBox="0 0 5825 323" xmlns="http://www.w3.org/2000/svg" xmlns:xlink="http://www.w3.org/1999/xlink" version="1.1">
<defs>
<path id="gl5632" d="M 9 9 C 4 14 4 19 4 24 C 9 33 14 33 19 19 C 19 14 24 9 28 9 C 43 9 43 24 24 48 C 9 62 4 72 4 76 C 9 81 52 81 52 72 C 52 67 48 67 33 67 C 19 72 19 67 38 48 C 57 28 57 19 48 9 C 43 0 19 0 9 9 z" fill="black" /><!-- width=62 height=86 -->
<path id="gl1291" d="M 24 38 C 15 38 13 39 12 43 C 11 46 11 55 12 57 C 13 60 19 60 22 56 C 24 55 25 54 25 54 C 25 54 27 53 28 52 C 32 49 42 48 45 49 C 49 51 49 49 49 90 C 49 132 49 129 45 133 C 41 135 40 140 43 142 C 45 143 47 143 57 143 C 61 143 64 143 69 143 C 69 142 69 142 70 141 C 72 139 72 136 69 133 C 67 131 66 129 66 127 C 64 125 64 55 65 52 C 67 46 81 48 91 55 C 99 62 104 58 103 48 C 102 42 100 39 97 38 C 94 37 38 37 24 38 z" fill="black" /><!-- width=114 height=153 -->
<path id="gl1541" d="M 33 7 C 27 7 22 11 24 15 C 24 16 25 18 26 20 C 29 25 30 31 29 68 C 28 102 29 100 25 105 C 19 111 22 115 34 115 C 42 115 45 115 47 112 C 49 111 49 109 45 104 C 45 103 43 102 43 100 C 43 95 43 89 43 84 C 42 73 43 66 43 64 C 45 57 60 53 68 57 C 74 60 75 63 75 78 C 76 93 75 100 73 105 C 67 112 70 115 85 115 C 95 114 97 111 93 105 C 89 100 89 100 89 85 C 90 70 89 64 87 59 C 82 46 67 40 51 47 C 42 51 42 49 42 28 C 43 7 43 5 33 7 z" fill="black" /><!-- width=106 height=137 -->
<path id="gl1536" d="M 21 7 C 15 9 13 14 16 19 C 19 25 28 25 32 19 C 36 12 28 4 21 7 M 21 34 C 12 37 9 41 15 46 C 20 51 20 51 19 69 C 19 87 19 89 16 91 C 13 95 12 98 15 100 C 16 102 16 102 25 102 C 35 102 37 102 38 99 C 39 97 39 96 36 93 C 33 89 33 90 33 67 C 33 34 32 31 21 34 z" fill="black" /><!-- width=51 height=120 -->
<path id="gl1549" d="M 28 12 C 19 15 15 19 13 29 C 12 35 14 42 18 45 C 21 47 28 50 34 51 C 45 54 48 56 49 60 C 51 67 45 72 36 72 C 30 72 27 70 22 66 C 15 58 9 60 10 68 C 10 78 27 84 43 81 C 61 77 69 60 58 47 C 54 44 51 42 40 39 C 26 35 24 34 25 28 C 26 19 39 18 48 25 C 54 31 59 30 59 23 C 59 16 57 14 49 12 C 42 10 34 10 28 12 z" fill="black" /><!-- width=74 height=93 -->
<path id="gl1305" d="M 58 22 C 57 23 52 26 49 30 C 45 34 43 34 41 29 C 39 25 37 23 34 23 C 29 23 24 28 24 32 C 24 34 24 35 27 38 C 32 43 31 42 31 61 C 31 78 31 79 28 84 C 25 87 25 88 28 91 C 30 92 30 92 38 92 C 41 92 44 92 47 92 C 48 92 48 91 49 91 C 51 88 51 87 48 84 C 45 78 45 78 45 65 C 45 52 46 49 49 43 C 53 37 56 36 63 38 C 70 39 74 33 70 27 C 69 23 64 21 58 22 z" fill="black" /><!-- width=84 height=105 -->
<path id="gl1544" d="M 46 13 C 35 15 24 25 19 36 C 15 46 16 61 21 68 C 27 78 39 84 51 84 C 64 84 82 75 82 68 C 82 61 76 60 69 66 C 61 72 54 74 47 72 C 37 70 30 63 34 58 C 35 57 37 57 48 55 C 75 52 88 33 73 19 C 67 13 57 10 46 13 M 60 24 C 66 27 67 34 61 40 C 57 43 37 49 33 48 C 27 46 34 30 44 25 C 49 22 56 22 60 24 z" fill="black" /><!-- width=93 height=96 -->
<path id="gl5633" d="M 24 9 C 19 14 14 24 14 28 C 14 38 14 48 9 48 C 4 48 4 52 9 57 C 14 62 19 72 14 91 C 14 115 14 120 19 120 C 28 120 28 115 28 91 C 24 67 24 62 33 57 C 43 48 43 48 33 43 C 24 38 24 28 38 19 C 43 14 48 9 43 9 C 38 0 33 0 24 9 z" fill="black" /><!-- width=52 height=129 -->
<path id="gl1542" d="M 49 10 C 49 10 46 11 43 12 C 37 13 31 17 25 24 C 14 36 13 58 22 70 C 34 84 56 87 72 76 C 81 70 84 64 79 63 C 75 61 74 61 69 65 C 61 70 59 72 53 72 C 42 72 30 65 33 58 C 33 56 36 55 42 55 C 60 53 75 45 78 36 C 79 32 78 26 77 22 C 76 21 70 15 69 13 C 66 12 51 9 49 10 M 57 21 C 66 23 67 34 58 40 C 55 42 40 47 36 47 C 29 48 28 44 32 35 C 36 25 48 19 57 21 z" fill="black" /><!-- width=91 height=94 -->
<path id="gl1305" d="M 58 22 C 57 23 52 26 49 30 C 45 34 43 34 41 29 C 39 25 37 23 34 23 C 29 23 24 28 24 32 C 24 34 24 35 27 38 C 32 43 31 42 31 61 C 31 78 31 79 28 84 C 25 87 25 88 28 91 C 30 92 30 92 38 92 C 41 92 44 92 47 92 C 48 92 48 91 49 91 C 51 88 51 87 48 84 C 45 78 45 78 45 65 C 45 52 46 49 49 43 C 53 37 56 36 63 38 C 70 39 74 33 70 27 C 69 23 64 21 58 22 z" fill="black" /><!-- width=84 height=105 -->
<path id="gl1796" d="M 30 11 C 24 13 16 19 15 25 C 10 36 16 47 28 49 C 37 52 45 54 46 55 C 52 60 51 69 43 72 C 36 74 30 72 23 66 C 19 62 18 61 15 62 C 8 63 9 72 16 76 C 28 84 39 84 50 79 C 59 75 63 69 63 61 C 63 49 57 43 40 39 C 29 36 27 35 25 30 C 25 26 28 21 35 21 C 39 20 42 21 48 25 C 55 31 57 31 60 27 C 63 21 59 16 51 12 C 48 11 34 10 30 11 z" fill="black" /><!-- width=76 height=94 -->
<path id="gl5634" d="M 29 6 C 27 9 27 9 26 16 C 26 25 23 30 19 31 C 15 32 15 33 15 35 C 15 38 16 39 19 40 C 24 40 24 41 24 70 C 24 99 24 99 28 101 C 31 103 49 103 51 101 C 53 100 55 96 54 94 C 54 94 49 93 43 91 C 40 91 39 90 37 89 C 37 88 36 87 36 87 C 36 79 36 72 36 64 C 36 37 35 39 45 40 C 51 41 54 39 53 35 C 52 32 49 31 44 31 C 42 31 39 30 39 30 C 37 30 36 25 36 21 C 37 11 36 7 33 6 C 31 4 30 4 29 6 z" fill="black" /><!-- width=64 height=115 -->
<path id="gl1539" d="M 43 12 C 41 13 37 14 34 16 C 12 27 6 57 22 73 C 37 88 60 88 75 73 C 100 48 78 7 43 12 M 55 24 C 60 25 64 28 67 32 C 79 50 69 74 49 74 C 30 74 21 53 31 34 C 35 25 46 21 55 24 z" fill="black" /><!-- width=99 height=97 -->
<path id="gl1308" d="M 31 7 C 30 8 29 10 28 17 C 27 27 26 30 21 31 C 13 33 13 39 20 40 C 26 42 25 40 25 69 C 25 102 24 100 40 100 C 51 101 52 101 54 99 C 58 95 55 91 49 90 C 38 89 39 91 38 64 C 38 40 37 41 46 40 C 54 40 56 39 55 36 C 55 32 53 31 47 31 C 39 31 38 30 39 20 C 40 10 39 7 34 6 C 34 6 33 6 31 7 z" fill="black" /><!-- width=68 height=113 -->
<path id="gl1541" d="M 33 7 C 27 7 22 11 24 15 C 24 16 25 18 26 20 C 29 25 30 31 29 68 C 28 102 29 100 25 105 C 19 111 22 115 34 115 C 42 115 45 115 47 112 C 49 111 49 109 45 104 C 45 103 43 102 43 100 C 43 95 43 89 43 84 C 42 73 43 66 43 64 C 45 57 60 53 68 57 C 74 60 75 63 75 78 C 76 93 75 100 73 105 C 67 112 70 115 85 115 C 95 114 97 111 93 105 C 89 100 89 100 89 85 C 90 70 89 64 87 59 C 82 46 67 40 51 47 C 42 51 42 49 42 28 C 43 7 43 5 33 7 z" fill="black" /><!-- width=106 height=137 -->
<path id="gl1544" d="M 46 13 C 35 15 24 25 19 36 C 15 46 16 61 21 68 C 27 78 39 84 51 84 C 64 84 82 75 82 68 C 82 61 76 60 69 66 C 61 72 54 74 47 72 C 37 70 30 63 34 58 C 35 57 37 57 48 55 C 75 52 88 33 73 19 C 67 13 57 10 46 13 M 60 24 C 66 27 67 34 61 40 C 57 43 37 49 33 48 C 27 46 34 30 44 25 C 49 22 56 22 60 24 z" fill="black" /><!-- width=93 height=96 -->
<path id="gl5635" d="M 14 4 C 9 14 14 19 28 14 C 43 9 43 14 43 19 C 43 24 43 24 38 24 C 9 24 0 62 19 72 C 28 76 33 76 38 76 C 43 72 52 72 57 72 C 72 76 67 24 52 9 C 43 4 19 0 14 4 M 52 38 C 57 48 43 62 33 62 C 19 62 19 52 28 43 C 33 33 48 33 52 38 z" fill="black" /><!-- width=76 height=86 -->
<path id="gl1547" d="M 15 8 C 11 10 10 13 13 19 C 14 21 15 22 16 23 C 16 28 16 34 16 40 C 16 62 18 66 22 71 C 30 79 43 81 55 74 C 59 71 61 71 66 74 C 70 77 76 78 79 76 C 80 75 81 75 81 75 C 81 75 81 74 81 73 C 82 71 82 70 79 67 C 75 63 75 63 75 37 C 75 13 75 11 72 9 C 71 7 70 7 67 7 C 58 7 55 11 60 19 C 60 21 61 22 61 23 C 61 28 61 33 61 39 C 62 59 61 60 53 64 C 43 69 35 69 31 62 C 31 61 30 60 30 59 C 30 51 30 43 29 35 C 29 9 29 9 25 7 C 23 7 18 7 15 8 z" fill="black" /><!-- width=94 height=90 -->
<path id="gl5636" d="M 30 5 C 27 6 27 6 26 16 C 26 20 25 25 25 25 C 25 27 19 30 17 30 C 15 30 14 32 13 34 C 13 35 13 36 13 37 C 15 37 16 37 16 37 C 19 38 21 39 22 40 C 22 40 23 41 24 42 C 24 51 23 60 23 69 C 23 87 23 96 23 97 C 24 100 27 101 39 101 C 42 101 45 102 48 102 C 49 101 49 100 49 100 C 53 95 51 90 46 91 C 44 91 42 91 40 91 C 36 90 36 88 36 64 C 36 38 36 36 41 38 C 45 39 49 39 51 38 C 51 37 52 37 52 37 C 52 36 52 34 51 33 C 50 30 45 27 42 28 C 38 30 38 30 37 28 C 36 28 36 24 36 17 C 36 7 36 7 35 6 C 34 5 33 5 33 5 C 33 5 31 5 30 5 z" fill="black" /><!-- width=63 height=113 -->
<path id="gl1541" d="M 33 7 C 27 7 22 11 24 15 C 24 16 25 18 26 20 C 29 25 30 31 29 68 C 28 102 29 100 25 105 C 19 111 22 115 34 115 C 42 115 45 115 47 112 C 49 111 49 109 45 104 C 45 103 43 102 43 100 C 43 95 43 89 43 84 C 42 73 43 66 43 64 C 45 57 60 53 68 57 C 74 60 75 63 75 78 C 76 93 75 100 73 105 C 67 112 70 115 85 115 C 95 114 97 111 93 105 C 89 100 89 100 89 85 C 90 70 89 64 87 59 C 82 46 67 40 51 47 C 42 51 42 49 42 28 C 43 7 43 5 33 7 z" fill="black" /><!-- width=106 height=137 -->
<path id="gl5637" d="M 24 9 C 0 19 4 67 28 76 C 67 86 96 43 67 14 C 57 0 38 0 24 9 M 57 19 C 72 24 67 52 52 62 C 28 72 9 43 28 19 C 38 9 43 9 57 19 z" fill="black" /><!-- width=91 height=86 -->
<path id="gl1305" d="M 58 22 C 57 23 52 26 49 30 C 45 34 43 34 41 29 C 39 25 37 23 34 23 C 29 23 24 28 24 32 C 24 34 24 35 27 38 C 32 43 31 42 31 61 C 31 78 31 79 28 84 C 25 87 25 88 28 91 C 30 92 30 92 38 92 C 41 92 44 92 47 92 C 48 92 48 91 49 91 C 51 88 51 87 48 84 C 45 78 45 78 45 65 C 45 52 46 49 49 43 C 53 37 56 36 63 38 C 70 39 74 33 70 27 C 69 23 64 21 58 22 z" fill="black" /><!-- width=84 height=105 -->
<path id="gl1536" d="M 21 7 C 15 9 13 14 16 19 C 19 25 28 25 32 19 C 36 12 28 4 21 7 M 21 34 C 12 37 9 41 15 46 C 20 51 20 51 19 69 C 19 87 19 89 16 91 C 13 95 12 98 15 100 C 16 102 16 102 25 102 C 35 102 37 102 38 99 C 39 97 39 96 36 93 C 33 89 33 90 33 67 C 33 34 32 31 21 34 z" fill="black" /><!-- width=51 height=120 -->
<path id="gl5638" d="M 9 4 C 9 9 9 19 9 33 C 14 52 9 62 9 67 C 0 72 4 72 19 72 C 28 72 33 72 28 67 C 14 52 28 9 48 14 C 57 19 62 52 57 62 C 48 72 48 72 62 72 C 72 72 72 72 72 43 C 67 28 67 9 62 9 C 57 4 14 0 9 4 z" fill="black" /><!-- width=86 height=86 -->
<path id="gl1541" d="M 33 7 C 27 7 22 11 24 15 C 24 16 25 18 26 20 C 29 25 30 31 29 68 C 28 102 29 100 25 105 C 19 111 22 115 34 115 C 42 115 45 115 47 112 C 49 111 49 109 45 104 C 45 103 43 102 43 100 C 43 95 43 89 43 84 C 42 73 43 66 43 64 C 45 57 60 53 68 57 C 74 60 75 63 75 78 C 76 93 75 100 73 105 C 67 112 70 115 85 115 C 95 114 97 111 93 105 C 89 100 89 100 89 85 C 90 70 89 64 87 59 C 82 46 67 40 51 47 C 42 51 42 49 42 28 C 43 7 43 5 33 7 z" fill="black" /><!-- width=106 height=137 -->
<path id="gl1536" d="M 21 7 C 15 9 13 14 16 19 C 19 25 28 25 32 19 C 36 12 28 4 21 7 M 21 34 C 12 37 9 41 15 46 C 20 51 20 51 19 69 C 19 87 19 89 16 91 C 13 95 12 98 15 100 C 16 102 16 102 25 102 C 35 102 37 102 38 99 C 39 97 39 96 36 93 C 33 89 33 90 33 67 C 33 34 32 31 21 34 z" fill="black" /><!-- width=51 height=120 -->
<path id="gl5390" d="M 27 10 C 24 10 17 15 14 19 C 12 22 11 32 12 37 C 12 42 16 45 21 46 C 23 47 25 48 27 49 C 29 51 33 51 36 52 C 43 52 46 55 48 61 C 48 65 46 70 43 71 C 42 72 40 72 39 73 C 39 73 37 73 33 72 C 27 71 26 70 22 66 C 19 63 18 62 16 62 C 15 62 14 61 13 61 C 12 63 11 64 10 65 C 7 69 7 69 8 72 C 9 74 10 75 12 76 C 14 77 18 79 19 79 C 21 81 24 82 25 82 C 26 82 28 82 30 82 C 36 84 39 84 39 83 C 39 82 41 82 47 80 C 53 79 57 75 60 68 C 61 62 61 50 58 49 C 58 49 56 48 54 46 C 51 43 40 39 34 37 C 28 37 27 36 25 34 C 24 31 24 27 26 22 C 27 21 27 21 27 19 C 29 19 31 19 33 19 C 40 19 40 19 44 23 C 48 26 51 28 52 28 C 54 28 60 22 60 21 C 60 19 57 15 54 13 C 52 11 49 10 40 10 C 31 9 31 9 27 10 z" fill="black" /><!-- width=72 height=93 -->
<path id="gl1542" d="M 49 10 C 49 10 46 11 43 12 C 37 13 31 17 25 24 C 14 36 13 58 22 70 C 34 84 56 87 72 76 C 81 70 84 64 79 63 C 75 61 74 61 69 65 C 61 70 59 72 53 72 C 42 72 30 65 33 58 C 33 56 36 55 42 55 C 60 53 75 45 78 36 C 79 32 78 26 77 22 C 76 21 70 15 69 13 C 66 12 51 9 49 10 M 57 21 C 66 23 67 34 58 40 C 55 42 40 47 36 47 C 29 48 28 44 32 35 C 36 25 48 19 57 21 z" fill="black" /><!-- width=91 height=94 -->
<path id="gl5639" d="M 30 6 C 29 6 27 6 25 7 C 22 7 21 7 19 9 C 18 9 16 10 15 11 C 11 12 10 13 10 16 C 12 24 15 24 26 19 C 34 15 34 15 40 18 C 49 21 51 24 51 28 C 50 30 49 31 42 31 C 27 33 27 33 24 34 C 22 36 20 37 18 38 C 16 39 14 40 14 42 C 14 42 13 44 12 45 C 7 51 6 57 9 66 C 11 74 11 74 13 74 C 16 75 16 75 19 77 C 21 79 24 81 33 81 C 36 81 42 79 45 76 C 49 72 54 72 57 76 C 61 81 66 81 69 77 C 71 74 71 73 68 69 C 64 63 64 61 65 55 C 65 53 65 49 65 48 C 64 46 64 42 65 39 C 66 27 61 16 51 11 C 43 7 32 4 30 6 M 50 39 C 55 43 55 52 50 62 C 48 65 46 66 34 69 C 29 71 21 66 20 61 C 19 52 25 45 37 40 C 40 40 43 39 43 38 C 46 37 48 37 50 39 z" fill="black" /><!-- width=81 height=94 -->
<path id="gl5640" d="M 4 9 C 4 9 4 14 9 19 C 9 24 14 33 9 52 C 9 72 9 72 14 72 C 28 72 33 72 28 62 C 19 48 28 24 38 19 C 52 14 52 0 43 0 C 43 0 38 4 28 9 C 24 9 19 9 19 9 C 14 0 9 0 4 9 z" fill="black" /><!-- width=62 height=86 -->
<path id="gl1537" d="M 23 13 C 15 15 12 19 16 24 C 19 30 19 26 19 65 C 20 105 20 105 17 109 C 14 114 13 115 14 117 C 15 120 17 120 26 120 C 35 121 37 120 39 117 C 39 115 39 114 37 111 C 33 106 33 108 33 60 C 33 19 33 16 32 15 C 30 12 28 12 23 13 z" fill="black" /><!-- width=52 height=137 -->
<path id="gl5641" d="M 9 24 C 14 48 19 62 28 72 C 38 81 33 91 19 96 C 14 96 9 100 9 100 C 4 110 28 110 38 100 C 62 72 76 9 62 9 C 57 9 57 14 57 28 C 57 76 24 72 24 28 C 24 9 24 9 14 9 C 9 9 9 9 9 24 z" fill="black" /><!-- width=81 height=115 -->
<path id="gl5642" d="M 57 24 C 57 33 62 38 62 48 C 57 48 52 48 43 48 C 19 48 4 62 9 91 C 14 110 19 120 38 120 C 43 120 52 115 57 115 C 62 115 67 115 72 115 C 72 100 72 81 72 62 C 72 19 67 9 62 9 C 57 4 57 9 57 24 M 57 76 C 62 96 52 110 38 110 C 24 110 14 76 28 62 C 43 48 57 52 57 76 z" fill="black" /><!-- width=81 height=129 -->
<path id="gl1540" d="M 31 7 C 18 10 14 13 14 18 C 13 24 19 25 27 21 C 34 17 38 16 43 18 C 50 20 55 26 52 29 C 51 31 51 31 44 31 C 28 32 18 37 12 48 C 10 54 10 63 12 67 C 19 79 37 83 49 75 C 54 72 55 72 60 75 C 66 79 72 79 75 75 C 76 73 76 72 72 67 C 68 63 69 64 68 45 C 68 27 67 25 64 19 C 59 13 57 12 49 9 C 45 7 36 7 31 7 M 54 40 C 58 44 57 58 51 63 C 48 66 39 69 33 68 C 24 67 21 57 27 49 C 32 42 49 36 54 40 z" fill="black" /><!-- width=87 height=92 -->
<path id="gl1819" d="M 68 22 C 61 25 60 30 65 37 C 67 40 67 44 66 49 C 65 51 64 55 63 58 C 62 70 58 79 52 81 C 48 82 41 78 40 72 C 39 70 38 67 37 66 C 36 63 35 61 34 57 C 34 54 33 51 33 49 C 31 44 31 40 33 37 C 35 34 36 28 34 26 C 29 20 14 24 14 31 C 14 31 15 34 16 36 C 18 41 19 43 21 53 C 21 58 22 63 24 66 C 24 69 25 72 25 73 C 27 78 35 88 39 90 C 40 91 42 91 44 92 C 49 94 49 97 43 103 C 38 109 35 110 27 110 C 17 111 12 117 18 123 C 21 126 24 126 30 124 C 37 123 41 120 49 111 C 58 102 58 103 63 90 C 64 88 65 86 66 85 C 67 84 68 81 69 78 C 70 76 71 73 72 72 C 72 70 73 67 73 64 C 74 61 75 57 76 54 C 77 51 78 47 78 45 C 78 42 79 39 79 37 C 81 30 80 25 76 24 C 73 22 70 22 68 22 z" fill="black" /><!-- width=90 height=137 -->
<path id="gl1549" d="M 28 12 C 19 15 15 19 13 29 C 12 35 14 42 18 45 C 21 47 28 50 34 51 C 45 54 48 56 49 60 C 51 67 45 72 36 72 C 30 72 27 70 22 66 C 15 58 9 60 10 68 C 10 78 27 84 43 81 C 61 77 69 60 58 47 C 54 44 51 42 40 39 C 26 35 24 34 25 28 C 26 19 39 18 48 25 C 54 31 59 30 59 23 C 59 16 57 14 49 12 C 42 10 34 10 28 12 z" fill="black" /><!-- width=74 height=93 -->
<path id="gl1803" d="M 13 21 C 10 22 8 24 8 29 C 8 34 9 34 14 36 C 19 39 20 40 19 46 C 18 52 19 55 23 54 C 30 52 30 25 23 22 C 21 21 15 20 13 21 z" fill="black" /><!-- width=39 height=68 -->
<path id="gl1545" d="M 48 15 C 45 15 43 17 39 19 C 35 22 34 22 30 19 C 27 16 27 15 25 15 C 16 15 13 24 18 29 C 21 33 22 33 22 51 C 22 70 21 70 18 75 C 12 82 15 85 29 84 C 42 84 43 82 37 73 C 36 72 36 72 35 70 C 35 65 35 59 35 54 C 35 37 35 36 36 34 C 41 25 60 22 66 30 C 68 33 69 36 69 53 C 69 70 69 70 65 75 C 63 79 63 81 65 83 C 67 85 82 85 85 83 C 88 81 88 78 85 75 C 82 71 82 70 82 52 C 82 30 81 26 75 20 C 69 15 58 13 48 15 z" fill="black" /><!-- width=100 height=97 -->
<path id="gl5384" d="M 39 11 C 30 13 19 21 15 31 C 11 41 10 48 13 60 C 15 67 21 75 27 79 C 32 82 44 85 48 84 C 66 82 72 78 79 64 C 84 55 85 45 82 37 C 81 36 80 33 79 30 C 78 25 75 22 73 20 C 72 19 70 18 69 17 C 63 11 51 9 39 11 M 58 24 C 64 28 64 28 67 34 C 76 53 64 73 44 73 C 40 73 40 73 36 70 C 25 63 21 49 27 37 C 31 29 33 27 37 24 C 42 21 42 21 48 21 C 51 21 52 21 54 21 C 55 22 57 23 58 24 z" fill="black" /><!-- width=96 height=95 -->
<path id="gl1308" d="M 31 7 C 30 8 29 10 28 17 C 27 27 26 30 21 31 C 13 33 13 39 20 40 C 26 42 25 40 25 69 C 25 102 24 100 40 100 C 51 101 52 101 54 99 C 58 95 55 91 49 90 C 38 89 39 91 38 64 C 38 40 37 41 46 40 C 54 40 56 39 55 36 C 55 32 53 31 47 31 C 39 31 38 30 39 20 C 40 10 39 7 34 6 C 34 6 33 6 31 7 z" fill="black" /><!-- width=68 height=113 -->
<path id="gl5636" d="M 30 5 C 27 6 27 6 26 16 C 26 20 25 25 25 25 C 25 27 19 30 17 30 C 15 30 14 32 13 34 C 13 35 13 36 13 37 C 15 37 16 37 16 37 C 19 38 21 39 22 40 C 22 40 23 41 24 42 C 24 51 23 60 23 69 C 23 87 23 96 23 97 C 24 100 27 101 39 101 C 42 101 45 102 48 102 C 49 101 49 100 49 100 C 53 95 51 90 46 91 C 44 91 42 91 40 91 C 36 90 36 88 36 64 C 36 38 36 36 41 38 C 45 39 49 39 51 38 C 51 37 52 37 52 37 C 52 36 52 34 51 33 C 50 30 45 27 42 28 C 38 30 38 30 37 28 C 36 28 36 24 36 17 C 36 7 36 7 35 6 C 34 5 33 5 33 5 C 33 5 31 5 30 5 z" fill="black" /><!-- width=63 height=113 -->
<path id="gl5384" d="M 39 11 C 30 13 19 21 15 31 C 11 41 10 48 13 60 C 15 67 21 75 27 79 C 32 82 44 85 48 84 C 66 82 72 78 79 64 C 84 55 85 45 82 37 C 81 36 80 33 79 30 C 78 25 75 22 73 20 C 72 19 70 18 69 17 C 63 11 51 9 39 11 M 58 24 C 64 28 64 28 67 34 C 76 53 64 73 44 73 C 40 73 40 73 36 70 C 25 63 21 49 27 37 C 31 29 33 27 37 24 C 42 21 42 21 48 21 C 51 21 52 21 54 21 C 55 22 57 23 58 24 z" fill="black" /><!-- width=96 height=95 -->
<path id="gl1540" d="M 31 7 C 18 10 14 13 14 18 C 13 24 19 25 27 21 C 34 17 38 16 43 18 C 50 20 55 26 52 29 C 51 31 51 31 44 31 C 28 32 18 37 12 48 C 10 54 10 63 12 67 C 19 79 37 83 49 75 C 54 72 55 72 60 75 C 66 79 72 79 75 75 C 76 73 76 72 72 67 C 68 63 69 64 68 45 C 68 27 67 25 64 19 C 59 13 57 12 49 9 C 45 7 36 7 31 7 M 54 40 C 58 44 57 58 51 63 C 48 66 39 69 33 68 C 24 67 21 57 27 49 C 32 42 49 36 54 40 z" fill="black" /><!-- width=87 height=92 -->
<path id="gl5643" d="M 9 43 C 9 76 9 76 19 76 C 28 76 28 76 28 52 C 24 28 28 28 33 24 C 57 9 62 19 57 52 C 57 76 57 81 67 76 C 72 76 76 72 76 72 C 76 67 72 52 72 43 C 67 9 67 9 38 9 C 28 9 19 9 9 9 C 9 19 9 33 9 43 z" fill="black" /><!-- width=86 height=86 -->
<path id="gl1819" d="M 68 22 C 61 25 60 30 65 37 C 67 40 67 44 66 49 C 65 51 64 55 63 58 C 62 70 58 79 52 81 C 48 82 41 78 40 72 C 39 70 38 67 37 66 C 36 63 35 61 34 57 C 34 54 33 51 33 49 C 31 44 31 40 33 37 C 35 34 36 28 34 26 C 29 20 14 24 14 31 C 14 31 15 34 16 36 C 18 41 19 43 21 53 C 21 58 22 63 24 66 C 24 69 25 72 25 73 C 27 78 35 88 39 90 C 40 91 42 91 44 92 C 49 94 49 97 43 103 C 38 109 35 110 27 110 C 17 111 12 117 18 123 C 21 126 24 126 30 124 C 37 123 41 120 49 111 C 58 102 58 103 63 90 C 64 88 65 86 66 85 C 67 84 68 81 69 78 C 70 76 71 73 72 72 C 72 70 73 67 73 64 C 74 61 75 57 76 54 C 77 51 78 47 78 45 C 78 42 79 39 79 37 C 81 30 80 25 76 24 C 73 22 70 22 68 22 z" fill="black" /><!-- width=90 height=137 -->
<path id="gl1307" d="M 49 12 C 27 17 15 45 25 67 C 32 79 48 86 61 82 C 76 78 84 70 81 64 C 78 60 75 61 69 66 C 61 73 49 73 42 67 C 28 53 37 22 54 22 C 59 22 61 24 65 28 C 70 34 77 34 79 28 C 82 18 64 9 49 12 z" fill="black" /><!-- width=92 height=96 -->
<path id="gl5644" d="M 4 4 C 4 4 4 14 9 19 C 14 28 9 86 4 100 C 4 105 9 110 14 110 C 24 115 24 110 24 86 C 19 62 19 57 28 52 C 52 48 57 52 52 81 C 52 105 52 110 62 110 C 67 110 72 105 72 105 C 72 100 72 86 72 76 C 67 48 57 33 33 43 C 28 43 24 43 19 43 C 19 38 24 33 24 24 C 24 4 14 0 4 4 z" fill="black" /><!-- width=86 height=120 -->
<path id="gl5384" d="M 39 11 C 30 13 19 21 15 31 C 11 41 10 48 13 60 C 15 67 21 75 27 79 C 32 82 44 85 48 84 C 66 82 72 78 79 64 C 84 55 85 45 82 37 C 81 36 80 33 79 30 C 78 25 75 22 73 20 C 72 19 70 18 69 17 C 63 11 51 9 39 11 M 58 24 C 64 28 64 28 67 34 C 76 53 64 73 44 73 C 40 73 40 73 36 70 C 25 63 21 49 27 37 C 31 29 33 27 37 24 C 42 21 42 21 48 21 C 51 21 52 21 54 21 C 55 22 57 23 58 24 z" fill="black" /><!-- width=96 height=95 -->
<path id="gl5387" d="M 18 7 C 14 9 12 15 13 18 C 14 21 19 24 22 24 C 27 24 27 23 29 20 C 32 15 32 12 28 8 C 25 6 21 5 18 7 M 18 36 C 11 38 10 42 14 48 C 18 54 18 53 17 72 C 17 78 17 83 17 88 C 16 90 15 91 15 92 C 10 98 11 100 18 102 C 21 103 27 103 32 100 C 37 99 37 97 33 94 C 29 88 29 90 30 64 C 30 39 30 38 27 36 C 25 34 21 34 18 36 z" fill="black" /><!-- width=46 height=122 -->
<path id="gl1305" d="M 58 22 C 57 23 52 26 49 30 C 45 34 43 34 41 29 C 39 25 37 23 34 23 C 29 23 24 28 24 32 C 24 34 24 35 27 38 C 32 43 31 42 31 61 C 31 78 31 79 28 84 C 25 87 25 88 28 91 C 30 92 30 92 38 92 C 41 92 44 92 47 92 C 48 92 48 91 49 91 C 51 88 51 87 48 84 C 45 78 45 78 45 65 C 45 52 46 49 49 43 C 53 37 56 36 63 38 C 70 39 74 33 70 27 C 69 23 64 21 58 22 z" fill="black" /><!-- width=84 height=105 -->
<path id="gl2066" d="M 45 16 C 43 17 40 19 39 20 C 34 23 32 23 28 19 C 24 15 20 15 16 20 C 12 24 12 26 16 31 C 20 34 20 35 20 55 C 20 72 20 73 16 79 C 13 83 16 85 25 87 C 33 87 36 86 38 83 C 38 82 39 82 39 81 C 38 79 37 78 36 76 C 36 75 35 74 34 72 C 34 67 34 63 33 58 C 33 42 33 39 35 35 C 39 27 52 24 59 30 C 63 33 63 36 63 55 C 63 60 63 66 63 71 C 63 73 61 74 61 76 C 57 82 58 83 63 85 C 69 88 79 87 82 82 C 83 81 83 81 81 79 C 77 73 77 73 77 56 C 77 35 78 33 85 29 C 95 25 103 27 106 36 C 107 39 107 41 107 54 C 107 71 107 71 103 77 C 101 82 101 82 104 85 C 106 87 118 87 121 85 C 125 83 126 82 123 76 C 121 70 120 69 120 54 C 120 37 120 33 117 27 C 112 18 102 14 90 16 C 85 18 84 18 80 21 C 75 25 74 25 67 20 C 61 16 51 14 45 16 z" fill="black" /><!-- width=136 height=99 -->
<path id="gl5399" d="M 26 7 C 24 8 19 9 17 10 C 12 13 12 13 11 16 C 10 19 10 20 12 21 C 16 23 21 22 27 19 C 30 17 30 16 34 16 C 44 16 49 19 51 26 C 52 31 51 31 42 31 C 33 30 30 31 24 35 C 16 39 15 41 12 45 C 12 46 10 49 9 50 C 8 51 7 52 6 52 C 7 55 7 57 7 58 C 9 66 9 67 15 72 C 19 76 24 78 32 79 C 40 79 42 79 45 76 C 48 72 51 72 58 75 C 65 79 67 79 69 78 C 72 75 72 73 69 68 C 66 61 64 53 66 45 C 67 40 66 30 64 22 C 63 19 58 14 53 12 C 51 11 50 10 50 10 C 50 9 46 8 39 7 C 31 6 32 6 26 7 M 51 40 C 54 41 55 43 54 48 C 54 51 54 54 54 55 C 54 61 48 66 39 68 C 30 70 26 68 22 60 C 18 53 30 40 40 39 C 45 39 49 39 51 40 z" fill="black" /><!-- width=83 height=91 -->
<path id="gl5645" d="M 14 14 C 0 24 9 43 28 48 C 33 52 43 57 43 57 C 48 67 33 72 19 62 C 4 57 0 62 4 72 C 14 81 43 81 48 72 C 62 62 52 43 38 38 C 28 33 19 28 19 24 C 19 14 38 14 43 24 C 52 28 57 24 52 14 C 48 4 19 4 14 14 z" fill="black" /><!-- width=67 height=91 -->
<path id="gl5634" d="M 29 6 C 27 9 27 9 26 16 C 26 25 23 30 19 31 C 15 32 15 33 15 35 C 15 38 16 39 19 40 C 24 40 24 41 24 70 C 24 99 24 99 28 101 C 31 103 49 103 51 101 C 53 100 55 96 54 94 C 54 94 49 93 43 91 C 40 91 39 90 37 89 C 37 88 36 87 36 87 C 36 79 36 72 36 64 C 36 37 35 39 45 40 C 51 41 54 39 53 35 C 52 32 49 31 44 31 C 42 31 39 30 39 30 C 37 30 36 25 36 21 C 37 11 36 7 33 6 C 31 4 30 4 29 6 z" fill="black" /><!-- width=64 height=115 -->
<path id="gl1542" d="M 49 10 C 49 10 46 11 43 12 C 37 13 31 17 25 24 C 14 36 13 58 22 70 C 34 84 56 87 72 76 C 81 70 84 64 79 63 C 75 61 74 61 69 65 C 61 70 59 72 53 72 C 42 72 30 65 33 58 C 33 56 36 55 42 55 C 60 53 75 45 78 36 C 79 32 78 26 77 22 C 76 21 70 15 69 13 C 66 12 51 9 49 10 M 57 21 C 66 23 67 34 58 40 C 55 42 40 47 36 47 C 29 48 28 44 32 35 C 36 25 48 19 57 21 z" fill="black" /><!-- width=91 height=94 -->
<path id="gl1305" d="M 58 22 C 57 23 52 26 49 30 C 45 34 43 34 41 29 C 39 25 37 23 34 23 C 29 23 24 28 24 32 C 24 34 24 35 27 38 C 32 43 31 42 31 61 C 31 78 31 79 28 84 C 25 87 25 88 28 91 C 30 92 30 92 38 92 C 41 92 44 92 47 92 C 48 92 48 91 49 91 C 51 88 51 87 48 84 C 45 78 45 78 45 65 C 45 52 46 49 49 43 C 53 37 56 36 63 38 C 70 39 74 33 70 27 C 69 23 64 21 58 22 z" fill="black" /><!-- width=84 height=105 -->
<path id="gl1800" d="M 34 7 C 28 9 26 10 26 14 C 26 16 27 18 27 19 C 31 24 31 27 31 82 C 31 100 31 100 27 106 C 25 109 25 112 27 114 C 29 116 31 116 40 116 C 49 115 52 111 48 105 C 45 102 45 101 45 96 C 45 88 49 82 55 82 C 57 82 57 83 61 86 C 65 91 67 94 70 99 C 70 100 71 101 72 102 C 71 104 70 105 70 106 C 68 113 69 115 78 116 C 87 117 92 116 94 112 C 95 109 94 108 90 103 C 88 102 85 98 84 96 C 83 94 81 91 81 91 C 80 91 79 89 78 87 C 76 85 73 82 72 80 C 67 76 67 75 67 72 C 68 69 74 63 78 61 C 78 60 81 58 84 55 C 89 50 90 49 86 46 C 82 42 81 42 77 43 C 75 45 71 45 69 46 C 64 47 64 47 64 54 C 64 62 61 66 52 72 C 48 75 46 75 45 72 C 44 70 44 70 45 39 C 45 24 45 12 45 11 C 44 6 40 5 34 7 z" fill="black" /><!-- width=105 height=142 -->
<path id="gl1545" d="M 48 15 C 45 15 43 17 39 19 C 35 22 34 22 30 19 C 27 16 27 15 25 15 C 16 15 13 24 18 29 C 21 33 22 33 22 51 C 22 70 21 70 18 75 C 12 82 15 85 29 84 C 42 84 43 82 37 73 C 36 72 36 72 35 70 C 35 65 35 59 35 54 C 35 37 35 36 36 34 C 41 25 60 22 66 30 C 68 33 69 36 69 53 C 69 70 69 70 65 75 C 63 79 63 81 65 83 C 67 85 82 85 85 83 C 88 81 88 78 85 75 C 82 71 82 70 82 52 C 82 30 81 26 75 20 C 69 15 58 13 48 15 z" fill="black" /><!-- width=100 height=97 -->
<path id="gl1539" d="M 43 12 C 41 13 37 14 34 16 C 12 27 6 57 22 73 C 37 88 60 88 75 73 C 100 48 78 7 43 12 M 55 24 C 60 25 64 28 67 32 C 79 50 69 74 49 74 C 30 74 21 53 31 34 C 35 25 46 21 55 24 z" fill="black" /><!-- width=99 height=97 -->
<path id="gl1795" d="M 18 13 C 13 15 12 19 15 24 C 15 26 17 33 19 39 C 24 57 31 76 37 81 C 42 86 46 85 51 78 C 54 72 57 64 58 61 C 61 55 63 54 65 55 C 67 57 69 58 70 63 C 74 75 79 84 84 84 C 88 85 91 82 98 69 C 99 67 100 64 101 63 C 103 61 105 55 109 41 C 112 34 114 28 115 25 C 117 21 117 18 114 15 C 111 13 111 13 106 13 C 97 13 96 17 99 25 C 100 32 100 37 94 52 C 88 70 85 69 77 48 C 75 45 74 40 73 37 C 73 35 73 33 72 31 C 73 30 73 28 73 27 C 77 16 76 14 69 13 C 57 12 53 17 57 25 C 61 31 59 41 52 56 C 49 61 46 65 44 65 C 42 65 38 59 36 51 C 35 48 34 43 33 41 C 31 34 31 29 33 24 C 36 19 35 16 32 15 C 30 13 21 13 18 13 z" fill="black" /><!-- width=126 height=96 -->
<path id="gl1545" d="M 48 15 C 45 15 43 17 39 19 C 35 22 34 22 30 19 C 27 16 27 15 25 15 C 16 15 13 24 18 29 C 21 33 22 33 22 51 C 22 70 21 70 18 75 C 12 82 15 85 29 84 C 42 84 43 82 37 73 C 36 72 36 72 35 70 C 35 65 35 59 35 54 C 35 37 35 36 36 34 C 41 25 60 22 66 30 C 68 33 69 36 69 53 C 69 70 69 70 65 75 C 63 79 63 81 65 83 C 67 85 82 85 85 83 C 88 81 88 78 85 75 C 82 71 82 70 82 52 C 82 30 81 26 75 20 C 69 15 58 13 48 15 z" fill="black" /><!-- width=100 height=97 -->
<path id="gl1548" d="M 30 9 C 28 10 27 12 26 21 C 25 30 24 31 20 33 C 14 34 14 40 20 43 C 24 45 24 44 24 73 C 24 81 24 90 24 98 C 24 99 25 99 25 100 C 28 102 30 103 42 103 C 49 103 52 102 53 99 C 54 96 52 94 46 93 C 37 92 37 93 37 65 C 37 58 37 52 37 45 C 37 45 38 45 39 44 C 40 43 41 43 45 43 C 52 43 54 41 53 37 C 52 34 51 33 45 33 C 37 33 37 32 38 20 C 39 12 38 10 33 9 C 32 8 31 8 30 9 z" fill="black" /><!-- width=65 height=117 -->
<path id="gl1539" d="M 43 12 C 41 13 37 14 34 16 C 12 27 6 57 22 73 C 37 88 60 88 75 73 C 100 48 78 7 43 12 M 55 24 C 60 25 64 28 67 32 C 79 50 69 74 49 74 C 30 74 21 53 31 34 C 35 25 46 21 55 24 z" fill="black" /><!-- width=99 height=97 -->
<path id="gl5646" d="M 27 7 C 21 10 19 12 20 15 C 20 16 21 18 22 19 C 24 21 25 23 25 31 C 25 34 25 39 25 42 C 26 45 26 48 26 51 C 25 54 25 57 26 58 C 26 60 26 64 25 69 C 25 73 25 76 25 78 C 26 79 26 80 25 81 C 25 82 25 87 25 93 C 25 104 25 105 21 107 C 18 109 18 110 21 112 C 23 114 26 115 30 115 C 31 114 33 115 34 115 C 38 116 42 115 43 114 C 45 110 45 109 42 107 C 40 105 39 99 39 82 C 39 75 39 67 39 65 C 39 60 40 58 44 58 C 45 58 47 57 49 57 C 53 54 60 55 64 57 C 67 58 67 59 70 63 C 70 64 71 66 72 67 C 72 72 72 78 72 83 C 72 101 72 103 67 107 C 66 109 66 110 68 113 C 71 115 72 116 79 115 C 85 115 85 115 87 112 C 90 111 91 108 89 108 C 89 108 88 105 87 103 C 86 101 85 100 85 98 C 85 95 85 92 85 89 C 85 84 85 78 85 75 C 85 69 84 63 82 59 C 82 57 81 55 81 54 C 79 49 73 45 63 45 C 52 44 51 44 49 46 C 45 50 40 50 39 48 C 38 46 39 33 39 18 C 40 10 39 9 36 7 C 32 5 31 5 27 7 z" fill="black" /><!-- width=100 height=137 -->
<path id="gl5387" d="M 18 7 C 14 9 12 15 13 18 C 14 21 19 24 22 24 C 27 24 27 23 29 20 C 32 15 32 12 28 8 C 25 6 21 5 18 7 M 18 36 C 11 38 10 42 14 48 C 18 54 18 53 17 72 C 17 78 17 83 17 88 C 16 90 15 91 15 92 C 10 98 11 100 18 102 C 21 103 27 103 32 100 C 37 99 37 97 33 94 C 29 88 29 90 30 64 C 30 39 30 38 27 36 C 25 34 21 34 18 36 z" fill="black" /><!-- width=46 height=122 -->
<path id="gl2066" d="M 45 16 C 43 17 40 19 39 20 C 34 23 32 23 28 19 C 24 15 20 15 16 20 C 12 24 12 26 16 31 C 20 34 20 35 20 55 C 20 72 20 73 16 79 C 13 83 16 85 25 87 C 33 87 36 86 38 83 C 38 82 39 82 39 81 C 38 79 37 78 36 76 C 36 75 35 74 34 72 C 34 67 34 63 33 58 C 33 42 33 39 35 35 C 39 27 52 24 59 30 C 63 33 63 36 63 55 C 63 60 63 66 63 71 C 63 73 61 74 61 76 C 57 82 58 83 63 85 C 69 88 79 87 82 82 C 83 81 83 81 81 79 C 77 73 77 73 77 56 C 77 35 78 33 85 29 C 95 25 103 27 106 36 C 107 39 107 41 107 54 C 107 71 107 71 103 77 C 101 82 101 82 104 85 C 106 87 118 87 121 85 C 125 83 126 82 123 76 C 121 70 120 69 120 54 C 120 37 120 33 117 27 C 112 18 102 14 90 16 C 85 18 84 18 80 21 C 75 25 74 25 67 20 C 61 16 51 14 45 16 z" fill="black" /><!-- width=136 height=99 -->
<path id="gl5639" d="M 30 6 C 29 6 27 6 25 7 C 22 7 21 7 19 9 C 18 9 16 10 15 11 C 11 12 10 13 10 16 C 12 24 15 24 26 19 C 34 15 34 15 40 18 C 49 21 51 24 51 28 C 50 30 49 31 42 31 C 27 33 27 33 24 34 C 22 36 20 37 18 38 C 16 39 14 40 14 42 C 14 42 13 44 12 45 C 7 51 6 57 9 66 C 11 74 11 74 13 74 C 16 75 16 75 19 77 C 21 79 24 81 33 81 C 36 81 42 79 45 76 C 49 72 54 72 57 76 C 61 81 66 81 69 77 C 71 74 71 73 68 69 C 64 63 64 61 65 55 C 65 53 65 49 65 48 C 64 46 64 42 65 39 C 66 27 61 16 51 11 C 43 7 32 4 30 6 M 50 39 C 55 43 55 52 50 62 C 48 65 46 66 34 69 C 29 71 21 66 20 61 C 19 52 25 45 37 40 C 40 40 43 39 43 38 C 46 37 48 37 50 39 z" fill="black" /><!-- width=81 height=94 -->
<path id="gl1308" d="M 31 7 C 30 8 29 10 28 17 C 27 27 26 30 21 31 C 13 33 13 39 20 40 C 26 42 25 40 25 69 C 25 102 24 100 40 100 C 51 101 52 101 54 99 C 58 95 55 91 49 90 C 38 89 39 91 38 64 C 38 40 37 41 46 40 C 54 40 56 39 55 36 C 55 32 53 31 47 31 C 39 31 38 30 39 20 C 40 10 39 7 34 6 C 34 6 33 6 31 7 z" fill="black" /><!-- width=68 height=113 -->
<path id="gl5634" d="M 29 6 C 27 9 27 9 26 16 C 26 25 23 30 19 31 C 15 32 15 33 15 35 C 15 38 16 39 19 40 C 24 40 24 41 24 70 C 24 99 24 99 28 101 C 31 103 49 103 51 101 C 53 100 55 96 54 94 C 54 94 49 93 43 91 C 40 91 39 90 37 89 C 37 88 36 87 36 87 C 36 79 36 72 36 64 C 36 37 35 39 45 40 C 51 41 54 39 53 35 C 52 32 49 31 44 31 C 42 31 39 30 39 30 C 37 30 36 25 36 21 C 37 11 36 7 33 6 C 31 4 30 4 29 6 z" fill="black" /><!-- width=64 height=115 -->
<path id="gl1541" d="M 33 7 C 27 7 22 11 24 15 C 24 16 25 18 26 20 C 29 25 30 31 29 68 C 28 102 29 100 25 105 C 19 111 22 115 34 115 C 42 115 45 115 47 112 C 49 111 49 109 45 104 C 45 103 43 102 43 100 C 43 95 43 89 43 84 C 42 73 43 66 43 64 C 45 57 60 53 68 57 C 74 60 75 63 75 78 C 76 93 75 100 73 105 C 67 112 70 115 85 115 C 95 114 97 111 93 105 C 89 100 89 100 89 85 C 90 70 89 64 87 59 C 82 46 67 40 51 47 C 42 51 42 49 42 28 C 43 7 43 5 33 7 z" fill="black" /><!-- width=106 height=137 -->
<path id="gl1802" d="M 42 13 C 33 16 22 25 20 33 C 19 34 18 37 17 39 C 12 51 16 66 25 75 C 37 87 57 88 73 77 C 77 74 78 74 79 71 C 81 67 81 66 78 63 C 75 61 71 63 67 67 C 64 70 57 73 53 73 C 43 75 30 67 32 60 C 33 58 35 57 43 56 C 60 54 75 46 77 38 C 81 24 70 12 52 13 C 48 13 45 13 42 13 M 58 24 C 66 28 65 37 57 42 C 52 45 37 49 33 49 C 28 49 28 42 33 33 C 39 25 51 20 58 24 z" fill="black" /><!-- width=90 height=97 -->
<path id="gl1538" d="M 58 30 C 54 30 52 31 47 34 C 42 37 41 37 37 34 C 33 30 30 29 25 31 C 18 33 16 40 23 44 C 27 46 27 46 27 77 C 27 109 27 112 24 117 C 19 126 22 128 36 127 C 46 127 49 124 44 118 C 41 113 39 103 41 99 C 42 97 43 97 51 100 C 63 103 76 100 86 90 C 92 82 96 68 93 57 C 90 39 73 26 58 30 M 69 43 C 75 47 79 55 79 66 C 79 82 69 92 55 90 C 52 90 49 89 46 89 C 40 89 40 90 41 70 C 41 52 41 52 46 47 C 51 42 61 40 69 43 z" fill="black" /><!-- width=106 height=143 -->
<path id="gl1305" d="M 58 22 C 57 23 52 26 49 30 C 45 34 43 34 41 29 C 39 25 37 23 34 23 C 29 23 24 28 24 32 C 24 34 24 35 27 38 C 32 43 31 42 31 61 C 31 78 31 79 28 84 C 25 87 25 88 28 91 C 30 92 30 92 38 92 C 41 92 44 92 47 92 C 48 92 48 91 49 91 C 51 88 51 87 48 84 C 45 78 45 78 45 65 C 45 52 46 49 49 43 C 53 37 56 36 63 38 C 70 39 74 33 70 27 C 69 23 64 21 58 22 z" fill="black" /><!-- width=84 height=105 -->
<path id="gl1542" d="M 49 10 C 49 10 46 11 43 12 C 37 13 31 17 25 24 C 14 36 13 58 22 70 C 34 84 56 87 72 76 C 81 70 84 64 79 63 C 75 61 74 61 69 65 C 61 70 59 72 53 72 C 42 72 30 65 33 58 C 33 56 36 55 42 55 C 60 53 75 45 78 36 C 79 32 78 26 77 22 C 76 21 70 15 69 13 C 66 12 51 9 49 10 M 57 21 C 66 23 67 34 58 40 C 55 42 40 47 36 47 C 29 48 28 44 32 35 C 36 25 48 19 57 21 z" fill="black" /><!-- width=91 height=94 -->
<path id="gl1299" d="M 18 13 C 13 15 12 18 15 21 C 17 24 18 24 35 24 C 51 24 51 24 54 21 C 57 18 56 16 52 14 C 49 13 22 12 18 13 z" fill="black" /><!-- width=69 height=37 -->
<path id="gl1796" d="M 30 11 C 24 13 16 19 15 25 C 10 36 16 47 28 49 C 37 52 45 54 46 55 C 52 60 51 69 43 72 C 36 74 30 72 23 66 C 19 62 18 61 15 62 C 8 63 9 72 16 76 C 28 84 39 84 50 79 C 59 75 63 69 63 61 C 63 49 57 43 40 39 C 29 36 27 35 25 30 C 25 26 28 21 35 21 C 39 20 42 21 48 25 C 55 31 57 31 60 27 C 63 21 59 16 51 12 C 48 11 34 10 30 11 z" fill="black" /><!-- width=76 height=94 -->
<path id="gl1542" d="M 49 10 C 49 10 46 11 43 12 C 37 13 31 17 25 24 C 14 36 13 58 22 70 C 34 84 56 87 72 76 C 81 70 84 64 79 63 C 75 61 74 61 69 65 C 61 70 59 72 53 72 C 42 72 30 65 33 58 C 33 56 36 55 42 55 C 60 53 75 45 78 36 C 79 32 78 26 77 22 C 76 21 70 15 69 13 C 66 12 51 9 49 10 M 57 21 C 66 23 67 34 58 40 C 55 42 40 47 36 47 C 29 48 28 44 32 35 C 36 25 48 19 57 21 z" fill="black" /><!-- width=91 height=94 -->
<path id="gl1545" d="M 48 15 C 45 15 43 17 39 19 C 35 22 34 22 30 19 C 27 16 27 15 25 15 C 16 15 13 24 18 29 C 21 33 22 33 22 51 C 22 70 21 70 18 75 C 12 82 15 85 29 84 C 42 84 43 82 37 73 C 36 72 36 72 35 70 C 35 65 35 59 35 54 C 35 37 35 36 36 34 C 41 25 60 22 66 30 C 68 33 69 36 69 53 C 69 70 69 70 65 75 C 63 79 63 81 65 83 C 67 85 82 85 85 83 C 88 81 88 78 85 75 C 82 71 82 70 82 52 C 82 30 81 26 75 20 C 69 15 58 13 48 15 z" fill="black" /><!-- width=100 height=97 -->
<path id="gl1308" d="M 31 7 C 30 8 29 10 28 17 C 27 27 26 30 21 31 C 13 33 13 39 20 40 C 26 42 25 40 25 69 C 25 102 24 100 40 100 C 51 101 52 101 54 99 C 58 95 55 91 49 90 C 38 89 39 91 38 64 C 38 40 37 41 46 40 C 54 40 56 39 55 36 C 55 32 53 31 47 31 C 39 31 38 30 39 20 C 40 10 39 7 34 6 C 34 6 33 6 31 7 z" fill="black" /><!-- width=68 height=113 -->
<path id="gl1548" d="M 30 9 C 28 10 27 12 26 21 C 25 30 24 31 20 33 C 14 34 14 40 20 43 C 24 45 24 44 24 73 C 24 81 24 90 24 98 C 24 99 25 99 25 100 C 28 102 30 103 42 103 C 49 103 52 102 53 99 C 54 96 52 94 46 93 C 37 92 37 93 37 65 C 37 58 37 52 37 45 C 37 45 38 45 39 44 C 40 43 41 43 45 43 C 52 43 54 41 53 37 C 52 34 51 33 45 33 C 37 33 37 32 38 20 C 39 12 38 10 33 9 C 32 8 31 8 30 9 z" fill="black" /><!-- width=65 height=117 -->
<path id="gl1536" d="M 21 7 C 15 9 13 14 16 19 C 19 25 28 25 32 19 C 36 12 28 4 21 7 M 21 34 C 12 37 9 41 15 46 C 20 51 20 51 19 69 C 19 87 19 89 16 91 C 13 95 12 98 15 100 C 16 102 16 102 25 102 C 35 102 37 102 38 99 C 39 97 39 96 36 93 C 33 89 33 90 33 67 C 33 34 32 31 21 34 z" fill="black" /><!-- width=51 height=120 -->
<path id="gl2066" d="M 45 16 C 43 17 40 19 39 20 C 34 23 32 23 28 19 C 24 15 20 15 16 20 C 12 24 12 26 16 31 C 20 34 20 35 20 55 C 20 72 20 73 16 79 C 13 83 16 85 25 87 C 33 87 36 86 38 83 C 38 82 39 82 39 81 C 38 79 37 78 36 76 C 36 75 35 74 34 72 C 34 67 34 63 33 58 C 33 42 33 39 35 35 C 39 27 52 24 59 30 C 63 33 63 36 63 55 C 63 60 63 66 63 71 C 63 73 61 74 61 76 C 57 82 58 83 63 85 C 69 88 79 87 82 82 C 83 81 83 81 81 79 C 77 73 77 73 77 56 C 77 35 78 33 85 29 C 95 25 103 27 106 36 C 107 39 107 41 107 54 C 107 71 107 71 103 77 C 101 82 101 82 104 85 C 106 87 118 87 121 85 C 125 83 126 82 123 76 C 121 70 120 69 120 54 C 120 37 120 33 117 27 C 112 18 102 14 90 16 C 85 18 84 18 80 21 C 75 25 74 25 67 20 C 61 16 51 14 45 16 z" fill="black" /><!-- width=136 height=99 -->
<path id="gl1544" d="M 46 13 C 35 15 24 25 19 36 C 15 46 16 61 21 68 C 27 78 39 84 51 84 C 64 84 82 75 82 68 C 82 61 76 60 69 66 C 61 72 54 74 47 72 C 37 70 30 63 34 58 C 35 57 37 57 48 55 C 75 52 88 33 73 19 C 67 13 57 10 46 13 M 60 24 C 66 27 67 34 61 40 C 57 43 37 49 33 48 C 27 46 34 30 44 25 C 49 22 56 22 60 24 z" fill="black" /><!-- width=93 height=96 -->
<path id="gl1565" d="M 18 13 C 13 18 13 27 18 28 C 24 30 29 27 30 21 C 31 16 31 16 25 13 C 21 11 21 11 18 13 z" fill="black" /><!-- width=45 height=42 -->
</defs>
<use xlink:href="#gl5632" x="12" y="32" />
<use xlink:href="#gl1291" x="239" y="0" />
<use xlink:href="#gl1541" x="322" y="29" />
<use xlink:href="#gl1536" x="412" y="41" />
<use xlink:href="#gl1549" x="445" y="63" />
<use xlink:href="#gl1305" x="535" y="52" />
<use xlink:href="#gl1544" x="592" y="61" />
<use xlink:href="#gl5633" x="675" y="27" />
<use xlink:href="#gl1542" x="706" y="63" />
<use xlink:href="#gl1305" x="769" y="51" />
<use xlink:href="#gl1796" x="831" y="63" />
<use xlink:href="#gl5634" x="929" y="42" />
<use xlink:href="#gl1539" x="974" y="61" />
<use xlink:href="#gl1308" x="1094" y="43" />
<use xlink:href="#gl1541" x="1132" y="30" />
<use xlink:href="#gl1544" x="1215" y="61" />
<use xlink:href="#gl5635" x="1342" y="70" />
<use xlink:href="#gl1547" x="1406" y="66" />
<use xlink:href="#gl5636" x="1476" y="43" />
<use xlink:href="#gl1541" x="1511" y="28" />
<use xlink:href="#gl5637" x="1606" y="70" />
<use xlink:href="#gl1305" x="1668" y="51" />
<use xlink:href="#gl1536" x="1776" y="41" />
<use xlink:href="#gl5638" x="1817" y="70" />
<use xlink:href="#gl1541" x="1923" y="30" />
<use xlink:href="#gl1536" x="2013" y="42" />
<use xlink:href="#gl5390" x="2047" y="63" />
<use xlink:href="#gl1542" x="2143" y="62" />
<use xlink:href="#gl5639" x="2223" y="65" />
<use xlink:href="#gl5640" x="2297" y="70" />
<use xlink:href="#gl1537" x="2336" y="22" />
<use xlink:href="#gl5641" x="2374" y="65" />
<use xlink:href="#gl5642" x="2484" y="27" />
<use xlink:href="#gl1540" x="2557" y="65" />
<use xlink:href="#gl1819" x="2620" y="48" />
<use xlink:href="#gl1549" x="2693" y="63" />
<use xlink:href="#gl1803" x="2760" y="107" />
<use xlink:href="#gl1545" x="2834" y="59" />
<use xlink:href="#gl5384" x="2916" y="61" />
<use xlink:href="#gl1308" x="2988" y="42" />
<use xlink:href="#gl5636" x="3079" y="43" />
<use xlink:href="#gl5384" x="3125" y="61" />
<use xlink:href="#gl1540" x="3249" y="64" />
<use xlink:href="#gl5643" x="3324" y="65" />
<use xlink:href="#gl1819" x="3391" y="48" />
<use xlink:href="#gl1307" x="3499" y="60" />
<use xlink:href="#gl5644" x="3583" y="32" />
<use xlink:href="#gl5384" x="3654" y="61" />
<use xlink:href="#gl5387" x="3735" y="38" />
<use xlink:href="#gl1305" x="3754" y="50" />
<use xlink:href="#gl2066" x="3815" y="56" />
<use xlink:href="#gl5399" x="3938" y="65" />
<use xlink:href="#gl5645" x="4011" y="65" />
<use xlink:href="#gl5634" x="4057" y="41" />
<use xlink:href="#gl1542" x="4098" y="61" />
<use xlink:href="#gl1305" x="4161" y="51" />
<use xlink:href="#gl1800" x="4256" y="27" />
<use xlink:href="#gl1545" x="4336" y="57" />
<use xlink:href="#gl1539" x="4417" y="59" />
<use xlink:href="#gl1795" x="4491" y="58" />
<use xlink:href="#gl1545" x="4594" y="57" />
<use xlink:href="#gl1548" x="4718" y="39" />
<use xlink:href="#gl1539" x="4762" y="59" />
<use xlink:href="#gl5646" x="4881" y="27" />
<use xlink:href="#gl5387" x="4970" y="39" />
<use xlink:href="#gl2066" x="4998" y="55" />
<use xlink:href="#gl5639" x="5168" y="63" />
<use xlink:href="#gl1308" x="5228" y="41" />
<use xlink:href="#gl5634" x="5318" y="40" />
<use xlink:href="#gl1541" x="5353" y="26" />
<use xlink:href="#gl1802" x="5438" y="58" />
<use xlink:href="#gl1538" x="5552" y="42" />
<use xlink:href="#gl1305" x="5628" y="50" />
<use xlink:href="#gl1542" x="5686" y="60" />
<use xlink:href="#gl1299" x="5756" y="81" />
<use xlink:href="#gl1796" x="0" y="224" />
<use xlink:href="#gl1542" x="52" y="224" />
<use xlink:href="#gl1545" x="123" y="221" />
<use xlink:href="#gl1308" x="200" y="205" />
<use xlink:href="#gl1548" x="286" y="203" />
<use xlink:href="#gl1536" x="333" y="203" />
<use xlink:href="#gl2066" x="365" y="219" />
<use xlink:href="#gl1544" x="479" y="223" />
<use xlink:href="#gl1565" x="561" y="277" />
</svg>