<?xml version="1.0" standalone="no"?>
<!DOCTYPE svg PUBLIC "-//W3C/DTD SVG 1.1//EN" "http://www.w3.org/Graphics/SVG/1.1/DTD/svg11.dtd">
<svg width="548px" height="48px" viewBox="0 0 5489 487" xmlns="http://www.w3.org/2000/svg" xmlns:xlink="http://www.w3.org/1999/xlink" version="1.1">
<defs>
<path id="gl5402" d="M 27 7 C 24 9 22 12 18 19 C 14 27 13 41 17 48 C 20 54 27 57 33 54 C 38 52 40 45 37 40 C 36 38 36 37 31 36 C 24 34 24 26 31 19 C 36 14 36 11 33 7 C 31 5 30 5 27 7 M 61 7 C 60 9 58 10 55 15 C 51 23 50 27 50 34 C 50 46 52 52 60 54 C 70 58 79 48 72 39 C 72 37 70 37 66 36 C 59 34 59 27 66 19 C 70 14 72 12 70 9 C 68 6 65 5 61 7 z" fill="black" /><!-- width=87 height=73 -->
<path id="gl8964" d="M 58 12 C 42 13 28 24 21 37 C 12 58 18 78 38 87 C 44 90 64 96 75 98 C 95 102 106 111 106 123 C 106 146 79 159 51 149 C 43 147 36 141 33 137 C 24 124 22 123 18 123 C 16 123 13 126 12 129 C 11 134 15 141 22 149 C 37 165 67 170 93 162 C 117 154 131 128 123 106 C 118 90 105 81 79 76 C 75 75 69 73 67 73 C 66 72 61 71 59 70 C 51 68 41 61 39 56 C 36 44 40 33 51 28 C 66 20 84 24 98 39 C 103 44 103 45 106 45 C 114 44 115 28 107 21 C 99 14 75 9 58 12 z" fill="black" /><!-- width=138 height=178 -->
<path id="gl0" d="M 38 8 C 36 11 35 14 34 24 C 33 39 31 42 24 42 C 19 43 16 44 15 47 C 14 51 18 54 24 54 C 29 55 31 57 31 61 C 31 63 31 81 31 99 C 30 143 29 139 46 141 C 52 141 58 141 61 141 C 70 142 76 137 72 131 C 71 128 67 127 60 127 C 47 127 48 129 47 90 C 47 58 47 57 49 55 C 51 54 51 54 56 54 C 66 56 70 55 72 51 C 73 48 73 45 70 43 C 69 42 62 42 54 43 C 53 43 52 43 51 43 C 50 43 49 42 49 42 C 47 39 47 37 48 24 C 49 11 48 7 42 6 C 40 6 40 6 38 8 z" fill="black" /><!-- width=84 height=157 -->
<path id="gl515" d="M 64 12 C 43 16 27 31 21 52 C 19 60 19 73 21 79 C 29 108 63 123 91 109 C 108 100 115 91 109 85 C 106 81 102 83 94 90 C 83 99 73 102 60 98 C 49 96 39 85 40 79 C 41 75 42 74 54 73 C 75 73 91 67 101 56 C 110 46 110 33 102 22 C 93 13 79 9 64 12 M 78 25 C 85 27 89 31 89 38 C 89 46 85 51 75 56 C 70 58 48 65 44 65 C 38 65 36 61 39 53 C 43 34 61 21 78 25 z" fill="black" /><!-- width=123 height=126 -->
<path id="gl4104" d="M 76 34 C 70 35 64 37 61 40 C 55 45 51 45 48 40 C 45 36 42 34 38 34 C 31 34 24 39 24 43 C 24 46 24 46 28 49 C 35 54 34 50 34 102 C 35 152 35 154 31 159 C 27 164 28 167 32 169 C 36 171 54 170 56 168 C 59 166 59 163 56 160 C 52 154 52 154 52 142 C 52 135 52 129 53 127 C 54 124 54 123 53 120 C 52 115 51 88 52 76 C 52 64 54 60 60 54 C 74 40 97 43 105 61 C 109 71 111 86 108 97 C 102 117 89 126 70 121 C 63 119 61 119 58 121 C 58 122 57 123 57 123 C 57 124 57 124 58 125 C 60 130 70 133 80 133 C 102 133 121 119 125 100 C 133 67 120 41 94 35 C 90 34 80 33 76 34 z" fill="black" /><!-- width=141 height=184 -->
<path id="gl11784" d="M 51 7 C 24 13 7 31 11 53 C 12 61 21 66 30 64 C 37 61 38 55 33 47 C 29 39 31 33 40 27 C 53 17 70 17 79 28 C 91 42 85 60 63 81 C 58 84 53 90 50 93 C 46 96 42 102 39 105 C 29 115 21 126 18 130 C 16 133 13 137 12 139 C 7 146 6 151 9 155 C 10 156 10 157 11 157 C 24 157 36 157 49 157 C 98 158 94 158 97 156 C 100 154 102 152 105 145 C 106 143 108 140 108 139 C 112 133 108 126 100 126 C 97 126 96 127 92 133 C 87 139 82 140 57 141 C 36 141 34 141 34 135 C 34 134 34 132 36 131 C 42 123 45 120 49 117 C 52 114 54 112 55 111 C 56 110 58 108 60 107 C 70 100 99 72 102 67 C 102 66 103 63 105 60 C 109 49 109 39 103 28 C 100 22 100 21 91 15 C 88 12 87 12 82 10 C 74 7 58 6 51 7 z" fill="black" /><!-- width=120 height=174 -->
<path id="gl3585" d="M 21 13 C 8 18 12 36 24 36 C 36 36 40 20 30 14 C 28 13 22 12 21 13 M 21 72 C 13 74 10 84 15 91 C 21 97 34 94 36 85 C 36 81 34 74 31 73 C 29 72 23 71 21 72 z" fill="black" /><!-- width=49 height=107 -->
<path id="gl8964" d="M 58 12 C 42 13 28 24 21 37 C 12 58 18 78 38 87 C 44 90 64 96 75 98 C 95 102 106 111 106 123 C 106 146 79 159 51 149 C 43 147 36 141 33 137 C 24 124 22 123 18 123 C 16 123 13 126 12 129 C 11 134 15 141 22 149 C 37 165 67 170 93 162 C 117 154 131 128 123 106 C 118 90 105 81 79 76 C 75 75 69 73 67 73 C 66 72 61 71 59 70 C 51 68 41 61 39 56 C 36 44 40 33 51 28 C 66 20 84 24 98 39 C 103 44 103 45 106 45 C 114 44 115 28 107 21 C 99 14 75 9 58 12 z" fill="black" /><!-- width=138 height=178 -->
<path id="gl3848" d="M 24 9 C 16 13 16 24 22 29 C 26 31 34 31 38 29 C 42 26 43 25 43 19 C 43 18 43 16 43 14 C 42 13 41 12 40 12 C 36 7 29 6 24 9 M 31 46 C 30 46 27 48 25 48 C 24 49 21 51 19 51 C 16 52 13 55 13 58 C 13 61 15 63 21 65 C 25 67 25 66 25 98 C 25 130 25 129 20 132 C 13 136 12 141 18 144 C 19 145 22 145 33 145 C 37 145 42 145 46 145 C 48 144 48 144 49 143 C 54 140 52 137 47 133 C 41 128 42 131 42 90 C 42 51 42 51 39 48 C 36 45 36 45 31 46 z" fill="black" /><!-- width=64 height=169 -->
<path id="gl3" d="M 66 16 C 66 16 63 17 60 18 C 57 19 54 20 51 22 C 44 28 44 28 42 27 C 40 26 39 25 37 22 C 37 20 35 18 34 18 C 29 14 16 21 16 28 C 16 31 16 31 21 36 C 22 37 24 39 26 40 C 26 49 26 59 26 69 C 26 78 26 88 26 97 C 24 99 22 100 21 102 C 16 107 15 108 17 111 C 19 114 19 114 34 114 C 48 114 49 114 50 112 C 54 109 54 106 48 102 C 43 98 43 99 43 71 C 43 46 43 46 45 43 C 51 31 75 25 87 34 C 93 38 93 41 93 74 C 93 99 93 98 89 101 C 84 105 82 109 86 112 C 88 114 88 114 100 114 C 114 114 115 114 117 111 C 120 108 119 105 114 100 C 112 100 111 99 111 98 C 111 97 111 84 110 69 C 110 39 110 39 106 31 C 102 22 89 15 74 16 C 70 16 67 16 66 16 z" fill="black" /><!-- width=131 height=127 -->
<path id="gl5145" d="M 48 17 C 30 19 16 32 11 50 C 9 57 9 75 11 82 C 18 105 39 117 63 112 C 70 110 75 111 79 116 C 88 124 86 136 76 141 C 67 144 43 145 34 141 C 31 139 30 138 28 133 C 24 118 7 129 12 145 C 13 151 18 154 30 156 C 49 161 73 159 88 151 C 108 142 111 120 93 108 C 87 103 86 100 90 94 C 102 76 103 63 94 42 C 92 35 93 33 100 32 C 106 30 108 25 105 21 C 103 18 102 18 88 18 C 79 18 72 18 66 17 C 57 16 54 16 48 17 M 64 32 C 75 36 81 47 81 64 C 81 84 73 96 58 99 C 41 102 28 87 28 66 C 28 41 45 25 64 32 z" fill="black" /><!-- width=120 height=173 -->
<path id="gl257" d="M 84 10 C 78 12 73 16 73 19 C 73 19 74 21 75 23 C 79 28 79 28 79 47 C 79 70 79 69 67 66 C 45 60 25 69 15 89 C 10 99 9 103 9 116 C 9 128 10 133 14 142 C 25 162 50 169 70 159 C 76 155 78 155 84 159 C 92 163 103 162 103 156 C 103 155 101 153 100 150 C 99 148 98 147 97 145 C 97 143 97 141 96 138 C 96 134 96 105 96 74 C 96 29 96 16 96 15 C 94 10 90 9 84 10 M 69 78 C 75 81 76 81 78 84 C 79 87 79 87 79 111 C 79 142 79 142 70 147 C 44 161 22 141 26 107 C 30 82 48 70 69 78 z" fill="black" /><!-- width=127 height=199 -->
<path id="gl2" d="M 53 12 C 33 16 18 33 14 52 C 11 67 14 81 22 92 C 33 107 49 114 68 112 C 93 111 110 94 114 69 C 118 45 102 19 78 12 C 73 11 58 10 53 12 M 70 24 C 90 28 101 49 96 73 C 91 99 59 110 40 91 C 33 83 30 76 30 63 C 30 37 48 19 70 24 z" fill="black" /><!-- width=129 height=124 -->
<path id="gl3857" d="M 30 18 C 28 18 25 18 23 18 C 22 19 22 20 21 21 C 19 23 19 24 22 31 C 22 33 24 39 25 45 C 30 66 35 82 43 97 C 56 124 63 122 80 87 C 87 75 87 74 90 73 C 92 73 92 73 98 85 C 114 121 121 124 135 100 C 142 87 150 66 157 39 C 157 36 159 33 159 31 C 163 22 160 18 150 18 C 143 18 141 18 139 21 C 138 23 138 24 140 28 C 143 34 143 42 141 51 C 137 65 132 79 128 85 C 126 89 124 91 121 91 C 117 91 104 60 102 43 C 100 37 101 34 103 28 C 105 24 105 23 104 21 C 102 18 100 18 91 18 C 88 18 86 18 83 18 C 82 19 82 19 81 20 C 79 22 79 24 82 29 C 84 34 84 34 83 40 C 82 54 73 81 66 90 C 64 90 64 91 63 92 C 62 92 61 91 60 91 C 58 90 58 90 55 85 C 50 75 43 49 42 39 C 42 33 42 33 44 29 C 46 24 46 24 45 21 C 43 18 40 17 30 18 z" fill="black" /><!-- width=176 height=129 -->
<path id="gl3" d="M 66 16 C 66 16 63 17 60 18 C 57 19 54 20 51 22 C 44 28 44 28 42 27 C 40 26 39 25 37 22 C 37 20 35 18 34 18 C 29 14 16 21 16 28 C 16 31 16 31 21 36 C 22 37 24 39 26 40 C 26 49 26 59 26 69 C 26 78 26 88 26 97 C 24 99 22 100 21 102 C 16 107 15 108 17 111 C 19 114 19 114 34 114 C 48 114 49 114 50 112 C 54 109 54 106 48 102 C 43 98 43 99 43 71 C 43 46 43 46 45 43 C 51 31 75 25 87 34 C 93 38 93 41 93 74 C 93 99 93 98 89 101 C 84 105 82 109 86 112 C 88 114 88 114 100 114 C 114 114 115 114 117 111 C 120 108 119 105 114 100 C 112 100 111 99 111 98 C 111 97 111 84 110 69 C 110 39 110 39 106 31 C 102 22 89 15 74 16 C 70 16 67 16 66 16 z" fill="black" /><!-- width=131 height=127 -->
<path id="gl3857" d="M 30 18 C 28 18 25 18 23 18 C 22 19 22 20 21 21 C 19 23 19 24 22 31 C 22 33 24 39 25 45 C 30 66 35 82 43 97 C 56 124 63 122 80 87 C 87 75 87 74 90 73 C 92 73 92 73 98 85 C 114 121 121 124 135 100 C 142 87 150 66 157 39 C 157 36 159 33 159 31 C 163 22 160 18 150 18 C 143 18 141 18 139 21 C 138 23 138 24 140 28 C 143 34 143 42 141 51 C 137 65 132 79 128 85 C 126 89 124 91 121 91 C 117 91 104 60 102 43 C 100 37 101 34 103 28 C 105 24 105 23 104 21 C 102 18 100 18 91 18 C 88 18 86 18 83 18 C 82 19 82 19 81 20 C 79 22 79 24 82 29 C 84 34 84 34 83 40 C 82 54 73 81 66 90 C 64 90 64 91 63 92 C 62 92 61 91 60 91 C 58 90 58 90 55 85 C 50 75 43 49 42 39 C 42 33 42 33 44 29 C 46 24 46 24 45 21 C 43 18 40 17 30 18 z" fill="black" /><!-- width=176 height=129 -->
<path id="gl260" d="M 39 8 C 21 10 12 17 14 24 C 15 30 22 30 32 25 C 39 21 42 20 48 20 C 60 20 71 27 73 35 C 75 40 72 42 63 42 C 45 39 25 47 15 60 C 6 72 7 89 17 99 C 30 111 54 112 67 101 C 73 96 73 96 79 101 C 84 106 84 106 92 106 C 97 106 98 106 99 105 C 104 101 103 98 97 93 C 95 91 93 90 93 89 C 92 88 92 79 91 62 C 91 54 91 45 91 37 C 91 36 90 34 90 33 C 84 18 69 9 49 8 C 45 8 40 8 39 8 M 75 54 C 76 56 76 61 75 72 C 75 82 72 85 61 91 C 43 99 27 93 27 78 C 27 64 38 55 61 52 C 70 51 72 51 75 54 z" fill="black" /><!-- width=114 height=125 -->
<path id="gl5" d="M 75 28 C 71 30 67 33 63 38 C 57 47 53 47 51 38 C 48 28 44 25 35 30 C 25 34 23 42 30 46 C 39 53 39 52 39 81 C 39 110 39 108 32 114 C 28 118 28 122 32 124 C 35 125 59 125 61 124 C 66 122 66 118 62 115 C 55 108 55 109 55 85 C 55 66 56 64 60 57 C 67 47 74 43 82 48 C 90 52 97 43 93 34 C 90 28 82 25 75 28 z" fill="black" /><!-- width=105 height=138 -->
<path id="gl257" d="M 84 10 C 78 12 73 16 73 19 C 73 19 74 21 75 23 C 79 28 79 28 79 47 C 79 70 79 69 67 66 C 45 60 25 69 15 89 C 10 99 9 103 9 116 C 9 128 10 133 14 142 C 25 162 50 169 70 159 C 76 155 78 155 84 159 C 92 163 103 162 103 156 C 103 155 101 153 100 150 C 99 148 98 147 97 145 C 97 143 97 141 96 138 C 96 134 96 105 96 74 C 96 29 96 16 96 15 C 94 10 90 9 84 10 M 69 78 C 75 81 76 81 78 84 C 79 87 79 87 79 111 C 79 142 79 142 70 147 C 44 161 22 141 26 107 C 30 82 48 70 69 78 z" fill="black" /><!-- width=127 height=199 -->
<path id="gl4" d="M 39 13 C 24 18 14 30 15 44 C 16 59 22 64 45 70 C 51 72 58 73 60 75 C 73 81 70 98 54 101 C 44 103 36 100 28 93 C 21 85 17 84 13 87 C 9 91 10 97 15 103 C 27 114 47 117 63 111 C 88 102 92 72 70 60 C 65 58 54 54 52 54 C 49 54 40 51 37 49 C 32 47 30 45 30 40 C 30 31 37 25 48 25 C 55 25 58 27 64 33 C 70 38 72 39 75 39 C 82 37 84 28 78 21 C 72 15 50 10 39 13 z" fill="black" /><!-- width=98 height=127 -->
<path id="gl258" d="M 69 11 C 58 12 46 19 40 28 C 27 46 24 72 35 90 C 49 114 83 118 106 100 C 115 93 116 84 109 82 C 105 81 103 82 97 87 C 73 111 41 89 47 54 C 49 40 55 31 65 26 C 75 21 84 23 91 33 C 96 39 100 41 105 39 C 112 36 112 25 104 19 C 95 12 82 9 69 11 z" fill="black" /><!-- width=125 height=123 -->
<path id="gl260" d="M 39 8 C 21 10 12 17 14 24 C 15 30 22 30 32 25 C 39 21 42 20 48 20 C 60 20 71 27 73 35 C 75 40 72 42 63 42 C 45 39 25 47 15 60 C 6 72 7 89 17 99 C 30 111 54 112 67 101 C 73 96 73 96 79 101 C 84 106 84 106 92 106 C 97 106 98 106 99 105 C 104 101 103 98 97 93 C 95 91 93 90 93 89 C 92 88 92 79 91 62 C 91 54 91 45 91 37 C 91 36 90 34 90 33 C 84 18 69 9 49 8 C 45 8 40 8 39 8 M 75 54 C 76 56 76 61 75 72 C 75 82 72 85 61 91 C 43 99 27 93 27 78 C 27 64 38 55 61 52 C 70 51 72 51 75 54 z" fill="black" /><!-- width=114 height=125 -->
<path id="gl7" d="M 29 9 C 25 9 17 13 15 15 C 11 18 12 20 16 25 C 18 27 20 29 20 30 C 21 34 21 141 20 144 C 20 145 18 147 16 150 C 12 154 12 154 13 157 C 15 160 16 160 30 160 C 45 160 45 160 46 157 C 48 154 46 152 42 148 C 37 144 37 149 37 85 C 37 53 38 24 38 21 C 39 13 37 11 34 9 C 32 9 33 9 29 9 z" fill="black" /><!-- width=58 height=175 -->
<path id="gl6" d="M 63 12 C 36 18 18 42 19 70 C 20 88 30 102 45 109 C 58 115 76 115 89 109 C 106 102 115 91 108 85 C 104 82 100 84 94 90 C 83 100 72 103 58 99 C 45 94 35 82 42 76 C 42 75 44 75 50 75 C 76 74 98 64 105 50 C 107 45 107 35 105 30 C 101 22 95 17 85 14 C 81 12 67 12 63 12 M 79 26 C 87 29 91 38 87 46 C 84 54 75 58 52 64 C 49 65 45 66 42 67 C 41 66 40 66 40 66 C 36 63 36 60 38 51 C 43 35 57 25 72 25 C 75 25 78 25 79 26 z" fill="black" /><!-- width=121 height=126 -->
<path id="gl4" d="M 39 13 C 24 18 14 30 15 44 C 16 59 22 64 45 70 C 51 72 58 73 60 75 C 73 81 70 98 54 101 C 44 103 36 100 28 93 C 21 85 17 84 13 87 C 9 91 10 97 15 103 C 27 114 47 117 63 111 C 88 102 92 72 70 60 C 65 58 54 54 52 54 C 49 54 40 51 37 49 C 32 47 30 45 30 40 C 30 31 37 25 48 25 C 55 25 58 27 64 33 C 70 38 72 39 75 39 C 82 37 84 28 78 21 C 72 15 50 10 39 13 z" fill="black" /><!-- width=98 height=127 -->
<path id="gl260" d="M 39 8 C 21 10 12 17 14 24 C 15 30 22 30 32 25 C 39 21 42 20 48 20 C 60 20 71 27 73 35 C 75 40 72 42 63 42 C 45 39 25 47 15 60 C 6 72 7 89 17 99 C 30 111 54 112 67 101 C 73 96 73 96 79 101 C 84 106 84 106 92 106 C 97 106 98 106 99 105 C 104 101 103 98 97 93 C 95 91 93 90 93 89 C 92 88 92 79 91 62 C 91 54 91 45 91 37 C 91 36 90 34 90 33 C 84 18 69 9 49 8 C 45 8 40 8 39 8 M 75 54 C 76 56 76 61 75 72 C 75 82 72 85 61 91 C 43 99 27 93 27 78 C 27 64 38 55 61 52 C 70 51 72 51 75 54 z" fill="black" /><!-- width=114 height=125 -->
<path id="gl5905" d="M 69 17 C 62 18 58 20 51 24 C 45 28 43 28 39 23 C 34 16 27 16 19 24 C 13 30 13 32 20 37 C 27 42 27 41 26 72 C 26 101 27 99 21 104 C 14 109 14 113 19 116 C 22 117 24 117 37 117 C 42 117 46 117 46 117 C 47 118 52 115 54 114 C 57 111 55 108 50 103 C 45 98 45 100 45 70 C 45 46 45 46 49 42 C 61 30 85 29 91 40 C 93 44 93 49 93 74 C 93 102 94 99 87 105 C 82 110 82 114 87 116 C 90 118 115 117 118 116 C 123 114 123 109 118 104 C 112 99 112 101 112 71 C 112 43 112 41 109 34 C 103 22 86 15 69 17 z" fill="black" /><!-- width=133 height=132 -->
<path id="gl257" d="M 84 10 C 78 12 73 16 73 19 C 73 19 74 21 75 23 C 79 28 79 28 79 47 C 79 70 79 69 67 66 C 45 60 25 69 15 89 C 10 99 9 103 9 116 C 9 128 10 133 14 142 C 25 162 50 169 70 159 C 76 155 78 155 84 159 C 92 163 103 162 103 156 C 103 155 101 153 100 150 C 99 148 98 147 97 145 C 97 143 97 141 96 138 C 96 134 96 105 96 74 C 96 29 96 16 96 15 C 94 10 90 9 84 10 M 69 78 C 75 81 76 81 78 84 C 79 87 79 87 79 111 C 79 142 79 142 70 147 C 44 161 22 141 26 107 C 30 82 48 70 69 78 z" fill="black" /><!-- width=127 height=199 -->
<path id="gl3866" d="M 53 14 C 39 18 32 33 31 57 C 31 72 31 73 25 74 C 18 75 17 76 17 80 C 16 84 20 86 27 86 C 31 86 31 86 31 120 C 31 157 31 155 26 159 C 20 163 20 168 25 171 C 26 171 33 171 39 171 C 54 171 55 171 57 167 C 58 165 57 163 52 158 C 48 154 48 156 48 121 C 48 111 48 100 47 89 C 48 88 49 88 49 87 C 50 87 51 86 51 85 C 53 86 55 86 57 86 C 63 87 65 86 67 83 C 69 81 69 79 67 76 C 66 75 66 75 65 74 C 63 74 60 74 58 74 C 47 74 47 74 48 56 C 48 33 51 28 60 31 C 65 34 67 34 70 31 C 76 27 74 18 67 14 C 64 13 57 13 53 14 z" fill="black" /><!-- width=85 height=184 -->
<path id="gl2" d="M 53 12 C 33 16 18 33 14 52 C 11 67 14 81 22 92 C 33 107 49 114 68 112 C 93 111 110 94 114 69 C 118 45 102 19 78 12 C 73 11 58 10 53 12 M 70 24 C 90 28 101 49 96 73 C 91 99 59 110 40 91 C 33 83 30 76 30 63 C 30 37 48 19 70 24 z" fill="black" /><!-- width=129 height=124 -->
<path id="gl10262" d="M 30 9 C 14 12 9 19 17 26 C 22 30 22 25 22 87 C 22 116 22 142 21 143 C 21 145 20 147 17 149 C 12 154 12 159 16 162 C 19 163 46 163 48 162 C 52 159 51 154 46 149 C 40 144 41 151 41 78 C 41 42 41 13 41 12 C 40 9 36 7 30 9 z" fill="black" /><!-- width=63 height=178 -->
<path id="gl7" d="M 29 9 C 25 9 17 13 15 15 C 11 18 12 20 16 25 C 18 27 20 29 20 30 C 21 34 21 141 20 144 C 20 145 18 147 16 150 C 12 154 12 154 13 157 C 15 160 16 160 30 160 C 45 160 45 160 46 157 C 48 154 46 152 42 148 C 37 144 37 149 37 85 C 37 53 38 24 38 21 C 39 13 37 11 34 9 C 32 9 33 9 29 9 z" fill="black" /><!-- width=58 height=175 -->
<path id="gl2" d="M 53 12 C 33 16 18 33 14 52 C 11 67 14 81 22 92 C 33 107 49 114 68 112 C 93 111 110 94 114 69 C 118 45 102 19 78 12 C 73 11 58 10 53 12 M 70 24 C 90 28 101 49 96 73 C 91 99 59 110 40 91 C 33 83 30 76 30 63 C 30 37 48 19 70 24 z" fill="black" /><!-- width=129 height=124 -->
<path id="gl516" d="M 24 19 C 20 21 19 25 22 32 C 22 34 24 40 25 45 C 32 81 48 116 58 116 C 64 116 73 103 84 79 C 85 76 89 73 91 73 C 92 74 94 78 100 90 C 109 111 115 118 121 116 C 130 114 144 86 153 52 C 154 47 157 39 158 34 C 162 22 160 19 149 19 C 139 19 136 22 141 31 C 143 36 143 39 142 47 C 139 60 130 84 126 91 C 124 93 122 93 120 93 C 118 92 110 75 106 64 C 100 45 99 37 102 31 C 106 22 104 19 92 19 C 85 19 82 20 81 23 C 79 25 79 25 82 33 C 86 41 79 66 70 85 C 67 89 63 94 61 93 C 60 93 57 91 56 89 C 51 77 45 61 43 47 C 41 38 41 36 43 31 C 46 24 46 21 40 19 C 39 19 26 19 24 19 z" fill="black" /><!-- width=175 height=132 -->
<path id="gl0" d="M 38 8 C 36 11 35 14 34 24 C 33 39 31 42 24 42 C 19 43 16 44 15 47 C 14 51 18 54 24 54 C 29 55 31 57 31 61 C 31 63 31 81 31 99 C 30 143 29 139 46 141 C 52 141 58 141 61 141 C 70 142 76 137 72 131 C 71 128 67 127 60 127 C 47 127 48 129 47 90 C 47 58 47 57 49 55 C 51 54 51 54 56 54 C 66 56 70 55 72 51 C 73 48 73 45 70 43 C 69 42 62 42 54 43 C 53 43 52 43 51 43 C 50 43 49 42 49 42 C 47 39 47 37 48 24 C 49 11 48 7 42 6 C 40 6 40 6 38 8 z" fill="black" /><!-- width=84 height=157 -->
<path id="gl1" d="M 40 9 C 37 11 36 11 33 13 C 31 16 31 19 33 22 C 38 27 37 21 37 85 C 37 116 37 142 37 144 C 37 144 35 147 34 148 C 27 156 30 159 46 159 C 60 160 64 157 60 150 C 55 144 55 144 54 139 C 54 130 54 91 55 88 C 58 81 73 73 84 75 C 96 76 103 82 104 93 C 105 95 105 106 105 118 C 105 142 105 144 101 148 C 96 156 99 160 114 160 C 129 160 132 156 125 148 C 121 144 121 144 121 117 C 121 96 120 90 120 87 C 114 66 91 57 64 67 C 60 69 59 70 57 69 C 54 67 54 67 54 39 C 54 12 54 11 51 9 C 49 8 44 8 40 9 z" fill="black" /><!-- width=143 height=191 -->
<path id="gl4367" d="M 64 13 C 46 16 31 27 23 44 C 17 57 17 77 23 88 C 36 113 67 121 92 108 C 95 106 98 105 99 104 C 100 103 102 102 103 100 C 109 96 112 90 109 86 C 105 81 102 82 94 89 C 90 93 87 95 83 97 C 81 98 79 99 77 100 C 75 100 72 100 70 100 C 56 100 43 93 40 83 C 37 76 41 73 55 73 C 71 73 90 66 99 57 C 109 47 109 34 101 24 C 93 15 80 11 64 13 M 78 26 C 86 28 90 37 87 45 C 84 52 75 57 54 63 C 37 66 34 64 38 51 C 43 33 63 21 78 26 z" fill="black" /><!-- width=121 height=128 -->
<path id="gl3" d="M 66 16 C 66 16 63 17 60 18 C 57 19 54 20 51 22 C 44 28 44 28 42 27 C 40 26 39 25 37 22 C 37 20 35 18 34 18 C 29 14 16 21 16 28 C 16 31 16 31 21 36 C 22 37 24 39 26 40 C 26 49 26 59 26 69 C 26 78 26 88 26 97 C 24 99 22 100 21 102 C 16 107 15 108 17 111 C 19 114 19 114 34 114 C 48 114 49 114 50 112 C 54 109 54 106 48 102 C 43 98 43 99 43 71 C 43 46 43 46 45 43 C 51 31 75 25 87 34 C 93 38 93 41 93 74 C 93 99 93 98 89 101 C 84 105 82 109 86 112 C 88 114 88 114 100 114 C 114 114 115 114 117 111 C 120 108 119 105 114 100 C 112 100 111 99 111 98 C 111 97 111 84 110 69 C 110 39 110 39 106 31 C 102 22 89 15 74 16 C 70 16 67 16 66 16 z" fill="black" /><!-- width=131 height=127 -->
<path id="gl2" d="M 53 12 C 33 16 18 33 14 52 C 11 67 14 81 22 92 C 33 107 49 114 68 112 C 93 111 110 94 114 69 C 118 45 102 19 78 12 C 73 11 58 10 53 12 M 70 24 C 90 28 101 49 96 73 C 91 99 59 110 40 91 C 33 83 30 76 30 63 C 30 37 48 19 70 24 z" fill="black" /><!-- width=129 height=124 -->
<path id="gl0" d="M 38 8 C 36 11 35 14 34 24 C 33 39 31 42 24 42 C 19 43 16 44 15 47 C 14 51 18 54 24 54 C 29 55 31 57 31 61 C 31 63 31 81 31 99 C 30 143 29 139 46 141 C 52 141 58 141 61 141 C 70 142 76 137 72 131 C 71 128 67 127 60 127 C 47 127 48 129 47 90 C 47 58 47 57 49 55 C 51 54 51 54 56 54 C 66 56 70 55 72 51 C 73 48 73 45 70 43 C 69 42 62 42 54 43 C 53 43 52 43 51 43 C 50 43 49 42 49 42 C 47 39 47 37 48 24 C 49 11 48 7 42 6 C 40 6 40 6 38 8 z" fill="black" /><!-- width=84 height=157 -->
<path id="gl261" d="M 61 12 C 43 16 28 30 21 49 C 19 57 19 72 21 79 C 30 108 63 120 91 106 C 97 103 102 100 106 96 C 112 91 111 83 105 81 C 102 81 98 83 93 88 C 85 96 73 100 61 97 C 48 94 36 82 40 75 C 41 73 43 72 52 72 C 73 71 89 65 99 55 C 105 49 106 46 106 38 C 106 30 105 27 99 21 C 91 12 77 9 61 12 M 79 25 C 93 29 91 45 78 53 C 72 57 49 63 42 63 C 36 63 35 58 39 47 C 45 31 64 21 79 25 z" fill="black" /><!-- width=121 height=124 -->
<path id="gl4358" d="M 40 11 C 23 15 13 26 14 41 C 15 48 16 51 20 56 C 25 61 30 63 45 67 C 61 70 64 72 66 78 C 69 84 66 91 61 95 C 49 102 36 100 26 88 C 19 81 12 80 10 86 C 4 100 34 116 55 111 C 66 108 76 100 80 92 C 81 90 82 89 82 87 C 82 85 82 82 82 79 C 82 71 82 71 81 67 C 76 58 67 54 46 49 C 34 46 30 43 29 39 C 27 29 34 23 46 23 C 55 23 58 24 65 31 C 70 36 73 37 76 35 C 82 32 80 20 73 16 C 64 12 49 10 40 11 z" fill="black" /><!-- width=96 height=124 -->
<path id="gl516" d="M 24 19 C 20 21 19 25 22 32 C 22 34 24 40 25 45 C 32 81 48 116 58 116 C 64 116 73 103 84 79 C 85 76 89 73 91 73 C 92 74 94 78 100 90 C 109 111 115 118 121 116 C 130 114 144 86 153 52 C 154 47 157 39 158 34 C 162 22 160 19 149 19 C 139 19 136 22 141 31 C 143 36 143 39 142 47 C 139 60 130 84 126 91 C 124 93 122 93 120 93 C 118 92 110 75 106 64 C 100 45 99 37 102 31 C 106 22 104 19 92 19 C 85 19 82 20 81 23 C 79 25 79 25 82 33 C 86 41 79 66 70 85 C 67 89 63 94 61 93 C 60 93 57 91 56 89 C 51 77 45 61 43 47 C 41 38 41 36 43 31 C 46 24 46 21 40 19 C 39 19 26 19 24 19 z" fill="black" /><!-- width=175 height=132 -->
<path id="gl3848" d="M 24 9 C 16 13 16 24 22 29 C 26 31 34 31 38 29 C 42 26 43 25 43 19 C 43 18 43 16 43 14 C 42 13 41 12 40 12 C 36 7 29 6 24 9 M 31 46 C 30 46 27 48 25 48 C 24 49 21 51 19 51 C 16 52 13 55 13 58 C 13 61 15 63 21 65 C 25 67 25 66 25 98 C 25 130 25 129 20 132 C 13 136 12 141 18 144 C 19 145 22 145 33 145 C 37 145 42 145 46 145 C 48 144 48 144 49 143 C 54 140 52 137 47 133 C 41 128 42 131 42 90 C 42 51 42 51 39 48 C 36 45 36 45 31 46 z" fill="black" /><!-- width=64 height=169 -->
<path id="gl0" d="M 38 8 C 36 11 35 14 34 24 C 33 39 31 42 24 42 C 19 43 16 44 15 47 C 14 51 18 54 24 54 C 29 55 31 57 31 61 C 31 63 31 81 31 99 C 30 143 29 139 46 141 C 52 141 58 141 61 141 C 70 142 76 137 72 131 C 71 128 67 127 60 127 C 47 127 48 129 47 90 C 47 58 47 57 49 55 C 51 54 51 54 56 54 C 66 56 70 55 72 51 C 73 48 73 45 70 43 C 69 42 62 42 54 43 C 53 43 52 43 51 43 C 50 43 49 42 49 42 C 47 39 47 37 48 24 C 49 11 48 7 42 6 C 40 6 40 6 38 8 z" fill="black" /><!-- width=84 height=157 -->
<path id="gl8967" d="M 42 12 C 31 16 28 21 33 27 C 38 32 37 28 38 76 C 38 123 38 144 37 147 C 37 149 35 151 33 154 C 28 159 28 163 34 165 C 37 166 39 166 48 166 C 60 166 60 166 62 164 C 66 162 66 157 62 154 C 61 153 60 151 58 150 C 58 148 58 148 57 147 C 57 138 57 129 57 121 C 57 112 57 103 57 95 C 58 94 58 93 59 93 C 62 87 72 82 81 81 C 90 81 96 82 100 88 C 105 93 105 91 105 120 C 105 148 105 149 101 154 C 97 159 98 164 104 165 C 107 166 123 166 126 165 C 132 164 133 159 129 154 C 124 148 124 150 124 121 C 124 94 123 92 120 85 C 116 76 109 70 99 67 C 92 66 82 66 73 68 C 59 72 60 72 58 69 C 57 67 57 63 57 42 C 57 15 57 15 53 12 C 51 10 48 10 42 12 z" fill="black" /><!-- width=146 height=201 -->
<path id="gl513" d="M 23 31 C 19 33 18 36 21 41 C 24 45 25 49 25 56 C 25 58 27 64 28 70 C 34 100 45 117 61 121 C 66 123 68 124 68 127 C 68 132 57 145 48 150 C 44 151 44 151 36 151 C 28 151 25 152 24 156 C 22 162 28 168 37 166 C 67 163 97 117 107 58 C 108 52 109 45 111 43 C 113 33 110 31 99 31 C 88 31 86 34 91 42 C 93 44 94 46 94 48 C 96 63 86 98 78 106 C 68 115 54 103 48 79 C 42 60 42 49 45 42 C 48 36 47 33 43 31 C 40 30 25 30 23 31 z" fill="black" /><!-- width=124 height=181 -->
<path id="gl2" d="M 53 12 C 33 16 18 33 14 52 C 11 67 14 81 22 92 C 33 107 49 114 68 112 C 93 111 110 94 114 69 C 118 45 102 19 78 12 C 73 11 58 10 53 12 M 70 24 C 90 28 101 49 96 73 C 91 99 59 110 40 91 C 33 83 30 76 30 63 C 30 37 48 19 70 24 z" fill="black" /><!-- width=129 height=124 -->
<path id="gl768" d="M 20 8 C 15 9 12 10 10 12 C 9 15 9 16 13 20 C 18 27 18 26 18 55 C 18 82 19 85 22 92 C 30 105 47 111 63 105 C 67 105 69 103 76 99 C 80 96 82 96 86 100 C 90 104 91 105 99 105 C 105 106 107 105 109 102 C 111 99 110 96 105 93 C 99 89 99 91 99 63 C 99 49 99 33 100 25 C 100 9 99 7 90 7 C 83 7 79 9 77 11 C 74 14 75 17 79 22 C 82 26 82 27 82 53 C 82 61 82 69 82 78 C 82 79 81 79 81 81 C 79 84 76 87 69 90 C 54 97 43 95 37 85 C 36 81 35 78 35 46 C 36 10 36 11 31 9 C 28 7 25 7 20 8 z" fill="black" /><!-- width=121 height=121 -->
<path id="gl5" d="M 75 28 C 71 30 67 33 63 38 C 57 47 53 47 51 38 C 48 28 44 25 35 30 C 25 34 23 42 30 46 C 39 53 39 52 39 81 C 39 110 39 108 32 114 C 28 118 28 122 32 124 C 35 125 59 125 61 124 C 66 122 66 118 62 115 C 55 108 55 109 55 85 C 55 66 56 64 60 57 C 67 47 74 43 82 48 C 90 52 97 43 93 34 C 90 28 82 25 75 28 z" fill="black" /><!-- width=105 height=138 -->
<path id="gl772" d="M 55 13 C 45 15 37 25 33 38 C 33 42 32 45 32 55 C 31 72 31 73 24 74 C 18 75 15 76 16 81 C 16 84 19 85 24 85 C 27 85 29 86 30 88 C 31 90 31 91 31 120 C 31 154 31 153 26 158 C 22 162 21 164 22 167 C 24 171 25 171 40 171 C 54 171 55 171 57 167 C 58 164 57 162 53 158 C 51 156 49 154 49 153 C 48 149 48 89 48 88 C 49 85 51 85 58 85 C 66 85 67 85 69 81 C 70 75 66 73 57 73 C 48 74 47 73 48 54 C 49 38 49 34 52 32 C 54 30 57 30 61 32 C 69 34 75 30 73 22 C 72 16 64 11 55 13 z" fill="black" /><!-- width=85 height=184 -->
<path id="gl5897" d="M 22 9 C 15 13 13 24 19 30 C 25 36 36 34 40 28 C 44 22 43 14 37 10 C 34 8 26 7 22 9 M 23 49 C 13 53 10 55 10 59 C 10 62 12 64 16 67 C 24 70 24 71 23 102 C 23 130 23 129 18 133 C 13 137 11 141 13 144 C 15 147 16 148 27 147 C 33 147 39 147 42 147 C 51 148 54 141 47 134 C 40 128 41 133 41 91 C 41 48 41 48 35 46 C 31 46 31 46 23 49 z" fill="black" /><!-- width=61 height=172 -->
<path id="gl3" d="M 66 16 C 66 16 63 17 60 18 C 57 19 54 20 51 22 C 44 28 44 28 42 27 C 40 26 39 25 37 22 C 37 20 35 18 34 18 C 29 14 16 21 16 28 C 16 31 16 31 21 36 C 22 37 24 39 26 40 C 26 49 26 59 26 69 C 26 78 26 88 26 97 C 24 99 22 100 21 102 C 16 107 15 108 17 111 C 19 114 19 114 34 114 C 48 114 49 114 50 112 C 54 109 54 106 48 102 C 43 98 43 99 43 71 C 43 46 43 46 45 43 C 51 31 75 25 87 34 C 93 38 93 41 93 74 C 93 99 93 98 89 101 C 84 105 82 109 86 112 C 88 114 88 114 100 114 C 114 114 115 114 117 111 C 120 108 119 105 114 100 C 112 100 111 99 111 98 C 111 97 111 84 110 69 C 110 39 110 39 106 31 C 102 22 89 15 74 16 C 70 16 67 16 66 16 z" fill="black" /><!-- width=131 height=127 -->
<path id="gl7691" d="M 47 16 C 21 21 6 43 9 72 C 12 100 33 116 61 111 C 67 110 69 110 71 110 C 84 113 88 129 79 136 C 73 141 69 141 54 141 C 34 141 31 140 28 132 C 25 124 19 122 13 127 C 9 132 9 144 13 148 C 18 154 37 157 55 157 C 85 156 104 144 104 126 C 104 118 101 112 93 106 C 85 102 85 99 93 89 C 102 76 102 58 94 42 C 91 36 92 33 99 31 C 105 30 108 25 105 21 C 103 17 100 16 88 17 C 81 17 75 17 67 16 C 55 15 52 15 47 16 M 64 31 C 67 33 72 37 75 40 C 81 51 82 71 76 84 C 70 96 54 102 41 94 C 25 85 23 53 37 37 C 43 30 55 28 64 31 z" fill="black" /><!-- width=118 height=171 -->
<path id="gl515" d="M 64 12 C 43 16 27 31 21 52 C 19 60 19 73 21 79 C 29 108 63 123 91 109 C 108 100 115 91 109 85 C 106 81 102 83 94 90 C 83 99 73 102 60 98 C 49 96 39 85 40 79 C 41 75 42 74 54 73 C 75 73 91 67 101 56 C 110 46 110 33 102 22 C 93 13 79 9 64 12 M 78 25 C 85 27 89 31 89 38 C 89 46 85 51 75 56 C 70 58 48 65 44 65 C 38 65 36 61 39 53 C 43 34 61 21 78 25 z" fill="black" /><!-- width=123 height=126 -->
<path id="gl5" d="M 75 28 C 71 30 67 33 63 38 C 57 47 53 47 51 38 C 48 28 44 25 35 30 C 25 34 23 42 30 46 C 39 53 39 52 39 81 C 39 110 39 108 32 114 C 28 118 28 122 32 124 C 35 125 59 125 61 124 C 66 122 66 118 62 115 C 55 108 55 109 55 85 C 55 66 56 64 60 57 C 67 47 74 43 82 48 C 90 52 97 43 93 34 C 90 28 82 25 75 28 z" fill="black" /><!-- width=105 height=138 -->
<path id="gl2061" d="M 18 16 C 15 16 15 16 15 25 C 14 35 15 38 18 43 C 19 44 20 45 21 46 C 22 46 22 45 23 45 C 25 43 27 42 28 39 C 29 36 29 18 28 17 C 27 16 21 16 18 16 z" fill="black" /><!-- width=44 height=59 -->
</defs>
<use xlink:href="#gl5402" x="0" y="8" />
<use xlink:href="#gl8964" x="85" y="4" />
<use xlink:href="#gl0" x="200" y="27" />
<use xlink:href="#gl515" x="261" y="57" />
<use xlink:href="#gl4104" x="359" y="37" />
<use xlink:href="#gl11784" x="558" y="10" />
<use xlink:href="#gl3585" x="681" y="75" />
<use xlink:href="#gl8964" x="842" y="6" />
<use xlink:href="#gl3848" x="963" y="25" />
<use xlink:href="#gl3" x="1009" y="55" />
<use xlink:href="#gl5145" x="1127" y="52" />
<use xlink:href="#gl257" x="1295" y="8" />
<use xlink:href="#gl2" x="1397" y="59" />
<use xlink:href="#gl3857" x="1501" y="54" />
<use xlink:href="#gl3" x="1652" y="55" />
<use xlink:href="#gl3857" x="1759" y="55" />
<use xlink:href="#gl260" x="1916" y="63" />
<use xlink:href="#gl5" x="2001" y="45" />
<use xlink:href="#gl257" x="2090" y="8" />
<use xlink:href="#gl4" x="2256" y="59" />
<use xlink:href="#gl258" x="2321" y="61" />
<use xlink:href="#gl260" x="2432" y="64" />
<use xlink:href="#gl7" x="2531" y="10" />
<use xlink:href="#gl6" x="2569" y="59" />
<use xlink:href="#gl4" x="2676" y="60" />
<use xlink:href="#gl260" x="2822" y="64" />
<use xlink:href="#gl5905" x="2916" y="55" />
<use xlink:href="#gl257" x="3035" y="9" />
<use xlink:href="#gl3866" x="3196" y="0" />
<use xlink:href="#gl2" x="3262" y="61" />
<use xlink:href="#gl10262" x="3373" y="8" />
<use xlink:href="#gl7" x="3420" y="8" />
<use xlink:href="#gl2" x="3463" y="61" />
<use xlink:href="#gl516" x="3568" y="55" />
<use xlink:href="#gl0" x="3778" y="30" />
<use xlink:href="#gl1" x="3829" y="11" />
<use xlink:href="#gl4367" x="3952" y="59" />
<use xlink:href="#gl3" x="4117" y="57" />
<use xlink:href="#gl2" x="4235" y="61" />
<use xlink:href="#gl0" x="4341" y="30" />
<use xlink:href="#gl261" x="4401" y="61" />
<use xlink:href="#gl4358" x="4510" y="61" />
<use xlink:href="#gl516" x="4643" y="55" />
<use xlink:href="#gl3848" x="4797" y="27" />
<use xlink:href="#gl0" x="4840" y="31" />
<use xlink:href="#gl8967" x="4890" y="5" />
<use xlink:href="#gl513" x="5073" y="44" />
<use xlink:href="#gl2" x="5180" y="61" />
<use xlink:href="#gl768" x="5293" y="66" />
<use xlink:href="#gl5" x="5384" y="47" />
<use xlink:href="#gl772" x="838" y="260" />
<use xlink:href="#gl5897" x="904" y="286" />
<use xlink:href="#gl3" x="947" y="318" />
<use xlink:href="#gl7691" x="1066" y="316" />
<use xlink:href="#gl515" x="1162" y="321" />
<use xlink:href="#gl5" x="1257" y="307" />
<use xlink:href="#gl2061" x="1359" y="394" />
</svg>