<?xml version="1.0" standalone="no"?>
<!DOCTYPE svg PUBLIC "-//W3C/DTD SVG 1.1//EN" "http://www.w3.org/Graphics/SVG/1.1/DTD/svg11.dtd">
<svg width="585px" height="47px" viewBox="0 0 5850 478" xmlns="http://www.w3.org/2000/svg" xmlns:xlink="http://www.w3.org/1999/xlink" version="1.1">
<defs>
<path id="gl5379" d="M 30 6 C 29 6 28 7 27 7 C 25 9 21 10 17 10 C 14 10 12 12 12 16 C 12 20 13 21 18 21 C 26 21 26 20 25 49 C 25 77 25 78 16 76 C 13 76 12 76 12 79 C 11 82 12 83 15 83 C 15 83 16 84 17 85 C 18 86 18 86 21 85 C 22 85 25 85 33 85 C 46 86 46 86 48 85 C 48 84 49 83 51 82 C 52 81 52 81 52 79 C 51 76 50 76 46 76 C 36 75 37 79 37 39 C 37 28 37 18 37 7 C 37 7 36 6 36 6 C 34 4 31 4 30 6 z" fill="black" /><!-- width=61 height=96 -->
<path id="gl1287" d="M 121 17 C 118 19 118 22 124 28 C 127 31 127 37 125 43 C 123 47 123 50 121 58 C 121 63 121 66 120 68 C 119 70 118 73 118 76 C 116 85 112 97 110 97 C 108 97 106 96 105 94 C 103 92 99 81 98 76 C 97 74 96 71 96 69 C 92 60 88 41 88 37 C 88 34 89 29 91 26 C 94 23 94 20 92 18 C 90 16 88 16 81 16 C 73 16 70 17 69 19 C 68 19 67 20 67 20 C 67 22 68 24 69 25 C 72 31 72 34 72 39 C 71 46 69 60 67 62 C 67 63 66 66 65 68 C 64 70 63 74 62 77 C 61 80 60 84 60 85 C 59 88 57 92 55 95 C 53 97 53 97 52 96 C 49 94 47 90 46 86 C 45 81 44 76 43 72 C 42 70 41 66 40 63 C 40 60 39 55 38 52 C 34 39 34 31 38 27 C 42 24 42 19 38 18 C 36 16 19 15 16 17 C 12 19 11 22 15 27 C 16 29 18 31 18 34 C 19 36 19 39 20 41 C 21 42 21 46 22 49 C 22 55 22 57 24 60 C 25 63 26 67 27 70 C 27 75 28 78 30 80 C 30 82 31 84 31 85 C 31 87 36 103 39 108 C 39 109 40 111 41 113 C 42 120 48 125 53 124 C 55 123 59 118 60 115 C 61 114 62 111 63 109 C 64 107 65 103 66 100 C 67 96 69 90 72 82 C 72 81 73 78 73 76 C 75 70 76 68 78 69 C 81 69 82 70 84 75 C 85 83 93 100 97 111 C 99 114 99 117 99 117 C 99 118 103 123 105 123 C 110 126 115 122 118 114 C 118 113 119 110 120 108 C 121 105 123 101 124 99 C 124 96 126 93 126 90 C 129 82 132 68 133 64 C 133 62 135 58 135 57 C 136 52 137 48 138 41 C 138 37 139 35 141 31 C 142 28 144 25 144 24 C 144 24 144 22 145 21 C 145 20 144 18 141 17 C 138 15 124 15 121 17 z" fill="black" /><!-- width=154 height=136 -->
<path id="gl1544" d="M 46 13 C 35 15 24 25 19 36 C 15 46 16 61 21 68 C 27 78 39 84 51 84 C 64 84 82 75 82 68 C 82 61 76 60 69 66 C 61 72 54 74 47 72 C 37 70 30 63 34 58 C 35 57 37 57 48 55 C 75 52 88 33 73 19 C 67 13 57 10 46 13 M 60 24 C 66 27 67 34 61 40 C 57 43 37 49 33 48 C 27 46 34 30 44 25 C 49 22 56 22 60 24 z" fill="black" /><!-- width=93 height=96 -->
<path id="gl1796" d="M 30 11 C 24 13 16 19 15 25 C 10 36 16 47 28 49 C 37 52 45 54 46 55 C 52 60 51 69 43 72 C 36 74 30 72 23 66 C 19 62 18 61 15 62 C 8 63 9 72 16 76 C 28 84 39 84 50 79 C 59 75 63 69 63 61 C 63 49 57 43 40 39 C 29 36 27 35 25 30 C 25 26 28 21 35 21 C 39 20 42 21 48 25 C 55 31 57 31 60 27 C 63 21 59 16 51 12 C 48 11 34 10 30 11 z" fill="black" /><!-- width=76 height=94 -->
<path id="gl5380" d="M 30 6 C 28 9 27 15 26 17 C 26 20 25 28 24 30 C 24 31 23 31 18 33 C 16 33 15 34 15 38 C 14 39 15 39 16 40 C 24 42 25 45 25 51 C 24 58 24 94 24 97 C 25 100 27 101 34 102 C 38 102 42 103 43 103 C 49 104 52 103 55 99 C 55 98 56 97 56 96 C 55 96 55 94 54 94 C 51 91 49 90 44 92 C 41 93 40 92 39 89 C 37 87 37 86 38 72 C 38 71 37 66 37 59 C 37 46 37 44 40 42 C 42 40 42 40 45 42 C 49 43 52 43 56 41 C 60 39 60 37 57 35 C 54 32 52 31 46 32 C 37 33 37 31 39 19 C 40 12 39 10 36 7 C 32 4 31 4 30 6 z" fill="black" /><!-- width=66 height=114 -->
<path id="gl2066" d="M 45 16 C 43 17 40 19 39 20 C 34 23 32 23 28 19 C 24 15 20 15 16 20 C 12 24 12 26 16 31 C 20 34 20 35 20 55 C 20 72 20 73 16 79 C 13 83 16 85 25 87 C 33 87 36 86 38 83 C 38 82 39 82 39 81 C 38 79 37 78 36 76 C 36 75 35 74 34 72 C 34 67 34 63 33 58 C 33 42 33 39 35 35 C 39 27 52 24 59 30 C 63 33 63 36 63 55 C 63 60 63 66 63 71 C 63 73 61 74 61 76 C 57 82 58 83 63 85 C 69 88 79 87 82 82 C 83 81 83 81 81 79 C 77 73 77 73 77 56 C 77 35 78 33 85 29 C 95 25 103 27 106 36 C 107 39 107 41 107 54 C 107 71 107 71 103 77 C 101 82 101 82 104 85 C 106 87 118 87 121 85 C 125 83 126 82 123 76 C 121 70 120 69 120 54 C 120 37 120 33 117 27 C 112 18 102 14 90 16 C 85 18 84 18 80 21 C 75 25 74 25 67 20 C 61 16 51 14 45 16 z" fill="black" /><!-- width=136 height=99 -->
<path id="gl1536" d="M 21 7 C 15 9 13 14 16 19 C 19 25 28 25 32 19 C 36 12 28 4 21 7 M 21 34 C 12 37 9 41 15 46 C 20 51 20 51 19 69 C 19 87 19 89 16 91 C 13 95 12 98 15 100 C 16 102 16 102 25 102 C 35 102 37 102 38 99 C 39 97 39 96 36 93 C 33 89 33 90 33 67 C 33 34 32 31 21 34 z" fill="black" /><!-- width=51 height=120 -->
<path id="gl1545" d="M 48 15 C 45 15 43 17 39 19 C 35 22 34 22 30 19 C 27 16 27 15 25 15 C 16 15 13 24 18 29 C 21 33 22 33 22 51 C 22 70 21 70 18 75 C 12 82 15 85 29 84 C 42 84 43 82 37 73 C 36 72 36 72 35 70 C 35 65 35 59 35 54 C 35 37 35 36 36 34 C 41 25 60 22 66 30 C 68 33 69 36 69 53 C 69 70 69 70 65 75 C 63 79 63 81 65 83 C 67 85 82 85 85 83 C 88 81 88 78 85 75 C 82 71 82 70 82 52 C 82 30 81 26 75 20 C 69 15 58 13 48 15 z" fill="black" /><!-- width=100 height=97 -->
<path id="gl1562" d="M 30 12 C 22 13 17 17 13 23 C 12 27 12 27 12 33 C 12 36 12 37 12 40 C 13 41 13 42 15 43 C 18 48 24 51 31 52 C 45 54 51 60 48 67 C 45 72 40 73 33 73 C 28 73 25 71 22 67 C 16 61 12 61 9 65 C 6 69 9 73 16 78 C 20 81 21 81 28 82 C 36 84 35 84 45 82 C 63 76 67 52 52 45 C 49 43 39 40 31 38 C 25 37 24 35 24 30 C 24 26 25 24 30 22 C 35 21 41 22 46 25 C 50 30 52 30 54 30 C 58 29 60 27 60 24 C 60 16 45 10 30 12 z" fill="black" /><!-- width=72 height=96 -->
<path id="gl1548" d="M 30 9 C 28 10 27 12 26 21 C 25 30 24 31 20 33 C 14 34 14 40 20 43 C 24 45 24 44 24 73 C 24 81 24 90 24 98 C 24 99 25 99 25 100 C 28 102 30 103 42 103 C 49 103 52 102 53 99 C 54 96 52 94 46 93 C 37 92 37 93 37 65 C 37 58 37 52 37 45 C 37 45 38 45 39 44 C 40 43 41 43 45 43 C 52 43 54 41 53 37 C 52 34 51 33 45 33 C 37 33 37 32 38 20 C 39 12 38 10 33 9 C 32 8 31 8 30 9 z" fill="black" /><!-- width=65 height=117 -->
<path id="gl5381" d="M 19 19 C 4 28 4 62 19 72 C 33 81 57 81 67 67 C 76 57 76 57 67 62 C 43 67 28 67 28 57 C 24 52 28 48 38 48 C 57 48 72 33 67 19 C 57 4 33 4 19 19 M 52 24 C 57 28 48 38 33 43 C 24 43 19 43 19 38 C 19 24 48 9 52 24 z" fill="black" /><!-- width=81 height=86 -->
<path id="gl1305" d="M 58 22 C 57 23 52 26 49 30 C 45 34 43 34 41 29 C 39 25 37 23 34 23 C 29 23 24 28 24 32 C 24 34 24 35 27 38 C 32 43 31 42 31 61 C 31 78 31 79 28 84 C 25 87 25 88 28 91 C 30 92 30 92 38 92 C 41 92 44 92 47 92 C 48 92 48 91 49 91 C 51 88 51 87 48 84 C 45 78 45 78 45 65 C 45 52 46 49 49 43 C 53 37 56 36 63 38 C 70 39 74 33 70 27 C 69 23 64 21 58 22 z" fill="black" /><!-- width=84 height=105 -->
<path id="gl5382" d="M 79 7 C 70 9 63 11 56 16 C 54 18 50 20 48 21 C 47 22 46 24 46 24 C 46 24 44 26 42 28 C 39 32 33 42 33 45 C 28 58 28 58 28 66 C 28 73 28 75 30 81 C 33 88 38 99 41 101 C 42 102 45 104 46 105 C 48 106 51 109 53 111 C 58 115 63 116 72 117 C 87 118 99 117 103 115 C 105 114 107 113 109 112 C 111 112 113 111 115 108 C 118 106 120 104 121 103 C 124 102 124 101 124 97 C 124 94 124 93 123 92 C 121 91 116 90 115 91 C 114 92 113 93 112 93 C 111 93 109 94 108 96 C 107 97 106 99 105 99 C 105 99 103 99 102 100 C 92 109 73 109 63 101 C 62 100 60 99 59 99 C 57 97 53 93 51 88 C 51 86 49 82 48 80 C 47 79 46 78 46 76 C 46 72 46 69 46 64 C 46 52 46 51 50 45 C 51 43 52 40 54 38 C 55 34 60 29 63 27 C 64 27 66 25 67 24 C 69 22 81 19 85 19 C 87 19 91 19 94 21 C 101 22 101 23 104 26 C 107 30 109 33 109 35 C 109 37 110 39 113 41 C 115 43 115 43 118 43 C 123 42 123 42 124 37 C 125 33 125 27 123 23 C 123 20 111 12 108 12 C 107 12 105 11 103 10 C 95 7 87 6 79 7 z" fill="black" /><!-- width=135 height=125 -->
<path id="gl1541" d="M 33 7 C 27 7 22 11 24 15 C 24 16 25 18 26 20 C 29 25 30 31 29 68 C 28 102 29 100 25 105 C 19 111 22 115 34 115 C 42 115 45 115 47 112 C 49 111 49 109 45 104 C 45 103 43 102 43 100 C 43 95 43 89 43 84 C 42 73 43 66 43 64 C 45 57 60 53 68 57 C 74 60 75 63 75 78 C 76 93 75 100 73 105 C 67 112 70 115 85 115 C 95 114 97 111 93 105 C 89 100 89 100 89 85 C 90 70 89 64 87 59 C 82 46 67 40 51 47 C 42 51 42 49 42 28 C 43 7 43 5 33 7 z" fill="black" /><!-- width=106 height=137 -->
<path id="gl5383" d="M 40 6 C 36 6 35 6 31 9 C 29 11 25 13 24 14 C 20 16 12 28 12 34 C 12 35 11 37 10 39 C 10 40 10 43 11 48 C 12 51 12 55 12 56 C 12 60 13 61 16 62 C 19 63 20 64 21 67 C 22 70 23 71 26 72 C 28 73 30 74 31 75 C 34 77 39 78 51 77 C 54 77 57 77 60 77 C 62 76 64 75 65 74 C 68 72 71 70 72 69 C 73 67 75 66 76 64 C 82 57 84 49 84 39 C 84 34 83 31 82 30 C 81 28 80 25 79 23 C 73 12 66 7 54 6 C 51 6 47 6 46 6 C 46 6 43 6 40 6 M 54 16 C 57 18 66 26 67 29 C 69 31 69 32 69 41 C 69 54 68 56 63 60 C 61 61 59 63 58 64 C 54 67 53 68 46 68 C 40 68 39 67 33 62 C 26 55 25 54 25 44 C 25 32 26 28 33 22 C 38 17 39 16 43 16 C 47 15 51 15 54 16 z" fill="black" /><!-- width=95 height=85 -->
<path id="gl1536" d="M 21 7 C 15 9 13 14 16 19 C 19 25 28 25 32 19 C 36 12 28 4 21 7 M 21 34 C 12 37 9 41 15 46 C 20 51 20 51 19 69 C 19 87 19 89 16 91 C 13 95 12 98 15 100 C 16 102 16 102 25 102 C 35 102 37 102 38 99 C 39 97 39 96 36 93 C 33 89 33 90 33 67 C 33 34 32 31 21 34 z" fill="black" /><!-- width=51 height=120 -->
<path id="gl1305" d="M 58 22 C 57 23 52 26 49 30 C 45 34 43 34 41 29 C 39 25 37 23 34 23 C 29 23 24 28 24 32 C 24 34 24 35 27 38 C 32 43 31 42 31 61 C 31 78 31 79 28 84 C 25 87 25 88 28 91 C 30 92 30 92 38 92 C 41 92 44 92 47 92 C 48 92 48 91 49 91 C 51 88 51 87 48 84 C 45 78 45 78 45 65 C 45 52 46 49 49 43 C 53 37 56 36 63 38 C 70 39 74 33 70 27 C 69 23 64 21 58 22 z" fill="black" /><!-- width=84 height=105 -->
<path id="gl5382" d="M 79 7 C 70 9 63 11 56 16 C 54 18 50 20 48 21 C 47 22 46 24 46 24 C 46 24 44 26 42 28 C 39 32 33 42 33 45 C 28 58 28 58 28 66 C 28 73 28 75 30 81 C 33 88 38 99 41 101 C 42 102 45 104 46 105 C 48 106 51 109 53 111 C 58 115 63 116 72 117 C 87 118 99 117 103 115 C 105 114 107 113 109 112 C 111 112 113 111 115 108 C 118 106 120 104 121 103 C 124 102 124 101 124 97 C 124 94 124 93 123 92 C 121 91 116 90 115 91 C 114 92 113 93 112 93 C 111 93 109 94 108 96 C 107 97 106 99 105 99 C 105 99 103 99 102 100 C 92 109 73 109 63 101 C 62 100 60 99 59 99 C 57 97 53 93 51 88 C 51 86 49 82 48 80 C 47 79 46 78 46 76 C 46 72 46 69 46 64 C 46 52 46 51 50 45 C 51 43 52 40 54 38 C 55 34 60 29 63 27 C 64 27 66 25 67 24 C 69 22 81 19 85 19 C 87 19 91 19 94 21 C 101 22 101 23 104 26 C 107 30 109 33 109 35 C 109 37 110 39 113 41 C 115 43 115 43 118 43 C 123 42 123 42 124 37 C 125 33 125 27 123 23 C 123 20 111 12 108 12 C 107 12 105 11 103 10 C 95 7 87 6 79 7 z" fill="black" /><!-- width=135 height=125 -->
<path id="gl5384" d="M 39 11 C 30 13 19 21 15 31 C 11 41 10 48 13 60 C 15 67 21 75 27 79 C 32 82 44 85 48 84 C 66 82 72 78 79 64 C 84 55 85 45 82 37 C 81 36 80 33 79 30 C 78 25 75 22 73 20 C 72 19 70 18 69 17 C 63 11 51 9 39 11 M 58 24 C 64 28 64 28 67 34 C 76 53 64 73 44 73 C 40 73 40 73 36 70 C 25 63 21 49 27 37 C 31 29 33 27 37 24 C 42 21 42 21 48 21 C 51 21 52 21 54 21 C 55 22 57 23 58 24 z" fill="black" /><!-- width=96 height=95 -->
<path id="gl1537" d="M 23 13 C 15 15 12 19 16 24 C 19 30 19 26 19 65 C 20 105 20 105 17 109 C 14 114 13 115 14 117 C 15 120 17 120 26 120 C 35 121 37 120 39 117 C 39 115 39 114 37 111 C 33 106 33 108 33 60 C 33 19 33 16 32 15 C 30 12 28 12 23 13 z" fill="black" /><!-- width=52 height=137 -->
<path id="gl1537" d="M 23 13 C 15 15 12 19 16 24 C 19 30 19 26 19 65 C 20 105 20 105 17 109 C 14 114 13 115 14 117 C 15 120 17 120 26 120 C 35 121 37 120 39 117 C 39 115 39 114 37 111 C 33 106 33 108 33 60 C 33 19 33 16 32 15 C 30 12 28 12 23 13 z" fill="black" /><!-- width=52 height=137 -->
<path id="gl1544" d="M 46 13 C 35 15 24 25 19 36 C 15 46 16 61 21 68 C 27 78 39 84 51 84 C 64 84 82 75 82 68 C 82 61 76 60 69 66 C 61 72 54 74 47 72 C 37 70 30 63 34 58 C 35 57 37 57 48 55 C 75 52 88 33 73 19 C 67 13 57 10 46 13 M 60 24 C 66 27 67 34 61 40 C 57 43 37 49 33 48 C 27 46 34 30 44 25 C 49 22 56 22 60 24 z" fill="black" /><!-- width=93 height=96 -->
<path id="gl5385" d="M 19 9 C 14 14 0 33 0 48 C 0 57 19 76 33 76 C 52 76 57 81 48 91 C 43 100 38 100 28 91 C 19 91 14 86 9 86 C 9 81 9 86 9 91 C 9 115 67 110 67 91 C 72 81 67 76 67 72 C 62 72 62 62 67 57 C 67 48 67 38 67 28 C 67 24 67 14 67 14 C 72 14 72 14 72 14 C 67 9 38 4 19 9 M 43 19 C 57 28 52 62 33 62 C 33 62 28 62 24 57 C 4 38 24 9 43 19 z" fill="black" /><!-- width=81 height=115 -->
<path id="gl1544" d="M 46 13 C 35 15 24 25 19 36 C 15 46 16 61 21 68 C 27 78 39 84 51 84 C 64 84 82 75 82 68 C 82 61 76 60 69 66 C 61 72 54 74 47 72 C 37 70 30 63 34 58 C 35 57 37 57 48 55 C 75 52 88 33 73 19 C 67 13 57 10 46 13 M 60 24 C 66 27 67 34 61 40 C 57 43 37 49 33 48 C 27 46 34 30 44 25 C 49 22 56 22 60 24 z" fill="black" /><!-- width=93 height=96 -->
<path id="gl5386" d="M 4 9 C 0 19 9 28 19 24 C 24 14 19 4 14 4 C 9 4 4 4 4 9 M 4 33 C 4 67 4 100 14 100 C 24 105 24 100 24 72 C 24 57 19 38 19 38 C 19 28 9 28 4 33 z" fill="black" /><!-- width=38 height=110 -->
<path id="gl1545" d="M 48 15 C 45 15 43 17 39 19 C 35 22 34 22 30 19 C 27 16 27 15 25 15 C 16 15 13 24 18 29 C 21 33 22 33 22 51 C 22 70 21 70 18 75 C 12 82 15 85 29 84 C 42 84 43 82 37 73 C 36 72 36 72 35 70 C 35 65 35 59 35 54 C 35 37 35 36 36 34 C 41 25 60 22 66 30 C 68 33 69 36 69 53 C 69 70 69 70 65 75 C 63 79 63 81 65 83 C 67 85 82 85 85 83 C 88 81 88 78 85 75 C 82 71 82 70 82 52 C 82 30 81 26 75 20 C 69 15 58 13 48 15 z" fill="black" /><!-- width=100 height=97 -->
<path id="gl1304" d="M 42 29 C 28 30 27 30 25 33 C 24 35 24 36 27 40 C 29 41 31 43 31 44 C 32 45 32 115 31 119 C 31 121 30 123 28 125 C 25 129 25 131 28 133 C 28 134 29 135 30 135 C 33 135 37 135 40 135 C 52 135 54 134 55 132 C 55 129 55 127 51 125 C 47 121 46 119 47 108 C 47 96 48 96 60 95 C 64 95 68 94 70 94 C 71 93 74 93 76 91 C 82 90 88 87 90 85 C 91 84 94 82 96 81 C 103 75 106 68 106 58 C 106 47 103 41 94 36 C 84 30 76 28 42 29 M 72 42 C 82 44 87 48 89 55 C 93 66 85 76 68 82 C 55 86 49 87 48 82 C 46 80 46 49 48 46 C 50 40 62 39 72 42 z" fill="black" /><!-- width=118 height=145 -->
<path id="gl1305" d="M 58 22 C 57 23 52 26 49 30 C 45 34 43 34 41 29 C 39 25 37 23 34 23 C 29 23 24 28 24 32 C 24 34 24 35 27 38 C 32 43 31 42 31 61 C 31 78 31 79 28 84 C 25 87 25 88 28 91 C 30 92 30 92 38 92 C 41 92 44 92 47 92 C 48 92 48 91 49 91 C 51 88 51 87 48 84 C 45 78 45 78 45 65 C 45 52 46 49 49 43 C 53 37 56 36 63 38 C 70 39 74 33 70 27 C 69 23 64 21 58 22 z" fill="black" /><!-- width=84 height=105 -->
<path id="gl5387" d="M 18 7 C 14 9 12 15 13 18 C 14 21 19 24 22 24 C 27 24 27 23 29 20 C 32 15 32 12 28 8 C 25 6 21 5 18 7 M 18 36 C 11 38 10 42 14 48 C 18 54 18 53 17 72 C 17 78 17 83 17 88 C 16 90 15 91 15 92 C 10 98 11 100 18 102 C 21 103 27 103 32 100 C 37 99 37 97 33 94 C 29 88 29 90 30 64 C 30 39 30 38 27 36 C 25 34 21 34 18 36 z" fill="black" /><!-- width=46 height=122 -->
<path id="gl1545" d="M 48 15 C 45 15 43 17 39 19 C 35 22 34 22 30 19 C 27 16 27 15 25 15 C 16 15 13 24 18 29 C 21 33 22 33 22 51 C 22 70 21 70 18 75 C 12 82 15 85 29 84 C 42 84 43 82 37 73 C 36 72 36 72 35 70 C 35 65 35 59 35 54 C 35 37 35 36 36 34 C 41 25 60 22 66 30 C 68 33 69 36 69 53 C 69 70 69 70 65 75 C 63 79 63 81 65 83 C 67 85 82 85 85 83 C 88 81 88 78 85 75 C 82 71 82 70 82 52 C 82 30 81 26 75 20 C 69 15 58 13 48 15 z" fill="black" /><!-- width=100 height=97 -->
<path id="gl1307" d="M 49 12 C 27 17 15 45 25 67 C 32 79 48 86 61 82 C 76 78 84 70 81 64 C 78 60 75 61 69 66 C 61 73 49 73 42 67 C 28 53 37 22 54 22 C 59 22 61 24 65 28 C 70 34 77 34 79 28 C 82 18 64 9 49 12 z" fill="black" /><!-- width=92 height=96 -->
<path id="gl1542" d="M 49 10 C 49 10 46 11 43 12 C 37 13 31 17 25 24 C 14 36 13 58 22 70 C 34 84 56 87 72 76 C 81 70 84 64 79 63 C 75 61 74 61 69 65 C 61 70 59 72 53 72 C 42 72 30 65 33 58 C 33 56 36 55 42 55 C 60 53 75 45 78 36 C 79 32 78 26 77 22 C 76 21 70 15 69 13 C 66 12 51 9 49 10 M 57 21 C 66 23 67 34 58 40 C 55 42 40 47 36 47 C 29 48 28 44 32 35 C 36 25 48 19 57 21 z" fill="black" /><!-- width=91 height=94 -->
<path id="gl1548" d="M 30 9 C 28 10 27 12 26 21 C 25 30 24 31 20 33 C 14 34 14 40 20 43 C 24 45 24 44 24 73 C 24 81 24 90 24 98 C 24 99 25 99 25 100 C 28 102 30 103 42 103 C 49 103 52 102 53 99 C 54 96 52 94 46 93 C 37 92 37 93 37 65 C 37 58 37 52 37 45 C 37 45 38 45 39 44 C 40 43 41 43 45 43 C 52 43 54 41 53 37 C 52 34 51 33 45 33 C 37 33 37 32 38 20 C 39 12 38 10 33 9 C 32 8 31 8 30 9 z" fill="black" /><!-- width=65 height=117 -->
<path id="gl1539" d="M 43 12 C 41 13 37 14 34 16 C 12 27 6 57 22 73 C 37 88 60 88 75 73 C 100 48 78 7 43 12 M 55 24 C 60 25 64 28 67 32 C 79 50 69 74 49 74 C 30 74 21 53 31 34 C 35 25 46 21 55 24 z" fill="black" /><!-- width=99 height=97 -->
<path id="gl1545" d="M 48 15 C 45 15 43 17 39 19 C 35 22 34 22 30 19 C 27 16 27 15 25 15 C 16 15 13 24 18 29 C 21 33 22 33 22 51 C 22 70 21 70 18 75 C 12 82 15 85 29 84 C 42 84 43 82 37 73 C 36 72 36 72 35 70 C 35 65 35 59 35 54 C 35 37 35 36 36 34 C 41 25 60 22 66 30 C 68 33 69 36 69 53 C 69 70 69 70 65 75 C 63 79 63 81 65 83 C 67 85 82 85 85 83 C 88 81 88 78 85 75 C 82 71 82 70 82 52 C 82 30 81 26 75 20 C 69 15 58 13 48 15 z" fill="black" /><!-- width=100 height=97 -->
<path id="gl1803" d="M 13 21 C 10 22 8 24 8 29 C 8 34 9 34 14 36 C 19 39 20 40 19 46 C 18 52 19 55 23 54 C 30 52 30 25 23 22 C 21 21 15 20 13 21 z" fill="black" /><!-- width=39 height=68 -->
<path id="gl5388" d="M 9 19 C 9 33 9 72 4 100 C 4 110 4 110 14 110 C 24 110 24 110 24 72 C 19 48 24 33 24 33 C 28 33 38 48 52 72 C 67 96 81 110 86 110 C 86 110 91 91 91 67 C 86 38 91 19 91 19 C 100 14 96 9 81 9 C 67 9 67 9 76 19 C 76 24 76 38 76 48 C 76 57 76 67 76 76 C 72 67 67 62 62 57 C 38 19 24 9 14 9 C 4 9 4 9 9 19 z" fill="black" /><!-- width=105 height=124 -->
<path id="gl1802" d="M 42 13 C 33 16 22 25 20 33 C 19 34 18 37 17 39 C 12 51 16 66 25 75 C 37 87 57 88 73 77 C 77 74 78 74 79 71 C 81 67 81 66 78 63 C 75 61 71 63 67 67 C 64 70 57 73 53 73 C 43 75 30 67 32 60 C 33 58 35 57 43 56 C 60 54 75 46 77 38 C 81 24 70 12 52 13 C 48 13 45 13 42 13 M 58 24 C 66 28 65 37 57 42 C 52 45 37 49 33 49 C 28 49 28 42 33 33 C 39 25 51 20 58 24 z" fill="black" /><!-- width=90 height=97 -->
<path id="gl1795" d="M 18 13 C 13 15 12 19 15 24 C 15 26 17 33 19 39 C 24 57 31 76 37 81 C 42 86 46 85 51 78 C 54 72 57 64 58 61 C 61 55 63 54 65 55 C 67 57 69 58 70 63 C 74 75 79 84 84 84 C 88 85 91 82 98 69 C 99 67 100 64 101 63 C 103 61 105 55 109 41 C 112 34 114 28 115 25 C 117 21 117 18 114 15 C 111 13 111 13 106 13 C 97 13 96 17 99 25 C 100 32 100 37 94 52 C 88 70 85 69 77 48 C 75 45 74 40 73 37 C 73 35 73 33 72 31 C 73 30 73 28 73 27 C 77 16 76 14 69 13 C 57 12 53 17 57 25 C 61 31 59 41 52 56 C 49 61 46 65 44 65 C 42 65 38 59 36 51 C 35 48 34 43 33 41 C 31 34 31 29 33 24 C 36 19 35 16 32 15 C 30 13 21 13 18 13 z" fill="black" /><!-- width=126 height=96 -->
<path id="gl5389" d="M 43 52 C 48 96 48 96 33 100 C 24 105 14 96 24 86 C 28 81 28 76 24 72 C 19 67 14 67 9 76 C 0 96 4 110 33 110 C 57 110 57 105 62 52 C 62 9 62 4 52 4 C 43 4 43 9 43 52 z" fill="black" /><!-- width=76 height=124 -->
<path id="gl1544" d="M 46 13 C 35 15 24 25 19 36 C 15 46 16 61 21 68 C 27 78 39 84 51 84 C 64 84 82 75 82 68 C 82 61 76 60 69 66 C 61 72 54 74 47 72 C 37 70 30 63 34 58 C 35 57 37 57 48 55 C 75 52 88 33 73 19 C 67 13 57 10 46 13 M 60 24 C 66 27 67 34 61 40 C 57 43 37 49 33 48 C 27 46 34 30 44 25 C 49 22 56 22 60 24 z" fill="black" /><!-- width=93 height=96 -->
<path id="gl1305" d="M 58 22 C 57 23 52 26 49 30 C 45 34 43 34 41 29 C 39 25 37 23 34 23 C 29 23 24 28 24 32 C 24 34 24 35 27 38 C 32 43 31 42 31 61 C 31 78 31 79 28 84 C 25 87 25 88 28 91 C 30 92 30 92 38 92 C 41 92 44 92 47 92 C 48 92 48 91 49 91 C 51 88 51 87 48 84 C 45 78 45 78 45 65 C 45 52 46 49 49 43 C 53 37 56 36 63 38 C 70 39 74 33 70 27 C 69 23 64 21 58 22 z" fill="black" /><!-- width=84 height=105 -->
<path id="gl5390" d="M 27 10 C 24 10 17 15 14 19 C 12 22 11 32 12 37 C 12 42 16 45 21 46 C 23 47 25 48 27 49 C 29 51 33 51 36 52 C 43 52 46 55 48 61 C 48 65 46 70 43 71 C 42 72 40 72 39 73 C 39 73 37 73 33 72 C 27 71 26 70 22 66 C 19 63 18 62 16 62 C 15 62 14 61 13 61 C 12 63 11 64 10 65 C 7 69 7 69 8 72 C 9 74 10 75 12 76 C 14 77 18 79 19 79 C 21 81 24 82 25 82 C 26 82 28 82 30 82 C 36 84 39 84 39 83 C 39 82 41 82 47 80 C 53 79 57 75 60 68 C 61 62 61 50 58 49 C 58 49 56 48 54 46 C 51 43 40 39 34 37 C 28 37 27 36 25 34 C 24 31 24 27 26 22 C 27 21 27 21 27 19 C 29 19 31 19 33 19 C 40 19 40 19 44 23 C 48 26 51 28 52 28 C 54 28 60 22 60 21 C 60 19 57 15 54 13 C 52 11 49 10 40 10 C 31 9 31 9 27 10 z" fill="black" /><!-- width=72 height=93 -->
<path id="gl1544" d="M 46 13 C 35 15 24 25 19 36 C 15 46 16 61 21 68 C 27 78 39 84 51 84 C 64 84 82 75 82 68 C 82 61 76 60 69 66 C 61 72 54 74 47 72 C 37 70 30 63 34 58 C 35 57 37 57 48 55 C 75 52 88 33 73 19 C 67 13 57 10 46 13 M 60 24 C 66 27 67 34 61 40 C 57 43 37 49 33 48 C 27 46 34 30 44 25 C 49 22 56 22 60 24 z" fill="black" /><!-- width=93 height=96 -->
<path id="gl2071" d="M 18 22 C 13 24 12 28 15 33 C 17 36 18 37 21 55 C 21 58 22 62 24 64 C 25 67 26 70 27 72 C 28 77 35 84 40 86 C 49 89 49 93 41 101 C 38 104 37 105 33 106 C 28 108 28 108 22 106 C 19 105 15 113 17 117 C 18 120 21 121 28 120 C 34 120 36 119 42 114 C 54 103 58 99 60 93 C 61 91 63 88 64 85 C 65 84 66 81 67 79 C 67 77 69 75 70 72 C 71 70 72 67 72 66 C 73 64 74 61 75 60 C 76 57 77 53 78 43 C 78 39 79 36 80 34 C 82 29 81 26 78 23 C 76 22 67 21 64 22 C 61 24 60 27 64 32 C 66 35 66 35 66 41 C 66 48 65 49 62 62 C 59 74 55 78 50 78 C 40 76 28 46 34 33 C 37 25 36 22 26 22 C 22 22 19 22 18 22 z" fill="black" /><!-- width=91 height=130 -->
<path id="gl1797" d="M 15 28 C 11 30 9 33 9 37 C 9 41 11 43 16 45 C 24 48 25 52 19 60 C 17 62 17 66 18 68 C 19 69 24 69 26 67 C 31 63 34 43 30 34 C 28 28 20 25 15 28 z" fill="black" /><!-- width=45 height=86 -->
<path id="gl1543" d="M 59 7 C 53 9 51 13 55 19 C 57 22 58 26 58 35 C 58 46 57 47 49 45 C 28 39 7 55 7 81 C 7 97 14 107 26 113 C 35 117 42 117 50 113 C 55 111 58 111 63 112 C 67 114 72 114 75 112 C 78 111 78 108 74 103 C 73 102 72 100 72 99 C 72 84 72 70 72 55 C 72 4 72 10 70 7 C 67 6 64 6 59 7 M 50 55 C 58 57 58 58 58 79 C 58 98 57 100 49 103 C 33 108 20 96 22 78 C 24 60 35 51 50 55 z" fill="black" /><!-- width=94 height=140 -->
<path id="gl1539" d="M 43 12 C 41 13 37 14 34 16 C 12 27 6 57 22 73 C 37 88 60 88 75 73 C 100 48 78 7 43 12 M 55 24 C 60 25 64 28 67 32 C 79 50 69 74 49 74 C 30 74 21 53 31 34 C 35 25 46 21 55 24 z" fill="black" /><!-- width=99 height=97 -->
<path id="gl1802" d="M 42 13 C 33 16 22 25 20 33 C 19 34 18 37 17 39 C 12 51 16 66 25 75 C 37 87 57 88 73 77 C 77 74 78 74 79 71 C 81 67 81 66 78 63 C 75 61 71 63 67 67 C 64 70 57 73 53 73 C 43 75 30 67 32 60 C 33 58 35 57 43 56 C 60 54 75 46 77 38 C 81 24 70 12 52 13 C 48 13 45 13 42 13 M 58 24 C 66 28 65 37 57 42 C 52 45 37 49 33 49 C 28 49 28 42 33 33 C 39 25 51 20 58 24 z" fill="black" /><!-- width=90 height=97 -->
<path id="gl1796" d="M 30 11 C 24 13 16 19 15 25 C 10 36 16 47 28 49 C 37 52 45 54 46 55 C 52 60 51 69 43 72 C 36 74 30 72 23 66 C 19 62 18 61 15 62 C 8 63 9 72 16 76 C 28 84 39 84 50 79 C 59 75 63 69 63 61 C 63 49 57 43 40 39 C 29 36 27 35 25 30 C 25 26 28 21 35 21 C 39 20 42 21 48 25 C 55 31 57 31 60 27 C 63 21 59 16 51 12 C 48 11 34 10 30 11 z" fill="black" /><!-- width=76 height=94 -->
<path id="gl1539" d="M 43 12 C 41 13 37 14 34 16 C 12 27 6 57 22 73 C 37 88 60 88 75 73 C 100 48 78 7 43 12 M 55 24 C 60 25 64 28 67 32 C 79 50 69 74 49 74 C 30 74 21 53 31 34 C 35 25 46 21 55 24 z" fill="black" /><!-- width=99 height=97 -->
<path id="gl1799" d="M 41 10 C 35 12 31 15 28 21 C 25 27 25 29 25 39 C 24 49 24 51 19 52 C 13 54 13 60 19 62 C 24 63 24 63 24 86 C 24 109 24 108 20 112 C 17 116 18 120 21 121 C 26 123 39 121 41 120 C 43 118 43 115 42 114 C 42 114 40 112 39 111 C 39 109 38 108 37 107 C 37 100 37 93 37 87 C 37 61 37 63 43 62 C 49 61 51 60 50 57 C 50 54 48 52 43 52 C 37 52 36 49 37 37 C 38 26 39 24 45 25 C 51 25 54 23 54 18 C 54 12 47 8 41 10 z" fill="black" /><!-- width=65 height=132 -->
<path id="gl1792" d="M 35 9 C 31 10 26 16 24 24 C 22 29 21 30 21 38 C 21 48 21 49 16 50 C 12 52 10 54 12 57 C 13 60 14 60 16 60 C 21 61 21 61 21 85 C 21 106 21 106 17 111 C 15 113 15 117 17 118 C 18 120 32 120 36 119 C 40 118 40 114 37 111 C 34 107 34 107 34 85 C 33 63 33 63 36 61 C 37 60 38 60 41 60 C 43 60 45 58 46 56 C 47 53 43 49 40 50 C 34 50 33 48 34 37 C 34 24 35 22 42 22 C 49 22 50 21 50 16 C 50 10 48 8 41 9 C 39 9 36 9 35 9 z" fill="black" /><!-- width=58 height=128 -->
<path id="gl1544" d="M 46 13 C 35 15 24 25 19 36 C 15 46 16 61 21 68 C 27 78 39 84 51 84 C 64 84 82 75 82 68 C 82 61 76 60 69 66 C 61 72 54 74 47 72 C 37 70 30 63 34 58 C 35 57 37 57 48 55 C 75 52 88 33 73 19 C 67 13 57 10 46 13 M 60 24 C 66 27 67 34 61 40 C 57 43 37 49 33 48 C 27 46 34 30 44 25 C 49 22 56 22 60 24 z" fill="black" /><!-- width=93 height=96 -->
<path id="gl1305" d="M 58 22 C 57 23 52 26 49 30 C 45 34 43 34 41 29 C 39 25 37 23 34 23 C 29 23 24 28 24 32 C 24 34 24 35 27 38 C 32 43 31 42 31 61 C 31 78 31 79 28 84 C 25 87 25 88 28 91 C 30 92 30 92 38 92 C 41 92 44 92 47 92 C 48 92 48 91 49 91 C 51 88 51 87 48 84 C 45 78 45 78 45 65 C 45 52 46 49 49 43 C 53 37 56 36 63 38 C 70 39 74 33 70 27 C 69 23 64 21 58 22 z" fill="black" /><!-- width=84 height=105 -->
<path id="gl1796" d="M 30 11 C 24 13 16 19 15 25 C 10 36 16 47 28 49 C 37 52 45 54 46 55 C 52 60 51 69 43 72 C 36 74 30 72 23 66 C 19 62 18 61 15 62 C 8 63 9 72 16 76 C 28 84 39 84 50 79 C 59 75 63 69 63 61 C 63 49 57 43 40 39 C 29 36 27 35 25 30 C 25 26 28 21 35 21 C 39 20 42 21 48 25 C 55 31 57 31 60 27 C 63 21 59 16 51 12 C 48 11 34 10 30 11 z" fill="black" /><!-- width=76 height=94 -->
<path id="gl1547" d="M 15 8 C 11 10 10 13 13 19 C 14 21 15 22 16 23 C 16 28 16 34 16 40 C 16 62 18 66 22 71 C 30 79 43 81 55 74 C 59 71 61 71 66 74 C 70 77 76 78 79 76 C 80 75 81 75 81 75 C 81 75 81 74 81 73 C 82 71 82 70 79 67 C 75 63 75 63 75 37 C 75 13 75 11 72 9 C 71 7 70 7 67 7 C 58 7 55 11 60 19 C 60 21 61 22 61 23 C 61 28 61 33 61 39 C 62 59 61 60 53 64 C 43 69 35 69 31 62 C 31 61 30 60 30 59 C 30 51 30 43 29 35 C 29 9 29 9 25 7 C 23 7 18 7 15 8 z" fill="black" /><!-- width=94 height=90 -->
<path id="gl1307" d="M 49 12 C 27 17 15 45 25 67 C 32 79 48 86 61 82 C 76 78 84 70 81 64 C 78 60 75 61 69 66 C 61 73 49 73 42 67 C 28 53 37 22 54 22 C 59 22 61 24 65 28 C 70 34 77 34 79 28 C 82 18 64 9 49 12 z" fill="black" /><!-- width=92 height=96 -->
<path id="gl1541" d="M 33 7 C 27 7 22 11 24 15 C 24 16 25 18 26 20 C 29 25 30 31 29 68 C 28 102 29 100 25 105 C 19 111 22 115 34 115 C 42 115 45 115 47 112 C 49 111 49 109 45 104 C 45 103 43 102 43 100 C 43 95 43 89 43 84 C 42 73 43 66 43 64 C 45 57 60 53 68 57 C 74 60 75 63 75 78 C 76 93 75 100 73 105 C 67 112 70 115 85 115 C 95 114 97 111 93 105 C 89 100 89 100 89 85 C 90 70 89 64 87 59 C 82 46 67 40 51 47 C 42 51 42 49 42 28 C 43 7 43 5 33 7 z" fill="black" /><!-- width=106 height=137 -->
<path id="gl1814" d="M 28 6 C 27 6 19 8 17 9 C 15 10 14 11 13 13 C 11 17 11 18 13 19 C 16 22 19 21 27 18 C 34 14 37 14 44 18 C 48 19 49 20 50 22 C 52 28 51 29 40 30 C 34 30 33 30 26 33 C 1 42 3 74 28 77 C 36 78 42 77 45 75 C 50 70 54 70 58 73 C 61 76 64 77 68 76 C 71 76 72 76 72 72 C 73 71 73 70 73 69 C 72 69 72 68 71 67 C 67 63 66 62 66 46 C 66 25 65 21 57 13 C 54 10 53 10 46 8 C 39 6 32 5 28 6 M 52 39 C 54 41 54 41 54 46 C 53 58 52 61 44 64 C 35 69 29 68 24 63 C 18 56 22 46 33 41 C 42 37 50 36 52 39 z" fill="black" /><!-- width=83 height=89 -->
<path id="gl1307" d="M 49 12 C 27 17 15 45 25 67 C 32 79 48 86 61 82 C 76 78 84 70 81 64 C 78 60 75 61 69 66 C 61 73 49 73 42 67 C 28 53 37 22 54 22 C 59 22 61 24 65 28 C 70 34 77 34 79 28 C 82 18 64 9 49 12 z" fill="black" /><!-- width=92 height=96 -->
<path id="gl5384" d="M 39 11 C 30 13 19 21 15 31 C 11 41 10 48 13 60 C 15 67 21 75 27 79 C 32 82 44 85 48 84 C 66 82 72 78 79 64 C 84 55 85 45 82 37 C 81 36 80 33 79 30 C 78 25 75 22 73 20 C 72 19 70 18 69 17 C 63 11 51 9 39 11 M 58 24 C 64 28 64 28 67 34 C 76 53 64 73 44 73 C 40 73 40 73 36 70 C 25 63 21 49 27 37 C 31 29 33 27 37 24 C 42 21 42 21 48 21 C 51 21 52 21 54 21 C 55 22 57 23 58 24 z" fill="black" /><!-- width=96 height=95 -->
<path id="gl1547" d="M 15 8 C 11 10 10 13 13 19 C 14 21 15 22 16 23 C 16 28 16 34 16 40 C 16 62 18 66 22 71 C 30 79 43 81 55 74 C 59 71 61 71 66 74 C 70 77 76 78 79 76 C 80 75 81 75 81 75 C 81 75 81 74 81 73 C 82 71 82 70 79 67 C 75 63 75 63 75 37 C 75 13 75 11 72 9 C 71 7 70 7 67 7 C 58 7 55 11 60 19 C 60 21 61 22 61 23 C 61 28 61 33 61 39 C 62 59 61 60 53 64 C 43 69 35 69 31 62 C 31 61 30 60 30 59 C 30 51 30 43 29 35 C 29 9 29 9 25 7 C 23 7 18 7 15 8 z" fill="black" /><!-- width=94 height=90 -->
<path id="gl1305" d="M 58 22 C 57 23 52 26 49 30 C 45 34 43 34 41 29 C 39 25 37 23 34 23 C 29 23 24 28 24 32 C 24 34 24 35 27 38 C 32 43 31 42 31 61 C 31 78 31 79 28 84 C 25 87 25 88 28 91 C 30 92 30 92 38 92 C 41 92 44 92 47 92 C 48 92 48 91 49 91 C 51 88 51 87 48 84 C 45 78 45 78 45 65 C 45 52 46 49 49 43 C 53 37 56 36 63 38 C 70 39 74 33 70 27 C 69 23 64 21 58 22 z" fill="black" /><!-- width=84 height=105 -->
<path id="gl1562" d="M 30 12 C 22 13 17 17 13 23 C 12 27 12 27 12 33 C 12 36 12 37 12 40 C 13 41 13 42 15 43 C 18 48 24 51 31 52 C 45 54 51 60 48 67 C 45 72 40 73 33 73 C 28 73 25 71 22 67 C 16 61 12 61 9 65 C 6 69 9 73 16 78 C 20 81 21 81 28 82 C 36 84 35 84 45 82 C 63 76 67 52 52 45 C 49 43 39 40 31 38 C 25 37 24 35 24 30 C 24 26 25 24 30 22 C 35 21 41 22 46 25 C 50 30 52 30 54 30 C 58 29 60 27 60 24 C 60 16 45 10 30 12 z" fill="black" /><!-- width=72 height=96 -->
<path id="gl1802" d="M 42 13 C 33 16 22 25 20 33 C 19 34 18 37 17 39 C 12 51 16 66 25 75 C 37 87 57 88 73 77 C 77 74 78 74 79 71 C 81 67 81 66 78 63 C 75 61 71 63 67 67 C 64 70 57 73 53 73 C 43 75 30 67 32 60 C 33 58 35 57 43 56 C 60 54 75 46 77 38 C 81 24 70 12 52 13 C 48 13 45 13 42 13 M 58 24 C 66 28 65 37 57 42 C 52 45 37 49 33 49 C 28 49 28 42 33 33 C 39 25 51 20 58 24 z" fill="black" /><!-- width=90 height=97 -->
<path id="gl1308" d="M 31 7 C 30 8 29 10 28 17 C 27 27 26 30 21 31 C 13 33 13 39 20 40 C 26 42 25 40 25 69 C 25 102 24 100 40 100 C 51 101 52 101 54 99 C 58 95 55 91 49 90 C 38 89 39 91 38 64 C 38 40 37 41 46 40 C 54 40 56 39 55 36 C 55 32 53 31 47 31 C 39 31 38 30 39 20 C 40 10 39 7 34 6 C 34 6 33 6 31 7 z" fill="black" /><!-- width=68 height=113 -->
<path id="gl5383" d="M 40 6 C 36 6 35 6 31 9 C 29 11 25 13 24 14 C 20 16 12 28 12 34 C 12 35 11 37 10 39 C 10 40 10 43 11 48 C 12 51 12 55 12 56 C 12 60 13 61 16 62 C 19 63 20 64 21 67 C 22 70 23 71 26 72 C 28 73 30 74 31 75 C 34 77 39 78 51 77 C 54 77 57 77 60 77 C 62 76 64 75 65 74 C 68 72 71 70 72 69 C 73 67 75 66 76 64 C 82 57 84 49 84 39 C 84 34 83 31 82 30 C 81 28 80 25 79 23 C 73 12 66 7 54 6 C 51 6 47 6 46 6 C 46 6 43 6 40 6 M 54 16 C 57 18 66 26 67 29 C 69 31 69 32 69 41 C 69 54 68 56 63 60 C 61 61 59 63 58 64 C 54 67 53 68 46 68 C 40 68 39 67 33 62 C 26 55 25 54 25 44 C 25 32 26 28 33 22 C 38 17 39 16 43 16 C 47 15 51 15 54 16 z" fill="black" /><!-- width=95 height=85 -->
<path id="gl1536" d="M 21 7 C 15 9 13 14 16 19 C 19 25 28 25 32 19 C 36 12 28 4 21 7 M 21 34 C 12 37 9 41 15 46 C 20 51 20 51 19 69 C 19 87 19 89 16 91 C 13 95 12 98 15 100 C 16 102 16 102 25 102 C 35 102 37 102 38 99 C 39 97 39 96 36 93 C 33 89 33 90 33 67 C 33 34 32 31 21 34 z" fill="black" /><!-- width=51 height=120 -->
<path id="gl1308" d="M 31 7 C 30 8 29 10 28 17 C 27 27 26 30 21 31 C 13 33 13 39 20 40 C 26 42 25 40 25 69 C 25 102 24 100 40 100 C 51 101 52 101 54 99 C 58 95 55 91 49 90 C 38 89 39 91 38 64 C 38 40 37 41 46 40 C 54 40 56 39 55 36 C 55 32 53 31 47 31 C 39 31 38 30 39 20 C 40 10 39 7 34 6 C 34 6 33 6 31 7 z" fill="black" /><!-- width=68 height=113 -->
<path id="gl1562" d="M 30 12 C 22 13 17 17 13 23 C 12 27 12 27 12 33 C 12 36 12 37 12 40 C 13 41 13 42 15 43 C 18 48 24 51 31 52 C 45 54 51 60 48 67 C 45 72 40 73 33 73 C 28 73 25 71 22 67 C 16 61 12 61 9 65 C 6 69 9 73 16 78 C 20 81 21 81 28 82 C 36 84 35 84 45 82 C 63 76 67 52 52 45 C 49 43 39 40 31 38 C 25 37 24 35 24 30 C 24 26 25 24 30 22 C 35 21 41 22 46 25 C 50 30 52 30 54 30 C 58 29 60 27 60 24 C 60 16 45 10 30 12 z" fill="black" /><!-- width=72 height=96 -->
<path id="gl1562" d="M 30 12 C 22 13 17 17 13 23 C 12 27 12 27 12 33 C 12 36 12 37 12 40 C 13 41 13 42 15 43 C 18 48 24 51 31 52 C 45 54 51 60 48 67 C 45 72 40 73 33 73 C 28 73 25 71 22 67 C 16 61 12 61 9 65 C 6 69 9 73 16 78 C 20 81 21 81 28 82 C 36 84 35 84 45 82 C 63 76 67 52 52 45 C 49 43 39 40 31 38 C 25 37 24 35 24 30 C 24 26 25 24 30 22 C 35 21 41 22 46 25 C 50 30 52 30 54 30 C 58 29 60 27 60 24 C 60 16 45 10 30 12 z" fill="black" /><!-- width=72 height=96 -->
<path id="gl5380" d="M 30 6 C 28 9 27 15 26 17 C 26 20 25 28 24 30 C 24 31 23 31 18 33 C 16 33 15 34 15 38 C 14 39 15 39 16 40 C 24 42 25 45 25 51 C 24 58 24 94 24 97 C 25 100 27 101 34 102 C 38 102 42 103 43 103 C 49 104 52 103 55 99 C 55 98 56 97 56 96 C 55 96 55 94 54 94 C 51 91 49 90 44 92 C 41 93 40 92 39 89 C 37 87 37 86 38 72 C 38 71 37 66 37 59 C 37 46 37 44 40 42 C 42 40 42 40 45 42 C 49 43 52 43 56 41 C 60 39 60 37 57 35 C 54 32 52 31 46 32 C 37 33 37 31 39 19 C 40 12 39 10 36 7 C 32 4 31 4 30 6 z" fill="black" /><!-- width=66 height=114 -->
<path id="gl5391" d="M 9 24 C 9 28 9 43 9 52 C 9 76 24 86 43 76 C 48 76 57 76 62 76 C 76 81 76 81 72 67 C 72 62 72 48 72 33 C 72 9 67 4 62 4 C 52 4 52 9 52 33 C 57 52 52 57 48 62 C 33 76 28 67 24 38 C 24 14 24 9 14 9 C 4 4 4 9 9 24 z" fill="black" /><!-- width=81 height=91 -->
<path id="gl1299" d="M 18 13 C 13 15 12 18 15 21 C 17 24 18 24 35 24 C 51 24 51 24 54 21 C 57 18 56 16 52 14 C 49 13 22 12 18 13 z" fill="black" /><!-- width=69 height=37 -->
<path id="gl1543" d="M 59 7 C 53 9 51 13 55 19 C 57 22 58 26 58 35 C 58 46 57 47 49 45 C 28 39 7 55 7 81 C 7 97 14 107 26 113 C 35 117 42 117 50 113 C 55 111 58 111 63 112 C 67 114 72 114 75 112 C 78 111 78 108 74 103 C 73 102 72 100 72 99 C 72 84 72 70 72 55 C 72 4 72 10 70 7 C 67 6 64 6 59 7 M 50 55 C 58 57 58 58 58 79 C 58 98 57 100 49 103 C 33 108 20 96 22 78 C 24 60 35 51 50 55 z" fill="black" /><!-- width=94 height=140 -->
<path id="gl1802" d="M 42 13 C 33 16 22 25 20 33 C 19 34 18 37 17 39 C 12 51 16 66 25 75 C 37 87 57 88 73 77 C 77 74 78 74 79 71 C 81 67 81 66 78 63 C 75 61 71 63 67 67 C 64 70 57 73 53 73 C 43 75 30 67 32 60 C 33 58 35 57 43 56 C 60 54 75 46 77 38 C 81 24 70 12 52 13 C 48 13 45 13 42 13 M 58 24 C 66 28 65 37 57 42 C 52 45 37 49 33 49 C 28 49 28 42 33 33 C 39 25 51 20 58 24 z" fill="black" /><!-- width=90 height=97 -->
<path id="gl1545" d="M 48 15 C 45 15 43 17 39 19 C 35 22 34 22 30 19 C 27 16 27 15 25 15 C 16 15 13 24 18 29 C 21 33 22 33 22 51 C 22 70 21 70 18 75 C 12 82 15 85 29 84 C 42 84 43 82 37 73 C 36 72 36 72 35 70 C 35 65 35 59 35 54 C 35 37 35 36 36 34 C 41 25 60 22 66 30 C 68 33 69 36 69 53 C 69 70 69 70 65 75 C 63 79 63 81 65 83 C 67 85 82 85 85 83 C 88 81 88 78 85 75 C 82 71 82 70 82 52 C 82 30 81 26 75 20 C 69 15 58 13 48 15 z" fill="black" /><!-- width=100 height=97 -->
<path id="gl1308" d="M 31 7 C 30 8 29 10 28 17 C 27 27 26 30 21 31 C 13 33 13 39 20 40 C 26 42 25 40 25 69 C 25 102 24 100 40 100 C 51 101 52 101 54 99 C 58 95 55 91 49 90 C 38 89 39 91 38 64 C 38 40 37 41 46 40 C 54 40 56 39 55 36 C 55 32 53 31 47 31 C 39 31 38 30 39 20 C 40 10 39 7 34 6 C 34 6 33 6 31 7 z" fill="black" /><!-- width=68 height=113 -->
<path id="gl1549" d="M 28 12 C 19 15 15 19 13 29 C 12 35 14 42 18 45 C 21 47 28 50 34 51 C 45 54 48 56 49 60 C 51 67 45 72 36 72 C 30 72 27 70 22 66 C 15 58 9 60 10 68 C 10 78 27 84 43 81 C 61 77 69 60 58 47 C 54 44 51 42 40 39 C 26 35 24 34 25 28 C 26 19 39 18 48 25 C 54 31 59 30 59 23 C 59 16 57 14 49 12 C 42 10 34 10 28 12 z" fill="black" /><!-- width=74 height=93 -->
<path id="gl1565" d="M 18 13 C 13 18 13 27 18 28 C 24 30 29 27 30 21 C 31 16 31 16 25 13 C 21 11 21 11 18 13 z" fill="black" /><!-- width=45 height=42 -->
<path id="gl1296" d="M 33 12 C 32 12 27 12 23 12 C 14 12 12 12 12 16 C 12 18 12 19 16 22 C 19 25 19 25 19 64 C 19 106 19 103 15 106 C 11 110 10 113 14 115 C 16 117 34 117 38 116 C 42 115 42 111 38 106 C 36 105 34 103 34 102 C 34 99 34 28 34 27 C 34 25 36 24 38 22 C 42 19 42 17 42 15 C 40 12 37 10 33 12 z" fill="black" /><!-- width=54 height=129 -->
<path id="gl1548" d="M 30 9 C 28 10 27 12 26 21 C 25 30 24 31 20 33 C 14 34 14 40 20 43 C 24 45 24 44 24 73 C 24 81 24 90 24 98 C 24 99 25 99 25 100 C 28 102 30 103 42 103 C 49 103 52 102 53 99 C 54 96 52 94 46 93 C 37 92 37 93 37 65 C 37 58 37 52 37 45 C 37 45 38 45 39 44 C 40 43 41 43 45 43 C 52 43 54 41 53 37 C 52 34 51 33 45 33 C 37 33 37 32 38 20 C 39 12 38 10 33 9 C 32 8 31 8 30 9 z" fill="black" /><!-- width=65 height=117 -->
<path id="gl1795" d="M 18 13 C 13 15 12 19 15 24 C 15 26 17 33 19 39 C 24 57 31 76 37 81 C 42 86 46 85 51 78 C 54 72 57 64 58 61 C 61 55 63 54 65 55 C 67 57 69 58 70 63 C 74 75 79 84 84 84 C 88 85 91 82 98 69 C 99 67 100 64 101 63 C 103 61 105 55 109 41 C 112 34 114 28 115 25 C 117 21 117 18 114 15 C 111 13 111 13 106 13 C 97 13 96 17 99 25 C 100 32 100 37 94 52 C 88 70 85 69 77 48 C 75 45 74 40 73 37 C 73 35 73 33 72 31 C 73 30 73 28 73 27 C 77 16 76 14 69 13 C 57 12 53 17 57 25 C 61 31 59 41 52 56 C 49 61 46 65 44 65 C 42 65 38 59 36 51 C 35 48 34 43 33 41 C 31 34 31 29 33 24 C 36 19 35 16 32 15 C 30 13 21 13 18 13 z" fill="black" /><!-- width=126 height=96 -->
<path id="gl1540" d="M 31 7 C 18 10 14 13 14 18 C 13 24 19 25 27 21 C 34 17 38 16 43 18 C 50 20 55 26 52 29 C 51 31 51 31 44 31 C 28 32 18 37 12 48 C 10 54 10 63 12 67 C 19 79 37 83 49 75 C 54 72 55 72 60 75 C 66 79 72 79 75 75 C 76 73 76 72 72 67 C 68 63 69 64 68 45 C 68 27 67 25 64 19 C 59 13 57 12 49 9 C 45 7 36 7 31 7 M 54 40 C 58 44 57 58 51 63 C 48 66 39 69 33 68 C 24 67 21 57 27 49 C 32 42 49 36 54 40 z" fill="black" /><!-- width=87 height=92 -->
<path id="gl1562" d="M 30 12 C 22 13 17 17 13 23 C 12 27 12 27 12 33 C 12 36 12 37 12 40 C 13 41 13 42 15 43 C 18 48 24 51 31 52 C 45 54 51 60 48 67 C 45 72 40 73 33 73 C 28 73 25 71 22 67 C 16 61 12 61 9 65 C 6 69 9 73 16 78 C 20 81 21 81 28 82 C 36 84 35 84 45 82 C 63 76 67 52 52 45 C 49 43 39 40 31 38 C 25 37 24 35 24 30 C 24 26 25 24 30 22 C 35 21 41 22 46 25 C 50 30 52 30 54 30 C 58 29 60 27 60 24 C 60 16 45 10 30 12 z" fill="black" /><!-- width=72 height=96 -->
<path id="gl1563" d="M 26 7 C 19 9 18 13 21 18 C 25 24 25 21 25 58 C 25 92 25 97 28 102 C 36 119 64 121 79 105 C 93 92 92 64 79 51 C 70 43 60 42 46 48 C 38 51 38 51 39 29 C 39 11 39 10 36 7 C 34 6 30 6 26 7 M 61 56 C 66 57 72 65 73 73 C 77 90 69 104 55 105 C 49 106 42 101 40 96 C 38 88 38 69 40 64 C 43 58 53 54 61 56 z" fill="black" /><!-- width=100 height=135 -->
<path id="gl5392" d="M 51 9 C 39 10 37 12 30 17 C 28 18 27 19 27 20 C 23 22 19 30 17 35 C 13 45 14 57 18 61 C 18 63 19 64 20 66 C 21 69 22 70 27 73 C 36 79 43 81 51 81 C 57 81 57 81 60 79 C 61 78 64 77 66 76 C 67 76 70 75 70 75 C 72 74 73 73 75 72 C 77 72 81 67 81 65 C 81 63 78 59 75 59 C 75 59 73 60 72 60 C 70 61 68 63 68 63 C 67 63 66 63 65 64 C 60 69 51 71 45 69 C 39 67 31 61 31 60 C 31 55 34 52 40 52 C 49 52 54 51 58 50 C 74 43 79 37 78 28 C 77 15 66 8 51 9 M 60 21 C 64 24 65 31 61 35 C 58 39 52 42 47 43 C 43 43 37 45 37 46 C 36 48 33 48 31 46 C 24 40 37 21 49 19 C 57 19 58 19 60 21 z" fill="black" /><!-- width=89 height=89 -->
<path id="gl1557" d="M 33 15 C 21 18 12 27 9 39 C 7 47 9 60 12 66 C 18 76 31 82 43 81 C 54 78 61 82 61 90 C 61 97 55 101 43 102 C 32 102 25 100 23 95 C 21 91 18 89 16 90 C 9 92 8 105 15 109 C 30 116 60 114 70 104 C 78 97 78 84 69 78 C 64 74 63 72 68 65 C 74 55 75 47 70 36 C 68 28 68 28 73 25 C 76 24 77 21 76 19 C 76 16 73 16 63 15 C 57 15 49 15 45 15 C 39 15 36 15 33 15 M 46 25 C 55 28 61 40 59 52 C 57 66 48 73 35 69 C 27 67 21 56 22 46 C 24 30 34 22 46 25 z" fill="black" /><!-- width=89 height=125 -->
<path id="gl1547" d="M 15 8 C 11 10 10 13 13 19 C 14 21 15 22 16 23 C 16 28 16 34 16 40 C 16 62 18 66 22 71 C 30 79 43 81 55 74 C 59 71 61 71 66 74 C 70 77 76 78 79 76 C 80 75 81 75 81 75 C 81 75 81 74 81 73 C 82 71 82 70 79 67 C 75 63 75 63 75 37 C 75 13 75 11 72 9 C 71 7 70 7 67 7 C 58 7 55 11 60 19 C 60 21 61 22 61 23 C 61 28 61 33 61 39 C 62 59 61 60 53 64 C 43 69 35 69 31 62 C 31 61 30 60 30 59 C 30 51 30 43 29 35 C 29 9 29 9 25 7 C 23 7 18 7 15 8 z" fill="black" /><!-- width=94 height=90 -->
<path id="gl1545" d="M 48 15 C 45 15 43 17 39 19 C 35 22 34 22 30 19 C 27 16 27 15 25 15 C 16 15 13 24 18 29 C 21 33 22 33 22 51 C 22 70 21 70 18 75 C 12 82 15 85 29 84 C 42 84 43 82 37 73 C 36 72 36 72 35 70 C 35 65 35 59 35 54 C 35 37 35 36 36 34 C 41 25 60 22 66 30 C 68 33 69 36 69 53 C 69 70 69 70 65 75 C 63 79 63 81 65 83 C 67 85 82 85 85 83 C 88 81 88 78 85 75 C 82 71 82 70 82 52 C 82 30 81 26 75 20 C 69 15 58 13 48 15 z" fill="black" /><!-- width=100 height=97 -->
<path id="gl1536" d="M 21 7 C 15 9 13 14 16 19 C 19 25 28 25 32 19 C 36 12 28 4 21 7 M 21 34 C 12 37 9 41 15 46 C 20 51 20 51 19 69 C 19 87 19 89 16 91 C 13 95 12 98 15 100 C 16 102 16 102 25 102 C 35 102 37 102 38 99 C 39 97 39 96 36 93 C 33 89 33 90 33 67 C 33 34 32 31 21 34 z" fill="black" /><!-- width=51 height=120 -->
<path id="gl1545" d="M 48 15 C 45 15 43 17 39 19 C 35 22 34 22 30 19 C 27 16 27 15 25 15 C 16 15 13 24 18 29 C 21 33 22 33 22 51 C 22 70 21 70 18 75 C 12 82 15 85 29 84 C 42 84 43 82 37 73 C 36 72 36 72 35 70 C 35 65 35 59 35 54 C 35 37 35 36 36 34 C 41 25 60 22 66 30 C 68 33 69 36 69 53 C 69 70 69 70 65 75 C 63 79 63 81 65 83 C 67 85 82 85 85 83 C 88 81 88 78 85 75 C 82 71 82 70 82 52 C 82 30 81 26 75 20 C 69 15 58 13 48 15 z" fill="black" /><!-- width=100 height=97 -->
<path id="gl1308" d="M 31 7 C 30 8 29 10 28 17 C 27 27 26 30 21 31 C 13 33 13 39 20 40 C 26 42 25 40 25 69 C 25 102 24 100 40 100 C 51 101 52 101 54 99 C 58 95 55 91 49 90 C 38 89 39 91 38 64 C 38 40 37 41 46 40 C 54 40 56 39 55 36 C 55 32 53 31 47 31 C 39 31 38 30 39 20 C 40 10 39 7 34 6 C 34 6 33 6 31 7 z" fill="black" /><!-- width=68 height=113 -->
<path id="gl1541" d="M 33 7 C 27 7 22 11 24 15 C 24 16 25 18 26 20 C 29 25 30 31 29 68 C 28 102 29 100 25 105 C 19 111 22 115 34 115 C 42 115 45 115 47 112 C 49 111 49 109 45 104 C 45 103 43 102 43 100 C 43 95 43 89 43 84 C 42 73 43 66 43 64 C 45 57 60 53 68 57 C 74 60 75 63 75 78 C 76 93 75 100 73 105 C 67 112 70 115 85 115 C 95 114 97 111 93 105 C 89 100 89 100 89 85 C 90 70 89 64 87 59 C 82 46 67 40 51 47 C 42 51 42 49 42 28 C 43 7 43 5 33 7 z" fill="black" /><!-- width=106 height=137 -->
<path id="gl5392" d="M 51 9 C 39 10 37 12 30 17 C 28 18 27 19 27 20 C 23 22 19 30 17 35 C 13 45 14 57 18 61 C 18 63 19 64 20 66 C 21 69 22 70 27 73 C 36 79 43 81 51 81 C 57 81 57 81 60 79 C 61 78 64 77 66 76 C 67 76 70 75 70 75 C 72 74 73 73 75 72 C 77 72 81 67 81 65 C 81 63 78 59 75 59 C 75 59 73 60 72 60 C 70 61 68 63 68 63 C 67 63 66 63 65 64 C 60 69 51 71 45 69 C 39 67 31 61 31 60 C 31 55 34 52 40 52 C 49 52 54 51 58 50 C 74 43 79 37 78 28 C 77 15 66 8 51 9 M 60 21 C 64 24 65 31 61 35 C 58 39 52 42 47 43 C 43 43 37 45 37 46 C 36 48 33 48 31 46 C 24 40 37 21 49 19 C 57 19 58 19 60 21 z" fill="black" /><!-- width=89 height=89 -->
<path id="gl5393" d="M 4 9 C 4 14 9 67 9 72 C 19 81 24 67 24 43 C 19 19 19 19 28 14 C 48 9 52 14 48 43 C 48 72 48 72 62 72 C 67 72 67 57 67 43 C 62 19 62 19 72 14 C 91 9 96 14 91 43 C 91 72 91 72 100 72 C 110 72 110 72 110 43 C 105 4 91 -5 72 9 C 67 9 62 14 57 9 C 52 4 9 0 4 9 z" fill="black" /><!-- width=124 height=81 -->
<path id="gl1536" d="M 21 7 C 15 9 13 14 16 19 C 19 25 28 25 32 19 C 36 12 28 4 21 7 M 21 34 C 12 37 9 41 15 46 C 20 51 20 51 19 69 C 19 87 19 89 16 91 C 13 95 12 98 15 100 C 16 102 16 102 25 102 C 35 102 37 102 38 99 C 39 97 39 96 36 93 C 33 89 33 90 33 67 C 33 34 32 31 21 34 z" fill="black" /><!-- width=51 height=120 -->
<path id="gl1543" d="M 59 7 C 53 9 51 13 55 19 C 57 22 58 26 58 35 C 58 46 57 47 49 45 C 28 39 7 55 7 81 C 7 97 14 107 26 113 C 35 117 42 117 50 113 C 55 111 58 111 63 112 C 67 114 72 114 75 112 C 78 111 78 108 74 103 C 73 102 72 100 72 99 C 72 84 72 70 72 55 C 72 4 72 10 70 7 C 67 6 64 6 59 7 M 50 55 C 58 57 58 58 58 79 C 58 98 57 100 49 103 C 33 108 20 96 22 78 C 24 60 35 51 50 55 z" fill="black" /><!-- width=94 height=140 -->
<path id="gl1299" d="M 18 13 C 13 15 12 18 15 21 C 17 24 18 24 35 24 C 51 24 51 24 54 21 C 57 18 56 16 52 14 C 49 13 22 12 18 13 z" fill="black" /><!-- width=69 height=37 -->
<path id="gl5394" d="M 19 9 C 0 19 0 19 14 19 C 28 24 33 105 14 105 C 0 105 14 110 33 110 C 57 110 67 105 48 96 C 43 91 38 91 43 48 C 43 0 43 0 19 9 z" fill="black" /><!-- width=67 height=120 -->
<path id="gl5395" d="M 19 19 C 0 43 9 76 43 72 C 57 72 62 72 62 72 C 62 81 48 96 28 105 C 19 110 14 110 24 115 C 62 129 100 48 67 19 C 52 4 28 4 19 19 M 57 24 C 67 33 67 57 57 62 C 33 72 14 48 28 28 C 38 14 43 14 57 24 z" fill="black" /><!-- width=91 height=124 -->
<path id="gl2052" d="M 41 10 C 34 11 27 16 21 24 C 19 25 18 28 18 32 C 16 39 16 41 18 48 C 20 52 20 53 27 60 C 31 63 31 66 25 69 C 10 78 6 97 18 109 C 28 120 55 123 69 114 C 90 101 91 78 72 65 C 67 62 67 62 67 60 C 67 57 67 57 69 55 C 70 55 72 52 74 51 C 81 45 82 42 82 34 C 82 25 79 19 69 14 C 61 10 52 9 41 10 M 58 21 C 70 25 73 39 63 48 C 58 53 56 54 51 54 C 46 54 46 54 39 50 C 30 45 27 37 32 30 C 37 22 48 18 58 21 M 50 71 C 58 73 67 80 70 84 C 72 87 72 94 70 97 C 66 105 52 109 40 108 C 23 105 19 91 32 76 C 37 70 43 69 50 71 z" fill="black" /><!-- width=99 height=130 -->
<path id="gl1811" d="M 39 10 C 34 12 28 15 24 20 C 19 26 18 28 15 37 C 12 47 10 53 10 66 C 10 102 28 123 54 118 C 60 117 63 115 67 110 C 88 88 87 37 66 18 C 58 11 48 8 39 10 M 50 21 C 57 24 63 34 66 48 C 69 69 66 89 60 99 C 49 115 36 111 29 91 C 24 75 24 52 31 34 C 34 24 43 19 50 21 z" fill="black" /><!-- width=93 height=129 -->
<path id="gl1796" d="M 30 11 C 24 13 16 19 15 25 C 10 36 16 47 28 49 C 37 52 45 54 46 55 C 52 60 51 69 43 72 C 36 74 30 72 23 66 C 19 62 18 61 15 62 C 8 63 9 72 16 76 C 28 84 39 84 50 79 C 59 75 63 69 63 61 C 63 49 57 43 40 39 C 29 36 27 35 25 30 C 25 26 28 21 35 21 C 39 20 42 21 48 25 C 55 31 57 31 60 27 C 63 21 59 16 51 12 C 48 11 34 10 30 11 z" fill="black" /><!-- width=76 height=94 -->
<path id="gl1563" d="M 26 7 C 19 9 18 13 21 18 C 25 24 25 21 25 58 C 25 92 25 97 28 102 C 36 119 64 121 79 105 C 93 92 92 64 79 51 C 70 43 60 42 46 48 C 38 51 38 51 39 29 C 39 11 39 10 36 7 C 34 6 30 6 26 7 M 61 56 C 66 57 72 65 73 73 C 77 90 69 104 55 105 C 49 106 42 101 40 96 C 38 88 38 69 40 64 C 43 58 53 54 61 56 z" fill="black" /><!-- width=100 height=135 -->
<path id="gl2071" d="M 18 22 C 13 24 12 28 15 33 C 17 36 18 37 21 55 C 21 58 22 62 24 64 C 25 67 26 70 27 72 C 28 77 35 84 40 86 C 49 89 49 93 41 101 C 38 104 37 105 33 106 C 28 108 28 108 22 106 C 19 105 15 113 17 117 C 18 120 21 121 28 120 C 34 120 36 119 42 114 C 54 103 58 99 60 93 C 61 91 63 88 64 85 C 65 84 66 81 67 79 C 67 77 69 75 70 72 C 71 70 72 67 72 66 C 73 64 74 61 75 60 C 76 57 77 53 78 43 C 78 39 79 36 80 34 C 82 29 81 26 78 23 C 76 22 67 21 64 22 C 61 24 60 27 64 32 C 66 35 66 35 66 41 C 66 48 65 49 62 62 C 59 74 55 78 50 78 C 40 76 28 46 34 33 C 37 25 36 22 26 22 C 22 22 19 22 18 22 z" fill="black" /><!-- width=91 height=130 -->
<path id="gl1296" d="M 33 12 C 32 12 27 12 23 12 C 14 12 12 12 12 16 C 12 18 12 19 16 22 C 19 25 19 25 19 64 C 19 106 19 103 15 106 C 11 110 10 113 14 115 C 16 117 34 117 38 116 C 42 115 42 111 38 106 C 36 105 34 103 34 102 C 34 99 34 28 34 27 C 34 25 36 24 38 22 C 42 19 42 17 42 15 C 40 12 37 10 33 12 z" fill="black" /><!-- width=54 height=129 -->
<path id="gl1305" d="M 58 22 C 57 23 52 26 49 30 C 45 34 43 34 41 29 C 39 25 37 23 34 23 C 29 23 24 28 24 32 C 24 34 24 35 27 38 C 32 43 31 42 31 61 C 31 78 31 79 28 84 C 25 87 25 88 28 91 C 30 92 30 92 38 92 C 41 92 44 92 47 92 C 48 92 48 91 49 91 C 51 88 51 87 48 84 C 45 78 45 78 45 65 C 45 52 46 49 49 43 C 53 37 56 36 63 38 C 70 39 74 33 70 27 C 69 23 64 21 58 22 z" fill="black" /><!-- width=84 height=105 -->
<path id="gl1544" d="M 46 13 C 35 15 24 25 19 36 C 15 46 16 61 21 68 C 27 78 39 84 51 84 C 64 84 82 75 82 68 C 82 61 76 60 69 66 C 61 72 54 74 47 72 C 37 70 30 63 34 58 C 35 57 37 57 48 55 C 75 52 88 33 73 19 C 67 13 57 10 46 13 M 60 24 C 66 27 67 34 61 40 C 57 43 37 49 33 48 C 27 46 34 30 44 25 C 49 22 56 22 60 24 z" fill="black" /><!-- width=93 height=96 -->
<path id="gl1545" d="M 48 15 C 45 15 43 17 39 19 C 35 22 34 22 30 19 C 27 16 27 15 25 15 C 16 15 13 24 18 29 C 21 33 22 33 22 51 C 22 70 21 70 18 75 C 12 82 15 85 29 84 C 42 84 43 82 37 73 C 36 72 36 72 35 70 C 35 65 35 59 35 54 C 35 37 35 36 36 34 C 41 25 60 22 66 30 C 68 33 69 36 69 53 C 69 70 69 70 65 75 C 63 79 63 81 65 83 C 67 85 82 85 85 83 C 88 81 88 78 85 75 C 82 71 82 70 82 52 C 82 30 81 26 75 20 C 69 15 58 13 48 15 z" fill="black" /><!-- width=100 height=97 -->
<path id="gl1544" d="M 46 13 C 35 15 24 25 19 36 C 15 46 16 61 21 68 C 27 78 39 84 51 84 C 64 84 82 75 82 68 C 82 61 76 60 69 66 C 61 72 54 74 47 72 C 37 70 30 63 34 58 C 35 57 37 57 48 55 C 75 52 88 33 73 19 C 67 13 57 10 46 13 M 60 24 C 66 27 67 34 61 40 C 57 43 37 49 33 48 C 27 46 34 30 44 25 C 49 22 56 22 60 24 z" fill="black" /><!-- width=93 height=96 -->
<path id="gl1287" d="M 121 17 C 118 19 118 22 124 28 C 127 31 127 37 125 43 C 123 47 123 50 121 58 C 121 63 121 66 120 68 C 119 70 118 73 118 76 C 116 85 112 97 110 97 C 108 97 106 96 105 94 C 103 92 99 81 98 76 C 97 74 96 71 96 69 C 92 60 88 41 88 37 C 88 34 89 29 91 26 C 94 23 94 20 92 18 C 90 16 88 16 81 16 C 73 16 70 17 69 19 C 68 19 67 20 67 20 C 67 22 68 24 69 25 C 72 31 72 34 72 39 C 71 46 69 60 67 62 C 67 63 66 66 65 68 C 64 70 63 74 62 77 C 61 80 60 84 60 85 C 59 88 57 92 55 95 C 53 97 53 97 52 96 C 49 94 47 90 46 86 C 45 81 44 76 43 72 C 42 70 41 66 40 63 C 40 60 39 55 38 52 C 34 39 34 31 38 27 C 42 24 42 19 38 18 C 36 16 19 15 16 17 C 12 19 11 22 15 27 C 16 29 18 31 18 34 C 19 36 19 39 20 41 C 21 42 21 46 22 49 C 22 55 22 57 24 60 C 25 63 26 67 27 70 C 27 75 28 78 30 80 C 30 82 31 84 31 85 C 31 87 36 103 39 108 C 39 109 40 111 41 113 C 42 120 48 125 53 124 C 55 123 59 118 60 115 C 61 114 62 111 63 109 C 64 107 65 103 66 100 C 67 96 69 90 72 82 C 72 81 73 78 73 76 C 75 70 76 68 78 69 C 81 69 82 70 84 75 C 85 83 93 100 97 111 C 99 114 99 117 99 117 C 99 118 103 123 105 123 C 110 126 115 122 118 114 C 118 113 119 110 120 108 C 121 105 123 101 124 99 C 124 96 126 93 126 90 C 129 82 132 68 133 64 C 133 62 135 58 135 57 C 136 52 137 48 138 41 C 138 37 139 35 141 31 C 142 28 144 25 144 24 C 144 24 144 22 145 21 C 145 20 144 18 141 17 C 138 15 124 15 121 17 z" fill="black" /><!-- width=154 height=136 -->
<path id="gl1536" d="M 21 7 C 15 9 13 14 16 19 C 19 25 28 25 32 19 C 36 12 28 4 21 7 M 21 34 C 12 37 9 41 15 46 C 20 51 20 51 19 69 C 19 87 19 89 16 91 C 13 95 12 98 15 100 C 16 102 16 102 25 102 C 35 102 37 102 38 99 C 39 97 39 96 36 93 C 33 89 33 90 33 67 C 33 34 32 31 21 34 z" fill="black" /><!-- width=51 height=120 -->
<path id="gl1537" d="M 23 13 C 15 15 12 19 16 24 C 19 30 19 26 19 65 C 20 105 20 105 17 109 C 14 114 13 115 14 117 C 15 120 17 120 26 120 C 35 121 37 120 39 117 C 39 115 39 114 37 111 C 33 106 33 108 33 60 C 33 19 33 16 32 15 C 30 12 28 12 23 13 z" fill="black" /><!-- width=52 height=137 -->
<path id="gl1537" d="M 23 13 C 15 15 12 19 16 24 C 19 30 19 26 19 65 C 20 105 20 105 17 109 C 14 114 13 115 14 117 C 15 120 17 120 26 120 C 35 121 37 120 39 117 C 39 115 39 114 37 111 C 33 106 33 108 33 60 C 33 19 33 16 32 15 C 30 12 28 12 23 13 z" fill="black" /><!-- width=52 height=137 -->
<path id="gl1536" d="M 21 7 C 15 9 13 14 16 19 C 19 25 28 25 32 19 C 36 12 28 4 21 7 M 21 34 C 12 37 9 41 15 46 C 20 51 20 51 19 69 C 19 87 19 89 16 91 C 13 95 12 98 15 100 C 16 102 16 102 25 102 C 35 102 37 102 38 99 C 39 97 39 96 36 93 C 33 89 33 90 33 67 C 33 34 32 31 21 34 z" fill="black" /><!-- width=51 height=120 -->
<path id="gl1796" d="M 30 11 C 24 13 16 19 15 25 C 10 36 16 47 28 49 C 37 52 45 54 46 55 C 52 60 51 69 43 72 C 36 74 30 72 23 66 C 19 62 18 61 15 62 C 8 63 9 72 16 76 C 28 84 39 84 50 79 C 59 75 63 69 63 61 C 63 49 57 43 40 39 C 29 36 27 35 25 30 C 25 26 28 21 35 21 C 39 20 42 21 48 25 C 55 31 57 31 60 27 C 63 21 59 16 51 12 C 48 11 34 10 30 11 z" fill="black" /><!-- width=76 height=94 -->
<path id="gl5396" d="M 13 15 C 9 18 9 18 8 20 C 7 23 8 24 11 25 C 16 27 19 31 18 35 C 17 36 17 39 17 40 C 17 44 18 45 22 44 C 25 44 25 43 25 39 C 25 37 26 34 27 33 C 29 23 27 18 20 15 C 17 13 18 13 13 15 z" fill="black" /><!-- width=39 height=52 -->
<path id="gl1283" d="M 66 27 C 60 27 52 27 48 27 C 39 26 37 27 35 30 C 34 33 34 33 37 37 C 42 41 42 40 41 81 C 41 93 41 105 41 116 C 40 117 40 118 40 118 C 39 120 38 121 37 121 C 37 121 34 126 34 127 C 34 131 37 132 49 132 C 62 132 63 132 63 127 C 64 125 63 124 61 121 C 57 117 57 117 57 100 C 57 96 57 91 57 86 C 57 85 58 85 58 84 C 60 84 60 83 61 82 C 64 82 69 83 73 83 C 84 83 85 84 90 85 C 95 87 96 87 97 86 C 100 85 102 82 102 78 C 102 69 98 67 88 70 C 85 71 81 72 74 72 C 56 73 57 73 57 56 C 57 39 57 38 67 37 C 75 37 89 38 93 39 C 94 39 96 41 98 42 C 103 46 106 47 109 45 C 111 43 111 43 111 39 C 111 33 110 31 106 28 C 105 27 104 27 103 26 C 99 26 94 26 90 26 C 82 26 71 26 66 27 z" fill="black" /><!-- width=121 height=142 -->
<path id="gl1305" d="M 58 22 C 57 23 52 26 49 30 C 45 34 43 34 41 29 C 39 25 37 23 34 23 C 29 23 24 28 24 32 C 24 34 24 35 27 38 C 32 43 31 42 31 61 C 31 78 31 79 28 84 C 25 87 25 88 28 91 C 30 92 30 92 38 92 C 41 92 44 92 47 92 C 48 92 48 91 49 91 C 51 88 51 87 48 84 C 45 78 45 78 45 65 C 45 52 46 49 49 43 C 53 37 56 36 63 38 C 70 39 74 33 70 27 C 69 23 64 21 58 22 z" fill="black" /><!-- width=84 height=105 -->
<path id="gl5397" d="M 27 6 C 18 7 13 11 12 15 C 11 22 21 24 27 18 C 34 12 50 16 51 24 C 52 29 49 31 41 30 C 34 30 30 31 24 34 C 18 37 13 40 13 42 C 13 42 12 44 11 47 C 8 53 8 57 11 64 C 15 72 21 75 34 75 C 39 76 39 75 42 73 C 48 70 52 69 59 72 C 64 75 68 75 71 72 C 72 72 73 70 73 70 C 73 69 72 65 70 63 C 67 60 66 58 67 49 C 67 37 66 23 64 19 C 63 15 58 10 55 9 C 54 9 52 8 50 7 C 46 6 35 5 27 6 M 51 37 C 55 40 55 43 54 50 C 51 61 48 64 37 64 C 28 65 24 63 24 55 C 24 47 27 42 35 40 C 37 39 41 37 42 37 C 46 34 48 34 51 37 z" fill="black" /><!-- width=85 height=87 -->
<path id="gl1547" d="M 15 8 C 11 10 10 13 13 19 C 14 21 15 22 16 23 C 16 28 16 34 16 40 C 16 62 18 66 22 71 C 30 79 43 81 55 74 C 59 71 61 71 66 74 C 70 77 76 78 79 76 C 80 75 81 75 81 75 C 81 75 81 74 81 73 C 82 71 82 70 79 67 C 75 63 75 63 75 37 C 75 13 75 11 72 9 C 71 7 70 7 67 7 C 58 7 55 11 60 19 C 60 21 61 22 61 23 C 61 28 61 33 61 39 C 62 59 61 60 53 64 C 43 69 35 69 31 62 C 31 61 30 60 30 59 C 30 51 30 43 29 35 C 29 9 29 9 25 7 C 23 7 18 7 15 8 z" fill="black" /><!-- width=94 height=90 -->
<path id="gl5398" d="M 4 9 C 4 14 4 19 9 24 C 14 33 14 100 4 105 C 0 110 0 110 9 110 C 14 110 19 115 19 115 C 24 115 24 110 24 100 C 28 81 38 81 48 96 C 52 115 62 120 67 115 C 67 110 67 100 57 91 C 52 86 48 81 43 72 C 48 67 52 62 57 57 C 62 52 67 48 72 48 C 67 48 62 48 57 48 C 48 48 43 48 43 52 C 43 57 33 76 28 72 C 28 72 24 57 24 38 C 24 9 24 9 14 9 C 9 9 4 9 4 9 z" fill="black" /><!-- width=76 height=124 -->
<path id="gl1544" d="M 46 13 C 35 15 24 25 19 36 C 15 46 16 61 21 68 C 27 78 39 84 51 84 C 64 84 82 75 82 68 C 82 61 76 60 69 66 C 61 72 54 74 47 72 C 37 70 30 63 34 58 C 35 57 37 57 48 55 C 75 52 88 33 73 19 C 67 13 57 10 46 13 M 60 24 C 66 27 67 34 61 40 C 57 43 37 49 33 48 C 27 46 34 30 44 25 C 49 22 56 22 60 24 z" fill="black" /><!-- width=93 height=96 -->
<path id="gl1288" d="M 84 12 C 83 13 83 15 83 16 C 83 19 83 19 87 22 C 89 24 89 26 90 39 C 90 55 90 54 72 54 C 62 53 56 53 48 54 C 30 54 30 55 31 38 C 31 25 31 24 34 22 C 36 20 39 16 39 15 C 39 15 37 13 37 13 C 36 12 35 12 24 12 C 14 12 12 12 10 12 C 7 14 7 16 11 20 C 16 25 16 23 16 63 C 16 102 16 102 12 105 C 9 109 8 111 9 112 C 10 115 13 115 24 115 C 27 115 31 115 34 115 C 35 115 36 114 36 114 C 39 111 38 110 35 106 C 33 105 32 103 32 102 C 31 99 31 68 32 67 C 33 64 35 64 52 64 C 60 64 71 64 76 64 C 90 63 90 61 90 84 C 89 101 89 103 87 105 C 83 106 82 112 85 115 C 87 117 105 116 109 114 C 113 112 113 111 109 107 C 105 101 105 98 104 59 C 104 23 104 25 109 20 C 113 17 114 15 112 13 C 111 12 109 11 97 11 C 85 11 85 11 84 12 z" fill="black" /><!-- width=121 height=126 -->
<path id="gl5397" d="M 27 6 C 18 7 13 11 12 15 C 11 22 21 24 27 18 C 34 12 50 16 51 24 C 52 29 49 31 41 30 C 34 30 30 31 24 34 C 18 37 13 40 13 42 C 13 42 12 44 11 47 C 8 53 8 57 11 64 C 15 72 21 75 34 75 C 39 76 39 75 42 73 C 48 70 52 69 59 72 C 64 75 68 75 71 72 C 72 72 73 70 73 70 C 73 69 72 65 70 63 C 67 60 66 58 67 49 C 67 37 66 23 64 19 C 63 15 58 10 55 9 C 54 9 52 8 50 7 C 46 6 35 5 27 6 M 51 37 C 55 40 55 43 54 50 C 51 61 48 64 37 64 C 28 65 24 63 24 55 C 24 47 27 42 35 40 C 37 39 41 37 42 37 C 46 34 48 34 51 37 z" fill="black" /><!-- width=85 height=87 -->
<path id="gl5399" d="M 26 7 C 24 8 19 9 17 10 C 12 13 12 13 11 16 C 10 19 10 20 12 21 C 16 23 21 22 27 19 C 30 17 30 16 34 16 C 44 16 49 19 51 26 C 52 31 51 31 42 31 C 33 30 30 31 24 35 C 16 39 15 41 12 45 C 12 46 10 49 9 50 C 8 51 7 52 6 52 C 7 55 7 57 7 58 C 9 66 9 67 15 72 C 19 76 24 78 32 79 C 40 79 42 79 45 76 C 48 72 51 72 58 75 C 65 79 67 79 69 78 C 72 75 72 73 69 68 C 66 61 64 53 66 45 C 67 40 66 30 64 22 C 63 19 58 14 53 12 C 51 11 50 10 50 10 C 50 9 46 8 39 7 C 31 6 32 6 26 7 M 51 40 C 54 41 55 43 54 48 C 54 51 54 54 54 55 C 54 61 48 66 39 68 C 30 70 26 68 22 60 C 18 53 30 40 40 39 C 45 39 49 39 51 40 z" fill="black" /><!-- width=83 height=91 -->
<path id="gl1796" d="M 30 11 C 24 13 16 19 15 25 C 10 36 16 47 28 49 C 37 52 45 54 46 55 C 52 60 51 69 43 72 C 36 74 30 72 23 66 C 19 62 18 61 15 62 C 8 63 9 72 16 76 C 28 84 39 84 50 79 C 59 75 63 69 63 61 C 63 49 57 43 40 39 C 29 36 27 35 25 30 C 25 26 28 21 35 21 C 39 20 42 21 48 25 C 55 31 57 31 60 27 C 63 21 59 16 51 12 C 48 11 34 10 30 11 z" fill="black" /><!-- width=76 height=94 -->
<path id="gl5392" d="M 51 9 C 39 10 37 12 30 17 C 28 18 27 19 27 20 C 23 22 19 30 17 35 C 13 45 14 57 18 61 C 18 63 19 64 20 66 C 21 69 22 70 27 73 C 36 79 43 81 51 81 C 57 81 57 81 60 79 C 61 78 64 77 66 76 C 67 76 70 75 70 75 C 72 74 73 73 75 72 C 77 72 81 67 81 65 C 81 63 78 59 75 59 C 75 59 73 60 72 60 C 70 61 68 63 68 63 C 67 63 66 63 65 64 C 60 69 51 71 45 69 C 39 67 31 61 31 60 C 31 55 34 52 40 52 C 49 52 54 51 58 50 C 74 43 79 37 78 28 C 77 15 66 8 51 9 M 60 21 C 64 24 65 31 61 35 C 58 39 52 42 47 43 C 43 43 37 45 37 46 C 36 48 33 48 31 46 C 24 40 37 21 49 19 C 57 19 58 19 60 21 z" fill="black" /><!-- width=89 height=89 -->
<path id="gl2066" d="M 45 16 C 43 17 40 19 39 20 C 34 23 32 23 28 19 C 24 15 20 15 16 20 C 12 24 12 26 16 31 C 20 34 20 35 20 55 C 20 72 20 73 16 79 C 13 83 16 85 25 87 C 33 87 36 86 38 83 C 38 82 39 82 39 81 C 38 79 37 78 36 76 C 36 75 35 74 34 72 C 34 67 34 63 33 58 C 33 42 33 39 35 35 C 39 27 52 24 59 30 C 63 33 63 36 63 55 C 63 60 63 66 63 71 C 63 73 61 74 61 76 C 57 82 58 83 63 85 C 69 88 79 87 82 82 C 83 81 83 81 81 79 C 77 73 77 73 77 56 C 77 35 78 33 85 29 C 95 25 103 27 106 36 C 107 39 107 41 107 54 C 107 71 107 71 103 77 C 101 82 101 82 104 85 C 106 87 118 87 121 85 C 125 83 126 82 123 76 C 121 70 120 69 120 54 C 120 37 120 33 117 27 C 112 18 102 14 90 16 C 85 18 84 18 80 21 C 75 25 74 25 67 20 C 61 16 51 14 45 16 z" fill="black" /><!-- width=136 height=99 -->
<path id="gl1540" d="M 31 7 C 18 10 14 13 14 18 C 13 24 19 25 27 21 C 34 17 38 16 43 18 C 50 20 55 26 52 29 C 51 31 51 31 44 31 C 28 32 18 37 12 48 C 10 54 10 63 12 67 C 19 79 37 83 49 75 C 54 72 55 72 60 75 C 66 79 72 79 75 75 C 76 73 76 72 72 67 C 68 63 69 64 68 45 C 68 27 67 25 64 19 C 59 13 57 12 49 9 C 45 7 36 7 31 7 M 54 40 C 58 44 57 58 51 63 C 48 66 39 69 33 68 C 24 67 21 57 27 49 C 32 42 49 36 54 40 z" fill="black" /><!-- width=87 height=92 -->
<path id="gl1545" d="M 48 15 C 45 15 43 17 39 19 C 35 22 34 22 30 19 C 27 16 27 15 25 15 C 16 15 13 24 18 29 C 21 33 22 33 22 51 C 22 70 21 70 18 75 C 12 82 15 85 29 84 C 42 84 43 82 37 73 C 36 72 36 72 35 70 C 35 65 35 59 35 54 C 35 37 35 36 36 34 C 41 25 60 22 66 30 C 68 33 69 36 69 53 C 69 70 69 70 65 75 C 63 79 63 81 65 83 C 67 85 82 85 85 83 C 88 81 88 78 85 75 C 82 71 82 70 82 52 C 82 30 81 26 75 20 C 69 15 58 13 48 15 z" fill="black" /><!-- width=100 height=97 -->
<path id="gl1545" d="M 48 15 C 45 15 43 17 39 19 C 35 22 34 22 30 19 C 27 16 27 15 25 15 C 16 15 13 24 18 29 C 21 33 22 33 22 51 C 22 70 21 70 18 75 C 12 82 15 85 29 84 C 42 84 43 82 37 73 C 36 72 36 72 35 70 C 35 65 35 59 35 54 C 35 37 35 36 36 34 C 41 25 60 22 66 30 C 68 33 69 36 69 53 C 69 70 69 70 65 75 C 63 79 63 81 65 83 C 67 85 82 85 85 83 C 88 81 88 78 85 75 C 82 71 82 70 82 52 C 82 30 81 26 75 20 C 69 15 58 13 48 15 z" fill="black" /><!-- width=100 height=97 -->
<path id="gl1803" d="M 13 21 C 10 22 8 24 8 29 C 8 34 9 34 14 36 C 19 39 20 40 19 46 C 18 52 19 55 23 54 C 30 52 30 25 23 22 C 21 21 15 20 13 21 z" fill="black" /><!-- width=39 height=68 -->
<path id="gl5400" d="M 45 6 C 41 7 42 12 45 16 C 48 20 48 21 48 52 C 48 85 48 88 45 94 C 44 95 43 97 43 98 C 41 99 40 99 38 100 C 36 100 33 101 31 101 C 29 102 22 99 21 97 C 17 94 18 87 23 84 C 27 82 29 78 27 74 C 25 71 24 70 19 70 C 15 70 15 70 12 73 C 7 77 6 80 6 88 C 6 96 7 101 9 102 C 9 102 11 103 12 105 C 13 106 16 108 17 108 C 19 109 21 110 21 111 C 24 113 30 114 35 112 C 36 112 38 111 39 111 C 52 111 65 98 64 84 C 64 82 64 72 64 62 C 64 51 64 38 64 33 C 64 18 64 19 66 16 C 68 14 70 10 70 9 C 69 7 64 6 57 6 C 52 6 49 6 48 5 C 47 5 46 5 45 6 z" fill="black" /><!-- width=94 height=127 -->
<path id="gl5397" d="M 27 6 C 18 7 13 11 12 15 C 11 22 21 24 27 18 C 34 12 50 16 51 24 C 52 29 49 31 41 30 C 34 30 30 31 24 34 C 18 37 13 40 13 42 C 13 42 12 44 11 47 C 8 53 8 57 11 64 C 15 72 21 75 34 75 C 39 76 39 75 42 73 C 48 70 52 69 59 72 C 64 75 68 75 71 72 C 72 72 73 70 73 70 C 73 69 72 65 70 63 C 67 60 66 58 67 49 C 67 37 66 23 64 19 C 63 15 58 10 55 9 C 54 9 52 8 50 7 C 46 6 35 5 27 6 M 51 37 C 55 40 55 43 54 50 C 51 61 48 64 37 64 C 28 65 24 63 24 55 C 24 47 27 42 35 40 C 37 39 41 37 42 37 C 46 34 48 34 51 37 z" fill="black" /><!-- width=85 height=87 -->
<path id="gl2066" d="M 45 16 C 43 17 40 19 39 20 C 34 23 32 23 28 19 C 24 15 20 15 16 20 C 12 24 12 26 16 31 C 20 34 20 35 20 55 C 20 72 20 73 16 79 C 13 83 16 85 25 87 C 33 87 36 86 38 83 C 38 82 39 82 39 81 C 38 79 37 78 36 76 C 36 75 35 74 34 72 C 34 67 34 63 33 58 C 33 42 33 39 35 35 C 39 27 52 24 59 30 C 63 33 63 36 63 55 C 63 60 63 66 63 71 C 63 73 61 74 61 76 C 57 82 58 83 63 85 C 69 88 79 87 82 82 C 83 81 83 81 81 79 C 77 73 77 73 77 56 C 77 35 78 33 85 29 C 95 25 103 27 106 36 C 107 39 107 41 107 54 C 107 71 107 71 103 77 C 101 82 101 82 104 85 C 106 87 118 87 121 85 C 125 83 126 82 123 76 C 121 70 120 69 120 54 C 120 37 120 33 117 27 C 112 18 102 14 90 16 C 85 18 84 18 80 21 C 75 25 74 25 67 20 C 61 16 51 14 45 16 z" fill="black" /><!-- width=136 height=99 -->
<path id="gl1544" d="M 46 13 C 35 15 24 25 19 36 C 15 46 16 61 21 68 C 27 78 39 84 51 84 C 64 84 82 75 82 68 C 82 61 76 60 69 66 C 61 72 54 74 47 72 C 37 70 30 63 34 58 C 35 57 37 57 48 55 C 75 52 88 33 73 19 C 67 13 57 10 46 13 M 60 24 C 66 27 67 34 61 40 C 57 43 37 49 33 48 C 27 46 34 30 44 25 C 49 22 56 22 60 24 z" fill="black" /><!-- width=93 height=96 -->
<path id="gl1796" d="M 30 11 C 24 13 16 19 15 25 C 10 36 16 47 28 49 C 37 52 45 54 46 55 C 52 60 51 69 43 72 C 36 74 30 72 23 66 C 19 62 18 61 15 62 C 8 63 9 72 16 76 C 28 84 39 84 50 79 C 59 75 63 69 63 61 C 63 49 57 43 40 39 C 29 36 27 35 25 30 C 25 26 28 21 35 21 C 39 20 42 21 48 25 C 55 31 57 31 60 27 C 63 21 59 16 51 12 C 48 11 34 10 30 11 z" fill="black" /><!-- width=76 height=94 -->
<path id="gl1818" d="M 63 5 C 61 5 58 5 54 5 C 49 5 48 6 46 7 C 44 10 44 10 46 13 C 52 18 51 15 51 58 C 51 70 51 84 51 96 C 51 97 49 98 49 99 C 46 102 45 106 46 108 C 48 109 52 110 79 110 C 93 110 107 111 110 111 C 115 111 124 109 124 108 C 124 107 126 106 127 105 C 129 103 129 103 128 99 C 127 93 127 91 124 90 C 121 88 121 88 119 90 C 118 90 117 91 117 91 C 117 92 116 93 115 93 C 115 93 113 93 111 94 C 106 98 105 98 87 99 C 72 99 72 99 70 98 C 68 96 67 94 67 57 C 67 45 67 33 67 21 C 68 20 69 19 69 18 C 70 16 72 14 73 13 C 76 10 76 9 71 6 C 68 4 67 4 63 5 z" fill="black" /><!-- width=140 height=136 -->
<path id="gl1536" d="M 21 7 C 15 9 13 14 16 19 C 19 25 28 25 32 19 C 36 12 28 4 21 7 M 21 34 C 12 37 9 41 15 46 C 20 51 20 51 19 69 C 19 87 19 89 16 91 C 13 95 12 98 15 100 C 16 102 16 102 25 102 C 35 102 37 102 38 99 C 39 97 39 96 36 93 C 33 89 33 90 33 67 C 33 34 32 31 21 34 z" fill="black" /><!-- width=51 height=120 -->
<path id="gl1308" d="M 31 7 C 30 8 29 10 28 17 C 27 27 26 30 21 31 C 13 33 13 39 20 40 C 26 42 25 40 25 69 C 25 102 24 100 40 100 C 51 101 52 101 54 99 C 58 95 55 91 49 90 C 38 89 39 91 38 64 C 38 40 37 41 46 40 C 54 40 56 39 55 36 C 55 32 53 31 47 31 C 39 31 38 30 39 20 C 40 10 39 7 34 6 C 34 6 33 6 31 7 z" fill="black" /><!-- width=68 height=113 -->
<path id="gl1308" d="M 31 7 C 30 8 29 10 28 17 C 27 27 26 30 21 31 C 13 33 13 39 20 40 C 26 42 25 40 25 69 C 25 102 24 100 40 100 C 51 101 52 101 54 99 C 58 95 55 91 49 90 C 38 89 39 91 38 64 C 38 40 37 41 46 40 C 54 40 56 39 55 36 C 55 32 53 31 47 31 C 39 31 38 30 39 20 C 40 10 39 7 34 6 C 34 6 33 6 31 7 z" fill="black" /><!-- width=68 height=113 -->
<path id="gl1539" d="M 43 12 C 41 13 37 14 34 16 C 12 27 6 57 22 73 C 37 88 60 88 75 73 C 100 48 78 7 43 12 M 55 24 C 60 25 64 28 67 32 C 79 50 69 74 49 74 C 30 74 21 53 31 34 C 35 25 46 21 55 24 z" fill="black" /><!-- width=99 height=97 -->
<path id="gl1545" d="M 48 15 C 45 15 43 17 39 19 C 35 22 34 22 30 19 C 27 16 27 15 25 15 C 16 15 13 24 18 29 C 21 33 22 33 22 51 C 22 70 21 70 18 75 C 12 82 15 85 29 84 C 42 84 43 82 37 73 C 36 72 36 72 35 70 C 35 65 35 59 35 54 C 35 37 35 36 36 34 C 41 25 60 22 66 30 C 68 33 69 36 69 53 C 69 70 69 70 65 75 C 63 79 63 81 65 83 C 67 85 82 85 85 83 C 88 81 88 78 85 75 C 82 71 82 70 82 52 C 82 30 81 26 75 20 C 69 15 58 13 48 15 z" fill="black" /><!-- width=100 height=97 -->
<path id="gl1803" d="M 13 21 C 10 22 8 24 8 29 C 8 34 9 34 14 36 C 19 39 20 40 19 46 C 18 52 19 55 23 54 C 30 52 30 25 23 22 C 21 21 15 20 13 21 z" fill="black" /><!-- width=39 height=68 -->
<path id="gl5397" d="M 27 6 C 18 7 13 11 12 15 C 11 22 21 24 27 18 C 34 12 50 16 51 24 C 52 29 49 31 41 30 C 34 30 30 31 24 34 C 18 37 13 40 13 42 C 13 42 12 44 11 47 C 8 53 8 57 11 64 C 15 72 21 75 34 75 C 39 76 39 75 42 73 C 48 70 52 69 59 72 C 64 75 68 75 71 72 C 72 72 73 70 73 70 C 73 69 72 65 70 63 C 67 60 66 58 67 49 C 67 37 66 23 64 19 C 63 15 58 10 55 9 C 54 9 52 8 50 7 C 46 6 35 5 27 6 M 51 37 C 55 40 55 43 54 50 C 51 61 48 64 37 64 C 28 65 24 63 24 55 C 24 47 27 42 35 40 C 37 39 41 37 42 37 C 46 34 48 34 51 37 z" fill="black" /><!-- width=85 height=87 -->
<path id="gl1545" d="M 48 15 C 45 15 43 17 39 19 C 35 22 34 22 30 19 C 27 16 27 15 25 15 C 16 15 13 24 18 29 C 21 33 22 33 22 51 C 22 70 21 70 18 75 C 12 82 15 85 29 84 C 42 84 43 82 37 73 C 36 72 36 72 35 70 C 35 65 35 59 35 54 C 35 37 35 36 36 34 C 41 25 60 22 66 30 C 68 33 69 36 69 53 C 69 70 69 70 65 75 C 63 79 63 81 65 83 C 67 85 82 85 85 83 C 88 81 88 78 85 75 C 82 71 82 70 82 52 C 82 30 81 26 75 20 C 69 15 58 13 48 15 z" fill="black" /><!-- width=100 height=97 -->
<path id="gl1543" d="M 59 7 C 53 9 51 13 55 19 C 57 22 58 26 58 35 C 58 46 57 47 49 45 C 28 39 7 55 7 81 C 7 97 14 107 26 113 C 35 117 42 117 50 113 C 55 111 58 111 63 112 C 67 114 72 114 75 112 C 78 111 78 108 74 103 C 73 102 72 100 72 99 C 72 84 72 70 72 55 C 72 4 72 10 70 7 C 67 6 64 6 59 7 M 50 55 C 58 57 58 58 58 79 C 58 98 57 100 49 103 C 33 108 20 96 22 78 C 24 60 35 51 50 55 z" fill="black" /><!-- width=94 height=140 -->
<path id="gl5400" d="M 45 6 C 41 7 42 12 45 16 C 48 20 48 21 48 52 C 48 85 48 88 45 94 C 44 95 43 97 43 98 C 41 99 40 99 38 100 C 36 100 33 101 31 101 C 29 102 22 99 21 97 C 17 94 18 87 23 84 C 27 82 29 78 27 74 C 25 71 24 70 19 70 C 15 70 15 70 12 73 C 7 77 6 80 6 88 C 6 96 7 101 9 102 C 9 102 11 103 12 105 C 13 106 16 108 17 108 C 19 109 21 110 21 111 C 24 113 30 114 35 112 C 36 112 38 111 39 111 C 52 111 65 98 64 84 C 64 82 64 72 64 62 C 64 51 64 38 64 33 C 64 18 64 19 66 16 C 68 14 70 10 70 9 C 69 7 64 6 57 6 C 52 6 49 6 48 5 C 47 5 46 5 45 6 z" fill="black" /><!-- width=94 height=127 -->
<path id="gl1539" d="M 43 12 C 41 13 37 14 34 16 C 12 27 6 57 22 73 C 37 88 60 88 75 73 C 100 48 78 7 43 12 M 55 24 C 60 25 64 28 67 32 C 79 50 69 74 49 74 C 30 74 21 53 31 34 C 35 25 46 21 55 24 z" fill="black" /><!-- width=99 height=97 -->
<path id="gl1541" d="M 33 7 C 27 7 22 11 24 15 C 24 16 25 18 26 20 C 29 25 30 31 29 68 C 28 102 29 100 25 105 C 19 111 22 115 34 115 C 42 115 45 115 47 112 C 49 111 49 109 45 104 C 45 103 43 102 43 100 C 43 95 43 89 43 84 C 42 73 43 66 43 64 C 45 57 60 53 68 57 C 74 60 75 63 75 78 C 76 93 75 100 73 105 C 67 112 70 115 85 115 C 95 114 97 111 93 105 C 89 100 89 100 89 85 C 90 70 89 64 87 59 C 82 46 67 40 51 47 C 42 51 42 49 42 28 C 43 7 43 5 33 7 z" fill="black" /><!-- width=106 height=137 -->
<path id="gl1545" d="M 48 15 C 45 15 43 17 39 19 C 35 22 34 22 30 19 C 27 16 27 15 25 15 C 16 15 13 24 18 29 C 21 33 22 33 22 51 C 22 70 21 70 18 75 C 12 82 15 85 29 84 C 42 84 43 82 37 73 C 36 72 36 72 35 70 C 35 65 35 59 35 54 C 35 37 35 36 36 34 C 41 25 60 22 66 30 C 68 33 69 36 69 53 C 69 70 69 70 65 75 C 63 79 63 81 65 83 C 67 85 82 85 85 83 C 88 81 88 78 85 75 C 82 71 82 70 82 52 C 82 30 81 26 75 20 C 69 15 58 13 48 15 z" fill="black" /><!-- width=100 height=97 -->
<path id="gl5401" d="M 4 14 C 14 19 14 86 4 105 C 4 115 72 115 86 100 C 100 81 100 81 86 67 C 81 62 76 57 72 52 C 72 48 76 48 81 43 C 91 33 91 28 81 19 C 76 9 72 4 38 4 C 4 4 0 9 4 14 M 67 19 C 72 33 48 52 28 52 C 28 52 24 48 24 33 C 24 19 28 19 43 19 C 57 19 67 19 67 19 M 67 67 C 81 72 76 91 62 96 C 38 105 28 105 28 86 C 24 62 43 52 67 67 z" fill="black" /><!-- width=105 height=120 -->
<path id="gl1802" d="M 42 13 C 33 16 22 25 20 33 C 19 34 18 37 17 39 C 12 51 16 66 25 75 C 37 87 57 88 73 77 C 77 74 78 74 79 71 C 81 67 81 66 78 63 C 75 61 71 63 67 67 C 64 70 57 73 53 73 C 43 75 30 67 32 60 C 33 58 35 57 43 56 C 60 54 75 46 77 38 C 81 24 70 12 52 13 C 48 13 45 13 42 13 M 58 24 C 66 28 65 37 57 42 C 52 45 37 49 33 49 C 28 49 28 42 33 33 C 39 25 51 20 58 24 z" fill="black" /><!-- width=90 height=97 -->
<path id="gl1305" d="M 58 22 C 57 23 52 26 49 30 C 45 34 43 34 41 29 C 39 25 37 23 34 23 C 29 23 24 28 24 32 C 24 34 24 35 27 38 C 32 43 31 42 31 61 C 31 78 31 79 28 84 C 25 87 25 88 28 91 C 30 92 30 92 38 92 C 41 92 44 92 47 92 C 48 92 48 91 49 91 C 51 88 51 87 48 84 C 45 78 45 78 45 65 C 45 52 46 49 49 43 C 53 37 56 36 63 38 C 70 39 74 33 70 27 C 69 23 64 21 58 22 z" fill="black" /><!-- width=84 height=105 -->
<path id="gl1308" d="M 31 7 C 30 8 29 10 28 17 C 27 27 26 30 21 31 C 13 33 13 39 20 40 C 26 42 25 40 25 69 C 25 102 24 100 40 100 C 51 101 52 101 54 99 C 58 95 55 91 49 90 C 38 89 39 91 38 64 C 38 40 37 41 46 40 C 54 40 56 39 55 36 C 55 32 53 31 47 31 C 39 31 38 30 39 20 C 40 10 39 7 34 6 C 34 6 33 6 31 7 z" fill="black" /><!-- width=68 height=113 -->
<path id="gl1814" d="M 28 6 C 27 6 19 8 17 9 C 15 10 14 11 13 13 C 11 17 11 18 13 19 C 16 22 19 21 27 18 C 34 14 37 14 44 18 C 48 19 49 20 50 22 C 52 28 51 29 40 30 C 34 30 33 30 26 33 C 1 42 3 74 28 77 C 36 78 42 77 45 75 C 50 70 54 70 58 73 C 61 76 64 77 68 76 C 71 76 72 76 72 72 C 73 71 73 70 73 69 C 72 69 72 68 71 67 C 67 63 66 62 66 46 C 66 25 65 21 57 13 C 54 10 53 10 46 8 C 39 6 32 5 28 6 M 52 39 C 54 41 54 41 54 46 C 53 58 52 61 44 64 C 35 69 29 68 24 63 C 18 56 22 46 33 41 C 42 37 50 36 52 39 z" fill="black" /><!-- width=83 height=89 -->
<path id="gl1537" d="M 23 13 C 15 15 12 19 16 24 C 19 30 19 26 19 65 C 20 105 20 105 17 109 C 14 114 13 115 14 117 C 15 120 17 120 26 120 C 35 121 37 120 39 117 C 39 115 39 114 37 111 C 33 106 33 108 33 60 C 33 19 33 16 32 15 C 30 12 28 12 23 13 z" fill="black" /><!-- width=52 height=137 -->
<path id="gl1539" d="M 43 12 C 41 13 37 14 34 16 C 12 27 6 57 22 73 C 37 88 60 88 75 73 C 100 48 78 7 43 12 M 55 24 C 60 25 64 28 67 32 C 79 50 69 74 49 74 C 30 74 21 53 31 34 C 35 25 46 21 55 24 z" fill="black" /><!-- width=99 height=97 -->
<path id="gl1548" d="M 30 9 C 28 10 27 12 26 21 C 25 30 24 31 20 33 C 14 34 14 40 20 43 C 24 45 24 44 24 73 C 24 81 24 90 24 98 C 24 99 25 99 25 100 C 28 102 30 103 42 103 C 49 103 52 102 53 99 C 54 96 52 94 46 93 C 37 92 37 93 37 65 C 37 58 37 52 37 45 C 37 45 38 45 39 44 C 40 43 41 43 45 43 C 52 43 54 41 53 37 C 52 34 51 33 45 33 C 37 33 37 32 38 20 C 39 12 38 10 33 9 C 32 8 31 8 30 9 z" fill="black" /><!-- width=65 height=117 -->
<path id="gl1565" d="M 18 13 C 13 18 13 27 18 28 C 24 30 29 27 30 21 C 31 16 31 16 25 13 C 21 11 21 11 18 13 z" fill="black" /><!-- width=45 height=42 -->
</defs>
<use xlink:href="#gl5379" x="8" y="16" />
<use xlink:href="#gl1287" x="235" y="12" />
<use xlink:href="#gl1544" x="367" y="52" />
<use xlink:href="#gl1796" x="442" y="54" />
<use xlink:href="#gl5380" x="495" y="32" />
<use xlink:href="#gl2066" x="540" y="49" />
<use xlink:href="#gl1536" x="661" y="33" />
<use xlink:href="#gl1545" x="691" y="50" />
<use xlink:href="#gl1562" x="775" y="53" />
<use xlink:href="#gl1548" x="825" y="31" />
<use xlink:href="#gl5381" x="878" y="57" />
<use xlink:href="#gl1305" x="930" y="42" />
<use xlink:href="#gl5382" x="1034" y="19" />
<use xlink:href="#gl1541" x="1142" y="20" />
<use xlink:href="#gl5383" x="1233" y="59" />
<use xlink:href="#gl1536" x="1312" y="32" />
<use xlink:href="#gl1305" x="1333" y="43" />
<use xlink:href="#gl5382" x="1439" y="18" />
<use xlink:href="#gl5384" x="1557" y="54" />
<use xlink:href="#gl1537" x="1633" y="13" />
<use xlink:href="#gl1537" x="1664" y="14" />
<use xlink:href="#gl1544" x="1692" y="53" />
<use xlink:href="#gl5385" x="1775" y="57" />
<use xlink:href="#gl1544" x="1835" y="53" />
<use xlink:href="#gl5386" x="1982" y="33" />
<use xlink:href="#gl1545" x="2000" y="51" />
<use xlink:href="#gl1304" x="2129" y="0" />
<use xlink:href="#gl1305" x="2216" y="42" />
<use xlink:href="#gl5387" x="2282" y="33" />
<use xlink:href="#gl1545" x="2310" y="51" />
<use xlink:href="#gl1307" x="2381" y="53" />
<use xlink:href="#gl1542" x="2452" y="54" />
<use xlink:href="#gl1548" x="2522" y="32" />
<use xlink:href="#gl1539" x="2569" y="53" />
<use xlink:href="#gl1545" x="2645" y="52" />
<use xlink:href="#gl1803" x="2739" y="101" />
<use xlink:href="#gl5388" x="2841" y="24" />
<use xlink:href="#gl1802" x="2929" y="52" />
<use xlink:href="#gl1795" x="2998" y="52" />
<use xlink:href="#gl5389" x="3167" y="24" />
<use xlink:href="#gl1544" x="3225" y="53" />
<use xlink:href="#gl1305" x="3290" y="43" />
<use xlink:href="#gl5390" x="3355" y="55" />
<use xlink:href="#gl1544" x="3403" y="53" />
<use xlink:href="#gl2071" x="3474" y="44" />
<use xlink:href="#gl1797" x="3556" y="92" />
<use xlink:href="#gl1543" x="3651" y="22" />
<use xlink:href="#gl1539" x="3721" y="53" />
<use xlink:href="#gl1802" x="3797" y="52" />
<use xlink:href="#gl1796" x="3870" y="54" />
<use xlink:href="#gl1539" x="3984" y="53" />
<use xlink:href="#gl1799" x="4062" y="13" />
<use xlink:href="#gl1792" x="4107" y="15" />
<use xlink:href="#gl1544" x="4144" y="53" />
<use xlink:href="#gl1305" x="4208" y="44" />
<use xlink:href="#gl1796" x="4328" y="54" />
<use xlink:href="#gl1547" x="4384" y="57" />
<use xlink:href="#gl1307" x="4448" y="54" />
<use xlink:href="#gl1541" x="4514" y="21" />
<use xlink:href="#gl1814" x="4664" y="60" />
<use xlink:href="#gl1307" x="4779" y="53" />
<use xlink:href="#gl5384" x="4855" y="54" />
<use xlink:href="#gl1547" x="4932" y="58" />
<use xlink:href="#gl1305" x="4994" y="44" />
<use xlink:href="#gl1562" x="5059" y="54" />
<use xlink:href="#gl1802" x="5109" y="52" />
<use xlink:href="#gl1308" x="5236" y="35" />
<use xlink:href="#gl5383" x="5285" y="59" />
<use xlink:href="#gl1536" x="5422" y="33" />
<use xlink:href="#gl1308" x="5449" y="34" />
<use xlink:href="#gl1562" x="5498" y="54" />
<use xlink:href="#gl1562" x="5613" y="54" />
<use xlink:href="#gl5380" x="5664" y="33" />
<use xlink:href="#gl5391" x="5716" y="57" />
<use xlink:href="#gl1299" x="5779" y="76" />
<use xlink:href="#gl1543" x="0" y="182" />
<use xlink:href="#gl1802" x="68" y="213" />
<use xlink:href="#gl1545" x="139" y="212" />
<use xlink:href="#gl1308" x="215" y="196" />
<use xlink:href="#gl1549" x="264" y="215" />
<use xlink:href="#gl1565" x="327" y="268" />
<use xlink:href="#gl1296" x="420" y="178" />
<use xlink:href="#gl1548" x="453" y="193" />
<use xlink:href="#gl1795" x="552" y="213" />
<use xlink:href="#gl1540" x="660" y="219" />
<use xlink:href="#gl1562" x="730" y="214" />
<use xlink:href="#gl1563" x="835" y="182" />
<use xlink:href="#gl5392" x="913" y="217" />
<use xlink:href="#gl1557" x="990" y="210" />
<use xlink:href="#gl1547" x="1061" y="218" />
<use xlink:href="#gl1545" x="1131" y="212" />
<use xlink:href="#gl1536" x="1273" y="195" />
<use xlink:href="#gl1545" x="1302" y="212" />
<use xlink:href="#gl1308" x="1437" y="196" />
<use xlink:href="#gl1541" x="1475" y="182" />
<use xlink:href="#gl5392" x="1561" y="218" />
<use xlink:href="#gl5393" x="1703" y="225" />
<use xlink:href="#gl1536" x="1813" y="196" />
<use xlink:href="#gl1543" x="1847" y="182" />
<use xlink:href="#gl1299" x="1913" y="237" />
<use xlink:href="#gl5394" x="1982" y="187" />
<use xlink:href="#gl5395" x="2054" y="182" />
<use xlink:href="#gl2052" x="2134" y="179" />
<use xlink:href="#gl1811" x="2220" y="180" />
<use xlink:href="#gl1796" x="2299" y="215" />
<use xlink:href="#gl1563" x="2404" y="182" />
<use xlink:href="#gl2071" x="2482" y="205" />
<use xlink:href="#gl1296" x="2614" y="180" />
<use xlink:href="#gl1305" x="2638" y="205" />
<use xlink:href="#gl1544" x="2696" y="215" />
<use xlink:href="#gl1545" x="2768" y="213" />
<use xlink:href="#gl1544" x="2845" y="215" />
<use xlink:href="#gl1287" x="2975" y="175" />
<use xlink:href="#gl1536" x="3113" y="195" />
<use xlink:href="#gl1537" x="3144" y="176" />
<use xlink:href="#gl1537" x="3175" y="177" />
<use xlink:href="#gl1536" x="3208" y="195" />
<use xlink:href="#gl1796" x="3241" y="216" />
<use xlink:href="#gl5396" x="3310" y="268" />
<use xlink:href="#gl1283" x="3378" y="166" />
<use xlink:href="#gl1305" x="3466" y="205" />
<use xlink:href="#gl5397" x="3531" y="222" />
<use xlink:href="#gl1547" x="3600" y="220" />
<use xlink:href="#gl5398" x="3681" y="182" />
<use xlink:href="#gl1544" x="3738" y="214" />
<use xlink:href="#gl1288" x="3876" y="181" />
<use xlink:href="#gl5397" x="3988" y="222" />
<use xlink:href="#gl5399" x="4060" y="220" />
<use xlink:href="#gl1796" x="4126" y="216" />
<use xlink:href="#gl5392" x="4179" y="218" />
<use xlink:href="#gl2066" x="4252" y="211" />
<use xlink:href="#gl1540" x="4375" y="219" />
<use xlink:href="#gl1545" x="4440" y="213" />
<use xlink:href="#gl1545" x="4519" y="213" />
<use xlink:href="#gl1803" x="4613" y="259" />
<use xlink:href="#gl5400" x="4703" y="187" />
<use xlink:href="#gl5397" x="4772" y="222" />
<use xlink:href="#gl2066" x="4838" y="211" />
<use xlink:href="#gl1544" x="4953" y="214" />
<use xlink:href="#gl1796" x="5028" y="216" />
<use xlink:href="#gl1818" x="5110" y="186" />
<use xlink:href="#gl1536" x="5228" y="193" />
<use xlink:href="#gl1308" x="5256" y="195" />
<use xlink:href="#gl1308" x="5297" y="195" />
<use xlink:href="#gl1539" x="5345" y="214" />
<use xlink:href="#gl1545" x="5421" y="213" />
<use xlink:href="#gl1803" x="5515" y="259" />
<use xlink:href="#gl5397" x="5608" y="222" />
<use xlink:href="#gl1545" x="5672" y="213" />
<use xlink:href="#gl1543" x="5756" y="182" />
<use xlink:href="#gl5400" x="0" y="345" />
<use xlink:href="#gl1539" x="64" y="373" />
<use xlink:href="#gl1541" x="134" y="341" />
<use xlink:href="#gl1545" x="221" y="372" />
<use xlink:href="#gl5401" x="355" y="345" />
<use xlink:href="#gl1802" x="437" y="373" />
<use xlink:href="#gl1305" x="501" y="364" />
<use xlink:href="#gl1308" x="556" y="355" />
<use xlink:href="#gl1814" x="608" y="381" />
<use xlink:href="#gl1537" x="673" y="336" />
<use xlink:href="#gl1539" x="704" y="374" />
<use xlink:href="#gl1548" x="780" y="353" />
<use xlink:href="#gl1565" x="834" y="428" />
</svg>