<?xml version="1.0" standalone="no"?>
<!DOCTYPE svg PUBLIC "-//W3C/DTD SVG 1.1//EN" "http://www.w3.org/Graphics/SVG/1.1/DTD/svg11.dtd">
<svg width="582px" height="191px" viewBox="0 0 5828 1916" xmlns="http://www.w3.org/2000/svg" xmlns:xlink="http://www.w3.org/1999/xlink" version="1.1">
<defs>
<path id="gl14850" d="M 88 18 C 81 19 80 20 84 26 C 88 31 88 32 84 40 C 82 43 81 48 80 50 C 79 52 77 58 75 62 C 73 67 72 72 72 73 C 70 77 67 85 66 85 C 66 86 64 87 64 87 C 63 87 62 87 61 87 C 61 86 60 85 60 84 C 55 74 54 70 54 69 C 53 66 48 53 46 50 C 45 48 44 43 40 34 C 39 30 39 30 42 25 C 45 19 43 18 31 18 C 21 18 20 19 18 22 C 17 25 17 25 18 26 C 19 27 19 28 19 28 C 19 30 21 33 23 35 C 26 39 28 46 28 48 C 28 49 30 51 31 54 C 33 57 35 61 36 64 C 37 68 40 73 42 76 C 46 85 49 96 52 103 C 54 110 56 113 60 114 C 63 114 63 114 66 111 C 67 109 69 107 69 106 C 69 100 70 98 72 96 C 73 94 74 91 74 90 C 75 88 75 87 76 86 C 76 85 78 82 79 80 C 80 78 82 75 82 75 C 82 73 85 68 90 58 C 91 55 93 51 94 48 C 94 46 96 43 97 42 C 97 41 99 39 99 37 C 99 36 100 34 101 33 C 104 29 106 21 105 19 C 103 17 98 17 88 18 z" fill="black" /><!-- width=114 height=122 -->
<path id="gl13314" d="M 32 10 C 25 15 21 18 19 21 C 18 24 17 26 16 27 C 15 29 13 39 13 47 C 13 53 13 53 16 57 C 17 60 19 62 19 63 C 24 72 37 77 49 73 C 54 72 54 72 57 73 C 60 74 61 74 63 72 C 64 72 67 70 70 68 C 75 64 75 64 78 58 C 82 50 82 47 81 37 C 80 27 78 23 72 16 C 66 10 62 9 57 9 C 54 9 51 9 48 9 C 46 9 42 9 40 9 C 36 8 36 9 32 10 M 55 18 C 56 19 57 20 58 21 C 58 22 60 25 61 26 C 68 35 69 52 62 60 C 60 63 53 69 52 69 C 51 69 48 67 45 66 C 36 63 31 58 28 49 C 28 45 28 34 30 30 C 30 28 31 27 31 25 C 31 23 39 18 42 16 C 44 16 46 15 46 15 C 47 15 51 16 55 18 z" fill="black" /><!-- width=95 height=84 -->
<path id="gl15360" d="M 16 6 C 11 8 11 9 10 12 C 10 15 10 15 13 18 C 19 24 30 21 28 13 C 28 8 27 6 24 5 C 20 3 20 3 16 6 M 16 34 C 15 34 13 35 12 36 C 9 37 9 37 9 40 C 9 41 9 43 10 43 C 13 47 13 48 13 51 C 14 52 13 55 13 57 C 13 59 13 61 13 64 C 15 72 13 83 10 85 C 9 87 9 90 12 93 C 13 94 15 95 15 96 C 17 96 19 96 21 96 C 24 96 27 96 27 96 C 27 95 27 94 28 92 C 30 89 30 88 29 85 C 27 79 25 46 27 40 C 28 36 23 33 16 34 z" fill="black" /><!-- width=40 height=112 -->
<path id="gl13826" d="M 52 9 C 48 10 36 16 32 20 C 30 22 26 27 25 31 C 19 51 26 69 43 76 C 50 79 72 79 76 75 C 79 73 78 68 75 66 C 72 66 71 66 64 67 C 55 69 48 66 43 60 C 31 43 39 19 55 19 C 62 19 64 21 69 27 C 74 34 79 31 79 19 C 79 11 75 9 63 9 C 58 9 54 9 52 9 z" fill="black" /><!-- width=90 height=90 -->
<path id="gl13316" d="M 54 11 C 52 12 50 12 50 12 C 49 12 48 13 46 13 C 42 14 37 16 34 17 C 34 18 32 19 31 19 C 30 19 29 21 28 22 C 28 23 27 25 25 27 C 22 31 21 33 21 48 C 20 55 20 55 22 58 C 23 60 24 62 24 63 C 25 65 32 72 34 74 C 37 75 51 79 53 79 C 54 79 57 79 58 78 C 61 78 67 76 71 76 C 76 75 76 75 76 73 C 77 70 77 68 76 67 C 75 66 64 66 61 67 C 58 69 51 68 48 66 C 42 64 36 56 36 51 C 35 45 38 43 48 45 C 50 45 52 46 55 46 C 57 46 59 46 61 45 C 65 45 67 44 70 45 C 75 45 75 45 77 43 C 78 43 79 42 80 42 C 81 42 81 41 82 40 C 85 36 79 22 73 17 C 69 14 61 10 59 11 C 59 11 57 11 54 11 M 60 21 C 61 21 62 22 62 23 C 63 24 63 25 64 27 C 66 28 66 29 66 32 C 66 34 66 35 66 36 C 64 37 64 37 63 38 C 60 40 60 40 55 39 C 51 39 50 39 46 39 C 40 40 40 40 38 38 C 36 37 36 36 37 30 C 39 25 42 21 46 20 C 49 19 59 20 60 21 z" fill="black" /><!-- width=94 height=89 -->
<path id="gl15361" d="M 24 9 C 9 14 4 19 4 52 C 4 62 4 72 4 81 C 14 81 14 81 24 81 C 28 81 28 81 38 81 C 38 72 38 62 38 48 C 38 24 38 14 43 14 C 52 9 52 0 43 4 C 43 4 33 4 24 9 z" fill="black" /><!-- width=57 height=91 -->
<path id="gl15362" d="M 4 33 C 4 52 9 67 14 67 C 14 67 19 57 19 38 C 19 24 19 9 19 9 C 19 4 14 4 14 4 C 9 0 4 9 4 33 z" fill="black" /><!-- width=28 height=76 -->
<path id="gl15363" d="M 153 19 C 144 33 134 52 129 76 C 129 86 129 86 67 91 C 43 91 24 91 0 91 C 19 91 38 91 57 91 C 91 91 124 96 124 96 C 129 100 139 139 139 148 C 139 153 144 153 163 153 C 172 153 182 153 187 153 C 192 144 196 134 201 124 C 211 96 211 91 206 62 C 196 33 182 4 172 4 C 168 4 163 14 153 19 M 187 48 C 206 76 192 91 158 91 C 144 86 144 86 153 72 C 163 43 182 33 187 48 M 187 105 C 187 110 158 139 153 139 C 144 139 139 105 144 100 C 153 96 187 96 187 105 z" fill="black" /><!-- width=220 height=163 -->
<path id="gl15364" d="M 40 10 C 39 10 37 11 36 12 C 36 12 34 13 33 13 C 33 13 31 14 30 15 C 28 16 27 16 25 16 C 24 16 23 16 22 18 C 21 18 20 19 19 19 C 18 19 12 21 12 22 C 11 23 11 23 13 25 C 14 26 15 27 15 28 C 15 30 17 35 18 35 C 19 35 19 34 20 33 C 21 32 22 31 22 31 C 24 31 27 28 27 26 C 28 23 28 23 34 24 C 35 24 36 24 38 25 C 39 24 39 24 39 23 C 40 22 42 21 42 21 C 43 21 44 19 44 15 C 44 12 43 10 42 10 C 42 10 40 10 40 10 z" fill="black" /><!-- width=52 height=45 -->
<path id="gl15365" d="M 43 24 C 43 43 43 48 33 48 C 28 52 24 48 28 28 C 28 19 28 9 24 9 C 19 4 14 9 19 28 C 19 48 19 57 14 57 C 4 62 4 86 9 86 C 19 86 19 96 9 100 C 0 100 0 100 9 100 C 19 105 24 129 14 134 C 4 139 0 168 9 168 C 14 168 19 177 19 187 C 19 196 19 201 19 201 C 28 201 28 201 28 172 C 28 158 33 153 38 153 C 48 148 48 163 38 168 C 33 168 33 168 38 168 C 43 168 48 172 48 182 C 48 192 52 192 57 177 C 57 172 62 172 62 172 C 67 172 72 172 72 172 C 72 168 72 163 62 163 C 52 163 52 148 62 139 C 72 134 72 124 62 115 C 52 110 52 110 62 105 C 76 100 76 100 67 96 C 52 96 52 76 62 72 C 72 62 72 43 62 38 C 57 38 57 33 57 19 C 62 4 57 4 52 4 C 48 4 48 9 43 24 M 48 105 C 43 120 38 124 33 124 C 24 129 24 86 38 76 C 48 72 48 81 48 105 z" fill="black" /><!-- width=81 height=211 -->
<path id="gl15366" d="M 14 4 C -5 9 0 19 24 14 C 33 14 38 14 48 14 C 48 19 48 28 48 33 C 52 48 48 57 43 62 C 33 67 33 62 33 38 C 33 28 28 24 24 24 C 24 24 24 33 24 43 C 24 62 19 67 14 72 C 0 72 4 91 14 96 C 24 100 24 139 14 139 C 0 139 4 163 14 168 C 28 172 24 206 9 206 C 4 206 4 211 4 211 C 9 220 72 220 76 211 C 76 211 76 211 67 211 C 52 211 52 153 72 148 C 81 148 81 139 72 129 C 57 115 57 81 67 81 C 81 81 76 57 67 52 C 57 48 57 19 72 19 C 76 19 81 14 81 14 C 81 9 33 4 14 4 M 48 110 C 48 129 48 134 43 134 C 28 134 24 91 38 86 C 48 81 48 86 48 110 M 48 187 C 48 206 48 206 43 206 C 28 206 24 172 33 163 C 43 153 48 163 48 187 z" fill="black" /><!-- width=86 height=225 -->
<path id="gl6169" d="M 18 14 C 12 18 10 26 15 30 C 19 34 24 34 29 31 C 33 29 33 27 33 23 C 33 19 33 19 31 18 C 28 13 21 12 18 14 z" fill="black" /><!-- width=46 height=47 -->
<path id="gl15367" d="M 4 9 C 14 28 14 57 4 67 C 0 72 0 76 4 76 C 14 81 14 105 9 124 C 4 129 4 144 4 153 C 9 168 9 182 4 192 C 4 211 4 249 14 244 C 14 244 19 240 19 230 C 19 220 24 216 24 216 C 33 211 33 206 24 206 C 19 206 19 196 19 172 C 19 153 19 144 24 144 C 33 139 33 134 24 134 C 14 134 14 81 24 76 C 33 72 33 72 24 67 C 14 57 14 14 24 14 C 28 14 28 9 28 4 C 28 4 24 0 14 0 C 4 0 0 4 4 9 z" fill="black" /><!-- width=38 height=254 -->
<path id="gl15368" d="M 86 19 C 86 28 86 48 86 67 C 91 91 86 100 81 100 C 76 100 76 100 81 105 C 91 110 91 163 81 168 C 81 172 81 172 81 177 C 86 177 91 187 91 196 C 91 206 86 206 67 206 C 43 206 0 235 4 240 C 9 244 9 249 9 254 C 9 268 43 278 67 264 C 86 254 91 254 86 268 C 86 273 86 278 91 278 C 96 278 96 278 96 124 C 96 62 91 9 91 9 C 91 4 86 9 86 19 z" fill="black" /><!-- width=105 height=283 -->
<path id="gl15369" d="M 4 4 C 4 9 4 14 9 14 C 19 19 19 72 9 72 C 4 72 4 72 4 76 C 4 76 4 81 9 81 C 14 81 19 86 19 110 C 19 129 14 139 9 139 C 4 139 4 139 4 144 C 4 144 4 148 9 148 C 14 148 14 153 14 177 C 14 196 14 206 9 206 C 0 206 0 211 9 216 C 9 216 14 225 14 240 C 14 268 24 268 28 235 C 28 220 28 206 24 206 C 19 201 19 153 28 148 C 33 144 33 139 28 139 C 19 134 19 91 28 76 C 28 72 28 72 28 72 C 24 72 24 19 28 14 C 28 9 28 4 28 4 C 24 0 9 0 4 4 z" fill="black" /><!-- width=38 height=273 -->
<path id="gl15370" d="M 4 9 C 4 14 4 19 4 19 C 14 24 14 72 4 76 C 0 76 0 81 4 81 C 14 86 14 139 4 144 C 0 144 0 148 4 153 C 14 158 14 206 4 211 C 0 211 0 216 4 216 C 14 220 14 268 4 273 C 0 278 4 283 9 283 C 14 283 19 288 19 283 C 24 278 24 216 19 187 C 19 168 19 158 19 153 C 24 148 24 144 24 139 C 19 129 19 91 24 81 C 24 76 24 72 24 72 C 19 67 19 28 24 14 C 28 4 9 4 4 9 z" fill="black" /><!-- width=33 height=292 -->
<path id="gl15371" d="M 4 4 C 4 9 4 9 9 9 C 14 9 14 19 19 28 C 19 57 19 67 9 67 C 4 67 0 72 0 76 C 0 76 4 81 9 81 C 19 81 19 134 9 139 C 4 139 4 144 4 148 C 4 148 9 148 14 148 C 14 148 19 158 19 172 C 19 196 14 201 9 201 C 4 201 0 206 0 206 C 0 211 4 211 9 211 C 14 211 19 220 19 240 C 19 264 14 268 9 268 C 4 268 0 273 0 278 C 0 278 14 283 33 283 C 48 283 57 278 57 278 C 57 273 52 268 48 268 C 33 268 33 268 33 259 C 33 249 28 235 28 230 C 24 216 24 211 43 211 C 52 211 57 211 57 206 C 57 206 52 201 43 201 C 38 201 33 201 28 201 C 28 196 28 187 28 177 C 28 153 28 144 52 144 C 57 144 57 144 57 144 C 57 139 52 139 43 139 C 38 139 33 139 28 139 C 28 124 28 115 28 110 C 28 96 28 86 28 81 C 33 81 38 81 43 81 C 52 81 57 76 57 76 C 57 67 52 67 33 67 C 28 72 24 67 28 43 C 28 14 28 14 43 14 C 52 14 57 9 57 4 C 57 0 9 0 4 4 z" fill="black" /><!-- width=67 height=292 -->
<path id="gl15372" d="M 43 43 C 38 86 38 91 14 96 C 9 96 4 96 0 96 C 4 96 14 96 19 96 C 38 100 38 100 38 120 C 38 134 38 134 57 129 C 67 129 72 129 81 129 C 81 134 81 139 81 144 C 81 158 76 158 72 158 C 67 158 67 158 67 158 C 67 163 67 163 72 163 C 72 163 76 168 76 172 C 81 187 86 187 91 172 C 91 163 91 115 91 72 C 91 67 91 62 86 52 C 81 57 76 57 67 57 C 62 57 52 57 48 62 C 43 52 43 38 43 28 C 43 4 43 4 43 43 M 76 86 C 72 96 52 96 52 86 C 52 81 72 76 76 81 C 76 81 76 86 76 86 M 81 105 C 81 105 76 110 76 110 C 72 110 67 110 62 110 C 52 115 52 110 52 105 C 52 100 52 100 67 100 C 72 100 81 100 81 105 M 24 230 C 38 230 62 230 72 230 C 86 230 72 230 48 230 C 24 230 9 230 24 230 M 24 364 C 38 364 62 364 72 364 C 86 364 72 364 48 364 C 24 364 9 364 24 364 z" fill="black" /><!-- width=100 height=374 -->
<path id="gl15373" d="M 14 9 C 28 14 28 14 28 38 C 24 52 24 72 19 72 C 14 81 14 81 19 76 C 24 76 28 81 28 105 C 28 139 24 144 14 144 C 0 144 0 144 14 148 C 24 148 43 148 52 148 C 57 148 62 148 72 144 C 72 158 72 168 72 177 C 72 187 72 196 72 206 C 57 211 48 211 38 211 C 9 211 14 211 52 211 C 76 211 91 211 86 211 C 76 206 76 153 86 148 C 96 144 96 144 86 144 C 76 144 76 139 81 105 C 81 81 81 67 76 67 C 72 67 62 67 52 67 C 48 72 43 72 38 72 C 38 62 38 52 38 43 C 38 33 38 24 38 14 C 48 9 57 9 67 9 C 81 9 76 9 48 9 C 24 9 4 9 14 9 M 72 105 C 72 120 62 124 43 124 C 28 124 33 100 48 96 C 67 86 72 86 72 105 M 24 278 C 38 278 62 278 72 278 C 86 278 72 278 48 278 C 24 278 9 278 24 278 z" fill="black" /><!-- width=100 height=292 -->
<path id="gl15374" d="M 4 4 C 4 24 9 192 9 192 C 14 196 28 182 28 177 C 28 172 24 172 24 172 C 14 172 14 153 24 148 C 24 148 24 144 19 139 C 19 134 19 129 24 124 C 28 120 28 115 24 115 C 19 115 19 105 19 96 C 19 86 19 76 24 76 C 28 76 28 72 24 72 C 14 67 14 19 24 14 C 24 14 24 9 24 4 C 19 0 9 0 4 4 z" fill="black" /><!-- width=33 height=201 -->
<path id="gl15375" d="M 4 9 C 4 14 4 19 14 19 C 24 24 24 38 9 43 C 0 43 0 43 4 43 C 14 48 14 52 9 57 C 0 76 9 76 28 57 C 48 43 52 24 33 9 C 28 4 4 4 4 9 z" fill="black" /><!-- width=57 height=81 -->
<path id="gl14857" d="M 29 7 C 28 7 27 8 26 9 C 25 9 25 5 25 52 C 25 90 25 91 24 96 C 22 100 22 103 24 107 C 25 111 25 112 25 135 C 25 163 24 163 20 166 C 19 166 18 167 18 167 C 18 168 20 171 21 172 C 22 174 24 176 24 178 C 25 180 26 181 27 182 C 28 182 28 182 30 182 C 33 183 33 183 37 178 C 42 173 42 173 55 171 C 58 171 63 170 65 169 C 67 168 69 168 69 168 C 71 168 70 167 67 166 C 66 166 64 165 64 164 C 63 162 63 161 71 153 C 79 145 81 143 84 136 C 87 129 88 123 85 115 C 84 109 84 108 86 106 C 87 105 87 103 88 102 C 88 102 88 101 88 100 C 87 100 85 99 83 99 C 78 98 63 98 41 99 C 34 99 34 100 34 51 C 34 13 34 10 33 8 C 32 7 31 7 31 7 C 31 7 30 7 29 7 M 57 112 C 61 112 61 112 64 117 C 66 121 66 126 65 131 C 63 137 58 145 56 148 C 54 150 52 152 52 153 C 52 153 49 156 46 159 C 41 164 40 165 39 164 C 34 164 34 163 34 142 C 34 125 34 123 36 120 C 37 115 40 112 45 112 C 46 112 48 112 49 111 C 50 111 51 111 52 111 C 52 111 55 112 57 112 M 75 166 C 70 167 70 168 74 168 C 81 170 90 170 90 168 C 90 166 84 166 75 166 z" fill="black" /><!-- width=99 height=237 -->
<path id="gl15376" d="M 9 9 C 9 9 9 14 9 19 C 14 19 9 24 4 28 C 4 33 4 38 4 43 C 14 52 14 100 4 105 C 0 105 0 105 4 105 C 14 110 14 153 4 163 C 0 172 14 187 24 182 C 24 177 38 172 57 172 C 72 172 81 172 81 168 C 81 168 76 163 67 163 C 62 163 52 163 48 163 C 52 163 57 158 62 153 C 72 144 72 134 72 124 C 72 115 76 105 81 105 C 81 105 72 105 52 105 C 43 105 33 105 24 105 C 24 91 24 81 24 72 C 24 62 24 52 24 43 C 33 43 43 43 52 43 C 72 43 81 38 81 33 C 81 33 72 28 52 28 C 43 28 33 28 24 28 C 24 24 24 24 24 19 C 24 4 14 0 9 9 M 48 120 C 57 124 57 134 43 148 C 24 172 24 168 24 144 C 24 129 24 120 28 120 C 43 110 43 110 48 120 z" fill="black" /><!-- width=91 height=192 -->
<path id="gl15377" d="M 4 9 C 0 14 4 14 33 14 C 48 14 52 14 52 9 C 52 4 9 0 4 9 M 4 76 C 4 76 14 76 28 76 C 43 76 52 76 52 76 C 52 72 43 72 28 72 C 14 72 4 72 4 76 M 4 144 C 4 144 14 144 28 144 C 43 144 52 144 52 144 C 48 134 9 139 4 144 z" fill="black" /><!-- width=62 height=153 -->
<path id="gl15378" d="M 24 9 C 38 9 62 9 72 9 C 86 9 72 9 48 9 C 24 9 9 9 24 9 M 0 76 C 0 76 19 81 48 81 C 76 81 96 76 96 76 C 96 72 76 67 48 67 C 19 67 0 72 0 76 M 43 206 C 43 211 52 211 67 211 C 81 211 96 211 96 206 C 96 206 81 201 67 201 C 52 201 43 206 43 206 z" fill="black" /><!-- width=100 height=292 -->
<path id="gl15379" d="M 4 9 C 9 14 1032 14 1036 4 C 1036 4 868 4 523 4 C 230 4 4 4 4 9 z" fill="black" /><!-- width=1046 height=24 -->
<path id="gl15380" d="M 9 7 C 8 9 9 10 11 11 C 12 12 13 12 13 13 C 15 17 15 17 20 17 C 25 16 26 16 27 13 C 27 12 27 12 30 12 C 34 11 35 10 33 7 C 31 6 31 6 25 8 C 24 8 23 9 21 9 C 20 9 19 8 17 8 C 12 6 10 6 9 7 z" fill="black" /><!-- width=41 height=24 -->
<path id="gl2064" d="M 72 11 C 70 11 57 11 41 11 C 13 11 10 11 9 13 C 9 14 12 20 14 21 C 14 21 28 22 43 22 C 63 21 74 22 76 22 C 79 23 81 22 82 19 C 83 15 83 14 81 12 C 79 10 78 10 72 11 z" fill="black" /><!-- width=94 height=33 -->
<path id="gl15381" d="M 0 9 C 0 9 33 9 81 9 C 129 9 163 9 163 9 C 163 4 139 0 86 0 C 33 0 0 4 0 9 z" fill="black" /><!-- width=172 height=24 -->
<path id="gl15382" d="M 4 9 C 9 14 225 14 230 9 C 230 4 192 4 120 4 C 48 4 4 4 4 9 z" fill="black" /><!-- width=240 height=19 -->
<path id="gl15383" d="M 57 24 C 62 33 62 33 57 33 C 52 33 43 38 43 43 C 38 43 43 43 48 43 C 62 38 67 48 52 72 C 48 81 43 96 38 100 C 38 105 28 110 19 110 C 9 110 9 110 24 110 C 43 110 48 115 57 129 C 76 148 76 148 57 148 C 43 148 38 153 33 163 C 28 168 19 177 14 177 C 4 177 4 177 19 177 C 24 177 33 182 38 187 C 38 192 48 201 57 206 C 72 216 72 216 67 206 C 57 182 57 177 72 177 C 81 177 86 177 86 172 C 86 168 86 168 91 168 C 105 168 105 158 96 153 C 86 148 72 124 76 115 C 76 115 96 110 110 110 C 124 110 134 110 144 110 C 134 110 124 110 115 110 C 81 105 76 105 96 81 C 105 67 105 62 105 57 C 96 48 96 48 110 48 C 129 48 124 43 100 38 C 96 38 81 28 72 19 C 52 4 48 4 57 24 M 100 177 C 100 177 115 177 134 177 C 168 177 168 177 124 172 C 110 172 96 172 100 177 z" fill="black" /><!-- width=235 height=225 -->
<path id="gl2064" d="M 72 11 C 70 11 57 11 41 11 C 13 11 10 11 9 13 C 9 14 12 20 14 21 C 14 21 28 22 43 22 C 63 21 74 22 76 22 C 79 23 81 22 82 19 C 83 15 83 14 81 12 C 79 10 78 10 72 11 z" fill="black" /><!-- width=94 height=33 -->
<path id="gl15384" d="M 12 9 C 6 12 6 18 13 19 C 14 19 15 19 16 19 C 18 19 50 19 57 20 C 64 21 64 21 66 18 C 69 15 69 13 66 11 C 66 10 65 9 64 9 C 63 9 60 9 58 9 C 51 9 19 9 16 9 C 15 9 13 9 12 9 z" fill="black" /><!-- width=77 height=29 -->
<path id="gl15385" d="M 4 9 C 4 14 9 19 57 19 C 100 19 110 14 110 9 C 110 4 100 4 57 4 C 9 0 4 4 4 9 z" fill="black" /><!-- width=120 height=24 -->
<path id="gl4871" d="M 16 12 C 14 13 10 16 10 18 C 10 21 14 23 18 24 C 19 24 28 24 37 24 C 55 24 55 24 57 19 C 60 12 55 11 37 12 C 34 12 29 12 25 12 C 21 12 18 12 16 12 z" fill="black" /><!-- width=69 height=36 -->
<path id="gl5658" d="M 16 15 C 13 16 12 18 12 21 C 12 27 15 30 22 30 C 24 30 61 29 105 29 C 156 29 189 29 198 29 C 214 30 216 30 218 27 C 222 24 220 18 217 15 C 215 14 214 14 116 14 C 33 14 18 14 16 15 z" fill="black" /><!-- width=232 height=44 -->
<path id="gl15386" d="M 4 9 C 4 9 14 9 24 9 C 33 9 43 9 43 9 C 43 4 33 4 24 4 C 14 4 4 4 4 9 z" fill="black" /><!-- width=52 height=19 -->
<path id="gl15387" d="M 4 9 C 4 19 326 14 336 9 C 336 4 264 4 172 4 C 28 4 4 4 4 9 z" fill="black" /><!-- width=345 height=24 -->
<path id="gl15388" d="M 24 9 C 28 14 33 14 38 14 C 33 19 33 19 28 19 C 9 28 4 57 4 158 C 4 187 4 216 9 244 C 14 244 19 244 28 244 C 38 244 52 244 52 244 C 57 244 67 235 76 225 C 96 206 96 206 91 196 C 76 177 62 172 38 182 C 24 192 14 192 14 192 C 14 187 14 148 19 148 C 19 148 19 144 14 139 C 14 134 14 124 14 105 C 14 96 14 86 19 76 C 24 76 33 76 38 76 C 67 76 110 72 86 72 C 72 67 72 67 81 52 C 91 48 91 38 86 14 C 86 9 81 9 52 9 C 28 9 19 9 24 9 z" fill="black" /><!-- width=105 height=254 -->
<path id="gl15389" d="M 441 14 C 432 19 422 24 422 28 C 417 33 403 38 369 38 C 350 38 336 38 321 38 C 336 38 350 38 364 38 C 379 38 393 38 408 43 C 408 52 408 62 408 76 C 408 86 408 96 408 105 C 393 110 379 110 364 110 C 350 110 336 110 321 110 C 336 110 350 110 364 110 C 379 110 393 110 408 110 C 408 120 408 129 408 139 C 408 172 408 177 369 172 C 355 172 355 172 360 172 C 369 177 384 177 393 177 C 398 177 403 177 408 177 C 408 192 408 201 408 211 C 408 220 408 230 408 240 C 398 244 384 244 369 244 C 355 244 345 244 331 244 C 345 244 355 244 369 244 C 384 244 398 244 408 244 C 408 264 408 278 408 292 C 408 321 412 340 417 340 C 417 340 422 326 417 292 C 417 278 417 264 417 249 C 446 249 470 249 499 249 C 523 249 552 249 580 244 C 580 254 580 264 580 273 C 580 292 580 297 585 297 C 585 297 585 283 585 268 C 585 264 585 254 585 249 C 609 244 633 244 652 244 C 676 244 696 244 720 244 C 696 244 676 244 652 244 C 580 240 585 244 585 201 C 585 196 585 187 585 182 C 600 182 614 182 628 177 C 652 177 667 177 657 177 C 648 177 633 168 643 168 C 648 168 652 158 657 153 C 662 134 662 105 652 105 C 648 105 648 105 648 105 C 662 76 662 62 662 57 C 657 52 657 48 652 43 C 652 38 624 38 585 38 C 561 38 542 38 518 38 C 532 38 547 43 561 43 C 576 43 590 48 604 48 C 600 52 595 52 590 57 C 585 62 580 76 580 86 C 580 96 576 100 576 105 C 561 105 552 105 537 105 C 504 105 494 105 494 100 C 494 96 484 86 480 81 C 475 76 470 76 470 72 C 475 67 480 62 484 57 C 489 48 499 43 504 43 C 508 43 508 43 508 38 C 508 38 508 33 504 33 C 499 33 494 28 494 24 C 484 9 465 4 441 14 M 436 76 C 436 81 427 91 417 91 C 417 91 412 91 412 81 C 412 76 427 72 436 76 M 580 144 C 580 153 580 163 580 177 C 556 177 532 177 513 177 C 489 177 470 177 446 177 C 470 177 489 177 513 177 C 532 177 556 177 580 182 C 580 192 580 201 580 211 C 580 220 580 230 580 244 C 552 244 523 244 499 244 C 470 244 441 244 412 244 C 412 230 412 220 412 211 C 412 201 412 192 412 177 C 422 177 427 177 432 177 C 436 177 441 177 446 177 C 441 177 436 177 432 177 C 408 172 412 144 432 144 C 451 148 480 134 489 120 C 489 115 499 110 537 110 C 552 110 566 110 580 110 C 580 124 580 134 580 144 M 230 225 C 230 235 230 244 225 244 C 220 244 220 244 225 244 C 230 244 235 259 235 283 C 235 302 235 321 240 326 C 240 336 240 326 240 302 C 240 283 240 259 244 254 C 244 244 244 240 240 240 C 240 240 240 235 240 225 C 240 220 240 216 240 216 C 235 216 230 220 230 225 M 43 244 C 62 244 96 244 115 244 C 134 244 115 244 76 244 C 38 244 24 244 43 244 z" fill="black" /><!-- width=734 height=355 -->
<path id="gl15390" d="M 4 4 C 0 9 9 14 19 14 C 28 9 28 28 28 52 C 28 67 28 67 19 67 C 9 67 4 72 4 76 C 4 76 9 81 19 81 C 28 81 33 81 33 105 C 33 134 28 134 19 139 C 0 139 0 148 14 148 C 28 148 33 163 28 187 C 28 201 24 201 14 201 C 0 201 0 211 14 216 C 28 216 28 216 28 264 C 28 268 24 273 14 273 C 0 273 4 283 19 283 C 38 288 38 292 38 139 C 38 91 33 48 33 0 C 28 0 24 0 19 0 C 14 0 4 4 4 4 z" fill="black" /><!-- width=48 height=292 -->
<path id="gl15391" d="M 4 9 C 9 14 403 14 408 9 C 408 4 326 4 206 4 C 86 4 4 4 4 9 z" fill="black" /><!-- width=417 height=24 -->
<path id="gl15616" d="M 446 33 C 446 48 446 52 441 57 C 436 57 427 48 432 38 C 432 28 427 19 422 24 C 422 24 417 33 417 48 C 417 57 417 67 412 67 C 408 72 408 91 417 96 C 417 100 417 100 412 105 C 408 105 412 110 417 115 C 422 124 422 124 417 134 C 408 148 403 177 412 177 C 417 177 417 182 417 192 C 417 206 427 211 432 196 C 432 177 446 177 451 192 C 451 192 456 196 456 201 C 456 196 456 192 460 187 C 460 182 460 172 460 168 C 460 163 460 153 465 153 C 475 144 475 120 465 120 C 456 120 465 115 475 110 C 480 105 484 105 489 105 C 484 105 480 105 475 105 C 460 100 456 91 465 81 C 475 67 475 52 465 48 C 460 48 456 38 456 28 C 456 19 456 9 451 9 C 451 9 446 19 446 33 M 4747 62 C 4747 96 4747 110 4742 110 C 4737 110 4737 110 4742 115 C 4752 124 4752 172 4742 172 C 4737 172 4737 177 4742 182 C 4752 192 4752 192 4761 187 C 4761 182 4771 177 4776 177 C 4790 177 4814 148 4814 129 C 4814 124 4814 120 4814 115 C 4862 110 4910 110 4958 110 C 5006 110 5054 110 5102 110 C 5044 110 4987 110 4929 110 C 4872 110 4814 110 4756 110 C 4756 96 4756 81 4756 67 C 4756 43 4756 19 4752 19 C 4752 19 4747 33 4747 62 M 4795 134 C 4795 144 4780 163 4766 172 C 4761 172 4756 172 4756 153 C 4756 129 4761 124 4771 124 C 4780 120 4795 124 4795 134 M 4483 24 C 4483 24 4483 48 4483 67 C 4483 81 4483 96 4483 110 C 4444 110 4406 110 4372 110 C 4310 110 4286 110 4315 110 C 4334 110 4353 110 4372 115 C 4372 124 4372 134 4372 144 C 4372 153 4372 163 4372 172 C 4363 177 4353 177 4344 177 C 4339 177 4329 177 4320 177 C 4329 177 4339 177 4344 177 C 4353 177 4363 177 4372 177 C 4372 192 4372 201 4372 211 C 4372 240 4368 240 4358 244 C 4353 244 4348 244 4344 244 C 4348 244 4353 244 4358 244 C 4368 244 4372 249 4372 278 C 4372 288 4372 297 4372 307 C 4353 312 4334 312 4315 312 C 4296 312 4276 312 4257 312 C 4276 312 4296 312 4315 312 C 4334 312 4353 312 4372 316 C 4372 326 4372 336 4372 345 C 4372 355 4372 364 4372 374 C 4353 379 4334 379 4320 379 C 4291 379 4315 379 4372 379 C 4425 379 4459 379 4444 379 C 4435 379 4425 379 4416 374 C 4416 364 4416 355 4416 345 C 4416 336 4416 326 4416 316 C 4435 312 4459 312 4478 312 C 4502 312 4521 312 4545 312 C 4521 312 4502 312 4478 312 C 4459 312 4435 312 4416 307 C 4416 297 4416 288 4416 278 C 4416 268 4416 259 4416 249 C 4440 244 4464 244 4488 244 C 4512 244 4536 244 4560 244 C 4536 244 4512 244 4488 244 C 4464 244 4440 244 4416 240 C 4416 230 4416 220 4416 211 C 4416 201 4416 192 4416 177 C 4430 177 4449 177 4468 177 C 4521 177 4521 182 4521 187 C 4521 196 4526 201 4526 201 C 4531 201 4531 196 4531 187 C 4531 182 4536 177 4550 177 C 4555 177 4560 177 4569 177 C 4569 192 4564 201 4564 216 C 4564 225 4564 240 4564 249 C 4574 249 4579 249 4588 249 C 4593 249 4603 249 4608 249 C 4608 259 4608 268 4608 283 C 4608 302 4612 316 4612 316 C 4617 316 4617 297 4617 283 C 4617 268 4617 259 4617 244 C 4627 244 4632 244 4636 244 C 4651 244 4651 249 4651 268 C 4651 288 4660 302 4665 288 C 4665 283 4670 283 4675 283 C 4680 283 4689 273 4704 264 C 4723 244 4723 244 4718 230 C 4713 216 4699 206 4684 216 C 4680 216 4680 220 4689 220 C 4699 225 4699 240 4689 240 C 4684 240 4684 244 4684 249 C 4689 254 4680 278 4670 278 C 4660 278 4660 249 4670 244 C 4680 244 4680 244 4670 244 C 4660 240 4660 192 4670 182 C 4670 177 4670 172 4665 172 C 4665 172 4660 168 4665 139 C 4665 129 4665 120 4665 110 C 4660 110 4656 110 4651 110 C 4641 110 4636 110 4646 115 C 4651 115 4651 124 4651 182 C 4651 201 4651 220 4651 240 C 4646 240 4641 240 4636 240 C 4632 240 4627 240 4617 240 C 4617 230 4617 220 4617 211 C 4617 187 4622 177 4627 177 C 4632 177 4632 177 4627 177 C 4622 172 4608 172 4598 172 C 4588 172 4584 177 4574 177 C 4574 168 4574 158 4574 148 C 4574 134 4574 120 4569 120 C 4569 120 4564 134 4564 148 C 4564 158 4564 168 4564 172 C 4560 172 4555 172 4550 172 C 4545 172 4540 172 4531 172 C 4536 163 4536 153 4536 144 C 4536 134 4536 124 4536 115 C 4550 115 4569 115 4584 110 C 4598 110 4617 110 4632 110 C 4617 110 4598 110 4584 110 C 4564 110 4550 110 4536 110 C 4536 100 4531 96 4531 91 C 4531 72 4531 72 4512 72 C 4502 72 4497 76 4492 76 C 4492 67 4488 57 4488 48 C 4488 33 4488 24 4483 24 M 4521 100 C 4521 105 4521 110 4512 110 C 4492 110 4488 100 4497 96 C 4516 91 4521 96 4521 100 M 4406 120 C 4416 148 4406 172 4387 172 C 4377 172 4377 172 4377 148 C 4377 129 4377 120 4377 115 C 4382 110 4401 115 4406 120 M 4483 124 C 4483 148 4483 158 4497 148 C 4516 144 4521 144 4521 163 C 4521 168 4521 172 4521 172 C 4507 172 4488 172 4468 172 C 4449 172 4430 172 4416 172 C 4416 168 4416 158 4416 148 C 4416 110 4411 115 4449 115 C 4478 115 4483 115 4483 124 M 4521 120 C 4521 124 4497 134 4492 129 C 4492 124 4492 120 4492 120 C 4497 110 4521 110 4521 120 M 4406 192 C 4416 220 4406 240 4392 240 C 4387 240 4382 244 4377 244 C 4377 230 4377 220 4377 211 C 4377 201 4377 192 4377 177 C 4382 177 4382 177 4387 177 C 4401 177 4406 182 4406 192 M 4608 211 C 4608 225 4608 225 4588 230 C 4579 230 4569 206 4584 196 C 4598 187 4608 192 4608 211 M 4406 278 C 4406 288 4406 297 4406 307 C 4401 307 4396 307 4392 307 C 4387 307 4382 307 4377 307 C 4377 302 4377 292 4377 283 C 4377 249 4377 244 4392 249 C 4406 249 4406 249 4406 278 M 4406 331 C 4406 340 4406 355 4406 364 C 4406 374 4406 379 4392 379 C 4387 379 4382 379 4377 379 C 4377 369 4377 360 4377 350 C 4377 316 4377 316 4392 316 C 4401 316 4406 316 4406 331 M 2428 86 C 2428 105 2424 105 2414 110 C 2409 110 2409 110 2404 110 C 2409 110 2409 110 2414 110 C 2424 110 2424 115 2424 144 C 2424 153 2424 163 2424 172 C 2395 172 2366 172 2337 172 C 2304 172 2275 172 2246 172 C 2246 163 2246 153 2246 144 C 2246 120 2246 115 2251 110 C 2256 110 2251 110 2246 110 C 2232 110 2227 110 2232 115 C 2236 120 2236 134 2236 148 C 2236 153 2236 163 2236 172 C 2222 172 2212 172 2198 177 C 2184 177 2174 177 2160 177 C 2174 177 2184 177 2198 177 C 2212 177 2227 177 2236 177 C 2236 201 2236 220 2236 244 C 2236 302 2236 307 2227 307 C 2222 312 2222 312 2217 312 C 2222 312 2227 312 2227 312 C 2241 316 2246 369 2232 374 C 2222 379 2227 379 2241 379 C 2246 379 2251 379 2251 379 C 2246 379 2246 364 2246 345 C 2246 336 2246 326 2246 316 C 2289 312 2332 312 2376 312 C 2462 312 2491 312 2462 312 C 2443 307 2428 307 2409 307 C 2414 302 2419 297 2419 292 C 2428 288 2428 273 2428 264 C 2428 249 2433 244 2448 244 C 2452 244 2457 244 2462 244 C 2457 244 2452 244 2448 244 C 2433 240 2433 240 2433 216 C 2433 201 2433 187 2438 182 C 2438 177 2438 172 2438 172 C 2433 172 2428 163 2428 144 C 2428 120 2433 115 2443 115 C 2452 110 2452 110 2443 105 C 2438 105 2433 100 2428 81 C 2428 76 2428 67 2428 62 C 2428 72 2428 76 2428 86 M 2424 211 C 2424 220 2424 230 2424 240 C 2395 240 2366 240 2332 240 C 2304 240 2275 240 2246 244 C 2246 230 2246 220 2246 211 C 2246 201 2246 192 2246 177 C 2275 177 2304 177 2337 177 C 2366 177 2395 177 2428 177 C 2424 192 2424 201 2424 211 M 2376 249 C 2376 254 2371 254 2371 254 C 2361 254 2352 288 2352 297 C 2356 307 2356 307 2299 307 C 2280 307 2260 307 2246 307 C 2246 297 2246 288 2246 278 C 2246 268 2246 259 2246 244 C 2265 244 2289 244 2308 244 C 2347 244 2376 249 2376 249 M 2664 96 C 2664 100 2664 144 2664 192 C 2664 220 2664 249 2664 283 C 2659 278 2654 278 2649 278 C 2616 278 2582 302 2587 321 C 2596 345 2616 355 2640 340 C 2673 326 2673 326 2673 201 C 2673 144 2668 91 2668 91 C 2668 86 2664 91 2664 96 M 537 110 C 547 115 547 153 537 158 C 528 163 523 158 523 139 C 523 129 523 120 518 120 C 518 120 513 134 513 144 C 513 163 513 168 504 172 C 499 172 499 172 494 177 C 499 182 499 182 504 187 C 513 196 513 206 513 220 C 513 235 513 235 494 240 C 475 240 475 240 489 240 C 499 244 504 249 504 259 C 504 264 508 273 513 273 C 513 273 518 278 513 292 C 513 312 513 312 528 312 C 532 312 542 312 542 307 C 542 307 537 302 532 302 C 528 302 523 297 523 283 C 523 264 528 264 537 264 C 542 264 547 264 547 283 C 547 292 547 297 552 297 C 552 297 556 288 556 278 C 556 244 556 244 662 240 C 691 240 720 240 748 240 C 720 240 691 240 657 240 C 585 240 571 235 571 230 C 571 225 566 220 561 220 C 556 220 556 211 556 201 C 556 182 556 177 571 177 C 580 177 585 177 576 172 C 571 172 571 168 571 163 C 571 158 566 148 561 148 C 556 148 552 139 556 129 C 556 124 556 115 556 110 C 571 110 580 110 595 105 C 628 105 628 105 580 105 C 542 105 532 105 537 110 M 547 211 C 547 220 542 230 542 230 C 542 230 537 230 532 230 C 523 235 523 201 528 192 C 537 182 547 192 547 211 M 734 110 C 734 110 753 110 796 110 C 835 110 868 110 864 110 C 859 105 744 105 734 110 M 1123 139 C 1123 172 1123 172 1113 177 C 1108 177 1104 177 1099 177 C 1104 177 1108 177 1113 177 C 1123 177 1128 182 1128 211 C 1128 220 1128 230 1128 235 C 1113 240 1104 240 1094 240 C 1084 240 1070 240 1060 240 C 1070 240 1080 240 1094 240 C 1104 244 1113 244 1123 244 C 1123 254 1123 264 1123 273 C 1128 297 1123 302 1118 302 C 1118 302 1118 307 1118 312 C 1123 316 1128 331 1123 350 C 1123 379 1123 384 1137 379 C 1147 379 1147 379 1137 374 C 1132 369 1132 360 1132 340 C 1132 321 1132 316 1137 312 C 1147 312 1147 312 1137 312 C 1132 312 1132 302 1132 278 C 1132 254 1132 244 1137 244 C 1147 240 1147 240 1137 240 C 1132 240 1132 235 1132 211 C 1132 187 1132 177 1137 177 C 1142 177 1142 177 1137 172 C 1128 168 1128 115 1137 110 C 1142 110 1142 110 1137 110 C 1123 100 1123 100 1123 139 M 1291 110 C 1320 110 1363 110 1392 110 C 1416 110 1396 110 1339 110 C 1281 110 1262 110 1291 110 M 1795 110 C 1824 110 1876 110 1910 110 C 1939 110 1915 110 1852 110 C 1790 110 1761 110 1795 110 M 2332 110 C 2347 110 2371 110 2380 110 C 2395 110 2380 110 2356 110 C 2332 110 2318 110 2332 110 M 2836 110 C 2884 110 2904 115 2908 120 C 2908 124 2908 124 2908 120 C 2908 115 2923 110 2956 110 C 2985 110 2952 110 2889 110 C 2827 110 2803 110 2836 110 M 3297 110 C 3302 110 3312 110 3321 115 C 3321 124 3321 134 3321 144 C 3321 163 3316 177 3312 177 C 3307 177 3307 177 3312 177 C 3316 177 3321 187 3321 211 C 3321 220 3321 230 3321 240 C 3307 244 3292 244 3283 244 C 3268 244 3259 244 3244 244 C 3259 244 3268 244 3283 244 C 3292 244 3307 244 3321 244 C 3321 259 3321 268 3321 278 C 3321 288 3321 297 3321 307 C 3307 312 3292 312 3278 312 C 3264 312 3249 312 3235 312 C 3249 312 3264 312 3278 312 C 3292 312 3307 312 3321 316 C 3321 326 3321 336 3321 345 C 3321 355 3321 364 3321 374 C 3312 379 3302 379 3292 379 C 3278 379 3312 379 3369 379 C 3441 379 3451 379 3398 379 C 3374 379 3350 379 3326 374 C 3326 364 3326 355 3326 345 C 3326 336 3326 326 3326 316 C 3355 312 3384 312 3412 312 C 3441 312 3475 312 3504 312 C 3475 312 3441 312 3412 312 C 3384 312 3355 312 3326 307 C 3326 297 3326 288 3326 278 C 3326 259 3326 244 3331 244 C 3336 244 3336 244 3331 244 C 3326 244 3326 235 3326 211 C 3326 192 3326 177 3331 177 C 3336 177 3336 177 3331 177 C 3326 177 3326 163 3326 144 C 3326 134 3326 124 3326 115 C 3360 110 3398 110 3436 110 C 3542 110 3537 110 3412 110 C 3336 110 3283 110 3297 110 M 3849 110 C 3892 110 3964 110 4008 110 C 4051 110 4012 110 3931 110 C 3844 110 3806 110 3849 110 M 5284 110 C 5318 115 5318 115 5304 134 C 5289 148 5289 153 5289 230 C 5289 369 5289 388 5294 384 C 5294 384 5299 350 5299 316 C 5299 292 5299 273 5299 249 C 5328 249 5356 249 5385 249 C 5414 249 5443 249 5472 244 C 5472 259 5472 268 5472 278 C 5472 288 5472 297 5472 307 C 5452 312 5438 312 5424 312 C 5409 312 5395 312 5380 312 C 5395 312 5409 312 5424 312 C 5438 312 5452 312 5472 316 C 5472 326 5472 336 5472 345 C 5472 355 5472 364 5472 379 C 5452 379 5433 379 5414 379 C 5400 379 5380 379 5361 379 C 5380 379 5395 379 5414 379 C 5433 384 5448 384 5467 384 C 5467 388 5467 393 5472 403 C 5472 408 5472 412 5472 417 C 5472 412 5472 408 5472 403 C 5472 393 5476 384 5481 384 C 5486 384 5486 379 5481 379 C 5476 374 5472 364 5476 345 C 5476 336 5476 326 5476 316 C 5500 316 5524 316 5548 312 C 5572 312 5596 312 5620 312 C 5596 312 5572 312 5548 312 C 5524 312 5500 312 5476 307 C 5476 302 5476 297 5476 288 C 5476 244 5472 244 5558 249 C 5582 249 5611 249 5635 249 C 5635 273 5635 292 5635 316 C 5635 336 5635 355 5635 379 C 5616 379 5601 379 5582 384 C 5568 384 5553 384 5534 384 C 5553 384 5568 384 5587 384 C 5601 384 5620 384 5635 388 C 5640 398 5640 408 5640 417 C 5640 432 5640 441 5640 451 C 5640 441 5640 432 5640 417 C 5640 408 5640 398 5640 388 C 5654 384 5668 384 5678 384 C 5692 384 5702 384 5716 384 C 5707 384 5692 384 5683 384 C 5664 384 5649 379 5644 374 C 5640 364 5640 331 5644 316 C 5649 312 5649 307 5644 307 C 5644 307 5640 292 5640 278 C 5640 249 5644 244 5683 244 C 5697 244 5707 244 5707 244 C 5707 240 5707 230 5712 220 C 5721 211 5721 206 5716 196 C 5716 187 5716 182 5721 177 C 5721 177 5688 177 5640 177 C 5563 172 5558 172 5553 168 C 5544 144 5510 139 5481 163 C 5472 172 5467 177 5419 177 C 5400 177 5385 177 5366 177 C 5385 177 5400 177 5419 177 C 5433 182 5452 182 5467 182 C 5467 192 5467 201 5467 211 C 5467 220 5472 230 5472 244 C 5443 240 5414 240 5385 240 C 5356 240 5328 240 5299 240 C 5299 230 5299 220 5299 211 C 5299 201 5299 192 5299 182 C 5308 182 5323 182 5332 182 C 5352 182 5361 177 5361 172 C 5361 172 5361 168 5366 163 C 5371 153 5376 144 5371 134 C 5371 129 5371 120 5371 115 C 5414 115 5457 115 5500 110 C 5625 110 5620 110 5448 110 C 5352 110 5280 110 5284 110 M 5659 182 C 5659 182 5654 192 5649 201 C 5644 206 5635 220 5635 230 C 5635 235 5635 240 5635 240 C 5611 240 5582 240 5558 240 C 5481 240 5476 240 5476 235 C 5476 230 5476 220 5476 216 C 5476 211 5481 211 5491 211 C 5505 216 5524 211 5539 192 C 5553 182 5553 177 5606 177 C 5635 177 5659 182 5659 182 M 5798 110 C 5808 115 5808 120 5808 177 C 5808 201 5808 220 5808 240 C 5798 244 5784 244 5769 244 C 5755 244 5745 244 5731 244 C 5745 244 5755 244 5769 244 C 5784 244 5798 244 5808 244 C 5808 259 5808 268 5808 278 C 5808 297 5808 307 5803 307 C 5803 307 5803 312 5803 316 C 5808 321 5812 336 5808 350 C 5808 369 5808 384 5812 384 C 5812 384 5812 321 5812 244 C 5812 201 5812 153 5812 110 C 5808 110 5803 110 5798 110 C 5788 110 5788 110 5798 110 M 2908 148 C 2908 158 2908 168 2908 172 C 2870 177 2836 177 2803 177 C 2769 177 2731 177 2697 177 C 2731 177 2769 177 2803 177 C 2836 177 2870 177 2908 177 C 2908 192 2908 201 2908 211 C 2908 220 2908 230 2908 240 C 2889 244 2875 244 2856 244 C 2841 244 2822 244 2808 244 C 2822 244 2841 244 2856 244 C 2875 244 2889 244 2908 244 C 2908 259 2908 268 2908 278 C 2908 288 2908 297 2908 307 C 2870 312 2836 312 2798 312 C 2697 312 2697 312 2774 312 C 2817 312 2856 316 2856 316 C 2856 316 2846 326 2841 336 C 2832 345 2827 355 2832 364 C 2832 369 2832 374 2832 374 C 2812 379 2788 379 2764 379 C 2721 379 2731 379 2803 379 C 2860 379 2904 379 2899 379 C 2889 374 2889 374 2899 364 C 2904 360 2908 350 2908 336 C 2913 331 2913 321 2913 316 C 2923 316 2932 316 2942 312 C 2952 312 2961 312 2971 312 C 2961 312 2952 312 2942 312 C 2932 312 2923 312 2913 307 C 2913 297 2913 288 2913 278 C 2913 249 2913 244 2918 244 C 2928 244 2928 244 2918 240 C 2904 235 2908 182 2923 177 C 2923 177 2928 177 2932 177 C 2928 177 2928 177 2923 177 C 2913 177 2913 172 2908 148 C 2908 139 2908 134 2908 124 C 2908 134 2908 139 2908 148 M 1267 148 C 1276 172 1276 172 1209 177 C 1185 177 1166 177 1142 177 C 1166 177 1190 177 1209 177 C 1248 177 1281 182 1281 182 C 1281 187 1272 196 1267 206 C 1257 220 1252 230 1252 230 C 1252 235 1233 235 1200 235 C 1137 235 1142 240 1209 244 C 1224 244 1243 244 1262 244 C 1267 249 1272 254 1276 264 C 1281 268 1286 273 1291 278 C 1281 278 1276 283 1272 283 C 1257 283 1248 288 1243 297 C 1238 307 1238 307 1200 312 C 1185 312 1171 312 1156 312 C 1171 312 1185 312 1200 312 C 1238 312 1243 316 1257 326 C 1276 350 1286 350 1276 336 C 1272 326 1272 316 1272 316 C 1272 316 1305 312 1344 312 C 1368 312 1396 312 1420 312 C 1396 312 1372 312 1353 312 C 1310 312 1286 307 1286 302 C 1286 302 1296 297 1305 297 C 1310 297 1315 297 1320 297 C 1315 292 1310 288 1300 283 C 1286 259 1286 244 1300 244 C 1305 244 1310 244 1310 244 C 1310 240 1305 235 1300 235 C 1291 235 1291 230 1305 216 C 1315 211 1320 201 1315 192 C 1315 187 1315 182 1315 182 C 1339 177 1368 177 1392 177 C 1420 177 1444 177 1473 177 C 1444 177 1416 177 1387 177 C 1358 177 1329 177 1305 172 C 1296 168 1291 163 1281 158 C 1267 144 1262 144 1267 148 M 1526 148 C 1492 158 1488 168 1488 240 C 1488 283 1488 307 1483 307 C 1483 307 1483 312 1488 316 C 1488 321 1492 336 1488 355 C 1488 369 1488 388 1492 398 C 1492 403 1492 408 1492 412 C 1492 408 1492 403 1492 398 C 1497 388 1497 340 1497 292 C 1497 264 1497 235 1497 211 C 1502 211 1512 211 1521 211 C 1560 211 1588 177 1564 153 C 1555 144 1540 144 1526 148 M 5112 153 C 5116 153 5116 163 5116 168 C 5116 172 5112 172 4987 172 C 4857 172 4857 172 4857 168 C 4857 148 4848 148 4843 163 C 4843 172 4843 192 4843 211 C 4843 220 4843 230 4843 240 C 4838 240 4833 240 4828 244 C 4819 244 4814 244 4809 244 C 4814 244 4824 244 4828 244 C 4833 244 4838 244 4848 244 C 4848 259 4848 268 4843 283 C 4843 331 4843 331 4857 321 C 4867 316 4886 312 4939 312 C 4958 312 4982 312 5006 312 C 4987 312 4963 312 4944 312 C 4924 307 4905 307 4881 307 C 4886 302 4891 297 4896 292 C 4905 283 4910 273 4905 264 C 4905 259 4905 254 4905 244 C 4939 244 4972 244 5006 244 C 5035 244 5068 244 5102 244 C 5107 254 5112 259 5116 264 C 5136 283 5136 288 5121 288 C 5112 288 5102 292 5092 297 C 5083 307 5078 316 5078 316 C 5083 316 5092 321 5102 331 C 5121 350 5131 355 5126 340 C 5116 326 5116 321 5131 316 C 5140 312 5140 312 5136 307 C 5131 307 5136 307 5145 307 C 5164 302 5164 302 5150 283 C 5145 278 5136 268 5136 264 C 5136 259 5136 254 5136 254 C 5136 249 5160 249 5184 244 C 5203 244 5217 244 5236 244 C 5222 244 5203 244 5188 244 C 5136 240 5136 240 5155 216 C 5169 201 5169 196 5160 192 C 5160 192 5160 187 5160 182 C 5160 177 5160 172 5155 172 C 5150 172 5140 168 5131 163 C 5121 153 5116 148 5112 148 C 5112 148 5112 148 5112 153 M 5121 187 C 5121 187 5116 201 5112 211 C 5102 220 5092 235 5092 235 C 5092 240 5059 240 4977 240 C 4934 240 4896 240 4857 240 C 4857 230 4857 220 4857 211 C 4857 201 4857 192 4857 177 C 4900 177 4944 177 4987 177 C 5078 177 5121 182 5121 187 M 4886 259 C 4891 268 4881 288 4867 302 C 4857 312 4852 312 4852 283 C 4852 254 4872 240 4886 259 M 3144 168 C 3144 172 3144 206 3144 240 C 3144 288 3144 307 3139 312 C 3134 312 3134 312 3139 312 C 3144 312 3144 321 3144 331 C 3144 340 3144 345 3144 350 C 3139 350 3129 350 3120 350 C 3091 350 3067 374 3072 393 C 3081 417 3115 422 3139 398 C 3153 384 3153 384 3153 355 C 3148 331 3153 321 3153 316 C 3158 312 3158 312 3153 307 C 3153 302 3148 292 3153 273 C 3158 240 3158 168 3148 163 C 3148 158 3144 163 3144 168 M 9 283 C 9 316 9 355 9 393 C 19 398 28 398 33 403 C 43 403 52 408 62 412 C 62 460 62 513 62 561 C 62 609 62 662 62 710 C 52 715 43 720 33 724 C 24 729 14 734 9 734 C 9 763 4 792 4 820 C 4 868 4 1075 4 1276 C 4 1401 4 1521 4 1646 C 9 1646 14 1651 19 1656 C 28 1660 38 1665 48 1665 C 57 1670 57 1670 43 1656 C 38 1651 33 1646 28 1641 C 28 1555 33 1464 33 1377 C 33 1228 33 1022 33 921 C 38 859 38 796 38 734 C 38 729 43 729 48 729 C 52 724 57 724 62 724 C 62 878 62 1032 62 1185 C 62 1339 62 1492 62 1646 C 100 1641 139 1641 177 1641 C 216 1641 254 1641 292 1641 C 254 1641 216 1641 177 1641 C 139 1641 105 1641 67 1636 C 67 1617 67 1598 67 1579 C 67 1560 67 1540 67 1521 C 72 1516 72 1516 76 1512 C 81 1512 86 1507 91 1507 C 86 1507 81 1507 76 1507 C 67 1502 67 1502 67 1478 C 67 1454 67 1444 72 1444 C 76 1444 81 1444 81 1440 C 81 1440 81 1435 76 1440 C 67 1440 67 1435 67 1411 C 62 1382 67 1382 76 1382 C 81 1382 86 1377 81 1377 C 81 1372 76 1372 72 1372 C 62 1372 67 1022 72 1017 C 76 1012 76 1012 72 1008 C 67 1008 67 998 67 984 C 67 950 67 945 105 945 C 115 945 124 945 134 945 C 139 955 144 960 148 964 C 153 979 168 988 172 993 C 187 1008 187 1008 129 1012 C 100 1012 124 1012 172 1012 C 244 1012 268 1017 268 1022 C 268 1022 273 1036 273 1041 C 278 1051 278 1056 278 1060 C 278 1051 278 1046 278 1036 C 278 1032 278 1027 278 1017 C 302 1017 326 1017 350 1012 C 379 1012 403 1012 427 1012 C 408 1012 384 1012 364 1012 C 331 1012 302 1008 302 1008 C 302 1008 312 998 316 988 C 326 979 331 969 331 964 C 331 955 336 950 340 950 C 350 945 350 945 340 945 C 336 945 331 936 331 926 C 326 916 321 902 316 897 C 297 883 302 883 398 878 C 489 878 489 878 369 878 C 240 873 244 878 244 844 C 244 820 254 816 336 811 C 355 811 379 811 403 811 C 384 811 364 811 340 811 C 268 806 268 811 278 787 C 283 777 288 763 288 758 C 288 748 292 748 350 744 C 369 744 388 744 408 744 C 388 744 369 744 350 744 C 331 744 312 744 292 744 C 292 734 288 729 288 720 C 283 686 268 657 254 662 C 240 662 220 686 216 710 C 216 720 211 734 211 734 C 211 739 192 744 139 744 C 115 744 91 744 72 744 C 67 724 67 710 67 691 C 67 667 67 585 67 518 C 67 422 67 388 72 384 C 72 379 72 374 72 369 C 67 364 67 345 67 302 C 67 283 72 264 72 240 C 81 240 96 240 110 240 C 120 240 134 240 148 240 C 148 244 144 249 144 254 C 144 264 139 278 139 288 C 139 292 134 297 134 302 C 124 307 115 307 105 307 C 91 307 81 307 72 307 C 81 307 96 307 105 307 C 115 307 124 307 134 307 C 139 316 144 321 148 331 C 158 340 168 355 172 360 C 187 374 187 374 153 379 C 139 379 163 379 201 379 C 225 379 244 379 268 384 C 273 393 273 403 278 412 C 278 432 278 451 278 460 C 278 465 278 470 283 470 C 288 465 288 436 283 403 C 278 384 278 384 292 384 C 297 384 302 379 302 374 C 302 374 312 364 316 355 C 321 350 331 336 331 326 C 331 321 336 316 340 316 C 340 316 340 312 340 307 C 336 307 331 297 331 288 C 331 283 321 268 316 264 C 312 259 307 254 302 249 C 307 244 312 244 316 244 C 321 244 331 240 340 240 C 350 240 331 240 302 240 C 249 240 249 235 244 225 C 235 187 244 177 331 177 C 369 177 403 177 398 177 C 393 172 168 168 168 172 C 168 177 172 177 187 177 C 192 177 196 177 206 177 C 196 187 187 201 177 211 C 172 220 163 230 153 235 C 139 235 124 235 110 235 C 96 235 81 235 72 235 C 72 225 72 216 72 206 C 72 187 67 172 67 172 C 62 172 57 216 57 288 C 57 326 57 364 57 403 C 52 403 48 398 48 398 C 43 393 38 388 33 388 C 33 350 33 316 33 278 C 33 244 38 206 38 172 C 33 172 28 172 24 172 C 19 172 14 172 4 172 C 9 206 9 244 9 283 M 240 225 C 240 235 235 235 220 235 C 201 235 201 230 216 220 C 230 206 240 211 240 225 M 220 244 C 220 244 211 254 206 264 C 201 268 192 283 192 292 C 187 302 187 302 177 302 C 163 302 163 283 182 259 C 192 244 220 235 220 244 M 278 273 C 288 273 307 292 307 297 C 307 302 307 302 302 302 C 297 302 292 307 292 307 C 292 312 297 316 302 316 C 326 316 307 360 288 364 C 273 364 268 360 264 331 C 264 316 264 316 273 316 C 278 316 283 312 283 312 C 283 307 283 307 273 307 C 264 312 259 302 259 283 C 259 268 259 264 264 268 C 268 268 273 273 278 273 M 249 288 C 254 302 254 307 225 302 C 216 302 211 302 201 302 C 206 297 211 292 216 288 C 230 268 244 268 249 288 M 249 312 C 254 316 268 364 264 369 C 259 374 220 374 206 364 C 187 355 168 331 168 321 C 168 307 187 312 196 331 C 201 336 206 340 206 345 C 206 340 206 336 206 331 C 201 316 211 312 235 312 C 240 312 244 312 249 312 M 273 700 C 273 705 273 715 273 724 C 273 739 273 739 249 739 C 225 744 225 744 235 720 C 249 686 259 681 273 700 M 216 777 C 220 792 220 806 220 806 C 216 806 182 806 144 806 C 120 806 96 806 72 806 C 72 801 67 792 67 787 C 67 744 62 748 139 748 C 163 748 187 748 211 748 C 216 753 216 768 216 777 M 264 753 C 264 763 235 796 230 792 C 225 782 220 753 225 748 C 230 744 264 744 264 753 M 182 840 C 148 878 153 878 110 873 C 96 873 86 873 72 873 C 72 864 72 854 72 844 C 72 835 72 825 67 811 C 91 811 115 811 139 811 C 158 811 182 811 206 811 C 196 820 192 830 182 840 M 235 859 C 240 873 230 878 216 873 C 211 873 206 868 201 868 C 206 864 211 864 216 859 C 225 844 235 844 235 859 M 144 892 C 144 897 139 912 139 921 C 139 931 134 936 134 940 C 124 940 110 940 100 940 C 62 940 62 940 67 931 C 67 926 67 912 67 902 C 72 892 72 888 72 878 C 81 878 96 878 110 878 C 148 878 148 883 144 892 M 216 883 C 216 883 211 892 201 902 C 196 907 192 921 192 926 C 187 936 182 940 177 940 C 163 945 163 921 182 897 C 192 883 216 873 216 883 M 292 921 C 316 940 312 945 283 940 C 259 940 259 940 254 926 C 249 897 268 897 292 921 M 249 916 C 249 916 249 926 249 931 C 254 940 249 940 230 940 C 206 940 201 936 216 921 C 230 907 244 907 249 916 M 192 960 C 201 974 206 974 206 960 C 206 950 206 950 230 950 C 240 950 244 950 254 950 C 254 960 259 969 259 979 C 268 1008 264 1012 235 1008 C 211 1008 177 988 172 969 C 158 950 177 940 192 960 M 312 960 C 316 974 292 998 278 998 C 273 998 259 960 264 950 C 268 940 312 950 312 960 M 600 172 C 590 177 643 177 710 177 C 753 182 792 182 835 182 C 835 187 835 192 835 192 C 840 206 840 206 883 206 C 897 206 907 206 921 211 C 921 206 926 201 926 196 C 926 182 926 182 950 177 C 969 177 912 177 676 172 C 643 172 609 172 600 172 M 1713 177 C 1742 177 1766 182 1766 182 C 1766 182 1756 192 1752 196 C 1747 206 1742 216 1742 225 C 1742 230 1737 240 1732 240 C 1728 240 1728 244 1732 244 C 1737 249 1742 259 1737 278 C 1737 307 1737 307 1723 312 C 1718 312 1713 312 1708 312 C 1713 312 1718 312 1723 312 C 1728 312 1732 312 1742 316 C 1742 326 1742 336 1742 345 C 1742 355 1742 364 1742 374 C 1728 379 1718 379 1704 379 C 1694 379 1680 379 1670 379 C 1680 379 1694 379 1704 379 C 1718 379 1728 379 1737 384 C 1742 393 1742 403 1742 412 C 1742 422 1742 436 1742 446 C 1742 436 1742 427 1742 412 C 1742 403 1742 393 1747 384 C 1780 379 1819 379 1857 379 C 1896 379 1934 379 1972 379 C 1934 379 1896 379 1857 379 C 1819 379 1780 379 1747 379 C 1747 364 1747 355 1747 345 C 1747 336 1747 326 1747 316 C 1776 312 1809 312 1838 312 C 1872 312 1900 312 1934 312 C 1900 312 1872 312 1838 312 C 1809 312 1776 312 1742 307 C 1747 297 1747 288 1747 278 C 1747 268 1747 259 1747 249 C 1761 249 1780 249 1795 244 C 1824 244 1838 244 1828 244 C 1804 240 1800 240 1814 220 C 1819 211 1824 206 1819 196 C 1819 192 1819 187 1819 182 C 1838 177 1857 177 1876 177 C 1905 177 1872 177 1800 177 C 1723 177 1684 177 1713 177 M 3384 177 C 3403 177 3436 177 3456 177 C 3480 177 3460 177 3422 177 C 3379 177 3360 177 3384 177 M 3830 177 C 3864 177 3916 177 3950 177 C 3984 177 3955 177 3888 177 C 3820 177 3796 177 3830 177 M 2020 216 C 2011 220 2001 225 2001 230 C 2001 230 1996 235 1987 240 C 1977 244 1977 244 1982 244 C 1987 244 1987 259 1987 364 C 1987 427 1992 480 1992 480 C 1992 484 1996 456 1996 326 C 1996 312 1996 292 1996 273 C 2001 278 2006 278 2006 278 C 2040 283 2083 254 2073 230 C 2064 206 2044 206 2020 216 M 1372 244 C 1387 244 1401 244 1411 244 C 1420 244 1411 244 1392 244 C 1372 244 1363 244 1372 244 M 1881 244 C 1900 244 1924 244 1944 244 C 1958 244 1944 244 1910 244 C 1876 244 1862 244 1881 244 M 2481 244 C 2496 244 2510 244 2520 244 C 2529 244 2520 244 2500 244 C 2481 244 2472 244 2481 244 M 3388 244 C 3422 244 3465 244 3494 244 C 3523 244 3499 244 3441 244 C 3384 244 3360 244 3388 244 M 3883 244 C 3926 244 3998 244 4041 244 C 4084 244 4046 244 3960 244 C 3873 244 3840 244 3883 244 M 753 312 C 787 312 830 312 859 312 C 888 312 864 312 806 312 C 748 312 724 312 753 312 M 3859 312 C 3883 312 3926 312 3950 312 C 3974 312 3950 312 3902 312 C 3854 312 3830 312 3859 312 M 5673 316 C 5683 316 5697 316 5707 316 C 5716 316 5712 316 5688 316 C 5668 316 5664 316 5673 316 M 340 379 C 355 379 379 379 393 379 C 408 379 398 379 364 379 C 336 379 326 379 340 379 M 748 379 C 777 379 820 379 849 379 C 873 379 854 379 796 379 C 744 379 724 379 748 379 M 1228 379 C 1276 379 1348 379 1396 379 C 1440 379 1401 379 1315 379 C 1224 379 1185 379 1228 379 M 2304 379 C 2328 379 2361 379 2385 379 C 2404 379 2390 379 2347 379 C 2299 379 2284 379 2304 379 M 3513 384 C 3513 388 3513 393 3508 393 C 3489 412 3504 441 3532 446 C 3547 451 3552 446 3542 436 C 3532 422 3532 388 3547 384 C 3566 379 3585 398 3580 427 C 3580 446 3580 446 3590 446 C 3614 436 3624 417 3609 398 C 3600 388 3600 384 3609 379 C 3609 379 3595 379 3561 379 C 3518 379 3508 379 3513 384 M 3820 379 C 3849 379 3892 379 3921 379 C 3945 379 3926 379 3868 379 C 3811 379 3792 379 3820 379 M 4852 379 C 4881 379 4924 379 4953 379 C 4982 379 4958 379 4905 379 C 4848 379 4824 379 4852 379 M 5064 384 C 5073 384 5097 384 5107 384 C 5121 384 5112 384 5083 384 C 5059 384 5049 384 5064 384 M 192 432 C 163 465 220 518 259 489 C 264 489 259 489 244 489 C 225 494 220 484 235 475 C 249 465 254 436 240 432 C 225 422 201 422 192 432 M 926 691 C 926 715 926 739 921 739 C 921 739 921 744 921 748 C 926 753 926 763 926 772 C 921 806 921 806 902 811 C 888 811 888 811 897 811 C 902 816 907 816 912 816 C 907 820 902 825 892 825 C 888 835 873 840 868 840 C 859 840 859 840 868 844 C 878 849 902 844 912 835 C 921 825 921 825 926 854 C 926 859 926 864 926 873 C 868 873 816 873 758 878 C 700 878 648 878 590 878 C 638 878 686 878 729 878 C 806 878 868 883 868 883 C 868 883 864 892 859 902 C 849 916 849 921 849 931 C 854 950 854 955 864 955 C 873 955 873 955 864 964 C 849 979 844 988 854 998 C 854 998 854 1003 849 1008 C 844 1012 854 1017 883 1017 C 907 1017 916 1012 916 1008 C 916 1008 916 1003 921 998 C 931 988 940 945 936 940 C 931 936 931 921 931 907 C 931 897 936 892 936 883 C 940 878 950 878 955 878 C 964 878 969 878 979 878 C 969 878 964 878 955 878 C 950 878 940 878 936 873 C 936 840 936 801 936 763 C 936 705 931 652 931 652 C 931 648 926 667 926 691 M 921 892 C 926 897 907 926 892 931 C 864 945 849 931 873 907 C 892 888 916 883 921 892 M 916 964 C 916 979 902 993 883 998 C 859 1008 854 1003 864 988 C 873 964 916 945 916 964 M 1564 696 C 1564 724 1564 744 1560 744 C 1560 744 1560 744 1560 748 C 1574 763 1564 782 1540 782 C 1512 782 1488 806 1492 825 C 1497 849 1521 854 1545 840 C 1555 835 1564 830 1564 830 C 1569 835 1569 868 1560 873 C 1560 873 1560 878 1564 883 C 1564 888 1564 897 1564 916 C 1560 945 1560 945 1550 945 C 1536 940 1502 945 1507 950 C 1507 955 1507 960 1497 969 C 1492 974 1488 988 1488 998 C 1488 1003 1488 1008 1488 1017 C 1507 1012 1521 1012 1536 1012 C 1560 1012 1574 1012 1564 1012 C 1550 1008 1550 1008 1564 993 C 1574 979 1574 974 1574 816 C 1574 724 1569 652 1569 652 C 1569 648 1564 672 1564 696 M 2064 696 C 2064 724 2064 768 2064 796 C 2064 811 2064 830 2064 849 C 2059 849 2049 849 2044 849 C 2011 849 1982 873 1992 897 C 1992 902 2001 912 2006 912 C 2011 916 2011 916 2011 916 C 2011 921 1987 945 1977 950 C 1972 950 1972 950 1982 950 C 1987 950 1987 955 1987 960 C 1987 969 2006 979 2025 979 C 2040 979 2088 945 2078 945 C 2068 940 2068 888 2078 883 C 2083 883 2083 878 2078 878 C 2073 873 2073 840 2073 763 C 2073 705 2068 652 2068 652 C 2068 648 2064 672 2064 696 M 2424 710 C 2424 720 2424 734 2424 744 C 2404 744 2385 744 2371 748 C 2352 748 2332 748 2313 748 C 2332 748 2352 748 2371 748 C 2390 748 2409 748 2424 748 C 2424 758 2424 768 2424 777 C 2424 796 2424 811 2419 811 C 2414 811 2414 811 2419 811 C 2424 811 2424 825 2424 844 C 2424 854 2424 864 2424 873 C 2409 878 2395 878 2380 878 C 2352 878 2337 878 2347 878 C 2347 883 2356 883 2361 883 C 2366 883 2371 883 2371 883 C 2371 892 2366 897 2361 902 C 2352 916 2352 926 2352 931 C 2352 936 2352 945 2352 945 C 2352 950 2366 955 2390 955 C 2404 955 2414 955 2428 955 C 2428 960 2424 964 2424 969 C 2424 984 2424 984 2400 984 C 2366 984 2342 1008 2352 1032 C 2356 1051 2371 1056 2395 1046 C 2414 1041 2443 1012 2438 1008 C 2433 1008 2428 993 2428 979 C 2428 955 2433 950 2443 950 C 2443 950 2448 950 2452 950 C 2448 950 2443 950 2443 945 C 2433 945 2428 940 2428 916 C 2428 907 2428 897 2428 883 C 2448 883 2467 883 2481 883 C 2500 883 2515 883 2534 883 C 2520 883 2500 883 2486 883 C 2457 883 2438 878 2433 873 C 2433 873 2433 844 2433 811 C 2433 792 2433 772 2433 748 C 2438 748 2443 748 2452 748 C 2457 748 2467 748 2472 748 C 2467 748 2457 748 2452 748 C 2448 744 2438 744 2433 744 C 2433 734 2433 720 2428 710 C 2428 700 2428 686 2428 676 C 2428 686 2428 700 2424 710 M 638 744 C 672 744 734 744 768 744 C 806 744 777 744 705 744 C 628 744 600 744 638 744 M 1190 744 C 1214 744 1257 744 1281 744 C 1305 744 1281 744 1233 744 C 1185 744 1161 744 1190 744 M 1656 744 C 1665 744 1680 744 1689 744 C 1699 744 1694 744 1675 744 C 1651 744 1646 744 1656 744 M 1809 748 C 1824 748 1848 748 1862 748 C 1876 748 1862 748 1833 748 C 1804 748 1795 748 1809 748 M 1915 748 C 1924 748 1948 748 1958 748 C 1972 748 1963 748 1934 748 C 1910 748 1900 748 1915 748 M 2232 753 C 2241 758 2241 792 2236 801 C 2232 806 2212 811 2179 811 C 2160 811 2145 811 2126 811 C 2145 811 2164 811 2179 811 C 2241 816 2241 816 2236 854 C 2236 859 2236 868 2236 873 C 2222 873 2212 873 2198 878 C 2164 878 2160 878 2188 878 C 2203 883 2217 883 2222 883 C 2236 878 2236 878 2236 945 C 2236 969 2236 988 2241 988 C 2246 988 2246 969 2246 916 C 2241 902 2241 892 2241 883 C 2251 878 2256 878 2265 878 C 2270 878 2280 878 2284 878 C 2280 878 2270 878 2265 878 C 2256 878 2251 878 2246 873 C 2246 864 2246 854 2246 844 C 2246 835 2246 825 2246 816 C 2270 811 2294 811 2323 811 C 2347 811 2376 811 2400 811 C 2376 811 2347 811 2323 811 C 2294 811 2270 811 2241 806 C 2241 796 2246 787 2246 777 C 2246 748 2246 748 2236 748 C 2232 748 2227 748 2232 753 M 2899 748 C 2904 753 2908 758 2908 782 C 2908 792 2908 796 2908 806 C 2875 811 2841 811 2808 811 C 2779 811 2745 811 2712 811 C 2745 811 2779 811 2808 811 C 2841 811 2875 811 2908 811 C 2904 825 2904 835 2904 844 C 2904 859 2904 868 2904 878 C 2889 878 2875 878 2860 883 C 2846 883 2832 883 2817 883 C 2832 883 2846 883 2860 883 C 2875 883 2889 883 2908 883 C 2904 897 2904 907 2904 916 C 2904 926 2904 936 2904 945 C 2894 945 2884 945 2875 950 C 2856 950 2846 950 2846 950 C 2851 950 2851 960 2841 969 C 2827 988 2827 1017 2841 1017 C 2851 1022 2851 1022 2841 1036 C 2822 1065 2832 1084 2860 1084 C 2889 1084 2913 1065 2913 1036 C 2913 1032 2913 1027 2913 1022 C 2928 1017 2942 1017 2961 1017 C 2976 1017 2995 1017 3009 1017 C 2995 1017 2980 1017 2966 1017 C 2913 1012 2913 1012 2913 979 C 2913 960 2913 955 2918 950 C 2928 950 2928 950 2918 950 C 2908 945 2908 883 2918 883 C 2923 883 2923 883 2918 878 C 2913 878 2913 864 2913 849 C 2913 830 2913 816 2918 816 C 2923 811 2923 806 2918 806 C 2913 806 2913 801 2913 782 C 2913 772 2913 763 2913 753 C 2918 748 2923 748 2932 748 C 2947 748 2942 748 2918 748 C 2904 748 2894 748 2899 748 M 878 787 C 859 796 844 811 844 816 C 849 820 849 825 854 830 C 854 840 854 840 859 825 C 864 820 868 811 873 811 C 883 811 883 811 883 806 C 883 801 888 796 897 792 C 907 792 912 787 912 782 C 912 777 888 777 878 787 M 1267 792 C 1276 806 1276 806 1209 811 C 1185 811 1166 811 1142 811 C 1166 811 1185 811 1209 811 C 1281 816 1286 816 1262 844 C 1257 854 1252 864 1252 868 C 1252 873 1243 873 1195 878 C 1180 878 1161 878 1142 878 C 1161 878 1180 878 1200 878 C 1219 878 1238 878 1257 878 C 1262 888 1267 892 1272 897 C 1291 916 1291 926 1281 921 C 1267 916 1252 921 1243 936 C 1238 945 1238 950 1252 960 C 1272 979 1281 984 1272 964 C 1267 955 1272 950 1305 945 C 1310 945 1320 945 1324 945 C 1320 945 1310 945 1305 940 C 1296 940 1291 940 1281 940 C 1286 940 1296 940 1300 940 C 1305 940 1315 940 1320 936 C 1315 936 1310 931 1310 926 C 1272 888 1276 883 1363 878 C 1387 878 1416 878 1440 878 C 1416 878 1392 878 1368 878 C 1324 878 1296 873 1296 873 C 1296 868 1300 859 1310 849 C 1315 840 1320 830 1315 830 C 1315 830 1315 820 1315 816 C 1315 811 1315 806 1305 806 C 1300 806 1291 801 1286 796 C 1267 777 1257 772 1267 792 M 3777 787 C 3787 806 3787 835 3772 849 C 3758 868 3753 883 3763 883 C 3768 883 3777 892 3787 902 C 3801 921 3801 926 3792 921 C 3772 921 3763 926 3758 936 C 3753 940 3753 945 3748 950 C 3758 955 3763 960 3772 969 C 3796 988 3796 988 3787 969 C 3782 955 3782 955 3796 945 C 3806 940 3820 936 3820 936 C 3825 936 3825 931 3816 921 C 3796 902 3796 892 3806 888 C 3811 883 3811 883 3811 878 C 3806 873 3816 854 3825 844 C 3830 844 3830 840 3825 830 C 3820 825 3820 820 3820 811 C 3840 811 3859 811 3878 811 C 3897 811 3916 811 3936 811 C 3936 825 3936 835 3936 844 C 3936 859 3936 868 3936 878 C 3912 883 3892 883 3873 883 C 3854 883 3835 883 3816 883 C 3835 883 3854 883 3873 883 C 3892 883 3916 883 3936 883 C 3936 897 3931 907 3931 921 C 3931 960 3936 969 3945 960 C 3945 955 3955 950 3955 950 C 3969 950 3993 916 3993 902 C 3993 888 3998 883 4012 883 C 4017 883 4022 883 4027 883 C 4022 897 4022 907 4022 916 C 4022 926 4022 936 4022 945 C 4012 945 4008 945 3998 950 C 3988 950 3984 950 3974 950 C 3984 950 3993 950 3998 950 C 4008 950 4017 950 4027 955 C 4022 964 4022 974 4022 984 C 4022 993 4022 1003 4022 1012 C 3998 1012 3974 1012 3955 1017 C 3931 1017 3907 1017 3883 1017 C 3907 1017 3931 1017 3955 1017 C 3979 1017 3998 1017 4022 1022 C 4027 1027 4027 1036 4027 1041 C 4027 1051 4027 1056 4027 1065 C 4027 1056 4027 1051 4027 1041 C 4027 1036 4027 1027 4027 1022 C 4046 1017 4060 1017 4075 1017 C 4089 1017 4108 1017 4123 1017 C 4108 1017 4094 1017 4075 1017 C 4060 1012 4046 1012 4032 1012 C 4032 1003 4032 993 4032 984 C 4032 974 4027 964 4027 955 C 4041 950 4056 950 4070 950 C 4094 950 4108 950 4099 950 C 4084 945 4084 940 4094 931 C 4104 926 4104 916 4104 907 C 4104 892 4099 892 4094 907 C 4089 926 4032 950 4032 931 C 4032 912 4084 888 4137 883 C 4152 883 4137 883 4099 883 C 4075 878 4056 878 4032 878 C 4032 873 4032 868 4032 859 C 4027 844 4027 844 4041 844 C 4075 849 4113 825 4108 801 C 4104 787 4094 787 4094 796 C 4094 801 4094 806 4084 811 C 4080 811 4080 816 4080 820 C 4080 825 4060 835 4046 835 C 4032 840 4032 825 4041 820 C 4046 816 4056 816 4060 816 C 4065 820 4065 816 4065 816 C 4065 811 4065 806 4060 806 C 4051 806 4070 792 4080 792 C 4084 792 4084 787 4084 782 C 4084 772 4051 782 4036 796 C 4022 811 4022 811 4022 844 C 4022 859 4027 868 4027 878 C 4012 878 3998 878 3984 878 C 3969 878 3955 878 3945 878 C 3945 868 3945 859 3945 849 C 3945 825 3945 811 3950 811 C 3955 811 3955 811 3950 811 C 3945 811 3945 801 3945 796 C 3945 792 3940 787 3940 787 C 3936 787 3936 792 3936 796 C 3936 801 3936 806 3936 806 C 3912 806 3892 806 3873 806 C 3849 806 3830 806 3811 806 C 3806 806 3801 801 3796 796 C 3782 777 3772 777 3777 787 M 3974 897 C 3974 902 3974 907 3974 912 C 3974 916 3950 940 3945 940 C 3940 940 3940 897 3950 892 C 3960 888 3969 892 3974 897 M 3148 801 C 3144 806 3144 849 3144 897 C 3144 926 3144 955 3144 988 C 3144 984 3139 984 3134 984 C 3091 974 3052 1022 3086 1046 C 3086 1051 3091 1056 3096 1056 C 3091 1060 3086 1065 3081 1070 C 3057 1094 3076 1123 3115 1113 C 3144 1108 3153 1089 3153 1056 C 3153 1036 3153 1022 3158 1022 C 3163 1017 3163 1017 3163 1012 C 3153 1008 3148 964 3153 955 C 3158 950 3158 945 3153 945 C 3148 940 3148 892 3158 888 C 3163 883 3163 883 3158 878 C 3148 873 3148 868 3153 840 C 3153 820 3153 801 3148 796 C 3148 787 3148 787 3148 801 M 638 811 C 676 811 739 811 772 811 C 811 811 777 811 705 811 C 633 811 600 811 638 811 M 1348 811 C 1368 811 1392 811 1406 811 C 1420 811 1411 811 1377 811 C 1344 811 1334 811 1348 811 M 1675 811 C 1752 816 1771 816 1761 820 C 1752 830 1742 849 1742 864 C 1742 868 1742 873 1742 873 C 1713 878 1689 878 1665 878 C 1641 878 1612 878 1588 878 C 1612 878 1636 878 1665 878 C 1689 883 1713 883 1737 883 C 1737 902 1737 926 1737 945 C 1737 969 1737 988 1737 1012 C 1713 1012 1689 1012 1660 1012 C 1636 1012 1608 1012 1584 1012 C 1608 1012 1636 1012 1660 1012 C 1684 1017 1713 1017 1737 1017 C 1737 1027 1737 1036 1742 1046 C 1742 1056 1742 1065 1742 1075 C 1742 1065 1742 1056 1747 1046 C 1747 1036 1747 1027 1747 1017 C 1761 1017 1780 1017 1795 1012 C 1809 1012 1828 1012 1843 1012 C 1828 1012 1809 1012 1795 1012 C 1776 1012 1761 1012 1747 1012 C 1747 998 1747 988 1747 979 C 1747 974 1747 964 1747 955 C 1752 955 1761 955 1771 955 C 1804 955 1824 926 1819 897 C 1819 892 1819 888 1814 883 C 1828 878 1843 878 1857 878 C 1872 878 1886 878 1900 878 C 1886 878 1867 878 1852 878 C 1833 878 1819 878 1800 873 C 1804 873 1809 868 1814 864 C 1819 849 1824 844 1819 830 C 1819 825 1819 820 1819 816 C 1833 811 1843 811 1857 811 C 1881 811 1833 811 1747 811 C 1660 811 1627 811 1675 811 M 3360 811 C 3374 811 3398 811 3412 811 C 3427 811 3412 811 3384 811 C 3355 811 3345 811 3360 811 M 4272 811 C 4291 811 4315 811 4329 811 C 4344 811 4334 811 4300 811 C 4267 811 4257 811 4272 811 M 3571 902 C 3571 926 3571 964 3571 984 C 3576 1012 3571 1012 3561 1017 C 3561 1017 3556 1017 3552 1017 C 3556 1017 3556 1017 3561 1017 C 3571 1017 3576 1022 3576 1027 C 3576 1036 3576 1036 3580 1027 C 3585 1022 3595 1017 3609 1017 C 3614 1017 3624 1017 3628 1017 C 3619 1017 3614 1017 3604 1017 C 3580 1012 3576 1008 3580 974 C 3580 964 3585 955 3585 950 C 3580 916 3576 892 3580 888 C 3585 883 3585 878 3580 864 C 3576 849 3576 854 3571 902 M 3355 883 C 3355 883 3398 883 3451 883 C 3552 883 3542 883 3417 878 C 3384 878 3355 878 3355 883 M 2961 883 C 2980 883 3004 883 3019 883 C 3033 883 3024 883 2990 883 C 2956 883 2947 883 2961 883 M 624 945 C 652 945 705 945 734 945 C 763 945 739 945 681 945 C 619 945 595 945 624 945 M 1161 945 C 1171 945 1185 945 1195 945 C 1204 945 1195 945 1176 945 C 1156 945 1152 945 1161 945 M 2952 950 C 2961 950 2980 950 2995 950 C 3004 950 2995 950 2971 950 C 2947 950 2937 950 2952 950 M 3456 950 C 3465 950 3489 950 3499 950 C 3513 950 3504 950 3475 950 C 3451 950 3441 950 3456 950 M 1123 993 C 1123 1008 1118 1008 1094 1012 C 1075 1012 1128 1012 1214 1012 C 1344 1012 1348 1012 1248 1012 C 1209 1012 1171 1012 1132 1008 C 1132 1008 1128 1003 1128 998 C 1128 993 1128 988 1128 984 C 1128 988 1128 993 1123 993 M 2664 998 C 2664 1008 2659 1008 2644 1008 C 2616 1012 2601 1012 2606 1022 C 2606 1022 2606 1027 2596 1036 C 2572 1065 2601 1094 2635 1080 C 2664 1070 2673 1046 2673 998 C 2668 984 2664 979 2664 998 M 2236 998 C 2236 1003 2236 1003 2232 1008 C 2227 1012 2236 1012 2280 1012 C 2294 1012 2313 1012 2328 1012 C 2313 1012 2299 1012 2284 1012 C 2251 1008 2246 1008 2246 1003 C 2246 998 2241 993 2236 993 C 2236 993 2232 998 2236 998 M 652 1012 C 686 1012 739 1012 772 1012 C 806 1012 777 1012 710 1012 C 643 1012 619 1012 652 1012 M 3432 1017 C 3456 1017 3489 1017 3513 1017 C 3532 1017 3518 1017 3470 1017 C 3427 1017 3412 1017 3432 1017 M 3571 1046 C 3571 1051 3566 1051 3552 1051 C 3537 1051 3528 1056 3513 1065 C 3504 1075 3494 1080 3489 1084 C 3484 1084 3484 1084 3494 1084 C 3499 1084 3499 1089 3499 1089 C 3494 1099 3513 1113 3528 1113 C 3561 1113 3585 1089 3580 1065 C 3576 1046 3571 1036 3571 1046 M 196 1065 C 168 1084 196 1132 235 1128 C 244 1128 244 1128 235 1123 C 230 1123 225 1123 220 1118 C 225 1118 225 1113 230 1113 C 268 1084 235 1041 196 1065 M 5318 1219 C 5308 1228 5304 1233 5304 1233 C 5304 1238 5299 1243 5294 1243 C 5289 1243 5289 1243 5289 1248 C 5299 1262 5299 1296 5294 1305 C 5289 1310 5289 1315 5289 1315 C 5294 1315 5294 1348 5294 1387 C 5289 1555 5294 1617 5299 1622 C 5304 1627 5304 1593 5304 1550 C 5299 1516 5299 1516 5380 1516 C 5443 1512 5457 1507 5400 1507 C 5356 1507 5352 1507 5371 1492 C 5376 1483 5380 1478 5376 1464 C 5376 1459 5376 1454 5371 1444 C 5390 1444 5404 1444 5419 1444 C 5438 1444 5452 1444 5472 1444 C 5472 1459 5472 1468 5472 1478 C 5472 1497 5467 1512 5462 1512 C 5457 1512 5457 1512 5462 1512 C 5467 1512 5472 1526 5472 1545 C 5472 1574 5467 1579 5457 1579 C 5452 1579 5448 1579 5443 1579 C 5448 1579 5452 1579 5457 1579 C 5472 1584 5472 1584 5472 1598 C 5472 1608 5472 1612 5476 1612 C 5476 1612 5481 1608 5481 1598 C 5481 1593 5481 1588 5481 1579 C 5505 1584 5534 1584 5558 1584 C 5587 1584 5611 1584 5640 1584 C 5640 1588 5640 1593 5644 1598 C 5644 1598 5644 1603 5644 1608 C 5644 1603 5644 1598 5644 1593 C 5644 1584 5649 1584 5678 1579 C 5688 1579 5702 1579 5712 1579 C 5702 1579 5692 1579 5678 1579 C 5644 1574 5640 1569 5644 1536 C 5644 1526 5649 1502 5649 1488 C 5644 1468 5649 1454 5654 1449 C 5654 1444 5654 1440 5654 1440 C 5649 1440 5644 1435 5644 1430 C 5644 1425 5644 1420 5640 1420 C 5640 1420 5635 1425 5635 1430 C 5635 1435 5635 1440 5635 1440 C 5620 1440 5601 1440 5582 1440 C 5568 1440 5548 1440 5529 1440 C 5534 1440 5539 1435 5544 1430 C 5548 1420 5553 1411 5553 1396 C 5553 1382 5553 1382 5572 1377 C 5587 1377 5587 1377 5563 1377 C 5553 1377 5548 1377 5539 1377 C 5539 1368 5544 1363 5548 1358 C 5558 1339 5553 1320 5534 1315 C 5510 1305 5476 1329 5472 1358 C 5472 1363 5472 1368 5467 1372 C 5452 1377 5433 1377 5414 1377 C 5395 1377 5376 1377 5356 1377 C 5376 1377 5395 1377 5414 1377 C 5433 1377 5452 1377 5472 1382 C 5472 1392 5472 1401 5472 1411 C 5472 1420 5472 1430 5472 1440 C 5443 1440 5414 1440 5390 1440 C 5323 1440 5308 1444 5313 1449 C 5313 1454 5313 1459 5308 1459 C 5304 1464 5304 1449 5304 1368 C 5304 1339 5304 1305 5299 1272 C 5304 1276 5308 1276 5313 1276 C 5332 1281 5347 1276 5366 1257 C 5400 1228 5356 1195 5318 1219 M 5635 1478 C 5635 1492 5635 1502 5635 1512 C 5625 1512 5620 1512 5611 1516 C 5601 1516 5596 1516 5587 1516 C 5596 1516 5601 1516 5611 1516 C 5640 1521 5640 1516 5640 1550 C 5640 1560 5635 1569 5635 1574 C 5611 1574 5582 1574 5558 1574 C 5529 1574 5505 1574 5481 1574 C 5481 1569 5481 1560 5481 1550 C 5481 1526 5481 1516 5486 1516 C 5496 1512 5496 1512 5486 1512 C 5481 1507 5472 1459 5481 1449 C 5481 1449 5520 1449 5563 1449 C 5587 1449 5611 1449 5640 1449 C 5635 1459 5635 1468 5635 1478 M 5668 1219 C 5649 1228 5635 1243 5635 1248 C 5640 1252 5644 1300 5635 1305 C 5635 1310 5635 1315 5635 1320 C 5640 1320 5640 1344 5640 1368 C 5640 1382 5640 1396 5640 1411 C 5649 1411 5659 1411 5668 1411 C 5692 1411 5697 1411 5712 1396 C 5721 1387 5731 1382 5731 1382 C 5736 1382 5736 1382 5736 1382 C 5736 1377 5736 1377 5731 1377 C 5726 1377 5721 1368 5721 1363 C 5712 1344 5678 1339 5659 1358 C 5649 1368 5644 1368 5644 1339 C 5644 1320 5649 1315 5654 1310 C 5664 1310 5664 1310 5654 1310 C 5649 1310 5644 1305 5644 1291 C 5644 1276 5649 1276 5659 1276 C 5678 1281 5692 1276 5712 1257 C 5726 1243 5726 1243 5721 1233 C 5712 1214 5688 1204 5668 1219 M 3936 1219 C 3936 1219 3936 1257 3936 1300 C 3936 1324 3936 1348 3936 1372 C 3931 1377 3926 1377 3921 1377 C 3916 1377 3912 1377 3907 1377 C 3912 1377 3916 1377 3921 1377 C 3931 1377 3936 1382 3936 1387 C 3936 1392 3936 1392 3936 1392 C 3940 1392 3945 1387 3955 1387 C 3998 1368 4008 1315 3974 1315 C 3960 1315 3960 1315 3969 1320 C 3984 1334 3964 1377 3945 1377 C 3940 1377 3940 1324 3950 1320 C 3960 1320 3960 1320 3950 1320 C 3945 1320 3945 1310 3940 1267 C 3940 1238 3940 1219 3936 1219 M 878 1252 C 854 1262 844 1281 844 1334 C 849 1368 844 1372 840 1377 C 830 1377 830 1377 840 1377 C 844 1377 844 1387 844 1411 C 844 1420 844 1430 844 1440 C 820 1444 796 1444 772 1444 C 748 1444 720 1444 696 1444 C 720 1444 748 1444 772 1444 C 796 1444 820 1444 844 1444 C 844 1459 844 1468 844 1478 C 844 1488 844 1497 844 1507 C 816 1512 787 1512 758 1512 C 729 1512 700 1512 672 1512 C 700 1512 729 1512 758 1512 C 787 1512 816 1512 844 1512 C 844 1526 844 1536 844 1545 C 844 1555 844 1564 844 1574 C 811 1579 777 1579 739 1579 C 705 1579 667 1579 633 1579 C 667 1579 705 1579 739 1579 C 777 1579 811 1579 849 1584 C 849 1593 849 1603 844 1612 C 844 1670 844 1732 849 1728 C 849 1728 854 1694 854 1656 C 854 1632 854 1608 854 1584 C 864 1579 868 1579 878 1579 C 888 1579 897 1579 907 1579 C 897 1579 888 1579 878 1579 C 854 1574 854 1574 854 1560 C 854 1545 854 1545 878 1545 C 907 1545 940 1516 931 1497 C 926 1488 926 1488 921 1497 C 916 1507 907 1507 892 1507 C 868 1507 868 1502 897 1492 C 912 1483 916 1483 907 1478 C 897 1478 888 1478 878 1483 C 864 1492 854 1492 854 1492 C 854 1492 854 1483 854 1468 C 854 1464 854 1454 854 1444 C 868 1444 883 1444 897 1444 C 916 1444 931 1444 945 1444 C 931 1444 916 1444 902 1444 C 849 1440 849 1440 854 1401 C 854 1382 854 1382 873 1377 C 883 1377 888 1377 897 1377 C 892 1377 883 1377 878 1372 C 854 1372 854 1377 854 1324 C 854 1320 854 1315 854 1310 C 868 1310 878 1310 888 1310 C 916 1315 921 1310 916 1305 C 912 1300 912 1296 916 1291 C 926 1286 936 1267 931 1257 C 931 1257 921 1262 916 1272 C 902 1296 854 1310 854 1296 C 854 1286 878 1262 897 1257 C 907 1252 912 1248 907 1243 C 902 1238 902 1238 878 1252 M 902 1521 C 902 1526 873 1540 864 1536 C 859 1536 859 1531 859 1526 C 868 1512 902 1507 902 1521 M 1507 1257 C 1497 1267 1488 1276 1488 1286 C 1488 1296 1483 1305 1483 1305 C 1483 1310 1483 1315 1488 1315 C 1488 1315 1488 1339 1488 1387 C 1483 1459 1483 1564 1483 1593 C 1488 1593 1488 1598 1488 1603 C 1488 1598 1488 1593 1492 1593 C 1492 1584 1497 1569 1497 1560 C 1492 1555 1492 1550 1492 1540 C 1497 1545 1507 1545 1512 1545 C 1531 1550 1555 1540 1564 1521 C 1564 1516 1574 1512 1579 1512 C 1593 1512 1593 1512 1584 1507 C 1574 1507 1569 1502 1569 1502 C 1569 1483 1531 1473 1512 1488 C 1507 1492 1502 1492 1497 1492 C 1497 1492 1497 1454 1497 1401 C 1497 1372 1492 1344 1492 1315 C 1502 1315 1512 1315 1521 1315 C 1545 1315 1545 1310 1560 1296 C 1564 1286 1569 1272 1569 1267 C 1569 1243 1531 1238 1507 1257 M 2011 1257 C 1992 1267 1987 1281 1987 1334 C 1987 1348 1987 1363 1992 1377 C 1963 1377 1934 1377 1905 1377 C 1824 1377 1824 1372 1824 1363 C 1824 1339 1776 1339 1752 1363 C 1742 1372 1737 1372 1684 1377 C 1660 1377 1641 1377 1622 1377 C 1641 1377 1660 1377 1680 1377 C 1699 1377 1723 1377 1742 1382 C 1742 1392 1737 1401 1737 1411 C 1737 1440 1737 1440 1723 1444 C 1718 1444 1713 1444 1708 1444 C 1713 1444 1718 1444 1723 1449 C 1737 1449 1737 1449 1737 1478 C 1737 1488 1737 1497 1737 1507 C 1718 1507 1704 1507 1684 1512 C 1665 1512 1651 1512 1632 1512 C 1651 1512 1665 1512 1684 1512 C 1728 1512 1732 1516 1737 1521 C 1737 1531 1737 1632 1732 1641 C 1732 1646 1732 1651 1737 1656 C 1737 1656 1742 1665 1742 1670 C 1742 1670 1742 1670 1742 1660 C 1742 1656 1742 1651 1747 1651 C 1771 1646 1800 1646 1828 1646 C 1852 1646 1881 1646 1910 1646 C 1881 1646 1852 1646 1828 1646 C 1800 1646 1771 1646 1747 1646 C 1747 1632 1747 1622 1747 1612 C 1747 1603 1747 1593 1747 1584 C 1776 1579 1809 1579 1843 1579 C 1872 1579 1905 1579 1939 1579 C 1905 1579 1872 1579 1843 1579 C 1809 1579 1776 1579 1747 1574 C 1747 1564 1747 1555 1747 1545 C 1747 1536 1747 1526 1747 1516 C 1771 1512 1800 1512 1828 1512 C 1852 1512 1881 1512 1910 1512 C 1881 1512 1852 1512 1828 1512 C 1800 1512 1771 1512 1747 1507 C 1747 1502 1747 1497 1747 1492 C 1747 1478 1747 1478 1766 1478 C 1780 1478 1790 1473 1804 1464 C 1824 1449 1828 1449 1881 1444 C 1905 1444 1924 1444 1944 1444 C 1924 1444 1905 1444 1886 1444 C 1828 1444 1824 1440 1824 1430 C 1819 1425 1814 1416 1809 1416 C 1795 1411 1795 1406 1809 1392 C 1814 1387 1819 1382 1824 1377 C 1852 1382 1876 1382 1905 1382 C 1934 1382 1958 1382 1987 1382 C 1987 1392 1987 1401 1987 1406 C 1987 1420 1987 1435 1982 1440 C 1982 1444 1982 1444 1982 1444 C 1987 1444 1987 1473 1987 1531 C 1987 1579 1987 1617 1992 1617 C 1992 1622 1996 1612 1996 1598 C 1996 1588 1996 1550 1996 1512 C 1996 1492 1996 1473 1996 1449 C 2006 1449 2016 1449 2025 1449 C 2054 1444 2054 1444 2054 1440 C 2054 1435 2059 1425 2064 1425 C 2073 1416 2073 1406 2068 1387 C 2064 1377 2064 1377 2035 1377 C 2016 1377 2011 1377 2011 1382 C 2011 1387 2011 1392 2006 1392 C 1992 1401 1992 1392 2001 1382 C 2006 1377 2006 1377 2001 1377 C 1996 1377 1992 1363 1992 1344 C 1992 1334 1992 1324 1992 1315 C 2006 1315 2016 1315 2025 1315 C 2054 1315 2054 1310 2054 1305 C 2054 1300 2059 1291 2064 1286 C 2073 1281 2073 1257 2064 1252 C 2049 1243 2025 1243 2011 1257 M 1761 1416 C 1761 1420 1761 1425 1756 1425 C 1747 1430 1747 1430 1747 1420 C 1747 1406 1756 1406 1761 1416 M 2376 1286 C 2371 1286 2361 1296 2361 1300 C 2356 1300 2347 1305 2347 1310 C 2342 1310 2337 1310 2342 1310 C 2347 1310 2352 1324 2352 1344 C 2352 1353 2352 1363 2352 1377 C 2328 1377 2304 1377 2280 1377 C 2241 1377 2217 1377 2222 1377 C 2236 1382 2236 1382 2236 1411 C 2236 1425 2236 1454 2236 1473 C 2236 1502 2232 1507 2227 1512 C 2217 1512 2217 1512 2227 1512 C 2232 1512 2236 1521 2232 1584 C 2232 1636 2232 1651 2241 1651 C 2246 1651 2246 1641 2246 1612 C 2246 1603 2241 1593 2241 1584 C 2260 1584 2280 1584 2294 1584 C 2347 1584 2352 1584 2352 1593 C 2352 1603 2352 1603 2352 1598 C 2356 1593 2356 1588 2356 1584 C 2356 1584 2380 1579 2419 1579 C 2438 1579 2462 1579 2481 1579 C 2462 1579 2438 1579 2419 1579 C 2400 1574 2376 1574 2356 1574 C 2356 1564 2356 1555 2356 1545 C 2356 1536 2356 1526 2356 1516 C 2371 1516 2385 1516 2395 1512 C 2409 1512 2424 1512 2438 1512 C 2424 1512 2409 1512 2395 1507 C 2385 1507 2371 1507 2356 1507 C 2356 1497 2356 1488 2356 1478 C 2356 1468 2356 1459 2352 1444 C 2376 1444 2400 1444 2424 1444 C 2448 1444 2472 1444 2496 1444 C 2472 1444 2448 1444 2424 1444 C 2404 1440 2380 1440 2356 1440 C 2356 1435 2356 1430 2356 1425 C 2356 1411 2356 1406 2371 1411 C 2390 1416 2409 1406 2424 1392 C 2428 1382 2438 1377 2448 1377 C 2462 1377 2462 1377 2448 1377 C 2438 1377 2433 1368 2428 1358 C 2424 1353 2419 1344 2414 1344 C 2404 1344 2404 1339 2424 1324 C 2438 1310 2438 1310 2428 1296 C 2424 1281 2395 1272 2376 1286 M 2352 1411 C 2352 1420 2352 1430 2352 1440 C 2332 1440 2313 1440 2299 1440 C 2280 1440 2260 1440 2246 1440 C 2246 1430 2246 1420 2246 1411 C 2246 1401 2246 1392 2246 1382 C 2260 1382 2280 1382 2299 1382 C 2313 1382 2332 1382 2352 1382 C 2352 1392 2352 1401 2352 1411 M 2352 1478 C 2352 1488 2352 1497 2352 1507 C 2332 1507 2313 1507 2299 1507 C 2236 1507 2241 1512 2241 1468 C 2241 1464 2246 1454 2246 1444 C 2260 1444 2280 1444 2299 1444 C 2313 1444 2332 1444 2352 1444 C 2352 1459 2352 1468 2352 1478 M 2352 1545 C 2352 1555 2352 1564 2352 1574 C 2332 1574 2313 1574 2299 1574 C 2280 1574 2260 1574 2246 1574 C 2246 1569 2241 1560 2241 1555 C 2241 1512 2236 1512 2299 1512 C 2313 1512 2332 1512 2352 1512 C 2352 1526 2352 1536 2352 1545 M 5342 1310 C 5352 1310 5366 1310 5376 1310 C 5385 1310 5380 1310 5361 1310 C 5337 1310 5332 1310 5342 1310 M 2606 1324 C 2592 1334 2587 1344 2587 1353 C 2587 1363 2587 1372 2582 1372 C 2582 1377 2582 1377 2582 1382 C 2587 1382 2587 1416 2587 1483 C 2582 1550 2587 1584 2587 1584 C 2592 1584 2596 1512 2592 1507 C 2592 1507 2592 1497 2592 1492 C 2592 1483 2592 1454 2592 1430 C 2596 1411 2596 1396 2596 1382 C 2601 1382 2611 1382 2620 1382 C 2640 1382 2654 1377 2654 1372 C 2654 1372 2654 1363 2664 1358 C 2688 1320 2640 1296 2606 1324 M 4051 1320 C 4036 1329 4022 1348 4022 1363 C 4022 1372 4022 1377 4017 1377 C 4012 1377 4012 1377 4017 1382 C 4022 1382 4022 1396 4022 1416 C 4022 1425 4022 1430 4022 1440 C 4012 1444 4003 1444 3993 1444 C 3984 1444 3974 1444 3964 1444 C 3974 1444 3984 1444 3993 1444 C 4003 1444 4012 1444 4022 1444 C 4022 1468 4022 1488 4022 1512 C 4022 1569 4022 1574 4012 1574 C 4003 1579 3998 1574 3993 1564 C 3988 1555 3984 1550 3974 1550 C 3960 1545 3960 1545 3969 1555 C 3979 1569 3979 1574 3960 1574 C 3955 1574 3950 1574 3945 1574 C 3945 1555 3945 1536 3945 1512 C 3945 1454 3945 1449 3950 1444 C 3955 1444 3926 1444 3883 1444 C 3859 1444 3835 1444 3811 1440 C 3806 1440 3801 1435 3796 1430 C 3782 1411 3772 1411 3777 1420 C 3787 1435 3787 1440 3772 1444 C 3763 1444 3763 1444 3777 1444 C 3792 1449 3792 1454 3777 1478 C 3758 1507 3758 1507 3782 1526 C 3801 1545 3801 1555 3787 1555 C 3772 1555 3753 1564 3753 1574 C 3753 1579 3787 1612 3792 1612 C 3792 1612 3792 1608 3787 1603 C 3777 1584 3782 1584 3806 1579 C 3830 1579 3830 1579 3816 1574 C 3801 1574 3796 1574 3811 1574 C 3830 1569 3830 1569 3811 1550 C 3792 1526 3796 1516 3835 1512 C 3844 1512 3859 1512 3868 1512 C 3859 1512 3849 1512 3840 1512 C 3806 1507 3801 1507 3820 1483 C 3825 1473 3830 1464 3830 1464 C 3825 1464 3825 1459 3825 1454 C 3825 1449 3835 1444 3878 1444 C 3897 1444 3916 1444 3936 1444 C 3936 1459 3936 1468 3936 1478 C 3936 1488 3936 1497 3936 1507 C 3921 1512 3912 1512 3902 1512 C 3892 1512 3883 1512 3873 1512 C 3883 1512 3892 1512 3902 1512 C 3912 1512 3921 1512 3936 1512 C 3936 1526 3936 1536 3936 1545 C 3936 1555 3936 1564 3936 1574 C 3916 1579 3902 1579 3888 1579 C 3873 1579 3854 1579 3840 1579 C 3854 1579 3873 1579 3888 1579 C 3902 1579 3916 1579 3936 1584 C 3936 1588 3936 1598 3936 1603 C 3936 1612 3936 1622 3936 1622 C 3940 1622 3984 1593 3988 1588 C 3988 1584 3998 1584 4008 1584 C 4022 1584 4022 1584 4027 1603 C 4027 1622 4027 1627 4032 1617 C 4032 1608 4036 1608 4046 1612 C 4065 1622 4113 1588 4108 1569 C 4104 1560 4094 1560 4094 1569 C 4094 1574 4089 1574 4075 1574 C 4065 1574 4060 1574 4051 1574 C 4056 1574 4060 1569 4060 1564 C 4070 1560 4080 1555 4084 1555 C 4089 1555 4089 1555 4089 1555 C 4089 1545 4065 1545 4051 1555 C 4032 1569 4032 1569 4032 1507 C 4032 1454 4032 1449 4041 1449 C 4046 1444 4046 1444 4051 1444 C 4046 1444 4041 1444 4041 1444 C 4032 1440 4027 1440 4032 1411 C 4032 1401 4032 1392 4032 1382 C 4041 1382 4051 1382 4060 1382 C 4075 1382 4089 1382 4089 1377 C 4089 1377 4094 1372 4099 1363 C 4108 1344 4108 1324 4104 1324 C 4099 1324 4094 1334 4094 1339 C 4089 1353 4065 1372 4046 1372 C 4022 1372 4036 1344 4070 1324 C 4084 1320 4089 1315 4089 1315 C 4089 1310 4065 1315 4051 1320 M 3969 1588 C 3955 1612 3945 1617 3945 1598 C 3945 1584 3945 1584 3960 1584 C 3969 1584 3969 1584 3969 1588 M 4080 1588 C 4080 1588 4070 1598 4060 1598 C 4041 1608 4032 1603 4036 1588 C 4041 1579 4084 1579 4080 1588 M 5683 1315 C 5697 1315 5712 1315 5721 1315 C 5731 1315 5721 1315 5702 1315 C 5683 1315 5673 1315 5683 1315 M 446 1358 C 446 1372 446 1377 441 1372 C 436 1372 432 1372 432 1372 C 432 1372 427 1368 427 1363 C 427 1358 427 1358 422 1358 C 422 1358 417 1358 417 1368 C 417 1377 417 1377 259 1372 C 172 1372 100 1377 100 1377 C 96 1377 115 1382 134 1382 C 158 1382 177 1382 177 1382 C 177 1387 172 1387 172 1387 C 168 1387 163 1401 153 1416 C 148 1425 144 1435 139 1444 C 144 1449 148 1449 153 1454 C 168 1468 187 1468 206 1454 C 211 1449 225 1444 235 1444 C 240 1444 249 1444 254 1444 C 254 1454 249 1459 249 1468 C 244 1502 235 1512 206 1507 C 192 1507 177 1507 177 1507 C 177 1512 182 1512 201 1512 C 216 1512 230 1516 230 1516 C 230 1531 163 1574 134 1579 C 124 1579 182 1579 264 1579 C 350 1579 417 1579 412 1579 C 412 1579 360 1579 292 1574 C 230 1574 177 1574 177 1574 C 177 1569 187 1564 196 1560 C 211 1550 230 1540 240 1531 C 249 1526 254 1521 259 1512 C 288 1512 312 1512 340 1512 C 364 1512 393 1512 417 1512 C 417 1516 417 1521 417 1531 C 417 1536 422 1545 422 1545 C 427 1545 427 1536 427 1531 C 427 1512 446 1507 451 1526 C 451 1531 451 1531 451 1536 C 451 1531 456 1531 456 1526 C 456 1516 465 1512 470 1512 C 480 1512 480 1512 470 1507 C 456 1502 456 1492 460 1488 C 470 1483 470 1459 460 1454 C 460 1449 460 1449 465 1444 C 470 1444 470 1440 465 1440 C 456 1435 456 1416 460 1411 C 470 1411 475 1377 465 1377 C 460 1377 456 1368 456 1358 C 456 1348 456 1339 451 1339 C 451 1339 446 1348 446 1358 M 417 1387 C 417 1396 417 1401 417 1401 C 408 1406 408 1425 412 1430 C 422 1435 422 1435 412 1440 C 403 1444 403 1444 412 1444 C 422 1444 422 1468 412 1478 C 408 1478 403 1488 403 1497 C 403 1502 403 1507 403 1507 C 384 1507 360 1507 340 1507 C 307 1507 273 1507 273 1507 C 273 1507 283 1492 288 1473 C 292 1464 297 1454 302 1449 C 316 1449 336 1449 350 1449 C 408 1444 408 1444 350 1440 C 302 1440 297 1440 292 1425 C 292 1420 283 1406 273 1396 C 268 1392 264 1387 254 1382 C 283 1382 312 1382 336 1382 C 417 1382 417 1382 417 1387 M 225 1392 C 244 1401 259 1425 249 1435 C 244 1440 220 1440 211 1430 C 206 1425 196 1425 192 1425 C 163 1425 168 1392 196 1387 C 201 1387 206 1387 206 1387 C 211 1387 216 1387 225 1392 M 446 1454 C 446 1468 427 1468 427 1459 C 427 1449 432 1444 441 1444 C 446 1444 451 1449 446 1454 M 2846 1363 C 2832 1372 2827 1377 2788 1377 C 2774 1377 2760 1377 2745 1377 C 2760 1377 2774 1377 2788 1377 C 2798 1382 2812 1382 2827 1382 C 2827 1392 2827 1401 2827 1411 C 2827 1420 2827 1430 2832 1440 C 2822 1444 2812 1444 2803 1444 C 2793 1444 2784 1444 2774 1444 C 2784 1444 2793 1444 2803 1444 C 2812 1444 2822 1444 2832 1444 C 2832 1459 2832 1468 2832 1478 C 2832 1488 2832 1497 2832 1507 C 2822 1512 2812 1512 2803 1512 C 2798 1512 2788 1512 2779 1512 C 2788 1512 2798 1512 2803 1512 C 2812 1512 2822 1512 2832 1512 C 2832 1526 2832 1536 2832 1545 C 2832 1555 2832 1564 2832 1574 C 2817 1579 2803 1579 2788 1579 C 2779 1579 2764 1579 2750 1579 C 2764 1579 2774 1579 2788 1579 C 2827 1579 2827 1584 2832 1593 C 2832 1598 2832 1598 2832 1603 C 2832 1598 2832 1598 2832 1593 C 2836 1584 2836 1584 2899 1579 C 2918 1579 2942 1579 2961 1579 C 2942 1579 2918 1579 2899 1579 C 2875 1579 2856 1579 2832 1574 C 2836 1564 2836 1555 2836 1545 C 2836 1536 2836 1526 2836 1516 C 2851 1516 2870 1516 2884 1512 C 2899 1512 2918 1512 2932 1512 C 2918 1512 2899 1512 2884 1512 C 2865 1512 2851 1512 2836 1507 C 2836 1497 2836 1488 2836 1478 C 2836 1468 2836 1459 2836 1449 C 2856 1444 2880 1444 2904 1444 C 2928 1444 2952 1444 2976 1444 C 2952 1444 2928 1444 2904 1444 C 2880 1444 2856 1444 2836 1440 C 2836 1435 2836 1430 2836 1425 C 2836 1411 2836 1411 2851 1411 C 2880 1416 2913 1392 2913 1368 C 2908 1344 2875 1339 2846 1363 M 4747 1363 C 4747 1444 4747 1526 4752 1526 C 4752 1531 4756 1526 4761 1526 C 4761 1521 4776 1516 4785 1516 C 4790 1516 4795 1512 4795 1512 C 4790 1507 4790 1507 4800 1497 C 4804 1488 4809 1478 4814 1464 C 4814 1454 4814 1449 4814 1440 C 4804 1440 4795 1440 4785 1440 C 4776 1440 4766 1440 4756 1440 C 4756 1430 4756 1420 4761 1411 C 4761 1363 4761 1353 4752 1353 C 4752 1353 4747 1358 4747 1363 M 4790 1468 C 4795 1483 4776 1507 4766 1507 C 4756 1512 4756 1464 4761 1459 C 4771 1454 4790 1459 4790 1468 M 4483 1358 C 4483 1363 4483 1368 4483 1372 C 4483 1372 4459 1377 4406 1377 C 4363 1377 4339 1377 4348 1377 C 4353 1382 4363 1382 4368 1382 C 4368 1392 4368 1401 4368 1411 C 4368 1420 4372 1430 4372 1440 C 4348 1444 4329 1444 4310 1444 C 4291 1444 4267 1444 4248 1444 C 4267 1444 4291 1444 4310 1444 C 4329 1444 4348 1444 4372 1444 C 4372 1459 4372 1468 4372 1478 C 4372 1488 4372 1497 4372 1507 C 4363 1512 4358 1512 4353 1512 C 4348 1512 4339 1512 4334 1512 C 4339 1512 4344 1512 4353 1512 C 4368 1516 4368 1516 4368 1536 C 4372 1540 4372 1550 4372 1555 C 4372 1550 4372 1540 4372 1536 C 4377 1516 4377 1516 4392 1516 C 4406 1516 4406 1516 4406 1545 C 4406 1574 4406 1574 4396 1574 C 4387 1579 4382 1574 4377 1569 C 4372 1560 4372 1560 4372 1569 C 4372 1574 4368 1579 4363 1579 C 4353 1579 4353 1579 4363 1579 C 4368 1579 4372 1588 4372 1612 C 4372 1622 4372 1632 4372 1641 C 4363 1646 4353 1646 4344 1646 C 4329 1646 4363 1646 4420 1646 C 4478 1646 4497 1646 4468 1646 C 4449 1646 4430 1646 4416 1641 C 4416 1632 4416 1622 4416 1612 C 4416 1603 4416 1593 4416 1579 C 4444 1579 4478 1584 4512 1584 C 4545 1584 4579 1584 4608 1584 C 4608 1593 4608 1598 4608 1608 C 4608 1622 4612 1636 4612 1636 C 4617 1636 4617 1627 4617 1612 C 4617 1593 4622 1579 4627 1579 C 4632 1579 4632 1579 4627 1579 C 4617 1574 4617 1516 4622 1516 C 4627 1516 4627 1516 4627 1512 C 4627 1512 4617 1507 4603 1507 C 4593 1507 4584 1507 4574 1507 C 4574 1497 4579 1488 4579 1478 C 4579 1444 4579 1440 4569 1440 C 4564 1440 4560 1444 4564 1449 C 4569 1454 4569 1454 4569 1459 C 4569 1459 4564 1488 4564 1516 C 4564 1536 4564 1555 4564 1574 C 4540 1574 4516 1574 4492 1574 C 4464 1574 4440 1574 4416 1574 C 4416 1555 4416 1536 4416 1512 C 4416 1492 4416 1468 4416 1444 C 4425 1444 4435 1444 4444 1444 C 4483 1444 4488 1449 4488 1473 C 4488 1488 4488 1488 4502 1483 C 4512 1483 4516 1483 4521 1483 C 4521 1488 4521 1497 4521 1507 C 4521 1516 4526 1531 4526 1536 C 4536 1540 4536 1536 4536 1483 C 4531 1454 4531 1454 4545 1449 C 4550 1444 4555 1444 4560 1444 C 4555 1444 4550 1444 4545 1444 C 4536 1444 4531 1440 4531 1425 C 4531 1416 4531 1411 4531 1406 C 4526 1406 4521 1406 4516 1411 C 4492 1416 4478 1396 4492 1382 C 4497 1377 4497 1372 4492 1368 C 4488 1358 4483 1358 4483 1358 M 4406 1387 C 4406 1392 4411 1406 4411 1420 C 4411 1425 4411 1435 4411 1444 C 4401 1444 4396 1440 4392 1440 C 4377 1440 4368 1420 4377 1392 C 4382 1377 4401 1377 4406 1387 M 4478 1387 C 4483 1387 4483 1401 4483 1416 C 4483 1425 4483 1435 4483 1440 C 4473 1440 4459 1440 4449 1440 C 4435 1440 4425 1440 4416 1440 C 4416 1430 4416 1420 4416 1411 C 4416 1401 4416 1392 4416 1382 C 4425 1382 4435 1382 4444 1382 C 4464 1382 4478 1382 4478 1387 M 4521 1435 C 4521 1440 4516 1440 4507 1440 C 4497 1440 4492 1440 4497 1430 C 4502 1425 4521 1425 4521 1435 M 4406 1478 C 4406 1488 4411 1497 4411 1507 C 4401 1507 4396 1507 4392 1507 C 4387 1507 4382 1507 4377 1507 C 4377 1502 4377 1492 4377 1488 C 4377 1454 4377 1444 4392 1449 C 4406 1449 4406 1449 4406 1478 M 4521 1454 C 4521 1459 4502 1468 4492 1464 C 4492 1464 4492 1459 4492 1454 C 4497 1444 4521 1444 4521 1454 M 4608 1545 C 4608 1564 4574 1569 4574 1550 C 4574 1536 4584 1531 4598 1531 C 4608 1531 4612 1531 4608 1545 M 4406 1588 C 4406 1593 4411 1608 4411 1622 C 4411 1641 4406 1646 4396 1646 C 4382 1646 4382 1641 4377 1617 C 4377 1608 4377 1593 4377 1588 C 4382 1579 4401 1579 4406 1588 M 710 1377 C 734 1377 768 1377 792 1377 C 811 1377 792 1377 748 1377 C 705 1377 686 1377 710 1377 M 1118 1382 C 1128 1387 1128 1488 1118 1507 C 1118 1507 1118 1516 1118 1516 C 1123 1516 1123 1540 1123 1564 C 1118 1598 1123 1612 1123 1617 C 1128 1617 1132 1612 1132 1603 C 1132 1588 1132 1584 1137 1584 C 1142 1584 1142 1579 1137 1574 C 1132 1574 1132 1555 1132 1540 C 1132 1531 1132 1521 1132 1512 C 1152 1512 1171 1512 1195 1512 C 1214 1512 1238 1512 1257 1512 C 1262 1521 1267 1526 1272 1531 C 1276 1540 1286 1545 1291 1550 C 1281 1550 1276 1550 1272 1550 C 1262 1555 1252 1560 1248 1564 C 1238 1569 1228 1579 1224 1579 C 1209 1579 1214 1579 1224 1579 C 1233 1579 1243 1584 1252 1593 C 1257 1598 1267 1608 1272 1612 C 1276 1612 1281 1612 1286 1617 C 1281 1612 1281 1608 1276 1603 C 1262 1584 1267 1584 1339 1579 C 1358 1579 1382 1579 1406 1579 C 1387 1579 1363 1579 1344 1574 C 1310 1574 1286 1574 1291 1574 C 1291 1569 1300 1569 1300 1569 C 1315 1574 1315 1560 1300 1550 C 1296 1540 1291 1531 1291 1526 C 1291 1521 1291 1516 1291 1512 C 1315 1512 1339 1512 1368 1512 C 1392 1512 1420 1512 1444 1512 C 1420 1512 1392 1512 1368 1512 C 1286 1507 1286 1507 1305 1483 C 1315 1468 1320 1464 1315 1454 C 1310 1449 1310 1449 1392 1444 C 1420 1444 1449 1444 1478 1444 C 1449 1444 1420 1444 1392 1444 C 1363 1444 1329 1444 1300 1440 C 1296 1440 1291 1435 1286 1430 C 1267 1411 1252 1406 1267 1425 C 1281 1440 1272 1440 1219 1444 C 1204 1444 1185 1444 1171 1444 C 1190 1444 1204 1444 1224 1444 C 1252 1444 1276 1449 1276 1454 C 1276 1459 1262 1483 1252 1488 C 1248 1492 1248 1497 1248 1502 C 1252 1507 1243 1507 1190 1507 C 1171 1507 1152 1507 1128 1507 C 1132 1488 1132 1464 1132 1440 C 1132 1420 1132 1396 1132 1377 C 1128 1377 1123 1377 1123 1377 C 1108 1377 1108 1377 1118 1382 M 1233 1377 C 1276 1377 1339 1377 1382 1377 C 1420 1377 1387 1377 1305 1377 C 1224 1377 1190 1377 1233 1377 M 3096 1382 C 3091 1392 3091 1392 3086 1392 C 3081 1392 3067 1420 3067 1430 C 3067 1440 3067 1444 3062 1444 C 3057 1444 3057 1444 3062 1444 C 3067 1449 3067 1473 3067 1550 C 3067 1603 3067 1651 3067 1656 C 3067 1660 3072 1670 3072 1670 C 3076 1670 3076 1665 3076 1660 C 3076 1651 3081 1651 3110 1651 C 3129 1651 3139 1646 3139 1646 C 3139 1641 3139 1632 3144 1627 C 3148 1622 3148 1608 3148 1598 C 3148 1588 3148 1584 3148 1574 C 3139 1574 3129 1574 3120 1574 C 3100 1574 3096 1579 3091 1588 C 3086 1598 3081 1598 3076 1584 C 3076 1502 3076 1454 3081 1449 C 3081 1449 3100 1449 3115 1449 C 3134 1449 3139 1444 3139 1440 C 3139 1440 3139 1435 3144 1430 C 3153 1416 3153 1401 3148 1392 C 3148 1392 3148 1382 3153 1382 C 3158 1377 3148 1377 3129 1377 C 3100 1377 3096 1377 3096 1382 M 3297 1377 C 3302 1377 3312 1377 3316 1382 C 3316 1401 3316 1425 3316 1444 C 3316 1502 3316 1512 3312 1512 C 3302 1512 3302 1512 3312 1516 C 3321 1521 3321 1641 3312 1646 C 3312 1646 3350 1646 3403 1646 C 3436 1651 3465 1651 3499 1651 C 3499 1665 3499 1675 3499 1684 C 3504 1742 3504 1747 3504 1694 C 3504 1660 3508 1646 3513 1646 C 3518 1646 3518 1646 3513 1646 C 3508 1641 3499 1593 3504 1588 C 3508 1584 3523 1579 3537 1579 C 3542 1579 3552 1579 3561 1579 C 3552 1579 3542 1579 3532 1579 C 3518 1579 3504 1574 3504 1569 C 3504 1569 3504 1564 3504 1564 C 3504 1550 3494 1550 3494 1564 C 3494 1569 3494 1574 3494 1574 C 3465 1574 3436 1574 3408 1574 C 3379 1574 3350 1574 3321 1574 C 3326 1564 3326 1555 3326 1545 C 3326 1536 3326 1526 3326 1516 C 3340 1516 3355 1516 3369 1512 C 3379 1512 3393 1512 3408 1512 C 3393 1512 3379 1512 3364 1512 C 3350 1512 3336 1512 3326 1507 C 3326 1497 3326 1488 3326 1478 C 3326 1468 3326 1459 3326 1444 C 3355 1444 3384 1444 3412 1444 C 3441 1444 3465 1444 3494 1444 C 3494 1464 3494 1478 3494 1497 C 3494 1512 3494 1531 3494 1545 C 3504 1545 3513 1545 3523 1545 C 3547 1550 3552 1545 3566 1531 C 3590 1512 3590 1502 3571 1483 C 3566 1483 3561 1478 3556 1473 C 3561 1468 3566 1464 3576 1459 C 3585 1449 3590 1440 3585 1440 C 3571 1420 3561 1416 3552 1416 C 3537 1416 3513 1425 3508 1435 C 3499 1440 3484 1440 3412 1440 C 3384 1440 3355 1440 3326 1440 C 3326 1430 3326 1420 3326 1411 C 3326 1401 3326 1392 3326 1382 C 3336 1377 3350 1377 3364 1377 C 3384 1377 3374 1377 3340 1377 C 3302 1377 3283 1377 3297 1377 M 3518 1478 C 3528 1483 3528 1488 3518 1492 C 3508 1502 3508 1502 3504 1492 C 3499 1478 3508 1473 3518 1478 M 3494 1612 C 3494 1622 3494 1632 3494 1646 C 3465 1646 3441 1646 3412 1646 C 3384 1646 3355 1646 3326 1646 C 3326 1632 3326 1622 3326 1612 C 3326 1603 3326 1593 3326 1584 C 3355 1584 3384 1584 3412 1584 C 3441 1584 3465 1584 3494 1584 C 3494 1593 3494 1603 3494 1612 M 3816 1377 C 3835 1377 3859 1377 3878 1377 C 3892 1377 3878 1377 3844 1377 C 3811 1377 3796 1377 3816 1377 M 4900 1377 C 4929 1377 4972 1377 5001 1377 C 5030 1377 5006 1377 4953 1377 C 4896 1377 4872 1377 4900 1377 M 5808 1478 C 5808 1531 5808 1579 5808 1584 C 5808 1584 5812 1598 5812 1617 C 5812 1636 5812 1651 5817 1651 C 5817 1651 5817 1377 5812 1377 C 5812 1372 5808 1420 5808 1478 M 5116 1425 C 5121 1440 5121 1440 5112 1444 C 5107 1444 5107 1444 5102 1444 C 5107 1444 5107 1449 5112 1449 C 5126 1454 5126 1459 5112 1478 C 5097 1497 5092 1512 5102 1516 C 5112 1521 5131 1545 5131 1550 C 5131 1550 5126 1555 5121 1555 C 5107 1555 5088 1560 5088 1569 C 5088 1574 5073 1574 4972 1574 C 4934 1574 4896 1574 4852 1574 C 4857 1560 4857 1545 4857 1531 C 4857 1507 4852 1488 4852 1488 C 4848 1478 4843 1492 4843 1531 C 4843 1560 4843 1574 4838 1579 C 4833 1579 4833 1579 4838 1579 C 4843 1579 4848 1588 4848 1612 C 4848 1641 4843 1646 4833 1646 C 4824 1646 4819 1646 4828 1646 C 4833 1646 4843 1651 4848 1656 C 4852 1660 4852 1660 4857 1656 C 4862 1651 4872 1651 4876 1651 C 4886 1651 4891 1646 4886 1646 C 4886 1646 4891 1636 4896 1627 C 4905 1617 4910 1608 4905 1598 C 4905 1593 4905 1588 4905 1584 C 4934 1584 4968 1584 4996 1584 C 5025 1584 5054 1584 5088 1584 C 5092 1588 5097 1593 5107 1598 C 5126 1617 5131 1617 5126 1603 C 5116 1584 5121 1584 5164 1579 C 5179 1579 5193 1579 5208 1579 C 5193 1579 5184 1579 5169 1574 C 5150 1574 5136 1574 5145 1574 C 5164 1569 5164 1569 5150 1550 C 5131 1531 5136 1521 5155 1516 C 5174 1516 5174 1516 5160 1516 C 5140 1512 5140 1507 5155 1488 C 5169 1468 5169 1444 5155 1440 C 5150 1440 5140 1435 5131 1430 C 5116 1406 5107 1406 5116 1425 M 4881 1588 C 4891 1598 4886 1612 4872 1632 C 4857 1651 4857 1646 4857 1622 C 4857 1588 4867 1579 4881 1588 M 542 1440 C 542 1444 542 1454 542 1464 C 542 1492 523 1502 523 1473 C 523 1464 523 1454 518 1454 C 518 1454 513 1459 513 1473 C 513 1492 513 1497 504 1507 C 494 1512 494 1512 494 1512 C 499 1512 499 1516 499 1521 C 499 1526 504 1531 508 1531 C 518 1536 518 1574 508 1574 C 494 1579 499 1598 508 1603 C 518 1608 518 1636 508 1641 C 494 1646 523 1646 619 1641 C 648 1641 681 1641 715 1641 C 681 1641 652 1641 619 1641 C 590 1641 556 1641 523 1636 C 523 1632 523 1622 523 1617 C 523 1598 528 1598 537 1598 C 542 1598 547 1598 547 1612 C 547 1622 547 1627 552 1627 C 552 1627 556 1617 556 1608 C 556 1593 556 1584 561 1584 C 571 1579 571 1564 556 1555 C 556 1555 552 1536 552 1521 C 552 1516 556 1512 561 1512 C 571 1512 566 1488 556 1478 C 556 1478 552 1468 556 1459 C 556 1449 556 1440 552 1440 C 547 1440 542 1440 542 1440 M 547 1536 C 547 1555 542 1564 532 1564 C 528 1564 523 1560 523 1545 C 523 1526 528 1521 537 1521 C 542 1521 547 1526 547 1536 M 4656 1468 C 4656 1488 4656 1502 4656 1507 C 4651 1512 4651 1521 4651 1521 C 4656 1521 4656 1531 4656 1540 C 4656 1545 4656 1560 4656 1564 C 4656 1569 4651 1579 4646 1579 C 4636 1579 4636 1579 4646 1579 C 4651 1579 4656 1584 4656 1593 C 4656 1603 4656 1612 4656 1612 C 4656 1627 4665 1627 4704 1593 C 4723 1579 4723 1579 4718 1564 C 4713 1550 4708 1550 4694 1550 C 4680 1550 4680 1550 4689 1555 C 4704 1564 4699 1574 4684 1574 C 4665 1574 4660 1574 4670 1560 C 4670 1555 4670 1550 4670 1550 C 4665 1550 4665 1526 4665 1497 C 4665 1454 4665 1449 4675 1449 C 4684 1444 4684 1444 4670 1444 C 4665 1444 4656 1444 4651 1440 C 4656 1449 4656 1459 4656 1468 M 4689 1584 C 4689 1593 4670 1612 4665 1608 C 4660 1598 4670 1584 4680 1584 C 4684 1584 4689 1584 4689 1584 M 4886 1444 C 4924 1444 4987 1444 5025 1444 C 5064 1444 5030 1444 4958 1444 C 4881 1444 4848 1444 4886 1444 M 5745 1444 C 5755 1444 5769 1444 5779 1444 C 5788 1444 5779 1444 5760 1444 C 5740 1444 5736 1444 5745 1444 M 96 1512 C 100 1512 115 1512 134 1512 C 144 1512 153 1512 163 1512 C 153 1512 139 1512 129 1507 C 110 1507 96 1507 96 1512 M 4977 1512 C 4992 1512 5016 1512 5030 1512 C 5044 1512 5030 1512 5006 1512 C 4977 1512 4963 1512 4977 1512 M 5688 1516 C 5702 1516 5726 1516 5740 1516 C 5755 1516 5740 1516 5712 1516 C 5688 1516 5673 1516 5688 1516 M 1660 1579 C 1670 1579 1684 1579 1694 1579 C 1704 1579 1699 1579 1680 1579 C 1656 1579 1651 1579 1660 1579 M 5476 1622 C 5472 1627 5472 1632 5472 1636 C 5472 1641 5457 1641 5414 1646 C 5361 1646 5361 1646 5438 1646 C 5481 1646 5510 1646 5500 1646 C 5481 1641 5481 1641 5476 1632 C 5476 1622 5476 1622 5476 1622 M 4022 1636 C 4022 1641 4022 1665 4027 1689 C 4027 1708 4027 1723 4027 1737 C 4027 1723 4027 1708 4027 1694 C 4027 1675 4032 1651 4032 1651 C 4036 1646 4036 1641 4032 1636 C 4027 1632 4027 1632 4022 1636 M 5294 1632 C 5294 1636 5294 1651 5294 1670 C 5299 1684 5299 1699 5299 1708 C 5299 1699 5299 1689 5304 1680 C 5304 1656 5304 1651 5318 1646 C 5318 1646 5323 1646 5328 1646 C 5323 1646 5318 1646 5313 1646 C 5308 1646 5304 1641 5299 1636 C 5299 1632 5299 1627 5294 1632 M 1483 1641 C 1483 1641 1483 1651 1488 1660 C 1488 1670 1492 1689 1492 1708 C 1492 1737 1492 1737 1492 1694 C 1497 1646 1497 1632 1488 1632 C 1488 1632 1483 1636 1483 1641 M 1300 1646 C 1315 1646 1329 1646 1339 1646 C 1348 1646 1339 1646 1320 1646 C 1300 1646 1291 1646 1300 1646 M 1387 1646 C 1401 1646 1425 1646 1435 1646 C 1449 1646 1435 1646 1411 1646 C 1382 1646 1372 1646 1387 1646 M 2328 1646 C 2352 1646 2385 1646 2409 1646 C 2428 1646 2409 1646 2366 1646 C 2323 1646 2304 1646 2328 1646 M 2769 1646 C 2803 1646 2856 1646 2889 1646 C 2918 1646 2894 1646 2832 1646 C 2764 1646 2740 1646 2769 1646 M 3240 1646 C 3249 1646 3273 1646 3283 1646 C 3297 1646 3288 1646 3264 1646 C 3235 1646 3225 1646 3240 1646 M 3739 1646 C 3753 1646 3777 1646 3792 1646 C 3806 1646 3792 1646 3768 1646 C 3739 1646 3724 1646 3739 1646 M 3864 1646 C 3888 1646 3921 1646 3945 1646 C 3964 1646 3945 1646 3902 1646 C 3859 1646 3840 1646 3864 1646 M 4934 1646 C 4958 1646 4992 1646 5016 1646 C 5040 1646 5020 1646 4977 1646 C 4929 1646 4910 1646 4934 1646 M 5620 1651 C 5635 1651 5659 1651 5673 1651 C 5688 1651 5673 1651 5644 1651 C 5616 1651 5606 1651 5620 1651 M 3072 1708 C 3072 1728 3072 1742 3072 1747 C 3076 1752 3076 1742 3076 1713 C 3076 1665 3076 1660 3072 1708 M 5500 1512 C 5500 1516 5520 1516 5539 1516 C 5558 1516 5572 1516 5568 1516 C 5568 1516 5548 1512 5529 1512 C 5510 1512 5500 1512 5500 1512 M 316 1406 C 302 1416 316 1435 336 1430 C 340 1430 345 1425 340 1416 C 340 1401 326 1396 316 1406 M 312 1459 C 307 1464 307 1478 316 1483 C 326 1492 345 1483 340 1468 C 340 1459 321 1454 312 1459 z" fill="black" /><!-- width=5827 height=1785 -->
</defs>
<use xlink:href="#gl14850" x="472" y="0" />
<use xlink:href="#gl13314" x="563" y="39" />
<use xlink:href="#gl15360" x="651" y="16" />
<use xlink:href="#gl13826" x="674" y="38" />
<use xlink:href="#gl13316" x="741" y="37" />
<use xlink:href="#gl15361" x="0" y="218" />
<use xlink:href="#gl15362" x="53" y="232" />
<use xlink:href="#gl15363" x="82" y="146" />
<use xlink:href="#gl15364" x="35" y="195" />
<use xlink:href="#gl15365" x="404" y="775" />
<use xlink:href="#gl15366" x="495" y="866" />
<use xlink:href="#gl6169" x="465" y="852" />
<use xlink:href="#gl15367" x="1114" y="871" />
<use xlink:href="#gl15368" x="2578" y="842" />
<use xlink:href="#gl15369" x="3303" y="871" />
<use xlink:href="#gl15370" x="4359" y="866" />
<use xlink:href="#gl15371" x="4388" y="871" />
<use xlink:href="#gl15372" x="4445" y="784" />
<use xlink:href="#gl15373" x="4541" y="871" />
<use xlink:href="#gl15374" x="4647" y="871" />
<use xlink:href="#gl15375" x="4676" y="971" />
<use xlink:href="#gl14857" x="4725" y="775" />
<use xlink:href="#gl15376" x="4834" y="909" />
<use xlink:href="#gl15377" x="4959" y="1005" />
<use xlink:href="#gl15378" x="4973" y="871" />
<use xlink:href="#gl15379" x="3327" y="871" />
<use xlink:href="#gl15380" x="4621" y="866" />
<use xlink:href="#gl2064" x="4659" y="862" />
<use xlink:href="#gl15381" x="4815" y="871" />
<use xlink:href="#gl15382" x="5060" y="871" />
<use xlink:href="#gl15383" x="5060" y="904" />
<use xlink:href="#gl2064" x="4659" y="928" />
<use xlink:href="#gl15384" x="4909" y="930" />
<use xlink:href="#gl15385" x="4724" y="1005" />
<use xlink:href="#gl4871" x="4906" y="996" />
<use xlink:href="#gl5658" x="4619" y="1057" />
<use xlink:href="#gl15386" x="4916" y="1072" />
<use xlink:href="#gl15387" x="4628" y="1139" />
<use xlink:href="#gl15388" x="5285" y="871" />
<use xlink:href="#gl15389" x="5060" y="904" />
<use xlink:href="#gl15390" x="5780" y="871" />
<use xlink:href="#gl15391" x="5376" y="871" />
<use xlink:href="#gl15616" x="0" y="131" />
</svg>