<?xml version="1.0" standalone="no"?>
<!DOCTYPE svg PUBLIC "-//W3C/DTD SVG 1.1//EN" "http://www.w3.org/Graphics/SVG/1.1/DTD/svg11.dtd">
<svg width="430px" height="16px" viewBox="0 0 4309 163" xmlns="http://www.w3.org/2000/svg" xmlns:xlink="http://www.w3.org/1999/xlink" version="1.1">
<defs>
<path id="gl5647" d="M 9 14 C 9 19 9 24 9 28 C 14 33 19 28 19 24 C 24 14 38 14 38 24 C 38 28 38 33 33 33 C 19 38 19 43 28 48 C 38 52 48 62 43 72 C 38 76 24 76 14 67 C 14 62 9 62 4 62 C 0 72 9 81 28 81 C 48 81 62 72 57 57 C 57 48 52 48 48 48 C 48 48 48 38 52 33 C 57 24 52 19 52 14 C 43 4 14 4 9 14 z" fill="black" /><!-- width=67 height=91 -->
<path id="gl5648" d="M 9 9 C 14 19 14 76 9 91 C 4 100 9 100 38 100 C 76 100 86 100 96 81 C 120 38 91 0 33 0 C 9 0 4 4 9 9 M 62 14 C 91 28 91 76 67 91 C 33 100 28 96 28 57 C 28 9 33 4 62 14 z" fill="black" /><!-- width=115 height=115 -->
<path id="gl1305" d="M 58 22 C 57 23 52 26 49 30 C 45 34 43 34 41 29 C 39 25 37 23 34 23 C 29 23 24 28 24 32 C 24 34 24 35 27 38 C 32 43 31 42 31 61 C 31 78 31 79 28 84 C 25 87 25 88 28 91 C 30 92 30 92 38 92 C 41 92 44 92 47 92 C 48 92 48 91 49 91 C 51 88 51 87 48 84 C 45 78 45 78 45 65 C 45 52 46 49 49 43 C 53 37 56 36 63 38 C 70 39 74 33 70 27 C 69 23 64 21 58 22 z" fill="black" /><!-- width=84 height=105 -->
<path id="gl5397" d="M 27 6 C 18 7 13 11 12 15 C 11 22 21 24 27 18 C 34 12 50 16 51 24 C 52 29 49 31 41 30 C 34 30 30 31 24 34 C 18 37 13 40 13 42 C 13 42 12 44 11 47 C 8 53 8 57 11 64 C 15 72 21 75 34 75 C 39 76 39 75 42 73 C 48 70 52 69 59 72 C 64 75 68 75 71 72 C 72 72 73 70 73 70 C 73 69 72 65 70 63 C 67 60 66 58 67 49 C 67 37 66 23 64 19 C 63 15 58 10 55 9 C 54 9 52 8 50 7 C 46 6 35 5 27 6 M 51 37 C 55 40 55 43 54 50 C 51 61 48 64 37 64 C 28 65 24 63 24 55 C 24 47 27 42 35 40 C 37 39 41 37 42 37 C 46 34 48 34 51 37 z" fill="black" /><!-- width=85 height=87 -->
<path id="gl1795" d="M 18 13 C 13 15 12 19 15 24 C 15 26 17 33 19 39 C 24 57 31 76 37 81 C 42 86 46 85 51 78 C 54 72 57 64 58 61 C 61 55 63 54 65 55 C 67 57 69 58 70 63 C 74 75 79 84 84 84 C 88 85 91 82 98 69 C 99 67 100 64 101 63 C 103 61 105 55 109 41 C 112 34 114 28 115 25 C 117 21 117 18 114 15 C 111 13 111 13 106 13 C 97 13 96 17 99 25 C 100 32 100 37 94 52 C 88 70 85 69 77 48 C 75 45 74 40 73 37 C 73 35 73 33 72 31 C 73 30 73 28 73 27 C 77 16 76 14 69 13 C 57 12 53 17 57 25 C 61 31 59 41 52 56 C 49 61 46 65 44 65 C 42 65 38 59 36 51 C 35 48 34 43 33 41 C 31 34 31 29 33 24 C 36 19 35 16 32 15 C 30 13 21 13 18 13 z" fill="black" /><!-- width=126 height=96 -->
<path id="gl1545" d="M 48 15 C 45 15 43 17 39 19 C 35 22 34 22 30 19 C 27 16 27 15 25 15 C 16 15 13 24 18 29 C 21 33 22 33 22 51 C 22 70 21 70 18 75 C 12 82 15 85 29 84 C 42 84 43 82 37 73 C 36 72 36 72 35 70 C 35 65 35 59 35 54 C 35 37 35 36 36 34 C 41 25 60 22 66 30 C 68 33 69 36 69 53 C 69 70 69 70 65 75 C 63 79 63 81 65 83 C 67 85 82 85 85 83 C 88 81 88 78 85 75 C 82 71 82 70 82 52 C 82 30 81 26 75 20 C 69 15 58 13 48 15 z" fill="black" /><!-- width=100 height=97 -->
<path id="gl1799" d="M 41 10 C 35 12 31 15 28 21 C 25 27 25 29 25 39 C 24 49 24 51 19 52 C 13 54 13 60 19 62 C 24 63 24 63 24 86 C 24 109 24 108 20 112 C 17 116 18 120 21 121 C 26 123 39 121 41 120 C 43 118 43 115 42 114 C 42 114 40 112 39 111 C 39 109 38 108 37 107 C 37 100 37 93 37 87 C 37 61 37 63 43 62 C 49 61 51 60 50 57 C 50 54 48 52 43 52 C 37 52 36 49 37 37 C 38 26 39 24 45 25 C 51 25 54 23 54 18 C 54 12 47 8 41 10 z" fill="black" /><!-- width=65 height=132 -->
<path id="gl1305" d="M 58 22 C 57 23 52 26 49 30 C 45 34 43 34 41 29 C 39 25 37 23 34 23 C 29 23 24 28 24 32 C 24 34 24 35 27 38 C 32 43 31 42 31 61 C 31 78 31 79 28 84 C 25 87 25 88 28 91 C 30 92 30 92 38 92 C 41 92 44 92 47 92 C 48 92 48 91 49 91 C 51 88 51 87 48 84 C 45 78 45 78 45 65 C 45 52 46 49 49 43 C 53 37 56 36 63 38 C 70 39 74 33 70 27 C 69 23 64 21 58 22 z" fill="black" /><!-- width=84 height=105 -->
<path id="gl1539" d="M 43 12 C 41 13 37 14 34 16 C 12 27 6 57 22 73 C 37 88 60 88 75 73 C 100 48 78 7 43 12 M 55 24 C 60 25 64 28 67 32 C 79 50 69 74 49 74 C 30 74 21 53 31 34 C 35 25 46 21 55 24 z" fill="black" /><!-- width=99 height=97 -->
<path id="gl2066" d="M 45 16 C 43 17 40 19 39 20 C 34 23 32 23 28 19 C 24 15 20 15 16 20 C 12 24 12 26 16 31 C 20 34 20 35 20 55 C 20 72 20 73 16 79 C 13 83 16 85 25 87 C 33 87 36 86 38 83 C 38 82 39 82 39 81 C 38 79 37 78 36 76 C 36 75 35 74 34 72 C 34 67 34 63 33 58 C 33 42 33 39 35 35 C 39 27 52 24 59 30 C 63 33 63 36 63 55 C 63 60 63 66 63 71 C 63 73 61 74 61 76 C 57 82 58 83 63 85 C 69 88 79 87 82 82 C 83 81 83 81 81 79 C 77 73 77 73 77 56 C 77 35 78 33 85 29 C 95 25 103 27 106 36 C 107 39 107 41 107 54 C 107 71 107 71 103 77 C 101 82 101 82 104 85 C 106 87 118 87 121 85 C 125 83 126 82 123 76 C 121 70 120 69 120 54 C 120 37 120 33 117 27 C 112 18 102 14 90 16 C 85 18 84 18 80 21 C 75 25 74 25 67 20 C 61 16 51 14 45 16 z" fill="black" /><!-- width=136 height=99 -->
<path id="gl1539" d="M 43 12 C 41 13 37 14 34 16 C 12 27 6 57 22 73 C 37 88 60 88 75 73 C 100 48 78 7 43 12 M 55 24 C 60 25 64 28 67 32 C 79 50 69 74 49 74 C 30 74 21 53 31 34 C 35 25 46 21 55 24 z" fill="black" /><!-- width=99 height=97 -->
<path id="gl1563" d="M 26 7 C 19 9 18 13 21 18 C 25 24 25 21 25 58 C 25 92 25 97 28 102 C 36 119 64 121 79 105 C 93 92 92 64 79 51 C 70 43 60 42 46 48 C 38 51 38 51 39 29 C 39 11 39 10 36 7 C 34 6 30 6 26 7 M 61 56 C 66 57 72 65 73 73 C 77 90 69 104 55 105 C 49 106 42 101 40 96 C 38 88 38 69 40 64 C 43 58 53 54 61 56 z" fill="black" /><!-- width=100 height=135 -->
<path id="gl5649" d="M 33 7 C 25 9 18 15 14 21 C 9 28 18 45 27 45 C 30 45 41 48 46 51 C 48 52 49 52 49 54 C 49 55 50 56 50 56 C 51 58 48 64 46 66 C 45 67 40 69 36 69 C 32 68 30 67 25 63 C 22 60 20 58 19 58 C 16 58 11 60 10 61 C 8 63 9 67 12 69 C 18 73 20 73 24 75 C 27 76 30 77 31 78 C 37 79 51 76 55 71 C 55 70 57 69 58 69 C 61 67 62 66 63 61 C 66 52 66 50 60 45 C 55 40 42 34 35 34 C 31 34 26 30 25 27 C 25 23 25 22 30 19 C 35 16 40 16 48 22 C 55 27 60 27 62 21 C 63 21 63 19 63 19 C 63 18 62 17 61 16 C 58 13 57 12 54 11 C 53 11 51 10 49 9 C 46 7 36 6 33 7 z" fill="black" /><!-- width=76 height=86 -->
<path id="gl1544" d="M 46 13 C 35 15 24 25 19 36 C 15 46 16 61 21 68 C 27 78 39 84 51 84 C 64 84 82 75 82 68 C 82 61 76 60 69 66 C 61 72 54 74 47 72 C 37 70 30 63 34 58 C 35 57 37 57 48 55 C 75 52 88 33 73 19 C 67 13 57 10 46 13 M 60 24 C 66 27 67 34 61 40 C 57 43 37 49 33 48 C 27 46 34 30 44 25 C 49 22 56 22 60 24 z" fill="black" /><!-- width=93 height=96 -->
<path id="gl1305" d="M 58 22 C 57 23 52 26 49 30 C 45 34 43 34 41 29 C 39 25 37 23 34 23 C 29 23 24 28 24 32 C 24 34 24 35 27 38 C 32 43 31 42 31 61 C 31 78 31 79 28 84 C 25 87 25 88 28 91 C 30 92 30 92 38 92 C 41 92 44 92 47 92 C 48 92 48 91 49 91 C 51 88 51 87 48 84 C 45 78 45 78 45 65 C 45 52 46 49 49 43 C 53 37 56 36 63 38 C 70 39 74 33 70 27 C 69 23 64 21 58 22 z" fill="black" /><!-- width=84 height=105 -->
<path id="gl1813" d="M 17 17 C 13 19 12 23 15 26 C 18 29 20 34 22 45 C 23 48 24 53 25 55 C 26 57 27 60 28 61 C 28 62 29 64 30 65 C 31 66 32 68 32 69 C 33 71 36 76 39 81 C 43 87 48 88 51 85 C 54 82 60 75 61 72 C 62 70 63 68 64 67 C 64 66 66 64 66 62 C 67 61 68 59 69 58 C 70 56 70 56 72 51 C 72 49 73 46 73 45 C 74 44 75 40 76 37 C 77 31 78 30 79 28 C 82 27 82 20 79 18 C 77 16 64 16 62 18 C 60 19 61 24 63 27 C 65 30 66 35 64 39 C 63 39 62 43 61 46 C 60 49 59 52 58 54 C 58 54 57 57 56 59 C 55 63 51 69 49 69 C 48 69 43 63 42 60 C 42 58 40 56 39 54 C 39 52 37 49 36 47 C 36 45 35 41 34 39 C 33 34 33 30 35 28 C 38 25 38 19 36 17 C 34 16 20 16 17 17 z" fill="black" /><!-- width=92 height=96 -->
<path id="gl1536" d="M 21 7 C 15 9 13 14 16 19 C 19 25 28 25 32 19 C 36 12 28 4 21 7 M 21 34 C 12 37 9 41 15 46 C 20 51 20 51 19 69 C 19 87 19 89 16 91 C 13 95 12 98 15 100 C 16 102 16 102 25 102 C 35 102 37 102 38 99 C 39 97 39 96 36 93 C 33 89 33 90 33 67 C 33 34 32 31 21 34 z" fill="black" /><!-- width=51 height=120 -->
<path id="gl1545" d="M 48 15 C 45 15 43 17 39 19 C 35 22 34 22 30 19 C 27 16 27 15 25 15 C 16 15 13 24 18 29 C 21 33 22 33 22 51 C 22 70 21 70 18 75 C 12 82 15 85 29 84 C 42 84 43 82 37 73 C 36 72 36 72 35 70 C 35 65 35 59 35 54 C 35 37 35 36 36 34 C 41 25 60 22 66 30 C 68 33 69 36 69 53 C 69 70 69 70 65 75 C 63 79 63 81 65 83 C 67 85 82 85 85 83 C 88 81 88 78 85 75 C 82 71 82 70 82 52 C 82 30 81 26 75 20 C 69 15 58 13 48 15 z" fill="black" /><!-- width=100 height=97 -->
<path id="gl1557" d="M 33 15 C 21 18 12 27 9 39 C 7 47 9 60 12 66 C 18 76 31 82 43 81 C 54 78 61 82 61 90 C 61 97 55 101 43 102 C 32 102 25 100 23 95 C 21 91 18 89 16 90 C 9 92 8 105 15 109 C 30 116 60 114 70 104 C 78 97 78 84 69 78 C 64 74 63 72 68 65 C 74 55 75 47 70 36 C 68 28 68 28 73 25 C 76 24 77 21 76 19 C 76 16 73 16 63 15 C 57 15 49 15 45 15 C 39 15 36 15 33 15 M 46 25 C 55 28 61 40 59 52 C 57 66 48 73 35 69 C 27 67 21 56 22 46 C 24 30 34 22 46 25 z" fill="black" /><!-- width=89 height=125 -->
<path id="gl2066" d="M 45 16 C 43 17 40 19 39 20 C 34 23 32 23 28 19 C 24 15 20 15 16 20 C 12 24 12 26 16 31 C 20 34 20 35 20 55 C 20 72 20 73 16 79 C 13 83 16 85 25 87 C 33 87 36 86 38 83 C 38 82 39 82 39 81 C 38 79 37 78 36 76 C 36 75 35 74 34 72 C 34 67 34 63 33 58 C 33 42 33 39 35 35 C 39 27 52 24 59 30 C 63 33 63 36 63 55 C 63 60 63 66 63 71 C 63 73 61 74 61 76 C 57 82 58 83 63 85 C 69 88 79 87 82 82 C 83 81 83 81 81 79 C 77 73 77 73 77 56 C 77 35 78 33 85 29 C 95 25 103 27 106 36 C 107 39 107 41 107 54 C 107 71 107 71 103 77 C 101 82 101 82 104 85 C 106 87 118 87 121 85 C 125 83 126 82 123 76 C 121 70 120 69 120 54 C 120 37 120 33 117 27 C 112 18 102 14 90 16 C 85 18 84 18 80 21 C 75 25 74 25 67 20 C 61 16 51 14 45 16 z" fill="black" /><!-- width=136 height=99 -->
<path id="gl1306" d="M 29 5 C 21 6 16 9 14 13 C 12 19 20 22 28 16 C 33 13 42 13 47 16 C 51 19 53 21 53 23 C 54 27 52 27 45 27 C 22 27 6 43 11 61 C 13 67 16 69 23 72 C 33 76 39 76 48 71 C 54 69 56 68 60 71 C 65 74 73 74 75 70 C 76 69 76 68 73 64 C 69 60 69 59 69 43 C 69 20 66 13 53 7 C 46 4 37 3 29 5 M 53 36 C 56 37 57 44 55 52 C 54 60 40 67 31 64 C 20 60 21 47 33 40 C 37 37 47 35 51 36 C 51 36 52 36 53 36 z" fill="black" /><!-- width=87 height=85 -->
<path id="gl1545" d="M 48 15 C 45 15 43 17 39 19 C 35 22 34 22 30 19 C 27 16 27 15 25 15 C 16 15 13 24 18 29 C 21 33 22 33 22 51 C 22 70 21 70 18 75 C 12 82 15 85 29 84 C 42 84 43 82 37 73 C 36 72 36 72 35 70 C 35 65 35 59 35 54 C 35 37 35 36 36 34 C 41 25 60 22 66 30 C 68 33 69 36 69 53 C 69 70 69 70 65 75 C 63 79 63 81 65 83 C 67 85 82 85 85 83 C 88 81 88 78 85 75 C 82 71 82 70 82 52 C 82 30 81 26 75 20 C 69 15 58 13 48 15 z" fill="black" /><!-- width=100 height=97 -->
<path id="gl1556" d="M 18 21 C 15 23 14 27 16 33 C 18 36 19 39 19 42 C 19 45 20 49 21 51 C 21 52 22 55 23 58 C 24 61 25 66 26 67 C 27 69 28 72 28 73 C 30 77 37 84 42 86 C 48 89 49 90 48 93 C 44 100 36 106 27 106 C 19 106 17 107 17 113 C 17 117 19 118 24 119 C 28 120 29 119 36 117 C 40 117 51 106 56 99 C 57 97 58 95 59 94 C 63 89 70 73 72 66 C 73 64 74 61 75 60 C 75 58 76 54 76 52 C 78 41 79 37 81 34 C 82 28 82 25 79 22 C 79 22 78 21 78 21 C 76 21 73 21 71 21 C 63 21 61 22 61 26 C 61 28 62 30 64 31 C 66 33 66 36 66 41 C 66 48 66 54 64 57 C 63 59 61 63 61 64 C 59 74 54 79 48 76 C 38 70 30 42 34 31 C 36 28 36 24 34 22 C 33 21 33 21 26 21 C 22 21 19 21 18 21 z" fill="black" /><!-- width=92 height=130 -->
<path id="gl1307" d="M 49 12 C 27 17 15 45 25 67 C 32 79 48 86 61 82 C 76 78 84 70 81 64 C 78 60 75 61 69 66 C 61 73 49 73 42 67 C 28 53 37 22 54 22 C 59 22 61 24 65 28 C 70 34 77 34 79 28 C 82 18 64 9 49 12 z" fill="black" /><!-- width=92 height=96 -->
<path id="gl5646" d="M 27 7 C 21 10 19 12 20 15 C 20 16 21 18 22 19 C 24 21 25 23 25 31 C 25 34 25 39 25 42 C 26 45 26 48 26 51 C 25 54 25 57 26 58 C 26 60 26 64 25 69 C 25 73 25 76 25 78 C 26 79 26 80 25 81 C 25 82 25 87 25 93 C 25 104 25 105 21 107 C 18 109 18 110 21 112 C 23 114 26 115 30 115 C 31 114 33 115 34 115 C 38 116 42 115 43 114 C 45 110 45 109 42 107 C 40 105 39 99 39 82 C 39 75 39 67 39 65 C 39 60 40 58 44 58 C 45 58 47 57 49 57 C 53 54 60 55 64 57 C 67 58 67 59 70 63 C 70 64 71 66 72 67 C 72 72 72 78 72 83 C 72 101 72 103 67 107 C 66 109 66 110 68 113 C 71 115 72 116 79 115 C 85 115 85 115 87 112 C 90 111 91 108 89 108 C 89 108 88 105 87 103 C 86 101 85 100 85 98 C 85 95 85 92 85 89 C 85 84 85 78 85 75 C 85 69 84 63 82 59 C 82 57 81 55 81 54 C 79 49 73 45 63 45 C 52 44 51 44 49 46 C 45 50 40 50 39 48 C 38 46 39 33 39 18 C 40 10 39 9 36 7 C 32 5 31 5 27 7 z" fill="black" /><!-- width=100 height=137 -->
<path id="gl5384" d="M 39 11 C 30 13 19 21 15 31 C 11 41 10 48 13 60 C 15 67 21 75 27 79 C 32 82 44 85 48 84 C 66 82 72 78 79 64 C 84 55 85 45 82 37 C 81 36 80 33 79 30 C 78 25 75 22 73 20 C 72 19 70 18 69 17 C 63 11 51 9 39 11 M 58 24 C 64 28 64 28 67 34 C 76 53 64 73 44 73 C 40 73 40 73 36 70 C 25 63 21 49 27 37 C 31 29 33 27 37 24 C 42 21 42 21 48 21 C 51 21 52 21 54 21 C 55 22 57 23 58 24 z" fill="black" /><!-- width=96 height=95 -->
<path id="gl1536" d="M 21 7 C 15 9 13 14 16 19 C 19 25 28 25 32 19 C 36 12 28 4 21 7 M 21 34 C 12 37 9 41 15 46 C 20 51 20 51 19 69 C 19 87 19 89 16 91 C 13 95 12 98 15 100 C 16 102 16 102 25 102 C 35 102 37 102 38 99 C 39 97 39 96 36 93 C 33 89 33 90 33 67 C 33 34 32 31 21 34 z" fill="black" /><!-- width=51 height=120 -->
<path id="gl1305" d="M 58 22 C 57 23 52 26 49 30 C 45 34 43 34 41 29 C 39 25 37 23 34 23 C 29 23 24 28 24 32 C 24 34 24 35 27 38 C 32 43 31 42 31 61 C 31 78 31 79 28 84 C 25 87 25 88 28 91 C 30 92 30 92 38 92 C 41 92 44 92 47 92 C 48 92 48 91 49 91 C 51 88 51 87 48 84 C 45 78 45 78 45 65 C 45 52 46 49 49 43 C 53 37 56 36 63 38 C 70 39 74 33 70 27 C 69 23 64 21 58 22 z" fill="black" /><!-- width=84 height=105 -->
<path id="gl1796" d="M 30 11 C 24 13 16 19 15 25 C 10 36 16 47 28 49 C 37 52 45 54 46 55 C 52 60 51 69 43 72 C 36 74 30 72 23 66 C 19 62 18 61 15 62 C 8 63 9 72 16 76 C 28 84 39 84 50 79 C 59 75 63 69 63 61 C 63 49 57 43 40 39 C 29 36 27 35 25 30 C 25 26 28 21 35 21 C 39 20 42 21 48 25 C 55 31 57 31 60 27 C 63 21 59 16 51 12 C 48 11 34 10 30 11 z" fill="black" /><!-- width=76 height=94 -->
<path id="gl1544" d="M 46 13 C 35 15 24 25 19 36 C 15 46 16 61 21 68 C 27 78 39 84 51 84 C 64 84 82 75 82 68 C 82 61 76 60 69 66 C 61 72 54 74 47 72 C 37 70 30 63 34 58 C 35 57 37 57 48 55 C 75 52 88 33 73 19 C 67 13 57 10 46 13 M 60 24 C 66 27 67 34 61 40 C 57 43 37 49 33 48 C 27 46 34 30 44 25 C 49 22 56 22 60 24 z" fill="black" /><!-- width=93 height=96 -->
<path id="gl1537" d="M 23 13 C 15 15 12 19 16 24 C 19 30 19 26 19 65 C 20 105 20 105 17 109 C 14 114 13 115 14 117 C 15 120 17 120 26 120 C 35 121 37 120 39 117 C 39 115 39 114 37 111 C 33 106 33 108 33 60 C 33 19 33 16 32 15 C 30 12 28 12 23 13 z" fill="black" /><!-- width=52 height=137 -->
<path id="gl1796" d="M 30 11 C 24 13 16 19 15 25 C 10 36 16 47 28 49 C 37 52 45 54 46 55 C 52 60 51 69 43 72 C 36 74 30 72 23 66 C 19 62 18 61 15 62 C 8 63 9 72 16 76 C 28 84 39 84 50 79 C 59 75 63 69 63 61 C 63 49 57 43 40 39 C 29 36 27 35 25 30 C 25 26 28 21 35 21 C 39 20 42 21 48 25 C 55 31 57 31 60 27 C 63 21 59 16 51 12 C 48 11 34 10 30 11 z" fill="black" /><!-- width=76 height=94 -->
<path id="gl1544" d="M 46 13 C 35 15 24 25 19 36 C 15 46 16 61 21 68 C 27 78 39 84 51 84 C 64 84 82 75 82 68 C 82 61 76 60 69 66 C 61 72 54 74 47 72 C 37 70 30 63 34 58 C 35 57 37 57 48 55 C 75 52 88 33 73 19 C 67 13 57 10 46 13 M 60 24 C 66 27 67 34 61 40 C 57 43 37 49 33 48 C 27 46 34 30 44 25 C 49 22 56 22 60 24 z" fill="black" /><!-- width=93 height=96 -->
<path id="gl1795" d="M 18 13 C 13 15 12 19 15 24 C 15 26 17 33 19 39 C 24 57 31 76 37 81 C 42 86 46 85 51 78 C 54 72 57 64 58 61 C 61 55 63 54 65 55 C 67 57 69 58 70 63 C 74 75 79 84 84 84 C 88 85 91 82 98 69 C 99 67 100 64 101 63 C 103 61 105 55 109 41 C 112 34 114 28 115 25 C 117 21 117 18 114 15 C 111 13 111 13 106 13 C 97 13 96 17 99 25 C 100 32 100 37 94 52 C 88 70 85 69 77 48 C 75 45 74 40 73 37 C 73 35 73 33 72 31 C 73 30 73 28 73 27 C 77 16 76 14 69 13 C 57 12 53 17 57 25 C 61 31 59 41 52 56 C 49 61 46 65 44 65 C 42 65 38 59 36 51 C 35 48 34 43 33 41 C 31 34 31 29 33 24 C 36 19 35 16 32 15 C 30 13 21 13 18 13 z" fill="black" /><!-- width=126 height=96 -->
<path id="gl1541" d="M 33 7 C 27 7 22 11 24 15 C 24 16 25 18 26 20 C 29 25 30 31 29 68 C 28 102 29 100 25 105 C 19 111 22 115 34 115 C 42 115 45 115 47 112 C 49 111 49 109 45 104 C 45 103 43 102 43 100 C 43 95 43 89 43 84 C 42 73 43 66 43 64 C 45 57 60 53 68 57 C 74 60 75 63 75 78 C 76 93 75 100 73 105 C 67 112 70 115 85 115 C 95 114 97 111 93 105 C 89 100 89 100 89 85 C 90 70 89 64 87 59 C 82 46 67 40 51 47 C 42 51 42 49 42 28 C 43 7 43 5 33 7 z" fill="black" /><!-- width=106 height=137 -->
<path id="gl1802" d="M 42 13 C 33 16 22 25 20 33 C 19 34 18 37 17 39 C 12 51 16 66 25 75 C 37 87 57 88 73 77 C 77 74 78 74 79 71 C 81 67 81 66 78 63 C 75 61 71 63 67 67 C 64 70 57 73 53 73 C 43 75 30 67 32 60 C 33 58 35 57 43 56 C 60 54 75 46 77 38 C 81 24 70 12 52 13 C 48 13 45 13 42 13 M 58 24 C 66 28 65 37 57 42 C 52 45 37 49 33 49 C 28 49 28 42 33 33 C 39 25 51 20 58 24 z" fill="black" /><!-- width=90 height=97 -->
<path id="gl1305" d="M 58 22 C 57 23 52 26 49 30 C 45 34 43 34 41 29 C 39 25 37 23 34 23 C 29 23 24 28 24 32 C 24 34 24 35 27 38 C 32 43 31 42 31 61 C 31 78 31 79 28 84 C 25 87 25 88 28 91 C 30 92 30 92 38 92 C 41 92 44 92 47 92 C 48 92 48 91 49 91 C 51 88 51 87 48 84 C 45 78 45 78 45 65 C 45 52 46 49 49 43 C 53 37 56 36 63 38 C 70 39 74 33 70 27 C 69 23 64 21 58 22 z" fill="black" /><!-- width=84 height=105 -->
<path id="gl1802" d="M 42 13 C 33 16 22 25 20 33 C 19 34 18 37 17 39 C 12 51 16 66 25 75 C 37 87 57 88 73 77 C 77 74 78 74 79 71 C 81 67 81 66 78 63 C 75 61 71 63 67 67 C 64 70 57 73 53 73 C 43 75 30 67 32 60 C 33 58 35 57 43 56 C 60 54 75 46 77 38 C 81 24 70 12 52 13 C 48 13 45 13 42 13 M 58 24 C 66 28 65 37 57 42 C 52 45 37 49 33 49 C 28 49 28 42 33 33 C 39 25 51 20 58 24 z" fill="black" /><!-- width=90 height=97 -->
<path id="gl1536" d="M 21 7 C 15 9 13 14 16 19 C 19 25 28 25 32 19 C 36 12 28 4 21 7 M 21 34 C 12 37 9 41 15 46 C 20 51 20 51 19 69 C 19 87 19 89 16 91 C 13 95 12 98 15 100 C 16 102 16 102 25 102 C 35 102 37 102 38 99 C 39 97 39 96 36 93 C 33 89 33 90 33 67 C 33 34 32 31 21 34 z" fill="black" /><!-- width=51 height=120 -->
<path id="gl1545" d="M 48 15 C 45 15 43 17 39 19 C 35 22 34 22 30 19 C 27 16 27 15 25 15 C 16 15 13 24 18 29 C 21 33 22 33 22 51 C 22 70 21 70 18 75 C 12 82 15 85 29 84 C 42 84 43 82 37 73 C 36 72 36 72 35 70 C 35 65 35 59 35 54 C 35 37 35 36 36 34 C 41 25 60 22 66 30 C 68 33 69 36 69 53 C 69 70 69 70 65 75 C 63 79 63 81 65 83 C 67 85 82 85 85 83 C 88 81 88 78 85 75 C 82 71 82 70 82 52 C 82 30 81 26 75 20 C 69 15 58 13 48 15 z" fill="black" /><!-- width=100 height=97 -->
<path id="gl1308" d="M 31 7 C 30 8 29 10 28 17 C 27 27 26 30 21 31 C 13 33 13 39 20 40 C 26 42 25 40 25 69 C 25 102 24 100 40 100 C 51 101 52 101 54 99 C 58 95 55 91 49 90 C 38 89 39 91 38 64 C 38 40 37 41 46 40 C 54 40 56 39 55 36 C 55 32 53 31 47 31 C 39 31 38 30 39 20 C 40 10 39 7 34 6 C 34 6 33 6 31 7 z" fill="black" /><!-- width=68 height=113 -->
<path id="gl1541" d="M 33 7 C 27 7 22 11 24 15 C 24 16 25 18 26 20 C 29 25 30 31 29 68 C 28 102 29 100 25 105 C 19 111 22 115 34 115 C 42 115 45 115 47 112 C 49 111 49 109 45 104 C 45 103 43 102 43 100 C 43 95 43 89 43 84 C 42 73 43 66 43 64 C 45 57 60 53 68 57 C 74 60 75 63 75 78 C 76 93 75 100 73 105 C 67 112 70 115 85 115 C 95 114 97 111 93 105 C 89 100 89 100 89 85 C 90 70 89 64 87 59 C 82 46 67 40 51 47 C 42 51 42 49 42 28 C 43 7 43 5 33 7 z" fill="black" /><!-- width=106 height=137 -->
<path id="gl1802" d="M 42 13 C 33 16 22 25 20 33 C 19 34 18 37 17 39 C 12 51 16 66 25 75 C 37 87 57 88 73 77 C 77 74 78 74 79 71 C 81 67 81 66 78 63 C 75 61 71 63 67 67 C 64 70 57 73 53 73 C 43 75 30 67 32 60 C 33 58 35 57 43 56 C 60 54 75 46 77 38 C 81 24 70 12 52 13 C 48 13 45 13 42 13 M 58 24 C 66 28 65 37 57 42 C 52 45 37 49 33 49 C 28 49 28 42 33 33 C 39 25 51 20 58 24 z" fill="black" /><!-- width=90 height=97 -->
<path id="gl5650" d="M 86 9 C 76 9 76 14 76 14 C 86 19 86 81 76 91 C 67 100 48 100 33 91 C 24 76 24 24 33 19 C 38 14 33 4 24 4 C 19 4 14 4 9 4 C 9 19 9 28 9 43 C 14 100 33 124 76 105 C 96 100 96 91 100 48 C 100 4 100 0 86 9 z" fill="black" /><!-- width=110 height=120 -->
<path id="gl1545" d="M 48 15 C 45 15 43 17 39 19 C 35 22 34 22 30 19 C 27 16 27 15 25 15 C 16 15 13 24 18 29 C 21 33 22 33 22 51 C 22 70 21 70 18 75 C 12 82 15 85 29 84 C 42 84 43 82 37 73 C 36 72 36 72 35 70 C 35 65 35 59 35 54 C 35 37 35 36 36 34 C 41 25 60 22 66 30 C 68 33 69 36 69 53 C 69 70 69 70 65 75 C 63 79 63 81 65 83 C 67 85 82 85 85 83 C 88 81 88 78 85 75 C 82 71 82 70 82 52 C 82 30 81 26 75 20 C 69 15 58 13 48 15 z" fill="black" /><!-- width=100 height=97 -->
<path id="gl1536" d="M 21 7 C 15 9 13 14 16 19 C 19 25 28 25 32 19 C 36 12 28 4 21 7 M 21 34 C 12 37 9 41 15 46 C 20 51 20 51 19 69 C 19 87 19 89 16 91 C 13 95 12 98 15 100 C 16 102 16 102 25 102 C 35 102 37 102 38 99 C 39 97 39 96 36 93 C 33 89 33 90 33 67 C 33 34 32 31 21 34 z" fill="black" /><!-- width=51 height=120 -->
<path id="gl1308" d="M 31 7 C 30 8 29 10 28 17 C 27 27 26 30 21 31 C 13 33 13 39 20 40 C 26 42 25 40 25 69 C 25 102 24 100 40 100 C 51 101 52 101 54 99 C 58 95 55 91 49 90 C 38 89 39 91 38 64 C 38 40 37 41 46 40 C 54 40 56 39 55 36 C 55 32 53 31 47 31 C 39 31 38 30 39 20 C 40 10 39 7 34 6 C 34 6 33 6 31 7 z" fill="black" /><!-- width=68 height=113 -->
<path id="gl1544" d="M 46 13 C 35 15 24 25 19 36 C 15 46 16 61 21 68 C 27 78 39 84 51 84 C 64 84 82 75 82 68 C 82 61 76 60 69 66 C 61 72 54 74 47 72 C 37 70 30 63 34 58 C 35 57 37 57 48 55 C 75 52 88 33 73 19 C 67 13 57 10 46 13 M 60 24 C 66 27 67 34 61 40 C 57 43 37 49 33 48 C 27 46 34 30 44 25 C 49 22 56 22 60 24 z" fill="black" /><!-- width=93 height=96 -->
<path id="gl5651" d="M 57 4 C 52 9 52 14 57 19 C 67 33 62 38 43 38 C 9 38 0 86 24 105 C 28 110 38 110 52 110 C 57 110 67 110 72 105 C 72 91 72 72 72 57 C 72 4 67 0 57 4 M 52 52 C 57 57 62 67 57 76 C 57 100 33 105 24 81 C 19 62 38 43 52 52 z" fill="black" /><!-- width=86 height=120 -->
<path id="gl5652" d="M 28 9 C 0 19 4 52 43 62 C 67 72 76 81 62 96 C 48 105 33 100 24 91 C 19 81 0 81 0 86 C 0 105 62 115 76 100 C 91 81 76 52 48 48 C 28 43 19 33 24 24 C 28 14 48 9 62 24 C 67 28 76 28 76 24 C 86 14 48 0 28 9 z" fill="black" /><!-- width=96 height=120 -->
<path id="gl1308" d="M 31 7 C 30 8 29 10 28 17 C 27 27 26 30 21 31 C 13 33 13 39 20 40 C 26 42 25 40 25 69 C 25 102 24 100 40 100 C 51 101 52 101 54 99 C 58 95 55 91 49 90 C 38 89 39 91 38 64 C 38 40 37 41 46 40 C 54 40 56 39 55 36 C 55 32 53 31 47 31 C 39 31 38 30 39 20 C 40 10 39 7 34 6 C 34 6 33 6 31 7 z" fill="black" /><!-- width=68 height=113 -->
<path id="gl1306" d="M 29 5 C 21 6 16 9 14 13 C 12 19 20 22 28 16 C 33 13 42 13 47 16 C 51 19 53 21 53 23 C 54 27 52 27 45 27 C 22 27 6 43 11 61 C 13 67 16 69 23 72 C 33 76 39 76 48 71 C 54 69 56 68 60 71 C 65 74 73 74 75 70 C 76 69 76 68 73 64 C 69 60 69 59 69 43 C 69 20 66 13 53 7 C 46 4 37 3 29 5 M 53 36 C 56 37 57 44 55 52 C 54 60 40 67 31 64 C 20 60 21 47 33 40 C 37 37 47 35 51 36 C 51 36 52 36 53 36 z" fill="black" /><!-- width=87 height=85 -->
<path id="gl1308" d="M 31 7 C 30 8 29 10 28 17 C 27 27 26 30 21 31 C 13 33 13 39 20 40 C 26 42 25 40 25 69 C 25 102 24 100 40 100 C 51 101 52 101 54 99 C 58 95 55 91 49 90 C 38 89 39 91 38 64 C 38 40 37 41 46 40 C 54 40 56 39 55 36 C 55 32 53 31 47 31 C 39 31 38 30 39 20 C 40 10 39 7 34 6 C 34 6 33 6 31 7 z" fill="black" /><!-- width=68 height=113 -->
<path id="gl1544" d="M 46 13 C 35 15 24 25 19 36 C 15 46 16 61 21 68 C 27 78 39 84 51 84 C 64 84 82 75 82 68 C 82 61 76 60 69 66 C 61 72 54 74 47 72 C 37 70 30 63 34 58 C 35 57 37 57 48 55 C 75 52 88 33 73 19 C 67 13 57 10 46 13 M 60 24 C 66 27 67 34 61 40 C 57 43 37 49 33 48 C 27 46 34 30 44 25 C 49 22 56 22 60 24 z" fill="black" /><!-- width=93 height=96 -->
<path id="gl5649" d="M 33 7 C 25 9 18 15 14 21 C 9 28 18 45 27 45 C 30 45 41 48 46 51 C 48 52 49 52 49 54 C 49 55 50 56 50 56 C 51 58 48 64 46 66 C 45 67 40 69 36 69 C 32 68 30 67 25 63 C 22 60 20 58 19 58 C 16 58 11 60 10 61 C 8 63 9 67 12 69 C 18 73 20 73 24 75 C 27 76 30 77 31 78 C 37 79 51 76 55 71 C 55 70 57 69 58 69 C 61 67 62 66 63 61 C 66 52 66 50 60 45 C 55 40 42 34 35 34 C 31 34 26 30 25 27 C 25 23 25 22 30 19 C 35 16 40 16 48 22 C 55 27 60 27 62 21 C 63 21 63 19 63 19 C 63 18 62 17 61 16 C 58 13 57 12 54 11 C 53 11 51 10 49 9 C 46 7 36 6 33 7 z" fill="black" /><!-- width=76 height=86 -->
<path id="gl1565" d="M 18 13 C 13 18 13 27 18 28 C 24 30 29 27 30 21 C 31 16 31 16 25 13 C 21 11 21 11 18 13 z" fill="black" /><!-- width=45 height=42 -->
</defs>
<use xlink:href="#gl5647" x="0" y="6" />
<use xlink:href="#gl5648" x="240" y="16" />
<use xlink:href="#gl1305" x="327" y="30" />
<use xlink:href="#gl5397" x="391" y="46" />
<use xlink:href="#gl1795" x="455" y="38" />
<use xlink:href="#gl1545" x="558" y="38" />
<use xlink:href="#gl1799" x="679" y="0" />
<use xlink:href="#gl1305" x="713" y="30" />
<use xlink:href="#gl1539" x="774" y="39" />
<use xlink:href="#gl2066" x="853" y="36" />
<use xlink:href="#gl1539" x="1013" y="39" />
<use xlink:href="#gl1563" x="1084" y="7" />
<use xlink:href="#gl5649" x="1167" y="45" />
<use xlink:href="#gl1544" x="1217" y="39" />
<use xlink:href="#gl1305" x="1281" y="30" />
<use xlink:href="#gl1813" x="1338" y="36" />
<use xlink:href="#gl1536" x="1409" y="20" />
<use xlink:href="#gl1545" x="1439" y="38" />
<use xlink:href="#gl1557" x="1522" y="38" />
<use xlink:href="#gl2066" x="1634" y="36" />
<use xlink:href="#gl1306" x="1755" y="48" />
<use xlink:href="#gl1545" x="1821" y="38" />
<use xlink:href="#gl1556" x="1897" y="31" />
<use xlink:href="#gl1307" x="2003" y="40" />
<use xlink:href="#gl5646" x="2070" y="8" />
<use xlink:href="#gl5384" x="2156" y="40" />
<use xlink:href="#gl1536" x="2235" y="19" />
<use xlink:href="#gl1305" x="2256" y="30" />
<use xlink:href="#gl1796" x="2318" y="41" />
<use xlink:href="#gl1544" x="2412" y="39" />
<use xlink:href="#gl1537" x="2485" y="1" />
<use xlink:href="#gl1796" x="2518" y="41" />
<use xlink:href="#gl1544" x="2568" y="40" />
<use xlink:href="#gl1795" x="2639" y="38" />
<use xlink:href="#gl1541" x="2735" y="8" />
<use xlink:href="#gl1802" x="2819" y="39" />
<use xlink:href="#gl1305" x="2882" y="30" />
<use xlink:href="#gl1802" x="2940" y="39" />
<use xlink:href="#gl1536" x="3058" y="20" />
<use xlink:href="#gl1545" x="3087" y="37" />
<use xlink:href="#gl1308" x="3206" y="22" />
<use xlink:href="#gl1541" x="3243" y="7" />
<use xlink:href="#gl1802" x="3328" y="39" />
<use xlink:href="#gl5650" x="3452" y="11" />
<use xlink:href="#gl1545" x="3549" y="38" />
<use xlink:href="#gl1536" x="3630" y="19" />
<use xlink:href="#gl1308" x="3657" y="21" />
<use xlink:href="#gl1544" x="3700" y="39" />
<use xlink:href="#gl5651" x="3778" y="11" />
<use xlink:href="#gl5652" x="3898" y="11" />
<use xlink:href="#gl1308" x="3969" y="21" />
<use xlink:href="#gl1306" x="4019" y="47" />
<use xlink:href="#gl1308" x="4082" y="21" />
<use xlink:href="#gl1544" x="4125" y="39" />
<use xlink:href="#gl5649" x="4199" y="45" />
<use xlink:href="#gl1565" x="4264" y="93" />
</svg>