<?xml version="1.0" standalone="no"?>
<!DOCTYPE svg PUBLIC "-//W3C/DTD SVG 1.1//EN" "http://www.w3.org/Graphics/SVG/1.1/DTD/svg11.dtd">
<svg width="454px" height="22px" viewBox="0 0 4549 221" xmlns="http://www.w3.org/2000/svg" xmlns:xlink="http://www.w3.org/1999/xlink" version="1.1">
<defs>
<path id="gl5904" d="M 29 7 C 24 9 17 20 15 31 C 12 48 22 61 35 55 C 42 51 41 39 33 37 C 26 34 25 27 31 21 C 37 15 37 12 35 8 C 33 6 32 6 29 7 M 61 9 C 55 16 51 24 51 34 C 50 49 55 57 66 56 C 72 56 76 52 75 46 C 75 40 73 38 67 36 C 60 33 61 27 68 19 C 72 15 73 13 72 10 C 70 5 66 4 61 9 z" fill="black" /><!-- width=88 height=73 -->
<path id="gl3589" d="M 60 14 C 33 18 15 38 18 61 C 21 78 34 88 63 94 C 91 101 101 106 105 115 C 110 127 105 141 94 148 C 86 152 80 154 69 154 C 51 154 38 147 28 133 C 24 127 23 126 19 126 C 9 126 13 142 27 153 C 49 171 94 169 112 149 C 129 131 129 105 111 90 C 104 84 96 81 75 76 C 51 70 43 67 40 58 C 31 41 46 24 68 25 C 79 25 88 29 97 39 C 103 44 105 45 108 44 C 113 43 114 31 109 25 C 102 18 77 12 60 14 z" fill="black" /><!-- width=139 height=180 -->
<path id="gl6164" d="M 40 9 C 37 11 36 15 36 22 C 34 40 33 44 25 45 C 14 45 13 57 24 58 C 33 59 33 57 32 93 C 32 139 32 135 33 138 C 36 141 37 141 53 142 C 70 142 72 142 75 139 C 77 137 78 135 76 132 C 73 129 71 127 63 127 C 60 127 58 127 56 127 C 55 127 54 126 54 126 C 51 123 51 121 50 90 C 50 81 50 71 50 62 C 51 61 51 61 52 60 C 52 60 53 59 54 58 C 57 58 60 58 63 58 C 72 58 72 58 73 57 C 76 55 77 52 76 49 C 75 45 72 44 58 45 C 54 45 54 45 52 43 C 51 42 51 42 50 41 C 50 39 51 37 51 34 C 52 14 52 14 51 12 C 48 8 43 6 40 9 z" fill="black" /><!-- width=89 height=158 -->
<path id="gl515" d="M 64 12 C 43 16 27 31 21 52 C 19 60 19 73 21 79 C 29 108 63 123 91 109 C 108 100 115 91 109 85 C 106 81 102 83 94 90 C 83 99 73 102 60 98 C 49 96 39 85 40 79 C 41 75 42 74 54 73 C 75 73 91 67 101 56 C 110 46 110 33 102 22 C 93 13 79 9 64 12 M 78 25 C 85 27 89 31 89 38 C 89 46 85 51 75 56 C 70 58 48 65 44 65 C 38 65 36 61 39 53 C 43 34 61 21 78 25 z" fill="black" /><!-- width=123 height=126 -->
<path id="gl4104" d="M 76 34 C 70 35 64 37 61 40 C 55 45 51 45 48 40 C 45 36 42 34 38 34 C 31 34 24 39 24 43 C 24 46 24 46 28 49 C 35 54 34 50 34 102 C 35 152 35 154 31 159 C 27 164 28 167 32 169 C 36 171 54 170 56 168 C 59 166 59 163 56 160 C 52 154 52 154 52 142 C 52 135 52 129 53 127 C 54 124 54 123 53 120 C 52 115 51 88 52 76 C 52 64 54 60 60 54 C 74 40 97 43 105 61 C 109 71 111 86 108 97 C 102 117 89 126 70 121 C 63 119 61 119 58 121 C 58 122 57 123 57 123 C 57 124 57 124 58 125 C 60 130 70 133 80 133 C 102 133 121 119 125 100 C 133 67 120 41 94 35 C 90 34 80 33 76 34 z" fill="black" /><!-- width=141 height=184 -->
<path id="gl18181" d="M 78 7 C 75 8 66 15 54 27 C 27 55 1 105 9 114 C 12 117 13 117 38 117 C 71 118 71 118 71 132 C 71 139 70 141 66 146 C 60 151 60 154 66 156 C 69 156 93 157 97 156 C 101 154 101 154 102 151 C 102 150 102 149 98 145 C 93 141 92 138 92 132 C 91 121 93 118 103 118 C 111 117 114 116 115 114 C 117 112 117 111 116 109 C 115 106 111 105 103 104 C 91 103 92 108 91 55 C 91 10 91 10 88 8 C 86 7 82 6 78 7 M 70 37 C 71 40 71 40 71 69 C 71 106 72 104 57 105 C 42 105 30 104 28 102 C 23 98 30 83 49 54 C 51 52 53 49 55 46 C 58 44 60 41 60 40 C 62 38 66 35 67 36 C 68 36 69 37 70 37 z" fill="black" /><!-- width=134 height=171 -->
<path id="gl8969" d="M 21 8 C 12 9 10 11 10 19 C 10 26 12 29 17 30 C 24 33 34 25 34 18 C 34 16 30 10 28 9 C 25 8 24 8 21 8 M 16 66 C 12 68 11 70 10 78 C 10 85 12 87 22 87 C 30 87 33 85 33 78 C 33 67 25 61 16 66 z" fill="black" /><!-- width=43 height=98 -->
<path id="gl16898" d="M 102 14 C 57 21 26 67 36 112 C 40 130 50 145 66 156 C 74 162 85 166 95 168 C 102 168 119 168 124 167 C 150 162 174 141 166 132 C 163 130 157 130 154 135 C 152 136 139 145 136 147 C 118 156 97 154 81 144 C 60 129 52 89 65 61 C 76 39 94 27 116 28 C 130 28 141 34 148 46 C 150 49 153 54 154 56 C 159 62 164 63 167 57 C 168 55 168 53 168 46 C 168 31 166 28 154 22 C 138 15 118 12 102 14 z" fill="black" /><!-- width=183 height=181 -->
<path id="gl5654" d="M 28 9 C 15 12 10 18 18 25 C 23 31 23 25 22 88 C 22 150 23 148 19 150 C 13 154 12 161 17 163 C 20 165 45 165 48 163 C 52 160 52 157 46 151 C 44 149 42 146 42 145 C 42 144 41 119 42 78 C 42 28 41 12 41 11 C 39 8 36 7 28 9 z" fill="black" /><!-- width=64 height=179 -->
<path id="gl512" d="M 36 9 C 25 11 19 14 16 18 C 16 19 15 21 15 21 C 15 22 16 23 16 24 C 18 29 24 30 30 27 C 43 19 48 18 56 20 C 67 23 77 32 75 38 C 75 41 73 42 68 42 C 46 40 31 45 20 57 C 12 64 9 76 12 87 C 16 102 36 111 55 107 C 61 106 64 105 69 100 C 76 95 78 95 81 100 C 84 105 86 105 93 105 C 102 106 104 104 104 99 C 104 97 104 97 102 95 C 96 91 94 89 94 87 C 94 85 94 75 94 63 C 94 39 93 35 90 28 C 82 12 60 4 36 9 M 76 53 C 77 55 78 55 77 64 C 77 79 76 82 69 87 C 50 100 28 95 29 78 C 29 64 39 56 60 52 C 70 51 74 51 76 53 z" fill="black" /><!-- width=117 height=124 -->
<path id="gl3613" d="M 73 35 C 67 37 66 37 60 41 C 53 46 51 46 47 39 C 43 33 33 33 27 39 C 22 43 23 46 28 51 C 35 55 34 52 34 103 C 35 152 35 153 31 158 C 28 163 28 164 30 166 C 31 167 31 168 32 168 C 36 168 39 168 43 168 C 47 168 51 168 55 168 C 55 168 56 167 57 166 C 58 164 58 162 54 157 C 52 154 51 152 52 138 C 52 131 52 124 52 123 C 52 121 52 109 52 97 C 51 66 52 64 59 56 C 61 53 64 51 67 49 C 69 49 71 48 73 47 C 75 47 78 47 81 47 C 90 47 94 48 100 54 C 106 61 108 68 109 81 C 109 97 106 108 96 116 C 89 122 81 123 71 121 C 62 118 59 119 58 123 C 57 128 67 132 80 132 C 112 133 133 105 126 69 C 120 45 97 29 73 35 z" fill="black" /><!-- width=141 height=183 -->
<path id="gl4" d="M 39 13 C 24 18 14 30 15 44 C 16 59 22 64 45 70 C 51 72 58 73 60 75 C 73 81 70 98 54 101 C 44 103 36 100 28 93 C 21 85 17 84 13 87 C 9 91 10 97 15 103 C 27 114 47 117 63 111 C 88 102 92 72 70 60 C 65 58 54 54 52 54 C 49 54 40 51 37 49 C 32 47 30 45 30 40 C 30 31 37 25 48 25 C 55 25 58 27 64 33 C 70 38 72 39 75 39 C 82 37 84 28 78 21 C 72 15 50 10 39 13 z" fill="black" /><!-- width=98 height=127 -->
<path id="gl514" d="M 27 7 C 19 9 15 18 19 26 C 22 33 36 33 41 26 C 43 22 43 15 40 12 C 37 9 31 7 27 7 M 32 46 C 29 46 18 51 15 53 C 10 56 12 62 19 64 C 24 66 25 67 24 99 C 24 127 24 127 20 130 C 13 133 12 137 16 141 C 16 141 17 141 18 142 C 22 142 27 142 31 142 C 47 142 48 142 50 139 C 51 138 52 137 52 136 C 52 135 48 131 45 129 C 41 127 42 127 41 89 C 41 67 41 53 41 51 C 40 48 36 45 32 46 z" fill="black" /><!-- width=63 height=165 -->
<path id="gl262" d="M 129 19 C 122 19 115 22 109 27 C 103 31 100 31 94 26 C 87 21 83 19 73 19 C 63 18 57 20 49 25 C 43 29 42 29 37 24 C 33 18 29 18 23 22 C 16 27 16 30 22 39 C 25 42 25 44 25 71 C 25 99 25 99 21 103 C 15 111 21 114 37 114 C 45 113 46 113 48 111 C 50 109 49 107 46 103 C 42 99 42 99 43 71 C 43 48 43 47 44 45 C 51 30 72 25 82 36 C 87 42 87 48 88 76 C 88 98 87 98 84 103 C 81 107 81 108 82 110 C 83 113 85 114 94 114 C 110 114 114 111 108 103 C 105 97 105 97 105 73 C 105 43 105 40 118 33 C 132 27 144 31 148 43 C 150 46 150 50 150 70 C 150 97 150 97 146 103 C 143 108 143 108 145 111 C 147 113 151 114 163 114 C 173 113 175 110 171 103 C 167 98 167 100 166 72 C 166 63 166 54 166 46 C 166 44 165 42 165 40 C 163 34 161 31 157 27 C 151 21 139 17 129 19 z" fill="black" /><!-- width=186 height=128 -->
<path id="gl3613" d="M 73 35 C 67 37 66 37 60 41 C 53 46 51 46 47 39 C 43 33 33 33 27 39 C 22 43 23 46 28 51 C 35 55 34 52 34 103 C 35 152 35 153 31 158 C 28 163 28 164 30 166 C 31 167 31 168 32 168 C 36 168 39 168 43 168 C 47 168 51 168 55 168 C 55 168 56 167 57 166 C 58 164 58 162 54 157 C 52 154 51 152 52 138 C 52 131 52 124 52 123 C 52 121 52 109 52 97 C 51 66 52 64 59 56 C 61 53 64 51 67 49 C 69 49 71 48 73 47 C 75 47 78 47 81 47 C 90 47 94 48 100 54 C 106 61 108 68 109 81 C 109 97 106 108 96 116 C 89 122 81 123 71 121 C 62 118 59 119 58 123 C 57 128 67 132 80 132 C 112 133 133 105 126 69 C 120 45 97 29 73 35 z" fill="black" /><!-- width=141 height=183 -->
<path id="gl7" d="M 29 9 C 25 9 17 13 15 15 C 11 18 12 20 16 25 C 18 27 20 29 20 30 C 21 34 21 141 20 144 C 20 145 18 147 16 150 C 12 154 12 154 13 157 C 15 160 16 160 30 160 C 45 160 45 160 46 157 C 48 154 46 152 42 148 C 37 144 37 149 37 85 C 37 53 38 24 38 21 C 39 13 37 11 34 9 C 32 9 33 9 29 9 z" fill="black" /><!-- width=58 height=175 -->
<path id="gl6" d="M 63 12 C 36 18 18 42 19 70 C 20 88 30 102 45 109 C 58 115 76 115 89 109 C 106 102 115 91 108 85 C 104 82 100 84 94 90 C 83 100 72 103 58 99 C 45 94 35 82 42 76 C 42 75 44 75 50 75 C 76 74 98 64 105 50 C 107 45 107 35 105 30 C 101 22 95 17 85 14 C 81 12 67 12 63 12 M 79 26 C 87 29 91 38 87 46 C 84 54 75 58 52 64 C 49 65 45 66 42 67 C 41 66 40 66 40 66 C 36 63 36 60 38 51 C 43 35 57 25 72 25 C 75 25 78 25 79 26 z" fill="black" /><!-- width=121 height=126 -->
<path id="gl5" d="M 75 28 C 71 30 67 33 63 38 C 57 47 53 47 51 38 C 48 28 44 25 35 30 C 25 34 23 42 30 46 C 39 53 39 52 39 81 C 39 110 39 108 32 114 C 28 118 28 122 32 124 C 35 125 59 125 61 124 C 66 122 66 118 62 115 C 55 108 55 109 55 85 C 55 66 56 64 60 57 C 67 47 74 43 82 48 C 90 52 97 43 93 34 C 90 28 82 25 75 28 z" fill="black" /><!-- width=105 height=138 -->
<path id="gl1" d="M 40 9 C 37 11 36 11 33 13 C 31 16 31 19 33 22 C 38 27 37 21 37 85 C 37 116 37 142 37 144 C 37 144 35 147 34 148 C 27 156 30 159 46 159 C 60 160 64 157 60 150 C 55 144 55 144 54 139 C 54 130 54 91 55 88 C 58 81 73 73 84 75 C 96 76 103 82 104 93 C 105 95 105 106 105 118 C 105 142 105 144 101 148 C 96 156 99 160 114 160 C 129 160 132 156 125 148 C 121 144 121 144 121 117 C 121 96 120 90 120 87 C 114 66 91 57 64 67 C 60 69 59 70 57 69 C 54 67 54 67 54 39 C 54 12 54 11 51 9 C 49 8 44 8 40 9 z" fill="black" /><!-- width=143 height=191 -->
<path id="gl513" d="M 23 31 C 19 33 18 36 21 41 C 24 45 25 49 25 56 C 25 58 27 64 28 70 C 34 100 45 117 61 121 C 66 123 68 124 68 127 C 68 132 57 145 48 150 C 44 151 44 151 36 151 C 28 151 25 152 24 156 C 22 162 28 168 37 166 C 67 163 97 117 107 58 C 108 52 109 45 111 43 C 113 33 110 31 99 31 C 88 31 86 34 91 42 C 93 44 94 46 94 48 C 96 63 86 98 78 106 C 68 115 54 103 48 79 C 42 60 42 49 45 42 C 48 36 47 33 43 31 C 40 30 25 30 23 31 z" fill="black" /><!-- width=124 height=181 -->
<path id="gl0" d="M 38 8 C 36 11 35 14 34 24 C 33 39 31 42 24 42 C 19 43 16 44 15 47 C 14 51 18 54 24 54 C 29 55 31 57 31 61 C 31 63 31 81 31 99 C 30 143 29 139 46 141 C 52 141 58 141 61 141 C 70 142 76 137 72 131 C 71 128 67 127 60 127 C 47 127 48 129 47 90 C 47 58 47 57 49 55 C 51 54 51 54 56 54 C 66 56 70 55 72 51 C 73 48 73 45 70 43 C 69 42 62 42 54 43 C 53 43 52 43 51 43 C 50 43 49 42 49 42 C 47 39 47 37 48 24 C 49 11 48 7 42 6 C 40 6 40 6 38 8 z" fill="black" /><!-- width=84 height=157 -->
<path id="gl1" d="M 40 9 C 37 11 36 11 33 13 C 31 16 31 19 33 22 C 38 27 37 21 37 85 C 37 116 37 142 37 144 C 37 144 35 147 34 148 C 27 156 30 159 46 159 C 60 160 64 157 60 150 C 55 144 55 144 54 139 C 54 130 54 91 55 88 C 58 81 73 73 84 75 C 96 76 103 82 104 93 C 105 95 105 106 105 118 C 105 142 105 144 101 148 C 96 156 99 160 114 160 C 129 160 132 156 125 148 C 121 144 121 144 121 117 C 121 96 120 90 120 87 C 114 66 91 57 64 67 C 60 69 59 70 57 69 C 54 67 54 67 54 39 C 54 12 54 11 51 9 C 49 8 44 8 40 9 z" fill="black" /><!-- width=143 height=191 -->
<path id="gl262" d="M 129 19 C 122 19 115 22 109 27 C 103 31 100 31 94 26 C 87 21 83 19 73 19 C 63 18 57 20 49 25 C 43 29 42 29 37 24 C 33 18 29 18 23 22 C 16 27 16 30 22 39 C 25 42 25 44 25 71 C 25 99 25 99 21 103 C 15 111 21 114 37 114 C 45 113 46 113 48 111 C 50 109 49 107 46 103 C 42 99 42 99 43 71 C 43 48 43 47 44 45 C 51 30 72 25 82 36 C 87 42 87 48 88 76 C 88 98 87 98 84 103 C 81 107 81 108 82 110 C 83 113 85 114 94 114 C 110 114 114 111 108 103 C 105 97 105 97 105 73 C 105 43 105 40 118 33 C 132 27 144 31 148 43 C 150 46 150 50 150 70 C 150 97 150 97 146 103 C 143 108 143 108 145 111 C 147 113 151 114 163 114 C 173 113 175 110 171 103 C 167 98 167 100 166 72 C 166 63 166 54 166 46 C 166 44 165 42 165 40 C 163 34 161 31 157 27 C 151 21 139 17 129 19 z" fill="black" /><!-- width=186 height=128 -->
<path id="gl4358" d="M 40 11 C 23 15 13 26 14 41 C 15 48 16 51 20 56 C 25 61 30 63 45 67 C 61 70 64 72 66 78 C 69 84 66 91 61 95 C 49 102 36 100 26 88 C 19 81 12 80 10 86 C 4 100 34 116 55 111 C 66 108 76 100 80 92 C 81 90 82 89 82 87 C 82 85 82 82 82 79 C 82 71 82 71 81 67 C 76 58 67 54 46 49 C 34 46 30 43 29 39 C 27 29 34 23 46 23 C 55 23 58 24 65 31 C 70 36 73 37 76 35 C 82 32 80 20 73 16 C 64 12 49 10 40 11 z" fill="black" /><!-- width=96 height=124 -->
<path id="gl10247" d="M 22 20 C 18 22 17 26 20 33 C 21 36 22 41 24 46 C 29 75 42 107 51 115 C 60 123 67 117 80 91 C 88 75 90 75 99 95 C 108 112 112 117 118 118 C 123 118 127 115 133 106 C 141 93 148 76 155 51 C 157 44 159 36 160 33 C 165 22 162 19 150 19 C 136 19 133 22 138 31 C 142 39 141 46 136 63 C 130 80 125 91 121 90 C 117 88 111 77 105 57 C 101 43 101 39 104 32 C 109 22 106 19 91 19 C 78 19 75 22 79 31 C 84 40 80 58 71 78 C 66 88 65 89 62 90 C 57 91 54 86 48 63 C 42 46 42 39 45 32 C 48 25 47 22 43 20 C 41 19 24 19 22 20 z" fill="black" /><!-- width=177 height=133 -->
<path id="gl5" d="M 75 28 C 71 30 67 33 63 38 C 57 47 53 47 51 38 C 48 28 44 25 35 30 C 25 34 23 42 30 46 C 39 53 39 52 39 81 C 39 110 39 108 32 114 C 28 118 28 122 32 124 C 35 125 59 125 61 124 C 66 122 66 118 62 115 C 55 108 55 109 55 85 C 55 66 56 64 60 57 C 67 47 74 43 82 48 C 90 52 97 43 93 34 C 90 28 82 25 75 28 z" fill="black" /><!-- width=105 height=138 -->
<path id="gl769" d="M 24 8 C 15 12 15 26 24 30 C 27 31 33 31 36 29 C 45 25 45 11 36 8 C 33 7 27 7 24 8 M 25 47 C 15 51 13 52 13 57 C 13 60 14 61 18 63 C 24 67 24 65 24 96 C 24 126 24 125 19 128 C 14 132 13 136 16 139 C 18 141 19 141 34 141 C 46 141 47 141 48 139 C 52 136 51 133 46 129 C 40 125 41 128 41 88 C 42 55 42 52 40 50 C 38 44 34 43 25 47 z" fill="black" /><!-- width=63 height=163 -->
<path id="gl0" d="M 38 8 C 36 11 35 14 34 24 C 33 39 31 42 24 42 C 19 43 16 44 15 47 C 14 51 18 54 24 54 C 29 55 31 57 31 61 C 31 63 31 81 31 99 C 30 143 29 139 46 141 C 52 141 58 141 61 141 C 70 142 76 137 72 131 C 71 128 67 127 60 127 C 47 127 48 129 47 90 C 47 58 47 57 49 55 C 51 54 51 54 56 54 C 66 56 70 55 72 51 C 73 48 73 45 70 43 C 69 42 62 42 54 43 C 53 43 52 43 51 43 C 50 43 49 42 49 42 C 47 39 47 37 48 24 C 49 11 48 7 42 6 C 40 6 40 6 38 8 z" fill="black" /><!-- width=84 height=157 -->
<path id="gl3845" d="M 39 4 C 39 4 37 5 37 5 C 34 6 33 9 33 16 C 32 33 29 39 24 40 C 16 40 14 42 15 47 C 15 51 16 51 22 52 C 25 52 27 52 28 53 C 28 54 28 54 29 55 C 29 67 29 80 29 93 C 29 128 29 131 30 133 C 32 136 34 136 45 137 C 51 137 58 138 60 138 C 64 138 66 137 69 134 C 72 132 72 131 71 130 C 69 125 67 124 58 124 C 49 124 49 124 46 120 C 45 117 44 57 45 54 C 46 51 49 51 54 51 C 63 53 68 52 70 48 C 72 46 72 45 69 42 C 66 39 64 39 57 40 C 49 41 49 41 46 39 C 45 37 45 33 46 24 C 47 12 47 12 46 9 C 45 7 42 4 41 4 C 40 4 40 4 39 4 z" fill="black" /><!-- width=80 height=150 -->
<path id="gl5144" d="M 66 12 C 34 17 13 48 21 80 C 27 106 58 121 85 112 C 102 106 114 95 111 87 C 108 81 102 82 93 90 C 86 97 79 100 70 100 C 58 100 46 94 43 85 C 39 78 42 75 52 75 C 75 75 99 64 106 50 C 108 45 108 34 106 29 C 100 18 82 10 66 12 M 81 27 C 90 32 91 43 84 51 C 79 55 67 60 52 63 C 42 66 38 64 38 58 C 38 45 52 29 66 27 C 70 25 78 26 81 27 z" fill="black" /><!-- width=123 height=128 -->
<path id="gl3" d="M 66 16 C 66 16 63 17 60 18 C 57 19 54 20 51 22 C 44 28 44 28 42 27 C 40 26 39 25 37 22 C 37 20 35 18 34 18 C 29 14 16 21 16 28 C 16 31 16 31 21 36 C 22 37 24 39 26 40 C 26 49 26 59 26 69 C 26 78 26 88 26 97 C 24 99 22 100 21 102 C 16 107 15 108 17 111 C 19 114 19 114 34 114 C 48 114 49 114 50 112 C 54 109 54 106 48 102 C 43 98 43 99 43 71 C 43 46 43 46 45 43 C 51 31 75 25 87 34 C 93 38 93 41 93 74 C 93 99 93 98 89 101 C 84 105 82 109 86 112 C 88 114 88 114 100 114 C 114 114 115 114 117 111 C 120 108 119 105 114 100 C 112 100 111 99 111 98 C 111 97 111 84 110 69 C 110 39 110 39 106 31 C 102 22 89 15 74 16 C 70 16 67 16 66 16 z" fill="black" /><!-- width=131 height=127 -->
<path id="gl2" d="M 53 12 C 33 16 18 33 14 52 C 11 67 14 81 22 92 C 33 107 49 114 68 112 C 93 111 110 94 114 69 C 118 45 102 19 78 12 C 73 11 58 10 53 12 M 70 24 C 90 28 101 49 96 73 C 91 99 59 110 40 91 C 33 83 30 76 30 63 C 30 37 48 19 70 24 z" fill="black" /><!-- width=129 height=124 -->
<path id="gl3" d="M 66 16 C 66 16 63 17 60 18 C 57 19 54 20 51 22 C 44 28 44 28 42 27 C 40 26 39 25 37 22 C 37 20 35 18 34 18 C 29 14 16 21 16 28 C 16 31 16 31 21 36 C 22 37 24 39 26 40 C 26 49 26 59 26 69 C 26 78 26 88 26 97 C 24 99 22 100 21 102 C 16 107 15 108 17 111 C 19 114 19 114 34 114 C 48 114 49 114 50 112 C 54 109 54 106 48 102 C 43 98 43 99 43 71 C 43 46 43 46 45 43 C 51 31 75 25 87 34 C 93 38 93 41 93 74 C 93 99 93 98 89 101 C 84 105 82 109 86 112 C 88 114 88 114 100 114 C 114 114 115 114 117 111 C 120 108 119 105 114 100 C 112 100 111 99 111 98 C 111 97 111 84 110 69 C 110 39 110 39 106 31 C 102 22 89 15 74 16 C 70 16 67 16 66 16 z" fill="black" /><!-- width=131 height=127 -->
<path id="gl0" d="M 38 8 C 36 11 35 14 34 24 C 33 39 31 42 24 42 C 19 43 16 44 15 47 C 14 51 18 54 24 54 C 29 55 31 57 31 61 C 31 63 31 81 31 99 C 30 143 29 139 46 141 C 52 141 58 141 61 141 C 70 142 76 137 72 131 C 71 128 67 127 60 127 C 47 127 48 129 47 90 C 47 58 47 57 49 55 C 51 54 51 54 56 54 C 66 56 70 55 72 51 C 73 48 73 45 70 43 C 69 42 62 42 54 43 C 53 43 52 43 51 43 C 50 43 49 42 49 42 C 47 39 47 37 48 24 C 49 11 48 7 42 6 C 40 6 40 6 38 8 z" fill="black" /><!-- width=84 height=157 -->
<path id="gl1" d="M 40 9 C 37 11 36 11 33 13 C 31 16 31 19 33 22 C 38 27 37 21 37 85 C 37 116 37 142 37 144 C 37 144 35 147 34 148 C 27 156 30 159 46 159 C 60 160 64 157 60 150 C 55 144 55 144 54 139 C 54 130 54 91 55 88 C 58 81 73 73 84 75 C 96 76 103 82 104 93 C 105 95 105 106 105 118 C 105 142 105 144 101 148 C 96 156 99 160 114 160 C 129 160 132 156 125 148 C 121 144 121 144 121 117 C 121 96 120 90 120 87 C 114 66 91 57 64 67 C 60 69 59 70 57 69 C 54 67 54 67 54 39 C 54 12 54 11 51 9 C 49 8 44 8 40 9 z" fill="black" /><!-- width=143 height=191 -->
<path id="gl6" d="M 63 12 C 36 18 18 42 19 70 C 20 88 30 102 45 109 C 58 115 76 115 89 109 C 106 102 115 91 108 85 C 104 82 100 84 94 90 C 83 100 72 103 58 99 C 45 94 35 82 42 76 C 42 75 44 75 50 75 C 76 74 98 64 105 50 C 107 45 107 35 105 30 C 101 22 95 17 85 14 C 81 12 67 12 63 12 M 79 26 C 87 29 91 38 87 46 C 84 54 75 58 52 64 C 49 65 45 66 42 67 C 41 66 40 66 40 66 C 36 63 36 60 38 51 C 43 35 57 25 72 25 C 75 25 78 25 79 26 z" fill="black" /><!-- width=121 height=126 -->
<path id="gl771" d="M 36 10 C 30 12 25 15 25 19 C 25 19 26 22 28 24 C 32 30 32 27 32 67 C 33 138 33 136 37 146 C 46 166 82 169 103 152 C 118 139 124 117 118 93 C 111 67 86 57 60 69 C 49 74 49 75 49 41 C 48 18 48 15 47 13 C 45 9 42 9 36 10 M 84 76 C 105 87 109 128 92 145 C 79 158 58 154 52 138 C 48 129 48 96 51 90 C 53 85 61 79 69 76 C 73 75 81 75 84 76 z" fill="black" /><!-- width=133 height=190 -->
<path id="gl3609" d="M 52 11 C 39 13 25 22 18 34 C -3 69 22 114 63 112 C 86 111 102 98 110 76 C 112 70 113 57 111 49 C 108 33 94 19 77 13 C 72 11 58 10 52 11 M 70 25 C 91 30 101 57 91 79 C 78 108 38 105 30 74 C 28 68 28 54 30 49 C 35 30 52 20 70 25 z" fill="black" /><!-- width=124 height=124 -->
<path id="gl5900" d="M 42 9 C 25 11 17 15 16 22 C 16 27 19 31 24 31 C 27 31 29 30 39 25 C 48 20 58 21 68 27 C 74 30 77 37 75 40 C 73 42 73 42 63 42 C 44 43 33 47 22 57 C 5 73 8 98 28 108 C 34 111 38 111 48 111 C 57 111 61 110 69 105 C 75 101 78 101 81 104 C 85 108 92 110 100 109 C 108 108 109 100 100 95 C 96 91 96 92 96 64 C 96 37 96 36 91 28 C 84 14 63 5 42 9 M 75 54 C 78 56 78 58 78 67 C 78 81 75 87 66 92 C 46 102 29 95 31 77 C 32 69 36 64 46 60 C 55 55 70 52 75 54 z" fill="black" /><!-- width=119 height=127 -->
<path id="gl5" d="M 75 28 C 71 30 67 33 63 38 C 57 47 53 47 51 38 C 48 28 44 25 35 30 C 25 34 23 42 30 46 C 39 53 39 52 39 81 C 39 110 39 108 32 114 C 28 118 28 122 32 124 C 35 125 59 125 61 124 C 66 122 66 118 62 115 C 55 108 55 109 55 85 C 55 66 56 64 60 57 C 67 47 74 43 82 48 C 90 52 97 43 93 34 C 90 28 82 25 75 28 z" fill="black" /><!-- width=105 height=138 -->
<path id="gl3610" d="M 82 11 C 73 14 72 18 76 24 C 80 29 81 31 80 48 C 80 61 80 63 79 64 C 77 66 74 66 67 64 C 62 63 50 63 43 64 C 28 69 15 82 10 99 C 9 106 9 121 10 128 C 17 156 46 169 71 157 C 77 154 79 154 85 157 C 93 161 104 159 104 153 C 104 152 103 150 101 147 C 100 145 99 144 98 142 C 98 121 98 101 97 80 C 97 40 97 16 97 15 C 95 10 90 8 82 11 M 69 76 C 81 81 80 79 80 109 C 80 127 80 133 79 135 C 76 144 63 150 52 148 C 36 146 27 132 27 112 C 28 84 46 68 69 76 z" fill="black" /><!-- width=128 height=198 -->
<path id="gl2312" d="M 19 14 C 7 19 11 37 24 39 C 37 41 44 23 33 15 C 30 12 23 12 19 14 z" fill="black" /><!-- width=51 height=52 -->
</defs>
<use xlink:href="#gl5904" x="0" y="7" />
<use xlink:href="#gl3589" x="85" y="0" />
<use xlink:href="#gl6164" x="198" y="23" />
<use xlink:href="#gl515" x="261" y="55" />
<use xlink:href="#gl4104" x="359" y="35" />
<use xlink:href="#gl18181" x="553" y="8" />
<use xlink:href="#gl8969" x="684" y="79" />
<use xlink:href="#gl16898" x="823" y="0" />
<use xlink:href="#gl5654" x="986" y="2" />
<use xlink:href="#gl512" x="1033" y="61" />
<use xlink:href="#gl3613" x="1125" y="36" />
<use xlink:href="#gl4" x="1312" y="56" />
<use xlink:href="#gl514" x="1393" y="24" />
<use xlink:href="#gl262" x="1439" y="52" />
<use xlink:href="#gl3613" x="1602" y="36" />
<use xlink:href="#gl7" x="1728" y="4" />
<use xlink:href="#gl6" x="1765" y="56" />
<use xlink:href="#gl5" x="1920" y="42" />
<use xlink:href="#gl1" x="1990" y="6" />
<use xlink:href="#gl513" x="2109" y="40" />
<use xlink:href="#gl0" x="2210" y="27" />
<use xlink:href="#gl1" x="2261" y="7" />
<use xlink:href="#gl262" x="2388" y="53" />
<use xlink:href="#gl4358" x="2562" y="59" />
<use xlink:href="#gl10247" x="2693" y="51" />
<use xlink:href="#gl5" x="2834" y="43" />
<use xlink:href="#gl769" x="2921" y="26" />
<use xlink:href="#gl0" x="2962" y="27" />
<use xlink:href="#gl3845" x="3025" y="31" />
<use xlink:href="#gl5144" x="3083" y="56" />
<use xlink:href="#gl3" x="3189" y="53" />
<use xlink:href="#gl2" x="3365" y="58" />
<use xlink:href="#gl3" x="3475" y="54" />
<use xlink:href="#gl0" x="3646" y="28" />
<use xlink:href="#gl1" x="3697" y="8" />
<use xlink:href="#gl6" x="3820" y="57" />
<use xlink:href="#gl771" x="3976" y="7" />
<use xlink:href="#gl3609" x="4095" y="59" />
<use xlink:href="#gl5900" x="4206" y="61" />
<use xlink:href="#gl5" x="4293" y="44" />
<use xlink:href="#gl3610" x="4381" y="8" />
<use xlink:href="#gl2312" x="4498" y="132" />
</svg>