<?xml version="1.0" standalone="no"?>
<!DOCTYPE svg PUBLIC "-//W3C/DTD SVG 1.1//EN" "http://www.w3.org/Graphics/SVG/1.1/DTD/svg11.dtd">
<svg width="549px" height="45px" viewBox="0 0 5491 452" xmlns="http://www.w3.org/2000/svg" xmlns:xlink="http://www.w3.org/1999/xlink" version="1.1">
<defs>
<path id="gl5904" d="M 29 7 C 24 9 17 20 15 31 C 12 48 22 61 35 55 C 42 51 41 39 33 37 C 26 34 25 27 31 21 C 37 15 37 12 35 8 C 33 6 32 6 29 7 M 61 9 C 55 16 51 24 51 34 C 50 49 55 57 66 56 C 72 56 76 52 75 46 C 75 40 73 38 67 36 C 60 33 61 27 68 19 C 72 15 73 13 72 10 C 70 5 66 4 61 9 z" fill="black" /><!-- width=88 height=73 -->
<path id="gl4107" d="M 64 14 C 36 16 16 37 19 61 C 22 81 34 89 71 97 C 99 103 110 113 108 129 C 105 144 90 154 70 154 C 51 154 39 148 28 131 C 24 124 17 123 15 129 C 10 140 29 160 48 165 C 58 167 76 168 86 165 C 111 160 126 142 126 120 C 126 108 123 101 115 93 C 108 85 101 82 74 76 C 52 70 45 67 41 58 C 39 54 39 44 42 40 C 48 28 64 23 78 27 C 86 30 92 33 98 39 C 105 45 107 46 110 45 C 115 43 115 31 110 25 C 103 18 81 12 64 14 z" fill="black" /><!-- width=141 height=181 -->
<path id="gl0" d="M 38 8 C 36 11 35 14 34 24 C 33 39 31 42 24 42 C 19 43 16 44 15 47 C 14 51 18 54 24 54 C 29 55 31 57 31 61 C 31 63 31 81 31 99 C 30 143 29 139 46 141 C 52 141 58 141 61 141 C 70 142 76 137 72 131 C 71 128 67 127 60 127 C 47 127 48 129 47 90 C 47 58 47 57 49 55 C 51 54 51 54 56 54 C 66 56 70 55 72 51 C 73 48 73 45 70 43 C 69 42 62 42 54 43 C 53 43 52 43 51 43 C 50 43 49 42 49 42 C 47 39 47 37 48 24 C 49 11 48 7 42 6 C 40 6 40 6 38 8 z" fill="black" /><!-- width=84 height=157 -->
<path id="gl5144" d="M 66 12 C 34 17 13 48 21 80 C 27 106 58 121 85 112 C 102 106 114 95 111 87 C 108 81 102 82 93 90 C 86 97 79 100 70 100 C 58 100 46 94 43 85 C 39 78 42 75 52 75 C 75 75 99 64 106 50 C 108 45 108 34 106 29 C 100 18 82 10 66 12 M 81 27 C 90 32 91 43 84 51 C 79 55 67 60 52 63 C 42 66 38 64 38 58 C 38 45 52 29 66 27 C 70 25 78 26 81 27 z" fill="black" /><!-- width=123 height=128 -->
<path id="gl3613" d="M 73 35 C 67 37 66 37 60 41 C 53 46 51 46 47 39 C 43 33 33 33 27 39 C 22 43 23 46 28 51 C 35 55 34 52 34 103 C 35 152 35 153 31 158 C 28 163 28 164 30 166 C 31 167 31 168 32 168 C 36 168 39 168 43 168 C 47 168 51 168 55 168 C 55 168 56 167 57 166 C 58 164 58 162 54 157 C 52 154 51 152 52 138 C 52 131 52 124 52 123 C 52 121 52 109 52 97 C 51 66 52 64 59 56 C 61 53 64 51 67 49 C 69 49 71 48 73 47 C 75 47 78 47 81 47 C 90 47 94 48 100 54 C 106 61 108 68 109 81 C 109 97 106 108 96 116 C 89 122 81 123 71 121 C 62 118 59 119 58 123 C 57 128 67 132 80 132 C 112 133 133 105 126 69 C 120 45 97 29 73 35 z" fill="black" /><!-- width=141 height=183 -->
<path id="gl20995" d="M 96 7 C 93 7 84 9 79 10 C 77 11 73 12 71 14 C 69 15 66 16 64 18 C 57 20 46 30 36 42 C 34 44 30 52 26 58 C 25 60 24 65 22 72 C 21 75 21 79 19 82 C 19 87 19 91 19 96 C 19 108 19 111 21 114 C 22 124 25 131 26 132 C 27 133 28 135 29 136 C 32 144 47 154 59 157 C 72 160 90 158 99 152 C 105 148 113 140 115 136 C 116 135 117 133 118 132 C 124 123 124 103 120 91 C 110 67 80 59 55 72 C 48 75 47 75 45 73 C 42 72 43 66 48 54 C 55 37 75 21 92 17 C 100 15 106 12 105 10 C 104 8 99 7 96 7 M 82 79 C 85 80 93 85 95 87 C 99 91 100 97 102 108 C 102 111 101 120 100 125 C 99 131 95 136 89 141 C 82 147 81 148 72 147 C 64 147 62 146 55 141 C 48 135 45 130 42 117 C 40 111 41 97 42 94 C 49 82 68 75 82 79 z" fill="black" /><!-- width=133 height=187 -->
<path id="gl11789" d="M 16 12 C 10 16 10 27 16 31 C 19 33 27 33 30 31 C 35 28 37 19 34 15 C 30 10 22 9 16 12 M 19 69 C 13 72 10 79 13 86 C 14 91 25 93 31 90 C 36 88 37 76 33 72 C 29 69 22 67 19 69 z" fill="black" /><!-- width=47 height=102 -->
<path id="gl4107" d="M 64 14 C 36 16 16 37 19 61 C 22 81 34 89 71 97 C 99 103 110 113 108 129 C 105 144 90 154 70 154 C 51 154 39 148 28 131 C 24 124 17 123 15 129 C 10 140 29 160 48 165 C 58 167 76 168 86 165 C 111 160 126 142 126 120 C 126 108 123 101 115 93 C 108 85 101 82 74 76 C 52 70 45 67 41 58 C 39 54 39 44 42 40 C 48 28 64 23 78 27 C 86 30 92 33 98 39 C 105 45 107 46 110 45 C 115 43 115 31 110 25 C 103 18 81 12 64 14 z" fill="black" /><!-- width=141 height=181 -->
<path id="gl260" d="M 39 8 C 21 10 12 17 14 24 C 15 30 22 30 32 25 C 39 21 42 20 48 20 C 60 20 71 27 73 35 C 75 40 72 42 63 42 C 45 39 25 47 15 60 C 6 72 7 89 17 99 C 30 111 54 112 67 101 C 73 96 73 96 79 101 C 84 106 84 106 92 106 C 97 106 98 106 99 105 C 104 101 103 98 97 93 C 95 91 93 90 93 89 C 92 88 92 79 91 62 C 91 54 91 45 91 37 C 91 36 90 34 90 33 C 84 18 69 9 49 8 C 45 8 40 8 39 8 M 75 54 C 76 56 76 61 75 72 C 75 82 72 85 61 91 C 43 99 27 93 27 78 C 27 64 38 55 61 52 C 70 51 72 51 75 54 z" fill="black" /><!-- width=114 height=125 -->
<path id="gl262" d="M 129 19 C 122 19 115 22 109 27 C 103 31 100 31 94 26 C 87 21 83 19 73 19 C 63 18 57 20 49 25 C 43 29 42 29 37 24 C 33 18 29 18 23 22 C 16 27 16 30 22 39 C 25 42 25 44 25 71 C 25 99 25 99 21 103 C 15 111 21 114 37 114 C 45 113 46 113 48 111 C 50 109 49 107 46 103 C 42 99 42 99 43 71 C 43 48 43 47 44 45 C 51 30 72 25 82 36 C 87 42 87 48 88 76 C 88 98 87 98 84 103 C 81 107 81 108 82 110 C 83 113 85 114 94 114 C 110 114 114 111 108 103 C 105 97 105 97 105 73 C 105 43 105 40 118 33 C 132 27 144 31 148 43 C 150 46 150 50 150 70 C 150 97 150 97 146 103 C 143 108 143 108 145 111 C 147 113 151 114 163 114 C 173 113 175 110 171 103 C 167 98 167 100 166 72 C 166 63 166 54 166 46 C 166 44 165 42 165 40 C 163 34 161 31 157 27 C 151 21 139 17 129 19 z" fill="black" /><!-- width=186 height=128 -->
<path id="gl4367" d="M 64 13 C 46 16 31 27 23 44 C 17 57 17 77 23 88 C 36 113 67 121 92 108 C 95 106 98 105 99 104 C 100 103 102 102 103 100 C 109 96 112 90 109 86 C 105 81 102 82 94 89 C 90 93 87 95 83 97 C 81 98 79 99 77 100 C 75 100 72 100 70 100 C 56 100 43 93 40 83 C 37 76 41 73 55 73 C 71 73 90 66 99 57 C 109 47 109 34 101 24 C 93 15 80 11 64 13 M 78 26 C 86 28 90 37 87 45 C 84 52 75 57 54 63 C 37 66 34 64 38 51 C 43 33 63 21 78 26 z" fill="black" /><!-- width=121 height=128 -->
<path id="gl5900" d="M 42 9 C 25 11 17 15 16 22 C 16 27 19 31 24 31 C 27 31 29 30 39 25 C 48 20 58 21 68 27 C 74 30 77 37 75 40 C 73 42 73 42 63 42 C 44 43 33 47 22 57 C 5 73 8 98 28 108 C 34 111 38 111 48 111 C 57 111 61 110 69 105 C 75 101 78 101 81 104 C 85 108 92 110 100 109 C 108 108 109 100 100 95 C 96 91 96 92 96 64 C 96 37 96 36 91 28 C 84 14 63 5 42 9 M 75 54 C 78 56 78 58 78 67 C 78 81 75 87 66 92 C 46 102 29 95 31 77 C 32 69 36 64 46 60 C 55 55 70 52 75 54 z" fill="black" /><!-- width=119 height=127 -->
<path id="gl5145" d="M 48 17 C 30 19 16 32 11 50 C 9 57 9 75 11 82 C 18 105 39 117 63 112 C 70 110 75 111 79 116 C 88 124 86 136 76 141 C 67 144 43 145 34 141 C 31 139 30 138 28 133 C 24 118 7 129 12 145 C 13 151 18 154 30 156 C 49 161 73 159 88 151 C 108 142 111 120 93 108 C 87 103 86 100 90 94 C 102 76 103 63 94 42 C 92 35 93 33 100 32 C 106 30 108 25 105 21 C 103 18 102 18 88 18 C 79 18 72 18 66 17 C 57 16 54 16 48 17 M 64 32 C 75 36 81 47 81 64 C 81 84 73 96 58 99 C 41 102 28 87 28 66 C 28 41 45 25 64 32 z" fill="black" /><!-- width=120 height=173 -->
<path id="gl4377" d="M 39 6 C 37 7 34 7 32 8 C 30 9 27 10 25 10 C 20 12 16 15 16 19 C 15 27 24 28 33 22 C 38 19 45 18 49 18 C 62 18 76 27 76 34 C 76 39 75 39 61 39 C 57 39 52 39 48 39 C 46 40 43 41 40 42 C 32 45 30 46 24 51 C 9 62 7 83 18 96 C 25 103 33 106 46 106 C 49 106 52 106 55 106 C 57 106 59 105 61 104 C 64 103 67 101 68 99 C 73 94 76 94 79 97 C 80 98 81 100 82 100 C 84 104 96 105 100 103 C 106 100 105 96 97 91 C 94 88 93 87 93 67 C 93 45 93 34 91 30 C 85 15 71 7 51 6 C 46 6 41 6 39 6 M 73 49 C 78 50 78 53 77 67 C 76 81 72 87 57 92 C 38 99 22 84 30 66 C 34 58 47 51 64 49 C 71 48 70 48 73 49 z" fill="black" /><!-- width=117 height=122 -->
<path id="gl3848" d="M 24 9 C 16 13 16 24 22 29 C 26 31 34 31 38 29 C 42 26 43 25 43 19 C 43 18 43 16 43 14 C 42 13 41 12 40 12 C 36 7 29 6 24 9 M 31 46 C 30 46 27 48 25 48 C 24 49 21 51 19 51 C 16 52 13 55 13 58 C 13 61 15 63 21 65 C 25 67 25 66 25 98 C 25 130 25 129 20 132 C 13 136 12 141 18 144 C 19 145 22 145 33 145 C 37 145 42 145 46 145 C 48 144 48 144 49 143 C 54 140 52 137 47 133 C 41 128 42 131 42 90 C 42 51 42 51 39 48 C 36 45 36 45 31 46 z" fill="black" /><!-- width=64 height=169 -->
<path id="gl3" d="M 66 16 C 66 16 63 17 60 18 C 57 19 54 20 51 22 C 44 28 44 28 42 27 C 40 26 39 25 37 22 C 37 20 35 18 34 18 C 29 14 16 21 16 28 C 16 31 16 31 21 36 C 22 37 24 39 26 40 C 26 49 26 59 26 69 C 26 78 26 88 26 97 C 24 99 22 100 21 102 C 16 107 15 108 17 111 C 19 114 19 114 34 114 C 48 114 49 114 50 112 C 54 109 54 106 48 102 C 43 98 43 99 43 71 C 43 46 43 46 45 43 C 51 31 75 25 87 34 C 93 38 93 41 93 74 C 93 99 93 98 89 101 C 84 105 82 109 86 112 C 88 114 88 114 100 114 C 114 114 115 114 117 111 C 120 108 119 105 114 100 C 112 100 111 99 111 98 C 111 97 111 84 110 69 C 110 39 110 39 106 31 C 102 22 89 15 74 16 C 70 16 67 16 66 16 z" fill="black" /><!-- width=131 height=127 -->
<path id="gl3612" d="M 15 24 C 10 26 7 32 10 39 C 10 42 13 43 18 45 C 23 46 24 47 24 51 C 24 55 23 58 19 63 C 15 67 14 67 14 70 C 14 74 16 76 18 76 C 23 76 25 74 29 67 C 30 66 31 63 32 61 C 36 55 36 36 31 29 C 28 25 21 22 15 24 z" fill="black" /><!-- width=47 height=87 -->
<path id="gl771" d="M 36 10 C 30 12 25 15 25 19 C 25 19 26 22 28 24 C 32 30 32 27 32 67 C 33 138 33 136 37 146 C 46 166 82 169 103 152 C 118 139 124 117 118 93 C 111 67 86 57 60 69 C 49 74 49 75 49 41 C 48 18 48 15 47 13 C 45 9 42 9 36 10 M 84 76 C 105 87 109 128 92 145 C 79 158 58 154 52 138 C 48 129 48 96 51 90 C 53 85 61 79 69 76 C 73 75 81 75 84 76 z" fill="black" /><!-- width=133 height=190 -->
<path id="gl768" d="M 20 8 C 15 9 12 10 10 12 C 9 15 9 16 13 20 C 18 27 18 26 18 55 C 18 82 19 85 22 92 C 30 105 47 111 63 105 C 67 105 69 103 76 99 C 80 96 82 96 86 100 C 90 104 91 105 99 105 C 105 106 107 105 109 102 C 111 99 110 96 105 93 C 99 89 99 91 99 63 C 99 49 99 33 100 25 C 100 9 99 7 90 7 C 83 7 79 9 77 11 C 74 14 75 17 79 22 C 82 26 82 27 82 53 C 82 61 82 69 82 78 C 82 79 81 79 81 81 C 79 84 76 87 69 90 C 54 97 43 95 37 85 C 36 81 35 78 35 46 C 36 10 36 11 31 9 C 28 7 25 7 20 8 z" fill="black" /><!-- width=121 height=121 -->
<path id="gl0" d="M 38 8 C 36 11 35 14 34 24 C 33 39 31 42 24 42 C 19 43 16 44 15 47 C 14 51 18 54 24 54 C 29 55 31 57 31 61 C 31 63 31 81 31 99 C 30 143 29 139 46 141 C 52 141 58 141 61 141 C 70 142 76 137 72 131 C 71 128 67 127 60 127 C 47 127 48 129 47 90 C 47 58 47 57 49 55 C 51 54 51 54 56 54 C 66 56 70 55 72 51 C 73 48 73 45 70 43 C 69 42 62 42 54 43 C 53 43 52 43 51 43 C 50 43 49 42 49 42 C 47 39 47 37 48 24 C 49 11 48 7 42 6 C 40 6 40 6 38 8 z" fill="black" /><!-- width=84 height=157 -->
<path id="gl1" d="M 40 9 C 37 11 36 11 33 13 C 31 16 31 19 33 22 C 38 27 37 21 37 85 C 37 116 37 142 37 144 C 37 144 35 147 34 148 C 27 156 30 159 46 159 C 60 160 64 157 60 150 C 55 144 55 144 54 139 C 54 130 54 91 55 88 C 58 81 73 73 84 75 C 96 76 103 82 104 93 C 105 95 105 106 105 118 C 105 142 105 144 101 148 C 96 156 99 160 114 160 C 129 160 132 156 125 148 C 121 144 121 144 121 117 C 121 96 120 90 120 87 C 114 66 91 57 64 67 C 60 69 59 70 57 69 C 54 67 54 67 54 39 C 54 12 54 11 51 9 C 49 8 44 8 40 9 z" fill="black" /><!-- width=143 height=191 -->
<path id="gl260" d="M 39 8 C 21 10 12 17 14 24 C 15 30 22 30 32 25 C 39 21 42 20 48 20 C 60 20 71 27 73 35 C 75 40 72 42 63 42 C 45 39 25 47 15 60 C 6 72 7 89 17 99 C 30 111 54 112 67 101 C 73 96 73 96 79 101 C 84 106 84 106 92 106 C 97 106 98 106 99 105 C 104 101 103 98 97 93 C 95 91 93 90 93 89 C 92 88 92 79 91 62 C 91 54 91 45 91 37 C 91 36 90 34 90 33 C 84 18 69 9 49 8 C 45 8 40 8 39 8 M 75 54 C 76 56 76 61 75 72 C 75 82 72 85 61 91 C 43 99 27 93 27 78 C 27 64 38 55 61 52 C 70 51 72 51 75 54 z" fill="black" /><!-- width=114 height=125 -->
<path id="gl773" d="M 89 23 C 84 24 83 28 87 35 C 92 43 91 45 84 67 C 80 79 74 93 71 97 C 69 100 65 100 62 97 C 59 93 49 71 45 58 C 40 45 41 41 46 35 C 51 30 51 25 46 24 C 44 22 24 22 21 24 C 16 26 16 29 21 37 C 24 41 24 43 26 51 C 33 78 36 85 51 111 C 61 126 67 126 76 111 C 91 89 97 75 104 49 C 105 45 106 40 107 39 C 112 30 112 25 106 23 C 103 22 91 22 89 23 z" fill="black" /><!-- width=124 height=135 -->
<path id="gl6" d="M 63 12 C 36 18 18 42 19 70 C 20 88 30 102 45 109 C 58 115 76 115 89 109 C 106 102 115 91 108 85 C 104 82 100 84 94 90 C 83 100 72 103 58 99 C 45 94 35 82 42 76 C 42 75 44 75 50 75 C 76 74 98 64 105 50 C 107 45 107 35 105 30 C 101 22 95 17 85 14 C 81 12 67 12 63 12 M 79 26 C 87 29 91 38 87 46 C 84 54 75 58 52 64 C 49 65 45 66 42 67 C 41 66 40 66 40 66 C 36 63 36 60 38 51 C 43 35 57 25 72 25 C 75 25 78 25 79 26 z" fill="black" /><!-- width=121 height=126 -->
<path id="gl0" d="M 38 8 C 36 11 35 14 34 24 C 33 39 31 42 24 42 C 19 43 16 44 15 47 C 14 51 18 54 24 54 C 29 55 31 57 31 61 C 31 63 31 81 31 99 C 30 143 29 139 46 141 C 52 141 58 141 61 141 C 70 142 76 137 72 131 C 71 128 67 127 60 127 C 47 127 48 129 47 90 C 47 58 47 57 49 55 C 51 54 51 54 56 54 C 66 56 70 55 72 51 C 73 48 73 45 70 43 C 69 42 62 42 54 43 C 53 43 52 43 51 43 C 50 43 49 42 49 42 C 47 39 47 37 48 24 C 49 11 48 7 42 6 C 40 6 40 6 38 8 z" fill="black" /><!-- width=84 height=157 -->
<path id="gl1" d="M 40 9 C 37 11 36 11 33 13 C 31 16 31 19 33 22 C 38 27 37 21 37 85 C 37 116 37 142 37 144 C 37 144 35 147 34 148 C 27 156 30 159 46 159 C 60 160 64 157 60 150 C 55 144 55 144 54 139 C 54 130 54 91 55 88 C 58 81 73 73 84 75 C 96 76 103 82 104 93 C 105 95 105 106 105 118 C 105 142 105 144 101 148 C 96 156 99 160 114 160 C 129 160 132 156 125 148 C 121 144 121 144 121 117 C 121 96 120 90 120 87 C 114 66 91 57 64 67 C 60 69 59 70 57 69 C 54 67 54 67 54 39 C 54 12 54 11 51 9 C 49 8 44 8 40 9 z" fill="black" /><!-- width=143 height=191 -->
<path id="gl515" d="M 64 12 C 43 16 27 31 21 52 C 19 60 19 73 21 79 C 29 108 63 123 91 109 C 108 100 115 91 109 85 C 106 81 102 83 94 90 C 83 99 73 102 60 98 C 49 96 39 85 40 79 C 41 75 42 74 54 73 C 75 73 91 67 101 56 C 110 46 110 33 102 22 C 93 13 79 9 64 12 M 78 25 C 85 27 89 31 89 38 C 89 46 85 51 75 56 C 70 58 48 65 44 65 C 38 65 36 61 39 53 C 43 34 61 21 78 25 z" fill="black" /><!-- width=123 height=126 -->
<path id="gl0" d="M 38 8 C 36 11 35 14 34 24 C 33 39 31 42 24 42 C 19 43 16 44 15 47 C 14 51 18 54 24 54 C 29 55 31 57 31 61 C 31 63 31 81 31 99 C 30 143 29 139 46 141 C 52 141 58 141 61 141 C 70 142 76 137 72 131 C 71 128 67 127 60 127 C 47 127 48 129 47 90 C 47 58 47 57 49 55 C 51 54 51 54 56 54 C 66 56 70 55 72 51 C 73 48 73 45 70 43 C 69 42 62 42 54 43 C 53 43 52 43 51 43 C 50 43 49 42 49 42 C 47 39 47 37 48 24 C 49 11 48 7 42 6 C 40 6 40 6 38 8 z" fill="black" /><!-- width=84 height=157 -->
<path id="gl768" d="M 20 8 C 15 9 12 10 10 12 C 9 15 9 16 13 20 C 18 27 18 26 18 55 C 18 82 19 85 22 92 C 30 105 47 111 63 105 C 67 105 69 103 76 99 C 80 96 82 96 86 100 C 90 104 91 105 99 105 C 105 106 107 105 109 102 C 111 99 110 96 105 93 C 99 89 99 91 99 63 C 99 49 99 33 100 25 C 100 9 99 7 90 7 C 83 7 79 9 77 11 C 74 14 75 17 79 22 C 82 26 82 27 82 53 C 82 61 82 69 82 78 C 82 79 81 79 81 81 C 79 84 76 87 69 90 C 54 97 43 95 37 85 C 36 81 35 78 35 46 C 36 10 36 11 31 9 C 28 7 25 7 20 8 z" fill="black" /><!-- width=121 height=121 -->
<path id="gl3" d="M 66 16 C 66 16 63 17 60 18 C 57 19 54 20 51 22 C 44 28 44 28 42 27 C 40 26 39 25 37 22 C 37 20 35 18 34 18 C 29 14 16 21 16 28 C 16 31 16 31 21 36 C 22 37 24 39 26 40 C 26 49 26 59 26 69 C 26 78 26 88 26 97 C 24 99 22 100 21 102 C 16 107 15 108 17 111 C 19 114 19 114 34 114 C 48 114 49 114 50 112 C 54 109 54 106 48 102 C 43 98 43 99 43 71 C 43 46 43 46 45 43 C 51 31 75 25 87 34 C 93 38 93 41 93 74 C 93 99 93 98 89 101 C 84 105 82 109 86 112 C 88 114 88 114 100 114 C 114 114 115 114 117 111 C 120 108 119 105 114 100 C 112 100 111 99 111 98 C 111 97 111 84 110 69 C 110 39 110 39 106 31 C 102 22 89 15 74 16 C 70 16 67 16 66 16 z" fill="black" /><!-- width=131 height=127 -->
<path id="gl259" d="M 64 12 C 39 16 19 39 19 66 C 19 96 43 115 73 113 C 85 112 100 105 108 97 C 113 92 112 85 106 84 C 102 83 100 84 95 89 C 81 103 59 103 45 90 C 36 81 38 74 50 74 C 72 74 94 65 103 54 C 112 41 107 23 92 16 C 85 12 73 10 64 12 M 79 25 C 88 28 91 38 87 46 C 83 54 76 57 54 63 C 43 66 40 66 39 64 C 36 61 36 60 38 53 C 43 33 62 20 79 25 z" fill="black" /><!-- width=123 height=125 -->
<path id="gl4358" d="M 40 11 C 23 15 13 26 14 41 C 15 48 16 51 20 56 C 25 61 30 63 45 67 C 61 70 64 72 66 78 C 69 84 66 91 61 95 C 49 102 36 100 26 88 C 19 81 12 80 10 86 C 4 100 34 116 55 111 C 66 108 76 100 80 92 C 81 90 82 89 82 87 C 82 85 82 82 82 79 C 82 71 82 71 81 67 C 76 58 67 54 46 49 C 34 46 30 43 29 39 C 27 29 34 23 46 23 C 55 23 58 24 65 31 C 70 36 73 37 76 35 C 82 32 80 20 73 16 C 64 12 49 10 40 11 z" fill="black" /><!-- width=96 height=124 -->
<path id="gl4104" d="M 76 34 C 70 35 64 37 61 40 C 55 45 51 45 48 40 C 45 36 42 34 38 34 C 31 34 24 39 24 43 C 24 46 24 46 28 49 C 35 54 34 50 34 102 C 35 152 35 154 31 159 C 27 164 28 167 32 169 C 36 171 54 170 56 168 C 59 166 59 163 56 160 C 52 154 52 154 52 142 C 52 135 52 129 53 127 C 54 124 54 123 53 120 C 52 115 51 88 52 76 C 52 64 54 60 60 54 C 74 40 97 43 105 61 C 109 71 111 86 108 97 C 102 117 89 126 70 121 C 63 119 61 119 58 121 C 58 122 57 123 57 123 C 57 124 57 124 58 125 C 60 130 70 133 80 133 C 102 133 121 119 125 100 C 133 67 120 41 94 35 C 90 34 80 33 76 34 z" fill="black" /><!-- width=141 height=184 -->
<path id="gl4102" d="M 23 10 C 16 12 14 13 13 16 C 12 19 12 20 17 25 C 21 28 21 28 21 31 C 21 34 21 60 21 90 C 21 151 22 146 16 150 C 10 154 10 159 14 161 C 17 163 42 163 45 161 C 48 159 48 155 43 150 C 37 145 38 147 38 116 C 38 101 38 72 38 51 C 39 12 39 12 36 9 C 34 7 30 7 23 10 z" fill="black" /><!-- width=59 height=176 -->
<path id="gl5900" d="M 42 9 C 25 11 17 15 16 22 C 16 27 19 31 24 31 C 27 31 29 30 39 25 C 48 20 58 21 68 27 C 74 30 77 37 75 40 C 73 42 73 42 63 42 C 44 43 33 47 22 57 C 5 73 8 98 28 108 C 34 111 38 111 48 111 C 57 111 61 110 69 105 C 75 101 78 101 81 104 C 85 108 92 110 100 109 C 108 108 109 100 100 95 C 96 91 96 92 96 64 C 96 37 96 36 91 28 C 84 14 63 5 42 9 M 75 54 C 78 56 78 58 78 67 C 78 81 75 87 66 92 C 46 102 29 95 31 77 C 32 69 36 64 46 60 C 55 55 70 52 75 54 z" fill="black" /><!-- width=119 height=127 -->
<path id="gl513" d="M 23 31 C 19 33 18 36 21 41 C 24 45 25 49 25 56 C 25 58 27 64 28 70 C 34 100 45 117 61 121 C 66 123 68 124 68 127 C 68 132 57 145 48 150 C 44 151 44 151 36 151 C 28 151 25 152 24 156 C 22 162 28 168 37 166 C 67 163 97 117 107 58 C 108 52 109 45 111 43 C 113 33 110 31 99 31 C 88 31 86 34 91 42 C 93 44 94 46 94 48 C 96 63 86 98 78 106 C 68 115 54 103 48 79 C 42 60 42 49 45 42 C 48 36 47 33 43 31 C 40 30 25 30 23 31 z" fill="black" /><!-- width=124 height=181 -->
<path id="gl515" d="M 64 12 C 43 16 27 31 21 52 C 19 60 19 73 21 79 C 29 108 63 123 91 109 C 108 100 115 91 109 85 C 106 81 102 83 94 90 C 83 99 73 102 60 98 C 49 96 39 85 40 79 C 41 75 42 74 54 73 C 75 73 91 67 101 56 C 110 46 110 33 102 22 C 93 13 79 9 64 12 M 78 25 C 85 27 89 31 89 38 C 89 46 85 51 75 56 C 70 58 48 65 44 65 C 38 65 36 61 39 53 C 43 34 61 21 78 25 z" fill="black" /><!-- width=123 height=126 -->
<path id="gl257" d="M 84 10 C 78 12 73 16 73 19 C 73 19 74 21 75 23 C 79 28 79 28 79 47 C 79 70 79 69 67 66 C 45 60 25 69 15 89 C 10 99 9 103 9 116 C 9 128 10 133 14 142 C 25 162 50 169 70 159 C 76 155 78 155 84 159 C 92 163 103 162 103 156 C 103 155 101 153 100 150 C 99 148 98 147 97 145 C 97 143 97 141 96 138 C 96 134 96 105 96 74 C 96 29 96 16 96 15 C 94 10 90 9 84 10 M 69 78 C 75 81 76 81 78 84 C 79 87 79 87 79 111 C 79 142 79 142 70 147 C 44 161 22 141 26 107 C 30 82 48 70 69 78 z" fill="black" /><!-- width=127 height=199 -->
<path id="gl10763" d="M 41 7 C 37 7 28 10 24 12 C 16 15 14 24 21 28 C 24 30 27 30 39 23 C 51 16 72 21 75 33 C 77 38 74 40 63 40 C 45 40 31 45 21 55 C 13 64 10 73 12 85 C 15 97 26 106 42 108 C 52 109 60 108 70 102 C 77 97 77 97 81 101 C 85 105 88 106 96 106 C 102 106 103 106 105 105 C 109 101 108 96 102 92 C 96 88 96 88 96 63 C 96 46 96 40 95 36 C 91 15 69 4 41 7 M 75 52 C 78 54 79 55 78 65 C 78 80 75 85 64 90 C 46 98 31 92 31 76 C 31 64 42 55 63 52 C 71 51 73 51 75 52 z" fill="black" /><!-- width=120 height=123 -->
<path id="gl0" d="M 38 8 C 36 11 35 14 34 24 C 33 39 31 42 24 42 C 19 43 16 44 15 47 C 14 51 18 54 24 54 C 29 55 31 57 31 61 C 31 63 31 81 31 99 C 30 143 29 139 46 141 C 52 141 58 141 61 141 C 70 142 76 137 72 131 C 71 128 67 127 60 127 C 47 127 48 129 47 90 C 47 58 47 57 49 55 C 51 54 51 54 56 54 C 66 56 70 55 72 51 C 73 48 73 45 70 43 C 69 42 62 42 54 43 C 53 43 52 43 51 43 C 50 43 49 42 49 42 C 47 39 47 37 48 24 C 49 11 48 7 42 6 C 40 6 40 6 38 8 z" fill="black" /><!-- width=84 height=157 -->
<path id="gl0" d="M 38 8 C 36 11 35 14 34 24 C 33 39 31 42 24 42 C 19 43 16 44 15 47 C 14 51 18 54 24 54 C 29 55 31 57 31 61 C 31 63 31 81 31 99 C 30 143 29 139 46 141 C 52 141 58 141 61 141 C 70 142 76 137 72 131 C 71 128 67 127 60 127 C 47 127 48 129 47 90 C 47 58 47 57 49 55 C 51 54 51 54 56 54 C 66 56 70 55 72 51 C 73 48 73 45 70 43 C 69 42 62 42 54 43 C 53 43 52 43 51 43 C 50 43 49 42 49 42 C 47 39 47 37 48 24 C 49 11 48 7 42 6 C 40 6 40 6 38 8 z" fill="black" /><!-- width=84 height=157 -->
<path id="gl9475" d="M 40 10 C 33 13 28 18 30 22 C 30 23 32 25 33 27 C 37 31 37 30 36 89 C 36 149 36 144 31 151 C 27 156 27 160 32 162 C 34 163 55 163 58 162 C 64 160 65 156 60 150 C 56 144 55 144 55 118 C 55 88 56 88 66 82 C 76 78 84 77 92 80 C 102 85 104 91 103 124 C 103 142 103 145 100 149 C 96 154 96 157 98 160 C 100 163 102 163 115 163 C 125 163 126 163 127 162 C 131 159 131 154 128 151 C 123 145 123 147 123 119 C 123 89 121 85 116 78 C 106 64 89 60 67 66 C 55 70 55 70 55 40 C 55 27 55 16 54 15 C 53 10 48 8 40 10 z" fill="black" /><!-- width=144 height=197 -->
<path id="gl261" d="M 61 12 C 43 16 28 30 21 49 C 19 57 19 72 21 79 C 30 108 63 120 91 106 C 97 103 102 100 106 96 C 112 91 111 83 105 81 C 102 81 98 83 93 88 C 85 96 73 100 61 97 C 48 94 36 82 40 75 C 41 73 43 72 52 72 C 73 71 89 65 99 55 C 105 49 106 46 106 38 C 106 30 105 27 99 21 C 91 12 77 9 61 12 M 79 25 C 93 29 91 45 78 53 C 72 57 49 63 42 63 C 36 63 35 58 39 47 C 45 31 64 21 79 25 z" fill="black" /><!-- width=121 height=124 -->
<path id="gl16135" d="M 40 13 C 24 17 15 28 15 43 C 15 58 23 66 45 71 C 60 75 66 77 68 82 C 72 91 64 100 51 101 C 42 102 35 99 28 91 C 24 86 21 84 18 85 C 9 87 9 97 18 105 C 30 116 51 119 66 112 C 79 106 87 96 87 82 C 87 67 77 58 57 54 C 40 49 36 48 34 43 C 30 37 34 29 43 27 C 51 25 60 27 67 35 C 75 42 79 42 82 37 C 84 34 82 24 79 20 C 72 13 51 10 40 13 z" fill="black" /><!-- width=100 height=129 -->
<path id="gl512" d="M 36 9 C 25 11 19 14 16 18 C 16 19 15 21 15 21 C 15 22 16 23 16 24 C 18 29 24 30 30 27 C 43 19 48 18 56 20 C 67 23 77 32 75 38 C 75 41 73 42 68 42 C 46 40 31 45 20 57 C 12 64 9 76 12 87 C 16 102 36 111 55 107 C 61 106 64 105 69 100 C 76 95 78 95 81 100 C 84 105 86 105 93 105 C 102 106 104 104 104 99 C 104 97 104 97 102 95 C 96 91 94 89 94 87 C 94 85 94 75 94 63 C 94 39 93 35 90 28 C 82 12 60 4 36 9 M 76 53 C 77 55 78 55 77 64 C 77 79 76 82 69 87 C 50 100 28 95 29 78 C 29 64 39 56 60 52 C 70 51 74 51 76 53 z" fill="black" /><!-- width=117 height=124 -->
<path id="gl262" d="M 129 19 C 122 19 115 22 109 27 C 103 31 100 31 94 26 C 87 21 83 19 73 19 C 63 18 57 20 49 25 C 43 29 42 29 37 24 C 33 18 29 18 23 22 C 16 27 16 30 22 39 C 25 42 25 44 25 71 C 25 99 25 99 21 103 C 15 111 21 114 37 114 C 45 113 46 113 48 111 C 50 109 49 107 46 103 C 42 99 42 99 43 71 C 43 48 43 47 44 45 C 51 30 72 25 82 36 C 87 42 87 48 88 76 C 88 98 87 98 84 103 C 81 107 81 108 82 110 C 83 113 85 114 94 114 C 110 114 114 111 108 103 C 105 97 105 97 105 73 C 105 43 105 40 118 33 C 132 27 144 31 148 43 C 150 46 150 50 150 70 C 150 97 150 97 146 103 C 143 108 143 108 145 111 C 147 113 151 114 163 114 C 173 113 175 110 171 103 C 167 98 167 100 166 72 C 166 63 166 54 166 46 C 166 44 165 42 165 40 C 163 34 161 31 157 27 C 151 21 139 17 129 19 z" fill="black" /><!-- width=186 height=128 -->
<path id="gl515" d="M 64 12 C 43 16 27 31 21 52 C 19 60 19 73 21 79 C 29 108 63 123 91 109 C 108 100 115 91 109 85 C 106 81 102 83 94 90 C 83 99 73 102 60 98 C 49 96 39 85 40 79 C 41 75 42 74 54 73 C 75 73 91 67 101 56 C 110 46 110 33 102 22 C 93 13 79 9 64 12 M 78 25 C 85 27 89 31 89 38 C 89 46 85 51 75 56 C 70 58 48 65 44 65 C 38 65 36 61 39 53 C 43 34 61 21 78 25 z" fill="black" /><!-- width=123 height=126 -->
<path id="gl0" d="M 38 8 C 36 11 35 14 34 24 C 33 39 31 42 24 42 C 19 43 16 44 15 47 C 14 51 18 54 24 54 C 29 55 31 57 31 61 C 31 63 31 81 31 99 C 30 143 29 139 46 141 C 52 141 58 141 61 141 C 70 142 76 137 72 131 C 71 128 67 127 60 127 C 47 127 48 129 47 90 C 47 58 47 57 49 55 C 51 54 51 54 56 54 C 66 56 70 55 72 51 C 73 48 73 45 70 43 C 69 42 62 42 54 43 C 53 43 52 43 51 43 C 50 43 49 42 49 42 C 47 39 47 37 48 24 C 49 11 48 7 42 6 C 40 6 40 6 38 8 z" fill="black" /><!-- width=84 height=157 -->
<path id="gl256" d="M 25 7 C 19 10 17 12 17 19 C 17 26 21 29 28 30 C 37 30 42 24 40 15 C 39 10 31 6 25 7 M 31 45 C 30 45 28 46 26 47 C 24 48 22 49 20 49 C 11 52 10 59 18 63 C 24 67 24 64 24 96 C 24 106 24 115 24 124 C 23 125 22 126 22 127 C 21 128 19 130 18 132 C 10 136 13 143 23 142 C 28 142 36 142 40 143 C 44 143 45 143 47 141 C 51 138 51 135 45 130 C 40 127 40 130 40 88 C 40 47 40 48 36 46 C 34 45 33 45 31 45 z" fill="black" /><!-- width=61 height=168 -->
<path id="gl262" d="M 129 19 C 122 19 115 22 109 27 C 103 31 100 31 94 26 C 87 21 83 19 73 19 C 63 18 57 20 49 25 C 43 29 42 29 37 24 C 33 18 29 18 23 22 C 16 27 16 30 22 39 C 25 42 25 44 25 71 C 25 99 25 99 21 103 C 15 111 21 114 37 114 C 45 113 46 113 48 111 C 50 109 49 107 46 103 C 42 99 42 99 43 71 C 43 48 43 47 44 45 C 51 30 72 25 82 36 C 87 42 87 48 88 76 C 88 98 87 98 84 103 C 81 107 81 108 82 110 C 83 113 85 114 94 114 C 110 114 114 111 108 103 C 105 97 105 97 105 73 C 105 43 105 40 118 33 C 132 27 144 31 148 43 C 150 46 150 50 150 70 C 150 97 150 97 146 103 C 143 108 143 108 145 111 C 147 113 151 114 163 114 C 173 113 175 110 171 103 C 167 98 167 100 166 72 C 166 63 166 54 166 46 C 166 44 165 42 165 40 C 163 34 161 31 157 27 C 151 21 139 17 129 19 z" fill="black" /><!-- width=186 height=128 -->
<path id="gl5144" d="M 66 12 C 34 17 13 48 21 80 C 27 106 58 121 85 112 C 102 106 114 95 111 87 C 108 81 102 82 93 90 C 86 97 79 100 70 100 C 58 100 46 94 43 85 C 39 78 42 75 52 75 C 75 75 99 64 106 50 C 108 45 108 34 106 29 C 100 18 82 10 66 12 M 81 27 C 90 32 91 43 84 51 C 79 55 67 60 52 63 C 42 66 38 64 38 58 C 38 45 52 29 66 27 C 70 25 78 26 81 27 z" fill="black" /><!-- width=123 height=128 -->
<path id="gl2312" d="M 19 14 C 7 19 11 37 24 39 C 37 41 44 23 33 15 C 30 12 23 12 19 14 z" fill="black" /><!-- width=51 height=52 -->
</defs>
<use xlink:href="#gl5904" x="0" y="8" />
<use xlink:href="#gl4107" x="83" y="0" />
<use xlink:href="#gl0" x="200" y="25" />
<use xlink:href="#gl5144" x="260" y="55" />
<use xlink:href="#gl3613" x="359" y="36" />
<use xlink:href="#gl20995" x="544" y="8" />
<use xlink:href="#gl11789" x="681" y="76" />
<use xlink:href="#gl4107" x="841" y="3" />
<use xlink:href="#gl260" x="965" y="61" />
<use xlink:href="#gl262" x="1062" y="52" />
<use xlink:href="#gl4367" x="1228" y="56" />
<use xlink:href="#gl5900" x="1417" y="60" />
<use xlink:href="#gl5145" x="1520" y="51" />
<use xlink:href="#gl4377" x="1624" y="63" />
<use xlink:href="#gl3848" x="1724" y="24" />
<use xlink:href="#gl3" x="1769" y="54" />
<use xlink:href="#gl3612" x="1902" y="125" />
<use xlink:href="#gl771" x="2016" y="7" />
<use xlink:href="#gl768" x="2134" y="64" />
<use xlink:href="#gl0" x="2232" y="27" />
<use xlink:href="#gl1" x="2368" y="8" />
<use xlink:href="#gl260" x="2498" y="62" />
<use xlink:href="#gl773" x="2587" y="48" />
<use xlink:href="#gl6" x="2684" y="57" />
<use xlink:href="#gl0" x="2866" y="28" />
<use xlink:href="#gl1" x="2918" y="8" />
<use xlink:href="#gl515" x="3039" y="57" />
<use xlink:href="#gl0" x="3223" y="29" />
<use xlink:href="#gl768" x="3291" y="63" />
<use xlink:href="#gl3" x="3392" y="53" />
<use xlink:href="#gl259" x="3502" y="57" />
<use xlink:href="#gl4358" x="3611" y="59" />
<use xlink:href="#gl4104" x="3764" y="37" />
<use xlink:href="#gl4102" x="3891" y="7" />
<use xlink:href="#gl5900" x="3934" y="60" />
<use xlink:href="#gl513" x="4026" y="41" />
<use xlink:href="#gl515" x="4126" y="56" />
<use xlink:href="#gl257" x="4236" y="7" />
<use xlink:href="#gl10763" x="4421" y="62" />
<use xlink:href="#gl0" x="4516" y="28" />
<use xlink:href="#gl0" x="4659" y="28" />
<use xlink:href="#gl9475" x="4711" y="6" />
<use xlink:href="#gl261" x="4833" y="59" />
<use xlink:href="#gl16135" x="5022" y="57" />
<use xlink:href="#gl512" x="5104" y="62" />
<use xlink:href="#gl262" x="5203" y="53" />
<use xlink:href="#gl515" x="5368" y="57" />
<use xlink:href="#gl0" x="835" y="287" />
<use xlink:href="#gl256" x="903" y="284" />
<use xlink:href="#gl262" x="948" y="313" />
<use xlink:href="#gl5144" x="1113" y="317" />
<use xlink:href="#gl2312" x="1234" y="392" />
</svg>