<?xml version="1.0" standalone="no"?>
<!DOCTYPE svg PUBLIC "-//W3C/DTD SVG 1.1//EN" "http://www.w3.org/Graphics/SVG/1.1/DTD/svg11.dtd">
<svg width="568px" height="79px" viewBox="0 0 5687 799" xmlns="http://www.w3.org/2000/svg" xmlns:xlink="http://www.w3.org/1999/xlink" version="1.1">
<defs>
<path id="gl13826" d="M 52 9 C 48 10 36 16 32 20 C 30 22 26 27 25 31 C 19 51 26 69 43 76 C 50 79 72 79 76 75 C 79 73 78 68 75 66 C 72 66 71 66 64 67 C 55 69 48 66 43 60 C 31 43 39 19 55 19 C 62 19 64 21 69 27 C 74 34 79 31 79 19 C 79 11 75 9 63 9 C 58 9 54 9 52 9 z" fill="black" /><!-- width=90 height=90 -->
<path id="gl23816" d="M 15 10 C 9 12 9 13 9 16 C 9 18 9 18 12 20 C 16 23 16 21 16 61 C 16 102 16 100 12 103 C 10 105 9 106 9 108 C 9 112 26 114 32 111 C 36 109 36 108 33 104 C 29 99 29 100 29 69 C 29 54 30 36 30 30 C 30 15 30 14 29 12 C 27 9 23 8 15 10 z" fill="black" /><!-- width=45 height=124 -->
<path id="gl23817" d="M 29 5 C 17 8 12 12 12 18 C 12 24 13 25 17 24 C 20 24 21 23 22 21 C 25 13 32 11 41 16 C 47 19 49 25 46 31 C 45 32 45 33 43 34 C 45 36 45 36 46 37 C 49 41 50 48 47 54 C 46 55 45 57 45 58 C 43 62 43 64 45 66 C 46 66 49 68 50 70 C 54 73 55 73 61 72 C 67 70 67 68 64 63 C 61 58 61 59 61 38 C 61 31 61 25 61 18 C 60 17 60 16 59 15 C 58 13 57 12 56 10 C 56 9 54 8 53 7 C 49 6 34 4 29 5 M 27 33 C 26 34 24 34 22 35 C 15 36 9 43 7 52 C 7 57 10 66 13 69 C 16 71 24 74 27 73 C 31 72 36 70 38 68 C 39 67 41 65 42 65 C 44 64 42 63 35 63 C 22 62 19 57 24 48 C 25 43 28 41 35 38 C 42 36 43 35 40 33 C 37 32 31 32 27 33 z" fill="black" /><!-- width=78 height=85 -->
<path id="gl23818" d="M 60 29 C 60 29 57 30 55 32 C 52 36 49 36 45 33 C 40 28 35 28 30 33 C 28 34 27 35 26 36 C 25 37 27 41 28 43 C 29 44 30 46 30 47 C 31 51 31 93 31 102 C 30 120 30 122 28 125 C 25 129 26 132 30 135 C 34 137 46 138 49 135 C 50 134 51 133 52 133 C 54 132 51 128 49 126 C 46 125 45 124 45 112 C 45 102 45 99 46 98 C 46 97 52 97 56 99 C 62 100 64 100 67 97 C 69 97 72 96 73 95 C 75 95 76 94 78 93 C 79 91 80 91 80 91 C 82 91 91 82 93 78 C 93 77 94 75 96 74 C 96 72 97 70 98 59 C 99 49 91 35 82 31 C 77 28 65 27 60 29 M 73 43 C 79 46 82 51 82 60 C 83 69 81 76 74 84 C 70 88 69 88 58 87 C 46 86 45 85 45 68 C 45 45 47 41 64 42 C 69 42 71 42 73 43 z" fill="black" /><!-- width=109 height=147 -->
<path id="gl13826" d="M 52 9 C 48 10 36 16 32 20 C 30 22 26 27 25 31 C 19 51 26 69 43 76 C 50 79 72 79 76 75 C 79 73 78 68 75 66 C 72 66 71 66 64 67 C 55 69 48 66 43 60 C 31 43 39 19 55 19 C 62 19 64 21 69 27 C 74 34 79 31 79 19 C 79 11 75 9 63 9 C 58 9 54 9 52 9 z" fill="black" /><!-- width=90 height=90 -->
<path id="gl23816" d="M 15 10 C 9 12 9 13 9 16 C 9 18 9 18 12 20 C 16 23 16 21 16 61 C 16 102 16 100 12 103 C 10 105 9 106 9 108 C 9 112 26 114 32 111 C 36 109 36 108 33 104 C 29 99 29 100 29 69 C 29 54 30 36 30 30 C 30 15 30 14 29 12 C 27 9 23 8 15 10 z" fill="black" /><!-- width=45 height=124 -->
<path id="gl5397" d="M 27 6 C 18 7 13 11 12 15 C 11 22 21 24 27 18 C 34 12 50 16 51 24 C 52 29 49 31 41 30 C 34 30 30 31 24 34 C 18 37 13 40 13 42 C 13 42 12 44 11 47 C 8 53 8 57 11 64 C 15 72 21 75 34 75 C 39 76 39 75 42 73 C 48 70 52 69 59 72 C 64 75 68 75 71 72 C 72 72 73 70 73 70 C 73 69 72 65 70 63 C 67 60 66 58 67 49 C 67 37 66 23 64 19 C 63 15 58 10 55 9 C 54 9 52 8 50 7 C 46 6 35 5 27 6 M 51 37 C 55 40 55 43 54 50 C 51 61 48 64 37 64 C 28 65 24 63 24 55 C 24 47 27 42 35 40 C 37 39 41 37 42 37 C 46 34 48 34 51 37 z" fill="black" /><!-- width=85 height=87 -->
<path id="gl23819" d="M 62 28 C 61 29 58 30 55 32 C 50 36 51 36 45 32 C 40 29 40 29 32 31 C 23 33 22 36 27 40 C 30 43 32 47 31 51 C 31 52 31 62 32 73 C 32 84 32 99 32 106 C 31 122 31 123 27 127 C 24 129 24 130 24 132 C 24 135 25 136 39 136 C 54 136 57 134 50 127 C 46 123 46 123 46 111 C 45 100 45 99 48 97 C 49 96 50 96 53 97 C 64 100 67 100 86 86 C 90 84 94 77 96 73 C 96 72 97 68 97 66 C 100 58 99 49 94 40 C 90 33 73 26 62 28 M 73 42 C 82 47 86 60 82 70 C 77 82 73 87 63 87 C 53 87 47 85 46 79 C 45 76 45 57 46 54 C 47 49 49 45 51 43 C 56 40 68 39 73 42 z" fill="black" /><!-- width=110 height=146 -->
<path id="gl13826" d="M 52 9 C 48 10 36 16 32 20 C 30 22 26 27 25 31 C 19 51 26 69 43 76 C 50 79 72 79 76 75 C 79 73 78 68 75 66 C 72 66 71 66 64 67 C 55 69 48 66 43 60 C 31 43 39 19 55 19 C 62 19 64 21 69 27 C 74 34 79 31 79 19 C 79 11 75 9 63 9 C 58 9 54 9 52 9 z" fill="black" /><!-- width=90 height=90 -->
<path id="gl1537" d="M 23 13 C 15 15 12 19 16 24 C 19 30 19 26 19 65 C 20 105 20 105 17 109 C 14 114 13 115 14 117 C 15 120 17 120 26 120 C 35 121 37 120 39 117 C 39 115 39 114 37 111 C 33 106 33 108 33 60 C 33 19 33 16 32 15 C 30 12 28 12 23 13 z" fill="black" /><!-- width=52 height=137 -->
<path id="gl23820" d="M 24 7 C 16 10 13 12 12 16 C 10 20 11 21 15 24 C 19 26 20 25 27 17 C 28 15 28 15 31 15 C 44 15 51 24 45 31 C 43 34 43 36 46 39 C 48 41 48 42 48 45 C 48 51 45 59 42 61 C 40 63 40 66 42 66 C 42 66 43 66 44 66 C 44 67 46 68 47 69 C 48 69 49 70 50 71 C 53 74 56 75 61 73 C 63 73 64 72 66 72 C 66 71 66 70 66 69 C 65 68 64 66 64 65 C 61 61 60 60 60 40 C 60 20 60 18 57 12 C 53 7 49 6 38 6 C 29 6 29 6 24 7 M 27 34 C 13 37 8 43 8 57 C 8 66 11 71 19 74 C 27 76 33 75 37 69 C 40 66 39 64 31 64 C 18 63 18 48 32 41 C 34 40 37 38 37 37 C 39 37 40 36 40 36 C 41 36 42 36 41 36 C 40 36 40 35 40 34 C 41 33 34 33 27 34 z" fill="black" /><!-- width=78 height=87 -->
<path id="gl23819" d="M 62 28 C 61 29 58 30 55 32 C 50 36 51 36 45 32 C 40 29 40 29 32 31 C 23 33 22 36 27 40 C 30 43 32 47 31 51 C 31 52 31 62 32 73 C 32 84 32 99 32 106 C 31 122 31 123 27 127 C 24 129 24 130 24 132 C 24 135 25 136 39 136 C 54 136 57 134 50 127 C 46 123 46 123 46 111 C 45 100 45 99 48 97 C 49 96 50 96 53 97 C 64 100 67 100 86 86 C 90 84 94 77 96 73 C 96 72 97 68 97 66 C 100 58 99 49 94 40 C 90 33 73 26 62 28 M 73 42 C 82 47 86 60 82 70 C 77 82 73 87 63 87 C 53 87 47 85 46 79 C 45 76 45 57 46 54 C 47 49 49 45 51 43 C 56 40 68 39 73 42 z" fill="black" /><!-- width=110 height=146 -->
<path id="gl23821" d="M 37 14 C 19 16 12 39 25 53 C 29 57 30 58 26 62 C 21 68 21 70 22 76 C 24 81 24 83 21 86 C 14 92 13 93 14 98 C 15 105 22 114 30 115 C 45 120 51 120 63 116 C 74 112 81 106 85 97 C 87 93 88 90 87 82 C 87 80 87 78 87 76 C 85 75 85 74 84 73 C 78 68 78 68 58 69 C 40 69 39 69 38 66 C 36 62 42 58 51 58 C 64 57 73 49 75 37 C 76 31 78 30 82 28 C 86 27 90 23 89 22 C 88 19 83 18 76 18 C 72 18 70 17 66 15 C 61 13 61 13 51 13 C 45 13 39 13 37 14 M 52 23 C 60 28 61 42 53 50 C 45 57 36 49 36 36 C 36 25 44 19 52 23 M 66 83 C 75 87 70 100 58 106 C 49 110 34 106 31 99 C 28 94 32 85 38 82 C 42 81 62 81 66 83 z" fill="black" /><!-- width=100 height=128 -->
<path id="gl23822" d="M 14 9 C 9 14 9 14 9 19 C 19 24 19 57 9 62 C 4 67 9 72 24 72 C 33 72 43 72 43 67 C 43 67 43 67 43 67 C 38 67 38 57 38 43 C 38 24 38 19 48 19 C 57 19 67 19 67 14 C 67 4 24 4 14 9 z" fill="black" /><!-- width=72 height=81 -->
<path id="gl23823" d="M 24 9 C 22 9 20 10 18 10 C 12 10 13 10 13 16 C 13 20 14 22 15 24 C 17 27 17 27 17 40 C 17 61 19 68 24 72 C 30 75 32 76 39 76 C 40 76 43 76 45 76 C 46 75 47 73 48 73 C 52 69 54 69 59 72 C 61 73 63 74 70 75 C 75 75 79 75 79 75 C 80 75 81 75 81 75 C 82 75 83 71 83 69 C 83 69 82 67 80 64 C 75 60 75 61 76 38 C 76 27 77 17 77 15 C 77 12 77 12 75 10 C 73 9 69 9 64 10 C 62 10 58 11 56 11 C 52 12 51 12 49 15 C 49 17 49 17 52 19 C 59 25 58 24 59 33 C 60 57 56 65 43 63 C 34 61 34 60 34 40 C 34 31 34 24 35 21 C 37 11 33 7 24 9 z" fill="black" /><!-- width=94 height=88 -->
<path id="gl23824" d="M 53 15 C 51 15 49 16 48 16 C 45 19 42 19 39 18 C 36 17 23 16 17 18 C 9 19 7 23 13 25 C 19 27 20 30 20 50 C 19 70 20 69 14 72 C 9 75 8 75 9 78 C 10 81 13 82 17 81 C 19 81 24 81 31 81 C 42 81 43 81 44 81 C 48 78 47 75 43 73 C 37 72 37 70 37 56 C 36 31 36 29 45 26 C 55 22 61 28 62 40 C 62 47 61 66 61 70 C 60 75 60 78 62 79 C 63 80 66 81 70 81 C 73 81 78 82 79 82 C 81 82 82 82 84 80 C 88 78 88 76 85 74 C 85 73 82 71 81 70 C 80 69 79 68 79 67 C 79 63 79 58 79 54 C 79 46 79 36 79 32 C 79 30 78 27 78 25 C 78 23 76 22 75 21 C 73 18 72 16 69 16 C 65 14 57 13 53 15 z" fill="black" /><!-- width=96 height=94 -->
<path id="gl23825" d="M 30 10 C 22 13 21 15 22 25 C 22 31 21 35 18 38 C 14 41 15 43 19 46 C 22 48 22 48 22 66 C 22 83 22 84 23 89 C 25 96 30 99 40 99 C 48 99 50 98 52 94 C 55 89 54 87 48 86 C 43 85 40 84 39 82 C 39 81 39 73 39 64 C 39 59 39 54 39 48 C 39 48 39 48 40 47 C 41 45 42 45 47 45 C 54 45 55 45 55 41 C 55 37 53 35 46 35 C 41 35 40 35 39 31 C 38 28 38 27 40 21 C 42 15 42 14 39 10 C 37 9 36 9 30 10 z" fill="black" /><!-- width=65 height=111 -->
<path id="gl13826" d="M 52 9 C 48 10 36 16 32 20 C 30 22 26 27 25 31 C 19 51 26 69 43 76 C 50 79 72 79 76 75 C 79 73 78 68 75 66 C 72 66 71 66 64 67 C 55 69 48 66 43 60 C 31 43 39 19 55 19 C 62 19 64 21 69 27 C 74 34 79 31 79 19 C 79 11 75 9 63 9 C 58 9 54 9 52 9 z" fill="black" /><!-- width=90 height=90 -->
<path id="gl1537" d="M 23 13 C 15 15 12 19 16 24 C 19 30 19 26 19 65 C 20 105 20 105 17 109 C 14 114 13 115 14 117 C 15 120 17 120 26 120 C 35 121 37 120 39 117 C 39 115 39 114 37 111 C 33 106 33 108 33 60 C 33 19 33 16 32 15 C 30 12 28 12 23 13 z" fill="black" /><!-- width=52 height=137 -->
<path id="gl23817" d="M 29 5 C 17 8 12 12 12 18 C 12 24 13 25 17 24 C 20 24 21 23 22 21 C 25 13 32 11 41 16 C 47 19 49 25 46 31 C 45 32 45 33 43 34 C 45 36 45 36 46 37 C 49 41 50 48 47 54 C 46 55 45 57 45 58 C 43 62 43 64 45 66 C 46 66 49 68 50 70 C 54 73 55 73 61 72 C 67 70 67 68 64 63 C 61 58 61 59 61 38 C 61 31 61 25 61 18 C 60 17 60 16 59 15 C 58 13 57 12 56 10 C 56 9 54 8 53 7 C 49 6 34 4 29 5 M 27 33 C 26 34 24 34 22 35 C 15 36 9 43 7 52 C 7 57 10 66 13 69 C 16 71 24 74 27 73 C 31 72 36 70 38 68 C 39 67 41 65 42 65 C 44 64 42 63 35 63 C 22 62 19 57 24 48 C 25 43 28 41 35 38 C 42 36 43 35 40 33 C 37 32 31 32 27 33 z" fill="black" /><!-- width=78 height=85 -->
<path id="gl23819" d="M 62 28 C 61 29 58 30 55 32 C 50 36 51 36 45 32 C 40 29 40 29 32 31 C 23 33 22 36 27 40 C 30 43 32 47 31 51 C 31 52 31 62 32 73 C 32 84 32 99 32 106 C 31 122 31 123 27 127 C 24 129 24 130 24 132 C 24 135 25 136 39 136 C 54 136 57 134 50 127 C 46 123 46 123 46 111 C 45 100 45 99 48 97 C 49 96 50 96 53 97 C 64 100 67 100 86 86 C 90 84 94 77 96 73 C 96 72 97 68 97 66 C 100 58 99 49 94 40 C 90 33 73 26 62 28 M 73 42 C 82 47 86 60 82 70 C 77 82 73 87 63 87 C 53 87 47 85 46 79 C 45 76 45 57 46 54 C 47 49 49 45 51 43 C 56 40 68 39 73 42 z" fill="black" /><!-- width=110 height=146 -->
<path id="gl13826" d="M 52 9 C 48 10 36 16 32 20 C 30 22 26 27 25 31 C 19 51 26 69 43 76 C 50 79 72 79 76 75 C 79 73 78 68 75 66 C 72 66 71 66 64 67 C 55 69 48 66 43 60 C 31 43 39 19 55 19 C 62 19 64 21 69 27 C 74 34 79 31 79 19 C 79 11 75 9 63 9 C 58 9 54 9 52 9 z" fill="black" /><!-- width=90 height=90 -->
<path id="gl23816" d="M 15 10 C 9 12 9 13 9 16 C 9 18 9 18 12 20 C 16 23 16 21 16 61 C 16 102 16 100 12 103 C 10 105 9 106 9 108 C 9 112 26 114 32 111 C 36 109 36 108 33 104 C 29 99 29 100 29 69 C 29 54 30 36 30 30 C 30 15 30 14 29 12 C 27 9 23 8 15 10 z" fill="black" /><!-- width=45 height=124 -->
<path id="gl23820" d="M 24 7 C 16 10 13 12 12 16 C 10 20 11 21 15 24 C 19 26 20 25 27 17 C 28 15 28 15 31 15 C 44 15 51 24 45 31 C 43 34 43 36 46 39 C 48 41 48 42 48 45 C 48 51 45 59 42 61 C 40 63 40 66 42 66 C 42 66 43 66 44 66 C 44 67 46 68 47 69 C 48 69 49 70 50 71 C 53 74 56 75 61 73 C 63 73 64 72 66 72 C 66 71 66 70 66 69 C 65 68 64 66 64 65 C 61 61 60 60 60 40 C 60 20 60 18 57 12 C 53 7 49 6 38 6 C 29 6 29 6 24 7 M 27 34 C 13 37 8 43 8 57 C 8 66 11 71 19 74 C 27 76 33 75 37 69 C 40 66 39 64 31 64 C 18 63 18 48 32 41 C 34 40 37 38 37 37 C 39 37 40 36 40 36 C 41 36 42 36 41 36 C 40 36 40 35 40 34 C 41 33 34 33 27 34 z" fill="black" /><!-- width=78 height=87 -->
<path id="gl23818" d="M 60 29 C 60 29 57 30 55 32 C 52 36 49 36 45 33 C 40 28 35 28 30 33 C 28 34 27 35 26 36 C 25 37 27 41 28 43 C 29 44 30 46 30 47 C 31 51 31 93 31 102 C 30 120 30 122 28 125 C 25 129 26 132 30 135 C 34 137 46 138 49 135 C 50 134 51 133 52 133 C 54 132 51 128 49 126 C 46 125 45 124 45 112 C 45 102 45 99 46 98 C 46 97 52 97 56 99 C 62 100 64 100 67 97 C 69 97 72 96 73 95 C 75 95 76 94 78 93 C 79 91 80 91 80 91 C 82 91 91 82 93 78 C 93 77 94 75 96 74 C 96 72 97 70 98 59 C 99 49 91 35 82 31 C 77 28 65 27 60 29 M 73 43 C 79 46 82 51 82 60 C 83 69 81 76 74 84 C 70 88 69 88 58 87 C 46 86 45 85 45 68 C 45 45 47 41 64 42 C 69 42 71 42 73 43 z" fill="black" /><!-- width=109 height=147 -->
<path id="gl13826" d="M 52 9 C 48 10 36 16 32 20 C 30 22 26 27 25 31 C 19 51 26 69 43 76 C 50 79 72 79 76 75 C 79 73 78 68 75 66 C 72 66 71 66 64 67 C 55 69 48 66 43 60 C 31 43 39 19 55 19 C 62 19 64 21 69 27 C 74 34 79 31 79 19 C 79 11 75 9 63 9 C 58 9 54 9 52 9 z" fill="black" /><!-- width=90 height=90 -->
<path id="gl23816" d="M 15 10 C 9 12 9 13 9 16 C 9 18 9 18 12 20 C 16 23 16 21 16 61 C 16 102 16 100 12 103 C 10 105 9 106 9 108 C 9 112 26 114 32 111 C 36 109 36 108 33 104 C 29 99 29 100 29 69 C 29 54 30 36 30 30 C 30 15 30 14 29 12 C 27 9 23 8 15 10 z" fill="black" /><!-- width=45 height=124 -->
<path id="gl23817" d="M 29 5 C 17 8 12 12 12 18 C 12 24 13 25 17 24 C 20 24 21 23 22 21 C 25 13 32 11 41 16 C 47 19 49 25 46 31 C 45 32 45 33 43 34 C 45 36 45 36 46 37 C 49 41 50 48 47 54 C 46 55 45 57 45 58 C 43 62 43 64 45 66 C 46 66 49 68 50 70 C 54 73 55 73 61 72 C 67 70 67 68 64 63 C 61 58 61 59 61 38 C 61 31 61 25 61 18 C 60 17 60 16 59 15 C 58 13 57 12 56 10 C 56 9 54 8 53 7 C 49 6 34 4 29 5 M 27 33 C 26 34 24 34 22 35 C 15 36 9 43 7 52 C 7 57 10 66 13 69 C 16 71 24 74 27 73 C 31 72 36 70 38 68 C 39 67 41 65 42 65 C 44 64 42 63 35 63 C 22 62 19 57 24 48 C 25 43 28 41 35 38 C 42 36 43 35 40 33 C 37 32 31 32 27 33 z" fill="black" /><!-- width=78 height=85 -->
<path id="gl23819" d="M 62 28 C 61 29 58 30 55 32 C 50 36 51 36 45 32 C 40 29 40 29 32 31 C 23 33 22 36 27 40 C 30 43 32 47 31 51 C 31 52 31 62 32 73 C 32 84 32 99 32 106 C 31 122 31 123 27 127 C 24 129 24 130 24 132 C 24 135 25 136 39 136 C 54 136 57 134 50 127 C 46 123 46 123 46 111 C 45 100 45 99 48 97 C 49 96 50 96 53 97 C 64 100 67 100 86 86 C 90 84 94 77 96 73 C 96 72 97 68 97 66 C 100 58 99 49 94 40 C 90 33 73 26 62 28 M 73 42 C 82 47 86 60 82 70 C 77 82 73 87 63 87 C 53 87 47 85 46 79 C 45 76 45 57 46 54 C 47 49 49 45 51 43 C 56 40 68 39 73 42 z" fill="black" /><!-- width=110 height=146 -->
<path id="gl23821" d="M 37 14 C 19 16 12 39 25 53 C 29 57 30 58 26 62 C 21 68 21 70 22 76 C 24 81 24 83 21 86 C 14 92 13 93 14 98 C 15 105 22 114 30 115 C 45 120 51 120 63 116 C 74 112 81 106 85 97 C 87 93 88 90 87 82 C 87 80 87 78 87 76 C 85 75 85 74 84 73 C 78 68 78 68 58 69 C 40 69 39 69 38 66 C 36 62 42 58 51 58 C 64 57 73 49 75 37 C 76 31 78 30 82 28 C 86 27 90 23 89 22 C 88 19 83 18 76 18 C 72 18 70 17 66 15 C 61 13 61 13 51 13 C 45 13 39 13 37 14 M 52 23 C 60 28 61 42 53 50 C 45 57 36 49 36 36 C 36 25 44 19 52 23 M 66 83 C 75 87 70 100 58 106 C 49 110 34 106 31 99 C 28 94 32 85 38 82 C 42 81 62 81 66 83 z" fill="black" /><!-- width=100 height=128 -->
<path id="gl23826" d="M 61 17 C 60 18 58 19 57 21 C 54 25 53 25 49 22 C 46 19 44 18 39 19 C 37 19 34 20 33 20 C 30 21 25 23 24 25 C 23 25 24 26 25 28 C 31 33 31 33 31 52 C 32 72 32 71 24 77 C 24 78 23 78 22 78 C 23 79 24 80 24 81 C 27 85 27 85 33 84 C 38 83 40 83 50 84 C 55 85 60 83 59 80 C 59 78 58 78 55 76 C 49 73 49 74 49 55 C 49 33 49 31 59 33 C 68 35 71 35 73 33 C 75 31 76 31 78 31 C 81 31 82 30 82 27 C 82 21 67 13 61 17 z" fill="black" /><!-- width=90 height=93 -->
<path id="gl23827" d="M 4 4 C 4 9 4 38 9 57 C 9 67 14 67 38 67 C 48 67 57 67 67 67 C 67 57 67 48 67 38 C 62 0 62 0 52 4 C 43 9 43 9 43 33 C 48 52 48 57 33 52 C 24 52 24 48 19 28 C 19 9 14 0 4 4 z" fill="black" /><!-- width=81 height=81 -->
<path id="gl23824" d="M 53 15 C 51 15 49 16 48 16 C 45 19 42 19 39 18 C 36 17 23 16 17 18 C 9 19 7 23 13 25 C 19 27 20 30 20 50 C 19 70 20 69 14 72 C 9 75 8 75 9 78 C 10 81 13 82 17 81 C 19 81 24 81 31 81 C 42 81 43 81 44 81 C 48 78 47 75 43 73 C 37 72 37 70 37 56 C 36 31 36 29 45 26 C 55 22 61 28 62 40 C 62 47 61 66 61 70 C 60 75 60 78 62 79 C 63 80 66 81 70 81 C 73 81 78 82 79 82 C 81 82 82 82 84 80 C 88 78 88 76 85 74 C 85 73 82 71 81 70 C 80 69 79 68 79 67 C 79 63 79 58 79 54 C 79 46 79 36 79 32 C 79 30 78 27 78 25 C 78 23 76 22 75 21 C 73 18 72 16 69 16 C 65 14 57 13 53 15 z" fill="black" /><!-- width=96 height=94 -->
<path id="gl23825" d="M 30 10 C 22 13 21 15 22 25 C 22 31 21 35 18 38 C 14 41 15 43 19 46 C 22 48 22 48 22 66 C 22 83 22 84 23 89 C 25 96 30 99 40 99 C 48 99 50 98 52 94 C 55 89 54 87 48 86 C 43 85 40 84 39 82 C 39 81 39 73 39 64 C 39 59 39 54 39 48 C 39 48 39 48 40 47 C 41 45 42 45 47 45 C 54 45 55 45 55 41 C 55 37 53 35 46 35 C 41 35 40 35 39 31 C 38 28 38 27 40 21 C 42 15 42 14 39 10 C 37 9 36 9 30 10 z" fill="black" /><!-- width=65 height=111 -->
<path id="gl13826" d="M 52 9 C 48 10 36 16 32 20 C 30 22 26 27 25 31 C 19 51 26 69 43 76 C 50 79 72 79 76 75 C 79 73 78 68 75 66 C 72 66 71 66 64 67 C 55 69 48 66 43 60 C 31 43 39 19 55 19 C 62 19 64 21 69 27 C 74 34 79 31 79 19 C 79 11 75 9 63 9 C 58 9 54 9 52 9 z" fill="black" /><!-- width=90 height=90 -->
<path id="gl1537" d="M 23 13 C 15 15 12 19 16 24 C 19 30 19 26 19 65 C 20 105 20 105 17 109 C 14 114 13 115 14 117 C 15 120 17 120 26 120 C 35 121 37 120 39 117 C 39 115 39 114 37 111 C 33 106 33 108 33 60 C 33 19 33 16 32 15 C 30 12 28 12 23 13 z" fill="black" /><!-- width=52 height=137 -->
<path id="gl23817" d="M 29 5 C 17 8 12 12 12 18 C 12 24 13 25 17 24 C 20 24 21 23 22 21 C 25 13 32 11 41 16 C 47 19 49 25 46 31 C 45 32 45 33 43 34 C 45 36 45 36 46 37 C 49 41 50 48 47 54 C 46 55 45 57 45 58 C 43 62 43 64 45 66 C 46 66 49 68 50 70 C 54 73 55 73 61 72 C 67 70 67 68 64 63 C 61 58 61 59 61 38 C 61 31 61 25 61 18 C 60 17 60 16 59 15 C 58 13 57 12 56 10 C 56 9 54 8 53 7 C 49 6 34 4 29 5 M 27 33 C 26 34 24 34 22 35 C 15 36 9 43 7 52 C 7 57 10 66 13 69 C 16 71 24 74 27 73 C 31 72 36 70 38 68 C 39 67 41 65 42 65 C 44 64 42 63 35 63 C 22 62 19 57 24 48 C 25 43 28 41 35 38 C 42 36 43 35 40 33 C 37 32 31 32 27 33 z" fill="black" /><!-- width=78 height=85 -->
<path id="gl23828" d="M 4 9 C 4 9 4 19 9 28 C 9 38 9 62 9 81 C 4 110 9 110 14 110 C 24 110 24 110 24 96 C 19 76 19 76 33 76 C 67 76 91 24 67 14 C 57 9 9 4 4 9 M 52 24 C 62 28 62 48 52 57 C 43 67 28 67 24 57 C 14 38 24 19 38 19 C 43 19 52 19 52 24 z" fill="black" /><!-- width=81 height=120 -->
<path id="gl23821" d="M 37 14 C 19 16 12 39 25 53 C 29 57 30 58 26 62 C 21 68 21 70 22 76 C 24 81 24 83 21 86 C 14 92 13 93 14 98 C 15 105 22 114 30 115 C 45 120 51 120 63 116 C 74 112 81 106 85 97 C 87 93 88 90 87 82 C 87 80 87 78 87 76 C 85 75 85 74 84 73 C 78 68 78 68 58 69 C 40 69 39 69 38 66 C 36 62 42 58 51 58 C 64 57 73 49 75 37 C 76 31 78 30 82 28 C 86 27 90 23 89 22 C 88 19 83 18 76 18 C 72 18 70 17 66 15 C 61 13 61 13 51 13 C 45 13 39 13 37 14 M 52 23 C 60 28 61 42 53 50 C 45 57 36 49 36 36 C 36 25 44 19 52 23 M 66 83 C 75 87 70 100 58 106 C 49 110 34 106 31 99 C 28 94 32 85 38 82 C 42 81 62 81 66 83 z" fill="black" /><!-- width=100 height=128 -->
<path id="gl23826" d="M 61 17 C 60 18 58 19 57 21 C 54 25 53 25 49 22 C 46 19 44 18 39 19 C 37 19 34 20 33 20 C 30 21 25 23 24 25 C 23 25 24 26 25 28 C 31 33 31 33 31 52 C 32 72 32 71 24 77 C 24 78 23 78 22 78 C 23 79 24 80 24 81 C 27 85 27 85 33 84 C 38 83 40 83 50 84 C 55 85 60 83 59 80 C 59 78 58 78 55 76 C 49 73 49 74 49 55 C 49 33 49 31 59 33 C 68 35 71 35 73 33 C 75 31 76 31 78 31 C 81 31 82 30 82 27 C 82 21 67 13 61 17 z" fill="black" /><!-- width=90 height=93 -->
<path id="gl23823" d="M 24 9 C 22 9 20 10 18 10 C 12 10 13 10 13 16 C 13 20 14 22 15 24 C 17 27 17 27 17 40 C 17 61 19 68 24 72 C 30 75 32 76 39 76 C 40 76 43 76 45 76 C 46 75 47 73 48 73 C 52 69 54 69 59 72 C 61 73 63 74 70 75 C 75 75 79 75 79 75 C 80 75 81 75 81 75 C 82 75 83 71 83 69 C 83 69 82 67 80 64 C 75 60 75 61 76 38 C 76 27 77 17 77 15 C 77 12 77 12 75 10 C 73 9 69 9 64 10 C 62 10 58 11 56 11 C 52 12 51 12 49 15 C 49 17 49 17 52 19 C 59 25 58 24 59 33 C 60 57 56 65 43 63 C 34 61 34 60 34 40 C 34 31 34 24 35 21 C 37 11 33 7 24 9 z" fill="black" /><!-- width=94 height=88 -->
<path id="gl23829" d="M 50 11 C 49 11 46 12 44 14 C 39 18 39 18 36 15 C 32 13 29 12 27 12 C 25 13 22 13 20 14 C 8 15 5 19 13 23 C 16 25 17 26 16 46 C 16 67 16 67 12 70 C 8 73 8 73 12 76 C 14 78 15 79 16 78 C 18 78 23 78 29 78 C 33 78 36 78 40 78 C 40 77 41 76 42 76 C 44 73 44 72 41 71 C 35 69 34 68 34 46 C 35 27 35 27 39 25 C 40 25 42 24 42 24 C 45 21 57 24 59 29 C 59 30 59 60 58 67 C 58 76 60 78 72 78 C 78 78 81 78 82 74 C 84 72 83 70 78 66 C 78 64 77 64 76 63 C 76 57 76 51 76 45 C 76 27 75 21 72 16 C 72 15 63 12 60 11 C 55 10 52 10 50 11 z" fill="black" /><!-- width=91 height=87 -->
<path id="gl23825" d="M 30 10 C 22 13 21 15 22 25 C 22 31 21 35 18 38 C 14 41 15 43 19 46 C 22 48 22 48 22 66 C 22 83 22 84 23 89 C 25 96 30 99 40 99 C 48 99 50 98 52 94 C 55 89 54 87 48 86 C 43 85 40 84 39 82 C 39 81 39 73 39 64 C 39 59 39 54 39 48 C 39 48 39 48 40 47 C 41 45 42 45 47 45 C 54 45 55 45 55 41 C 55 37 53 35 46 35 C 41 35 40 35 39 31 C 38 28 38 27 40 21 C 42 15 42 14 39 10 C 37 9 36 9 30 10 z" fill="black" /><!-- width=65 height=111 -->
<path id="gl13826" d="M 52 9 C 48 10 36 16 32 20 C 30 22 26 27 25 31 C 19 51 26 69 43 76 C 50 79 72 79 76 75 C 79 73 78 68 75 66 C 72 66 71 66 64 67 C 55 69 48 66 43 60 C 31 43 39 19 55 19 C 62 19 64 21 69 27 C 74 34 79 31 79 19 C 79 11 75 9 63 9 C 58 9 54 9 52 9 z" fill="black" /><!-- width=90 height=90 -->
<path id="gl23816" d="M 15 10 C 9 12 9 13 9 16 C 9 18 9 18 12 20 C 16 23 16 21 16 61 C 16 102 16 100 12 103 C 10 105 9 106 9 108 C 9 112 26 114 32 111 C 36 109 36 108 33 104 C 29 99 29 100 29 69 C 29 54 30 36 30 30 C 30 15 30 14 29 12 C 27 9 23 8 15 10 z" fill="black" /><!-- width=45 height=124 -->
<path id="gl23820" d="M 24 7 C 16 10 13 12 12 16 C 10 20 11 21 15 24 C 19 26 20 25 27 17 C 28 15 28 15 31 15 C 44 15 51 24 45 31 C 43 34 43 36 46 39 C 48 41 48 42 48 45 C 48 51 45 59 42 61 C 40 63 40 66 42 66 C 42 66 43 66 44 66 C 44 67 46 68 47 69 C 48 69 49 70 50 71 C 53 74 56 75 61 73 C 63 73 64 72 66 72 C 66 71 66 70 66 69 C 65 68 64 66 64 65 C 61 61 60 60 60 40 C 60 20 60 18 57 12 C 53 7 49 6 38 6 C 29 6 29 6 24 7 M 27 34 C 13 37 8 43 8 57 C 8 66 11 71 19 74 C 27 76 33 75 37 69 C 40 66 39 64 31 64 C 18 63 18 48 32 41 C 34 40 37 38 37 37 C 39 37 40 36 40 36 C 41 36 42 36 41 36 C 40 36 40 35 40 34 C 41 33 34 33 27 34 z" fill="black" /><!-- width=78 height=87 -->
<path id="gl23819" d="M 62 28 C 61 29 58 30 55 32 C 50 36 51 36 45 32 C 40 29 40 29 32 31 C 23 33 22 36 27 40 C 30 43 32 47 31 51 C 31 52 31 62 32 73 C 32 84 32 99 32 106 C 31 122 31 123 27 127 C 24 129 24 130 24 132 C 24 135 25 136 39 136 C 54 136 57 134 50 127 C 46 123 46 123 46 111 C 45 100 45 99 48 97 C 49 96 50 96 53 97 C 64 100 67 100 86 86 C 90 84 94 77 96 73 C 96 72 97 68 97 66 C 100 58 99 49 94 40 C 90 33 73 26 62 28 M 73 42 C 82 47 86 60 82 70 C 77 82 73 87 63 87 C 53 87 47 85 46 79 C 45 76 45 57 46 54 C 47 49 49 45 51 43 C 56 40 68 39 73 42 z" fill="black" /><!-- width=110 height=146 -->
<path id="gl23821" d="M 37 14 C 19 16 12 39 25 53 C 29 57 30 58 26 62 C 21 68 21 70 22 76 C 24 81 24 83 21 86 C 14 92 13 93 14 98 C 15 105 22 114 30 115 C 45 120 51 120 63 116 C 74 112 81 106 85 97 C 87 93 88 90 87 82 C 87 80 87 78 87 76 C 85 75 85 74 84 73 C 78 68 78 68 58 69 C 40 69 39 69 38 66 C 36 62 42 58 51 58 C 64 57 73 49 75 37 C 76 31 78 30 82 28 C 86 27 90 23 89 22 C 88 19 83 18 76 18 C 72 18 70 17 66 15 C 61 13 61 13 51 13 C 45 13 39 13 37 14 M 52 23 C 60 28 61 42 53 50 C 45 57 36 49 36 36 C 36 25 44 19 52 23 M 66 83 C 75 87 70 100 58 106 C 49 110 34 106 31 99 C 28 94 32 85 38 82 C 42 81 62 81 66 83 z" fill="black" /><!-- width=100 height=128 -->
<path id="gl23826" d="M 61 17 C 60 18 58 19 57 21 C 54 25 53 25 49 22 C 46 19 44 18 39 19 C 37 19 34 20 33 20 C 30 21 25 23 24 25 C 23 25 24 26 25 28 C 31 33 31 33 31 52 C 32 72 32 71 24 77 C 24 78 23 78 22 78 C 23 79 24 80 24 81 C 27 85 27 85 33 84 C 38 83 40 83 50 84 C 55 85 60 83 59 80 C 59 78 58 78 55 76 C 49 73 49 74 49 55 C 49 33 49 31 59 33 C 68 35 71 35 73 33 C 75 31 76 31 78 31 C 81 31 82 30 82 27 C 82 21 67 13 61 17 z" fill="black" /><!-- width=90 height=93 -->
<path id="gl23823" d="M 24 9 C 22 9 20 10 18 10 C 12 10 13 10 13 16 C 13 20 14 22 15 24 C 17 27 17 27 17 40 C 17 61 19 68 24 72 C 30 75 32 76 39 76 C 40 76 43 76 45 76 C 46 75 47 73 48 73 C 52 69 54 69 59 72 C 61 73 63 74 70 75 C 75 75 79 75 79 75 C 80 75 81 75 81 75 C 82 75 83 71 83 69 C 83 69 82 67 80 64 C 75 60 75 61 76 38 C 76 27 77 17 77 15 C 77 12 77 12 75 10 C 73 9 69 9 64 10 C 62 10 58 11 56 11 C 52 12 51 12 49 15 C 49 17 49 17 52 19 C 59 25 58 24 59 33 C 60 57 56 65 43 63 C 34 61 34 60 34 40 C 34 31 34 24 35 21 C 37 11 33 7 24 9 z" fill="black" /><!-- width=94 height=88 -->
<path id="gl23829" d="M 50 11 C 49 11 46 12 44 14 C 39 18 39 18 36 15 C 32 13 29 12 27 12 C 25 13 22 13 20 14 C 8 15 5 19 13 23 C 16 25 17 26 16 46 C 16 67 16 67 12 70 C 8 73 8 73 12 76 C 14 78 15 79 16 78 C 18 78 23 78 29 78 C 33 78 36 78 40 78 C 40 77 41 76 42 76 C 44 73 44 72 41 71 C 35 69 34 68 34 46 C 35 27 35 27 39 25 C 40 25 42 24 42 24 C 45 21 57 24 59 29 C 59 30 59 60 58 67 C 58 76 60 78 72 78 C 78 78 81 78 82 74 C 84 72 83 70 78 66 C 78 64 77 64 76 63 C 76 57 76 51 76 45 C 76 27 75 21 72 16 C 72 15 63 12 60 11 C 55 10 52 10 50 11 z" fill="black" /><!-- width=91 height=87 -->
<path id="gl23825" d="M 30 10 C 22 13 21 15 22 25 C 22 31 21 35 18 38 C 14 41 15 43 19 46 C 22 48 22 48 22 66 C 22 83 22 84 23 89 C 25 96 30 99 40 99 C 48 99 50 98 52 94 C 55 89 54 87 48 86 C 43 85 40 84 39 82 C 39 81 39 73 39 64 C 39 59 39 54 39 48 C 39 48 39 48 40 47 C 41 45 42 45 47 45 C 54 45 55 45 55 41 C 55 37 53 35 46 35 C 41 35 40 35 39 31 C 38 28 38 27 40 21 C 42 15 42 14 39 10 C 37 9 36 9 30 10 z" fill="black" /><!-- width=65 height=111 -->
<path id="gl13826" d="M 52 9 C 48 10 36 16 32 20 C 30 22 26 27 25 31 C 19 51 26 69 43 76 C 50 79 72 79 76 75 C 79 73 78 68 75 66 C 72 66 71 66 64 67 C 55 69 48 66 43 60 C 31 43 39 19 55 19 C 62 19 64 21 69 27 C 74 34 79 31 79 19 C 79 11 75 9 63 9 C 58 9 54 9 52 9 z" fill="black" /><!-- width=90 height=90 -->
<path id="gl1537" d="M 23 13 C 15 15 12 19 16 24 C 19 30 19 26 19 65 C 20 105 20 105 17 109 C 14 114 13 115 14 117 C 15 120 17 120 26 120 C 35 121 37 120 39 117 C 39 115 39 114 37 111 C 33 106 33 108 33 60 C 33 19 33 16 32 15 C 30 12 28 12 23 13 z" fill="black" /><!-- width=52 height=137 -->
<path id="gl5397" d="M 27 6 C 18 7 13 11 12 15 C 11 22 21 24 27 18 C 34 12 50 16 51 24 C 52 29 49 31 41 30 C 34 30 30 31 24 34 C 18 37 13 40 13 42 C 13 42 12 44 11 47 C 8 53 8 57 11 64 C 15 72 21 75 34 75 C 39 76 39 75 42 73 C 48 70 52 69 59 72 C 64 75 68 75 71 72 C 72 72 73 70 73 70 C 73 69 72 65 70 63 C 67 60 66 58 67 49 C 67 37 66 23 64 19 C 63 15 58 10 55 9 C 54 9 52 8 50 7 C 46 6 35 5 27 6 M 51 37 C 55 40 55 43 54 50 C 51 61 48 64 37 64 C 28 65 24 63 24 55 C 24 47 27 42 35 40 C 37 39 41 37 42 37 C 46 34 48 34 51 37 z" fill="black" /><!-- width=85 height=87 -->
<path id="gl23819" d="M 62 28 C 61 29 58 30 55 32 C 50 36 51 36 45 32 C 40 29 40 29 32 31 C 23 33 22 36 27 40 C 30 43 32 47 31 51 C 31 52 31 62 32 73 C 32 84 32 99 32 106 C 31 122 31 123 27 127 C 24 129 24 130 24 132 C 24 135 25 136 39 136 C 54 136 57 134 50 127 C 46 123 46 123 46 111 C 45 100 45 99 48 97 C 49 96 50 96 53 97 C 64 100 67 100 86 86 C 90 84 94 77 96 73 C 96 72 97 68 97 66 C 100 58 99 49 94 40 C 90 33 73 26 62 28 M 73 42 C 82 47 86 60 82 70 C 77 82 73 87 63 87 C 53 87 47 85 46 79 C 45 76 45 57 46 54 C 47 49 49 45 51 43 C 56 40 68 39 73 42 z" fill="black" /><!-- width=110 height=146 -->
<path id="gl23830" d="M 14 9 C 4 14 4 33 9 33 C 14 33 19 33 19 28 C 19 24 24 19 33 24 C 52 24 48 48 28 72 C 14 86 9 96 9 100 C 9 105 62 105 67 100 C 76 96 62 86 48 91 C 24 96 24 91 43 72 C 76 33 57 -5 14 9 z" fill="black" /><!-- width=76 height=115 -->
<path id="gl23831" d="M 14 9 C 0 19 4 28 19 19 C 33 14 48 19 43 28 C 43 33 38 38 33 43 C 19 48 19 57 33 57 C 48 57 52 67 48 81 C 38 100 14 96 9 76 C 9 72 9 72 4 81 C 0 96 4 100 24 100 C 57 100 76 67 57 48 C 52 48 52 43 52 38 C 67 24 57 4 33 4 C 24 4 14 4 14 9 z" fill="black" /><!-- width=76 height=110 -->
<path id="gl23832" d="M 24 28 C 0 72 0 72 19 72 C 43 72 48 81 33 91 C 28 100 38 100 52 96 C 62 96 62 96 62 96 C 52 91 52 72 62 72 C 67 72 67 72 67 72 C 67 67 67 62 62 62 C 57 62 52 57 52 33 C 52 0 48 0 24 28 M 38 48 C 38 62 38 62 33 62 C 19 62 19 57 28 38 C 38 24 38 24 38 48 z" fill="black" /><!-- width=76 height=110 -->
<path id="gl24064" d="M 4814 91 C 4814 124 4814 153 4814 182 C 4766 182 4723 182 4680 182 C 4526 182 4531 187 4560 148 C 4574 124 4574 124 4550 96 C 4540 81 4526 67 4516 57 C 4502 38 4497 43 4507 67 C 4526 91 4521 110 4502 144 C 4492 158 4488 172 4488 177 C 4488 182 4483 182 4363 182 C 4243 182 4243 182 4243 172 C 4243 163 4219 139 4204 139 C 4185 139 4152 158 4142 172 C 4142 177 4142 182 4137 182 C 4084 182 4036 182 3984 182 C 3806 182 3811 187 3844 148 C 3849 139 3859 134 3864 124 C 3854 115 3844 105 3835 96 C 3796 48 3792 43 3787 48 C 3787 48 3787 57 3792 67 C 3811 91 3806 110 3787 139 C 3777 153 3768 172 3768 177 C 3768 182 3763 182 3633 182 C 3585 182 3542 182 3494 182 C 3494 182 3494 177 3494 172 C 3494 134 3436 129 3408 168 C 3403 172 3398 177 3393 182 C 3364 182 3331 182 3302 182 C 3268 182 3240 182 3206 182 C 3206 153 3206 124 3206 96 C 3206 38 3206 9 3206 9 C 3201 9 3196 38 3196 96 C 3196 124 3196 153 3196 182 C 3168 182 3134 182 3100 182 C 3048 182 3000 182 3000 182 C 3000 177 3024 139 3033 134 C 3038 129 3033 115 3000 81 C 2966 43 2947 33 2966 62 C 2990 91 2985 115 2956 153 C 2952 163 2947 172 2947 177 C 2952 182 2937 182 2817 182 C 2769 182 2726 182 2683 182 C 2678 177 2678 172 2678 168 C 2668 134 2625 134 2592 168 C 2587 172 2582 177 2577 182 C 2529 182 2481 182 2438 182 C 2390 182 2342 182 2294 182 C 2294 182 2294 177 2294 172 C 2294 134 2241 134 2208 168 C 2203 177 2198 182 2193 187 C 2145 187 2097 187 2049 187 C 2001 187 1953 187 1905 187 C 1905 182 1905 177 1900 172 C 1891 134 1833 139 1804 177 C 1804 177 1800 182 1800 187 C 1761 187 1723 187 1684 187 C 1646 187 1612 187 1574 187 C 1574 158 1574 124 1569 96 C 1569 -5 1564 -5 1564 105 C 1564 134 1564 158 1564 187 C 1521 187 1483 187 1440 187 C 1300 192 1305 192 1334 153 C 1353 124 1358 129 1320 91 C 1300 72 1291 57 1291 52 C 1291 52 1286 52 1281 52 C 1276 52 1276 57 1286 72 C 1300 96 1300 100 1296 115 C 1286 134 1272 158 1262 168 C 1262 168 1262 172 1262 177 C 1262 182 1262 187 1267 192 C 1224 187 1185 187 1142 187 C 1104 187 1065 187 1022 187 C 1022 182 1022 177 1017 172 C 1012 139 969 134 936 168 C 926 177 921 182 912 187 C 873 187 835 187 792 187 C 753 187 715 187 672 187 C 672 182 667 177 667 172 C 652 134 609 134 576 172 C 561 187 561 187 523 187 C 504 187 446 187 393 187 C 360 187 331 187 297 182 C 297 177 292 172 292 168 C 283 134 240 134 206 168 C 201 172 196 177 187 182 C 158 182 124 182 96 182 C 43 182 0 187 4 187 C 4 187 48 187 96 192 C 129 192 158 192 192 192 C 192 244 192 297 192 350 C 192 465 192 508 196 508 C 196 508 201 460 196 369 C 196 297 196 235 201 235 C 201 230 211 235 220 235 C 240 240 268 230 283 211 C 283 206 288 201 292 192 C 336 192 379 192 427 192 C 532 192 556 196 561 201 C 561 206 561 278 561 360 C 566 446 566 513 566 513 C 566 518 571 451 571 374 C 571 326 571 278 571 230 C 571 235 576 235 580 235 C 585 235 590 240 595 240 C 619 240 628 235 648 216 C 657 206 662 201 672 192 C 710 196 748 196 792 196 C 830 196 873 196 912 196 C 912 249 912 302 912 355 C 912 451 916 508 921 508 C 921 508 921 460 921 374 C 921 297 926 230 926 230 C 926 230 936 235 940 240 C 960 244 993 230 1008 211 C 1012 206 1017 201 1022 192 C 1065 192 1104 192 1147 192 C 1190 192 1233 192 1272 192 C 1281 201 1286 211 1291 216 C 1315 244 1315 249 1300 244 C 1252 235 1238 278 1281 316 C 1305 340 1315 340 1300 316 C 1276 288 1291 264 1324 268 C 1348 273 1348 264 1329 244 C 1315 225 1305 206 1310 196 C 1315 196 1372 196 1440 196 C 1483 196 1521 196 1564 196 C 1564 225 1564 259 1569 288 C 1569 316 1569 350 1569 379 C 1569 350 1569 316 1569 288 C 1569 254 1569 225 1574 192 C 1608 192 1646 192 1684 192 C 1723 192 1761 192 1800 192 C 1800 249 1800 302 1800 350 C 1800 460 1800 508 1804 508 C 1804 508 1809 465 1804 374 C 1804 326 1804 283 1804 235 C 1814 235 1819 235 1828 235 C 1852 240 1881 225 1891 206 C 1896 201 1896 196 1900 192 C 1948 192 1996 192 2044 192 C 2092 192 2140 192 2188 192 C 2188 249 2188 302 2188 350 C 2188 456 2193 508 2193 508 C 2198 508 2203 460 2203 369 C 2203 230 2203 225 2208 230 C 2232 244 2270 230 2284 206 C 2289 201 2289 196 2294 192 C 2342 192 2385 192 2433 192 C 2481 192 2529 192 2572 192 C 2577 249 2577 302 2577 355 C 2577 408 2577 460 2577 513 C 2577 465 2577 422 2577 379 C 2582 235 2582 220 2592 230 C 2606 244 2649 235 2664 211 C 2668 206 2673 201 2678 192 C 2726 192 2774 192 2822 192 C 2870 192 2918 192 2961 192 C 2971 201 2976 211 2980 216 C 2985 225 2990 230 2995 240 C 2990 240 2980 240 2976 244 C 2932 249 2928 278 2961 312 C 2990 336 3000 340 2985 316 C 2961 283 2971 264 3009 264 C 3033 264 3033 264 3014 240 C 3004 230 3000 216 3000 206 C 3000 201 3000 196 3000 192 C 3033 192 3062 192 3100 192 C 3134 192 3163 192 3196 192 C 3196 225 3196 254 3196 283 C 3196 340 3201 369 3206 369 C 3206 369 3206 331 3206 278 C 3206 249 3206 220 3206 192 C 3240 192 3268 192 3297 192 C 3331 192 3360 187 3388 187 C 3388 240 3388 292 3388 345 C 3388 446 3393 508 3398 508 C 3398 508 3398 465 3398 369 C 3398 321 3398 273 3398 230 C 3408 230 3412 230 3417 235 C 3436 240 3465 230 3484 206 C 3489 201 3494 196 3499 187 C 3547 187 3595 192 3638 192 C 3744 192 3782 192 3787 196 C 3792 196 3796 211 3806 220 C 3811 230 3820 235 3825 244 C 3816 244 3811 244 3801 244 C 3753 244 3748 283 3792 316 C 3816 331 3816 331 3801 307 C 3787 278 3796 264 3825 264 C 3854 264 3864 259 3849 254 C 3835 244 3816 206 3820 196 C 3820 192 3835 187 3979 192 C 4027 192 4080 192 4132 192 C 4132 244 4132 297 4137 350 C 4137 441 4137 513 4137 508 C 4137 508 4142 446 4142 374 C 4142 225 4142 225 4156 235 C 4171 244 4200 235 4224 211 C 4228 206 4238 196 4243 192 C 4286 192 4324 192 4368 192 C 4435 192 4492 192 4497 192 C 4502 196 4536 235 4536 240 C 4536 240 4526 244 4516 244 C 4464 244 4468 297 4521 326 C 4536 336 4536 331 4521 312 C 4502 283 4512 264 4550 264 C 4569 264 4579 259 4564 254 C 4555 249 4536 211 4536 201 C 4536 196 4536 192 4536 187 C 4579 187 4627 187 4670 187 C 4718 187 4766 187 4814 187 C 4814 220 4814 249 4814 283 C 4814 331 4814 374 4814 369 C 4814 369 4819 326 4819 278 C 4819 249 4819 220 4819 192 C 4872 192 4924 192 4977 192 C 5030 192 5083 192 5136 187 C 5140 196 5145 201 5150 206 C 5179 244 5275 240 5289 201 C 5294 196 5294 192 5294 192 C 5332 187 5366 187 5404 187 C 5438 187 5476 187 5510 187 C 5476 187 5438 187 5404 187 C 5366 187 5332 187 5299 182 C 5294 182 5289 177 5289 172 C 5265 129 5169 129 5145 172 C 5140 177 5140 182 5136 187 C 5083 182 5030 182 4977 182 C 4924 182 4872 182 4819 182 C 4819 153 4819 120 4814 91 C 4814 62 4814 28 4814 0 C 4814 28 4814 62 4814 91 M 5236 158 C 5251 177 5251 182 5227 182 C 5198 187 5184 182 5184 172 C 5184 144 5217 139 5236 158 M 5251 206 C 5246 230 5217 235 5203 216 C 5184 192 5188 187 5222 192 C 5251 192 5251 192 5251 206 z" fill="black" /><!-- width=5524 height=528 -->
</defs>
<use xlink:href="#gl13826" x="92" y="670" />
<use xlink:href="#gl23816" x="172" y="634" />
<use xlink:href="#gl23817" x="210" y="674" />
<use xlink:href="#gl23818" x="265" y="650" />
<use xlink:href="#gl13826" x="463" y="672" />
<use xlink:href="#gl23816" x="543" y="637" />
<use xlink:href="#gl5397" x="578" y="676" />
<use xlink:href="#gl23819" x="636" y="653" />
<use xlink:href="#gl13826" x="817" y="673" />
<use xlink:href="#gl1537" x="893" y="631" />
<use xlink:href="#gl23820" x="936" y="676" />
<use xlink:href="#gl23819" x="989" y="653" />
<use xlink:href="#gl23821" x="1112" y="669" />
<use xlink:href="#gl23822" x="1200" y="677" />
<use xlink:href="#gl23823" x="1252" y="674" />
<use xlink:href="#gl23824" x="1335" y="668" />
<use xlink:href="#gl23825" x="1417" y="651" />
<use xlink:href="#gl13826" x="1701" y="672" />
<use xlink:href="#gl1537" x="1776" y="630" />
<use xlink:href="#gl23817" x="1819" y="676" />
<use xlink:href="#gl23819" x="1872" y="651" />
<use xlink:href="#gl13826" x="2094" y="671" />
<use xlink:href="#gl23816" x="2174" y="635" />
<use xlink:href="#gl23820" x="2213" y="674" />
<use xlink:href="#gl23818" x="2266" y="650" />
<use xlink:href="#gl13826" x="2475" y="671" />
<use xlink:href="#gl23816" x="2556" y="635" />
<use xlink:href="#gl23817" x="2595" y="674" />
<use xlink:href="#gl23819" x="2647" y="650" />
<use xlink:href="#gl23821" x="2796" y="666" />
<use xlink:href="#gl23826" x="2868" y="662" />
<use xlink:href="#gl23827" x="2947" y="677" />
<use xlink:href="#gl23824" x="3019" y="664" />
<use xlink:href="#gl23825" x="3100" y="649" />
<use xlink:href="#gl13826" x="3295" y="668" />
<use xlink:href="#gl1537" x="3371" y="627" />
<use xlink:href="#gl23817" x="3413" y="673" />
<use xlink:href="#gl23828" x="3490" y="672" />
<use xlink:href="#gl23821" x="3620" y="664" />
<use xlink:href="#gl23826" x="3692" y="660" />
<use xlink:href="#gl23823" x="3759" y="670" />
<use xlink:href="#gl23829" x="3845" y="667" />
<use xlink:href="#gl23825" x="3924" y="647" />
<use xlink:href="#gl13826" x="4038" y="669" />
<use xlink:href="#gl23816" x="4116" y="632" />
<use xlink:href="#gl23820" x="4155" y="672" />
<use xlink:href="#gl23819" x="4208" y="649" />
<use xlink:href="#gl23821" x="4335" y="664" />
<use xlink:href="#gl23826" x="4406" y="661" />
<use xlink:href="#gl23823" x="4474" y="669" />
<use xlink:href="#gl23829" x="4559" y="666" />
<use xlink:href="#gl23825" x="4638" y="646" />
<use xlink:href="#gl13826" x="5010" y="667" />
<use xlink:href="#gl1537" x="5086" y="625" />
<use xlink:href="#gl5397" x="5125" y="670" />
<use xlink:href="#gl23819" x="5182" y="648" />
<use xlink:href="#gl23830" x="5362" y="639" />
<use xlink:href="#gl23831" x="5482" y="643" />
<use xlink:href="#gl23832" x="5611" y="643" />
<use xlink:href="#gl24064" x="0" y="0" />
</svg>