<?xml version="1.0" standalone="no"?>
<!DOCTYPE svg PUBLIC "-//W3C/DTD SVG 1.1//EN" "http://www.w3.org/Graphics/SVG/1.1/DTD/svg11.dtd">
<svg width="421px" height="141px" viewBox="0 0 4214 1415" xmlns="http://www.w3.org/2000/svg" xmlns:xlink="http://www.w3.org/1999/xlink" version="1.1">
<defs>
<path id="gl16900" d="M 52 9 C 33 14 9 76 9 115 C 9 115 14 120 24 120 C 28 120 33 115 33 115 C 28 105 52 57 62 52 C 76 48 86 62 86 91 C 86 115 91 124 105 115 C 110 110 96 57 86 33 C 76 4 72 4 52 9 z" fill="black" /><!-- width=115 height=124 -->
<path id="gl16901" d="M 19 33 C 19 62 19 67 14 72 C 4 76 4 105 14 110 C 19 115 19 115 14 120 C 9 120 14 120 24 120 C 38 120 38 120 38 110 C 33 105 38 96 38 96 C 43 96 43 91 43 76 C 43 67 43 62 43 62 C 38 62 33 48 33 33 C 33 -5 19 0 19 33 z" fill="black" /><!-- width=52 height=129 -->
<path id="gl16902" d="M 9 33 C 9 48 9 67 4 67 C 0 72 0 110 9 110 C 9 110 14 115 9 120 C 9 129 9 129 19 129 C 24 129 24 129 24 115 C 24 105 28 96 33 96 C 38 91 38 86 38 72 C 38 62 38 57 33 57 C 28 57 24 48 24 28 C 24 9 24 4 19 4 C 14 4 9 9 9 33 z" fill="black" /><!-- width=48 height=139 -->
<path id="gl16903" d="M 14 14 C 4 28 4 72 9 72 C 9 72 14 81 19 86 C 19 100 24 100 38 100 C 48 100 48 100 48 96 C 38 76 38 72 57 72 C 67 72 72 76 76 86 C 76 96 81 100 86 100 C 91 100 91 100 91 86 C 86 76 86 72 110 72 C 124 72 129 72 129 67 C 129 62 129 57 110 62 C 91 62 91 62 91 52 C 96 38 110 19 124 19 C 129 19 134 19 129 14 C 129 4 124 4 105 4 C 86 4 76 14 72 48 C 67 57 62 62 52 62 C 38 62 38 48 48 24 C 62 0 62 4 38 4 C 19 4 14 4 14 14 z" fill="black" /><!-- width=139 height=110 -->
<path id="gl16904" d="M 9 19 C 9 28 14 38 14 48 C 19 52 14 57 14 57 C 9 57 9 62 9 67 C 9 72 9 72 14 72 C 19 72 24 81 24 86 C 24 96 28 100 33 100 C 38 100 43 100 38 86 C 38 81 38 76 33 72 C 43 72 52 76 62 76 C 72 76 81 76 96 76 C 96 67 96 52 96 38 C 96 28 96 14 96 4 C 76 4 62 4 48 4 C 33 4 19 4 4 4 C 4 9 9 14 9 19 M 57 24 C 72 28 86 48 86 57 C 86 57 76 57 62 57 C 33 57 33 57 28 48 C 19 19 28 9 57 24 z" fill="black" /><!-- width=100 height=110 -->
<path id="gl16905" d="M 9 52 C 9 67 9 86 4 100 C 9 100 14 100 19 100 C 28 100 33 100 33 91 C 33 86 33 76 38 76 C 38 72 38 67 38 62 C 33 62 28 48 28 38 C 28 28 24 19 19 9 C 14 9 9 4 9 0 C 9 19 9 33 9 52 z" fill="black" /><!-- width=48 height=110 -->
<path id="gl16906" d="M 9 4 C 0 9 4 9 14 24 C 33 38 57 48 67 43 C 72 38 67 33 57 28 C 48 28 38 19 33 14 C 24 4 14 4 9 4 z" fill="black" /><!-- width=76 height=52 -->
<path id="gl16907" d="M 14 19 C 0 33 0 67 9 72 C 14 76 19 72 14 67 C 9 57 14 48 24 48 C 28 48 28 38 28 24 C 28 0 28 0 14 19 z" fill="black" /><!-- width=38 height=81 -->
<path id="gl16908" d="M 57 14 C 57 28 57 28 43 24 C 14 19 0 28 0 52 C 0 72 4 72 19 72 C 38 72 38 81 24 91 C 14 96 9 96 9 100 C 9 105 43 105 48 100 C 52 96 57 96 62 100 C 67 110 72 100 72 52 C 72 19 72 4 67 4 C 62 0 57 4 57 14 M 52 52 C 52 62 48 62 33 62 C 9 67 0 57 19 48 C 43 38 57 38 52 52 z" fill="black" /><!-- width=81 height=110 -->
<path id="gl16909" d="M 187 4 C 72 4 4 9 4 9 C 4 14 72 19 187 19 C 249 19 307 19 369 19 C 369 24 369 24 369 28 C 374 52 417 67 436 52 C 446 43 446 43 393 43 C 379 43 379 43 374 24 C 374 19 374 9 374 4 C 312 4 249 4 187 4 z" fill="black" /><!-- width=456 height=67 -->
<path id="gl16910" d="M 4 38 C 4 52 4 76 4 86 C 9 105 19 110 19 86 C 19 86 19 76 19 72 C 33 72 48 72 62 72 C 91 72 100 72 96 67 C 96 62 86 62 57 62 C 48 62 33 67 24 67 C 24 57 19 52 19 48 C 19 24 19 19 38 28 C 48 28 52 28 72 24 C 105 9 100 4 52 4 C 38 4 24 4 9 4 C 9 14 4 24 4 38 z" fill="black" /><!-- width=105 height=110 -->
<path id="gl16911" d="M 48 4 C 0 9 0 19 52 19 C 86 19 96 14 96 9 C 96 4 91 4 91 4 C 91 4 72 4 48 4 z" fill="black" /><!-- width=100 height=28 -->
<path id="gl16912" d="M 24 19 C 14 33 9 43 9 52 C 9 62 9 76 9 76 C 4 81 4 91 4 100 C 9 120 19 124 19 105 C 19 91 24 86 33 86 C 43 86 43 86 43 48 C 43 0 43 0 24 19 z" fill="black" /><!-- width=52 height=124 -->
<path id="gl16913" d="M 0 43 C 0 57 0 72 0 86 C 14 86 28 86 38 86 C 57 86 76 86 76 86 C 76 81 67 81 57 81 C 43 81 43 72 52 67 C 62 57 72 28 67 14 C 62 4 57 0 33 0 C 24 0 14 0 0 0 C 0 14 0 28 0 43 z" fill="black" /><!-- width=81 height=100 -->
<path id="gl17152" d="M 1656 24 C 1588 38 1536 52 1435 76 C 1214 124 1171 139 1171 139 C 1166 139 1166 148 1161 158 C 1161 163 1156 168 1156 172 C 1099 172 1046 172 993 172 C 864 172 825 172 825 168 C 825 168 820 158 820 148 C 816 134 811 139 806 158 C 806 163 806 168 806 172 C 676 172 542 172 412 172 C 192 172 14 177 14 177 C 9 182 4 1344 9 1348 C 14 1353 4123 1358 4128 1353 C 4128 1353 4132 1272 4132 1176 C 4132 1118 4132 1060 4132 1003 C 4123 1003 4108 1003 4099 998 C 4080 998 3331 998 2433 998 C 1531 993 796 993 796 993 C 792 993 796 984 801 979 C 820 955 820 940 806 926 C 777 892 715 931 715 984 C 715 988 715 993 715 993 C 676 993 638 993 600 993 C 561 993 523 993 484 993 C 484 988 484 984 484 974 C 484 955 484 955 480 955 C 475 960 475 964 475 979 C 475 998 456 1003 456 984 C 451 964 446 964 441 979 C 441 984 436 988 436 998 C 369 993 297 993 230 993 C 158 993 91 993 19 993 C 19 931 19 864 19 796 C 19 691 19 590 19 571 C 24 556 24 547 24 532 C 38 532 52 532 67 532 C 91 532 144 532 187 532 C 211 532 235 537 259 537 C 264 552 264 566 268 576 C 278 628 273 643 249 657 C 220 676 201 672 220 648 C 259 614 211 561 172 595 C 124 638 196 705 254 667 C 283 648 288 633 278 585 C 268 523 244 532 508 532 C 638 532 739 537 739 537 C 744 537 739 547 734 552 C 720 566 715 585 720 600 C 744 643 816 609 816 556 C 816 552 816 542 816 537 C 830 537 844 532 859 532 C 916 532 1795 528 1819 532 C 1833 537 1833 537 1838 552 C 1838 571 1838 571 1862 576 C 2059 628 2174 657 2227 672 C 2323 696 2342 700 2347 696 C 2347 696 2352 657 2352 614 C 2352 561 2356 537 2361 532 C 2361 532 2476 532 2616 532 C 2755 532 2908 532 2952 532 C 2980 532 3004 537 3033 537 C 3038 542 3038 547 3043 552 C 3057 585 3091 585 3124 552 C 3129 547 3134 542 3144 537 C 3177 537 3211 537 3244 537 C 3278 537 3312 537 3345 537 C 3340 537 3336 542 3336 547 C 3312 580 3312 604 3340 619 C 3374 628 3412 600 3417 556 C 3417 552 3422 542 3422 537 C 3537 532 3657 532 3777 532 C 3897 532 4012 532 4132 532 C 4132 475 4132 412 4132 355 C 4132 292 4132 235 4137 177 C 4070 172 4003 172 3940 172 C 3873 172 3811 172 3744 172 C 3744 168 3744 158 3744 153 C 3744 144 3739 134 3734 134 C 3734 134 3729 144 3729 153 C 3729 158 3729 168 3729 172 C 3576 172 3427 172 3273 172 C 3120 172 2971 172 2817 172 C 2788 168 2760 163 2736 153 C 2644 134 2644 134 2644 163 C 2644 168 2644 172 2644 177 C 2496 177 2347 177 2198 177 C 1795 177 1752 172 1747 168 C 1747 163 1747 124 1747 81 C 1747 0 1756 0 1656 24 M 1732 120 C 1732 134 1732 153 1732 172 C 1704 172 1675 172 1641 172 C 1612 172 1584 172 1555 172 C 1555 158 1555 148 1555 134 C 1555 120 1555 110 1555 96 C 1564 96 1574 91 1584 91 C 1598 86 1636 76 1670 72 C 1704 62 1728 57 1732 57 C 1732 62 1732 86 1732 120 M 1545 134 C 1545 177 1550 177 1440 172 C 1416 172 1387 172 1363 172 C 1363 168 1363 163 1363 158 C 1358 144 1363 139 1372 139 C 1377 139 1411 129 1449 120 C 1545 96 1545 96 1545 134 M 1348 158 C 1353 168 1339 177 1296 177 C 1243 177 1243 168 1291 158 C 1344 144 1344 144 1348 158 M 196 216 C 206 259 206 259 120 259 C 19 264 24 264 24 220 C 24 206 24 196 24 182 C 48 187 76 187 105 187 C 134 187 163 187 192 187 C 192 196 196 206 196 216 M 259 187 C 259 201 220 240 216 235 C 211 225 206 196 211 192 C 216 187 259 182 259 187 M 441 196 C 441 206 441 216 436 220 C 432 220 427 230 427 240 C 427 254 427 259 417 259 C 403 264 273 259 268 254 C 268 254 268 240 278 225 C 283 211 283 196 283 192 C 283 187 297 187 364 187 C 393 187 417 187 441 187 C 441 187 441 192 441 196 M 475 192 C 475 206 460 206 460 196 C 460 187 460 187 470 187 C 475 187 480 187 475 192 M 806 225 C 806 235 806 249 806 259 C 758 259 710 259 657 259 C 576 259 504 259 499 259 C 489 254 489 240 499 235 C 508 225 508 201 499 192 C 489 187 513 187 648 187 C 700 187 753 187 806 187 C 806 196 806 211 806 225 M 1161 220 C 1161 240 1161 254 1156 254 C 1152 259 1104 259 984 259 C 931 259 873 259 820 259 C 820 254 820 244 820 240 C 816 225 820 211 820 201 C 820 196 820 192 825 182 C 878 187 936 187 993 187 C 1046 187 1104 187 1161 187 C 1161 196 1161 206 1161 220 M 1348 216 C 1348 264 1353 264 1257 259 C 1233 259 1204 259 1176 259 C 1176 244 1176 235 1176 220 C 1176 211 1176 196 1171 182 C 1204 187 1233 187 1262 187 C 1291 187 1320 187 1348 187 C 1348 196 1348 206 1348 216 M 1540 216 C 1545 264 1545 264 1449 259 C 1420 259 1392 259 1363 259 C 1363 244 1363 235 1363 220 C 1363 211 1363 196 1358 182 C 1392 187 1420 187 1449 187 C 1478 187 1512 187 1540 187 C 1540 196 1540 206 1540 216 M 1737 220 C 1737 264 1742 264 1632 259 C 1608 259 1579 259 1555 259 C 1555 244 1555 235 1555 220 C 1555 211 1555 196 1550 187 C 1584 187 1612 187 1641 187 C 1675 187 1704 187 1737 187 C 1737 196 1737 206 1737 220 M 2644 225 C 2644 235 2644 249 2644 259 C 2524 259 2409 259 2294 259 C 2179 259 2064 259 1944 259 C 1944 259 1944 254 1944 249 C 1929 216 1886 211 1857 244 C 1848 249 1843 254 1838 259 C 1824 259 1809 259 1795 259 C 1756 259 1752 259 1747 254 C 1742 244 1742 192 1747 187 C 1752 187 1953 187 2198 187 C 2347 187 2496 187 2644 187 C 2644 196 2644 211 2644 225 M 3729 225 C 3729 235 3729 249 3729 259 C 3633 259 3532 259 3436 259 C 3336 259 3240 259 3144 264 C 3144 254 3144 249 3144 244 C 3144 216 3134 216 3129 240 C 3129 249 3129 254 3129 259 C 3086 259 3043 259 3004 259 C 2961 259 2918 259 2875 259 C 2875 249 2875 240 2875 230 C 2875 211 2875 196 2875 192 C 2875 187 2947 187 3302 187 C 3446 187 3585 187 3729 187 C 3729 201 3729 211 3729 225 M 4080 225 C 4080 235 4080 249 4080 259 C 4022 259 3969 259 3912 259 C 3854 259 3801 259 3744 259 C 3744 244 3744 235 3744 220 C 3744 211 3744 196 3739 182 C 3796 187 3854 187 3912 187 C 3964 187 4022 187 4080 187 C 4080 201 4080 211 4080 225 M 4123 225 C 4123 235 4123 249 4128 264 C 4118 264 4113 259 4108 259 C 4104 259 4099 259 4094 259 C 4094 249 4094 240 4094 230 C 4089 187 4094 182 4108 187 C 4123 187 4123 187 4123 225 M 2769 206 C 2798 216 2832 220 2860 225 C 2860 230 2860 235 2860 244 C 2860 249 2860 254 2860 259 C 2827 259 2793 259 2760 259 C 2721 259 2688 259 2654 259 C 2654 249 2654 235 2654 225 C 2654 206 2654 192 2654 192 C 2659 187 2688 192 2769 206 M 172 273 C 172 278 168 288 153 302 C 144 316 134 331 129 336 C 124 345 115 345 86 345 C 24 350 24 350 24 307 C 24 292 24 283 24 268 C 48 268 72 268 96 268 C 139 268 172 273 172 273 M 441 292 C 446 316 456 312 456 288 C 460 268 475 264 475 283 C 475 297 489 297 489 283 C 489 278 494 273 494 268 C 547 268 600 268 652 268 C 705 268 758 268 811 268 C 806 283 806 297 806 307 C 806 321 806 331 806 345 C 715 345 628 345 537 345 C 225 345 235 350 230 316 C 225 297 225 292 240 283 C 244 278 249 273 254 273 C 283 273 316 273 350 273 C 379 273 412 273 441 273 C 441 278 441 288 441 292 M 1161 283 C 1161 288 1161 307 1161 321 C 1161 326 1156 336 1156 345 C 1104 345 1046 345 993 345 C 864 345 825 345 820 340 C 816 336 816 297 820 283 C 820 278 825 273 825 268 C 878 268 936 268 993 268 C 1046 268 1104 268 1156 268 C 1161 273 1161 278 1161 283 M 1344 307 C 1344 321 1344 331 1344 345 C 1315 345 1286 345 1257 345 C 1233 345 1204 345 1176 345 C 1176 331 1176 321 1176 307 C 1176 297 1176 283 1171 268 C 1200 268 1228 268 1257 268 C 1291 268 1320 268 1348 268 C 1344 283 1344 297 1344 307 M 1540 283 C 1545 302 1540 312 1526 307 C 1502 307 1488 312 1468 331 C 1459 336 1454 340 1444 350 C 1430 345 1420 345 1406 345 C 1392 345 1377 345 1363 345 C 1363 336 1363 321 1363 312 C 1358 297 1358 278 1358 273 C 1363 273 1396 268 1449 268 C 1478 268 1507 268 1536 268 C 1540 273 1540 278 1540 283 M 1670 273 C 1670 278 1665 283 1656 288 C 1651 297 1646 307 1646 321 C 1646 331 1646 336 1646 345 C 1632 345 1617 345 1598 345 C 1584 345 1569 345 1555 345 C 1555 331 1555 321 1555 307 C 1555 297 1555 283 1550 268 C 1569 268 1588 268 1608 268 C 1641 268 1670 273 1670 273 M 1833 307 C 1833 321 1833 331 1833 345 C 1819 345 1800 345 1785 345 C 1723 350 1723 345 1732 326 C 1742 316 1747 302 1747 292 C 1747 273 1747 268 1795 268 C 1809 268 1824 268 1838 268 C 1833 283 1833 297 1833 307 M 2011 288 C 2006 292 1996 307 1996 316 C 1996 326 1992 340 1992 340 C 1992 350 1872 350 1857 345 C 1852 340 1852 336 1852 321 C 1852 307 1852 307 1862 312 C 1881 316 1910 302 1929 288 C 1939 273 1939 273 1982 273 C 1996 273 2011 273 2025 268 C 2020 278 2016 283 2011 288 M 2640 307 C 2640 321 2640 331 2640 345 C 2577 345 2515 345 2452 345 C 2390 345 2328 345 2270 350 C 2265 340 2265 336 2260 331 C 2246 297 2208 297 2179 331 C 2160 345 2160 350 2116 350 C 2073 350 2073 350 2088 326 C 2092 312 2097 302 2092 288 C 2092 283 2092 278 2092 268 C 2184 268 2275 268 2366 268 C 2457 268 2548 268 2644 268 C 2640 283 2640 297 2640 307 M 2860 307 C 2860 321 2860 331 2860 345 C 2827 345 2793 345 2764 345 C 2702 345 2664 345 2659 345 C 2654 340 2654 312 2654 273 C 2654 273 2702 268 2760 268 C 2793 268 2827 268 2865 268 C 2860 283 2860 297 2860 307 M 3129 307 C 3129 321 3129 331 3129 345 C 3086 345 3043 345 3004 345 C 2961 345 2918 345 2875 345 C 2875 336 2875 326 2875 316 C 2870 268 2860 268 3004 273 C 3043 273 3086 273 3129 273 C 3129 283 3129 297 3129 307 M 3408 307 C 3408 321 3408 331 3408 345 C 3364 345 3321 345 3273 345 C 3230 345 3187 345 3144 350 C 3144 336 3144 321 3144 312 C 3144 297 3144 283 3144 268 C 3187 268 3230 268 3278 268 C 3321 268 3364 268 3412 268 C 3408 283 3408 297 3408 307 M 3729 307 C 3729 321 3729 331 3729 345 C 3676 345 3624 345 3576 345 C 3523 345 3470 345 3417 350 C 3417 336 3417 321 3417 307 C 3417 297 3417 283 3417 268 C 3470 273 3523 273 3576 273 C 3624 273 3676 273 3729 273 C 3729 283 3729 297 3729 307 M 4075 273 C 4080 278 4084 283 4084 312 C 4084 326 4084 336 4084 350 C 4027 350 3969 350 3912 350 C 3854 350 3796 350 3739 350 C 3739 336 3739 321 3739 307 C 3739 297 3739 283 3739 268 C 3796 268 3849 268 3902 268 C 3993 268 4070 273 4075 273 M 4123 312 C 4123 321 4123 336 4128 350 C 4118 350 4113 345 4108 345 C 4104 345 4099 345 4094 345 C 4094 336 4094 326 4094 316 C 4089 273 4094 268 4108 273 C 4123 273 4123 273 4123 312 M 220 326 C 225 340 220 345 196 345 C 182 340 182 340 201 316 C 211 307 216 307 220 326 M 110 364 C 110 369 120 374 139 374 C 153 374 163 369 163 364 C 163 360 172 360 182 360 C 192 360 192 360 192 364 C 187 374 206 374 268 374 C 307 369 312 369 312 364 C 307 360 345 360 556 360 C 777 360 806 360 806 364 C 806 369 811 374 816 374 C 816 374 820 369 820 364 C 825 360 849 360 993 360 C 1046 360 1104 360 1161 360 C 1161 364 1161 369 1161 379 C 1161 398 1156 398 1147 393 C 1128 388 1099 398 1084 417 C 1080 422 1075 427 1070 432 C 1032 432 988 432 945 432 C 868 432 820 436 820 436 C 820 441 868 441 945 441 C 984 441 1027 441 1065 441 C 1070 451 1070 456 1070 460 C 1080 494 1123 494 1156 460 C 1161 456 1166 451 1176 441 C 1286 441 1392 441 1502 441 C 1617 441 1728 441 1833 441 C 1833 456 1833 470 1833 480 C 1833 494 1833 508 1833 523 C 1675 523 1512 523 1353 523 C 1084 523 859 523 844 523 C 835 523 830 523 820 523 C 820 513 820 504 820 499 C 816 465 806 465 806 494 C 806 504 806 513 806 518 C 792 518 777 523 758 523 C 734 523 619 523 508 523 C 441 523 374 518 302 518 C 307 513 312 508 316 504 C 345 470 326 460 297 489 C 292 499 278 504 273 504 C 268 504 264 499 264 489 C 264 480 259 470 254 470 C 249 470 249 475 249 489 C 254 504 254 504 254 513 C 249 532 182 518 163 489 C 153 480 144 470 134 470 C 120 470 120 475 139 499 C 148 508 158 518 158 518 C 158 518 124 523 91 523 C 67 523 43 523 24 523 C 24 508 24 494 24 480 C 24 470 24 456 24 441 C 33 441 48 441 57 441 C 110 441 110 436 62 432 C 48 432 38 432 24 432 C 24 417 24 408 24 393 C 24 384 24 369 19 360 C 38 360 52 360 67 360 C 105 360 110 360 110 364 M 1281 360 C 1281 360 1276 369 1267 379 C 1262 384 1257 398 1257 412 C 1257 417 1257 427 1257 432 C 1243 432 1228 432 1214 432 C 1166 436 1171 436 1171 388 C 1171 379 1176 369 1176 360 C 1190 360 1209 360 1228 360 C 1257 360 1281 360 1281 360 M 1449 364 C 1464 408 1512 408 1540 369 C 1540 364 1545 360 1550 360 C 1598 360 1646 360 1694 360 C 1742 360 1790 360 1838 360 C 1833 369 1833 384 1833 393 C 1833 408 1833 417 1833 432 C 1752 432 1670 432 1584 432 C 1449 432 1334 432 1334 432 C 1334 432 1339 422 1348 412 C 1353 398 1358 388 1358 364 C 1363 355 1444 355 1449 364 M 1992 393 C 1992 408 1992 417 1992 432 C 1968 432 1944 432 1924 432 C 1900 432 1876 432 1852 436 C 1852 432 1852 427 1848 422 C 1843 408 1843 384 1848 369 C 1852 360 1852 360 1924 360 C 1948 360 1972 360 1996 360 C 1992 369 1992 384 1992 393 M 2155 364 C 2155 374 2246 379 2256 364 C 2256 360 2275 360 2452 360 C 2515 360 2577 360 2644 360 C 2644 364 2644 369 2644 379 C 2644 398 2640 398 2630 393 C 2611 388 2587 398 2568 417 C 2563 422 2553 427 2548 432 C 2534 432 2515 432 2500 432 C 2472 432 2452 436 2452 436 C 2452 441 2467 441 2496 441 C 2515 441 2529 441 2544 441 C 2548 451 2548 456 2553 460 C 2568 494 2606 494 2635 460 C 2644 456 2649 451 2654 441 C 2678 441 2702 441 2726 441 C 2764 441 2793 446 2793 446 C 2793 446 2788 456 2784 465 C 2774 480 2769 489 2774 504 C 2774 508 2774 513 2774 523 C 2721 523 2664 523 2611 523 C 2520 523 2438 523 2428 523 C 2419 523 2400 523 2385 523 C 2376 523 2366 523 2352 523 C 2352 513 2352 504 2352 494 C 2352 480 2352 470 2347 470 C 2342 470 2342 480 2342 494 C 2342 504 2342 518 2337 518 C 2337 518 2299 523 2256 523 C 2174 518 2164 518 2169 499 C 2169 484 2164 470 2160 470 C 2160 470 2155 484 2155 494 C 2155 518 2155 523 2145 523 C 2112 523 2088 523 2049 523 C 2035 523 2020 523 2001 523 C 2006 508 2006 494 2006 484 C 2006 470 2006 460 2006 446 C 2030 446 2054 446 2078 446 C 2121 446 2150 441 2150 436 C 2150 436 2121 432 2078 432 C 2054 432 2030 432 2006 432 C 2006 417 2006 408 2006 393 C 2006 384 2006 369 2001 360 C 2030 360 2054 360 2078 360 C 2145 360 2155 360 2155 364 M 2860 393 C 2860 417 2860 427 2856 432 C 2856 432 2808 432 2755 432 C 2668 432 2664 432 2659 427 C 2654 417 2649 369 2654 360 C 2654 360 2702 360 2760 360 C 2793 360 2827 360 2860 360 C 2860 369 2860 384 2860 393 M 3129 384 C 3129 398 3129 417 3129 422 C 3129 427 3129 432 3124 436 C 3086 432 3043 432 3000 432 C 2956 432 2918 432 2875 432 C 2875 422 2875 412 2875 403 C 2870 355 2860 355 3004 360 C 3043 360 3086 360 3129 360 C 3129 369 3129 379 3129 384 M 3408 379 C 3408 384 3408 403 3408 412 C 3408 422 3403 427 3403 432 C 3360 432 3316 432 3273 432 C 3230 432 3187 432 3144 432 C 3144 422 3144 408 3144 393 C 3144 384 3144 369 3144 355 C 3187 360 3230 360 3273 360 C 3316 360 3364 360 3408 360 C 3408 364 3408 369 3408 379 M 3729 364 C 3729 364 3729 374 3729 384 C 3729 398 3724 398 3710 398 C 3686 393 3667 403 3652 422 C 3648 427 3643 432 3638 432 C 3604 432 3566 432 3528 432 C 3494 432 3456 432 3417 432 C 3417 422 3417 408 3417 398 C 3417 384 3417 369 3417 360 C 3470 360 3523 360 3571 360 C 3676 360 3729 360 3729 364 M 4080 398 C 4080 408 4080 422 4084 432 C 4027 432 3969 432 3912 432 C 3854 432 3796 432 3739 432 C 3739 422 3739 408 3739 393 C 3739 384 3739 369 3739 355 C 3796 360 3854 360 3912 360 C 3969 360 4022 360 4080 360 C 4080 374 4080 384 4080 398 M 4123 398 C 4123 408 4123 422 4128 432 C 4118 432 4113 432 4108 432 C 4104 432 4099 432 4094 432 C 4094 422 4094 412 4094 398 C 4094 360 4094 355 4108 360 C 4123 360 4123 360 4123 398 M 3724 417 C 3724 422 3724 427 3724 432 C 3724 432 3710 432 3700 432 C 3676 432 3672 427 3691 417 C 3710 408 3729 408 3724 417 M 1992 484 C 1992 494 1992 508 1996 523 C 1968 518 1944 518 1920 518 C 1896 518 1872 518 1848 518 C 1848 508 1848 499 1848 489 C 1843 441 1838 441 1920 446 C 1944 446 1968 446 1992 446 C 1992 460 1992 470 1992 484 M 3129 456 C 3134 475 3129 484 3115 484 C 3091 480 3072 489 3052 504 C 3048 513 3043 518 3038 523 C 3004 523 2976 523 2947 523 C 2894 518 2856 518 2856 518 C 2856 518 2856 508 2860 499 C 2870 494 2875 475 2875 465 C 2875 456 2875 451 2875 446 C 2880 446 2937 441 3004 446 C 3043 446 3086 446 3129 446 C 3129 446 3129 451 3129 456 M 3408 451 C 3408 456 3408 475 3408 489 C 3408 499 3403 508 3403 518 C 3393 518 3384 523 3374 523 C 3340 528 3158 528 3148 523 C 3139 518 3139 456 3144 446 C 3153 441 3403 441 3408 451 M 3643 460 C 3652 499 3700 494 3729 456 C 3734 451 3739 446 3744 441 C 3796 446 3849 446 3902 446 C 3988 446 4065 446 4070 446 C 4084 451 4089 518 4075 523 C 4065 528 3460 528 3436 523 C 3432 523 3427 518 3422 518 C 3422 508 3417 499 3417 489 C 3417 441 3408 441 3528 446 C 3566 446 3600 446 3638 446 C 3638 451 3638 456 3643 460 M 3705 451 C 3705 456 3676 470 3662 470 C 3652 470 3652 456 3662 451 C 3667 441 3705 441 3705 451 M 4123 484 C 4123 518 4123 518 4113 523 C 4094 528 4094 523 4094 484 C 4094 446 4094 441 4113 446 C 4123 451 4123 451 4123 484 M 2155 566 C 2160 609 2160 609 2073 585 C 2049 576 2025 571 2006 566 C 2006 561 2006 556 2006 552 C 2006 547 2001 542 2001 537 C 2025 532 2049 532 2073 532 C 2112 532 2145 532 2150 532 C 2155 532 2155 547 2155 566 M 2337 537 C 2342 542 2337 648 2337 648 C 2332 652 2198 619 2179 609 C 2169 609 2169 604 2169 576 C 2169 528 2160 532 2256 532 C 2299 537 2337 537 2337 537 M 1996 547 C 1996 561 1987 561 1944 552 C 1900 537 1900 537 1948 537 C 1992 537 1996 537 1996 547 M 796 566 C 787 585 763 600 744 600 C 715 604 744 561 782 547 C 801 537 806 547 796 566 M 801 931 C 806 940 782 969 763 984 C 739 993 729 988 729 979 C 729 955 792 912 801 931 M 144 1012 C 144 1012 139 1022 129 1027 C 124 1032 120 1046 115 1056 C 115 1065 110 1070 110 1080 C 96 1080 81 1080 62 1080 C 48 1080 33 1080 19 1080 C 19 1070 19 1060 19 1051 C 19 1032 19 1017 19 1012 C 24 1003 144 1003 144 1012 M 436 1017 C 436 1022 436 1032 432 1036 C 427 1036 422 1046 422 1056 C 422 1065 427 1075 432 1075 C 436 1075 436 1075 436 1080 C 436 1080 412 1084 364 1084 C 340 1084 316 1084 292 1084 C 292 1080 292 1075 292 1070 C 292 1060 283 1046 268 1032 C 259 1017 249 1008 249 1008 C 249 1008 292 1003 345 1003 C 374 1003 408 1003 436 1003 C 436 1008 436 1012 436 1017 M 710 1046 C 710 1056 710 1070 715 1084 C 676 1084 638 1084 600 1084 C 561 1084 523 1084 484 1084 C 484 1075 484 1070 484 1065 C 484 1056 489 1046 494 1046 C 499 1046 499 1036 499 1027 C 499 1003 499 1003 609 1008 C 643 1008 676 1008 710 1008 C 710 1022 710 1032 710 1046 M 3936 1008 C 4036 1012 4075 1012 4080 1017 C 4080 1017 4080 1036 4080 1056 C 4080 1065 4075 1075 4075 1089 C 3528 1084 2980 1084 2438 1084 C 1536 1084 796 1080 796 1080 C 792 1080 796 1070 806 1065 C 811 1051 816 1041 816 1027 C 816 1017 816 1012 816 1003 C 1310 1003 1804 1008 2304 1008 C 3120 1008 3854 1008 3936 1008 M 4123 1036 C 4128 1075 4123 1089 4108 1089 C 4089 1089 4084 1075 4089 1041 C 4089 1032 4089 1022 4094 1008 C 4099 1008 4104 1012 4108 1012 C 4123 1012 4123 1012 4123 1036 M 211 1027 C 230 1036 244 1065 240 1075 C 235 1084 196 1084 187 1070 C 187 1065 172 1060 163 1060 C 144 1056 139 1036 158 1022 C 177 1012 192 1012 211 1027 M 801 1022 C 806 1041 748 1084 734 1070 C 724 1060 744 1036 768 1027 C 792 1012 796 1012 801 1022 M 475 1070 C 475 1080 470 1084 465 1084 C 456 1084 451 1075 460 1065 C 465 1056 475 1056 475 1070 M 120 1104 C 129 1113 139 1113 153 1113 C 172 1113 177 1113 187 1104 C 196 1094 201 1094 220 1094 C 225 1094 230 1094 240 1094 C 240 1099 235 1108 235 1113 C 235 1128 230 1147 225 1152 C 225 1156 220 1161 216 1166 C 182 1166 148 1166 115 1166 C 81 1166 48 1166 19 1166 C 19 1156 19 1142 19 1128 C 19 1118 19 1104 19 1094 C 33 1094 48 1094 62 1094 C 100 1094 105 1094 120 1104 M 436 1108 C 441 1118 436 1123 432 1128 C 427 1128 422 1142 422 1147 C 422 1156 422 1161 422 1166 C 398 1166 374 1166 350 1166 C 307 1166 273 1166 268 1166 C 268 1161 273 1152 278 1142 C 283 1132 292 1118 292 1113 C 297 1094 302 1089 369 1094 C 393 1094 412 1094 436 1094 C 436 1099 436 1104 436 1108 M 475 1104 C 475 1108 470 1108 470 1108 C 470 1108 465 1113 460 1113 C 456 1118 451 1104 456 1094 C 460 1089 475 1094 475 1104 M 710 1132 C 710 1142 710 1156 715 1166 C 676 1166 638 1166 600 1166 C 561 1166 523 1166 484 1166 C 484 1166 484 1161 484 1156 C 484 1152 489 1142 494 1142 C 504 1137 504 1104 494 1104 C 489 1104 489 1099 489 1094 C 489 1094 532 1094 600 1094 C 638 1094 672 1094 710 1094 C 710 1108 710 1118 710 1132 M 3777 1094 C 3878 1094 3979 1094 4075 1099 C 4075 1108 4075 1123 4075 1132 C 4075 1147 4075 1161 4075 1171 C 3518 1171 2961 1171 2404 1171 C 1488 1171 729 1166 729 1166 C 720 1166 720 1099 724 1094 C 729 1094 1348 1094 2102 1094 C 2856 1094 3609 1094 3777 1094 M 4118 1132 C 4118 1147 4118 1161 4118 1171 C 4118 1171 4113 1171 4108 1171 C 4089 1171 4089 1166 4089 1132 C 4089 1104 4089 1099 4108 1099 C 4113 1099 4118 1099 4118 1099 C 4118 1108 4118 1123 4118 1132 M 206 1185 C 206 1190 187 1209 153 1233 C 144 1238 134 1248 124 1252 C 105 1252 91 1252 72 1252 C 52 1252 33 1257 19 1257 C 19 1243 19 1228 19 1219 C 19 1204 19 1190 19 1176 C 48 1176 81 1176 110 1176 C 182 1176 206 1180 206 1185 M 436 1200 C 441 1228 451 1224 456 1190 C 456 1176 470 1176 475 1190 C 475 1209 484 1209 484 1190 C 484 1185 489 1180 489 1176 C 523 1176 561 1176 600 1176 C 638 1176 676 1176 715 1176 C 715 1190 715 1204 715 1219 C 715 1228 715 1243 715 1257 C 619 1257 528 1257 436 1257 C 283 1257 158 1252 158 1252 C 158 1248 172 1233 192 1224 C 216 1209 235 1190 240 1185 C 249 1180 254 1176 340 1180 C 374 1180 403 1180 436 1180 C 436 1185 436 1190 436 1200 M 4022 1180 C 4041 1180 4060 1180 4075 1180 C 4075 1195 4075 1209 4075 1224 C 4075 1233 4075 1248 4075 1262 C 3715 1257 3350 1257 2985 1257 C 2380 1257 1627 1257 1305 1257 C 1113 1257 916 1257 724 1257 C 724 1243 724 1233 724 1219 C 724 1200 724 1180 724 1180 C 729 1180 1459 1180 2347 1180 C 3235 1180 3988 1180 4022 1180 M 4118 1224 C 4118 1257 4118 1262 4108 1262 C 4094 1262 4089 1252 4089 1219 C 4089 1185 4089 1180 4108 1180 C 4113 1180 4118 1180 4118 1180 C 4118 1195 4118 1209 4118 1224 M 710 1300 C 710 1320 710 1339 710 1339 C 705 1344 648 1344 580 1344 C 513 1344 360 1344 240 1344 C 163 1344 91 1344 19 1339 C 19 1329 19 1315 19 1305 C 19 1291 19 1276 19 1267 C 134 1267 249 1267 364 1267 C 480 1267 595 1267 710 1267 C 710 1276 710 1291 710 1300 M 3873 1267 C 3940 1267 4008 1272 4075 1272 C 4075 1281 4075 1296 4075 1310 C 4075 1320 4075 1334 4075 1348 C 3518 1344 2961 1344 2400 1344 C 1843 1344 1281 1344 724 1344 C 724 1334 724 1320 724 1310 C 724 1291 724 1276 724 1272 C 729 1262 888 1262 2198 1267 C 3009 1267 3763 1267 3873 1267 M 4118 1310 C 4118 1320 4118 1334 4118 1348 C 4113 1348 4108 1344 4104 1344 C 4099 1344 4094 1344 4089 1344 C 4089 1334 4089 1324 4089 1315 C 4084 1276 4089 1272 4104 1272 C 4108 1272 4113 1272 4118 1272 C 4118 1281 4118 1296 4118 1310 M 312 1036 C 292 1046 312 1075 336 1070 C 350 1065 355 1051 350 1041 C 340 1027 326 1027 312 1036 M 316 1104 C 302 1113 307 1142 321 1147 C 331 1152 345 1142 350 1128 C 355 1113 331 1094 316 1104 z" fill="black" /><!-- width=4147 height=1368 -->
<path id="gl17408" d="M 57 28 C 33 38 14 48 14 48 C 14 48 9 321 9 652 C 9 849 4 1051 4 1252 C 19 1257 33 1267 48 1272 C 96 1296 100 1291 67 1267 C 57 1262 48 1257 38 1248 C 43 1152 43 1056 43 960 C 43 796 48 528 48 360 C 48 259 48 153 48 52 C 52 48 57 48 62 43 C 81 28 105 9 105 9 C 100 9 81 14 57 28 z" fill="black" /><!-- width=120 height=1300 -->
</defs>
<use xlink:href="#gl16900" x="249" y="57" />
<use xlink:href="#gl16901" x="489" y="53" />
<use xlink:href="#gl16902" x="532" y="43" />
<use xlink:href="#gl16903" x="163" y="369" />
<use xlink:href="#gl16904" x="288" y="369" />
<use xlink:href="#gl16905" x="374" y="369" />
<use xlink:href="#gl16906" x="240" y="465" />
<use xlink:href="#gl16907" x="787" y="398" />
<use xlink:href="#gl16908" x="816" y="369" />
<use xlink:href="#gl16909" x="412" y="427" />
<use xlink:href="#gl16910" x="2217" y="369" />
<use xlink:href="#gl16911" x="2308" y="427" />
<use xlink:href="#gl16912" x="2400" y="355" />
<use xlink:href="#gl16913" x="2443" y="355" />
<use xlink:href="#gl17152" x="67" y="0" />
<use xlink:href="#gl17408" x="0" y="115" />
</svg>