<?xml version="1.0" standalone="no"?>
<!DOCTYPE svg PUBLIC "-//W3C/DTD SVG 1.1//EN" "http://www.w3.org/Graphics/SVG/1.1/DTD/svg11.dtd">
<svg width="577px" height="70px" viewBox="0 0 5779 700" xmlns="http://www.w3.org/2000/svg" xmlns:xlink="http://www.w3.org/1999/xlink" version="1.1">
<defs>
<path id="gl18705" d="M 40 7 C 31 7 30 12 37 15 C 42 18 42 18 42 55 C 42 81 42 81 37 84 C 34 87 33 88 33 90 C 33 94 33 94 67 94 C 103 94 102 95 105 84 C 106 75 106 64 105 63 C 100 58 94 60 92 69 C 89 82 83 86 66 85 C 58 85 58 86 58 50 C 58 40 58 30 58 21 C 58 20 59 19 60 18 C 60 17 62 16 63 15 C 70 12 70 8 64 7 C 60 6 44 6 40 7 z" fill="black" /><!-- width=120 height=115 -->
<path id="gl18692" d="M 32 7 C 21 8 15 13 15 21 C 15 25 16 28 20 28 C 25 30 28 28 30 21 C 30 15 31 15 37 15 C 45 15 48 18 48 24 C 48 30 45 32 37 33 C 22 33 13 40 12 51 C 12 60 16 65 27 66 C 34 67 36 67 42 63 C 47 60 48 60 54 64 C 65 69 73 63 65 56 C 60 52 61 52 60 34 C 60 29 60 24 60 18 C 60 17 60 16 59 15 C 55 9 45 6 32 7 M 46 37 C 50 40 50 46 46 52 C 40 61 26 60 26 51 C 26 46 30 41 35 39 C 37 38 39 37 40 37 C 42 35 43 36 46 37 z" fill="black" /><!-- width=80 height=78 -->
<path id="gl18705" d="M 40 7 C 31 7 30 12 37 15 C 42 18 42 18 42 55 C 42 81 42 81 37 84 C 34 87 33 88 33 90 C 33 94 33 94 67 94 C 103 94 102 95 105 84 C 106 75 106 64 105 63 C 100 58 94 60 92 69 C 89 82 83 86 66 85 C 58 85 58 86 58 50 C 58 40 58 30 58 21 C 58 20 59 19 60 18 C 60 17 62 16 63 15 C 70 12 70 8 64 7 C 60 6 44 6 40 7 z" fill="black" /><!-- width=120 height=115 -->
<path id="gl18692" d="M 32 7 C 21 8 15 13 15 21 C 15 25 16 28 20 28 C 25 30 28 28 30 21 C 30 15 31 15 37 15 C 45 15 48 18 48 24 C 48 30 45 32 37 33 C 22 33 13 40 12 51 C 12 60 16 65 27 66 C 34 67 36 67 42 63 C 47 60 48 60 54 64 C 65 69 73 63 65 56 C 60 52 61 52 60 34 C 60 29 60 24 60 18 C 60 17 60 16 59 15 C 55 9 45 6 32 7 M 46 37 C 50 40 50 46 46 52 C 40 61 26 60 26 51 C 26 46 30 41 35 39 C 37 38 39 37 40 37 C 42 35 43 36 46 37 z" fill="black" /><!-- width=80 height=78 -->
<path id="gl18705" d="M 40 7 C 31 7 30 12 37 15 C 42 18 42 18 42 55 C 42 81 42 81 37 84 C 34 87 33 88 33 90 C 33 94 33 94 67 94 C 103 94 102 95 105 84 C 106 75 106 64 105 63 C 100 58 94 60 92 69 C 89 82 83 86 66 85 C 58 85 58 86 58 50 C 58 40 58 30 58 21 C 58 20 59 19 60 18 C 60 17 62 16 63 15 C 70 12 70 8 64 7 C 60 6 44 6 40 7 z" fill="black" /><!-- width=120 height=115 -->
<path id="gl18692" d="M 32 7 C 21 8 15 13 15 21 C 15 25 16 28 20 28 C 25 30 28 28 30 21 C 30 15 31 15 37 15 C 45 15 48 18 48 24 C 48 30 45 32 37 33 C 22 33 13 40 12 51 C 12 60 16 65 27 66 C 34 67 36 67 42 63 C 47 60 48 60 54 64 C 65 69 73 63 65 56 C 60 52 61 52 60 34 C 60 29 60 24 60 18 C 60 17 60 16 59 15 C 55 9 45 6 32 7 M 46 37 C 50 40 50 46 46 52 C 40 61 26 60 26 51 C 26 46 30 41 35 39 C 37 38 39 37 40 37 C 42 35 43 36 46 37 z" fill="black" /><!-- width=80 height=78 -->
<path id="gl18705" d="M 40 7 C 31 7 30 12 37 15 C 42 18 42 18 42 55 C 42 81 42 81 37 84 C 34 87 33 88 33 90 C 33 94 33 94 67 94 C 103 94 102 95 105 84 C 106 75 106 64 105 63 C 100 58 94 60 92 69 C 89 82 83 86 66 85 C 58 85 58 86 58 50 C 58 40 58 30 58 21 C 58 20 59 19 60 18 C 60 17 62 16 63 15 C 70 12 70 8 64 7 C 60 6 44 6 40 7 z" fill="black" /><!-- width=120 height=115 -->
<path id="gl18692" d="M 32 7 C 21 8 15 13 15 21 C 15 25 16 28 20 28 C 25 30 28 28 30 21 C 30 15 31 15 37 15 C 45 15 48 18 48 24 C 48 30 45 32 37 33 C 22 33 13 40 12 51 C 12 60 16 65 27 66 C 34 67 36 67 42 63 C 47 60 48 60 54 64 C 65 69 73 63 65 56 C 60 52 61 52 60 34 C 60 29 60 24 60 18 C 60 17 60 16 59 15 C 55 9 45 6 32 7 M 46 37 C 50 40 50 46 46 52 C 40 61 26 60 26 51 C 26 46 30 41 35 39 C 37 38 39 37 40 37 C 42 35 43 36 46 37 z" fill="black" /><!-- width=80 height=78 -->
<path id="gl18705" d="M 40 7 C 31 7 30 12 37 15 C 42 18 42 18 42 55 C 42 81 42 81 37 84 C 34 87 33 88 33 90 C 33 94 33 94 67 94 C 103 94 102 95 105 84 C 106 75 106 64 105 63 C 100 58 94 60 92 69 C 89 82 83 86 66 85 C 58 85 58 86 58 50 C 58 40 58 30 58 21 C 58 20 59 19 60 18 C 60 17 62 16 63 15 C 70 12 70 8 64 7 C 60 6 44 6 40 7 z" fill="black" /><!-- width=120 height=115 -->
<path id="gl18711" d="M 33 6 C 23 8 19 10 16 13 C 10 22 12 28 21 28 C 25 28 27 26 27 20 C 28 13 41 12 45 19 C 47 22 47 25 44 30 C 43 30 43 31 42 32 C 40 33 39 33 37 33 C 33 33 31 33 29 34 C 27 34 25 35 25 35 C 24 35 18 38 16 40 C 9 45 8 54 13 60 C 18 65 20 66 29 66 C 34 66 36 66 37 65 C 38 64 39 63 40 63 C 43 61 46 61 52 63 C 54 64 57 65 58 66 C 62 66 61 66 67 62 C 69 60 69 58 64 55 C 58 52 59 54 59 33 C 59 27 59 21 59 15 C 58 14 57 13 57 13 C 51 7 42 5 33 6 M 46 40 C 49 48 43 58 34 58 C 25 58 22 54 26 46 C 28 42 29 40 34 39 C 40 36 43 36 46 40 z" fill="black" /><!-- width=76 height=77 -->
<path id="gl24069" d="M 4 48 C 4 62 4 76 4 91 C 14 91 24 96 33 96 C 48 96 62 96 67 96 C 72 91 72 57 67 57 C 62 57 57 62 57 67 C 57 76 38 91 28 81 C 19 76 19 19 28 14 C 38 9 33 9 19 9 C 14 9 9 9 4 9 C 4 19 4 33 4 48 z" fill="black" /><!-- width=81 height=105 -->
<path id="gl18692" d="M 32 7 C 21 8 15 13 15 21 C 15 25 16 28 20 28 C 25 30 28 28 30 21 C 30 15 31 15 37 15 C 45 15 48 18 48 24 C 48 30 45 32 37 33 C 22 33 13 40 12 51 C 12 60 16 65 27 66 C 34 67 36 67 42 63 C 47 60 48 60 54 64 C 65 69 73 63 65 56 C 60 52 61 52 60 34 C 60 29 60 24 60 18 C 60 17 60 16 59 15 C 55 9 45 6 32 7 M 46 37 C 50 40 50 46 46 52 C 40 61 26 60 26 51 C 26 46 30 41 35 39 C 37 38 39 37 40 37 C 42 35 43 36 46 37 z" fill="black" /><!-- width=80 height=78 -->
<path id="gl18705" d="M 40 7 C 31 7 30 12 37 15 C 42 18 42 18 42 55 C 42 81 42 81 37 84 C 34 87 33 88 33 90 C 33 94 33 94 67 94 C 103 94 102 95 105 84 C 106 75 106 64 105 63 C 100 58 94 60 92 69 C 89 82 83 86 66 85 C 58 85 58 86 58 50 C 58 40 58 30 58 21 C 58 20 59 19 60 18 C 60 17 62 16 63 15 C 70 12 70 8 64 7 C 60 6 44 6 40 7 z" fill="black" /><!-- width=120 height=115 -->
<path id="gl18692" d="M 32 7 C 21 8 15 13 15 21 C 15 25 16 28 20 28 C 25 30 28 28 30 21 C 30 15 31 15 37 15 C 45 15 48 18 48 24 C 48 30 45 32 37 33 C 22 33 13 40 12 51 C 12 60 16 65 27 66 C 34 67 36 67 42 63 C 47 60 48 60 54 64 C 65 69 73 63 65 56 C 60 52 61 52 60 34 C 60 29 60 24 60 18 C 60 17 60 16 59 15 C 55 9 45 6 32 7 M 46 37 C 50 40 50 46 46 52 C 40 61 26 60 26 51 C 26 46 30 41 35 39 C 37 38 39 37 40 37 C 42 35 43 36 46 37 z" fill="black" /><!-- width=80 height=78 -->
<path id="gl24070" d="M 34 6 C 26 7 25 11 33 14 C 36 16 37 17 39 21 C 39 24 39 30 39 34 C 38 36 38 44 39 54 C 39 84 39 88 31 88 C 30 88 29 88 28 89 C 28 90 27 90 27 90 C 27 91 28 91 28 92 C 31 94 34 95 46 94 C 49 94 60 94 70 94 C 88 95 88 95 93 94 C 99 92 100 91 100 88 C 100 86 100 84 101 82 C 102 81 102 79 102 77 C 102 75 101 71 101 69 C 100 62 99 60 95 61 C 94 61 93 61 92 61 C 92 61 91 63 91 64 C 91 65 90 67 90 69 C 89 70 88 72 88 73 C 88 78 81 86 76 87 C 70 88 59 87 57 86 C 54 83 54 85 54 37 C 54 36 54 33 54 30 C 53 22 54 19 59 16 C 68 10 67 7 55 7 C 51 7 45 6 43 6 C 40 6 36 6 34 6 z" fill="black" /><!-- width=111 height=115 -->
<path id="gl18692" d="M 32 7 C 21 8 15 13 15 21 C 15 25 16 28 20 28 C 25 30 28 28 30 21 C 30 15 31 15 37 15 C 45 15 48 18 48 24 C 48 30 45 32 37 33 C 22 33 13 40 12 51 C 12 60 16 65 27 66 C 34 67 36 67 42 63 C 47 60 48 60 54 64 C 65 69 73 63 65 56 C 60 52 61 52 60 34 C 60 29 60 24 60 18 C 60 17 60 16 59 15 C 55 9 45 6 32 7 M 46 37 C 50 40 50 46 46 52 C 40 61 26 60 26 51 C 26 46 30 41 35 39 C 37 38 39 37 40 37 C 42 35 43 36 46 37 z" fill="black" /><!-- width=80 height=78 -->
<path id="gl18966" d="M 27 10 C 24 12 19 17 18 18 C 18 19 17 22 16 24 C 15 25 13 27 13 28 C 13 28 13 30 13 32 C 11 37 13 50 16 57 C 18 60 23 65 24 65 C 25 65 26 66 27 66 C 28 67 28 67 30 68 C 30 67 31 67 32 67 C 34 66 36 65 36 64 C 37 62 37 63 33 59 C 28 55 27 53 26 42 C 25 37 25 36 27 31 C 28 23 28 22 31 19 C 34 17 34 17 37 17 C 45 18 48 22 49 35 C 50 43 47 57 44 58 C 40 60 40 63 42 67 C 44 70 52 67 57 61 C 59 58 64 42 64 37 C 65 29 59 17 52 13 C 51 13 50 12 49 12 C 48 9 31 8 27 10 z" fill="black" /><!-- width=78 height=77 -->
<path id="gl18688" d="M 28 12 C 22 13 19 15 15 22 C 7 38 12 60 25 67 C 28 69 40 70 45 68 C 55 66 58 61 62 46 C 64 39 61 25 55 19 C 51 13 47 12 38 11 C 34 11 29 11 28 12 M 41 20 C 46 23 49 31 49 40 C 49 63 30 70 25 49 C 22 37 25 24 32 20 C 34 19 39 19 41 20 z" fill="black" /><!-- width=73 height=81 -->
<path id="gl1299" d="M 18 13 C 13 15 12 18 15 21 C 17 24 18 24 35 24 C 51 24 51 24 54 21 C 57 18 56 16 52 14 C 49 13 22 12 18 13 z" fill="black" /><!-- width=69 height=37 -->
<path id="gl18949" d="M 33 12 C 19 24 16 33 19 52 C 21 58 21 59 26 64 C 34 71 33 71 43 71 C 46 71 49 71 53 71 C 54 70 54 70 55 69 C 64 62 66 60 64 55 C 63 51 57 51 55 55 C 54 60 42 61 37 57 C 34 54 31 43 32 37 C 33 26 40 16 45 18 C 48 19 48 21 49 27 C 49 32 50 33 54 34 C 58 36 64 34 65 31 C 67 25 64 18 57 13 C 56 12 55 12 54 10 C 51 10 47 10 44 10 C 35 10 35 11 33 12 z" fill="black" /><!-- width=76 height=80 -->
<path id="gl18960" d="M 15 7 C 12 8 11 9 10 12 C 9 13 9 13 9 15 C 9 15 10 16 11 18 C 15 22 15 22 15 37 C 15 56 15 57 20 62 C 23 64 24 66 27 66 C 32 67 40 66 44 64 C 48 63 51 63 58 64 C 66 66 66 66 68 65 C 73 63 72 58 67 55 C 63 52 63 51 63 30 C 64 11 64 10 60 9 C 58 7 48 7 46 8 C 44 9 42 13 42 15 C 42 15 44 16 45 17 C 51 20 52 21 51 37 C 51 49 50 50 47 54 C 43 57 35 58 31 55 C 28 52 27 51 27 39 C 27 33 28 26 28 24 C 28 21 28 18 28 16 C 29 15 29 14 27 12 C 25 8 22 7 15 7 z" fill="black" /><!-- width=81 height=77 -->
<path id="gl18949" d="M 33 12 C 19 24 16 33 19 52 C 21 58 21 59 26 64 C 34 71 33 71 43 71 C 46 71 49 71 53 71 C 54 70 54 70 55 69 C 64 62 66 60 64 55 C 63 51 57 51 55 55 C 54 60 42 61 37 57 C 34 54 31 43 32 37 C 33 26 40 16 45 18 C 48 19 48 21 49 27 C 49 32 50 33 54 34 C 58 36 64 34 65 31 C 67 25 64 18 57 13 C 56 12 55 12 54 10 C 51 10 47 10 44 10 C 35 10 35 11 33 12 z" fill="black" /><!-- width=76 height=80 -->
<path id="gl18963" d="M 26 7 C 22 9 21 10 21 12 C 21 13 22 16 24 17 C 28 19 28 21 28 35 C 28 42 28 55 28 64 C 28 82 28 81 24 88 C 23 91 22 91 23 93 C 25 97 37 99 43 95 C 46 93 46 92 43 88 C 39 80 40 71 46 70 C 51 69 60 84 58 90 C 57 93 59 95 62 96 C 65 97 75 97 77 96 C 78 96 80 95 81 94 C 83 94 83 94 83 91 C 82 88 81 88 76 84 C 73 81 70 78 69 77 C 60 66 59 64 60 60 C 60 57 63 54 71 50 C 79 46 80 45 79 42 C 78 38 76 37 69 37 C 55 38 52 40 54 46 C 55 51 53 55 47 60 C 45 61 45 61 43 61 C 41 60 40 57 41 44 C 42 37 42 27 42 21 C 42 18 42 15 42 11 C 41 10 40 10 40 9 C 37 6 31 5 26 7 z" fill="black" /><!-- width=92 height=120 -->
<path id="gl18705" d="M 40 7 C 31 7 30 12 37 15 C 42 18 42 18 42 55 C 42 81 42 81 37 84 C 34 87 33 88 33 90 C 33 94 33 94 67 94 C 103 94 102 95 105 84 C 106 75 106 64 105 63 C 100 58 94 60 92 69 C 89 82 83 86 66 85 C 58 85 58 86 58 50 C 58 40 58 30 58 21 C 58 20 59 19 60 18 C 60 17 62 16 63 15 C 70 12 70 8 64 7 C 60 6 44 6 40 7 z" fill="black" /><!-- width=120 height=115 -->
<path id="gl18711" d="M 33 6 C 23 8 19 10 16 13 C 10 22 12 28 21 28 C 25 28 27 26 27 20 C 28 13 41 12 45 19 C 47 22 47 25 44 30 C 43 30 43 31 42 32 C 40 33 39 33 37 33 C 33 33 31 33 29 34 C 27 34 25 35 25 35 C 24 35 18 38 16 40 C 9 45 8 54 13 60 C 18 65 20 66 29 66 C 34 66 36 66 37 65 C 38 64 39 63 40 63 C 43 61 46 61 52 63 C 54 64 57 65 58 66 C 62 66 61 66 67 62 C 69 60 69 58 64 55 C 58 52 59 54 59 33 C 59 27 59 21 59 15 C 58 14 57 13 57 13 C 51 7 42 5 33 6 M 46 40 C 49 48 43 58 34 58 C 25 58 22 54 26 46 C 28 42 29 40 34 39 C 40 36 43 36 46 40 z" fill="black" /><!-- width=76 height=77 -->
<path id="gl24070" d="M 34 6 C 26 7 25 11 33 14 C 36 16 37 17 39 21 C 39 24 39 30 39 34 C 38 36 38 44 39 54 C 39 84 39 88 31 88 C 30 88 29 88 28 89 C 28 90 27 90 27 90 C 27 91 28 91 28 92 C 31 94 34 95 46 94 C 49 94 60 94 70 94 C 88 95 88 95 93 94 C 99 92 100 91 100 88 C 100 86 100 84 101 82 C 102 81 102 79 102 77 C 102 75 101 71 101 69 C 100 62 99 60 95 61 C 94 61 93 61 92 61 C 92 61 91 63 91 64 C 91 65 90 67 90 69 C 89 70 88 72 88 73 C 88 78 81 86 76 87 C 70 88 59 87 57 86 C 54 83 54 85 54 37 C 54 36 54 33 54 30 C 53 22 54 19 59 16 C 68 10 67 7 55 7 C 51 7 45 6 43 6 C 40 6 36 6 34 6 z" fill="black" /><!-- width=111 height=115 -->
<path id="gl18711" d="M 33 6 C 23 8 19 10 16 13 C 10 22 12 28 21 28 C 25 28 27 26 27 20 C 28 13 41 12 45 19 C 47 22 47 25 44 30 C 43 30 43 31 42 32 C 40 33 39 33 37 33 C 33 33 31 33 29 34 C 27 34 25 35 25 35 C 24 35 18 38 16 40 C 9 45 8 54 13 60 C 18 65 20 66 29 66 C 34 66 36 66 37 65 C 38 64 39 63 40 63 C 43 61 46 61 52 63 C 54 64 57 65 58 66 C 62 66 61 66 67 62 C 69 60 69 58 64 55 C 58 52 59 54 59 33 C 59 27 59 21 59 15 C 58 14 57 13 57 13 C 51 7 42 5 33 6 M 46 40 C 49 48 43 58 34 58 C 25 58 22 54 26 46 C 28 42 29 40 34 39 C 40 36 43 36 46 40 z" fill="black" /><!-- width=76 height=77 -->
<path id="gl18705" d="M 40 7 C 31 7 30 12 37 15 C 42 18 42 18 42 55 C 42 81 42 81 37 84 C 34 87 33 88 33 90 C 33 94 33 94 67 94 C 103 94 102 95 105 84 C 106 75 106 64 105 63 C 100 58 94 60 92 69 C 89 82 83 86 66 85 C 58 85 58 86 58 50 C 58 40 58 30 58 21 C 58 20 59 19 60 18 C 60 17 62 16 63 15 C 70 12 70 8 64 7 C 60 6 44 6 40 7 z" fill="black" /><!-- width=120 height=115 -->
<path id="gl24071" d="M 28 7 C 27 8 25 9 22 10 C 13 14 9 24 15 28 C 22 32 28 28 28 19 C 29 15 30 14 36 15 C 46 15 50 21 45 30 C 43 34 42 34 38 33 C 34 33 28 34 25 36 C 24 37 22 38 19 39 C 12 42 10 45 10 52 C 10 57 12 60 16 64 C 22 69 39 69 42 63 C 45 61 52 61 55 65 C 57 67 63 68 66 66 C 67 66 68 64 67 61 C 67 61 67 60 67 60 C 67 59 66 58 64 57 C 59 52 59 53 60 33 C 60 15 60 15 56 11 C 54 9 55 9 43 7 C 32 6 31 6 28 7 M 45 37 C 49 40 48 52 42 57 C 39 60 30 59 27 55 C 23 52 26 43 32 41 C 33 41 34 40 36 39 C 39 36 42 36 45 37 z" fill="black" /><!-- width=77 height=79 -->
<path id="gl24072" d="M 9 14 C 0 28 4 48 19 57 C 28 62 48 57 48 48 C 48 43 48 43 38 48 C 24 52 19 48 24 24 C 24 0 19 0 9 14 M 38 14 C 38 19 38 24 43 24 C 48 24 48 19 48 14 C 52 4 48 0 43 0 C 38 0 33 4 38 14 z" fill="black" /><!-- width=57 height=67 -->
<path id="gl18969" d="M 13 7 C 12 8 11 9 10 9 C 7 10 7 15 10 19 C 12 22 13 24 13 39 C 13 51 13 53 14 55 C 16 58 19 63 20 63 C 21 63 23 63 25 64 C 31 66 35 66 40 63 C 44 61 47 61 51 62 C 51 63 55 63 57 63 C 68 64 74 58 66 55 C 63 54 62 53 62 51 C 61 49 61 36 62 24 C 63 12 63 11 59 9 C 55 6 44 7 42 11 C 40 13 41 14 45 18 C 49 22 49 22 49 36 C 48 44 46 51 45 53 C 42 57 31 56 27 51 C 25 49 25 51 26 28 C 26 15 26 12 25 10 C 24 7 15 5 13 7 z" fill="black" /><!-- width=77 height=75 -->
<path id="gl24073" d="M 9 14 C 0 24 4 43 14 52 C 19 62 43 62 48 52 C 52 43 48 38 38 43 C 28 57 19 48 24 24 C 24 0 19 0 9 14 M 38 14 C 38 19 38 24 43 24 C 48 24 48 19 48 14 C 52 4 48 0 43 0 C 38 0 33 4 38 14 z" fill="black" /><!-- width=62 height=67 -->
<path id="gl18963" d="M 26 7 C 22 9 21 10 21 12 C 21 13 22 16 24 17 C 28 19 28 21 28 35 C 28 42 28 55 28 64 C 28 82 28 81 24 88 C 23 91 22 91 23 93 C 25 97 37 99 43 95 C 46 93 46 92 43 88 C 39 80 40 71 46 70 C 51 69 60 84 58 90 C 57 93 59 95 62 96 C 65 97 75 97 77 96 C 78 96 80 95 81 94 C 83 94 83 94 83 91 C 82 88 81 88 76 84 C 73 81 70 78 69 77 C 60 66 59 64 60 60 C 60 57 63 54 71 50 C 79 46 80 45 79 42 C 78 38 76 37 69 37 C 55 38 52 40 54 46 C 55 51 53 55 47 60 C 45 61 45 61 43 61 C 41 60 40 57 41 44 C 42 37 42 27 42 21 C 42 18 42 15 42 11 C 41 10 40 10 40 9 C 37 6 31 5 26 7 z" fill="black" /><!-- width=92 height=120 -->
<path id="gl1299" d="M 18 13 C 13 15 12 18 15 21 C 17 24 18 24 35 24 C 51 24 51 24 54 21 C 57 18 56 16 52 14 C 49 13 22 12 18 13 z" fill="black" /><!-- width=69 height=37 -->
<path id="gl18688" d="M 28 12 C 22 13 19 15 15 22 C 7 38 12 60 25 67 C 28 69 40 70 45 68 C 55 66 58 61 62 46 C 64 39 61 25 55 19 C 51 13 47 12 38 11 C 34 11 29 11 28 12 M 41 20 C 46 23 49 31 49 40 C 49 63 30 70 25 49 C 22 37 25 24 32 20 C 34 19 39 19 41 20 z" fill="black" /><!-- width=73 height=81 -->
<path id="gl18688" d="M 28 12 C 22 13 19 15 15 22 C 7 38 12 60 25 67 C 28 69 40 70 45 68 C 55 66 58 61 62 46 C 64 39 61 25 55 19 C 51 13 47 12 38 11 C 34 11 29 11 28 12 M 41 20 C 46 23 49 31 49 40 C 49 63 30 70 25 49 C 22 37 25 24 32 20 C 34 19 39 19 41 20 z" fill="black" /><!-- width=73 height=81 -->
<path id="gl15380" d="M 9 7 C 8 9 9 10 11 11 C 12 12 13 12 13 13 C 15 17 15 17 20 17 C 25 16 26 16 27 13 C 27 12 27 12 30 12 C 34 11 35 10 33 7 C 31 6 31 6 25 8 C 24 8 23 9 21 9 C 20 9 19 8 17 8 C 12 6 10 6 9 7 z" fill="black" /><!-- width=41 height=24 -->
<path id="gl18705" d="M 40 7 C 31 7 30 12 37 15 C 42 18 42 18 42 55 C 42 81 42 81 37 84 C 34 87 33 88 33 90 C 33 94 33 94 67 94 C 103 94 102 95 105 84 C 106 75 106 64 105 63 C 100 58 94 60 92 69 C 89 82 83 86 66 85 C 58 85 58 86 58 50 C 58 40 58 30 58 21 C 58 20 59 19 60 18 C 60 17 62 16 63 15 C 70 12 70 8 64 7 C 60 6 44 6 40 7 z" fill="black" /><!-- width=120 height=115 -->
<path id="gl24071" d="M 28 7 C 27 8 25 9 22 10 C 13 14 9 24 15 28 C 22 32 28 28 28 19 C 29 15 30 14 36 15 C 46 15 50 21 45 30 C 43 34 42 34 38 33 C 34 33 28 34 25 36 C 24 37 22 38 19 39 C 12 42 10 45 10 52 C 10 57 12 60 16 64 C 22 69 39 69 42 63 C 45 61 52 61 55 65 C 57 67 63 68 66 66 C 67 66 68 64 67 61 C 67 61 67 60 67 60 C 67 59 66 58 64 57 C 59 52 59 53 60 33 C 60 15 60 15 56 11 C 54 9 55 9 43 7 C 32 6 31 6 28 7 M 45 37 C 49 40 48 52 42 57 C 39 60 30 59 27 55 C 23 52 26 43 32 41 C 33 41 34 40 36 39 C 39 36 42 36 45 37 z" fill="black" /><!-- width=77 height=79 -->
<path id="gl18705" d="M 40 7 C 31 7 30 12 37 15 C 42 18 42 18 42 55 C 42 81 42 81 37 84 C 34 87 33 88 33 90 C 33 94 33 94 67 94 C 103 94 102 95 105 84 C 106 75 106 64 105 63 C 100 58 94 60 92 69 C 89 82 83 86 66 85 C 58 85 58 86 58 50 C 58 40 58 30 58 21 C 58 20 59 19 60 18 C 60 17 62 16 63 15 C 70 12 70 8 64 7 C 60 6 44 6 40 7 z" fill="black" /><!-- width=120 height=115 -->
<path id="gl18695" d="M 30 7 C 22 9 19 10 16 15 C 12 21 14 27 21 29 C 24 30 27 27 28 21 C 28 16 30 15 36 15 C 42 15 44 16 46 19 C 47 23 47 26 45 30 C 45 30 44 31 43 31 C 42 31 40 31 39 31 C 34 31 33 31 30 33 C 28 33 26 34 25 34 C 19 34 12 41 11 48 C 10 53 14 61 18 63 C 27 66 29 66 39 63 C 47 60 48 60 52 62 C 57 64 59 64 63 64 C 68 63 69 62 69 59 C 68 57 68 57 64 54 C 59 51 59 51 60 33 C 60 21 60 16 59 16 C 57 13 53 9 51 8 C 48 7 34 6 30 7 M 45 36 C 49 41 48 46 44 52 C 37 60 25 58 25 49 C 25 45 28 40 31 39 C 37 38 38 37 40 36 C 42 33 43 33 45 36 z" fill="black" /><!-- width=79 height=76 -->
<path id="gl24320" d="M 432 57 C 432 81 432 120 432 139 C 436 148 436 158 436 168 C 422 168 408 168 393 168 C 379 168 364 168 355 168 C 355 158 355 148 355 139 C 355 115 355 105 360 105 C 364 105 364 105 360 105 C 345 96 340 100 340 139 C 340 148 340 158 340 168 C 336 172 326 172 321 172 C 312 172 307 172 297 172 C 307 172 312 172 321 172 C 326 172 336 172 340 177 C 340 187 340 196 340 206 C 340 230 340 240 336 244 C 326 249 326 249 336 249 C 340 249 340 254 340 273 C 340 283 345 292 345 297 C 350 297 398 264 398 254 C 398 254 403 254 408 254 C 412 254 417 249 417 249 C 417 244 412 240 408 240 C 408 240 403 235 403 230 C 403 216 388 206 374 216 C 355 220 355 220 355 201 C 355 182 355 177 364 177 C 384 172 432 177 436 187 C 436 192 441 192 446 187 C 446 182 460 177 475 177 C 489 177 494 177 494 172 C 494 172 494 172 489 172 C 475 177 475 168 484 153 C 489 144 494 129 494 120 C 494 110 499 110 508 105 C 518 105 504 105 484 105 C 470 105 456 105 441 105 C 441 86 441 72 441 57 C 441 33 441 9 441 9 C 436 9 432 24 432 57 M 470 120 C 480 129 460 168 446 168 C 441 168 441 120 451 115 C 465 110 465 110 470 120 M 384 235 C 384 240 384 244 379 244 C 374 244 374 249 374 254 C 374 259 374 268 369 273 C 360 283 360 283 355 268 C 350 264 355 259 360 254 C 369 249 369 249 360 244 C 350 240 350 235 360 225 C 369 216 384 225 384 235 M 182 19 C 168 28 144 100 153 110 C 153 115 158 129 158 144 C 158 163 158 168 148 168 C 139 172 139 172 139 177 C 139 182 134 192 129 201 C 120 206 110 220 105 230 C 100 240 96 244 86 244 C 72 244 72 244 81 249 C 86 249 86 254 86 268 C 86 278 81 292 81 297 C 81 312 81 312 52 312 C 14 316 14 312 14 283 C 14 254 14 249 28 244 C 38 244 38 244 24 244 C 9 240 4 187 19 177 C 24 172 24 172 19 168 C 14 168 9 158 14 134 C 14 115 14 100 9 100 C 9 100 4 168 4 249 C 4 326 9 388 9 388 C 14 388 14 379 14 364 C 9 321 14 316 48 316 C 57 316 67 316 76 316 C 81 326 86 331 91 340 C 100 350 110 364 115 374 C 129 384 129 384 120 388 C 110 393 120 393 158 393 C 216 398 211 393 220 451 C 220 484 220 484 220 441 C 220 427 220 412 220 398 C 220 398 225 393 230 393 C 240 393 244 393 244 388 C 244 384 249 379 254 369 C 264 360 268 345 268 340 C 273 326 273 321 283 321 C 288 321 288 321 292 321 C 288 321 288 321 283 316 C 278 316 268 307 268 297 C 268 288 259 273 254 268 C 240 254 244 249 259 244 C 264 244 249 244 230 244 C 216 240 201 240 187 240 C 187 235 187 225 182 220 C 177 201 187 182 206 177 C 216 172 216 172 216 172 C 211 168 211 163 216 148 C 230 110 230 105 225 72 C 216 24 201 4 182 19 M 206 52 C 211 57 211 67 211 81 C 211 100 211 100 192 100 C 168 105 163 96 177 72 C 187 48 196 43 206 52 M 201 115 C 201 124 177 153 172 148 C 172 148 168 139 168 129 C 168 120 163 115 163 105 C 172 105 177 105 182 105 C 196 105 201 110 201 115 M 177 230 C 177 240 177 240 163 240 C 144 244 144 240 158 220 C 168 206 172 211 177 230 M 148 264 C 144 273 134 288 134 297 C 129 307 129 316 124 316 C 120 316 115 316 115 316 C 115 321 120 326 124 326 C 124 326 134 331 139 336 C 148 350 148 350 148 340 C 144 331 148 326 153 321 C 158 321 158 316 153 316 C 144 307 153 292 168 283 C 182 273 192 278 187 302 C 187 312 192 321 192 326 C 196 331 201 345 201 360 C 201 369 206 379 206 388 C 196 388 192 388 182 388 C 144 388 115 360 110 316 C 105 292 120 259 139 254 C 158 244 163 249 148 264 M 230 288 C 249 302 249 307 240 316 C 230 321 230 321 240 321 C 259 326 249 369 225 374 C 216 379 211 374 206 345 C 201 326 201 326 216 321 C 225 321 230 321 225 321 C 220 316 216 316 211 316 C 206 321 201 307 196 292 C 192 273 211 268 230 288 M 1651 72 C 1651 86 1651 96 1651 110 C 1608 105 1564 105 1521 105 C 1478 105 1440 105 1396 105 C 1396 100 1396 96 1392 91 C 1392 81 1392 76 1392 72 C 1392 76 1392 81 1387 91 C 1387 96 1387 100 1387 105 C 1339 105 1291 105 1243 105 C 1195 105 1147 105 1099 105 C 1099 115 1099 129 1099 139 C 1099 153 1104 163 1104 177 C 1060 177 1012 177 969 177 C 926 177 883 177 840 177 C 835 168 835 163 835 158 C 830 153 830 148 830 144 C 830 148 830 153 830 158 C 830 163 830 168 825 177 C 777 172 729 172 681 172 C 628 172 580 172 532 172 C 532 168 532 163 532 158 C 528 144 518 148 518 163 C 518 168 518 177 513 177 C 508 177 508 177 513 177 C 518 177 518 192 518 211 C 518 225 518 235 518 244 C 508 249 499 249 489 249 C 480 249 465 249 456 249 C 465 249 480 249 489 249 C 499 249 508 249 518 254 C 518 264 518 273 518 288 C 518 297 518 307 518 316 C 504 321 484 321 470 321 C 451 321 436 321 417 321 C 432 321 451 321 465 321 C 504 321 518 326 523 331 C 528 336 528 336 537 331 C 547 326 566 326 672 326 C 825 326 825 326 825 345 C 825 360 825 364 806 364 C 787 364 782 364 768 379 C 763 379 758 388 753 388 C 720 393 681 393 643 393 C 604 393 571 393 532 393 C 571 393 604 393 643 393 C 676 393 715 393 748 398 C 753 398 753 403 753 408 C 758 422 763 422 768 408 C 768 398 806 388 806 403 C 806 408 792 417 782 417 C 777 417 772 422 772 427 C 772 436 806 427 820 412 C 835 398 835 398 883 393 C 897 393 912 393 926 393 C 912 393 897 393 883 393 C 835 388 835 388 835 350 C 835 340 835 336 830 331 C 840 331 849 326 854 326 C 868 326 916 326 964 326 C 998 331 1027 331 1056 331 C 1051 336 1046 340 1041 340 C 1032 350 1027 355 1032 374 C 1032 384 1032 393 1027 393 C 1003 393 964 398 964 398 C 960 398 1099 398 1267 398 C 1540 398 1555 398 1396 398 C 1296 393 1214 393 1214 388 C 1214 388 1209 374 1209 350 C 1209 340 1209 336 1209 326 C 1228 326 1248 326 1262 326 C 1305 326 1315 331 1315 336 C 1324 364 1353 369 1377 345 C 1387 340 1392 336 1396 326 C 1459 326 1521 326 1579 326 C 1641 326 1704 326 1761 326 C 1761 340 1761 350 1761 360 C 1761 388 1761 393 1756 398 C 1752 398 1756 398 1766 398 C 1780 398 1785 398 1780 393 C 1771 384 1771 259 1780 254 C 1790 254 1790 254 1780 249 C 1776 249 1776 240 1776 192 C 1776 163 1771 134 1771 134 C 1771 134 1771 124 1776 120 C 1776 110 1776 110 1761 110 C 1747 110 1747 110 1752 110 C 1761 115 1761 115 1761 144 C 1761 177 1761 177 1718 177 C 1704 177 1694 182 1694 182 C 1689 182 1708 187 1728 187 C 1737 187 1752 187 1761 187 C 1761 196 1761 206 1761 216 C 1761 249 1761 249 1752 254 C 1752 254 1747 254 1742 254 C 1747 254 1752 254 1752 254 C 1761 254 1761 259 1761 288 C 1761 302 1761 312 1761 326 C 1742 326 1723 326 1704 326 C 1641 326 1632 321 1646 302 C 1656 292 1656 283 1656 273 C 1656 259 1660 254 1665 254 C 1675 254 1675 254 1665 249 C 1651 244 1656 187 1670 182 C 1670 177 1675 177 1680 177 C 1675 177 1670 177 1670 177 C 1660 177 1656 172 1656 144 C 1656 115 1660 110 1670 110 C 1670 110 1675 110 1680 110 C 1675 110 1670 110 1670 105 C 1660 105 1656 100 1656 81 C 1656 48 1656 48 1651 43 C 1651 38 1651 52 1651 72 M 1204 124 C 1204 129 1204 144 1204 153 C 1204 163 1200 168 1200 177 C 1185 177 1171 177 1152 177 C 1137 177 1123 177 1108 177 C 1108 168 1108 158 1108 148 C 1108 110 1104 115 1156 115 C 1200 115 1200 115 1204 124 M 1387 144 C 1387 153 1387 163 1387 177 C 1358 177 1329 177 1300 177 C 1272 177 1243 177 1209 177 C 1209 163 1209 153 1209 144 C 1209 134 1209 124 1209 115 C 1243 115 1272 115 1300 115 C 1329 115 1358 115 1387 115 C 1387 124 1387 134 1387 144 M 1651 144 C 1651 153 1651 163 1651 177 C 1636 177 1622 177 1608 177 C 1588 177 1560 177 1545 177 C 1536 177 1526 177 1526 182 C 1526 182 1555 187 1588 187 C 1608 187 1627 187 1651 187 C 1651 196 1651 206 1651 216 C 1651 235 1646 249 1646 249 C 1641 249 1588 249 1521 249 C 1483 254 1444 254 1406 254 C 1440 254 1468 254 1502 254 C 1555 254 1598 259 1598 259 C 1598 259 1593 268 1584 273 C 1579 283 1574 292 1579 302 C 1579 312 1579 316 1579 321 C 1550 321 1521 321 1492 321 C 1425 321 1401 321 1396 316 C 1392 307 1392 254 1401 254 C 1406 254 1406 254 1401 249 C 1392 244 1392 187 1401 182 C 1406 182 1406 177 1401 177 C 1396 177 1396 163 1396 144 C 1396 134 1396 124 1396 115 C 1435 115 1478 115 1521 115 C 1564 115 1608 115 1651 115 C 1651 124 1651 134 1651 144 M 825 216 C 825 225 825 235 825 249 C 777 244 729 244 681 244 C 628 244 580 244 532 244 C 532 235 532 225 532 220 C 528 177 518 177 681 177 C 729 177 777 177 825 177 C 825 192 825 201 825 216 M 1099 216 C 1104 240 1099 249 1094 249 C 1089 249 1089 249 1094 254 C 1099 254 1099 273 1099 288 C 1099 297 1099 307 1099 316 C 1089 316 1075 321 1060 321 C 1041 321 979 321 931 321 C 897 316 868 316 835 316 C 835 307 835 297 835 288 C 835 273 835 264 835 254 C 878 254 916 254 960 254 C 1032 254 1089 254 1089 249 C 1089 249 1032 244 960 244 C 916 244 878 244 835 244 C 835 235 835 225 835 216 C 835 201 835 187 835 182 C 835 182 897 182 969 182 C 1012 182 1056 182 1099 182 C 1099 192 1099 201 1099 216 M 1204 182 C 1204 216 1204 244 1200 249 C 1200 254 1118 249 1108 244 C 1104 240 1104 187 1108 182 C 1113 177 1204 177 1204 182 M 1382 182 C 1387 182 1392 192 1387 216 C 1387 230 1387 240 1387 249 C 1358 249 1329 249 1300 249 C 1272 249 1243 249 1214 249 C 1214 240 1214 230 1214 220 C 1214 206 1214 192 1214 187 C 1214 182 1358 182 1382 182 M 825 288 C 825 297 825 307 825 316 C 782 316 739 316 691 316 C 619 316 556 316 556 316 C 556 316 566 307 571 302 C 585 288 585 283 585 264 C 580 259 580 254 580 254 C 624 254 662 254 705 254 C 744 254 787 254 825 254 C 825 264 825 273 825 288 M 1204 283 C 1204 326 1209 326 1156 326 C 1104 326 1108 326 1108 283 C 1108 273 1108 264 1108 254 C 1123 259 1137 259 1156 259 C 1171 259 1185 259 1204 259 C 1204 268 1204 278 1204 283 M 1387 273 C 1387 288 1387 288 1368 288 C 1348 288 1344 292 1329 307 C 1324 312 1315 316 1310 326 C 1296 321 1276 321 1262 321 C 1248 321 1228 321 1214 321 C 1214 312 1214 302 1214 288 C 1214 278 1214 268 1209 254 C 1243 254 1272 254 1300 254 C 1329 254 1358 254 1387 254 C 1387 264 1387 268 1387 273 M 561 273 C 566 283 547 316 537 316 C 532 316 528 288 532 273 C 537 259 561 259 561 273 M 1382 302 C 1382 316 1377 326 1358 326 C 1339 326 1339 316 1358 307 C 1382 292 1382 292 1382 302 M 1204 360 C 1204 374 1204 384 1204 393 C 1185 393 1166 393 1147 393 C 1084 388 1089 388 1099 374 C 1104 369 1108 360 1108 350 C 1108 331 1108 326 1156 326 C 1171 326 1185 326 1204 326 C 1204 340 1204 350 1204 360 M 1372 331 C 1372 340 1344 350 1334 350 C 1329 350 1329 350 1329 340 C 1329 331 1329 326 1348 326 C 1358 326 1372 331 1372 331 M 820 388 C 820 388 811 388 796 388 C 792 388 782 388 777 388 C 782 384 792 379 801 379 C 806 374 816 369 820 364 C 820 369 820 374 820 379 C 825 384 820 388 820 388 M 5227 76 C 5227 86 5227 96 5227 105 C 5212 110 5193 110 5179 110 C 5150 110 5102 110 5068 110 C 5040 110 5016 110 5016 115 C 5016 115 5059 115 5116 115 C 5169 115 5217 115 5222 115 C 5227 120 5227 129 5227 148 C 5227 158 5227 168 5227 177 C 5193 177 5155 177 5116 177 C 5078 177 5044 177 5006 177 C 5006 177 5001 172 5001 168 C 4996 153 4996 124 5006 120 C 5011 115 5011 110 5006 105 C 5001 100 5001 96 5001 91 C 5001 81 5001 76 5001 76 C 4996 76 4996 86 4996 91 C 4996 110 4968 115 4833 110 C 4780 110 4732 110 4737 110 C 4742 115 4771 115 4896 115 C 4929 115 4963 115 4996 115 C 4996 129 4996 139 4996 148 C 4996 177 4992 182 4982 182 C 4977 182 4972 182 4968 182 C 4972 182 4977 182 4982 187 C 4992 192 4996 192 4996 220 C 4996 230 4996 240 4996 254 C 4958 254 4920 254 4881 254 C 4843 254 4804 254 4766 254 C 4766 249 4766 244 4761 240 C 4752 216 4723 216 4694 240 C 4684 249 4684 254 4632 254 C 4617 254 4598 254 4579 254 C 4584 240 4584 230 4584 220 C 4584 206 4584 196 4584 187 C 4646 187 4713 187 4776 182 C 4838 182 4905 182 4968 182 C 4905 182 4838 182 4776 182 C 4708 182 4646 182 4579 177 C 4579 168 4579 158 4579 148 C 4579 139 4579 129 4579 115 C 4603 115 4627 115 4651 115 C 4704 115 4718 115 4699 110 C 4689 110 4656 110 4622 110 C 4608 110 4588 110 4569 110 C 4569 120 4569 134 4569 144 C 4569 158 4574 168 4574 182 C 4468 177 4368 177 4267 177 C 4166 177 4060 177 3960 177 C 3960 172 3960 168 3960 163 C 3955 153 3960 139 3960 129 C 3960 124 3960 115 3964 110 C 4041 110 4118 115 4195 115 C 4320 115 4420 115 4416 110 C 4416 110 4281 110 4118 110 C 3888 110 3825 105 3825 100 C 3825 100 3825 86 3825 76 C 3825 72 3825 57 3825 52 C 3820 48 3820 57 3820 76 C 3820 86 3816 96 3816 105 C 3796 110 3772 110 3753 110 C 3729 110 3710 110 3686 110 C 3710 110 3729 110 3753 110 C 3772 110 3796 110 3816 115 C 3816 124 3816 134 3816 144 C 3816 158 3816 168 3816 177 C 3801 182 3787 182 3768 182 C 3753 182 3734 182 3720 182 C 3734 182 3753 182 3768 182 C 3787 182 3801 182 3816 187 C 3816 196 3816 206 3816 216 C 3816 230 3816 240 3816 254 C 3777 254 3734 254 3691 254 C 3571 254 3571 254 3662 254 C 3772 259 3772 259 3763 273 C 3748 283 3744 302 3748 312 C 3748 316 3748 321 3744 321 C 3744 326 3787 326 3844 326 C 3878 331 3916 331 3950 331 C 3950 340 3950 350 3950 364 C 3950 374 3950 384 3955 393 C 3892 398 3835 398 3777 398 C 3720 398 3662 398 3604 398 C 3681 398 3758 398 3835 398 C 3907 403 3984 403 4060 403 C 4060 417 4060 436 4065 451 C 4065 470 4065 489 4065 504 C 4065 489 4065 470 4070 451 C 4070 436 4070 417 4070 403 C 4128 403 4180 403 4238 403 C 4291 403 4348 403 4401 398 C 4401 412 4401 422 4401 436 C 4401 456 4406 465 4406 465 C 4411 465 4411 451 4411 436 C 4411 398 4411 398 4502 403 C 4550 403 4588 398 4588 398 C 4593 398 4588 393 4588 393 C 4584 393 4579 388 4584 364 C 4584 336 4584 331 4593 331 C 4598 331 4617 331 4641 331 C 4656 331 4670 331 4684 331 C 4684 345 4684 355 4684 364 C 4684 374 4684 384 4684 393 C 4675 393 4670 393 4665 393 C 4660 393 4656 398 4656 403 C 4656 403 4665 403 4670 403 C 4680 403 4684 408 4684 451 C 4684 475 4684 499 4684 499 C 4689 499 4689 484 4689 456 C 4689 412 4694 403 4699 403 C 4708 398 4708 398 4699 398 C 4694 398 4694 388 4689 364 C 4689 355 4689 345 4689 331 C 4728 331 4766 331 4804 331 C 4915 331 4924 336 4924 340 C 4924 374 4977 374 4996 340 C 4996 336 5001 331 5006 331 C 5011 331 5011 331 5011 326 C 5001 316 4996 292 5001 278 C 5001 268 5006 264 5006 264 C 5035 264 5064 264 5092 264 C 5121 264 5155 264 5184 264 C 5179 264 5174 268 5169 273 C 5164 283 5160 292 5160 307 C 5160 312 5160 316 5160 326 C 5140 326 5116 326 5097 326 C 5064 326 5030 326 5030 326 C 5025 321 5020 326 5020 326 C 5020 331 5064 331 5136 331 C 5203 331 5241 331 5241 326 C 5241 326 5236 326 5227 326 C 5222 326 5222 321 5232 307 C 5236 297 5241 288 5241 278 C 5241 268 5241 259 5241 259 C 5246 259 5280 259 5318 259 C 5342 259 5366 259 5395 259 C 5395 268 5395 278 5395 292 C 5395 312 5390 326 5385 326 C 5385 326 5356 326 5328 326 C 5299 326 5270 326 5265 326 C 5260 331 5280 331 5323 331 C 5347 331 5371 331 5395 331 C 5395 345 5395 355 5395 364 C 5395 374 5395 384 5395 393 C 5376 393 5361 393 5342 393 C 5313 393 5299 398 5299 398 C 5299 403 5342 403 5409 403 C 5467 403 5515 403 5520 403 C 5524 408 5529 417 5529 456 C 5529 518 5534 513 5539 446 C 5539 432 5539 417 5539 403 C 5577 403 5616 403 5649 403 C 5688 403 5726 403 5764 403 C 5764 355 5764 307 5764 259 C 5764 148 5764 115 5760 110 C 5750 105 5256 105 5260 115 C 5265 115 5284 115 5328 115 C 5352 115 5371 115 5395 115 C 5395 124 5395 134 5395 148 C 5395 158 5395 168 5395 177 C 5366 177 5342 177 5313 177 C 5289 177 5265 177 5241 177 C 5241 168 5241 158 5241 148 C 5241 124 5241 115 5246 115 C 5256 110 5256 110 5246 110 C 5241 110 5241 105 5241 76 C 5241 57 5236 43 5236 43 C 5232 43 5227 57 5227 76 M 3950 144 C 3950 158 3950 168 3950 177 C 3931 177 3912 177 3888 177 C 3868 177 3849 177 3830 177 C 3830 168 3830 158 3830 144 C 3830 134 3830 124 3830 115 C 3849 115 3868 115 3888 115 C 3912 115 3931 115 3950 115 C 3950 124 3950 134 3950 144 M 5760 120 C 5760 120 5760 134 5760 153 C 5760 163 5760 172 5760 177 C 5702 177 5644 177 5582 177 C 5524 177 5462 177 5400 177 C 5400 168 5400 158 5400 148 C 5400 134 5404 115 5404 115 C 5409 110 5750 115 5760 120 M 3950 216 C 3950 230 3950 240 3950 254 C 3931 254 3912 254 3892 254 C 3868 254 3849 254 3830 254 C 3830 244 3825 235 3825 225 C 3825 182 3820 187 3892 187 C 3912 187 3931 187 3950 187 C 3950 196 3950 206 3950 216 M 4425 187 C 4425 187 4420 196 4416 206 C 4411 216 4401 230 4401 240 C 4401 244 4401 249 4401 254 C 4363 254 4320 254 4276 254 C 4233 254 4190 254 4147 254 C 4147 249 4142 244 4142 240 C 4142 240 4142 235 4137 230 C 4137 235 4137 240 4132 240 C 4128 249 4123 254 4108 254 C 4089 254 4084 244 4108 235 C 4128 230 4132 216 4118 216 C 4104 216 4080 230 4070 240 C 4065 249 4060 254 4012 249 C 3993 249 3979 249 3960 249 C 3960 240 3960 230 3960 216 C 3960 206 3960 196 3960 187 C 4036 187 4113 187 4190 187 C 4315 187 4420 187 4425 187 M 4569 216 C 4569 230 4569 240 4569 254 C 4555 254 4536 254 4516 254 C 4502 254 4483 254 4464 254 C 4468 244 4473 240 4478 235 C 4483 230 4488 216 4483 206 C 4483 196 4483 192 4483 187 C 4483 187 4507 187 4526 187 C 4545 187 4555 187 4569 187 C 4569 196 4569 206 4569 216 M 5227 216 C 5227 230 5227 240 5227 254 C 5193 254 5155 254 5116 254 C 4992 254 4996 254 4996 220 C 4996 182 4996 187 5121 187 C 5155 187 5193 187 5227 187 C 5227 196 5227 206 5227 216 M 5385 187 C 5390 192 5395 196 5395 220 C 5395 230 5395 240 5395 254 C 5366 254 5342 254 5313 254 C 5289 254 5265 254 5241 254 C 5241 240 5241 230 5241 220 C 5241 206 5241 192 5241 187 C 5246 182 5376 182 5385 187 M 5726 187 C 5736 187 5750 192 5760 192 C 5760 201 5760 211 5760 220 C 5760 230 5760 240 5760 254 C 5736 254 5712 254 5688 254 C 5611 254 5611 249 5606 240 C 5606 240 5606 235 5601 230 C 5601 235 5601 240 5596 240 C 5592 249 5587 254 5577 254 C 5553 254 5558 240 5577 235 C 5596 230 5596 225 5587 220 C 5577 216 5539 235 5534 244 C 5534 249 5520 254 5467 254 C 5448 254 5424 254 5400 254 C 5400 240 5400 230 5400 220 C 5400 192 5404 192 5414 187 C 5433 187 5688 182 5726 187 M 3950 292 C 3950 302 3950 312 3955 326 C 3931 326 3907 326 3883 326 C 3840 326 3811 321 3811 321 C 3811 321 3811 312 3816 302 C 3825 292 3830 283 3830 273 C 3830 259 3830 254 3892 259 C 3912 259 3931 259 3950 259 C 3950 268 3950 278 3950 292 M 4060 292 C 4060 302 4060 312 4065 326 C 4046 326 4027 326 4008 326 C 3993 326 3974 326 3955 326 C 3955 312 3960 302 3960 292 C 3960 254 3955 254 4012 259 C 4027 259 4046 259 4060 259 C 4060 268 4060 278 4060 292 M 4113 259 C 4118 264 4118 268 4108 273 C 4094 283 4075 283 4075 273 C 4075 259 4099 249 4113 259 M 4392 259 C 4406 264 4411 321 4396 326 C 4387 326 4387 326 4396 331 C 4401 336 4401 345 4401 364 C 4401 374 4401 384 4401 393 C 4348 393 4291 393 4238 393 C 4180 393 4123 393 4065 393 C 4065 384 4065 374 4065 364 C 4065 326 4060 326 4233 331 C 4334 331 4377 331 4377 331 C 4377 326 4329 326 4224 326 C 4171 326 4118 326 4065 326 C 4065 316 4065 312 4065 307 C 4065 292 4070 288 4080 292 C 4104 292 4113 288 4132 273 C 4137 268 4142 264 4147 259 C 4185 259 4224 259 4262 259 C 4329 259 4387 259 4392 259 M 4569 292 C 4569 307 4569 326 4569 326 C 4564 326 4531 326 4488 326 C 4464 326 4440 321 4416 321 C 4416 312 4416 302 4416 292 C 4416 283 4416 273 4416 264 C 4420 264 4430 259 4440 259 C 4454 259 4492 259 4521 259 C 4536 259 4555 259 4569 259 C 4569 268 4569 278 4569 292 M 4660 259 C 4670 259 4675 264 4684 264 C 4684 273 4680 283 4680 292 C 4680 307 4680 316 4680 326 C 4675 326 4665 326 4660 326 C 4651 331 4627 326 4612 326 C 4603 326 4593 326 4579 321 C 4579 312 4579 302 4579 292 C 4579 278 4584 264 4584 259 C 4588 259 4636 254 4660 259 M 4953 259 C 4968 259 4982 259 4996 264 C 4996 268 4996 273 4996 278 C 4996 292 4992 292 4982 292 C 4963 288 4939 297 4929 316 C 4920 326 4920 326 4809 326 C 4771 326 4732 326 4694 326 C 4694 321 4694 316 4694 307 C 4694 302 4689 297 4689 292 C 4699 292 4704 292 4713 292 C 4732 292 4737 292 4752 278 C 4756 268 4761 264 4766 259 C 4790 259 4814 259 4843 259 C 4881 259 4934 259 4953 259 M 5496 259 C 5505 259 5515 264 5529 264 C 5529 273 5529 283 5529 292 C 5529 302 5529 312 5529 326 C 5505 326 5486 326 5462 326 C 5443 326 5424 326 5400 326 C 5400 312 5400 302 5400 292 C 5400 283 5400 273 5400 264 C 5409 259 5419 259 5428 259 C 5443 259 5457 259 5462 259 C 5462 259 5481 259 5496 259 M 5582 268 C 5572 278 5548 288 5544 283 C 5534 268 5544 264 5563 264 C 5582 264 5587 264 5582 268 M 5760 292 C 5760 316 5760 321 5755 326 C 5750 326 5702 326 5644 326 C 5606 326 5572 321 5534 321 C 5534 316 5534 312 5534 307 C 5534 292 5539 292 5558 292 C 5577 292 5582 292 5592 278 C 5596 273 5601 268 5606 264 C 5630 264 5659 264 5683 264 C 5712 264 5736 264 5760 264 C 5760 273 5760 283 5760 292 M 4060 364 C 4060 374 4060 384 4065 393 C 4046 393 4027 393 4012 393 C 3993 393 3974 393 3955 393 C 3955 384 3955 374 3955 364 C 3955 326 3955 331 4012 331 C 4032 331 4046 331 4060 331 C 4060 340 4060 350 4060 364 M 4574 340 C 4574 340 4574 355 4574 369 C 4574 379 4574 384 4574 393 C 4545 393 4521 393 4492 393 C 4468 393 4440 393 4416 398 C 4416 388 4411 379 4411 374 C 4406 331 4401 331 4502 331 C 4560 331 4569 331 4574 340 M 5529 364 C 5529 374 5529 384 5529 393 C 5505 393 5486 393 5462 393 C 5443 393 5424 393 5400 393 C 5400 384 5400 374 5400 364 C 5400 355 5400 345 5400 331 C 5424 331 5443 331 5462 331 C 5486 331 5505 331 5529 331 C 5529 345 5529 355 5529 364 M 5760 364 C 5760 374 5760 384 5760 393 C 5721 393 5688 393 5649 393 C 5611 393 5572 393 5534 398 C 5534 384 5534 374 5534 364 C 5534 355 5534 345 5534 331 C 5572 331 5611 331 5649 331 C 5688 331 5726 331 5764 331 C 5760 345 5760 355 5760 364 M 2510 91 C 2510 96 2510 100 2510 105 C 2472 110 2438 110 2404 110 C 2342 110 2308 110 2313 115 C 2332 120 2332 244 2313 249 C 2304 254 2304 254 2313 259 C 2323 259 2323 264 2323 292 C 2323 302 2323 312 2323 321 C 2304 321 2289 321 2275 326 C 2256 326 2236 326 2222 326 C 2236 326 2256 326 2275 331 C 2289 331 2304 331 2323 331 C 2323 336 2323 345 2323 350 C 2328 384 2323 393 2308 398 C 2304 398 2467 398 2668 398 C 3038 403 3043 403 3043 412 C 3048 436 3081 441 3105 417 C 3120 408 3129 398 3134 398 C 3139 398 3134 398 3129 393 C 3120 388 3120 340 3129 331 C 3134 326 3134 326 3129 326 C 3124 326 3120 316 3124 292 C 3124 278 3124 268 3124 259 C 3148 259 3172 259 3196 254 C 3220 254 3244 254 3268 254 C 3244 254 3220 254 3196 254 C 3172 254 3144 254 3120 254 C 3120 240 3124 230 3124 220 C 3124 206 3124 196 3124 187 C 3148 187 3172 187 3196 182 C 3225 182 3249 182 3273 182 C 3249 182 3225 182 3196 177 C 3172 177 3148 177 3124 177 C 3124 172 3124 168 3120 163 C 3120 153 3120 148 3120 144 C 3120 148 3120 153 3115 163 C 3115 168 3115 172 3115 177 C 3081 177 3043 177 3009 177 C 2976 177 2937 177 2904 177 C 2904 168 2904 158 2904 144 C 2904 134 2904 124 2904 115 C 2932 115 2961 115 2990 110 C 3038 110 2952 110 2798 110 C 2702 110 2611 110 2520 105 C 2515 100 2515 96 2515 91 C 2510 81 2510 76 2510 72 C 2510 76 2510 81 2510 91 M 2505 144 C 2505 153 2505 168 2505 177 C 2486 177 2467 177 2448 177 C 2414 177 2380 177 2380 177 C 2371 182 2390 182 2438 182 C 2462 182 2486 182 2510 187 C 2510 196 2510 206 2510 220 C 2510 230 2510 240 2510 254 C 2476 249 2448 249 2419 249 C 2390 249 2361 249 2332 249 C 2332 225 2332 201 2332 182 C 2332 158 2332 134 2332 115 C 2361 115 2390 115 2419 115 C 2448 115 2476 115 2510 115 C 2505 124 2505 134 2505 144 M 2774 144 C 2774 153 2774 168 2774 177 C 2731 177 2692 177 2649 177 C 2582 177 2524 177 2520 172 C 2515 172 2510 139 2515 124 C 2515 120 2515 115 2520 115 C 2563 115 2606 115 2649 115 C 2692 115 2736 115 2779 115 C 2774 124 2774 134 2774 144 M 2899 148 C 2899 158 2899 168 2899 182 C 2880 177 2860 177 2841 177 C 2822 177 2803 177 2784 177 C 2784 168 2784 153 2784 144 C 2784 134 2784 124 2779 115 C 2798 115 2817 115 2836 115 C 2856 115 2875 115 2899 115 C 2899 124 2899 134 2899 148 M 2774 216 C 2774 230 2774 240 2774 249 C 2731 249 2688 249 2644 249 C 2606 249 2563 249 2520 254 C 2520 240 2515 230 2515 220 C 2515 206 2515 192 2515 187 C 2515 187 2577 187 2649 187 C 2692 187 2736 187 2779 187 C 2774 196 2774 206 2774 216 M 2899 220 C 2899 230 2899 240 2899 254 C 2880 249 2860 249 2841 249 C 2822 249 2803 249 2784 249 C 2784 240 2784 230 2784 216 C 2784 206 2784 196 2779 187 C 2798 187 2817 187 2836 187 C 2856 187 2875 187 2899 187 C 2899 196 2899 206 2899 220 M 3115 216 C 3115 230 3115 240 3115 249 C 3081 249 3043 249 3009 249 C 2976 249 2937 249 2904 249 C 2904 240 2904 230 2904 225 C 2899 182 2894 182 3009 187 C 3043 187 3081 187 3115 187 C 3115 196 3115 206 3115 216 M 2510 278 C 2510 292 2505 297 2496 292 C 2476 288 2462 292 2448 312 C 2443 316 2438 321 2433 326 C 2414 321 2400 321 2380 321 C 2366 321 2347 321 2332 321 C 2332 312 2332 302 2332 288 C 2332 278 2332 268 2328 254 C 2361 254 2390 254 2419 254 C 2448 254 2476 254 2510 254 C 2510 264 2510 268 2510 278 M 2774 288 C 2774 302 2774 312 2774 321 C 2731 321 2688 321 2644 321 C 2601 321 2558 321 2515 321 C 2515 316 2515 307 2515 302 C 2515 292 2515 278 2515 268 C 2515 264 2515 259 2520 254 C 2558 259 2601 259 2644 259 C 2688 259 2731 259 2774 259 C 2774 268 2774 278 2774 288 M 2899 288 C 2899 302 2899 312 2899 326 C 2875 326 2856 326 2836 326 C 2817 326 2803 326 2784 326 C 2784 312 2784 302 2784 292 C 2784 278 2784 264 2784 259 C 2788 259 2812 254 2841 254 C 2860 254 2880 254 2899 254 C 2899 268 2899 278 2899 288 M 3115 312 C 3115 379 3110 393 3091 393 C 3072 393 3072 388 3091 374 C 3100 374 3105 369 3105 364 C 3096 360 3067 369 3052 384 C 3043 398 3043 398 2971 393 C 2952 393 2928 393 2904 393 C 2904 384 2904 374 2904 364 C 2904 350 2904 340 2904 331 C 2923 331 2942 331 2961 326 C 2980 326 3000 326 3019 326 C 3000 326 2980 326 2961 326 C 2918 326 2908 321 2904 316 C 2899 307 2899 264 2904 259 C 2908 259 2956 259 3009 259 C 3048 259 3081 259 3115 259 C 3115 278 3115 292 3115 312 M 2500 312 C 2500 321 2496 321 2481 321 C 2462 326 2457 316 2476 307 C 2491 297 2505 297 2500 312 M 2433 336 C 2438 355 2443 360 2462 360 C 2481 364 2486 360 2500 345 C 2505 340 2510 336 2515 326 C 2553 326 2587 326 2620 326 C 2678 326 2721 331 2721 331 C 2721 331 2716 340 2712 350 C 2702 364 2702 369 2702 384 C 2702 388 2707 393 2707 398 C 2644 393 2582 393 2520 393 C 2457 393 2395 393 2332 393 C 2332 384 2332 374 2332 360 C 2332 350 2332 340 2328 326 C 2347 326 2361 326 2380 326 C 2424 326 2433 331 2433 336 M 2491 331 C 2491 340 2467 350 2457 350 C 2443 350 2443 350 2448 336 C 2452 326 2491 326 2491 331 M 2899 364 C 2899 374 2899 384 2899 393 C 2875 393 2851 393 2832 393 C 2793 393 2764 393 2764 393 C 2764 393 2764 384 2769 379 C 2779 369 2784 360 2784 350 C 2784 331 2784 326 2841 326 C 2860 326 2880 326 2899 326 C 2899 340 2899 350 2899 364 M 3100 403 C 3100 412 3072 427 3062 427 C 3052 427 3052 408 3057 403 C 3062 398 3100 398 3100 403 M 1948 91 C 1948 100 1944 105 1939 110 C 1934 110 1929 110 1924 110 C 1929 110 1934 110 1939 115 C 1948 115 1948 120 1948 139 C 1948 153 1948 168 1948 172 C 1944 172 1944 182 1944 187 C 1948 196 1948 288 1944 292 C 1944 297 1944 302 1944 302 C 1948 307 1934 326 1924 326 C 1915 326 1915 326 1920 331 C 1929 336 1915 350 1896 350 C 1891 350 1891 355 1891 355 C 1891 369 1924 360 1939 345 C 1948 336 1963 326 1968 326 C 1972 326 1977 326 1982 326 C 1977 326 1972 326 1968 326 C 1958 321 1958 316 1958 288 C 1958 278 1958 268 1953 254 C 1963 254 1968 254 1977 254 C 1982 254 1992 254 1996 254 C 1992 254 1982 254 1977 254 C 1972 249 1963 249 1958 249 C 1958 240 1958 230 1958 216 C 1953 192 1958 187 1963 187 C 1968 187 1968 182 1968 177 C 1968 177 1968 177 1963 177 C 1958 177 1958 168 1958 144 C 1958 124 1958 115 1963 115 C 1963 115 1963 110 1963 105 C 1958 105 1958 96 1953 91 C 1953 76 1953 76 1948 91 M 3532 91 C 3528 100 3528 120 3528 139 C 3532 163 3528 177 3528 177 C 3523 177 3523 182 3523 187 C 3528 192 3528 206 3528 220 C 3528 230 3528 240 3528 249 C 3513 249 3499 249 3484 254 C 3475 254 3460 254 3446 254 C 3460 254 3475 254 3484 259 C 3499 259 3513 259 3528 259 C 3528 264 3528 268 3528 278 C 3528 292 3528 292 3518 292 C 3494 288 3484 292 3465 312 C 3451 326 3451 326 3456 340 C 3470 369 3494 374 3523 345 C 3537 331 3542 331 3576 326 C 3585 326 3600 326 3609 326 C 3595 326 3585 326 3571 326 C 3561 326 3547 326 3537 326 C 3537 302 3537 278 3537 254 C 3537 230 3537 211 3537 187 C 3561 187 3590 187 3614 182 C 3638 182 3667 182 3691 182 C 3667 182 3638 182 3614 177 C 3590 177 3561 177 3537 177 C 3537 168 3537 158 3537 148 C 3532 124 3537 120 3542 115 C 3552 110 3552 105 3542 105 C 3537 105 3532 100 3532 91 C 3532 86 3532 81 3532 76 C 3532 81 3532 86 3532 91 M 3523 312 C 3523 316 3518 321 3513 321 C 3504 326 3504 326 3504 331 C 3513 340 3494 350 3475 350 C 3456 350 3460 340 3480 331 C 3489 326 3489 326 3489 326 C 3470 321 3504 302 3518 302 C 3523 302 3528 302 3523 312 M 537 105 C 547 110 1089 110 1089 105 C 1089 105 960 105 811 105 C 657 105 532 105 537 105 M 2193 110 C 2203 115 2203 177 2193 177 C 2193 177 2193 177 2193 182 C 2198 187 2198 201 2198 220 C 2198 230 2198 240 2198 249 C 2188 249 2179 249 2169 254 C 2160 254 2150 254 2140 254 C 2150 254 2160 254 2169 254 C 2179 254 2188 254 2203 254 C 2203 268 2198 278 2198 288 C 2198 302 2198 312 2198 321 C 2184 321 2169 321 2155 326 C 2131 326 2121 326 2131 326 C 2150 331 2150 331 2140 345 C 2131 355 2131 364 2131 379 C 2131 388 2126 393 2121 398 C 2116 398 2136 398 2164 398 C 2198 398 2217 398 2208 398 C 2184 393 2184 393 2193 379 C 2203 374 2208 364 2208 350 C 2208 340 2208 331 2212 331 C 2217 326 2217 326 2212 321 C 2208 316 2203 312 2208 288 C 2208 278 2208 268 2208 259 C 2212 259 2222 259 2227 254 C 2236 254 2246 254 2251 254 C 2246 254 2236 254 2227 249 C 2222 249 2212 249 2208 249 C 2208 240 2208 230 2208 220 C 2208 201 2208 187 2212 182 C 2212 177 2212 177 2212 177 C 2208 177 2203 163 2208 139 C 2208 110 2208 110 2198 110 C 2193 110 2193 110 2193 110 M 3321 110 C 3331 110 3336 110 3345 115 C 3345 124 3345 134 3345 148 C 3345 158 3345 168 3345 177 C 3336 182 3326 182 3316 182 C 3307 182 3297 182 3288 182 C 3297 182 3307 182 3316 182 C 3326 182 3336 182 3345 187 C 3345 196 3345 206 3345 216 C 3345 230 3345 240 3345 249 C 3336 254 3326 254 3321 254 C 3312 254 3307 254 3297 254 C 3307 254 3312 254 3321 254 C 3326 254 3336 254 3345 254 C 3345 268 3345 278 3345 288 C 3345 302 3345 312 3345 321 C 3336 326 3331 326 3321 326 C 3316 326 3307 326 3302 326 C 3307 326 3316 326 3321 326 C 3331 326 3336 326 3345 326 C 3345 340 3340 355 3340 364 C 3340 398 3340 403 3350 403 C 3355 403 3355 398 3350 388 C 3350 384 3350 369 3350 355 C 3350 340 3355 297 3355 259 C 3355 235 3350 211 3350 187 C 3364 182 3374 182 3388 182 C 3398 182 3412 182 3422 182 C 3412 182 3398 182 3388 182 C 3374 182 3364 182 3350 177 C 3350 168 3355 153 3355 144 C 3355 129 3355 120 3355 105 C 3345 110 3336 110 3326 110 C 3302 110 3302 110 3321 110 M 3412 110 C 3432 110 3456 110 3475 110 C 3489 110 3475 110 3441 110 C 3408 110 3393 110 3412 110 M 4454 115 C 4454 115 4468 115 4492 115 C 4516 115 4531 115 4531 115 C 4531 110 4516 105 4492 105 C 4468 105 4454 110 4454 115 M 2054 177 C 2059 182 2078 182 2102 177 C 2121 177 2136 177 2150 177 C 2136 177 2116 177 2102 177 C 2073 177 2054 177 2054 177 M 2222 177 C 2227 182 2308 182 2304 177 C 2304 177 2284 177 2260 177 C 2236 177 2217 177 2222 177 M 1891 307 C 1876 321 1872 326 1872 336 C 1876 355 1881 355 1886 340 C 1886 331 1891 326 1900 326 C 1910 326 1915 326 1910 321 C 1900 316 1920 302 1929 302 C 1944 297 1934 288 1920 288 C 1910 288 1900 297 1891 307 M 3676 326 C 3691 326 3705 326 3715 326 C 3724 326 3715 326 3696 326 C 3676 326 3667 326 3676 326 M 1670 398 C 1680 398 1699 398 1713 398 C 1723 398 1713 398 1689 398 C 1665 398 1656 398 1670 398 M 3182 398 C 3196 398 3220 398 3235 398 C 3249 398 3240 398 3211 398 C 3177 398 3168 398 3182 398 M 4598 403 C 4598 403 4612 403 4622 403 C 4641 403 4646 403 4632 403 C 4612 393 4598 393 4598 403 M 4972 398 C 4987 398 5001 398 5011 398 C 5020 398 5011 398 4992 398 C 4972 398 4963 398 4972 398 M 5083 398 C 5097 398 5112 398 5126 398 C 5136 398 5126 398 5107 398 C 5083 398 5073 398 5083 398 M 144 441 C 120 451 120 475 139 499 C 153 513 182 518 172 504 C 168 499 168 494 177 484 C 201 460 177 422 144 441 z" fill="black" /><!-- width=5779 height=523 -->
<path id="gl2312" d="M 19 14 C 7 19 11 37 24 39 C 37 41 44 23 33 15 C 30 12 23 12 19 14 z" fill="black" /><!-- width=51 height=52 -->
<path id="gl3859" d="M 21 13 C 15 15 12 26 17 31 C 19 34 22 35 26 35 C 33 35 36 33 38 27 C 40 16 32 9 21 13 z" fill="black" /><!-- width=53 height=48 -->
</defs>
<use xlink:href="#gl18705" x="694" y="579" />
<use xlink:href="#gl18692" x="792" y="607" />
<use xlink:href="#gl18705" x="967" y="579" />
<use xlink:href="#gl18692" x="1065" y="608" />
<use xlink:href="#gl18705" x="1254" y="580" />
<use xlink:href="#gl18692" x="1353" y="608" />
<use xlink:href="#gl18705" x="1515" y="579" />
<use xlink:href="#gl18692" x="1614" y="609" />
<use xlink:href="#gl18705" x="1814" y="580" />
<use xlink:href="#gl18711" x="1915" y="609" />
<use xlink:href="#gl24069" x="2102" y="581" />
<use xlink:href="#gl18692" x="2165" y="609" />
<use xlink:href="#gl18705" x="2371" y="581" />
<use xlink:href="#gl18692" x="2469" y="609" />
<use xlink:href="#gl24070" x="2643" y="580" />
<use xlink:href="#gl18692" x="2737" y="610" />
<use xlink:href="#gl18966" x="3013" y="609" />
<use xlink:href="#gl18688" x="3074" y="606" />
<use xlink:href="#gl1299" x="3208" y="628" />
<use xlink:href="#gl18949" x="3354" y="606" />
<use xlink:href="#gl18960" x="3417" y="610" />
<use xlink:href="#gl18949" x="3478" y="606" />
<use xlink:href="#gl18963" x="3528" y="579" />
<use xlink:href="#gl18705" x="3681" y="582" />
<use xlink:href="#gl18711" x="3782" y="612" />
<use xlink:href="#gl24070" x="4003" y="582" />
<use xlink:href="#gl18711" x="4100" y="611" />
<use xlink:href="#gl18705" x="4344" y="583" />
<use xlink:href="#gl24071" x="4444" y="611" />
<use xlink:href="#gl24072" x="4598" y="619" />
<use xlink:href="#gl18969" x="4650" y="613" />
<use xlink:href="#gl24073" x="4723" y="619" />
<use xlink:href="#gl18963" x="4759" y="580" />
<use xlink:href="#gl1299" x="4831" y="630" />
<use xlink:href="#gl18688" x="4895" y="610" />
<use xlink:href="#gl18688" x="4953" y="610" />
<use xlink:href="#gl15380" x="4734" y="609" />
<use xlink:href="#gl18705" x="5096" y="583" />
<use xlink:href="#gl24071" x="5195" y="612" />
<use xlink:href="#gl18705" x="5465" y="583" />
<use xlink:href="#gl18695" x="5565" y="614" />
<use xlink:href="#gl24320" x="0" y="0" />
<use xlink:href="#gl2312" x="5624" y="187" />
<use xlink:href="#gl3859" x="3137" y="333" />
</svg>