<?xml version="1.0" standalone="no"?>
<!DOCTYPE svg PUBLIC "-//W3C/DTD SVG 1.1//EN" "http://www.w3.org/Graphics/SVG/1.1/DTD/svg11.dtd">
<svg width="397px" height="80px" viewBox="0 0 3974 807" xmlns="http://www.w3.org/2000/svg" xmlns:xlink="http://www.w3.org/1999/xlink" version="1.1">
<defs>
<path id="gl17419" d="M 33 9 C 4 19 0 76 19 100 C 43 124 100 110 100 81 C 100 72 91 72 76 91 C 52 120 24 100 28 57 C 28 14 62 0 81 33 C 91 57 96 48 96 9 C 91 4 48 0 33 9 z" fill="black" /><!-- width=105 height=124 -->
<path id="gl17420" d="M 35 10 C 28 13 23 17 18 25 C 12 33 12 34 12 47 C 12 60 12 61 18 68 C 19 70 21 72 22 73 C 24 76 30 81 33 82 C 34 82 36 82 39 82 C 52 85 64 80 72 69 C 75 64 75 63 78 52 C 80 43 77 30 72 24 C 70 22 69 21 69 20 C 64 12 46 7 35 10 M 49 21 C 52 22 55 24 58 30 C 59 32 60 34 61 36 C 60 38 60 40 60 42 C 60 61 57 70 48 72 C 36 76 29 66 29 44 C 29 37 30 36 31 32 C 36 22 39 19 49 21 z" fill="black" /><!-- width=90 height=94 -->
<path id="gl17421" d="M 53 11 C 52 12 50 12 49 13 C 46 15 40 16 33 15 C 25 13 18 13 14 15 C 12 16 12 16 12 19 C 12 22 13 24 18 25 C 24 28 24 28 24 49 C 24 69 25 68 18 72 C 12 74 12 74 13 78 C 13 82 15 83 23 82 C 26 82 33 82 39 82 C 51 82 52 81 51 77 C 51 75 50 75 46 73 C 44 71 42 70 42 69 C 40 64 40 44 42 35 C 43 29 47 26 53 24 C 58 22 63 24 66 29 C 67 30 67 31 68 32 C 68 38 67 43 67 49 C 67 70 67 70 62 72 C 58 75 57 75 57 78 C 57 81 58 82 75 82 C 90 82 93 82 93 79 C 94 76 93 75 90 73 C 84 69 83 68 84 50 C 85 33 87 27 94 25 C 100 23 106 24 109 29 C 110 31 110 31 111 49 C 111 70 111 69 105 72 C 100 74 98 79 102 81 C 103 82 134 83 136 81 C 139 79 138 75 133 73 C 132 72 130 71 129 69 C 129 68 128 67 127 66 C 127 61 127 56 127 51 C 127 37 127 30 125 22 C 124 18 113 12 105 11 C 97 10 95 11 90 15 C 83 20 81 20 74 16 C 68 12 58 10 53 11 z" fill="black" /><!-- width=147 height=94 -->
<path id="gl6688" d="M 19 12 C 18 12 18 13 16 13 C 13 13 11 16 11 19 C 11 25 15 26 27 25 C 31 25 39 25 45 25 C 56 25 57 24 58 20 C 60 13 55 12 42 12 C 35 13 30 13 26 13 C 19 12 19 12 19 12 z" fill="black" /><!-- width=70 height=38 -->
<path id="gl17422" d="M 57 15 C 50 16 41 21 38 27 C 37 29 34 40 34 43 C 34 49 33 51 28 53 C 20 57 19 64 28 66 C 34 67 34 67 34 76 C 34 80 33 89 33 96 C 33 111 33 111 28 113 C 24 115 24 116 23 118 C 22 123 24 124 32 124 C 37 123 41 123 51 124 C 61 124 63 123 63 118 C 62 115 58 114 54 114 C 49 113 49 112 49 96 C 49 88 50 79 50 76 C 50 67 51 66 59 65 C 64 65 64 65 66 62 C 67 57 66 55 60 55 C 51 55 48 51 50 39 C 51 33 54 28 59 27 C 63 25 65 28 66 35 C 67 39 72 41 76 40 C 82 40 85 36 84 29 C 84 19 72 13 57 15 M 70 83 C 69 86 70 93 71 93 C 74 93 75 82 72 82 C 71 81 70 82 70 83 z" fill="black" /><!-- width=95 height=132 -->
<path id="gl17420" d="M 35 10 C 28 13 23 17 18 25 C 12 33 12 34 12 47 C 12 60 12 61 18 68 C 19 70 21 72 22 73 C 24 76 30 81 33 82 C 34 82 36 82 39 82 C 52 85 64 80 72 69 C 75 64 75 63 78 52 C 80 43 77 30 72 24 C 70 22 69 21 69 20 C 64 12 46 7 35 10 M 49 21 C 52 22 55 24 58 30 C 59 32 60 34 61 36 C 60 38 60 40 60 42 C 60 61 57 70 48 72 C 36 76 29 66 29 44 C 29 37 30 36 31 32 C 36 22 39 19 49 21 z" fill="black" /><!-- width=90 height=94 -->
<path id="gl17423" d="M 43 9 C 43 14 33 14 19 14 C 4 9 0 19 9 24 C 14 24 19 33 19 48 C 19 57 14 67 9 67 C 0 72 4 81 24 81 C 43 81 52 72 38 67 C 33 67 28 57 28 52 C 28 33 43 19 48 24 C 52 33 67 33 62 19 C 62 9 52 4 43 9 z" fill="black" /><!-- width=72 height=91 -->
<path id="gl17424" d="M 38 4 C 34 5 32 8 32 13 C 32 24 28 30 20 33 C 18 33 17 33 17 36 C 17 37 17 39 16 39 C 16 39 16 39 16 39 C 17 39 17 40 17 41 C 17 43 19 44 22 45 C 27 47 27 46 27 66 C 27 75 27 85 27 88 C 27 97 29 100 40 104 C 45 106 45 106 50 105 C 56 105 57 105 63 100 C 66 97 67 96 68 93 C 69 90 70 88 70 87 C 72 86 72 78 70 76 C 67 72 61 76 57 85 C 55 91 52 94 48 92 C 43 90 43 88 43 67 C 42 48 42 48 44 45 C 45 44 46 44 48 44 C 54 46 63 46 66 43 C 67 42 67 38 64 37 C 60 34 56 34 51 34 C 49 34 47 35 45 35 C 45 34 45 34 45 34 C 43 32 43 29 44 16 C 44 7 43 4 38 4 z" fill="black" /><!-- width=79 height=121 -->
<path id="gl5139" d="M 16 24 C 7 26 9 41 18 42 C 25 43 27 51 20 58 C 16 62 15 65 19 67 C 26 70 28 69 32 58 C 33 56 34 53 35 51 C 35 48 35 46 35 43 C 35 35 34 32 32 28 C 29 24 22 22 16 24 z" fill="black" /><!-- width=49 height=82 -->
<path id="gl17425" d="M 19 14 C 4 24 4 48 14 62 C 24 76 52 76 62 62 C 67 52 62 48 52 52 C 38 67 28 62 28 43 C 28 19 38 4 43 19 C 48 33 62 33 62 24 C 62 4 33 0 19 14 z" fill="black" /><!-- width=76 height=86 -->
<path id="gl17420" d="M 35 10 C 28 13 23 17 18 25 C 12 33 12 34 12 47 C 12 60 12 61 18 68 C 19 70 21 72 22 73 C 24 76 30 81 33 82 C 34 82 36 82 39 82 C 52 85 64 80 72 69 C 75 64 75 63 78 52 C 80 43 77 30 72 24 C 70 22 69 21 69 20 C 64 12 46 7 35 10 M 49 21 C 52 22 55 24 58 30 C 59 32 60 34 61 36 C 60 38 60 40 60 42 C 60 61 57 70 48 72 C 36 76 29 66 29 44 C 29 37 30 36 31 32 C 36 22 39 19 49 21 z" fill="black" /><!-- width=90 height=94 -->
<path id="gl17421" d="M 53 11 C 52 12 50 12 49 13 C 46 15 40 16 33 15 C 25 13 18 13 14 15 C 12 16 12 16 12 19 C 12 22 13 24 18 25 C 24 28 24 28 24 49 C 24 69 25 68 18 72 C 12 74 12 74 13 78 C 13 82 15 83 23 82 C 26 82 33 82 39 82 C 51 82 52 81 51 77 C 51 75 50 75 46 73 C 44 71 42 70 42 69 C 40 64 40 44 42 35 C 43 29 47 26 53 24 C 58 22 63 24 66 29 C 67 30 67 31 68 32 C 68 38 67 43 67 49 C 67 70 67 70 62 72 C 58 75 57 75 57 78 C 57 81 58 82 75 82 C 90 82 93 82 93 79 C 94 76 93 75 90 73 C 84 69 83 68 84 50 C 85 33 87 27 94 25 C 100 23 106 24 109 29 C 110 31 110 31 111 49 C 111 70 111 69 105 72 C 100 74 98 79 102 81 C 103 82 134 83 136 81 C 139 79 138 75 133 73 C 132 72 130 71 129 69 C 129 68 128 67 127 66 C 127 61 127 56 127 51 C 127 37 127 30 125 22 C 124 18 113 12 105 11 C 97 10 95 11 90 15 C 83 20 81 20 74 16 C 68 12 58 10 53 11 z" fill="black" /><!-- width=147 height=94 -->
<path id="gl7689" d="M 45 13 C 42 13 36 13 30 13 C 17 13 15 13 13 17 C 9 23 14 28 22 28 C 28 27 40 27 48 27 C 54 28 57 27 59 23 C 61 19 59 15 54 13 C 52 12 51 12 45 13 z" fill="black" /><!-- width=72 height=41 -->
<path id="gl17422" d="M 57 15 C 50 16 41 21 38 27 C 37 29 34 40 34 43 C 34 49 33 51 28 53 C 20 57 19 64 28 66 C 34 67 34 67 34 76 C 34 80 33 89 33 96 C 33 111 33 111 28 113 C 24 115 24 116 23 118 C 22 123 24 124 32 124 C 37 123 41 123 51 124 C 61 124 63 123 63 118 C 62 115 58 114 54 114 C 49 113 49 112 49 96 C 49 88 50 79 50 76 C 50 67 51 66 59 65 C 64 65 64 65 66 62 C 67 57 66 55 60 55 C 51 55 48 51 50 39 C 51 33 54 28 59 27 C 63 25 65 28 66 35 C 67 39 72 41 76 40 C 82 40 85 36 84 29 C 84 19 72 13 57 15 M 70 83 C 69 86 70 93 71 93 C 74 93 75 82 72 82 C 71 81 70 82 70 83 z" fill="black" /><!-- width=95 height=132 -->
<path id="gl17426" d="M 19 9 C 0 33 9 72 38 72 C 57 72 67 62 67 43 C 67 9 38 -5 19 9 M 48 19 C 57 38 52 62 38 62 C 28 62 19 43 24 28 C 28 14 43 14 48 19 z" fill="black" /><!-- width=81 height=86 -->
<path id="gl17427" d="M 48 4 C 48 9 38 9 24 9 C 9 4 0 14 9 19 C 19 24 19 62 9 67 C 4 72 9 76 24 76 C 38 76 48 72 48 67 C 48 67 43 67 38 67 C 33 67 33 33 43 24 C 48 19 48 19 48 19 C 52 28 62 28 72 19 C 72 14 76 9 72 9 C 67 4 52 4 48 4 z" fill="black" /><!-- width=81 height=81 -->
<path id="gl17424" d="M 38 4 C 34 5 32 8 32 13 C 32 24 28 30 20 33 C 18 33 17 33 17 36 C 17 37 17 39 16 39 C 16 39 16 39 16 39 C 17 39 17 40 17 41 C 17 43 19 44 22 45 C 27 47 27 46 27 66 C 27 75 27 85 27 88 C 27 97 29 100 40 104 C 45 106 45 106 50 105 C 56 105 57 105 63 100 C 66 97 67 96 68 93 C 69 90 70 88 70 87 C 72 86 72 78 70 76 C 67 72 61 76 57 85 C 55 91 52 94 48 92 C 43 90 43 88 43 67 C 42 48 42 48 44 45 C 45 44 46 44 48 44 C 54 46 63 46 66 43 C 67 42 67 38 64 37 C 60 34 56 34 51 34 C 49 34 47 35 45 35 C 45 34 45 34 45 34 C 43 32 43 29 44 16 C 44 7 43 4 38 4 z" fill="black" /><!-- width=79 height=121 -->
<path id="gl17428" d="M 14 4 C 4 9 4 9 19 28 C 38 57 38 100 19 81 C 9 76 0 86 4 96 C 19 129 62 67 62 19 C 62 0 57 0 57 24 C 57 43 48 48 38 33 C 38 24 38 19 38 14 C 38 9 28 4 14 4 z" fill="black" /><!-- width=76 height=115 -->
<path id="gl17429" d="M 24 4 C 14 4 9 9 0 9 C 0 14 4 24 4 28 C 9 57 14 67 28 76 C 43 81 67 72 72 62 C 76 52 67 52 52 62 C 43 67 28 62 28 48 C 28 43 33 43 48 43 C 72 43 76 38 67 19 C 57 4 52 4 24 4 M 48 19 C 57 28 52 33 38 33 C 33 33 28 33 28 28 C 24 24 33 9 38 9 C 43 9 48 14 48 19 z" fill="black" /><!-- width=81 height=86 -->
<path id="gl17421" d="M 53 11 C 52 12 50 12 49 13 C 46 15 40 16 33 15 C 25 13 18 13 14 15 C 12 16 12 16 12 19 C 12 22 13 24 18 25 C 24 28 24 28 24 49 C 24 69 25 68 18 72 C 12 74 12 74 13 78 C 13 82 15 83 23 82 C 26 82 33 82 39 82 C 51 82 52 81 51 77 C 51 75 50 75 46 73 C 44 71 42 70 42 69 C 40 64 40 44 42 35 C 43 29 47 26 53 24 C 58 22 63 24 66 29 C 67 30 67 31 68 32 C 68 38 67 43 67 49 C 67 70 67 70 62 72 C 58 75 57 75 57 78 C 57 81 58 82 75 82 C 90 82 93 82 93 79 C 94 76 93 75 90 73 C 84 69 83 68 84 50 C 85 33 87 27 94 25 C 100 23 106 24 109 29 C 110 31 110 31 111 49 C 111 70 111 69 105 72 C 100 74 98 79 102 81 C 103 82 134 83 136 81 C 139 79 138 75 133 73 C 132 72 130 71 129 69 C 129 68 128 67 127 66 C 127 61 127 56 127 51 C 127 37 127 30 125 22 C 124 18 113 12 105 11 C 97 10 95 11 90 15 C 83 20 81 20 74 16 C 68 12 58 10 53 11 z" fill="black" /><!-- width=147 height=94 -->
<path id="gl17430" d="M 9 4 C 9 9 9 14 14 14 C 19 19 38 62 38 72 C 38 81 28 91 24 81 C 19 76 14 76 9 81 C 4 91 9 100 24 100 C 38 100 48 91 62 57 C 67 38 76 19 81 19 C 86 14 86 9 86 9 C 81 0 57 9 62 14 C 62 19 62 24 57 33 C 57 38 52 43 52 48 C 48 43 48 38 43 33 C 38 24 38 19 43 14 C 48 9 43 4 38 4 C 33 4 24 4 19 4 C 14 4 9 4 9 4 z" fill="black" /><!-- width=96 height=110 -->
<path id="gl17431" d="M 58 20 C 57 21 54 22 52 23 C 46 25 43 25 37 24 C 29 21 21 22 18 24 C 15 28 17 34 22 35 C 25 36 26 37 27 41 C 28 44 28 73 27 88 C 27 93 27 99 27 102 C 27 108 27 108 23 110 C 20 111 19 113 18 116 C 18 119 21 122 24 121 C 33 120 35 120 41 120 C 49 121 52 121 53 120 C 56 117 54 112 49 110 C 45 108 44 106 43 101 C 42 96 43 93 45 91 C 46 90 48 90 54 92 C 67 96 77 93 85 81 C 94 67 96 58 91 41 C 90 39 89 36 88 34 C 87 32 85 31 84 29 C 76 21 67 18 58 20 M 64 33 C 67 34 72 38 73 42 C 76 48 75 66 72 73 C 69 79 60 83 55 81 C 54 79 52 79 51 78 C 45 77 44 72 44 57 C 44 44 44 43 48 38 C 51 35 52 34 57 33 C 61 31 61 31 64 33 z" fill="black" /><!-- width=106 height=132 -->
<path id="gl17432" d="M 43 10 C 30 13 19 27 17 43 C 16 45 18 59 19 63 C 20 64 21 67 22 68 C 24 70 25 72 26 73 C 27 75 32 79 39 81 C 51 86 67 82 76 73 C 78 72 79 71 80 71 C 82 71 82 63 79 60 C 76 57 71 59 67 66 C 66 68 65 69 64 69 C 63 69 60 70 58 70 C 53 72 45 71 42 69 C 40 67 35 59 34 55 C 33 54 33 53 35 52 C 37 49 39 48 45 49 C 53 50 59 50 64 49 C 69 48 69 48 72 49 C 79 51 81 49 82 42 C 82 31 75 17 65 13 C 64 13 61 12 61 10 C 58 9 48 9 43 10 M 58 22 C 63 24 66 33 63 36 C 61 39 60 40 52 40 C 48 40 44 41 43 41 C 40 42 38 40 37 36 C 35 31 40 23 45 22 C 51 20 55 20 58 22 z" fill="black" /><!-- width=94 height=92 -->
<path id="gl17420" d="M 35 10 C 28 13 23 17 18 25 C 12 33 12 34 12 47 C 12 60 12 61 18 68 C 19 70 21 72 22 73 C 24 76 30 81 33 82 C 34 82 36 82 39 82 C 52 85 64 80 72 69 C 75 64 75 63 78 52 C 80 43 77 30 72 24 C 70 22 69 21 69 20 C 64 12 46 7 35 10 M 49 21 C 52 22 55 24 58 30 C 59 32 60 34 61 36 C 60 38 60 40 60 42 C 60 61 57 70 48 72 C 36 76 29 66 29 44 C 29 37 30 36 31 32 C 36 22 39 19 49 21 z" fill="black" /><!-- width=90 height=94 -->
<path id="gl6688" d="M 19 12 C 18 12 18 13 16 13 C 13 13 11 16 11 19 C 11 25 15 26 27 25 C 31 25 39 25 45 25 C 56 25 57 24 58 20 C 60 13 55 12 42 12 C 35 13 30 13 26 13 C 19 12 19 12 19 12 z" fill="black" /><!-- width=70 height=38 -->
<path id="gl17431" d="M 58 20 C 57 21 54 22 52 23 C 46 25 43 25 37 24 C 29 21 21 22 18 24 C 15 28 17 34 22 35 C 25 36 26 37 27 41 C 28 44 28 73 27 88 C 27 93 27 99 27 102 C 27 108 27 108 23 110 C 20 111 19 113 18 116 C 18 119 21 122 24 121 C 33 120 35 120 41 120 C 49 121 52 121 53 120 C 56 117 54 112 49 110 C 45 108 44 106 43 101 C 42 96 43 93 45 91 C 46 90 48 90 54 92 C 67 96 77 93 85 81 C 94 67 96 58 91 41 C 90 39 89 36 88 34 C 87 32 85 31 84 29 C 76 21 67 18 58 20 M 64 33 C 67 34 72 38 73 42 C 76 48 75 66 72 73 C 69 79 60 83 55 81 C 54 79 52 79 51 78 C 45 77 44 72 44 57 C 44 44 44 43 48 38 C 51 35 52 34 57 33 C 61 31 61 31 64 33 z" fill="black" /><!-- width=106 height=132 -->
<path id="gl17433" d="M 9 14 C 9 14 9 14 9 14 C 14 14 14 33 14 62 C 14 86 14 105 9 105 C 9 105 9 105 9 105 C 9 110 14 110 28 110 C 38 110 43 110 43 105 C 43 105 43 105 38 105 C 38 105 38 86 38 52 C 38 38 38 24 38 9 C 33 9 28 9 19 9 C 14 9 9 9 9 14 z" fill="black" /><!-- width=52 height=124 -->
<path id="gl17432" d="M 43 10 C 30 13 19 27 17 43 C 16 45 18 59 19 63 C 20 64 21 67 22 68 C 24 70 25 72 26 73 C 27 75 32 79 39 81 C 51 86 67 82 76 73 C 78 72 79 71 80 71 C 82 71 82 63 79 60 C 76 57 71 59 67 66 C 66 68 65 69 64 69 C 63 69 60 70 58 70 C 53 72 45 71 42 69 C 40 67 35 59 34 55 C 33 54 33 53 35 52 C 37 49 39 48 45 49 C 53 50 59 50 64 49 C 69 48 69 48 72 49 C 79 51 81 49 82 42 C 82 31 75 17 65 13 C 64 13 61 12 61 10 C 58 9 48 9 43 10 M 58 22 C 63 24 66 33 63 36 C 61 39 60 40 52 40 C 48 40 44 41 43 41 C 40 42 38 40 37 36 C 35 31 40 23 45 22 C 51 20 55 20 58 22 z" fill="black" /><!-- width=94 height=92 -->
<path id="gl17664" d="M 480 9 C 480 9 475 24 475 38 C 475 76 460 81 456 48 C 456 14 441 14 441 48 C 441 72 441 76 436 81 C 427 86 427 120 436 124 C 451 129 432 129 364 134 C 326 134 292 129 292 129 C 288 124 283 110 283 96 C 268 33 254 14 230 28 C 216 38 196 76 192 110 C 187 129 187 134 177 134 C 172 134 134 134 91 134 C 62 134 38 134 9 134 C 9 192 9 254 9 312 C 9 412 9 494 9 494 C 9 494 67 494 134 494 C 177 499 216 499 259 499 C 264 513 264 523 268 537 C 278 590 268 614 240 628 C 220 633 201 624 216 619 C 230 609 240 585 230 566 C 216 528 148 547 158 590 C 168 648 254 657 278 600 C 288 585 288 580 278 542 C 273 523 273 504 273 499 C 278 494 422 494 1084 494 C 1257 494 1430 494 1603 494 C 1603 518 1603 537 1603 556 C 1603 590 1608 619 1612 619 C 1612 619 1617 600 1617 566 C 1617 532 1617 504 1617 504 C 1622 499 1766 499 2323 499 C 2553 499 2788 499 3019 499 C 3019 504 3019 504 3019 508 C 3024 547 3076 547 3110 513 C 3115 508 3120 504 3124 494 C 3211 494 3302 494 3388 494 C 3537 494 3652 499 3652 499 C 3652 499 3652 508 3648 513 C 3604 571 3672 609 3715 561 C 3729 547 3729 537 3734 513 C 3734 508 3734 504 3734 499 C 3772 499 3811 499 3844 499 C 3931 499 3960 494 3964 489 C 3964 484 3964 153 3960 144 C 3960 139 3796 134 3177 134 C 2918 134 2654 134 2395 134 C 2395 129 2395 120 2395 115 C 2390 91 2380 91 2380 120 C 2380 124 2380 129 2380 139 C 2328 134 2275 134 2217 134 C 2164 134 2107 134 2054 134 C 2054 120 2054 105 2054 91 C 2054 67 2049 48 2049 48 C 2044 48 2040 67 2040 91 C 2040 105 2040 120 2040 134 C 1915 134 1790 134 1660 134 C 1536 134 1411 134 1286 134 C 1286 120 1286 110 1286 100 C 1281 43 1276 43 1276 91 C 1272 105 1272 120 1272 134 C 1200 134 1128 134 1056 134 C 916 134 835 134 825 129 C 820 129 816 120 816 110 C 816 96 816 91 816 100 C 811 100 811 110 811 120 C 811 124 811 129 811 134 C 763 134 715 134 672 134 C 595 134 523 134 513 134 C 494 134 489 129 489 120 C 489 110 494 100 499 100 C 504 96 508 86 508 76 C 508 67 504 57 499 57 C 494 52 489 48 489 33 C 489 9 484 0 480 9 M 259 76 C 264 81 264 91 264 105 C 264 115 264 120 264 129 C 254 129 249 129 240 129 C 211 134 206 129 220 100 C 235 67 249 62 259 76 M 475 124 C 470 134 456 134 456 124 C 456 120 460 115 465 115 C 470 105 480 115 475 124 M 120 144 C 196 148 192 144 196 192 C 201 220 206 220 96 220 C 67 220 43 220 14 216 C 14 206 14 192 14 182 C 14 144 19 139 43 144 C 48 144 81 144 120 144 M 254 148 C 259 153 244 177 235 187 C 216 201 206 192 206 168 C 206 163 206 153 206 148 C 216 148 220 148 230 148 C 240 148 249 148 254 148 M 441 163 C 441 168 441 177 436 177 C 432 182 432 187 432 196 C 432 216 427 216 412 220 C 398 220 264 216 264 216 C 264 216 273 196 278 177 C 278 168 283 158 288 148 C 312 148 340 148 364 148 C 393 148 417 148 441 148 C 441 153 441 158 441 163 M 475 158 C 475 158 470 163 465 163 C 460 168 456 163 456 158 C 456 148 460 144 465 148 C 470 148 475 153 475 158 M 811 182 C 811 196 811 211 811 220 C 758 220 710 220 662 220 C 585 220 513 220 504 220 C 489 216 489 206 499 192 C 504 192 508 182 508 172 C 508 168 504 158 499 158 C 475 148 508 148 648 148 C 700 148 758 148 811 148 C 811 158 811 172 811 182 M 1276 177 C 1276 230 1300 225 1046 220 C 921 220 820 220 820 220 C 820 216 820 201 820 187 C 816 144 792 148 1046 148 C 1123 148 1200 148 1276 148 C 1276 158 1276 168 1276 177 M 2040 182 C 2040 196 2040 206 2040 220 C 1915 220 1795 220 1670 220 C 1468 220 1300 220 1296 220 C 1286 220 1286 216 1286 182 C 1286 168 1286 158 1286 144 C 1411 148 1536 148 1660 148 C 1790 148 1915 148 2040 148 C 2040 163 2040 172 2040 182 M 2380 187 C 2380 196 2380 211 2380 225 C 2328 220 2275 220 2217 220 C 2164 220 2107 220 2054 220 C 2054 211 2054 201 2054 192 C 2049 144 2035 148 2217 148 C 2275 148 2328 148 2380 148 C 2380 158 2380 172 2380 187 M 2755 153 C 2760 168 2755 211 2755 216 C 2750 220 2692 220 2572 220 C 2515 220 2452 220 2395 220 C 2395 211 2395 201 2395 192 C 2395 172 2395 158 2395 153 C 2400 139 2750 144 2755 153 M 3950 158 C 3955 168 3955 182 3955 196 C 3955 206 3950 216 3950 225 C 3816 220 3676 220 3537 220 C 3398 220 3264 220 3124 220 C 3124 216 3124 206 3124 201 C 3120 177 3110 177 3110 201 C 3110 211 3110 216 3110 225 C 3052 225 3000 225 2942 225 C 2884 225 2827 225 2764 225 C 2764 211 2764 196 2764 182 C 2764 172 2764 158 2764 144 C 2966 148 3163 148 3360 148 C 3556 148 3753 148 3950 148 C 3950 153 3950 158 3950 158 M 172 235 C 172 240 172 244 168 249 C 158 254 148 268 139 283 C 134 292 124 302 120 312 C 105 312 91 312 72 312 C 33 312 24 307 24 302 C 14 288 14 240 19 235 C 24 230 172 230 172 235 M 441 249 C 441 264 446 268 446 268 C 456 268 460 259 456 249 C 451 240 460 230 470 235 C 475 235 475 240 475 249 C 475 259 489 259 489 244 C 489 240 494 235 494 235 C 547 235 600 235 652 235 C 705 235 758 235 811 235 C 811 244 811 259 811 268 C 811 283 811 297 811 312 C 715 307 619 307 528 307 C 369 307 240 307 240 307 C 225 297 225 259 240 244 C 254 235 254 235 350 235 C 379 235 412 235 441 235 C 441 240 441 244 441 249 M 1272 268 C 1272 283 1272 297 1272 307 C 1195 307 1123 307 1046 307 C 969 307 897 307 820 307 C 820 292 820 283 820 268 C 820 259 820 244 816 230 C 892 235 969 235 1046 235 C 1118 235 1195 235 1272 235 C 1272 249 1272 259 1272 268 M 2040 268 C 2044 292 2040 302 2035 307 C 2025 312 1713 312 1713 302 C 1713 288 1689 268 1670 268 C 1656 268 1641 278 1622 297 C 1617 302 1612 307 1608 312 C 1555 307 1502 307 1444 307 C 1392 307 1339 307 1286 307 C 1286 292 1286 283 1286 268 C 1286 259 1286 244 1281 230 C 1411 235 1536 235 1660 235 C 1785 235 1915 235 2040 235 C 2040 244 2040 259 2040 268 M 2380 268 C 2380 283 2380 297 2380 312 C 2328 312 2275 312 2217 312 C 2164 312 2107 312 2054 312 C 2054 297 2054 288 2054 273 C 2054 254 2054 240 2054 235 C 2059 235 2131 235 2222 235 C 2275 235 2328 235 2380 235 C 2380 244 2380 259 2380 268 M 2755 254 C 2755 264 2755 283 2755 292 C 2755 297 2750 302 2750 312 C 2692 312 2635 312 2572 312 C 2419 312 2400 307 2395 302 C 2390 292 2390 240 2395 235 C 2400 235 2476 235 2577 235 C 2635 235 2692 235 2750 235 C 2750 240 2755 244 2755 254 M 3110 268 C 3110 283 3110 297 3110 307 C 3052 307 2995 307 2942 307 C 2884 307 2827 307 2769 307 C 2769 292 2769 283 2769 268 C 2769 259 2769 244 2764 230 C 2822 235 2880 235 2937 235 C 2995 235 3052 235 3110 235 C 3110 249 3110 259 3110 268 M 3720 273 C 3720 283 3720 297 3724 312 C 3624 307 3523 307 3422 307 C 3326 307 3225 307 3124 307 C 3124 297 3124 288 3124 278 C 3124 259 3124 244 3124 240 C 3124 235 3177 235 3422 235 C 3523 235 3619 235 3720 235 C 3720 249 3720 259 3720 273 M 3955 268 C 3955 283 3955 297 3955 312 C 3916 312 3878 312 3844 312 C 3806 312 3768 312 3729 312 C 3729 297 3729 288 3729 273 C 3729 254 3734 240 3734 235 C 3739 235 3787 235 3844 235 C 3883 235 3916 235 3955 235 C 3955 244 3955 259 3955 268 M 216 288 C 216 302 216 302 201 307 C 187 307 182 302 196 288 C 206 273 216 273 216 288 M 1689 297 C 1689 307 1684 307 1670 307 C 1646 312 1646 307 1656 297 C 1670 283 1694 283 1689 297 M 110 326 C 105 340 100 360 100 379 C 100 384 100 388 100 393 C 86 393 72 393 57 393 C 48 393 33 393 19 393 C 19 379 19 369 19 355 C 19 345 19 331 14 321 C 33 321 48 321 67 321 C 110 321 115 321 110 326 M 192 321 C 192 321 182 336 177 345 C 172 355 163 369 163 379 C 158 403 134 403 139 379 C 144 350 163 321 177 321 C 182 321 192 321 192 321 M 811 340 C 811 360 806 360 796 360 C 772 355 758 360 739 379 C 729 384 724 388 720 398 C 657 393 595 393 528 393 C 465 393 403 393 340 393 C 340 388 336 379 336 374 C 331 364 326 345 321 340 C 312 331 307 321 307 321 C 307 321 422 321 556 321 C 643 321 724 321 811 321 C 811 326 811 331 811 340 M 1209 321 C 1209 321 1200 331 1195 340 C 1185 355 1180 364 1185 379 C 1185 384 1185 388 1185 398 C 1128 398 1065 398 1003 398 C 945 398 883 398 825 398 C 820 388 820 379 820 369 C 816 350 820 331 820 321 C 825 316 1209 316 1209 321 M 1603 360 C 1603 369 1603 384 1608 398 C 1550 398 1492 398 1435 398 C 1339 398 1267 393 1267 393 C 1267 388 1267 384 1276 374 C 1281 364 1281 350 1281 340 C 1286 331 1286 326 1286 321 C 1291 321 1363 321 1444 321 C 1497 321 1550 321 1603 321 C 1603 336 1603 345 1603 360 M 1670 321 C 1670 331 1651 340 1636 340 C 1617 340 1612 336 1627 326 C 1632 316 1670 316 1670 321 M 1972 321 C 1972 321 1968 331 1963 340 C 1953 355 1948 364 1953 379 C 1953 384 1953 388 1953 398 C 1900 393 1843 393 1785 393 C 1728 393 1675 393 1617 393 C 1617 388 1617 384 1617 379 C 1617 360 1617 360 1636 360 C 1660 364 1684 355 1699 331 C 1699 326 1704 321 1708 321 C 1752 321 1795 321 1838 321 C 1910 321 1968 321 1972 321 M 2380 340 C 2380 350 2380 355 2385 360 C 2376 360 2371 360 2366 360 C 2342 355 2323 364 2308 384 C 2304 388 2299 393 2294 398 C 2251 398 2208 398 2164 398 C 2092 398 2030 393 2030 393 C 2030 393 2035 384 2040 374 C 2049 364 2049 350 2049 340 C 2049 331 2049 326 2054 316 C 2107 321 2160 321 2217 321 C 2270 321 2328 321 2380 321 C 2380 326 2380 336 2380 340 M 2755 355 C 2750 379 2750 393 2750 393 C 2750 398 2400 398 2400 393 C 2395 388 2390 336 2395 326 C 2395 321 2419 321 2577 321 C 2635 321 2697 321 2755 321 C 2755 331 2755 345 2755 355 M 3110 360 C 3110 369 3110 384 3110 393 C 3081 398 3048 398 3019 398 C 2971 398 2889 398 2846 398 C 2822 398 2793 398 2764 398 C 2764 384 2764 374 2764 360 C 2764 340 2769 326 2769 321 C 2774 321 2851 321 2942 321 C 3000 321 3052 321 3110 321 C 3110 336 3110 345 3110 360 M 3720 355 C 3720 369 3720 384 3720 398 C 3705 398 3686 398 3667 398 C 3604 398 3139 398 3129 398 C 3120 393 3120 326 3124 321 C 3124 321 3264 321 3427 321 C 3523 321 3624 316 3720 316 C 3720 331 3720 345 3720 355 M 3945 321 C 3950 326 3955 331 3950 360 C 3950 374 3950 384 3950 398 C 3921 398 3897 398 3873 398 C 3825 398 3777 398 3763 398 C 3753 398 3744 398 3729 393 C 3729 384 3729 374 3729 360 C 3729 340 3734 326 3734 321 C 3739 316 3931 321 3945 321 M 235 369 C 240 393 235 398 211 398 C 187 398 182 384 201 364 C 216 350 230 350 235 369 M 292 369 C 316 388 312 398 278 398 C 254 398 254 393 249 384 C 249 374 244 364 244 360 C 240 345 273 350 292 369 M 801 384 C 801 393 796 393 782 393 C 758 398 753 388 772 379 C 792 369 806 369 801 384 M 115 427 C 120 436 129 451 139 460 C 158 484 163 484 76 484 C 57 484 38 480 14 480 C 14 470 14 460 19 446 C 19 403 14 403 62 403 C 76 403 91 403 100 403 C 105 412 110 417 115 427 M 168 422 C 177 436 211 470 220 470 C 225 470 220 460 206 446 C 172 417 177 403 211 403 C 240 403 244 408 249 456 C 249 465 254 475 254 480 C 244 480 235 480 225 480 C 196 480 163 465 148 436 C 144 427 139 412 139 408 C 144 403 163 408 168 422 M 312 417 C 316 436 288 470 268 470 C 264 470 254 417 259 412 C 264 403 312 403 312 417 M 720 422 C 734 460 787 456 811 417 C 816 412 816 408 820 403 C 950 408 1080 408 1209 408 C 1344 408 1473 408 1603 408 C 1603 422 1603 432 1603 446 C 1603 460 1603 470 1603 484 C 1392 484 1180 484 969 484 C 619 484 331 484 321 484 C 302 480 302 480 312 470 C 326 456 340 432 340 422 C 340 408 340 403 528 403 C 590 403 652 403 710 403 C 715 412 715 417 720 422 M 782 412 C 782 412 772 422 768 427 C 744 441 720 427 739 412 C 744 403 787 403 782 412 M 2294 417 C 2308 456 2342 460 2376 427 C 2385 422 2390 412 2400 408 C 2448 408 2491 408 2539 408 C 2630 408 2683 408 2683 412 C 2683 412 2683 422 2678 427 C 2668 436 2668 451 2668 465 C 2668 470 2668 480 2668 489 C 2491 484 2318 484 2140 484 C 1968 484 1790 484 1617 484 C 1617 475 1617 465 1617 456 C 1617 441 1617 422 1617 417 C 1617 412 1617 408 1622 403 C 1732 403 1843 403 1953 403 C 2064 403 2174 403 2289 403 C 2289 408 2289 412 2294 417 M 3009 408 C 3043 408 3076 412 3110 412 C 3110 417 3110 422 3110 432 C 3110 436 3110 441 3110 451 C 3105 451 3096 451 3091 451 C 3067 451 3038 460 3033 475 C 3024 484 3024 484 2889 484 C 2812 484 2750 484 2745 484 C 2745 484 2750 475 2755 465 C 2760 460 2764 441 2764 432 C 2769 417 2769 412 2779 408 C 2798 408 2899 403 3009 408 M 3710 408 C 3720 408 3720 412 3720 451 C 3720 460 3720 475 3720 489 C 3624 484 3523 484 3422 484 C 3326 484 3225 484 3124 484 C 3124 470 3124 460 3124 446 C 3124 436 3124 422 3120 412 C 3158 408 3196 408 3235 408 C 3321 408 3552 408 3710 408 M 3955 432 C 3955 441 3955 460 3955 470 C 3955 475 3950 480 3950 484 C 3916 484 3878 484 3840 484 C 3806 484 3768 484 3729 484 C 3729 475 3729 460 3729 451 C 3729 436 3729 422 3729 408 C 3768 408 3806 408 3840 408 C 3878 408 3916 408 3950 408 C 3950 417 3955 422 3955 432 M 3110 465 C 3110 480 3100 484 3086 484 C 3062 484 3057 484 3072 470 C 3086 460 3110 460 3110 465 M 3086 504 C 3086 508 3067 518 3048 523 C 3038 523 3028 508 3043 499 C 3048 494 3086 499 3086 504 M 3720 513 C 3720 537 3672 576 3652 566 C 3638 561 3652 532 3681 518 C 3705 504 3720 504 3720 513 z" fill="black" /><!-- width=3974 height=652 -->
</defs>
<use xlink:href="#gl17419" x="614" y="652" />
<use xlink:href="#gl17420" x="711" y="683" />
<use xlink:href="#gl17421" x="782" y="682" />
<use xlink:href="#gl6688" x="958" y="710" />
<use xlink:href="#gl17422" x="1067" y="640" />
<use xlink:href="#gl17420" x="1127" y="684" />
<use xlink:href="#gl17423" x="1209" y="686" />
<use xlink:href="#gl17424" x="1260" y="661" />
<use xlink:href="#gl5139" x="1328" y="724" />
<use xlink:href="#gl17425" x="1521" y="691" />
<use xlink:href="#gl17420" x="1580" y="684" />
<use xlink:href="#gl17421" x="1652" y="683" />
<use xlink:href="#gl7689" x="1788" y="709" />
<use xlink:href="#gl17422" x="1858" y="642" />
<use xlink:href="#gl17426" x="1925" y="691" />
<use xlink:href="#gl17427" x="1997" y="691" />
<use xlink:href="#gl17424" x="2051" y="662" />
<use xlink:href="#gl17428" x="2270" y="691" />
<use xlink:href="#gl17429" x="2333" y="691" />
<use xlink:href="#gl17421" x="2599" y="683" />
<use xlink:href="#gl17430" x="2731" y="691" />
<use xlink:href="#gl17431" x="2942" y="674" />
<use xlink:href="#gl17432" x="3026" y="685" />
<use xlink:href="#gl17420" x="3104" y="684" />
<use xlink:href="#gl6688" x="3335" y="712" />
<use xlink:href="#gl17431" x="3563" y="675" />
<use xlink:href="#gl17433" x="3657" y="652" />
<use xlink:href="#gl17432" x="3694" y="685" />
<use xlink:href="#gl17664" x="0" y="0" />
</svg>