<?xml version="1.0" standalone="no"?>
<!DOCTYPE svg PUBLIC "-//W3C/DTD SVG 1.1//EN" "http://www.w3.org/Graphics/SVG/1.1/DTD/svg11.dtd">
<svg width="108px" height="67px" viewBox="0 0 1080 679" xmlns="http://www.w3.org/2000/svg" xmlns:xlink="http://www.w3.org/1999/xlink" version="1.1">
<defs>
<path id="gl24067" d="M 28 4 C -10 24 4 105 48 96 C 72 91 86 72 72 62 C 72 62 67 62 67 67 C 62 81 43 86 33 81 C 28 76 24 67 24 52 C 19 14 48 0 62 28 C 72 43 81 43 76 28 C 76 9 52 0 28 4 z" fill="black" /><!-- width=86 height=105 -->
<path id="gl18960" d="M 15 7 C 12 8 11 9 10 12 C 9 13 9 13 9 15 C 9 15 10 16 11 18 C 15 22 15 22 15 37 C 15 56 15 57 20 62 C 23 64 24 66 27 66 C 32 67 40 66 44 64 C 48 63 51 63 58 64 C 66 66 66 66 68 65 C 73 63 72 58 67 55 C 63 52 63 51 63 30 C 64 11 64 10 60 9 C 58 7 48 7 46 8 C 44 9 42 13 42 15 C 42 15 44 16 45 17 C 51 20 52 21 51 37 C 51 49 50 50 47 54 C 43 57 35 58 31 55 C 28 52 27 51 27 39 C 27 33 28 26 28 24 C 28 21 28 18 28 16 C 29 15 29 14 27 12 C 25 8 22 7 15 7 z" fill="black" /><!-- width=81 height=77 -->
<path id="gl18721" d="M 36 12 C 34 12 32 13 31 13 C 30 14 28 15 27 16 C 22 19 19 23 17 34 C 15 45 19 61 26 66 C 32 71 42 73 48 70 C 50 69 53 68 54 68 C 58 67 63 65 63 63 C 65 59 65 57 63 55 C 58 51 58 51 51 58 C 45 63 36 61 32 54 C 30 49 29 33 31 29 C 33 25 38 20 40 19 C 45 18 47 19 47 25 C 47 31 48 33 51 35 C 53 36 58 36 59 34 C 60 33 62 27 62 25 C 62 20 57 13 52 12 C 51 12 48 12 46 11 C 42 10 40 10 36 12 z" fill="black" /><!-- width=73 height=81 -->
<path id="gl18963" d="M 26 7 C 22 9 21 10 21 12 C 21 13 22 16 24 17 C 28 19 28 21 28 35 C 28 42 28 55 28 64 C 28 82 28 81 24 88 C 23 91 22 91 23 93 C 25 97 37 99 43 95 C 46 93 46 92 43 88 C 39 80 40 71 46 70 C 51 69 60 84 58 90 C 57 93 59 95 62 96 C 65 97 75 97 77 96 C 78 96 80 95 81 94 C 83 94 83 94 83 91 C 82 88 81 88 76 84 C 73 81 70 78 69 77 C 60 66 59 64 60 60 C 60 57 63 54 71 50 C 79 46 80 45 79 42 C 78 38 76 37 69 37 C 55 38 52 40 54 46 C 55 51 53 55 47 60 C 45 61 45 61 43 61 C 41 60 40 57 41 44 C 42 37 42 27 42 21 C 42 18 42 15 42 11 C 41 10 40 10 40 9 C 37 6 31 5 26 7 z" fill="black" /><!-- width=92 height=120 -->
<path id="gl1299" d="M 18 13 C 13 15 12 18 15 21 C 17 24 18 24 35 24 C 51 24 51 24 54 21 C 57 18 56 16 52 14 C 49 13 22 12 18 13 z" fill="black" /><!-- width=69 height=37 -->
<path id="gl18957" d="M 33 12 C 32 12 30 12 29 12 C 25 13 18 18 15 23 C 13 26 12 51 14 57 C 15 61 21 68 24 70 C 35 75 49 73 54 66 C 54 64 56 63 57 61 C 64 53 65 40 59 25 C 57 19 56 18 54 16 C 52 16 51 15 50 15 C 50 15 49 15 48 13 C 47 13 44 12 42 12 C 37 10 37 10 33 12 M 43 22 C 47 25 49 36 49 46 C 49 52 47 56 46 56 C 46 56 45 58 43 60 C 39 67 31 65 27 55 C 25 52 24 34 25 30 C 28 22 38 18 43 22 z" fill="black" /><!-- width=75 height=84 -->
<path id="gl18688" d="M 28 12 C 22 13 19 15 15 22 C 7 38 12 60 25 67 C 28 69 40 70 45 68 C 55 66 58 61 62 46 C 64 39 61 25 55 19 C 51 13 47 12 38 11 C 34 11 29 11 28 12 M 41 20 C 46 23 49 31 49 40 C 49 63 30 70 25 49 C 22 37 25 24 32 20 C 34 19 39 19 41 20 z" fill="black" /><!-- width=73 height=81 -->
<path id="gl24068" d="M 172 24 C 168 28 158 48 153 67 C 153 76 153 86 148 91 C 124 91 105 91 81 91 C 38 91 19 96 19 100 C 19 100 33 105 81 100 C 144 100 148 100 153 110 C 158 115 163 158 158 163 C 158 163 124 163 81 163 C 57 168 33 168 9 168 C 28 168 52 168 72 168 C 105 168 134 172 139 172 C 139 172 129 187 120 206 C 110 216 105 225 96 230 C 81 235 72 235 57 235 C 43 235 28 235 14 235 C 24 235 38 235 48 235 C 91 240 91 240 86 264 C 81 273 81 283 81 292 C 81 302 81 302 43 307 C 33 307 19 307 9 307 C 24 307 33 307 48 307 C 57 307 72 307 81 312 C 86 316 86 321 91 326 C 96 336 110 350 115 360 C 124 364 129 369 134 374 C 115 374 91 374 72 374 C 52 374 28 374 9 374 C 38 374 67 374 96 379 C 144 379 187 379 196 379 C 211 384 220 417 216 451 C 216 470 192 494 172 489 C 163 484 163 480 172 475 C 196 460 187 422 163 422 C 129 422 115 456 139 480 C 163 504 196 499 216 470 C 230 456 230 451 220 417 C 216 388 220 384 225 379 C 225 379 283 379 345 379 C 388 379 427 379 465 379 C 465 388 465 398 470 412 C 470 422 470 432 470 441 C 470 432 470 422 475 412 C 475 398 475 388 475 379 C 523 379 566 379 614 374 C 657 374 705 374 748 374 C 705 374 657 374 614 369 C 566 369 523 369 475 369 C 475 360 475 350 475 340 C 475 331 475 321 475 312 C 566 312 662 312 753 307 C 907 307 979 307 912 307 C 792 302 787 302 801 283 C 806 278 811 268 811 259 C 811 249 816 244 816 240 C 830 235 849 235 864 235 C 883 235 897 235 916 235 C 897 235 883 235 864 235 C 849 235 830 235 811 230 C 811 220 816 206 816 196 C 816 172 816 158 811 153 C 806 129 816 100 825 100 C 825 96 830 96 835 96 C 830 96 825 96 825 96 C 816 96 811 91 811 62 C 811 43 811 33 811 33 C 806 33 801 43 801 62 C 801 72 801 81 801 91 C 710 91 614 91 518 91 C 422 91 326 91 230 91 C 230 86 225 76 225 72 C 216 14 192 -5 172 24 M 211 48 C 211 52 211 62 211 76 C 211 81 211 86 211 91 C 206 91 201 91 192 91 C 168 91 163 91 182 57 C 192 38 206 33 211 48 M 201 105 C 206 110 201 120 187 129 C 172 144 172 144 168 139 C 163 120 163 105 177 100 C 196 96 201 96 201 105 M 801 129 C 801 139 801 148 806 158 C 796 163 792 163 787 163 C 782 168 777 168 772 168 C 777 168 782 168 787 168 C 792 168 796 168 801 168 C 801 182 801 192 801 201 C 801 211 801 220 801 230 C 792 235 782 235 772 235 C 748 235 744 235 744 235 C 753 240 748 244 744 254 C 734 264 729 273 734 283 C 734 292 734 297 734 302 C 691 302 648 302 604 302 C 561 302 518 302 475 302 C 475 292 475 283 475 273 C 475 259 475 249 475 240 C 518 240 556 240 600 235 C 643 235 681 235 724 235 C 691 235 657 235 628 235 C 576 235 528 230 528 230 C 528 230 532 220 542 216 C 547 206 547 196 547 187 C 547 172 547 168 552 168 C 556 168 561 168 561 168 C 561 163 484 163 393 163 C 302 168 220 163 216 163 C 211 163 211 158 220 134 C 225 120 230 105 230 105 C 230 100 297 100 518 100 C 609 100 705 100 801 100 C 801 110 801 120 801 129 M 484 182 C 475 187 470 201 470 211 C 465 216 465 225 465 230 C 417 230 374 230 326 230 C 278 230 235 230 187 230 C 187 225 182 216 182 211 C 177 196 182 192 192 182 C 192 177 196 172 201 168 C 249 168 297 168 345 168 C 398 168 446 168 494 168 C 489 172 484 177 484 182 M 537 182 C 547 192 508 230 484 230 C 465 230 489 196 513 182 C 532 172 532 172 537 182 M 177 216 C 182 230 177 230 158 230 C 144 230 144 230 158 216 C 168 201 172 201 177 216 M 158 240 C 158 240 148 249 144 259 C 139 268 134 283 134 288 C 134 297 129 302 120 302 C 105 302 105 297 115 273 C 120 254 134 235 148 235 C 153 235 158 240 158 240 M 465 249 C 465 254 465 268 465 283 C 465 288 465 297 465 302 C 441 302 412 302 388 302 C 283 307 273 302 268 283 C 268 273 259 264 254 259 C 235 240 240 235 355 235 C 388 235 427 235 460 235 C 465 240 465 244 465 249 M 796 254 C 796 273 772 297 753 297 C 734 297 744 273 768 254 C 787 244 801 244 796 254 M 187 278 C 192 297 187 307 168 307 C 148 307 144 302 153 288 C 163 264 182 259 187 278 M 235 278 C 254 297 249 302 216 302 C 196 297 201 302 196 283 C 192 268 192 268 206 268 C 216 268 225 268 235 278 M 139 321 C 144 331 148 340 153 340 C 158 340 158 336 153 331 C 139 316 144 312 168 312 C 177 312 187 312 192 312 C 196 316 196 326 196 336 C 206 369 201 374 182 369 C 153 369 100 331 110 316 C 115 307 129 312 139 321 M 249 321 C 254 331 249 340 240 350 C 216 369 211 369 206 326 C 206 321 206 316 201 307 C 211 307 220 312 225 312 C 244 312 249 312 249 321 M 465 340 C 465 350 465 360 465 369 C 427 369 393 369 355 369 C 292 369 240 369 240 369 C 240 364 249 360 254 350 C 259 345 264 340 264 336 C 264 336 268 326 268 321 C 273 316 273 312 273 312 C 307 312 340 312 374 312 C 403 312 436 312 470 312 C 465 321 465 331 465 340 M 878 168 C 912 168 964 168 998 168 C 1027 168 1003 168 940 168 C 873 168 849 168 878 168 M 854 374 C 868 374 883 374 892 374 C 902 374 892 374 873 374 C 854 374 844 374 854 374 z" fill="black" /><!-- width=1080 height=508 -->
</defs>
<use xlink:href="#gl24067" x="370" y="562" />
<use xlink:href="#gl18960" x="449" y="590" />
<use xlink:href="#gl18721" x="513" y="586" />
<use xlink:href="#gl18963" x="560" y="559" />
<use xlink:href="#gl1299" x="633" y="608" />
<use xlink:href="#gl18957" x="702" y="585" />
<use xlink:href="#gl18688" x="762" y="587" />
<use xlink:href="#gl24068" x="0" y="0" />
</svg>