<?xml version="1.0" standalone="no"?>
<!DOCTYPE svg PUBLIC "-//W3C/DTD SVG 1.1//EN" "http://www.w3.org/Graphics/SVG/1.1/DTD/svg11.dtd">
<svg width="317px" height="60px" viewBox="0 0 3172 607" xmlns="http://www.w3.org/2000/svg" xmlns:xlink="http://www.w3.org/1999/xlink" version="1.1">
<defs>
<path id="gl23298" d="M 327 213 C 325 213 321 214 318 214 C 291 217 274 222 262 231 C 259 234 258 237 259 238 C 261 240 270 240 279 238 C 293 234 374 233 407 237 C 421 238 424 238 424 231 C 424 226 422 224 412 222 C 410 220 406 220 405 219 C 403 218 399 217 396 217 C 384 215 381 214 378 214 C 375 213 333 212 327 213 M 186 216 C 163 220 148 229 134 247 C 128 256 126 256 117 257 C 109 258 107 259 108 265 C 109 267 109 267 114 268 C 118 270 120 271 121 274 C 123 276 123 414 122 498 C 121 543 122 559 124 561 C 125 561 129 561 131 559 C 133 558 133 553 134 525 C 134 514 134 491 134 473 C 135 436 135 435 134 408 C 133 379 135 318 136 314 C 138 310 139 309 145 311 C 148 312 151 312 153 313 C 153 313 159 313 163 313 C 177 313 187 310 197 304 C 200 302 204 299 206 298 C 208 297 211 295 212 293 C 213 292 216 289 218 286 C 220 284 222 281 223 279 C 225 275 228 272 231 271 C 236 269 244 268 323 269 C 429 269 420 269 423 267 C 424 265 425 260 423 259 C 422 258 402 258 317 258 C 271 258 241 257 240 257 C 234 255 232 253 232 245 C 231 238 229 234 222 228 C 212 217 199 213 186 216 z" fill="black" /><!-- width=433 height=570 -->
<path id="gl23299" d="M 48 9 C 38 14 28 24 19 33 C 14 38 9 43 4 48 C 4 100 4 153 4 206 C 4 259 4 312 9 369 C 33 364 57 364 86 364 C 110 364 139 364 163 364 C 163 360 163 350 163 345 C 163 336 168 331 168 326 C 144 321 120 321 96 321 C 72 321 48 321 24 321 C 24 283 24 244 24 206 C 24 144 24 96 24 96 C 24 96 28 96 38 96 C 57 105 81 96 100 72 C 120 57 124 57 144 52 C 158 52 168 52 163 48 C 163 48 158 43 148 43 C 129 48 120 43 120 33 C 120 9 76 0 48 9 z" fill="black" /><!-- width=172 height=374 -->
<path id="gl23300" d="M 201 14 C 196 14 187 24 177 33 C 172 38 163 43 158 48 C 134 48 105 48 81 48 C -15 52 -20 57 76 57 C 115 57 153 62 153 62 C 158 72 158 201 158 264 C 153 283 153 307 153 326 C 129 326 105 326 81 326 C 48 326 9 326 9 326 C 4 326 0 336 4 350 C 4 355 4 364 4 369 C 33 369 62 369 86 369 C 115 369 144 369 168 374 C 168 326 168 283 168 235 C 168 192 168 144 168 100 C 172 100 177 100 182 100 C 201 110 225 100 249 81 C 259 67 273 62 273 57 C 283 57 283 52 273 48 C 268 43 268 38 268 33 C 268 14 230 0 201 14 z" fill="black" /><!-- width=288 height=379 -->
<path id="gl23301" d="M 192 9 C 177 19 158 24 148 38 C 129 52 134 57 163 43 C 206 24 278 24 316 48 C 336 57 345 52 331 38 C 307 14 235 0 192 9 M 52 38 C 48 38 33 48 24 62 C 4 76 0 81 4 105 C 4 115 4 120 4 129 C 14 129 28 129 38 129 C 48 129 57 129 72 134 C 76 124 86 120 91 110 C 100 105 105 96 110 86 C 148 86 187 86 225 86 C 297 86 340 86 340 81 C 340 81 331 76 321 76 C 312 76 264 76 211 76 C 182 76 148 76 115 76 C 115 72 110 67 110 62 C 100 38 86 33 52 38 z" fill="black" /><!-- width=345 height=139 -->
<path id="gl23302" d="M 57 14 C 48 19 38 28 28 38 C 24 43 14 48 9 48 C 4 48 0 52 0 52 C 0 57 4 57 9 57 C 14 57 14 81 14 216 C 14 268 14 321 14 369 C 62 369 110 369 158 369 C 201 369 249 369 292 369 C 292 326 292 283 292 235 C 292 192 292 148 292 100 C 302 100 307 105 312 105 C 340 110 398 76 398 48 C 398 4 340 0 302 33 C 297 38 288 43 283 48 C 259 48 230 48 206 48 C 182 48 158 48 129 48 C 129 48 129 43 124 38 C 115 9 86 0 57 14 M 283 192 C 283 268 283 316 278 321 C 273 331 48 331 38 326 C 28 321 28 302 28 220 C 24 105 24 100 48 105 C 67 110 100 96 115 76 C 115 72 120 62 124 57 C 148 62 177 62 201 62 C 230 62 254 62 283 62 C 283 105 283 148 283 192 z" fill="black" /><!-- width=403 height=379 -->
<path id="gl23303" d="M 14 86 C 14 144 9 168 4 172 C 0 177 0 182 4 182 C 9 187 14 206 14 264 C 14 331 14 340 19 340 C 28 340 28 249 28 91 C 24 19 24 4 19 4 C 14 4 14 14 14 86 z" fill="black" /><!-- width=38 height=350 -->
<path id="gl23304" d="M 43 14 C 33 19 24 33 14 38 C 9 43 9 48 4 52 C 4 105 4 153 4 201 C 4 316 4 350 9 350 C 14 355 19 326 19 230 C 19 187 19 144 19 105 C 24 105 33 105 38 105 C 67 105 81 96 100 72 C 110 67 115 62 120 62 C 124 62 129 57 129 57 C 129 52 124 52 124 52 C 120 52 115 43 110 33 C 100 4 72 0 43 14 z" fill="black" /><!-- width=134 height=360 -->
<path id="gl23305" d="M 52 14 C 43 19 33 28 24 38 C 19 43 14 52 9 52 C 0 52 0 57 4 62 C 9 62 14 120 14 211 C 14 302 14 350 19 350 C 19 350 19 307 19 225 C 19 182 19 139 19 96 C 24 100 28 100 33 100 C 62 110 81 100 110 72 C 129 52 129 43 110 19 C 96 4 76 4 52 14 z" fill="black" /><!-- width=134 height=360 -->
<path id="gl23306" d="M 33 24 C 24 33 14 43 9 43 C 4 43 0 43 0 43 C 0 48 4 52 4 52 C 9 52 14 105 14 206 C 14 345 14 360 19 360 C 24 360 28 350 24 288 C 24 244 24 182 24 148 C 24 129 24 110 28 91 C 28 91 33 91 38 91 C 72 100 129 62 124 33 C 115 0 67 -5 33 24 M 110 19 C 110 33 96 43 76 43 C 57 43 52 33 76 24 C 86 14 110 14 110 19 M 81 52 C 86 62 67 72 48 76 C 33 81 24 67 38 57 C 43 48 76 48 81 52 z" fill="black" /><!-- width=134 height=369 -->
<path id="gl23307" d="M 14 9 C 4 9 4 9 28 9 C 43 9 57 9 52 9 C 48 4 28 4 14 9 z" fill="black" /><!-- width=62 height=19 -->
<path id="gl23308" d="M 12 10 C 9 11 8 12 6 15 C 5 18 7 23 9 24 C 12 25 19 25 22 25 C 25 25 37 25 49 25 C 75 25 97 25 148 25 C 185 25 191 25 199 27 C 201 28 202 27 201 26 C 200 25 200 23 199 19 C 199 15 199 13 198 12 C 198 11 198 10 197 10 C 195 10 192 10 190 10 C 181 11 34 11 22 10 C 17 10 13 10 12 10 z" fill="black" /><!-- width=211 height=37 -->
<path id="gl18714" d="M 9 12 C 7 15 7 16 8 19 C 9 24 9 24 19 24 C 26 23 30 24 32 24 C 36 25 37 24 37 19 C 39 13 36 11 31 12 C 30 12 27 13 26 13 C 23 13 14 12 12 11 C 11 10 11 10 9 12 z" fill="black" /><!-- width=46 height=36 -->
<path id="gl5658" d="M 16 15 C 13 16 12 18 12 21 C 12 27 15 30 22 30 C 24 30 61 29 105 29 C 156 29 189 29 198 29 C 214 30 216 30 218 27 C 222 24 220 18 217 15 C 215 14 214 14 116 14 C 33 14 18 14 16 15 z" fill="black" /><!-- width=232 height=44 -->
<path id="gl2055" d="M 132 11 C 121 12 73 12 31 12 C 6 11 4 12 5 18 C 6 24 9 24 24 23 C 31 23 54 23 91 23 C 109 24 128 24 147 24 C 147 23 147 23 148 22 C 153 18 148 10 142 10 C 141 10 136 10 132 11 z" fill="black" /><!-- width=157 height=34 -->
<path id="gl23309" d="M 7 13 C 5 16 4 25 7 28 C 9 30 9 30 13 28 C 18 28 177 28 181 29 C 181 30 183 30 184 31 C 187 32 188 31 189 27 C 192 20 189 13 185 13 C 168 14 145 14 99 15 C 39 15 19 14 13 13 C 9 12 9 12 7 13 z" fill="black" /><!-- width=196 height=43 -->
<path id="gl23310" d="M 9 9 C 8 10 7 12 6 16 C 6 19 6 21 6 22 C 6 24 6 24 9 24 C 30 23 178 22 183 24 C 187 24 189 24 190 24 C 192 22 192 12 189 10 C 188 10 187 10 184 10 C 181 10 23 10 18 10 C 16 10 13 9 12 9 C 11 9 9 9 9 9 z" fill="black" /><!-- width=198 height=34 -->
<path id="gl23309" d="M 7 13 C 5 16 4 25 7 28 C 9 30 9 30 13 28 C 18 28 177 28 181 29 C 181 30 183 30 184 31 C 187 32 188 31 189 27 C 192 20 189 13 185 13 C 168 14 145 14 99 15 C 39 15 19 14 13 13 C 9 12 9 12 7 13 z" fill="black" /><!-- width=196 height=43 -->
<path id="gl23311" d="M 4 144 C 4 244 9 288 14 283 C 19 283 19 9 14 4 C 9 4 4 33 4 144 z" fill="black" /><!-- width=28 height=297 -->
<path id="gl23312" d="M 12 7 C 9 8 7 9 9 11 C 12 12 15 13 30 12 C 43 12 45 12 46 11 C 48 10 47 8 44 7 C 42 6 16 6 12 7 z" fill="black" /><!-- width=56 height=19 -->
<path id="gl2061" d="M 18 16 C 15 16 15 16 15 25 C 14 35 15 38 18 43 C 19 44 20 45 21 46 C 22 46 22 45 23 45 C 25 43 27 42 28 39 C 29 36 29 18 28 17 C 27 16 21 16 18 16 z" fill="black" /><!-- width=44 height=59 -->
<path id="gl23313" d="M 163 28 C 163 33 163 43 163 48 C 134 48 110 48 86 52 C 14 52 9 52 48 52 C 129 57 240 57 292 57 C 340 52 340 52 259 52 C 230 48 206 48 177 48 C 177 43 177 33 177 28 C 177 14 172 9 168 9 C 168 9 163 14 163 28 z" fill="black" /><!-- width=350 height=67 -->
<path id="gl2061" d="M 18 16 C 15 16 15 16 15 25 C 14 35 15 38 18 43 C 19 44 20 45 21 46 C 22 46 22 45 23 45 C 25 43 27 42 28 39 C 29 36 29 18 28 17 C 27 16 21 16 18 16 z" fill="black" /><!-- width=44 height=59 -->
<path id="gl2061" d="M 18 16 C 15 16 15 16 15 25 C 14 35 15 38 18 43 C 19 44 20 45 21 46 C 22 46 22 45 23 45 C 25 43 27 42 28 39 C 29 36 29 18 28 17 C 27 16 21 16 18 16 z" fill="black" /><!-- width=44 height=59 -->
<path id="gl2061" d="M 18 16 C 15 16 15 16 15 25 C 14 35 15 38 18 43 C 19 44 20 45 21 46 C 22 46 22 45 23 45 C 25 43 27 42 28 39 C 29 36 29 18 28 17 C 27 16 21 16 18 16 z" fill="black" /><!-- width=44 height=59 -->
<path id="gl23314" d="M 0 14 C 0 19 14 19 67 19 C 100 19 134 14 134 14 C 134 9 100 4 67 4 C 14 4 0 4 0 14 z" fill="black" /><!-- width=144 height=28 -->
<path id="gl23315" d="M 4 4 C 4 14 278 14 283 4 C 283 4 240 4 148 4 C 62 4 4 4 4 4 z" fill="black" /><!-- width=292 height=19 -->
</defs>
<use xlink:href="#gl23298" x="92" y="0" />
<use xlink:href="#gl23299" x="542" y="215" />
<use xlink:href="#gl23300" x="715" y="210" />
<use xlink:href="#gl23301" x="1195" y="181" />
<use xlink:href="#gl23302" x="1540" y="210" />
<use xlink:href="#gl23303" x="2078" y="85" />
<use xlink:href="#gl23304" x="2289" y="210" />
<use xlink:href="#gl23305" x="2596" y="210" />
<use xlink:href="#gl23306" x="2903" y="219" />
<use xlink:href="#gl23307" x="2956" y="210" />
<use xlink:href="#gl23308" x="0" y="245" />
<use xlink:href="#gl18714" x="507" y="246" />
<use xlink:href="#gl5658" x="979" y="242" />
<use xlink:href="#gl2055" x="1930" y="247" />
<use xlink:href="#gl23309" x="2102" y="243" />
<use xlink:href="#gl23310" x="2409" y="247" />
<use xlink:href="#gl23309" x="2716" y="243" />
<use xlink:href="#gl23311" x="1190" y="306" />
<use xlink:href="#gl23312" x="1210" y="305" />
<use xlink:href="#gl2061" x="2075" y="410" />
<use xlink:href="#gl23313" x="542" y="531" />
<use xlink:href="#gl2061" x="2276" y="547" />
<use xlink:href="#gl2061" x="195" y="546" />
<use xlink:href="#gl2061" x="2589" y="548" />
<use xlink:href="#gl23314" x="3028" y="253" />
<use xlink:href="#gl23315" x="1550" y="579" />
</svg>