<?xml version="1.0" standalone="no"?>
<!DOCTYPE svg PUBLIC "-//W3C/DTD SVG 1.1//EN" "http://www.w3.org/Graphics/SVG/1.1/DTD/svg11.dtd">
<svg width="343px" height="136px" viewBox="0 0 3437 1362" xmlns="http://www.w3.org/2000/svg" xmlns:xlink="http://www.w3.org/1999/xlink" version="1.1">
<defs>
<path id="gl23558" d="M 49 13 C 48 14 46 16 44 18 C 42 21 39 24 37 27 C 30 37 23 52 22 62 C 19 85 19 100 23 109 C 24 111 25 115 25 117 C 26 120 27 123 28 124 C 28 125 29 127 30 128 C 30 129 31 132 33 135 C 34 138 36 141 37 142 C 38 143 40 145 40 147 C 44 152 52 160 54 160 C 59 160 63 151 58 147 C 55 144 52 139 51 136 C 51 135 49 133 49 132 C 48 131 48 129 47 128 C 47 127 46 123 45 121 C 43 118 42 114 42 111 C 41 109 40 105 39 102 C 37 96 37 79 39 67 C 40 55 45 43 50 35 C 51 33 52 31 52 30 C 52 30 54 29 57 27 C 61 24 63 19 61 15 C 60 12 54 11 49 13 z" fill="black" /><!-- width=72 height=169 -->
<path id="gl23559" d="M 28 7 C 24 9 20 13 21 17 C 22 31 43 30 44 16 C 44 9 36 4 28 7 M 33 40 C 28 42 21 43 19 43 C 18 43 14 45 13 47 C 11 49 15 54 19 56 C 24 58 24 58 25 81 C 25 88 25 94 25 101 C 24 102 24 102 23 102 C 22 103 20 105 18 106 C 12 109 10 112 12 115 C 13 118 21 119 28 117 C 34 116 36 116 42 117 C 48 119 53 118 54 113 C 55 110 55 110 48 106 C 45 104 43 102 43 101 C 42 99 42 61 42 51 C 43 41 40 37 33 40 z" fill="black" /><!-- width=65 height=143 -->
<path id="gl23560" d="M 7 11 C 6 12 5 13 4 15 C 4 16 4 16 3 17 C 4 18 4 19 5 19 C 6 21 8 23 9 24 C 12 27 15 31 20 41 C 23 48 24 49 24 55 C 25 58 25 64 26 66 C 27 77 25 100 22 112 C 21 115 20 120 19 122 C 19 126 13 136 8 141 C 3 147 3 150 7 154 C 8 156 9 156 10 157 C 10 157 12 156 13 156 C 16 154 19 151 22 147 C 23 145 25 142 26 141 C 28 139 30 136 30 134 C 31 132 33 130 33 129 C 34 128 35 126 36 124 C 36 121 38 117 39 114 C 42 108 42 107 43 98 C 43 94 44 90 44 88 C 46 77 42 49 39 43 C 37 40 31 31 31 30 C 29 25 18 12 13 10 C 11 9 8 9 7 11 z" fill="black" /><!-- width=57 height=166 -->
<path id="gl23558" d="M 49 13 C 48 14 46 16 44 18 C 42 21 39 24 37 27 C 30 37 23 52 22 62 C 19 85 19 100 23 109 C 24 111 25 115 25 117 C 26 120 27 123 28 124 C 28 125 29 127 30 128 C 30 129 31 132 33 135 C 34 138 36 141 37 142 C 38 143 40 145 40 147 C 44 152 52 160 54 160 C 59 160 63 151 58 147 C 55 144 52 139 51 136 C 51 135 49 133 49 132 C 48 131 48 129 47 128 C 47 127 46 123 45 121 C 43 118 42 114 42 111 C 41 109 40 105 39 102 C 37 96 37 79 39 67 C 40 55 45 43 50 35 C 51 33 52 31 52 30 C 52 30 54 29 57 27 C 61 24 63 19 61 15 C 60 12 54 11 49 13 z" fill="black" /><!-- width=72 height=169 -->
<path id="gl23559" d="M 28 7 C 24 9 20 13 21 17 C 22 31 43 30 44 16 C 44 9 36 4 28 7 M 33 40 C 28 42 21 43 19 43 C 18 43 14 45 13 47 C 11 49 15 54 19 56 C 24 58 24 58 25 81 C 25 88 25 94 25 101 C 24 102 24 102 23 102 C 22 103 20 105 18 106 C 12 109 10 112 12 115 C 13 118 21 119 28 117 C 34 116 36 116 42 117 C 48 119 53 118 54 113 C 55 110 55 110 48 106 C 45 104 43 102 43 101 C 42 99 42 61 42 51 C 43 41 40 37 33 40 z" fill="black" /><!-- width=65 height=143 -->
<path id="gl23559" d="M 28 7 C 24 9 20 13 21 17 C 22 31 43 30 44 16 C 44 9 36 4 28 7 M 33 40 C 28 42 21 43 19 43 C 18 43 14 45 13 47 C 11 49 15 54 19 56 C 24 58 24 58 25 81 C 25 88 25 94 25 101 C 24 102 24 102 23 102 C 22 103 20 105 18 106 C 12 109 10 112 12 115 C 13 118 21 119 28 117 C 34 116 36 116 42 117 C 48 119 53 118 54 113 C 55 110 55 110 48 106 C 45 104 43 102 43 101 C 42 99 42 61 42 51 C 43 41 40 37 33 40 z" fill="black" /><!-- width=65 height=143 -->
<path id="gl23560" d="M 7 11 C 6 12 5 13 4 15 C 4 16 4 16 3 17 C 4 18 4 19 5 19 C 6 21 8 23 9 24 C 12 27 15 31 20 41 C 23 48 24 49 24 55 C 25 58 25 64 26 66 C 27 77 25 100 22 112 C 21 115 20 120 19 122 C 19 126 13 136 8 141 C 3 147 3 150 7 154 C 8 156 9 156 10 157 C 10 157 12 156 13 156 C 16 154 19 151 22 147 C 23 145 25 142 26 141 C 28 139 30 136 30 134 C 31 132 33 130 33 129 C 34 128 35 126 36 124 C 36 121 38 117 39 114 C 42 108 42 107 43 98 C 43 94 44 90 44 88 C 46 77 42 49 39 43 C 37 40 31 31 31 30 C 29 25 18 12 13 10 C 11 9 8 9 7 11 z" fill="black" /><!-- width=57 height=166 -->
<path id="gl23561" d="M 2131 96 C 2131 124 2131 153 2131 187 C 2116 187 2102 187 2088 187 C 2044 187 1987 187 1977 187 C 1972 187 1968 177 1963 168 C 1948 134 1900 134 1872 168 C 1867 177 1862 182 1857 187 C 1771 187 1684 187 1598 187 C 1454 187 1334 182 1329 182 C 1329 177 1329 172 1324 168 C 1320 139 1267 139 1238 168 C 1219 187 1224 187 1099 187 C 1070 187 1041 187 1012 187 C 1008 177 1008 172 1008 168 C 998 134 950 134 916 168 C 912 172 907 177 902 187 C 806 187 710 187 614 187 C 518 187 422 187 326 187 C 326 177 321 172 321 168 C 307 134 264 134 230 168 C 225 172 220 177 216 187 C 182 187 144 187 110 187 C 43 187 9 187 9 192 C 9 192 43 192 100 192 C 153 192 201 196 206 196 C 211 201 211 216 211 355 C 211 441 216 508 216 508 C 225 508 225 494 225 379 C 220 240 225 235 244 240 C 264 244 283 235 307 216 C 312 206 316 201 326 196 C 412 196 504 196 595 196 C 744 196 873 196 883 196 C 888 196 892 196 897 201 C 897 254 897 307 897 360 C 897 513 902 537 916 499 C 916 484 936 465 955 446 C 1017 384 1027 336 998 264 C 993 249 988 235 984 220 C 988 220 993 216 998 211 C 1003 206 1008 201 1008 196 C 1041 196 1075 196 1108 196 C 1166 196 1214 196 1214 201 C 1214 201 1219 268 1219 355 C 1219 436 1219 504 1219 508 C 1219 508 1224 508 1224 508 C 1228 508 1233 456 1233 369 C 1233 326 1233 283 1233 235 C 1238 240 1243 240 1248 240 C 1267 244 1300 230 1315 211 C 1320 206 1320 206 1324 201 C 1382 201 1440 201 1497 196 C 1588 196 1708 196 1761 196 C 1790 196 1824 196 1852 196 C 1852 254 1852 307 1852 360 C 1852 446 1857 513 1857 513 C 1862 513 1867 508 1872 499 C 1872 489 1891 465 1915 446 C 1977 379 1987 336 1958 264 C 1953 254 1948 240 1944 225 C 1944 220 1948 216 1953 211 C 1953 206 1958 201 1963 196 C 1992 196 2016 196 2044 196 C 2073 196 2102 196 2131 196 C 2131 225 2131 254 2131 283 C 2131 331 2131 374 2131 374 C 2140 379 2140 350 2140 278 C 2140 240 2140 206 2145 201 C 2145 196 2313 192 2318 201 C 2318 201 2318 240 2323 288 C 2323 412 2328 508 2332 508 C 2332 508 2332 451 2332 374 C 2332 326 2332 283 2332 235 C 2342 240 2347 240 2352 240 C 2376 244 2400 235 2419 211 C 2424 206 2428 201 2428 196 C 2462 196 2496 196 2529 196 C 2563 196 2596 196 2625 196 C 2630 244 2630 292 2630 340 C 2630 417 2630 484 2630 484 C 2630 489 2630 499 2630 504 C 2630 508 2635 508 2635 508 C 2640 508 2644 460 2644 374 C 2644 326 2644 283 2644 235 C 2649 240 2654 240 2659 240 C 2683 244 2707 235 2721 216 C 2726 211 2731 206 2736 196 C 2774 196 2808 196 2846 196 C 2880 196 2918 196 2952 196 C 2956 230 2956 259 2956 288 C 2956 432 2956 508 2961 508 C 2966 513 2971 470 2971 374 C 2971 331 2971 283 2971 240 C 2976 240 2980 240 2985 240 C 3009 244 3048 230 3057 211 C 3062 201 3062 196 3110 196 C 3177 196 3182 192 3115 187 C 3100 187 3081 187 3067 187 C 3067 182 3067 177 3067 172 C 3057 139 3004 139 2971 172 C 2966 177 2961 182 2956 187 C 2923 187 2884 187 2851 187 C 2812 187 2779 187 2740 187 C 2740 182 2740 177 2736 172 C 2726 134 2678 134 2644 172 C 2640 177 2635 182 2630 187 C 2596 187 2568 187 2534 187 C 2433 182 2433 182 2433 168 C 2433 134 2361 139 2337 172 C 2332 177 2328 182 2328 187 C 2294 187 2265 187 2236 187 C 2188 182 2145 182 2145 182 C 2140 182 2140 139 2140 96 C 2140 33 2140 9 2136 9 C 2131 4 2131 24 2131 96 M 3048 168 C 3052 177 3043 187 3024 187 C 2995 192 3000 172 3028 163 C 3038 163 3048 163 3048 168 M 3028 201 C 3028 211 3004 220 2990 220 C 2976 220 2966 211 2976 201 C 2980 196 3028 196 3028 201 M 988 254 C 998 278 1003 316 993 345 C 988 379 926 436 916 422 C 916 422 912 326 912 273 C 912 264 912 249 916 235 C 916 240 921 240 926 240 C 936 240 945 240 955 240 C 974 230 979 235 988 254 M 1948 259 C 1972 316 1948 388 1891 417 C 1872 432 1872 432 1872 331 C 1872 302 1872 268 1872 240 C 1881 240 1891 240 1905 240 C 1915 240 1924 240 1939 240 C 1939 244 1944 254 1948 259 z" fill="black" /><!-- width=3177 height=532 -->
<path id="gl12062" d="M 25 12 C 15 15 10 24 13 32 C 17 39 22 41 32 41 C 39 41 45 39 46 35 C 48 33 48 24 47 21 C 46 15 34 10 25 12 z" fill="black" /><!-- width=61 height=54 -->
<path id="gl12062" d="M 25 12 C 15 15 10 24 13 32 C 17 39 22 41 32 41 C 39 41 45 39 46 35 C 48 33 48 24 47 21 C 46 15 34 10 25 12 z" fill="black" /><!-- width=61 height=54 -->
<path id="gl23562" d="M 2116 91 C 2116 153 2116 177 2112 182 C 2107 187 2083 192 2035 192 C 2011 192 1987 192 1958 192 C 1958 182 1953 177 1953 172 C 1939 139 1896 139 1862 168 C 1857 177 1848 182 1843 187 C 1819 187 1800 187 1776 187 C 1699 187 1689 187 1684 172 C 1675 139 1627 139 1593 168 C 1588 172 1579 182 1574 187 C 1540 187 1507 187 1468 187 C 1320 187 1320 187 1320 177 C 1320 172 1315 168 1305 158 C 1291 134 1248 144 1219 172 C 1214 182 1204 187 1200 187 C 1195 187 1147 187 1089 187 C 998 187 988 182 988 177 C 988 144 936 134 902 168 C 897 172 888 177 883 187 C 844 187 811 187 772 187 C 672 187 667 182 662 177 C 662 139 609 134 576 168 C 552 187 561 187 422 187 C 388 187 355 187 321 187 C 321 182 316 177 316 172 C 312 134 259 134 225 168 C 220 172 216 177 211 187 C 177 187 144 187 110 187 C 52 187 4 187 4 187 C 0 192 14 201 24 196 C 28 196 67 196 120 196 C 148 196 177 196 211 196 C 211 254 211 307 211 360 C 211 460 211 513 216 513 C 216 513 216 470 220 393 C 220 240 220 240 244 240 C 268 244 288 235 302 216 C 307 211 312 206 316 201 C 350 201 388 201 422 196 C 480 196 532 196 542 196 C 547 196 552 196 552 196 C 552 254 552 307 552 360 C 552 412 552 465 552 518 C 609 513 667 513 720 513 C 777 513 830 513 888 513 C 888 465 888 422 888 379 C 892 331 892 288 892 240 C 897 240 907 240 912 240 C 936 244 964 230 979 216 C 979 211 984 206 988 196 C 1022 196 1060 196 1099 196 C 1132 196 1171 196 1204 196 C 1204 249 1204 302 1204 355 C 1204 456 1209 518 1214 518 C 1219 523 1219 489 1219 326 C 1219 297 1219 268 1219 240 C 1228 240 1233 240 1243 240 C 1267 244 1291 235 1305 211 C 1305 206 1310 201 1315 196 C 1358 196 1401 196 1444 196 C 1488 196 1531 196 1579 196 C 1579 254 1579 307 1579 360 C 1579 412 1579 465 1579 518 C 1622 513 1670 513 1713 513 C 1761 513 1804 513 1852 513 C 1852 470 1852 422 1852 379 C 1857 331 1857 288 1857 240 C 1867 240 1872 240 1881 240 C 1905 244 1929 230 1944 211 C 1953 201 1953 196 2035 196 C 2102 196 2112 201 2116 206 C 2116 211 2116 249 2116 297 C 2116 345 2121 379 2121 379 C 2126 379 2131 340 2131 288 C 2131 259 2131 230 2131 201 C 2160 201 2193 201 2227 201 C 2256 201 2284 201 2318 201 C 2318 254 2318 307 2318 355 C 2318 451 2323 513 2328 518 C 2328 523 2328 475 2328 379 C 2328 331 2328 283 2328 235 C 2332 240 2337 240 2342 240 C 2366 249 2400 240 2419 216 C 2424 206 2424 201 2428 196 C 2462 201 2496 201 2529 201 C 2563 201 2596 201 2630 201 C 2630 254 2630 302 2630 355 C 2630 441 2635 513 2635 513 C 2644 532 2644 494 2644 369 C 2644 326 2644 283 2644 240 C 2649 240 2654 240 2659 240 C 2683 249 2736 225 2736 201 C 2736 201 2784 196 2836 196 C 2870 196 2904 196 2937 196 C 2942 254 2942 307 2942 360 C 2942 460 2942 518 2947 513 C 2952 513 2952 499 2952 480 C 2952 465 2952 403 2952 345 C 2952 312 2952 273 2952 240 C 2961 240 2971 240 2980 240 C 3004 244 3009 244 3028 220 C 3038 216 3048 206 3052 196 C 3076 196 3096 196 3120 196 C 3158 196 3187 196 3187 192 C 3187 192 3158 192 3120 192 C 3100 192 3076 192 3057 192 C 3052 182 3048 177 3048 172 C 3028 139 2990 139 2961 172 C 2952 177 2947 182 2942 192 C 2908 192 2875 192 2846 192 C 2812 192 2779 192 2750 192 C 2745 182 2740 177 2740 172 C 2721 139 2683 139 2649 172 C 2644 177 2635 182 2630 192 C 2596 192 2568 192 2534 187 C 2438 187 2424 187 2424 168 C 2424 139 2356 139 2332 172 C 2328 177 2323 182 2323 187 C 2294 187 2265 187 2236 187 C 2116 187 2131 201 2131 96 C 2131 48 2126 9 2121 9 C 2121 9 2116 38 2116 91 M 3028 163 C 3038 172 3028 192 3014 187 C 2985 187 2980 182 3000 172 C 3024 158 3024 158 3028 163 M 878 331 C 878 374 878 417 878 460 C 825 460 777 460 724 460 C 672 460 619 460 571 465 C 566 456 566 451 566 446 C 566 436 566 388 566 336 C 566 302 566 273 566 240 C 576 240 580 240 590 240 C 614 244 633 235 648 216 C 662 196 686 196 806 196 C 830 196 854 196 883 201 C 878 244 878 288 878 331 M 1848 326 C 1848 403 1843 456 1843 460 C 1838 465 1603 465 1593 460 C 1588 460 1584 436 1588 350 C 1588 312 1588 278 1588 240 C 1598 240 1603 240 1612 240 C 1636 244 1660 230 1675 211 C 1684 201 1684 196 1766 196 C 1790 196 1819 196 1848 196 C 1848 240 1848 283 1848 326 M 3009 201 C 3014 211 2995 220 2976 225 C 2961 230 2956 225 2956 216 C 2956 211 2961 206 2961 201 C 2966 196 3004 196 3009 201 z" fill="black" /><!-- width=3196 height=532 -->
<path id="gl23563" d="M 52 14 C 28 24 4 43 4 52 C 4 62 9 62 28 48 C 62 19 148 19 182 48 C 201 62 201 62 201 52 C 201 19 100 0 52 14 z" fill="black" /><!-- width=211 height=67 -->
<path id="gl23564" d="M 62 9 C 38 14 19 28 9 43 C 0 62 4 62 24 48 C 43 33 100 24 134 28 C 163 33 206 48 206 57 C 206 57 211 57 216 57 C 240 57 201 24 168 14 C 144 4 96 4 62 9 z" fill="black" /><!-- width=230 height=67 -->
</defs>
<use xlink:href="#gl23558" x="39" y="51" />
<use xlink:href="#gl23559" x="92" y="62" />
<use xlink:href="#gl23560" x="148" y="54" />
<use xlink:href="#gl23558" x="0" y="887" />
<use xlink:href="#gl23559" x="53" y="896" />
<use xlink:href="#gl23559" x="99" y="897" />
<use xlink:href="#gl23560" x="155" y="889" />
<use xlink:href="#gl23561" x="241" y="0" />
<use xlink:href="#gl12062" x="584" y="109" />
<use xlink:href="#gl12062" x="1591" y="110" />
<use xlink:href="#gl23562" x="241" y="830" />
<use xlink:href="#gl23563" x="572" y="940" />
<use xlink:href="#gl23564" x="1575" y="940" />
</svg>