<?xml version="1.0" standalone="no"?>
<!DOCTYPE svg PUBLIC "-//W3C/DTD SVG 1.1//EN" "http://www.w3.org/Graphics/SVG/1.1/DTD/svg11.dtd">
<svg width="548px" height="44px" viewBox="0 0 5483 441" xmlns="http://www.w3.org/2000/svg" xmlns:xlink="http://www.w3.org/1999/xlink" version="1.1">
<defs>
<path id="gl6152" d="M 64 3 C 59 4 52 15 50 24 C 48 34 50 46 55 50 C 60 55 70 54 73 48 C 76 42 73 34 68 33 C 63 32 61 30 61 28 C 60 24 63 19 66 17 C 67 16 69 14 69 13 C 70 12 70 11 71 10 C 70 9 70 8 69 7 C 68 4 67 3 66 3 C 65 3 64 3 64 3 M 24 6 C 17 13 13 26 15 38 C 16 49 19 53 28 53 C 35 53 39 49 39 42 C 39 37 36 34 30 32 C 24 30 24 24 31 16 C 35 10 36 10 35 8 C 35 4 34 3 30 4 C 27 4 27 4 24 6 z" fill="black" /><!-- width=86 height=67 -->
<path id="gl4107" d="M 64 14 C 36 16 16 37 19 61 C 22 81 34 89 71 97 C 99 103 110 113 108 129 C 105 144 90 154 70 154 C 51 154 39 148 28 131 C 24 124 17 123 15 129 C 10 140 29 160 48 165 C 58 167 76 168 86 165 C 111 160 126 142 126 120 C 126 108 123 101 115 93 C 108 85 101 82 74 76 C 52 70 45 67 41 58 C 39 54 39 44 42 40 C 48 28 64 23 78 27 C 86 30 92 33 98 39 C 105 45 107 46 110 45 C 115 43 115 31 110 25 C 103 18 81 12 64 14 z" fill="black" /><!-- width=141 height=181 -->
<path id="gl10775" d="M 43 7 C 38 8 36 13 36 23 C 34 39 33 43 24 44 C 13 45 13 58 24 58 C 27 58 30 60 31 61 C 32 63 32 71 32 100 C 32 146 31 143 43 143 C 47 143 54 144 59 144 C 64 144 68 144 69 144 C 69 144 70 144 71 144 C 74 143 77 139 77 137 C 77 131 73 129 64 129 C 51 129 51 129 51 89 C 51 80 51 71 51 62 C 51 61 52 60 52 60 C 55 58 55 58 59 58 C 70 59 72 58 74 57 C 78 54 78 50 75 46 C 72 43 70 43 62 44 C 51 45 50 44 52 18 C 52 10 49 6 43 7 z" fill="black" /><!-- width=90 height=159 -->
<path id="gl259" d="M 64 12 C 39 16 19 39 19 66 C 19 96 43 115 73 113 C 85 112 100 105 108 97 C 113 92 112 85 106 84 C 102 83 100 84 95 89 C 81 103 59 103 45 90 C 36 81 38 74 50 74 C 72 74 94 65 103 54 C 112 41 107 23 92 16 C 85 12 73 10 64 12 M 79 25 C 88 28 91 38 87 46 C 83 54 76 57 54 63 C 43 66 40 66 39 64 C 36 61 36 60 38 53 C 43 33 62 20 79 25 z" fill="black" /><!-- width=123 height=125 -->
<path id="gl3613" d="M 73 35 C 67 37 66 37 60 41 C 53 46 51 46 47 39 C 43 33 33 33 27 39 C 22 43 23 46 28 51 C 35 55 34 52 34 103 C 35 152 35 153 31 158 C 28 163 28 164 30 166 C 31 167 31 168 32 168 C 36 168 39 168 43 168 C 47 168 51 168 55 168 C 55 168 56 167 57 166 C 58 164 58 162 54 157 C 52 154 51 152 52 138 C 52 131 52 124 52 123 C 52 121 52 109 52 97 C 51 66 52 64 59 56 C 61 53 64 51 67 49 C 69 49 71 48 73 47 C 75 47 78 47 81 47 C 90 47 94 48 100 54 C 106 61 108 68 109 81 C 109 97 106 108 96 116 C 89 122 81 123 71 121 C 62 118 59 119 58 123 C 57 128 67 132 80 132 C 112 133 133 105 126 69 C 120 45 97 29 73 35 z" fill="black" /><!-- width=141 height=183 -->
<path id="gl17669" d="M 56 6 C 55 7 51 9 47 11 C 39 16 34 17 22 18 C 15 18 15 18 13 20 C 11 22 11 22 11 25 C 11 33 18 36 27 33 C 33 32 40 33 42 36 C 42 37 43 38 43 39 C 43 55 43 70 43 87 C 43 138 43 138 41 141 C 40 144 37 145 28 145 C 19 145 17 147 15 151 C 13 154 13 156 16 158 C 19 162 19 162 48 160 C 52 159 55 159 56 159 C 58 160 82 162 85 161 C 91 160 94 156 91 150 C 89 147 86 145 79 145 C 73 145 70 144 68 142 C 64 139 64 142 64 84 C 65 54 65 28 65 27 C 65 26 66 21 66 17 C 66 15 66 12 66 9 C 66 9 64 8 64 7 C 61 6 59 5 56 6 z" fill="black" /><!-- width=103 height=177 -->
<path id="gl3585" d="M 21 13 C 8 18 12 36 24 36 C 36 36 40 20 30 14 C 28 13 22 12 21 13 M 21 72 C 13 74 10 84 15 91 C 21 97 34 94 36 85 C 36 81 34 74 31 73 C 29 72 23 71 21 72 z" fill="black" /><!-- width=49 height=107 -->
<path id="gl3589" d="M 60 14 C 33 18 15 38 18 61 C 21 78 34 88 63 94 C 91 101 101 106 105 115 C 110 127 105 141 94 148 C 86 152 80 154 69 154 C 51 154 38 147 28 133 C 24 127 23 126 19 126 C 9 126 13 142 27 153 C 49 171 94 169 112 149 C 129 131 129 105 111 90 C 104 84 96 81 75 76 C 51 70 43 67 40 58 C 31 41 46 24 68 25 C 79 25 88 29 97 39 C 103 44 105 45 108 44 C 113 43 114 31 109 25 C 102 18 77 12 60 14 z" fill="black" /><!-- width=139 height=180 -->
<path id="gl769" d="M 24 8 C 15 12 15 26 24 30 C 27 31 33 31 36 29 C 45 25 45 11 36 8 C 33 7 27 7 24 8 M 25 47 C 15 51 13 52 13 57 C 13 60 14 61 18 63 C 24 67 24 65 24 96 C 24 126 24 125 19 128 C 14 132 13 136 16 139 C 18 141 19 141 34 141 C 46 141 47 141 48 139 C 52 136 51 133 46 129 C 40 125 41 128 41 88 C 42 55 42 52 40 50 C 38 44 34 43 25 47 z" fill="black" /><!-- width=63 height=163 -->
<path id="gl3" d="M 66 16 C 66 16 63 17 60 18 C 57 19 54 20 51 22 C 44 28 44 28 42 27 C 40 26 39 25 37 22 C 37 20 35 18 34 18 C 29 14 16 21 16 28 C 16 31 16 31 21 36 C 22 37 24 39 26 40 C 26 49 26 59 26 69 C 26 78 26 88 26 97 C 24 99 22 100 21 102 C 16 107 15 108 17 111 C 19 114 19 114 34 114 C 48 114 49 114 50 112 C 54 109 54 106 48 102 C 43 98 43 99 43 71 C 43 46 43 46 45 43 C 51 31 75 25 87 34 C 93 38 93 41 93 74 C 93 99 93 98 89 101 C 84 105 82 109 86 112 C 88 114 88 114 100 114 C 114 114 115 114 117 111 C 120 108 119 105 114 100 C 112 100 111 99 111 98 C 111 97 111 84 110 69 C 110 39 110 39 106 31 C 102 22 89 15 74 16 C 70 16 67 16 66 16 z" fill="black" /><!-- width=131 height=127 -->
<path id="gl16150" d="M 46 15 C 31 17 17 29 12 43 C 7 55 7 73 12 84 C 19 104 40 114 61 110 C 73 108 81 111 83 121 C 85 128 81 134 74 137 C 67 139 62 140 51 139 C 37 139 32 138 30 132 C 26 124 26 124 24 123 C 13 118 5 137 13 147 C 23 157 67 159 87 149 C 109 138 111 117 93 103 C 87 100 88 96 93 88 C 102 76 103 60 97 45 C 93 36 94 33 100 31 C 111 27 108 15 96 15 C 94 15 88 15 82 15 C 76 16 68 15 65 15 C 59 14 52 14 46 15 M 64 31 C 84 38 86 81 67 91 C 55 99 38 95 33 82 C 24 64 30 40 44 32 C 50 29 58 28 64 31 z" fill="black" /><!-- width=118 height=168 -->
<path id="gl769" d="M 24 8 C 15 12 15 26 24 30 C 27 31 33 31 36 29 C 45 25 45 11 36 8 C 33 7 27 7 24 8 M 25 47 C 15 51 13 52 13 57 C 13 60 14 61 18 63 C 24 67 24 65 24 96 C 24 126 24 125 19 128 C 14 132 13 136 16 139 C 18 141 19 141 34 141 C 46 141 47 141 48 139 C 52 136 51 133 46 129 C 40 125 41 128 41 88 C 42 55 42 52 40 50 C 38 44 34 43 25 47 z" fill="black" /><!-- width=63 height=163 -->
<path id="gl3" d="M 66 16 C 66 16 63 17 60 18 C 57 19 54 20 51 22 C 44 28 44 28 42 27 C 40 26 39 25 37 22 C 37 20 35 18 34 18 C 29 14 16 21 16 28 C 16 31 16 31 21 36 C 22 37 24 39 26 40 C 26 49 26 59 26 69 C 26 78 26 88 26 97 C 24 99 22 100 21 102 C 16 107 15 108 17 111 C 19 114 19 114 34 114 C 48 114 49 114 50 112 C 54 109 54 106 48 102 C 43 98 43 99 43 71 C 43 46 43 46 45 43 C 51 31 75 25 87 34 C 93 38 93 41 93 74 C 93 99 93 98 89 101 C 84 105 82 109 86 112 C 88 114 88 114 100 114 C 114 114 115 114 117 111 C 120 108 119 105 114 100 C 112 100 111 99 111 98 C 111 97 111 84 110 69 C 110 39 110 39 106 31 C 102 22 89 15 74 16 C 70 16 67 16 66 16 z" fill="black" /><!-- width=131 height=127 -->
<path id="gl4371" d="M 44 15 C 34 16 27 19 20 27 C 13 34 9 42 7 54 C 4 88 26 111 58 106 C 66 105 69 105 73 107 C 85 113 86 129 74 135 C 68 138 51 139 41 138 C 29 136 27 135 25 128 C 24 123 22 121 19 121 C 9 119 4 136 13 144 C 24 154 67 154 86 144 C 105 135 106 114 90 102 C 82 97 82 94 88 87 C 98 75 100 55 91 39 C 90 36 88 33 88 32 C 88 30 91 28 94 28 C 100 27 103 24 103 21 C 102 15 99 15 85 15 C 77 15 72 15 66 15 C 55 13 51 13 44 15 M 62 28 C 84 36 84 83 62 92 C 56 94 45 94 40 91 C 19 81 19 39 41 28 C 48 25 55 25 62 28 z" fill="black" /><!-- width=114 height=164 -->
<path id="gl2" d="M 53 12 C 33 16 18 33 14 52 C 11 67 14 81 22 92 C 33 107 49 114 68 112 C 93 111 110 94 114 69 C 118 45 102 19 78 12 C 73 11 58 10 53 12 M 70 24 C 90 28 101 49 96 73 C 91 99 59 110 40 91 C 33 83 30 76 30 63 C 30 37 48 19 70 24 z" fill="black" /><!-- width=129 height=124 -->
<path id="gl3" d="M 66 16 C 66 16 63 17 60 18 C 57 19 54 20 51 22 C 44 28 44 28 42 27 C 40 26 39 25 37 22 C 37 20 35 18 34 18 C 29 14 16 21 16 28 C 16 31 16 31 21 36 C 22 37 24 39 26 40 C 26 49 26 59 26 69 C 26 78 26 88 26 97 C 24 99 22 100 21 102 C 16 107 15 108 17 111 C 19 114 19 114 34 114 C 48 114 49 114 50 112 C 54 109 54 106 48 102 C 43 98 43 99 43 71 C 43 46 43 46 45 43 C 51 31 75 25 87 34 C 93 38 93 41 93 74 C 93 99 93 98 89 101 C 84 105 82 109 86 112 C 88 114 88 114 100 114 C 114 114 115 114 117 111 C 120 108 119 105 114 100 C 112 100 111 99 111 98 C 111 97 111 84 110 69 C 110 39 110 39 106 31 C 102 22 89 15 74 16 C 70 16 67 16 66 16 z" fill="black" /><!-- width=131 height=127 -->
<path id="gl259" d="M 64 12 C 39 16 19 39 19 66 C 19 96 43 115 73 113 C 85 112 100 105 108 97 C 113 92 112 85 106 84 C 102 83 100 84 95 89 C 81 103 59 103 45 90 C 36 81 38 74 50 74 C 72 74 94 65 103 54 C 112 41 107 23 92 16 C 85 12 73 10 64 12 M 79 25 C 88 28 91 38 87 46 C 83 54 76 57 54 63 C 43 66 40 66 39 64 C 36 61 36 60 38 53 C 43 33 62 20 79 25 z" fill="black" /><!-- width=123 height=125 -->
<path id="gl3" d="M 66 16 C 66 16 63 17 60 18 C 57 19 54 20 51 22 C 44 28 44 28 42 27 C 40 26 39 25 37 22 C 37 20 35 18 34 18 C 29 14 16 21 16 28 C 16 31 16 31 21 36 C 22 37 24 39 26 40 C 26 49 26 59 26 69 C 26 78 26 88 26 97 C 24 99 22 100 21 102 C 16 107 15 108 17 111 C 19 114 19 114 34 114 C 48 114 49 114 50 112 C 54 109 54 106 48 102 C 43 98 43 99 43 71 C 43 46 43 46 45 43 C 51 31 75 25 87 34 C 93 38 93 41 93 74 C 93 99 93 98 89 101 C 84 105 82 109 86 112 C 88 114 88 114 100 114 C 114 114 115 114 117 111 C 120 108 119 105 114 100 C 112 100 111 99 111 98 C 111 97 111 84 110 69 C 110 39 110 39 106 31 C 102 22 89 15 74 16 C 70 16 67 16 66 16 z" fill="black" /><!-- width=131 height=127 -->
<path id="gl2" d="M 53 12 C 33 16 18 33 14 52 C 11 67 14 81 22 92 C 33 107 49 114 68 112 C 93 111 110 94 114 69 C 118 45 102 19 78 12 C 73 11 58 10 53 12 M 70 24 C 90 28 101 49 96 73 C 91 99 59 110 40 91 C 33 83 30 76 30 63 C 30 37 48 19 70 24 z" fill="black" /><!-- width=129 height=124 -->
<path id="gl0" d="M 38 8 C 36 11 35 14 34 24 C 33 39 31 42 24 42 C 19 43 16 44 15 47 C 14 51 18 54 24 54 C 29 55 31 57 31 61 C 31 63 31 81 31 99 C 30 143 29 139 46 141 C 52 141 58 141 61 141 C 70 142 76 137 72 131 C 71 128 67 127 60 127 C 47 127 48 129 47 90 C 47 58 47 57 49 55 C 51 54 51 54 56 54 C 66 56 70 55 72 51 C 73 48 73 45 70 43 C 69 42 62 42 54 43 C 53 43 52 43 51 43 C 50 43 49 42 49 42 C 47 39 47 37 48 24 C 49 11 48 7 42 6 C 40 6 40 6 38 8 z" fill="black" /><!-- width=84 height=157 -->
<path id="gl259" d="M 64 12 C 39 16 19 39 19 66 C 19 96 43 115 73 113 C 85 112 100 105 108 97 C 113 92 112 85 106 84 C 102 83 100 84 95 89 C 81 103 59 103 45 90 C 36 81 38 74 50 74 C 72 74 94 65 103 54 C 112 41 107 23 92 16 C 85 12 73 10 64 12 M 79 25 C 88 28 91 38 87 46 C 83 54 76 57 54 63 C 43 66 40 66 39 64 C 36 61 36 60 38 53 C 43 33 62 20 79 25 z" fill="black" /><!-- width=123 height=125 -->
<path id="gl256" d="M 25 7 C 19 10 17 12 17 19 C 17 26 21 29 28 30 C 37 30 42 24 40 15 C 39 10 31 6 25 7 M 31 45 C 30 45 28 46 26 47 C 24 48 22 49 20 49 C 11 52 10 59 18 63 C 24 67 24 64 24 96 C 24 106 24 115 24 124 C 23 125 22 126 22 127 C 21 128 19 130 18 132 C 10 136 13 143 23 142 C 28 142 36 142 40 143 C 44 143 45 143 47 141 C 51 138 51 135 45 130 C 40 127 40 130 40 88 C 40 47 40 48 36 46 C 34 45 33 45 31 45 z" fill="black" /><!-- width=61 height=168 -->
<path id="gl3" d="M 66 16 C 66 16 63 17 60 18 C 57 19 54 20 51 22 C 44 28 44 28 42 27 C 40 26 39 25 37 22 C 37 20 35 18 34 18 C 29 14 16 21 16 28 C 16 31 16 31 21 36 C 22 37 24 39 26 40 C 26 49 26 59 26 69 C 26 78 26 88 26 97 C 24 99 22 100 21 102 C 16 107 15 108 17 111 C 19 114 19 114 34 114 C 48 114 49 114 50 112 C 54 109 54 106 48 102 C 43 98 43 99 43 71 C 43 46 43 46 45 43 C 51 31 75 25 87 34 C 93 38 93 41 93 74 C 93 99 93 98 89 101 C 84 105 82 109 86 112 C 88 114 88 114 100 114 C 114 114 115 114 117 111 C 120 108 119 105 114 100 C 112 100 111 99 111 98 C 111 97 111 84 110 69 C 110 39 110 39 106 31 C 102 22 89 15 74 16 C 70 16 67 16 66 16 z" fill="black" /><!-- width=131 height=127 -->
<path id="gl5" d="M 75 28 C 71 30 67 33 63 38 C 57 47 53 47 51 38 C 48 28 44 25 35 30 C 25 34 23 42 30 46 C 39 53 39 52 39 81 C 39 110 39 108 32 114 C 28 118 28 122 32 124 C 35 125 59 125 61 124 C 66 122 66 118 62 115 C 55 108 55 109 55 85 C 55 66 56 64 60 57 C 67 47 74 43 82 48 C 90 52 97 43 93 34 C 90 28 82 25 75 28 z" fill="black" /><!-- width=105 height=138 -->
<path id="gl1" d="M 40 9 C 37 11 36 11 33 13 C 31 16 31 19 33 22 C 38 27 37 21 37 85 C 37 116 37 142 37 144 C 37 144 35 147 34 148 C 27 156 30 159 46 159 C 60 160 64 157 60 150 C 55 144 55 144 54 139 C 54 130 54 91 55 88 C 58 81 73 73 84 75 C 96 76 103 82 104 93 C 105 95 105 106 105 118 C 105 142 105 144 101 148 C 96 156 99 160 114 160 C 129 160 132 156 125 148 C 121 144 121 144 121 117 C 121 96 120 90 120 87 C 114 66 91 57 64 67 C 60 69 59 70 57 69 C 54 67 54 67 54 39 C 54 12 54 11 51 9 C 49 8 44 8 40 9 z" fill="black" /><!-- width=143 height=191 -->
<path id="gl9728" d="M 24 29 C 17 30 16 34 19 42 C 21 46 22 49 24 57 C 30 94 39 114 56 122 C 66 126 66 130 58 139 C 50 148 46 150 35 150 C 26 150 25 151 22 154 C 21 157 21 161 23 164 C 25 167 28 168 34 168 C 53 168 73 149 89 116 C 99 97 103 83 107 60 C 108 56 109 48 111 44 C 114 31 112 29 100 28 C 87 28 82 32 88 41 C 91 45 91 48 91 54 C 92 67 83 96 78 103 C 71 110 63 108 56 97 C 50 88 43 67 43 54 C 43 51 43 49 43 46 C 44 45 45 43 46 42 C 49 34 48 31 43 29 C 40 28 27 28 24 29 z" fill="black" /><!-- width=123 height=181 -->
<path id="gl0" d="M 38 8 C 36 11 35 14 34 24 C 33 39 31 42 24 42 C 19 43 16 44 15 47 C 14 51 18 54 24 54 C 29 55 31 57 31 61 C 31 63 31 81 31 99 C 30 143 29 139 46 141 C 52 141 58 141 61 141 C 70 142 76 137 72 131 C 71 128 67 127 60 127 C 47 127 48 129 47 90 C 47 58 47 57 49 55 C 51 54 51 54 56 54 C 66 56 70 55 72 51 C 73 48 73 45 70 43 C 69 42 62 42 54 43 C 53 43 52 43 51 43 C 50 43 49 42 49 42 C 47 39 47 37 48 24 C 49 11 48 7 42 6 C 40 6 40 6 38 8 z" fill="black" /><!-- width=84 height=157 -->
<path id="gl1" d="M 40 9 C 37 11 36 11 33 13 C 31 16 31 19 33 22 C 38 27 37 21 37 85 C 37 116 37 142 37 144 C 37 144 35 147 34 148 C 27 156 30 159 46 159 C 60 160 64 157 60 150 C 55 144 55 144 54 139 C 54 130 54 91 55 88 C 58 81 73 73 84 75 C 96 76 103 82 104 93 C 105 95 105 106 105 118 C 105 142 105 144 101 148 C 96 156 99 160 114 160 C 129 160 132 156 125 148 C 121 144 121 144 121 117 C 121 96 120 90 120 87 C 114 66 91 57 64 67 C 60 69 59 70 57 69 C 54 67 54 67 54 39 C 54 12 54 11 51 9 C 49 8 44 8 40 9 z" fill="black" /><!-- width=143 height=191 -->
<path id="gl262" d="M 129 19 C 122 19 115 22 109 27 C 103 31 100 31 94 26 C 87 21 83 19 73 19 C 63 18 57 20 49 25 C 43 29 42 29 37 24 C 33 18 29 18 23 22 C 16 27 16 30 22 39 C 25 42 25 44 25 71 C 25 99 25 99 21 103 C 15 111 21 114 37 114 C 45 113 46 113 48 111 C 50 109 49 107 46 103 C 42 99 42 99 43 71 C 43 48 43 47 44 45 C 51 30 72 25 82 36 C 87 42 87 48 88 76 C 88 98 87 98 84 103 C 81 107 81 108 82 110 C 83 113 85 114 94 114 C 110 114 114 111 108 103 C 105 97 105 97 105 73 C 105 43 105 40 118 33 C 132 27 144 31 148 43 C 150 46 150 50 150 70 C 150 97 150 97 146 103 C 143 108 143 108 145 111 C 147 113 151 114 163 114 C 173 113 175 110 171 103 C 167 98 167 100 166 72 C 166 63 166 54 166 46 C 166 44 165 42 165 40 C 163 34 161 31 157 27 C 151 21 139 17 129 19 z" fill="black" /><!-- width=186 height=128 -->
<path id="gl16159" d="M 40 9 C 25 11 16 16 16 22 C 15 31 23 33 32 28 C 43 22 48 21 55 22 C 69 24 79 34 73 39 C 73 40 72 41 72 42 C 69 42 65 42 62 42 C 44 42 32 46 21 57 C 9 69 7 87 18 99 C 31 111 56 113 70 102 C 75 99 77 99 82 103 C 89 108 103 109 106 104 C 108 100 106 96 101 92 C 97 89 96 88 96 63 C 96 42 96 40 95 36 C 91 22 81 13 66 9 C 60 8 46 7 40 9 M 75 54 C 78 57 78 58 78 66 C 78 82 73 88 58 93 C 46 96 34 93 32 84 C 28 72 37 60 55 56 C 66 53 72 52 75 54 z" fill="black" /><!-- width=119 height=124 -->
<path id="gl3" d="M 66 16 C 66 16 63 17 60 18 C 57 19 54 20 51 22 C 44 28 44 28 42 27 C 40 26 39 25 37 22 C 37 20 35 18 34 18 C 29 14 16 21 16 28 C 16 31 16 31 21 36 C 22 37 24 39 26 40 C 26 49 26 59 26 69 C 26 78 26 88 26 97 C 24 99 22 100 21 102 C 16 107 15 108 17 111 C 19 114 19 114 34 114 C 48 114 49 114 50 112 C 54 109 54 106 48 102 C 43 98 43 99 43 71 C 43 46 43 46 45 43 C 51 31 75 25 87 34 C 93 38 93 41 93 74 C 93 99 93 98 89 101 C 84 105 82 109 86 112 C 88 114 88 114 100 114 C 114 114 115 114 117 111 C 120 108 119 105 114 100 C 112 100 111 99 111 98 C 111 97 111 84 110 69 C 110 39 110 39 106 31 C 102 22 89 15 74 16 C 70 16 67 16 66 16 z" fill="black" /><!-- width=131 height=127 -->
<path id="gl4616" d="M 84 10 C 74 14 72 18 77 25 C 80 28 81 31 80 48 C 80 69 80 70 69 67 C 37 58 9 81 9 117 C 9 139 21 156 39 162 C 49 166 61 165 70 160 C 77 156 78 156 84 159 C 90 162 95 163 99 161 C 104 159 105 157 102 151 C 97 145 97 151 97 80 C 97 19 97 15 96 13 C 94 10 90 9 84 10 M 69 78 C 81 82 81 82 80 114 C 80 141 80 141 75 145 C 70 150 60 153 54 152 C 36 150 26 135 27 112 C 28 84 47 70 69 78 z" fill="black" /><!-- width=129 height=201 -->
<path id="gl4" d="M 39 13 C 24 18 14 30 15 44 C 16 59 22 64 45 70 C 51 72 58 73 60 75 C 73 81 70 98 54 101 C 44 103 36 100 28 93 C 21 85 17 84 13 87 C 9 91 10 97 15 103 C 27 114 47 117 63 111 C 88 102 92 72 70 60 C 65 58 54 54 52 54 C 49 54 40 51 37 49 C 32 47 30 45 30 40 C 30 31 37 25 48 25 C 55 25 58 27 64 33 C 70 38 72 39 75 39 C 82 37 84 28 78 21 C 72 15 50 10 39 13 z" fill="black" /><!-- width=98 height=127 -->
<path id="gl515" d="M 64 12 C 43 16 27 31 21 52 C 19 60 19 73 21 79 C 29 108 63 123 91 109 C 108 100 115 91 109 85 C 106 81 102 83 94 90 C 83 99 73 102 60 98 C 49 96 39 85 40 79 C 41 75 42 74 54 73 C 75 73 91 67 101 56 C 110 46 110 33 102 22 C 93 13 79 9 64 12 M 78 25 C 85 27 89 31 89 38 C 89 46 85 51 75 56 C 70 58 48 65 44 65 C 38 65 36 61 39 53 C 43 34 61 21 78 25 z" fill="black" /><!-- width=123 height=126 -->
<path id="gl515" d="M 64 12 C 43 16 27 31 21 52 C 19 60 19 73 21 79 C 29 108 63 123 91 109 C 108 100 115 91 109 85 C 106 81 102 83 94 90 C 83 99 73 102 60 98 C 49 96 39 85 40 79 C 41 75 42 74 54 73 C 75 73 91 67 101 56 C 110 46 110 33 102 22 C 93 13 79 9 64 12 M 78 25 C 85 27 89 31 89 38 C 89 46 85 51 75 56 C 70 58 48 65 44 65 C 38 65 36 61 39 53 C 43 34 61 21 78 25 z" fill="black" /><!-- width=123 height=126 -->
<path id="gl6164" d="M 40 9 C 37 11 36 15 36 22 C 34 40 33 44 25 45 C 14 45 13 57 24 58 C 33 59 33 57 32 93 C 32 139 32 135 33 138 C 36 141 37 141 53 142 C 70 142 72 142 75 139 C 77 137 78 135 76 132 C 73 129 71 127 63 127 C 60 127 58 127 56 127 C 55 127 54 126 54 126 C 51 123 51 121 50 90 C 50 81 50 71 50 62 C 51 61 51 61 52 60 C 52 60 53 59 54 58 C 57 58 60 58 63 58 C 72 58 72 58 73 57 C 76 55 77 52 76 49 C 75 45 72 44 58 45 C 54 45 54 45 52 43 C 51 42 51 42 50 41 C 50 39 51 37 51 34 C 52 14 52 14 51 12 C 48 8 43 6 40 9 z" fill="black" /><!-- width=89 height=158 -->
<path id="gl1" d="M 40 9 C 37 11 36 11 33 13 C 31 16 31 19 33 22 C 38 27 37 21 37 85 C 37 116 37 142 37 144 C 37 144 35 147 34 148 C 27 156 30 159 46 159 C 60 160 64 157 60 150 C 55 144 55 144 54 139 C 54 130 54 91 55 88 C 58 81 73 73 84 75 C 96 76 103 82 104 93 C 105 95 105 106 105 118 C 105 142 105 144 101 148 C 96 156 99 160 114 160 C 129 160 132 156 125 148 C 121 144 121 144 121 117 C 121 96 120 90 120 87 C 114 66 91 57 64 67 C 60 69 59 70 57 69 C 54 67 54 67 54 39 C 54 12 54 11 51 9 C 49 8 44 8 40 9 z" fill="black" /><!-- width=143 height=191 -->
<path id="gl515" d="M 64 12 C 43 16 27 31 21 52 C 19 60 19 73 21 79 C 29 108 63 123 91 109 C 108 100 115 91 109 85 C 106 81 102 83 94 90 C 83 99 73 102 60 98 C 49 96 39 85 40 79 C 41 75 42 74 54 73 C 75 73 91 67 101 56 C 110 46 110 33 102 22 C 93 13 79 9 64 12 M 78 25 C 85 27 89 31 89 38 C 89 46 85 51 75 56 C 70 58 48 65 44 65 C 38 65 36 61 39 53 C 43 34 61 21 78 25 z" fill="black" /><!-- width=123 height=126 -->
<path id="gl516" d="M 24 19 C 20 21 19 25 22 32 C 22 34 24 40 25 45 C 32 81 48 116 58 116 C 64 116 73 103 84 79 C 85 76 89 73 91 73 C 92 74 94 78 100 90 C 109 111 115 118 121 116 C 130 114 144 86 153 52 C 154 47 157 39 158 34 C 162 22 160 19 149 19 C 139 19 136 22 141 31 C 143 36 143 39 142 47 C 139 60 130 84 126 91 C 124 93 122 93 120 93 C 118 92 110 75 106 64 C 100 45 99 37 102 31 C 106 22 104 19 92 19 C 85 19 82 20 81 23 C 79 25 79 25 82 33 C 86 41 79 66 70 85 C 67 89 63 94 61 93 C 60 93 57 91 56 89 C 51 77 45 61 43 47 C 41 38 41 36 43 31 C 46 24 46 21 40 19 C 39 19 26 19 24 19 z" fill="black" /><!-- width=175 height=132 -->
<path id="gl5" d="M 75 28 C 71 30 67 33 63 38 C 57 47 53 47 51 38 C 48 28 44 25 35 30 C 25 34 23 42 30 46 C 39 53 39 52 39 81 C 39 110 39 108 32 114 C 28 118 28 122 32 124 C 35 125 59 125 61 124 C 66 122 66 118 62 115 C 55 108 55 109 55 85 C 55 66 56 64 60 57 C 67 47 74 43 82 48 C 90 52 97 43 93 34 C 90 28 82 25 75 28 z" fill="black" /><!-- width=105 height=138 -->
<path id="gl514" d="M 27 7 C 19 9 15 18 19 26 C 22 33 36 33 41 26 C 43 22 43 15 40 12 C 37 9 31 7 27 7 M 32 46 C 29 46 18 51 15 53 C 10 56 12 62 19 64 C 24 66 25 67 24 99 C 24 127 24 127 20 130 C 13 133 12 137 16 141 C 16 141 17 141 18 142 C 22 142 27 142 31 142 C 47 142 48 142 50 139 C 51 138 52 137 52 136 C 52 135 48 131 45 129 C 41 127 42 127 41 89 C 41 67 41 53 41 51 C 40 48 36 45 32 46 z" fill="black" /><!-- width=63 height=165 -->
<path id="gl6164" d="M 40 9 C 37 11 36 15 36 22 C 34 40 33 44 25 45 C 14 45 13 57 24 58 C 33 59 33 57 32 93 C 32 139 32 135 33 138 C 36 141 37 141 53 142 C 70 142 72 142 75 139 C 77 137 78 135 76 132 C 73 129 71 127 63 127 C 60 127 58 127 56 127 C 55 127 54 126 54 126 C 51 123 51 121 50 90 C 50 81 50 71 50 62 C 51 61 51 61 52 60 C 52 60 53 59 54 58 C 57 58 60 58 63 58 C 72 58 72 58 73 57 C 76 55 77 52 76 49 C 75 45 72 44 58 45 C 54 45 54 45 52 43 C 51 42 51 42 50 41 C 50 39 51 37 51 34 C 52 14 52 14 51 12 C 48 8 43 6 40 9 z" fill="black" /><!-- width=89 height=158 -->
<path id="gl6164" d="M 40 9 C 37 11 36 15 36 22 C 34 40 33 44 25 45 C 14 45 13 57 24 58 C 33 59 33 57 32 93 C 32 139 32 135 33 138 C 36 141 37 141 53 142 C 70 142 72 142 75 139 C 77 137 78 135 76 132 C 73 129 71 127 63 127 C 60 127 58 127 56 127 C 55 127 54 126 54 126 C 51 123 51 121 50 90 C 50 81 50 71 50 62 C 51 61 51 61 52 60 C 52 60 53 59 54 58 C 57 58 60 58 63 58 C 72 58 72 58 73 57 C 76 55 77 52 76 49 C 75 45 72 44 58 45 C 54 45 54 45 52 43 C 51 42 51 42 50 41 C 50 39 51 37 51 34 C 52 14 52 14 51 12 C 48 8 43 6 40 9 z" fill="black" /><!-- width=89 height=158 -->
<path id="gl259" d="M 64 12 C 39 16 19 39 19 66 C 19 96 43 115 73 113 C 85 112 100 105 108 97 C 113 92 112 85 106 84 C 102 83 100 84 95 89 C 81 103 59 103 45 90 C 36 81 38 74 50 74 C 72 74 94 65 103 54 C 112 41 107 23 92 16 C 85 12 73 10 64 12 M 79 25 C 88 28 91 38 87 46 C 83 54 76 57 54 63 C 43 66 40 66 39 64 C 36 61 36 60 38 53 C 43 33 62 20 79 25 z" fill="black" /><!-- width=123 height=125 -->
<path id="gl3" d="M 66 16 C 66 16 63 17 60 18 C 57 19 54 20 51 22 C 44 28 44 28 42 27 C 40 26 39 25 37 22 C 37 20 35 18 34 18 C 29 14 16 21 16 28 C 16 31 16 31 21 36 C 22 37 24 39 26 40 C 26 49 26 59 26 69 C 26 78 26 88 26 97 C 24 99 22 100 21 102 C 16 107 15 108 17 111 C 19 114 19 114 34 114 C 48 114 49 114 50 112 C 54 109 54 106 48 102 C 43 98 43 99 43 71 C 43 46 43 46 45 43 C 51 31 75 25 87 34 C 93 38 93 41 93 74 C 93 99 93 98 89 101 C 84 105 82 109 86 112 C 88 114 88 114 100 114 C 114 114 115 114 117 111 C 120 108 119 105 114 100 C 112 100 111 99 111 98 C 111 97 111 84 110 69 C 110 39 110 39 106 31 C 102 22 89 15 74 16 C 70 16 67 16 66 16 z" fill="black" /><!-- width=131 height=127 -->
<path id="gl3" d="M 66 16 C 66 16 63 17 60 18 C 57 19 54 20 51 22 C 44 28 44 28 42 27 C 40 26 39 25 37 22 C 37 20 35 18 34 18 C 29 14 16 21 16 28 C 16 31 16 31 21 36 C 22 37 24 39 26 40 C 26 49 26 59 26 69 C 26 78 26 88 26 97 C 24 99 22 100 21 102 C 16 107 15 108 17 111 C 19 114 19 114 34 114 C 48 114 49 114 50 112 C 54 109 54 106 48 102 C 43 98 43 99 43 71 C 43 46 43 46 45 43 C 51 31 75 25 87 34 C 93 38 93 41 93 74 C 93 99 93 98 89 101 C 84 105 82 109 86 112 C 88 114 88 114 100 114 C 114 114 115 114 117 111 C 120 108 119 105 114 100 C 112 100 111 99 111 98 C 111 97 111 84 110 69 C 110 39 110 39 106 31 C 102 22 89 15 74 16 C 70 16 67 16 66 16 z" fill="black" /><!-- width=131 height=127 -->
<path id="gl2" d="M 53 12 C 33 16 18 33 14 52 C 11 67 14 81 22 92 C 33 107 49 114 68 112 C 93 111 110 94 114 69 C 118 45 102 19 78 12 C 73 11 58 10 53 12 M 70 24 C 90 28 101 49 96 73 C 91 99 59 110 40 91 C 33 83 30 76 30 63 C 30 37 48 19 70 24 z" fill="black" /><!-- width=129 height=124 -->
<path id="gl0" d="M 38 8 C 36 11 35 14 34 24 C 33 39 31 42 24 42 C 19 43 16 44 15 47 C 14 51 18 54 24 54 C 29 55 31 57 31 61 C 31 63 31 81 31 99 C 30 143 29 139 46 141 C 52 141 58 141 61 141 C 70 142 76 137 72 131 C 71 128 67 127 60 127 C 47 127 48 129 47 90 C 47 58 47 57 49 55 C 51 54 51 54 56 54 C 66 56 70 55 72 51 C 73 48 73 45 70 43 C 69 42 62 42 54 43 C 53 43 52 43 51 43 C 50 43 49 42 49 42 C 47 39 47 37 48 24 C 49 11 48 7 42 6 C 40 6 40 6 38 8 z" fill="black" /><!-- width=84 height=157 -->
<path id="gl518" d="M 62 14 C 28 21 9 61 25 90 C 36 109 61 118 84 111 C 94 108 105 101 108 96 C 111 92 110 87 107 85 C 103 82 100 84 94 90 C 84 99 73 102 61 99 C 51 97 41 88 39 81 C 39 76 42 74 51 74 C 75 74 99 64 105 50 C 108 45 107 36 105 30 C 98 17 81 10 62 14 M 80 27 C 85 29 88 33 88 39 C 88 51 80 57 54 63 C 52 64 48 65 46 66 C 36 68 34 61 40 47 C 47 31 66 22 80 27 z" fill="black" /><!-- width=121 height=127 -->
<path id="gl3865" d="M 22 12 C 22 12 21 13 20 13 C 15 14 10 22 13 26 C 13 27 13 28 13 28 C 14 30 18 33 22 34 C 34 36 39 19 27 13 C 25 12 24 12 22 12 z" fill="black" /><!-- width=47 height=47 -->
</defs>
<use xlink:href="#gl6152" x="0" y="9" />
<use xlink:href="#gl4107" x="82" y="0" />
<use xlink:href="#gl10775" x="196" y="22" />
<use xlink:href="#gl259" x="260" y="55" />
<use xlink:href="#gl3613" x="358" y="35" />
<use xlink:href="#gl17669" x="564" y="7" />
<use xlink:href="#gl3585" x="680" y="74" />
<use xlink:href="#gl3589" x="840" y="2" />
<use xlink:href="#gl769" x="969" y="25" />
<use xlink:href="#gl3" x="1022" y="53" />
<use xlink:href="#gl16150" x="1147" y="51" />
<use xlink:href="#gl769" x="1257" y="25" />
<use xlink:href="#gl3" x="1308" y="53" />
<use xlink:href="#gl4371" x="1437" y="54" />
<use xlink:href="#gl2" x="1636" y="57" />
<use xlink:href="#gl3" x="1752" y="53" />
<use xlink:href="#gl259" x="1868" y="57" />
<use xlink:href="#gl3" x="2071" y="53" />
<use xlink:href="#gl2" x="2195" y="57" />
<use xlink:href="#gl0" x="2309" y="26" />
<use xlink:href="#gl259" x="2376" y="57" />
<use xlink:href="#gl256" x="2583" y="23" />
<use xlink:href="#gl3" x="2634" y="53" />
<use xlink:href="#gl5" x="2836" y="42" />
<use xlink:href="#gl1" x="2914" y="7" />
<use xlink:href="#gl9728" x="3040" y="39" />
<use xlink:href="#gl0" x="3147" y="27" />
<use xlink:href="#gl1" x="3205" y="7" />
<use xlink:href="#gl262" x="3339" y="52" />
<use xlink:href="#gl16159" x="3609" y="63" />
<use xlink:href="#gl3" x="3713" y="55" />
<use xlink:href="#gl4616" x="3838" y="6" />
<use xlink:href="#gl4" x="4040" y="58" />
<use xlink:href="#gl515" x="4121" y="58" />
<use xlink:href="#gl515" x="4230" y="58" />
<use xlink:href="#gl6164" x="4427" y="27" />
<use xlink:href="#gl1" x="4488" y="8" />
<use xlink:href="#gl515" x="4617" y="58" />
<use xlink:href="#gl516" x="4814" y="53" />
<use xlink:href="#gl5" x="4962" y="45" />
<use xlink:href="#gl514" x="5055" y="27" />
<use xlink:href="#gl6164" x="5102" y="27" />
<use xlink:href="#gl6164" x="5169" y="28" />
<use xlink:href="#gl259" x="5240" y="59" />
<use xlink:href="#gl3" x="5352" y="55" />
<use xlink:href="#gl3" x="837" y="311" />
<use xlink:href="#gl2" x="954" y="315" />
<use xlink:href="#gl0" x="1061" y="284" />
<use xlink:href="#gl518" x="1121" y="313" />
<use xlink:href="#gl3865" x="1243" y="391" />
</svg>