<?xml version="1.0" standalone="no"?>
<!DOCTYPE svg PUBLIC "-//W3C/DTD SVG 1.1//EN" "http://www.w3.org/Graphics/SVG/1.1/DTD/svg11.dtd">
<svg width="318px" height="60px" viewBox="0 0 3183 601" xmlns="http://www.w3.org/2000/svg" xmlns:xlink="http://www.w3.org/1999/xlink" version="1.1">
<defs>
<path id="gl23298" d="M 327 213 C 325 213 321 214 318 214 C 291 217 274 222 262 231 C 259 234 258 237 259 238 C 261 240 270 240 279 238 C 293 234 374 233 407 237 C 421 238 424 238 424 231 C 424 226 422 224 412 222 C 410 220 406 220 405 219 C 403 218 399 217 396 217 C 384 215 381 214 378 214 C 375 213 333 212 327 213 M 186 216 C 163 220 148 229 134 247 C 128 256 126 256 117 257 C 109 258 107 259 108 265 C 109 267 109 267 114 268 C 118 270 120 271 121 274 C 123 276 123 414 122 498 C 121 543 122 559 124 561 C 125 561 129 561 131 559 C 133 558 133 553 134 525 C 134 514 134 491 134 473 C 135 436 135 435 134 408 C 133 379 135 318 136 314 C 138 310 139 309 145 311 C 148 312 151 312 153 313 C 153 313 159 313 163 313 C 177 313 187 310 197 304 C 200 302 204 299 206 298 C 208 297 211 295 212 293 C 213 292 216 289 218 286 C 220 284 222 281 223 279 C 225 275 228 272 231 271 C 236 269 244 268 323 269 C 429 269 420 269 423 267 C 424 265 425 260 423 259 C 422 258 402 258 317 258 C 271 258 241 257 240 257 C 234 255 232 253 232 245 C 231 238 229 234 222 228 C 212 217 199 213 186 216 z" fill="black" /><!-- width=433 height=570 -->
<path id="gl23320" d="M 28 9 C 28 14 33 28 43 38 C 48 52 57 67 57 67 C 57 72 57 76 62 76 C 72 76 105 19 100 9 C 96 4 28 4 28 9 M 48 192 C 19 206 4 230 4 259 C 4 273 9 340 9 412 C 9 460 9 504 9 547 C 67 547 120 547 177 547 C 230 547 288 547 340 552 C 345 504 345 460 345 412 C 345 369 345 321 345 278 C 350 278 360 278 364 278 C 388 283 417 268 432 254 C 436 244 441 240 446 240 C 456 240 456 230 446 220 C 441 220 441 216 441 211 C 441 196 422 182 403 182 C 384 182 364 192 345 211 C 340 216 336 220 331 230 C 302 230 268 230 235 230 C 144 230 115 225 115 211 C 115 187 76 177 48 192 M 331 355 C 331 417 331 475 331 484 C 331 489 331 494 326 504 C 278 499 225 499 177 499 C 124 499 76 499 24 499 C 24 460 24 427 24 388 C 24 350 24 316 24 278 C 28 278 38 278 43 278 C 67 283 81 273 105 254 C 110 249 115 244 120 235 C 153 240 192 240 225 240 C 259 240 297 240 331 240 C 331 278 331 316 331 355 z" fill="black" /><!-- width=460 height=556 -->
<path id="gl23321" d="M 192 14 C 168 24 144 43 144 52 C 144 52 148 48 163 43 C 206 24 283 24 321 43 C 340 52 345 48 326 33 C 292 9 235 0 192 14 M 48 43 C 38 48 28 57 19 67 C 14 72 9 76 4 81 C 4 129 4 182 4 230 C 9 417 14 436 19 254 C 19 216 19 172 19 129 C 24 129 33 129 38 129 C 62 134 91 124 100 105 C 105 100 110 96 115 86 C 148 86 187 86 225 86 C 297 86 340 86 340 86 C 340 81 297 76 230 76 C 120 76 115 76 115 67 C 115 43 81 28 48 43 z" fill="black" /><!-- width=345 height=388 -->
<path id="gl23322" d="M 28 4 C 19 9 48 72 57 72 C 67 72 96 14 91 4 C 86 0 33 0 28 4 M 38 192 C 0 211 0 206 4 384 C 4 436 4 489 4 542 C 48 542 96 542 144 542 C 187 542 235 542 278 542 C 278 499 278 451 278 408 C 278 316 278 268 278 268 C 273 268 268 312 268 384 C 268 422 268 456 268 494 C 225 494 187 494 144 494 C 100 494 62 494 19 494 C 19 484 19 470 14 460 C 14 441 14 393 14 350 C 14 326 19 297 19 273 C 24 273 33 273 38 273 C 62 278 81 268 100 249 C 105 244 110 240 115 235 C 139 235 163 235 187 235 C 230 235 254 230 254 230 C 254 225 230 225 187 225 C 163 225 139 225 115 225 C 115 216 115 211 110 206 C 100 182 72 172 38 192 z" fill="black" /><!-- width=288 height=552 -->
<path id="gl23323" d="M 57 4 C 52 9 43 19 33 24 C 24 33 14 43 9 43 C 0 43 0 48 9 52 C 14 52 19 62 19 72 C 19 81 19 91 19 91 C 24 91 33 91 48 91 C 72 96 100 86 110 67 C 115 62 124 52 129 52 C 139 48 144 43 139 43 C 134 43 129 33 124 24 C 120 14 115 9 110 4 C 105 0 72 0 57 4 z" fill="black" /><!-- width=148 height=100 -->
<path id="gl1299" d="M 18 13 C 13 15 12 18 15 21 C 17 24 18 24 35 24 C 51 24 51 24 54 21 C 57 18 56 16 52 14 C 49 13 22 12 18 13 z" fill="black" /><!-- width=69 height=37 -->
<path id="gl1565" d="M 18 13 C 13 18 13 27 18 28 C 24 30 29 27 30 21 C 31 16 31 16 25 13 C 21 11 21 11 18 13 z" fill="black" /><!-- width=45 height=42 -->
<path id="gl23308" d="M 12 10 C 9 11 8 12 6 15 C 5 18 7 23 9 24 C 12 25 19 25 22 25 C 25 25 37 25 49 25 C 75 25 97 25 148 25 C 185 25 191 25 199 27 C 201 28 202 27 201 26 C 200 25 200 23 199 19 C 199 15 199 13 198 12 C 198 11 198 10 197 10 C 195 10 192 10 190 10 C 181 11 34 11 22 10 C 17 10 13 10 12 10 z" fill="black" /><!-- width=211 height=37 -->
<path id="gl18714" d="M 9 12 C 7 15 7 16 8 19 C 9 24 9 24 19 24 C 26 23 30 24 32 24 C 36 25 37 24 37 19 C 39 13 36 11 31 12 C 30 12 27 13 26 13 C 23 13 14 12 12 11 C 11 10 11 10 9 12 z" fill="black" /><!-- width=46 height=36 -->
<path id="gl5658" d="M 16 15 C 13 16 12 18 12 21 C 12 27 15 30 22 30 C 24 30 61 29 105 29 C 156 29 189 29 198 29 C 214 30 216 30 218 27 C 222 24 220 18 217 15 C 215 14 214 14 116 14 C 33 14 18 14 16 15 z" fill="black" /><!-- width=232 height=44 -->
<path id="gl23324" d="M 4 14 C 4 19 4 19 19 19 C 24 19 33 24 33 28 C 33 28 33 28 33 19 C 33 4 33 4 24 4 C 14 4 9 4 4 14 z" fill="black" /><!-- width=43 height=38 -->
<path id="gl23325" d="M 283 134 C 283 177 283 225 283 268 C 235 268 192 268 144 268 C 72 268 9 268 9 273 C 14 278 288 278 288 268 C 288 268 288 206 288 129 C 288 86 288 43 288 0 C 288 43 288 91 283 134 z" fill="black" /><!-- width=297 height=283 -->
<path id="gl23326" d="M 12 6 C 6 7 4 9 7 11 C 9 12 45 13 49 12 C 53 12 54 8 51 7 C 49 6 21 6 12 6 z" fill="black" /><!-- width=60 height=19 -->
<path id="gl4379" d="M 16 15 C 10 17 10 29 15 33 C 18 34 24 34 27 33 C 31 31 33 24 31 18 C 28 13 22 12 16 15 z" fill="black" /><!-- width=44 height=48 -->
<path id="gl12309" d="M 12 10 C 10 12 10 12 10 20 C 10 31 11 33 15 33 C 20 33 21 33 21 21 C 21 12 21 12 20 10 C 19 9 13 9 12 10 z" fill="black" /><!-- width=31 height=42 -->
<path id="gl23327" d="M 33 19 C 24 33 9 43 9 43 C 4 43 0 43 0 48 C 0 48 4 48 4 48 C 9 48 14 100 14 196 C 14 312 14 340 19 340 C 24 340 24 316 24 235 C 24 177 24 120 24 110 C 24 105 24 100 28 96 C 33 96 43 96 52 96 C 91 96 129 62 124 33 C 115 0 67 -5 33 19 z" fill="black" /><!-- width=134 height=350 -->
<path id="gl23328" d="M 62 4 C 57 9 48 19 38 24 C 33 33 24 43 14 43 C 0 43 0 48 14 52 C 19 52 24 57 19 72 C 19 81 19 86 19 91 C 28 91 33 91 43 91 C 81 91 100 86 115 67 C 124 57 134 52 139 52 C 144 52 144 48 144 43 C 144 43 144 43 139 43 C 134 43 129 33 129 28 C 124 4 91 0 62 4 z" fill="black" /><!-- width=153 height=100 -->
<path id="gl23329" d="M 38 9 C 4 33 4 24 4 192 C 4 283 9 340 14 340 C 14 340 19 292 19 216 C 19 177 19 134 19 91 C 24 96 28 96 33 96 C 57 100 81 91 100 67 C 110 57 115 52 139 52 C 158 52 168 52 168 48 C 168 43 158 43 144 43 C 124 43 120 38 120 33 C 120 4 72 -5 38 9 M 96 28 C 96 38 91 38 72 38 C 48 43 43 33 62 24 C 86 14 100 14 96 28 M 72 57 C 76 62 48 81 33 76 C 24 76 19 67 28 57 C 38 52 72 48 72 57 z" fill="black" /><!-- width=172 height=350 -->
<path id="gl23330" d="M 148 14 C 148 14 144 57 144 105 C 144 129 144 158 144 187 C 120 187 96 187 72 187 C 33 187 4 192 4 196 C 4 196 33 201 72 201 C 96 201 120 201 144 201 C 144 230 144 259 144 288 C 144 340 148 379 153 379 C 153 379 158 360 158 345 C 158 244 158 211 163 206 C 163 201 182 196 249 196 C 307 196 336 196 336 196 C 336 192 307 187 249 187 C 220 187 192 187 163 187 C 163 182 158 177 158 172 C 158 163 158 124 158 86 C 158 14 153 0 148 14 z" fill="black" /><!-- width=350 height=388 -->
<path id="gl23331" d="M 4 14 C 4 19 24 19 96 19 C 163 19 187 19 187 14 C 187 9 163 4 96 4 C 24 4 0 9 4 14 z" fill="black" /><!-- width=192 height=28 -->
<path id="gl23310" d="M 9 9 C 8 10 7 12 6 16 C 6 19 6 21 6 22 C 6 24 6 24 9 24 C 30 23 178 22 183 24 C 187 24 189 24 190 24 C 192 22 192 12 189 10 C 188 10 187 10 184 10 C 181 10 23 10 18 10 C 16 10 13 9 12 9 C 11 9 9 9 9 9 z" fill="black" /><!-- width=198 height=34 -->
<path id="gl23552" d="M 4 139 C 4 259 9 283 14 273 C 19 268 19 4 9 4 C 4 4 4 28 4 139 z" fill="black" /><!-- width=28 height=283 -->
<path id="gl23312" d="M 12 7 C 9 8 7 9 9 11 C 12 12 15 13 30 12 C 43 12 45 12 46 11 C 48 10 47 8 44 7 C 42 6 16 6 12 7 z" fill="black" /><!-- width=56 height=19 -->
<path id="gl2061" d="M 18 16 C 15 16 15 16 15 25 C 14 35 15 38 18 43 C 19 44 20 45 21 46 C 22 46 22 45 23 45 C 25 43 27 42 28 39 C 29 36 29 18 28 17 C 27 16 21 16 18 16 z" fill="black" /><!-- width=44 height=59 -->
<path id="gl18982" d="M 17 14 C 16 14 15 15 15 16 C 15 17 15 18 14 19 C 13 19 13 20 13 22 C 13 22 13 24 13 24 C 13 24 14 25 15 26 C 16 27 17 29 18 31 C 18 34 19 34 22 36 C 23 37 24 37 25 37 C 26 37 27 36 27 36 C 33 30 33 23 30 18 C 29 16 28 14 27 14 C 25 13 19 13 17 14 z" fill="black" /><!-- width=46 height=48 -->
<path id="gl23312" d="M 12 7 C 9 8 7 9 9 11 C 12 12 15 13 30 12 C 43 12 45 12 46 11 C 48 10 47 8 44 7 C 42 6 16 6 12 7 z" fill="black" /><!-- width=56 height=19 -->
<path id="gl23326" d="M 12 6 C 6 7 4 9 7 11 C 9 12 45 13 49 12 C 53 12 54 8 51 7 C 49 6 21 6 12 6 z" fill="black" /><!-- width=60 height=19 -->
<path id="gl23312" d="M 12 7 C 9 8 7 9 9 11 C 12 12 15 13 30 12 C 43 12 45 12 46 11 C 48 10 47 8 44 7 C 42 6 16 6 12 7 z" fill="black" /><!-- width=56 height=19 -->
<path id="gl23553" d="M 0 14 C 0 24 86 24 86 14 C 91 9 76 4 48 4 C 9 4 0 9 0 14 z" fill="black" /><!-- width=96 height=28 -->
<path id="gl23554" d="M 86 4 C 134 4 206 4 254 4 C 297 4 259 4 168 4 C 76 4 38 4 86 4 z" fill="black" /><!-- width=340 height=14 -->
</defs>
<use xlink:href="#gl23298" x="90" y="0" />
<use xlink:href="#gl23320" x="543" y="31" />
<use xlink:href="#gl23321" x="1195" y="180" />
<use xlink:href="#gl23322" x="1560" y="36" />
<use xlink:href="#gl23323" x="1815" y="219" />
<use xlink:href="#gl1299" x="1866" y="199" />
<use xlink:href="#gl1565" x="500" y="213" />
<use xlink:href="#gl23308" x="0" y="244" />
<use xlink:href="#gl18714" x="507" y="245" />
<use xlink:href="#gl5658" x="982" y="241" />
<use xlink:href="#gl23324" x="1527" y="252" />
<use xlink:href="#gl23325" x="1555" y="310" />
<use xlink:href="#gl23326" x="1842" y="305" />
<use xlink:href="#gl4379" x="1185" y="547" />
<use xlink:href="#gl12309" x="204" y="551" />
<use xlink:href="#gl23327" x="2290" y="219" />
<use xlink:href="#gl23328" x="2597" y="219" />
<use xlink:href="#gl23329" x="2923" y="219" />
<use xlink:href="#gl23330" x="1954" y="70" />
<use xlink:href="#gl23331" x="2415" y="252" />
<use xlink:href="#gl23310" x="2734" y="249" />
<use xlink:href="#gl23552" x="2611" y="310" />
<use xlink:href="#gl23312" x="2631" y="305" />
<use xlink:href="#gl2061" x="2913" y="542" />
<use xlink:href="#gl18982" x="2284" y="548" />
<use xlink:href="#gl23312" x="2344" y="208" />
<use xlink:href="#gl23326" x="2657" y="209" />
<use xlink:href="#gl23312" x="2970" y="209" />
<use xlink:href="#gl23553" x="3087" y="252" />
<use xlink:href="#gl23554" x="547" y="579" />
</svg>