<?xml version="1.0" standalone="no"?>
<!DOCTYPE svg PUBLIC "-//W3C/DTD SVG 1.1//EN" "http://www.w3.org/Graphics/SVG/1.1/DTD/svg11.dtd">
<svg width="557px" height="148px" viewBox="0 0 5572 1488" xmlns="http://www.w3.org/2000/svg" xmlns:xlink="http://www.w3.org/1999/xlink" version="1.1">
<defs>
<path id="gl8195" d="M 14 14 C 0 28 14 52 43 57 C 57 57 62 57 62 48 C 67 38 67 38 57 48 C 48 52 48 52 52 38 C 57 14 28 0 14 14 z" fill="black" /><!-- width=76 height=67 -->
<path id="gl8196" d="M 14 14 C 0 28 0 43 9 38 C 9 33 14 38 9 48 C 4 62 19 67 24 52 C 33 9 28 0 14 14 z" fill="black" /><!-- width=38 height=67 -->
<path id="gl8197" d="M 19 9 C 19 14 14 19 9 19 C 0 19 0 28 4 33 C 9 33 9 52 9 72 C 4 100 9 110 14 105 C 19 105 19 100 19 91 C 14 81 19 72 19 67 C 24 62 24 48 24 28 C 24 9 24 4 19 9 z" fill="black" /><!-- width=33 height=115 -->
<path id="gl8198" d="M 19 19 C 0 28 0 28 4 57 C 4 72 4 81 4 91 C 14 91 24 91 28 91 C 76 91 105 38 76 14 C 62 4 33 4 19 19 z" fill="black" /><!-- width=100 height=105 -->
<path id="gl8199" d="M 14 14 C 0 28 14 52 38 57 C 52 62 52 62 52 38 C 52 28 52 14 48 14 C 43 4 19 4 14 14 z" fill="black" /><!-- width=67 height=67 -->
<path id="gl8200" d="M 28 19 C 28 24 19 33 14 38 C 9 43 4 48 4 52 C 4 62 9 62 14 52 C 19 48 24 52 24 57 C 24 81 33 67 38 43 C 48 0 43 -10 28 19 z" fill="black" /><!-- width=57 height=76 -->
<path id="gl8448" d="M 484 14 C 484 19 480 33 480 43 C 480 62 480 67 475 72 C 460 76 456 72 456 43 C 456 33 456 19 456 19 C 451 19 446 33 446 52 C 446 76 446 81 441 86 C 436 86 436 96 436 105 C 436 115 436 120 441 120 C 446 120 446 124 446 129 C 446 134 436 134 369 134 C 345 134 316 134 292 134 C 288 134 288 129 288 124 C 278 86 268 48 264 38 C 244 9 206 43 196 100 C 196 115 192 124 192 134 C 163 134 129 134 100 134 C 72 139 38 139 9 139 C 9 340 9 537 9 739 C 9 940 9 1137 9 1339 C 148 1339 288 1339 427 1339 C 566 1339 705 1339 844 1344 C 844 1363 844 1387 844 1411 C 844 1464 844 1473 849 1459 C 849 1449 864 1430 888 1406 C 907 1382 926 1363 931 1353 C 936 1348 936 1344 940 1344 C 1012 1344 1080 1344 1152 1344 C 1219 1344 1291 1344 1358 1344 C 1358 1363 1358 1382 1358 1401 C 1353 1444 1358 1464 1358 1468 C 1363 1468 1368 1464 1368 1459 C 1368 1449 1382 1430 1401 1411 C 1416 1396 1435 1372 1444 1363 C 1449 1353 1454 1348 1459 1344 C 1526 1344 1598 1344 1665 1344 C 1737 1344 1804 1344 1876 1344 C 1876 1353 1876 1368 1876 1382 C 1876 1420 1881 1435 1886 1411 C 1886 1401 1900 1387 1915 1368 C 1924 1358 1934 1348 1944 1344 C 2016 1344 2092 1344 2169 1344 C 2241 1344 2318 1344 2390 1344 C 2390 1358 2390 1372 2390 1387 C 2390 1411 2395 1425 2400 1425 C 2400 1425 2400 1416 2400 1411 C 2400 1401 2414 1392 2433 1372 C 2443 1363 2448 1353 2457 1344 C 2563 1344 2668 1344 2774 1344 C 2880 1344 2990 1344 3091 1344 C 3091 1348 3091 1353 3091 1363 C 3091 1387 3100 1387 3110 1358 C 3110 1353 3115 1348 3115 1344 C 3187 1344 3254 1344 3321 1344 C 3388 1344 3456 1344 3523 1344 C 3523 1348 3528 1358 3528 1363 C 3528 1382 3528 1382 3532 1377 C 3532 1372 3537 1363 3542 1353 C 3542 1353 3547 1348 3547 1344 C 3782 1344 4022 1344 4257 1344 C 4497 1344 4732 1344 4972 1339 C 4972 1363 4972 1387 4972 1411 C 4972 1430 4972 1454 4972 1478 C 4972 1473 4977 1464 4977 1459 C 4982 1444 5001 1425 5016 1411 C 5030 1396 5049 1372 5054 1363 C 5064 1353 5068 1348 5073 1344 C 5140 1344 5208 1344 5280 1344 C 5409 1344 5481 1339 5481 1339 C 5481 1334 5419 1334 5323 1334 C 5236 1334 5145 1334 5121 1334 C 5107 1334 5092 1334 5078 1334 C 5078 1320 5078 1305 5078 1291 C 5078 1276 5078 1262 5078 1252 C 5145 1248 5212 1248 5280 1248 C 5395 1248 5443 1248 5395 1248 C 5347 1248 5304 1243 5299 1243 C 5299 1238 5299 1219 5304 1200 C 5313 1166 5313 1161 5323 1161 C 5332 1161 5371 1161 5409 1161 C 5457 1166 5486 1161 5486 1161 C 5486 1156 5452 1156 5400 1156 C 5371 1156 5342 1156 5313 1156 C 5318 1147 5318 1142 5318 1137 C 5318 1128 5323 1113 5328 1108 C 5328 1099 5328 1094 5328 1089 C 5323 1084 5318 1084 5318 1089 C 5318 1099 5299 1128 5289 1128 C 5284 1128 5284 1123 5284 1113 C 5289 1089 5256 1075 5241 1094 C 5227 1118 5260 1147 5294 1137 C 5308 1128 5313 1132 5304 1147 C 5299 1152 5294 1156 5188 1152 C 5150 1152 5112 1152 5073 1152 C 5073 1147 5073 1142 5073 1142 C 5064 1104 5020 1104 4987 1137 C 4982 1142 4977 1147 4972 1156 C 4948 1152 4929 1152 4905 1152 C 4886 1152 4862 1152 4843 1152 C 4843 1137 4843 1128 4843 1113 C 4843 1099 4843 1084 4838 1075 C 4948 1075 5054 1075 5160 1075 C 5371 1075 5486 1070 5486 1065 C 5486 1065 5371 1060 5160 1060 C 5054 1060 4948 1060 4838 1060 C 4843 1051 4843 1036 4843 1022 C 4843 1012 4843 998 4843 984 C 4948 984 5059 984 5164 979 C 5342 979 4972 979 4344 979 C 3960 979 3580 979 3201 979 C 3201 974 3201 969 3201 964 C 3201 955 3177 936 3163 936 C 3144 936 3124 945 3110 964 C 3105 969 3100 974 3096 979 C 2664 974 2232 974 1795 974 C 1363 974 926 974 494 974 C 494 969 494 960 494 955 C 494 940 489 936 489 936 C 484 936 480 940 480 955 C 480 979 460 984 460 960 C 460 955 456 950 456 950 C 451 950 446 955 446 960 C 446 964 446 969 446 974 C 374 974 302 974 230 974 C 158 974 86 974 14 979 C 14 897 14 816 14 739 C 14 657 14 580 14 499 C 57 499 100 504 139 504 C 244 504 264 504 264 508 C 268 532 278 590 278 600 C 268 624 235 648 216 638 C 201 633 201 633 211 628 C 240 609 244 585 230 571 C 196 537 144 566 163 609 C 177 648 220 662 259 633 C 288 614 292 585 273 513 C 273 508 268 504 268 499 C 369 499 470 499 576 499 C 676 499 777 499 878 499 C 873 504 868 508 864 513 C 854 528 844 547 844 561 C 844 571 868 585 883 585 C 916 585 940 556 940 523 C 945 513 945 508 945 499 C 960 504 974 504 988 504 C 1012 504 1104 499 1190 499 C 1281 499 1492 499 1660 499 C 1766 499 1867 499 1968 499 C 1968 508 1968 518 1968 523 C 1968 532 1968 542 1968 547 C 1963 547 1958 547 1953 542 C 1934 537 1910 547 1896 566 C 1886 576 1876 585 1867 585 C 1867 585 1862 585 1857 585 C 1862 585 1867 585 1867 590 C 1876 590 1876 595 1876 600 C 1876 604 1886 614 1891 619 C 1910 638 1939 633 1968 604 C 1977 595 1987 585 1992 585 C 2001 585 2001 585 1992 585 C 1982 585 1977 580 1977 542 C 1977 528 1977 513 1977 499 C 2174 504 2366 504 2558 504 C 3062 504 3134 504 3124 508 C 3072 547 3105 609 3163 580 C 3187 566 3201 547 3201 518 C 3201 513 3201 508 3201 499 C 3331 499 3465 499 3600 499 C 3816 499 3998 504 3998 504 C 3998 504 3988 513 3984 523 C 3974 532 3969 542 3974 561 C 3974 580 3974 580 3960 585 C 3945 585 3950 585 3969 590 C 3979 590 3988 590 3993 595 C 3993 600 3988 604 3984 609 C 3960 648 3974 676 4017 672 C 4046 667 4065 643 4065 614 C 4065 595 4070 595 4080 590 C 4089 585 4089 585 4080 585 C 4070 580 4070 576 4070 542 C 4070 528 4070 518 4070 504 C 4123 504 4176 504 4228 504 C 4281 504 4334 504 4387 499 C 4387 504 4387 508 4387 513 C 4387 518 4396 528 4406 537 C 4411 542 4416 547 4420 552 C 4416 556 4411 561 4401 566 C 4396 576 4382 585 4377 585 C 4368 585 4368 585 4377 590 C 4387 590 4387 600 4387 604 C 4387 638 4449 638 4478 600 C 4488 595 4492 590 4492 590 C 4497 590 4502 590 4507 585 C 4512 585 4512 585 4502 585 C 4492 580 4488 580 4488 542 C 4488 528 4488 513 4488 499 C 4574 499 4660 499 4747 499 C 4833 499 4920 499 5006 499 C 5001 508 4996 513 4992 518 C 4972 542 4968 571 4987 580 C 5020 604 5073 566 5073 518 C 5073 513 5073 508 5073 499 C 5145 499 5212 499 5280 499 C 5414 499 5486 499 5486 499 C 5486 494 5414 489 5280 489 C 5212 489 5145 489 5073 489 C 5073 480 5073 465 5073 456 C 5073 441 5073 427 5073 417 C 5112 412 5150 412 5188 412 C 5251 412 5342 412 5390 412 C 5505 412 5510 408 5395 403 C 5361 403 5332 403 5299 403 C 5299 398 5299 393 5299 388 C 5299 384 5304 364 5308 350 C 5313 340 5313 331 5318 326 C 5347 326 5371 326 5400 326 C 5448 326 5486 321 5481 321 C 5481 321 5443 316 5400 316 C 5376 316 5347 316 5323 316 C 5323 312 5323 307 5323 307 C 5323 297 5323 283 5328 273 C 5328 264 5328 259 5332 249 C 5323 254 5318 264 5313 268 C 5294 292 5284 297 5284 273 C 5284 249 5260 240 5246 254 C 5227 278 5246 302 5284 297 C 5313 297 5313 297 5308 307 C 5304 312 5289 316 5256 316 C 5188 316 5179 316 5174 297 C 5174 288 5164 273 5160 259 C 5155 249 5150 235 5150 235 C 5155 235 5232 230 5323 230 C 5380 230 5433 230 5491 230 C 5433 230 5376 230 5313 230 C 5256 225 5198 225 5140 225 C 5131 216 5121 211 5112 201 C 5092 182 5073 158 5073 148 C 5073 148 5164 144 5270 144 C 5380 144 5472 144 5476 144 C 5486 139 4483 139 3249 139 C 2500 139 1756 139 1008 134 C 998 129 993 120 984 110 C 969 96 955 76 950 72 C 945 62 945 57 940 52 C 940 67 940 81 940 96 C 940 110 940 124 936 134 C 864 134 792 134 715 134 C 643 134 571 134 494 134 C 494 129 494 124 494 120 C 494 110 499 100 504 100 C 513 91 513 67 504 62 C 499 57 494 48 494 33 C 494 9 489 4 484 14 M 268 81 C 268 86 268 100 268 110 C 268 120 268 124 268 134 C 259 134 249 134 240 134 C 206 139 206 134 225 96 C 240 67 254 62 268 81 M 480 120 C 480 134 480 134 470 134 C 456 134 460 110 480 110 C 480 110 480 115 480 120 M 196 177 C 206 225 211 225 120 225 C 9 225 14 230 14 182 C 14 139 9 144 110 144 C 139 144 163 144 192 144 C 192 153 196 168 196 177 M 388 144 C 408 144 427 144 446 148 C 446 153 446 158 446 163 C 446 172 446 182 441 182 C 436 182 436 192 432 206 C 432 211 432 220 432 225 C 408 225 379 225 355 225 C 259 230 259 230 268 211 C 273 201 278 187 283 172 C 288 144 288 144 307 144 C 316 144 350 144 388 144 M 936 144 C 936 144 936 163 936 187 C 936 196 936 211 936 225 C 883 225 835 225 782 225 C 729 225 681 225 628 225 C 628 220 628 216 628 211 C 624 201 624 196 619 196 C 614 196 614 187 614 172 C 614 163 614 153 614 148 C 643 144 672 144 700 144 C 772 144 921 144 936 144 M 2904 144 C 2918 148 2913 220 2899 225 C 2894 225 2793 225 2678 225 C 2611 225 2539 225 2472 225 C 2462 220 2457 211 2448 201 C 2428 177 2419 177 2433 201 C 2443 216 2443 220 2438 220 C 2433 225 2208 225 1934 225 C 1771 225 1603 225 1440 230 C 1430 220 1425 216 1420 206 C 1396 177 1387 177 1396 201 C 1406 211 1406 220 1406 225 C 1401 225 1320 225 1224 225 C 1166 225 1108 225 1051 225 C 1046 216 1046 211 1041 201 C 1036 187 1032 172 1027 163 C 1022 158 1022 148 1022 148 C 1027 144 2889 139 2904 144 M 4699 144 C 4747 144 4790 144 4838 148 C 4833 158 4833 172 4833 187 C 4833 196 4833 211 4833 225 C 4785 225 4732 225 4684 225 C 4507 230 4507 230 4497 201 C 4488 177 4483 177 4478 206 C 4478 211 4478 220 4478 225 C 4334 225 4190 225 4041 225 C 3897 225 3753 225 3609 225 C 3600 220 3595 211 3585 201 C 3561 177 3552 172 3566 196 C 3585 230 3604 225 3254 225 C 3081 225 2932 225 2928 225 C 2918 220 2913 220 2913 182 C 2913 158 2918 148 2923 144 C 2928 144 4204 144 4699 144 M 259 148 C 259 153 240 187 230 196 C 216 206 211 206 211 172 C 211 163 206 153 206 148 C 216 148 225 148 235 148 C 249 148 259 148 259 148 M 480 158 C 480 168 470 172 460 163 C 456 158 460 148 475 148 C 480 148 480 148 480 158 M 600 172 C 604 187 600 196 595 201 C 580 211 580 211 580 187 C 580 177 576 163 576 158 C 571 144 566 158 566 187 C 566 220 552 230 518 225 C 499 225 489 206 504 196 C 513 187 513 163 504 158 C 484 148 499 144 547 148 C 566 148 580 148 600 148 C 600 158 600 163 600 172 M 1003 168 C 1027 192 1036 216 1027 225 C 1022 225 1003 225 984 225 C 969 225 960 225 945 225 C 945 216 945 201 945 192 C 940 148 945 148 964 148 C 979 148 988 148 1003 168 M 5064 182 C 5064 196 5064 211 5064 220 C 5059 220 5054 225 5049 225 C 5025 230 4862 230 4852 225 C 4848 220 4843 216 4843 182 C 4843 172 4843 158 4843 148 C 4881 148 4920 148 4953 148 C 4992 148 5030 148 5064 148 C 5064 158 5064 172 5064 182 M 480 216 C 480 225 470 230 465 225 C 460 225 465 220 465 216 C 470 206 480 206 480 216 M 177 235 C 177 240 163 264 124 312 C 120 316 115 316 110 316 C 105 316 81 312 57 312 C 43 312 28 312 14 312 C 14 302 14 288 14 273 C 14 259 14 244 14 230 C 43 230 67 230 96 230 C 139 230 177 235 177 235 M 446 254 C 446 268 451 278 456 278 C 456 278 460 268 460 254 C 460 230 475 225 480 244 C 484 259 494 259 499 244 C 499 230 547 230 547 244 C 547 249 552 259 556 259 C 561 259 566 264 566 283 C 566 292 566 302 566 312 C 556 312 552 316 547 316 C 528 321 321 316 268 316 C 259 312 249 312 235 312 C 235 302 230 292 230 288 C 225 259 225 259 240 244 C 244 240 249 235 259 230 C 288 235 321 235 350 235 C 384 235 412 235 446 235 C 446 240 446 249 446 254 M 936 273 C 936 288 936 302 940 312 C 921 316 907 316 892 316 C 868 316 801 316 739 316 C 628 316 628 316 628 307 C 624 302 624 292 619 292 C 609 292 609 244 614 235 C 619 235 691 235 777 235 C 830 235 883 235 936 235 C 936 249 936 259 936 273 M 1036 249 C 1036 273 1041 273 1046 249 C 1046 244 1046 240 1051 230 C 1108 235 1166 235 1228 235 C 1286 235 1348 235 1406 235 C 1406 240 1406 244 1406 244 C 1406 254 1396 268 1392 278 C 1382 288 1377 302 1377 307 C 1377 316 1372 316 1291 316 C 1180 321 1185 321 1195 283 C 1200 254 1200 244 1190 259 C 1176 288 1152 297 1156 278 C 1161 254 1137 240 1118 254 C 1094 273 1118 302 1156 297 C 1185 297 1185 297 1180 307 C 1171 316 964 321 950 312 C 945 312 945 302 945 278 C 945 230 940 230 993 230 C 1008 230 1022 230 1036 230 C 1036 240 1036 244 1036 249 M 2443 244 C 2438 249 2433 264 2424 278 C 2419 288 2409 302 2409 307 C 2409 316 2400 321 2308 316 C 2280 316 2256 316 2227 316 C 2227 312 2227 307 2227 307 C 2227 297 2227 283 2232 273 C 2232 254 2232 249 2227 259 C 2212 288 2179 307 2193 278 C 2203 259 2169 235 2155 254 C 2145 264 2145 283 2160 292 C 2169 302 2203 302 2208 292 C 2212 288 2212 292 2212 297 C 2212 316 2212 316 2116 316 C 2001 321 1996 321 1987 292 C 1977 273 1972 273 1972 297 C 1972 302 1968 312 1968 312 C 1963 316 1435 321 1430 312 C 1430 312 1435 297 1444 283 C 1464 259 1464 254 1454 244 C 1449 244 1444 240 1444 235 C 1444 235 1660 235 1944 235 C 2438 235 2443 235 2443 244 M 2908 249 C 2913 264 2908 307 2904 312 C 2904 316 2827 316 2683 316 C 2438 316 2452 316 2481 278 C 2496 264 2496 259 2491 249 C 2472 235 2476 230 2692 230 C 2764 230 2836 230 2904 230 C 2908 240 2908 244 2908 249 M 3187 273 C 3187 302 3187 312 3182 316 C 3172 321 2932 321 2923 316 C 2913 312 2913 244 2918 235 C 2923 235 2980 230 3057 230 C 3100 230 3144 230 3187 230 C 3187 244 3187 259 3187 273 M 3576 235 C 3580 244 3566 268 3552 288 C 3547 297 3542 307 3542 307 C 3552 316 3528 316 3470 316 C 3446 316 3427 316 3408 316 C 3408 312 3408 307 3408 302 C 3408 292 3408 278 3412 273 C 3417 254 3412 254 3393 273 C 3379 292 3369 297 3369 273 C 3374 249 3350 235 3331 254 C 3307 278 3331 302 3374 297 C 3398 297 3398 297 3393 307 C 3388 312 3374 316 3326 316 C 3302 316 3283 316 3264 316 C 3254 312 3249 307 3244 297 C 3225 283 3201 244 3201 235 C 3201 230 3571 230 3576 235 M 4060 268 C 4060 292 4060 307 4056 312 C 4051 316 3643 321 3614 316 C 3595 312 3595 312 3614 283 C 3628 264 3633 259 3624 249 C 3619 244 3619 235 3619 235 C 3624 235 3720 235 3840 235 C 3916 235 3988 235 4060 235 C 4060 244 4060 259 4060 268 M 4478 273 C 4483 321 4483 316 4411 316 C 4387 316 4339 316 4315 316 C 4296 316 4281 316 4262 312 C 4262 312 4267 307 4267 302 C 4267 292 4272 278 4272 268 C 4272 264 4272 254 4276 249 C 4267 254 4262 264 4257 268 C 4238 292 4228 297 4233 278 C 4233 249 4204 235 4190 259 C 4171 283 4195 302 4238 297 C 4252 297 4252 297 4252 302 C 4252 312 4233 316 4185 316 C 4166 316 4152 316 4137 316 C 4128 307 4118 302 4108 292 C 4084 268 4070 244 4075 235 C 4075 235 4152 235 4276 235 C 4344 235 4411 235 4478 235 C 4478 249 4478 259 4478 273 M 4833 273 C 4833 288 4833 302 4838 312 C 4828 316 4824 316 4819 316 C 4800 321 4708 316 4704 312 C 4704 312 4704 297 4708 283 C 4713 254 4713 244 4699 264 C 4680 292 4665 297 4670 278 C 4675 264 4670 259 4660 254 C 4641 244 4622 249 4622 268 C 4622 292 4641 302 4665 297 C 4684 297 4689 297 4689 302 C 4689 312 4684 316 4632 316 C 4617 316 4603 316 4588 321 C 4579 312 4574 302 4569 292 C 4560 278 4545 264 4540 254 C 4531 244 4526 240 4526 235 C 4526 235 4598 235 4680 235 C 4732 235 4780 235 4833 235 C 4833 249 4833 259 4833 273 M 5064 273 C 5064 288 5064 302 5068 312 C 5059 312 5054 316 5044 316 C 5020 321 4867 321 4852 316 C 4843 312 4843 244 4848 235 C 4852 235 4900 235 4958 235 C 4992 235 5030 235 5064 235 C 5064 249 5064 259 5064 273 M 5126 254 C 5140 268 5164 297 5164 307 C 5164 312 5097 321 5083 316 C 5078 312 5073 307 5073 278 C 5073 254 5078 240 5078 235 C 5088 230 5112 240 5126 254 M 595 297 C 595 302 590 307 585 307 C 576 307 576 249 585 244 C 595 244 600 283 595 297 M 4531 288 C 4540 297 4550 307 4550 312 C 4550 316 4545 316 4507 316 C 4502 316 4497 316 4488 312 C 4488 307 4488 297 4488 292 C 4488 264 4497 264 4531 288 M 220 297 C 220 302 225 307 225 312 C 216 312 211 312 201 312 C 177 312 177 316 196 292 C 211 273 220 273 220 297 M 115 326 C 115 326 115 336 110 340 C 110 345 105 360 105 374 C 100 384 100 393 100 403 C 86 403 72 403 57 403 C 43 403 28 403 14 408 C 14 393 14 379 14 364 C 14 350 14 336 14 326 C 33 326 48 326 62 326 C 91 326 110 326 115 326 M 201 326 C 201 326 192 336 187 345 C 177 355 168 374 168 384 C 163 408 134 417 134 393 C 134 364 163 326 187 326 C 192 326 201 326 201 326 M 547 340 C 547 345 552 355 556 355 C 561 360 566 364 566 384 C 566 388 566 398 566 403 C 528 403 489 403 456 403 C 417 403 379 403 345 403 C 340 398 340 388 336 379 C 331 364 321 350 316 345 C 312 336 302 331 302 326 C 302 326 360 326 427 326 C 465 326 508 326 547 326 C 547 331 547 336 547 340 M 873 326 C 873 331 873 331 864 336 C 849 345 840 374 844 388 C 854 408 854 408 710 403 C 662 403 619 403 576 403 C 576 398 576 393 576 393 C 571 374 576 350 585 345 C 595 340 595 340 600 369 C 600 403 609 398 609 364 C 614 345 614 336 619 331 C 628 321 868 321 873 326 M 1171 331 C 1171 336 1171 355 1166 374 C 1161 384 1156 393 1156 403 C 1123 403 1084 403 1051 403 C 1017 403 979 403 945 403 C 945 393 945 379 945 369 C 940 321 931 326 1060 326 C 1166 321 1171 326 1171 331 M 1406 345 C 1411 355 1420 360 1425 369 C 1420 369 1416 369 1411 369 C 1382 374 1372 379 1368 393 C 1368 398 1368 403 1363 403 C 1334 403 1300 403 1267 403 C 1190 403 1166 403 1166 398 C 1166 393 1180 340 1185 331 C 1185 326 1209 326 1291 326 C 1324 326 1358 326 1392 326 C 1396 336 1401 340 1406 345 M 1972 345 C 1972 360 1972 379 1972 388 C 1972 393 1968 398 1968 403 C 1876 403 1785 403 1689 403 C 1507 403 1411 403 1411 403 C 1411 398 1425 393 1435 393 C 1459 393 1459 393 1440 369 C 1430 360 1425 350 1425 336 C 1425 336 1425 326 1425 326 C 1512 326 1603 326 1694 326 C 1785 326 1876 326 1968 326 C 1968 331 1972 340 1972 345 M 2212 326 C 2212 331 2208 345 2198 369 C 2198 379 2193 393 2188 403 C 2169 403 2150 403 2131 403 C 2112 403 2097 403 2078 403 C 2073 398 2068 393 2064 388 C 2054 379 2040 360 2030 350 C 2020 340 2016 331 2016 326 C 2016 326 2059 326 2112 326 C 2164 326 2212 326 2212 326 M 2438 345 C 2457 369 2457 374 2438 374 C 2419 374 2400 388 2400 398 C 2400 403 2366 403 2299 403 C 2270 403 2236 403 2203 403 C 2203 398 2208 388 2208 384 C 2208 369 2212 350 2217 340 C 2217 336 2217 331 2222 326 C 2256 326 2289 326 2323 326 C 2356 326 2390 326 2424 326 C 2428 331 2433 336 2438 345 M 2908 364 C 2908 379 2908 393 2908 403 C 2832 403 2755 403 2678 403 C 2529 403 2448 403 2448 403 C 2448 398 2457 393 2467 393 C 2491 393 2491 388 2481 379 C 2467 364 2452 340 2457 331 C 2457 326 2496 326 2683 326 C 2755 326 2832 326 2908 326 C 2908 336 2908 350 2908 364 M 3192 345 C 3192 355 3192 374 3192 384 C 3192 393 3187 398 3187 403 C 3144 403 3096 403 3052 403 C 3004 403 2961 403 2913 403 C 2913 393 2913 379 2913 364 C 2913 350 2913 336 2913 326 C 2961 326 3004 326 3052 326 C 3096 326 3144 326 3187 326 C 3187 331 3192 336 3192 345 M 3249 340 C 3268 355 3288 384 3288 398 C 3288 403 3278 403 3244 403 C 3230 403 3211 403 3201 403 C 3201 393 3201 379 3201 364 C 3201 350 3201 336 3201 326 C 3206 326 3211 326 3216 326 C 3225 326 3235 326 3249 340 M 3384 331 C 3384 331 3384 350 3379 369 C 3374 379 3369 393 3369 403 C 3360 403 3355 403 3345 403 C 3312 408 3297 403 3297 388 C 3297 384 3292 364 3288 350 C 3283 340 3278 331 3273 326 C 3292 326 3312 326 3331 326 C 3369 326 3388 326 3384 331 M 3571 345 C 3590 369 3590 374 3576 374 C 3552 374 3547 374 3537 393 C 3532 398 3532 403 3528 403 C 3504 403 3480 403 3456 403 C 3374 403 3379 408 3384 379 C 3388 369 3393 355 3393 345 C 3398 336 3398 331 3403 326 C 3427 326 3456 326 3480 326 C 3504 326 3532 326 3556 326 C 3561 331 3566 336 3571 345 M 4060 364 C 4060 379 4060 388 4060 403 C 3979 403 3902 403 3820 403 C 3662 403 3585 403 3585 403 C 3585 398 3595 393 3609 393 C 3628 393 3628 393 3609 374 C 3604 364 3595 350 3595 340 C 3595 336 3590 331 3590 321 C 3672 326 3748 326 3825 326 C 3902 326 3984 326 4060 326 C 4060 340 4060 350 4060 364 M 4113 336 C 4132 345 4152 374 4156 393 C 4156 403 4156 403 4113 403 C 4065 408 4065 403 4070 355 C 4075 321 4084 316 4113 336 M 4243 345 C 4233 393 4228 403 4200 403 C 4176 408 4171 403 4171 384 C 4166 379 4161 364 4156 350 C 4152 340 4142 326 4142 326 C 4142 326 4166 326 4195 326 C 4214 326 4228 326 4248 326 C 4243 331 4243 340 4243 345 M 4478 364 C 4478 379 4478 393 4478 408 C 4440 403 4401 403 4363 403 C 4224 403 4238 408 4252 355 C 4257 345 4257 336 4262 326 C 4296 326 4334 326 4372 326 C 4406 326 4444 326 4478 326 C 4478 336 4478 350 4478 364 M 4574 345 C 4579 355 4579 374 4579 384 C 4579 388 4579 398 4579 403 C 4564 403 4550 403 4536 403 C 4521 403 4507 403 4488 408 C 4488 393 4488 379 4488 364 C 4488 350 4488 336 4488 326 C 4502 326 4516 326 4526 326 C 4540 326 4555 326 4564 326 C 4569 331 4569 336 4574 345 M 4684 326 C 4684 331 4680 350 4670 388 C 4670 393 4670 398 4665 403 C 4656 403 4641 403 4632 403 C 4608 403 4593 403 4588 403 C 4588 403 4588 384 4588 364 C 4588 350 4593 336 4593 326 C 4608 326 4622 326 4636 326 C 4660 326 4680 326 4684 326 M 4833 364 C 4833 379 4833 388 4833 403 C 4809 403 4785 403 4756 403 C 4732 403 4708 403 4684 408 C 4684 403 4684 398 4684 393 C 4684 384 4694 336 4699 331 C 4699 326 4723 326 4766 326 C 4790 326 4809 326 4833 326 C 4833 340 4833 350 4833 364 M 5064 364 C 5064 379 5064 388 5064 403 C 5025 403 4992 403 4953 403 C 4920 403 4881 403 4843 408 C 4843 393 4843 379 4843 364 C 4843 350 4843 336 4843 321 C 4881 326 4920 326 4953 326 C 4992 326 5025 326 5064 326 C 5064 340 5064 350 5064 364 M 5164 340 C 5164 364 5169 360 5174 340 C 5174 336 5179 331 5179 326 C 5198 326 5217 326 5241 326 C 5308 326 5308 321 5294 374 C 5289 384 5289 393 5284 403 C 5251 403 5217 403 5179 403 C 5145 403 5112 403 5073 403 C 5073 393 5073 379 5073 369 C 5073 321 5073 321 5121 326 C 5136 326 5150 326 5164 326 C 5164 331 5164 336 5164 340 M 235 369 C 244 403 240 403 216 403 C 182 403 177 398 201 374 C 220 355 230 355 235 369 M 283 364 C 302 374 312 388 312 398 C 312 403 307 403 283 403 C 254 403 254 403 249 388 C 244 355 254 350 283 364 M 2006 364 C 2025 374 2035 384 2044 398 C 2044 403 2044 403 2016 403 C 2001 403 1992 403 1977 403 C 1977 398 1977 388 1977 384 C 1977 355 1982 355 2006 364 M 115 432 C 120 446 134 465 144 470 C 153 480 158 489 158 489 C 158 489 129 489 91 489 C 67 489 38 489 14 489 C 14 480 14 465 14 456 C 14 412 14 412 62 412 C 76 412 91 408 100 408 C 105 417 110 427 115 432 M 168 422 C 168 432 196 460 196 456 C 196 451 196 446 192 441 C 182 436 182 417 192 412 C 196 412 206 412 216 412 C 240 412 244 417 249 446 C 259 484 259 489 230 489 C 192 489 163 470 144 436 C 134 422 134 417 148 412 C 163 412 168 412 168 422 M 316 422 C 316 436 297 470 288 475 C 273 484 268 480 264 456 C 254 422 254 417 268 412 C 297 412 316 417 316 422 M 931 412 C 940 417 940 484 936 489 C 931 494 321 494 307 494 C 302 489 302 489 316 475 C 326 465 336 451 340 436 C 340 432 340 422 345 417 C 384 412 427 412 470 412 C 561 412 868 412 931 412 M 1382 436 C 1406 456 1420 460 1420 456 C 1420 451 1416 446 1411 446 C 1396 432 1396 417 1411 412 C 1425 408 1963 408 1968 412 C 1972 417 1972 484 1968 489 C 1968 489 1396 494 1094 494 C 1046 494 993 494 945 489 C 945 480 945 465 945 456 C 945 422 945 417 950 412 C 955 412 1051 412 1161 412 C 1228 412 1291 412 1358 412 C 1368 417 1377 427 1382 436 M 2059 422 C 2064 427 2068 446 2068 460 C 2068 470 2073 480 2073 489 C 2059 489 2040 489 2025 489 C 2011 489 1996 489 1977 489 C 1977 480 1977 465 1977 456 C 1977 408 1977 408 2020 408 C 2049 408 2054 412 2059 422 M 2424 436 C 2448 460 2457 460 2443 441 C 2428 408 2409 408 2673 412 C 2750 412 2827 412 2908 412 C 2908 427 2908 436 2908 451 C 2908 465 2908 475 2908 489 C 2769 489 2630 489 2491 489 C 2356 489 2217 489 2078 494 C 2078 480 2078 465 2078 456 C 2078 432 2078 417 2083 412 C 2088 412 2160 412 2246 412 C 2294 412 2347 412 2400 412 C 2409 422 2414 427 2424 436 M 3187 451 C 3187 465 3187 480 3192 489 C 3144 489 3100 489 3052 489 C 3009 489 2961 489 2913 489 C 2913 480 2913 465 2913 456 C 2913 432 2918 417 2918 412 C 2923 412 2980 412 3052 412 C 3100 412 3144 412 3187 412 C 3187 427 3187 436 3187 451 M 3278 412 C 3288 417 3292 417 3292 432 C 3292 441 3292 446 3292 451 C 3292 446 3292 441 3297 432 C 3302 412 3307 408 3432 408 C 3465 408 3494 408 3528 408 C 3537 417 3547 427 3552 436 C 3580 465 3600 470 3576 441 C 3552 408 3556 408 3835 412 C 3912 412 3984 412 4060 412 C 4060 427 4060 436 4060 451 C 4060 465 4060 475 4060 489 C 3916 489 3772 489 3628 489 C 3484 489 3340 489 3201 494 C 3201 480 3201 465 3201 456 C 3201 432 3201 417 3201 412 C 3206 408 3264 408 3278 412 M 4161 427 C 4161 432 4161 436 4161 441 C 4161 446 4161 446 4166 446 C 4166 446 4166 436 4166 432 C 4166 427 4171 417 4176 417 C 4180 412 4296 412 4396 412 C 4425 412 4454 412 4478 417 C 4478 422 4478 427 4478 436 C 4478 441 4478 451 4478 456 C 4473 456 4468 456 4464 456 C 4440 451 4425 456 4406 475 C 4401 480 4392 489 4387 494 C 4334 494 4286 494 4233 494 C 4056 489 4070 494 4070 456 C 4070 412 4070 412 4123 412 C 4152 412 4156 412 4161 427 M 4584 417 C 4588 412 4804 412 4824 412 C 4833 417 4833 417 4833 456 C 4833 465 4833 480 4833 489 C 4776 489 4718 489 4665 489 C 4608 489 4545 489 4488 489 C 4488 480 4488 465 4488 456 C 4488 441 4488 427 4488 417 C 4502 412 4512 412 4521 412 C 4540 412 4560 412 4569 417 C 4574 417 4584 417 4584 417 M 4987 432 C 4977 446 4972 451 4977 470 C 4977 480 4977 484 4977 489 C 4958 489 4934 489 4910 489 C 4891 489 4867 489 4843 489 C 4843 480 4843 465 4843 456 C 4843 441 4843 427 4843 417 C 4872 417 4900 417 4924 417 C 4953 417 4977 417 5006 417 C 5001 422 4996 427 4987 432 M 4478 532 C 4478 547 4478 547 4464 542 C 4459 537 4459 537 4464 528 C 4473 518 4478 518 4478 532 M 148 984 C 148 984 144 993 139 1003 C 129 1012 120 1032 115 1041 C 115 1051 115 1056 110 1060 C 96 1060 81 1060 62 1060 C 48 1060 33 1060 14 1060 C 14 1051 14 1036 14 1022 C 14 1008 14 993 14 979 C 38 979 62 979 81 979 C 120 979 148 984 148 984 M 446 993 C 446 998 446 1008 441 1008 C 432 1017 432 1056 441 1051 C 441 1051 446 1056 446 1056 C 451 1065 321 1070 307 1060 C 302 1060 292 1051 292 1041 C 292 1036 283 1017 268 1008 C 259 998 249 984 254 984 C 259 984 302 984 355 984 C 441 984 446 984 446 993 M 475 984 C 484 993 480 998 465 998 C 460 998 456 993 460 984 C 465 979 470 979 475 984 M 1910 984 C 1910 984 1900 993 1896 1003 C 1891 1008 1881 1022 1881 1027 C 1881 1032 1876 1046 1876 1051 C 1876 1056 1876 1060 1872 1060 C 1747 1065 1622 1065 1492 1065 C 1286 1065 1075 1065 1032 1065 C 1003 1065 974 1065 945 1065 C 945 1056 940 1051 940 1046 C 931 1017 888 1017 859 1046 C 854 1051 849 1056 844 1065 C 787 1065 729 1065 672 1065 C 576 1065 499 1060 494 1060 C 489 1056 489 1036 499 1027 C 504 1022 508 1012 508 1003 C 508 993 508 984 508 984 C 513 979 1910 984 1910 984 M 2908 1022 C 2908 1036 2908 1051 2908 1060 C 2745 1060 2587 1060 2433 1060 C 2169 1060 1958 1060 1958 1060 C 1958 1060 1958 1051 1968 1041 C 1977 1027 1982 1003 1972 988 C 1968 984 1992 979 2438 979 C 2592 979 2750 979 2908 979 C 2908 993 2908 1008 2908 1022 M 3096 1022 C 3096 1036 3096 1046 3096 1060 C 3067 1060 3033 1060 3004 1060 C 2976 1060 2947 1060 2913 1065 C 2913 1051 2913 1036 2913 1022 C 2913 1008 2913 993 2913 979 C 2947 984 2976 984 3004 984 C 3033 984 3067 984 3096 984 C 3096 998 3096 1008 3096 1022 M 3998 984 C 3998 988 3993 993 3988 998 C 3974 1008 3964 1027 3964 1046 C 3964 1051 3964 1056 3964 1060 C 3912 1060 3854 1060 3801 1060 C 3696 1060 3633 1065 3633 1065 C 3633 1070 3696 1075 3801 1075 C 3859 1075 3912 1075 3969 1075 C 3964 1084 3964 1099 3964 1113 C 3964 1128 3964 1137 3964 1152 C 3820 1152 3676 1152 3537 1152 C 3393 1152 3249 1152 3105 1152 C 3105 1147 3105 1142 3105 1137 C 3100 1108 3105 1104 3120 1113 C 3139 1118 3168 1108 3182 1089 C 3187 1084 3192 1080 3196 1075 C 3249 1075 3302 1075 3360 1075 C 3465 1075 3523 1070 3523 1065 C 3523 1065 3465 1060 3360 1060 C 3307 1060 3254 1060 3201 1060 C 3201 1060 3196 1056 3196 1051 C 3196 1046 3187 1036 3182 1027 C 3177 1027 3172 1022 3168 1017 C 3172 1012 3177 1008 3182 998 C 3187 993 3192 988 3196 984 C 3331 984 3465 984 3595 984 C 3820 984 3998 984 3998 984 M 4833 1022 C 4833 1036 4833 1046 4833 1060 C 4771 1060 4708 1060 4646 1060 C 4584 1060 4526 1060 4464 1065 C 4454 1056 4449 1051 4444 1041 C 4420 1012 4401 1012 4420 1041 C 4440 1060 4440 1060 4305 1065 C 4137 1065 4046 1065 4046 1056 C 4046 1056 4051 1046 4060 1041 C 4065 1027 4070 1022 4065 1003 C 4065 998 4065 988 4065 979 C 4190 984 4320 984 4449 984 C 4579 984 4704 984 4833 984 C 4833 998 4833 1008 4833 1022 M 225 1008 C 235 1017 249 1041 249 1056 C 249 1065 201 1065 192 1056 C 187 1046 172 1041 168 1041 C 153 1036 148 1032 148 1027 C 144 993 196 984 225 1008 M 3120 1036 C 3115 1041 3110 1046 3105 1046 C 3105 1046 3105 1022 3105 1017 C 3105 1017 3115 1017 3120 1022 C 3124 1022 3129 1022 3134 1027 C 3129 1032 3124 1032 3120 1036 M 480 1051 C 480 1060 480 1060 470 1060 C 460 1060 451 1051 460 1041 C 470 1032 480 1041 480 1051 M 124 1084 C 139 1104 172 1104 187 1084 C 196 1075 201 1070 220 1075 C 230 1075 235 1075 244 1075 C 244 1080 244 1084 244 1089 C 240 1099 240 1118 235 1128 C 230 1137 225 1142 225 1152 C 192 1152 153 1152 120 1152 C 86 1152 52 1152 14 1156 C 14 1142 14 1128 14 1113 C 14 1099 14 1084 14 1075 C 33 1075 48 1075 62 1075 C 105 1075 110 1075 124 1084 M 446 1089 C 446 1099 446 1108 441 1113 C 432 1118 432 1123 432 1137 C 432 1142 432 1147 432 1156 C 408 1156 379 1156 350 1156 C 302 1156 268 1152 268 1152 C 268 1152 273 1137 278 1128 C 288 1113 297 1099 297 1089 C 297 1084 302 1080 302 1075 C 326 1075 350 1075 374 1075 C 398 1075 422 1075 446 1075 C 446 1080 446 1084 446 1089 M 480 1084 C 480 1089 475 1094 470 1099 C 460 1099 456 1099 456 1084 C 456 1075 460 1075 470 1075 C 480 1075 484 1075 480 1084 M 600 1099 C 600 1123 595 1128 590 1132 C 576 1137 571 1132 571 1104 C 571 1094 571 1080 571 1080 C 566 1080 566 1094 566 1108 C 566 1147 556 1156 518 1152 C 494 1152 484 1142 499 1128 C 508 1113 513 1094 499 1084 C 484 1075 499 1075 547 1075 C 566 1075 580 1075 600 1075 C 600 1080 600 1089 600 1099 M 840 1113 C 840 1128 840 1137 840 1152 C 806 1152 768 1152 734 1152 C 696 1152 662 1152 624 1156 C 624 1152 624 1147 624 1142 C 624 1132 624 1123 614 1118 C 609 1118 604 1089 609 1075 C 609 1075 662 1075 729 1075 C 768 1075 806 1075 844 1075 C 840 1084 840 1099 840 1113 M 1876 1080 C 1881 1089 1881 1128 1876 1142 C 1872 1152 1872 1156 1790 1156 C 1761 1156 1732 1156 1704 1156 C 1704 1147 1708 1142 1708 1137 C 1708 1128 1713 1118 1713 1108 C 1718 1099 1713 1094 1713 1094 C 1708 1094 1704 1094 1704 1099 C 1704 1104 1684 1128 1675 1128 C 1675 1128 1670 1123 1675 1113 C 1680 1104 1665 1089 1651 1089 C 1636 1089 1632 1094 1632 1108 C 1632 1132 1656 1147 1689 1132 C 1694 1128 1699 1132 1694 1142 C 1694 1142 1694 1147 1694 1152 C 1656 1152 1617 1152 1579 1152 C 1540 1152 1502 1152 1459 1156 C 1459 1152 1459 1147 1459 1142 C 1459 1137 1454 1128 1444 1118 C 1425 1104 1406 1108 1377 1137 C 1372 1142 1368 1147 1358 1156 C 1329 1156 1300 1156 1272 1156 C 1243 1156 1214 1156 1185 1156 C 1185 1152 1190 1147 1190 1142 C 1190 1132 1195 1118 1195 1108 C 1195 1104 1195 1094 1200 1089 C 1195 1094 1190 1104 1180 1108 C 1166 1128 1152 1132 1156 1113 C 1161 1094 1132 1075 1118 1094 C 1099 1118 1123 1147 1161 1137 C 1176 1132 1180 1132 1176 1142 C 1176 1156 945 1161 945 1142 C 945 1137 936 1128 926 1118 C 921 1113 916 1108 912 1104 C 916 1104 921 1099 926 1094 C 931 1084 936 1080 936 1075 C 936 1070 1872 1070 1876 1080 M 1900 1075 C 1900 1080 1891 1094 1886 1094 C 1886 1094 1881 1089 1881 1080 C 1881 1075 1886 1075 1891 1075 C 1900 1075 1900 1075 1900 1075 M 2414 1084 C 2400 1099 2390 1118 2390 1142 C 2390 1147 2390 1152 2390 1156 C 2366 1156 2337 1156 2308 1156 C 2280 1156 2251 1156 2222 1156 C 2222 1147 2227 1142 2227 1132 C 2227 1123 2232 1108 2232 1104 C 2232 1094 2232 1094 2232 1094 C 2227 1094 2222 1094 2222 1094 C 2222 1104 2198 1128 2193 1128 C 2188 1128 2188 1118 2188 1108 C 2193 1084 2160 1075 2145 1099 C 2136 1123 2169 1147 2198 1137 C 2212 1128 2217 1132 2212 1142 C 2208 1152 2208 1156 2083 1156 C 2006 1156 1958 1152 1958 1152 C 1958 1147 1963 1137 1968 1128 C 1982 1108 1982 1099 1972 1080 C 1968 1075 1982 1075 2198 1075 C 2275 1075 2352 1075 2428 1075 C 2424 1075 2419 1080 2414 1084 M 2904 1113 C 2904 1128 2904 1137 2904 1152 C 2875 1152 2851 1152 2822 1152 C 2731 1152 2736 1156 2745 1108 C 2745 1104 2745 1094 2750 1089 C 2745 1094 2740 1104 2731 1108 C 2716 1128 2702 1132 2707 1118 C 2712 1094 2688 1075 2673 1089 C 2644 1108 2673 1147 2712 1137 C 2731 1132 2736 1132 2726 1147 C 2721 1152 2716 1156 2596 1156 C 2467 1156 2467 1152 2486 1132 C 2496 1118 2496 1089 2486 1080 C 2481 1075 2529 1075 2692 1075 C 2764 1075 2836 1075 2908 1075 C 2904 1084 2904 1099 2904 1113 M 3096 1113 C 3096 1128 3096 1137 3096 1152 C 3067 1152 3033 1152 3004 1152 C 2976 1152 2947 1152 2913 1156 C 2913 1142 2913 1128 2913 1113 C 2913 1099 2913 1084 2913 1075 C 2947 1075 2976 1075 3009 1075 C 3038 1075 3067 1075 3100 1075 C 3100 1084 3096 1099 3096 1113 M 4430 1080 C 4430 1084 4425 1104 4416 1113 C 4406 1128 4401 1142 4401 1147 C 4406 1152 4396 1156 4334 1156 C 4310 1156 4286 1156 4267 1156 C 4267 1152 4267 1147 4267 1142 C 4267 1132 4267 1118 4267 1113 C 4276 1089 4272 1084 4252 1108 C 4238 1128 4224 1132 4228 1113 C 4233 1089 4214 1075 4195 1089 C 4161 1108 4204 1152 4238 1137 C 4252 1128 4257 1132 4252 1142 C 4243 1152 4243 1156 4161 1156 C 4132 1156 4108 1156 4080 1156 C 4075 1147 4075 1137 4070 1128 C 4065 1108 4065 1104 4065 1123 C 4070 1152 4065 1156 4017 1156 C 4003 1156 3988 1156 3979 1156 C 3979 1142 3979 1128 3979 1113 C 3979 1099 3979 1084 3979 1075 C 4051 1075 4128 1075 4204 1075 C 4425 1070 4430 1075 4430 1080 M 4833 1113 C 4833 1128 4833 1137 4833 1152 C 4771 1152 4708 1152 4646 1152 C 4435 1156 4444 1156 4473 1123 C 4483 1104 4488 1099 4483 1089 C 4478 1080 4478 1075 4478 1075 C 4478 1075 4555 1075 4656 1075 C 4713 1075 4776 1075 4833 1075 C 4833 1089 4833 1099 4833 1113 M 873 1118 C 873 1118 868 1123 864 1132 C 859 1132 854 1137 849 1142 C 849 1137 849 1128 849 1123 C 849 1108 859 1104 873 1118 M 480 1142 C 480 1152 456 1156 456 1152 C 456 1147 470 1137 480 1137 C 480 1137 480 1137 480 1142 M 211 1166 C 216 1176 168 1214 144 1228 C 124 1238 115 1243 72 1243 C 52 1243 33 1248 19 1248 C 19 1243 14 1238 14 1233 C 9 1204 19 1166 24 1161 C 43 1161 211 1161 211 1166 M 446 1166 C 446 1166 446 1176 446 1190 C 446 1200 451 1204 456 1204 C 456 1204 456 1195 456 1180 C 456 1166 460 1161 470 1161 C 480 1161 480 1166 480 1176 C 480 1180 484 1190 489 1190 C 489 1190 489 1180 489 1176 C 489 1161 494 1161 532 1161 C 547 1161 547 1161 547 1171 C 547 1176 552 1185 556 1185 C 566 1190 566 1238 556 1243 C 542 1248 158 1248 153 1243 C 153 1238 163 1228 177 1219 C 192 1209 216 1195 230 1185 C 249 1166 254 1166 288 1161 C 336 1161 436 1161 446 1166 M 830 1161 C 835 1161 840 1166 844 1166 C 840 1176 840 1190 840 1204 C 840 1219 840 1228 840 1243 C 806 1243 768 1243 734 1243 C 700 1243 662 1243 628 1243 C 628 1238 628 1238 628 1233 C 624 1228 624 1224 619 1224 C 609 1224 604 1195 609 1180 C 614 1166 614 1166 643 1161 C 700 1161 816 1161 830 1161 M 1171 1161 C 1176 1171 1161 1228 1152 1238 C 1147 1248 868 1248 854 1243 C 849 1238 844 1204 849 1200 C 849 1200 859 1200 864 1204 C 883 1209 916 1200 931 1180 C 936 1171 940 1166 945 1161 C 979 1161 1017 1161 1056 1161 C 1123 1161 1171 1161 1171 1161 M 1344 1161 C 1348 1161 1353 1166 1358 1166 C 1358 1176 1358 1190 1358 1204 C 1358 1248 1368 1248 1257 1248 C 1228 1248 1195 1248 1166 1248 C 1166 1238 1171 1228 1171 1224 C 1176 1180 1185 1166 1195 1161 C 1219 1161 1329 1156 1344 1161 M 1689 1161 C 1689 1166 1675 1233 1670 1238 C 1665 1243 1632 1243 1516 1243 C 1468 1243 1416 1243 1368 1243 C 1368 1233 1368 1228 1368 1219 C 1363 1200 1363 1195 1377 1200 C 1406 1209 1430 1200 1449 1180 C 1454 1171 1459 1166 1464 1161 C 1502 1161 1536 1161 1574 1161 C 1636 1161 1689 1161 1689 1161 M 1872 1166 C 1876 1171 1876 1224 1876 1243 C 1872 1248 1689 1243 1684 1243 C 1684 1238 1699 1176 1704 1166 C 1708 1156 1867 1156 1872 1166 M 2203 1171 C 2203 1180 2203 1200 2198 1214 C 2193 1224 2193 1233 2188 1243 C 2155 1243 2121 1243 2088 1243 C 1982 1248 1982 1243 1977 1219 C 1977 1209 1977 1209 1977 1224 C 1972 1228 1972 1238 1972 1243 C 1958 1243 1944 1243 1929 1243 C 1915 1243 1900 1243 1881 1248 C 1881 1233 1881 1219 1881 1204 C 1881 1185 1886 1166 1886 1161 C 1886 1161 1958 1161 2049 1161 C 2102 1161 2155 1156 2203 1156 C 2203 1161 2203 1166 2203 1171 M 2390 1200 C 2390 1214 2390 1228 2390 1243 C 2361 1243 2328 1243 2299 1243 C 2251 1243 2208 1243 2203 1243 C 2198 1238 2212 1176 2222 1166 C 2222 1161 2246 1156 2308 1156 C 2337 1156 2366 1156 2395 1156 C 2390 1171 2390 1185 2390 1200 M 2716 1161 C 2726 1166 2712 1228 2702 1238 C 2697 1248 2510 1248 2505 1238 C 2500 1238 2500 1228 2500 1219 C 2500 1214 2496 1204 2496 1204 C 2491 1204 2491 1209 2491 1219 C 2491 1243 2486 1248 2443 1248 C 2428 1248 2414 1248 2400 1248 C 2400 1233 2400 1219 2400 1204 C 2400 1190 2400 1176 2400 1161 C 2452 1161 2505 1161 2558 1161 C 2640 1161 2716 1161 2716 1161 M 2904 1204 C 2904 1214 2904 1228 2904 1243 C 2875 1243 2841 1243 2812 1243 C 2736 1248 2721 1243 2721 1238 C 2721 1233 2731 1180 2736 1166 C 2736 1161 2755 1161 2822 1161 C 2846 1161 2875 1161 2904 1161 C 2904 1176 2904 1190 2904 1204 M 3096 1190 C 3100 1248 3105 1248 3004 1248 C 2976 1248 2947 1248 2913 1248 C 2913 1228 2913 1214 2913 1200 C 2913 1185 2913 1171 2913 1156 C 2947 1161 2976 1161 3004 1161 C 3033 1161 3067 1161 3096 1161 C 3096 1171 3096 1180 3096 1190 M 3192 1190 C 3192 1233 3182 1243 3139 1243 C 3129 1243 3120 1243 3105 1243 C 3105 1233 3105 1219 3105 1209 C 3100 1156 3100 1156 3148 1161 C 3163 1161 3177 1161 3192 1161 C 3192 1171 3192 1180 3192 1190 M 3388 1166 C 3384 1166 3384 1180 3384 1190 C 3379 1195 3374 1214 3374 1224 C 3369 1233 3369 1238 3364 1248 C 3340 1243 3312 1243 3283 1243 C 3259 1243 3230 1243 3201 1243 C 3201 1228 3201 1214 3201 1204 C 3201 1180 3201 1161 3201 1161 C 3211 1156 3388 1161 3388 1166 M 3528 1166 C 3532 1171 3532 1228 3528 1238 C 3523 1248 3379 1248 3384 1238 C 3384 1219 3398 1166 3403 1161 C 3412 1156 3523 1161 3528 1166 M 3619 1161 C 3633 1166 3624 1233 3604 1243 C 3600 1243 3585 1243 3566 1243 C 3556 1243 3547 1243 3537 1243 C 3537 1233 3537 1219 3537 1209 C 3537 1190 3537 1171 3537 1166 C 3537 1161 3600 1156 3619 1161 M 3811 1166 C 3811 1166 3801 1219 3796 1238 C 3792 1243 3782 1248 3715 1248 C 3686 1248 3657 1248 3633 1248 C 3633 1233 3633 1219 3633 1204 C 3633 1180 3633 1161 3633 1161 C 3638 1156 3806 1161 3811 1166 M 3964 1204 C 3964 1214 3964 1228 3964 1243 C 3940 1243 3916 1243 3892 1243 C 3849 1243 3816 1243 3811 1243 C 3806 1233 3825 1166 3830 1161 C 3835 1161 3868 1161 3902 1161 C 3921 1161 3945 1161 3964 1161 C 3964 1176 3964 1190 3964 1204 M 4200 1161 C 4214 1161 4233 1161 4248 1161 C 4248 1171 4243 1176 4243 1180 C 4243 1190 4238 1209 4233 1219 C 4228 1228 4228 1238 4224 1248 C 4195 1248 4166 1248 4137 1248 C 4089 1248 4046 1243 4046 1243 C 4046 1238 4056 1228 4060 1214 C 4065 1200 4075 1190 4075 1185 C 4075 1161 4075 1161 4200 1161 M 4425 1171 C 4449 1204 4454 1209 4430 1209 C 4411 1209 4406 1214 4396 1228 C 4392 1233 4387 1238 4382 1248 C 4363 1248 4339 1248 4315 1248 C 4276 1248 4243 1243 4243 1243 C 4238 1233 4257 1166 4262 1161 C 4291 1156 4416 1166 4425 1171 M 4800 1161 C 4809 1161 4824 1161 4838 1161 C 4833 1176 4833 1190 4833 1204 C 4833 1219 4833 1228 4833 1243 C 4776 1243 4713 1243 4656 1243 C 4555 1243 4464 1243 4454 1238 C 4449 1238 4444 1238 4440 1238 C 4444 1238 4454 1238 4459 1238 C 4483 1233 4488 1228 4468 1214 C 4459 1204 4444 1176 4449 1166 C 4454 1166 4680 1161 4732 1161 C 4747 1161 4776 1161 4800 1161 M 4056 1176 C 4041 1214 4022 1238 3993 1243 C 3988 1243 3984 1243 3979 1243 C 3979 1233 3979 1219 3979 1204 C 3979 1190 3979 1176 3979 1161 C 3988 1161 4003 1161 4017 1161 C 4032 1161 4046 1161 4060 1161 C 4060 1166 4060 1171 4056 1176 M 4968 1204 C 4968 1219 4968 1228 4968 1243 C 4948 1243 4924 1243 4905 1243 C 4886 1243 4862 1243 4843 1243 C 4843 1228 4843 1219 4843 1204 C 4843 1190 4843 1176 4838 1161 C 4862 1161 4881 1161 4905 1161 C 4929 1161 4948 1161 4972 1161 C 4972 1176 4968 1190 4968 1204 M 5299 1166 C 5299 1176 5284 1233 5280 1238 C 5275 1248 5073 1248 5073 1238 C 5073 1238 5068 1238 5064 1238 C 5054 1243 5035 1243 5016 1243 C 5006 1243 4992 1243 4977 1243 C 4977 1238 4977 1228 4977 1219 C 4977 1200 4982 1195 4987 1200 C 5006 1209 5016 1209 5030 1200 C 5044 1195 5064 1176 5064 1166 C 5064 1166 5121 1161 5184 1161 C 5246 1161 5299 1166 5299 1166 M 600 1200 C 600 1219 595 1228 590 1228 C 576 1238 571 1238 571 1214 C 571 1180 576 1171 590 1171 C 595 1171 600 1176 600 1200 M 547 1267 C 552 1276 552 1286 556 1286 C 561 1286 566 1291 561 1305 C 561 1315 561 1320 561 1329 C 470 1329 379 1329 288 1329 C 196 1329 105 1329 14 1329 C 14 1324 14 1315 14 1310 C 14 1300 14 1281 14 1272 C 14 1262 14 1257 19 1252 C 105 1252 192 1252 283 1252 C 369 1252 460 1252 547 1252 C 547 1257 547 1262 547 1267 M 840 1291 C 840 1305 840 1320 844 1334 C 796 1334 753 1334 710 1334 C 662 1334 619 1334 571 1334 C 571 1324 571 1315 571 1305 C 571 1286 576 1276 580 1276 C 595 1267 600 1267 600 1296 C 600 1310 600 1320 604 1320 C 604 1320 604 1310 604 1296 C 604 1252 609 1248 734 1252 C 768 1252 806 1252 840 1252 C 840 1267 840 1281 840 1291 M 936 1276 C 936 1286 936 1305 931 1315 C 931 1320 926 1324 926 1334 C 912 1334 897 1334 888 1334 C 873 1334 859 1334 844 1334 C 844 1320 844 1305 844 1296 C 844 1272 849 1257 849 1252 C 854 1252 873 1252 897 1252 C 912 1252 926 1252 936 1252 C 936 1257 936 1267 936 1276 M 1358 1291 C 1358 1305 1358 1320 1363 1329 C 1305 1329 1248 1334 1190 1334 C 1099 1334 1003 1334 984 1334 C 969 1334 960 1329 945 1329 C 945 1320 945 1305 945 1291 C 945 1272 945 1252 945 1252 C 945 1252 1041 1252 1152 1252 C 1224 1252 1291 1252 1358 1252 C 1358 1267 1358 1276 1358 1291 M 1454 1272 C 1454 1281 1454 1300 1449 1310 C 1440 1329 1440 1334 1420 1334 C 1406 1334 1401 1334 1401 1334 C 1401 1339 1406 1344 1411 1344 C 1430 1344 1430 1344 1416 1363 C 1382 1392 1368 1392 1368 1363 C 1368 1344 1368 1344 1382 1344 C 1387 1344 1392 1339 1392 1334 C 1392 1334 1382 1334 1377 1334 C 1368 1334 1368 1329 1368 1291 C 1368 1276 1368 1262 1368 1248 C 1382 1252 1396 1252 1411 1252 C 1425 1252 1440 1252 1454 1252 C 1454 1257 1454 1267 1454 1272 M 1876 1281 C 1881 1296 1876 1315 1876 1320 C 1876 1324 1876 1329 1872 1334 C 1804 1334 1737 1334 1670 1334 C 1598 1334 1531 1334 1464 1334 C 1464 1320 1464 1305 1464 1291 C 1464 1272 1464 1252 1464 1252 C 1464 1252 1560 1252 1670 1252 C 1737 1252 1809 1252 1876 1252 C 1876 1262 1876 1272 1876 1281 M 1968 1252 C 1977 1272 1929 1334 1900 1334 C 1896 1334 1891 1334 1881 1334 C 1881 1320 1881 1305 1881 1291 C 1881 1276 1881 1262 1881 1252 C 1896 1252 1910 1252 1924 1252 C 1948 1252 1968 1252 1968 1252 M 2390 1291 C 2390 1305 2390 1320 2390 1334 C 2318 1334 2246 1334 2174 1334 C 2054 1334 1958 1329 1958 1329 C 1958 1329 1958 1320 1963 1315 C 1968 1305 1977 1291 1977 1276 C 1982 1267 1987 1257 1987 1252 C 1987 1252 2078 1252 2193 1252 C 2260 1252 2328 1252 2390 1252 C 2390 1262 2390 1276 2390 1291 M 2486 1262 C 2486 1286 2443 1329 2419 1329 C 2414 1329 2409 1329 2400 1334 C 2400 1320 2400 1305 2400 1291 C 2400 1276 2400 1262 2400 1252 C 2414 1252 2428 1252 2443 1252 C 2481 1252 2486 1252 2486 1262 M 2908 1291 C 2908 1305 2908 1320 2908 1334 C 2832 1334 2764 1334 2688 1334 C 2572 1334 2476 1329 2476 1329 C 2476 1329 2481 1315 2486 1305 C 2491 1291 2500 1276 2500 1272 C 2500 1248 2491 1252 2707 1252 C 2774 1252 2841 1252 2908 1252 C 2908 1262 2908 1276 2908 1291 M 3096 1257 C 3096 1262 3096 1276 3096 1296 C 3096 1305 3091 1320 3091 1329 C 3062 1329 3033 1329 3004 1329 C 2976 1329 2947 1329 2913 1334 C 2913 1320 2913 1305 2913 1291 C 2913 1276 2913 1262 2913 1252 C 2947 1252 2976 1252 3004 1252 C 3076 1252 3096 1252 3096 1257 M 3168 1252 C 3168 1267 3115 1300 3105 1296 C 3100 1291 3100 1257 3105 1252 C 3110 1248 3168 1248 3168 1252 M 3523 1291 C 3523 1305 3523 1320 3523 1334 C 3460 1334 3398 1334 3331 1334 C 3225 1334 3134 1329 3134 1329 C 3134 1329 3148 1315 3158 1296 C 3172 1281 3187 1267 3192 1257 C 3196 1252 3201 1252 3360 1252 C 3417 1252 3470 1252 3523 1252 C 3523 1262 3523 1276 3523 1291 M 3600 1252 C 3600 1262 3585 1272 3566 1286 C 3537 1305 3532 1300 3532 1272 C 3532 1267 3532 1257 3532 1252 C 3547 1252 3556 1252 3566 1252 C 3585 1252 3600 1252 3600 1252 M 3964 1286 C 3964 1305 3964 1324 3964 1324 C 3960 1334 3576 1334 3571 1329 C 3566 1329 3580 1315 3590 1300 C 3604 1286 3619 1267 3619 1262 C 3624 1257 3624 1252 3628 1248 C 3681 1252 3739 1252 3796 1252 C 3854 1252 3907 1252 3964 1252 C 3964 1262 3964 1276 3964 1286 M 4401 1262 C 4411 1276 4440 1300 4444 1296 C 4449 1296 4444 1291 4444 1291 C 4435 1286 4430 1267 4430 1257 C 4430 1252 4449 1252 4632 1252 C 4699 1252 4766 1252 4833 1252 C 4833 1262 4833 1276 4833 1286 C 4833 1305 4833 1324 4833 1329 C 4828 1329 4636 1329 4401 1334 C 3912 1334 3955 1339 4008 1281 C 4017 1272 4027 1262 4036 1252 C 4094 1252 4156 1252 4214 1252 C 4272 1252 4334 1252 4392 1252 C 4396 1252 4396 1257 4401 1262 M 4968 1291 C 4968 1305 4972 1320 4972 1334 C 4948 1334 4929 1334 4905 1334 C 4886 1334 4862 1334 4843 1334 C 4843 1320 4843 1305 4843 1296 C 4843 1272 4843 1257 4843 1252 C 4848 1252 4876 1252 4905 1252 C 4929 1252 4948 1252 4968 1252 C 4968 1267 4968 1281 4968 1291 M 5064 1276 C 5068 1324 5054 1339 5001 1334 C 4992 1334 4987 1329 4977 1329 C 4977 1315 4977 1305 4977 1291 C 4977 1276 4977 1262 4977 1248 C 4992 1252 5006 1252 5020 1252 C 5035 1252 5049 1252 5064 1252 C 5064 1262 5064 1267 5064 1276 M 907 1348 C 907 1358 864 1387 854 1382 C 849 1382 844 1372 844 1363 C 844 1353 844 1348 844 1344 C 859 1344 868 1344 878 1344 C 907 1344 912 1344 907 1348 M 5040 1348 C 5040 1358 4996 1382 4987 1382 C 4982 1382 4977 1377 4977 1363 C 4977 1353 4977 1348 4977 1344 C 4987 1344 4996 1344 5011 1344 C 5030 1344 5040 1344 5040 1348 z" fill="black" /><!-- width=5505 height=1488 -->
<path id="gl8704" d="M 38 28 C 28 33 19 38 4 43 C 4 254 4 465 4 672 C 4 883 4 1089 4 1300 C 19 1305 28 1310 43 1315 C 86 1334 91 1334 62 1315 C 52 1305 48 1300 38 1296 C 38 1084 43 878 43 667 C 43 91 48 43 52 38 C 91 14 81 9 38 28 z" fill="black" /><!-- width=110 height=1348 -->
<path id="gl8193" d="M 104 27 C 99 28 95 30 91 32 C 85 36 86 36 78 33 C 71 31 70 31 68 32 C 66 33 66 34 69 37 C 73 42 72 45 64 61 C 63 64 61 69 61 73 C 60 76 58 81 57 84 C 55 85 54 90 52 94 C 51 98 49 103 48 105 C 47 108 46 111 45 113 C 45 115 44 118 43 120 C 42 122 40 126 40 128 C 39 130 38 133 37 134 C 37 135 36 138 35 141 C 34 144 32 148 31 151 C 30 153 28 158 27 161 C 25 168 23 170 19 172 C 13 177 13 178 13 179 C 13 181 18 183 25 182 C 28 182 36 182 41 183 C 58 184 61 181 55 173 C 53 170 53 166 55 161 C 55 159 57 154 58 152 C 59 150 60 145 61 142 C 63 139 64 135 64 133 C 65 129 67 124 69 121 C 72 117 74 117 79 122 C 88 131 100 131 112 123 C 114 122 115 121 117 120 C 124 117 139 97 141 88 C 141 86 142 82 143 81 C 145 73 145 70 145 63 C 146 52 144 42 140 37 C 132 25 120 21 104 27 M 121 39 C 126 44 126 53 121 68 C 121 71 120 75 119 76 C 119 78 118 80 117 82 C 116 84 114 87 114 88 C 111 93 103 102 99 105 C 89 112 82 108 82 95 C 82 84 83 78 90 64 C 98 45 115 31 121 39 z" fill="black" /><!-- width=167 height=195 -->
<path id="gl6684" d="M 30 13 C 19 16 12 24 13 33 C 14 40 20 48 27 50 C 30 51 38 51 42 50 C 60 46 63 25 47 16 C 40 13 36 12 30 13 z" fill="black" /><!-- width=71 height=64 -->
<path id="gl6684" d="M 30 13 C 19 16 12 24 13 33 C 14 40 20 48 27 50 C 30 51 38 51 42 50 C 60 46 63 25 47 16 C 40 13 36 12 30 13 z" fill="black" /><!-- width=71 height=64 -->
</defs>
<use xlink:href="#gl8195" x="3384" y="1080" />
<use xlink:href="#gl8196" x="3446" y="1094" />
<use xlink:href="#gl8197" x="3585" y="1042" />
<use xlink:href="#gl8198" x="3609" y="1018" />
<use xlink:href="#gl8199" x="3811" y="1080" />
<use xlink:href="#gl8200" x="3864" y="1080" />
<use xlink:href="#gl8448" x="67" y="0" />
<use xlink:href="#gl8704" x="0" y="77" />
<use xlink:href="#gl8193" x="575" y="635" />
<use xlink:href="#gl6684" x="365" y="997" />
<use xlink:href="#gl6684" x="365" y="1075" />
</svg>